M48
; DRILL file {KiCad (5.1.6)-1} date 09/05/20 22:14:35
; FORMAT={-:-/ absolute / metric / decimal}
; #@! TF.CreationDate,2020-09-05T22:14:35+08:00
; #@! TF.GenerationSoftware,Kicad,Pcbnew,(5.1.6)-1
FMAT,2
METRIC
T1C0.350
T2C0.400
T3C0.450
T4C0.550
T5C0.600
T6C1.000
T7C0.650
%
G90
G05
T1
X76.5Y-91.25
X76.5Y-93.25
X76.5Y-95.25
X76.5Y-97.25
X76.5Y-99.25
X76.5Y-101.25
X76.5Y-103.25
X76.5Y-105.25
X76.5Y-107.25
X76.5Y-109.25
X76.5Y-111.25
X76.5Y-113.25
X76.5Y-115.25
X76.5Y-117.25
X76.5Y-119.25
X80.1Y-103.1
X80.8Y-102.3
X83.485Y-114.985
X83.575Y-107.175
X84.095Y-96.905
X84.095Y-109.095
X84.5Y-102.0
X84.5Y-103.25
X85.25Y-97.0
X85.75Y-102.0
X85.75Y-103.25
X86.65Y-112.35
X86.75Y-97.25
X88.0Y-109.0
X88.5Y-97.5
X89.0Y-96.0
X89.75Y-97.75
X91.25Y-97.25
X92.5Y-99.25
X92.5Y-113.0
X92.75Y-98.25
X93.0Y-96.75
X96.3Y-108.5
X97.75Y-93.75
X97.75Y-94.75
X98.15Y-110.05
X98.233Y-109.183
X98.45Y-115.55
X98.85Y-111.35
X101.0Y-97.0
X102.25Y-97.0
X103.515Y-114.235
X105.25Y-97.75
X106.0Y-91.25
X106.0Y-97.75
X108.54Y-91.25
X110.0Y-119.0
X110.625Y-117.075
X111.0Y-119.0
X111.08Y-91.25
X111.1Y-109.4
X112.0Y-119.0
X112.2Y-115.9
X113.62Y-91.25
X113.985Y-104.985
X114.25Y-117.5
X114.75Y-95.25
X115.0Y-103.75
X115.0Y-117.5
X115.5Y-114.5
X116.16Y-91.25
X117.0Y-99.5
X119.0Y-96.5
X119.188Y-98.312
X119.5Y-115.5
X120.0Y-96.5
X120.0Y-98.312
X120.5Y-111.5
X121.475Y-111.525
X122.0Y-99.0
X122.75Y-96.5
X122.75Y-99.0
X123.5Y-99.0
X125.0Y-96.75
X128.75Y-96.5
X128.75Y-97.5
X129.75Y-96.5
X129.75Y-97.5
T2
X109.0Y-112.2
X109.0Y-113.4
X110.3Y-112.2
X110.3Y-113.4
T3
X104.712Y-94.188
T4
X79.015Y-107.5
T6
X121.5Y-92.25
X124.04Y-92.25
X80.75Y-118.0
X83.29Y-118.0
X85.83Y-118.0
X88.37Y-118.0
X90.91Y-118.0
X93.45Y-118.0
X99.71Y-93.5
X102.25Y-93.5
X97.09Y-118.0
X99.63Y-118.0
X102.17Y-118.0
X104.71Y-118.0
X107.25Y-118.0
X133.0Y-95.25
X133.0Y-97.79
X133.0Y-100.33
X133.0Y-102.87
X133.0Y-105.41
X133.0Y-107.95
X133.0Y-110.49
X133.0Y-113.03
X133.0Y-115.57
T7
X118.61Y-114.4
X124.39Y-114.4
T5
G00X117.18Y-113.32
M15
G01X117.18Y-114.42
M16
G05
G00X117.18Y-117.75
M15
G01X117.18Y-118.35
M16
G05
G00X125.82Y-113.32
M15
G01X125.82Y-114.42
M16
G05
G00X125.82Y-117.75
M15
G01X125.82Y-118.35
M16
G05
T0
M30
