G04 #@! TF.GenerationSoftware,KiCad,Pcbnew,(5.1.6)-1*
G04 #@! TF.CreationDate,2020-09-05T22:14:17+08:00*
G04 #@! TF.ProjectId,epaper,65706170-6572-42e6-9b69-6361645f7063,rev?*
G04 #@! TF.SameCoordinates,Original*
G04 #@! TF.FileFunction,Copper,L1,Top*
G04 #@! TF.FilePolarity,Positive*
%FSLAX46Y46*%
G04 Gerber Fmt 4.6, Leading zero omitted, Abs format (unit mm)*
G04 Created by KiCad (PCBNEW (5.1.6)-1) date 2020-09-05 22:14:17*
%MOMM*%
%LPD*%
G01*
G04 APERTURE LIST*
G04 #@! TA.AperFunction,SMDPad,CuDef*
%ADD10R,0.600000X0.450000*%
G04 #@! TD*
G04 #@! TA.AperFunction,ComponentPad*
%ADD11O,1.700000X1.700000*%
G04 #@! TD*
G04 #@! TA.AperFunction,ComponentPad*
%ADD12R,1.700000X1.700000*%
G04 #@! TD*
G04 #@! TA.AperFunction,SMDPad,CuDef*
%ADD13R,0.650000X1.220000*%
G04 #@! TD*
G04 #@! TA.AperFunction,SMDPad,CuDef*
%ADD14R,2.000000X1.500000*%
G04 #@! TD*
G04 #@! TA.AperFunction,SMDPad,CuDef*
%ADD15R,2.000000X3.800000*%
G04 #@! TD*
G04 #@! TA.AperFunction,SMDPad,CuDef*
%ADD16R,0.900000X2.000000*%
G04 #@! TD*
G04 #@! TA.AperFunction,SMDPad,CuDef*
%ADD17R,2.000000X0.900000*%
G04 #@! TD*
G04 #@! TA.AperFunction,SMDPad,CuDef*
%ADD18R,5.000000X5.000000*%
G04 #@! TD*
G04 #@! TA.AperFunction,SMDPad,CuDef*
%ADD19R,2.800000X1.000000*%
G04 #@! TD*
G04 #@! TA.AperFunction,SMDPad,CuDef*
%ADD20R,0.800000X0.900000*%
G04 #@! TD*
G04 #@! TA.AperFunction,ComponentPad*
%ADD21O,1.000000X1.600000*%
G04 #@! TD*
G04 #@! TA.AperFunction,ComponentPad*
%ADD22O,1.000000X2.100000*%
G04 #@! TD*
G04 #@! TA.AperFunction,SMDPad,CuDef*
%ADD23R,0.300000X1.450000*%
G04 #@! TD*
G04 #@! TA.AperFunction,SMDPad,CuDef*
%ADD24R,0.600000X1.450000*%
G04 #@! TD*
G04 #@! TA.AperFunction,ViaPad*
%ADD25C,0.600000*%
G04 #@! TD*
G04 #@! TA.AperFunction,ViaPad*
%ADD26C,0.800000*%
G04 #@! TD*
G04 #@! TA.AperFunction,ViaPad*
%ADD27C,1.000000*%
G04 #@! TD*
G04 #@! TA.AperFunction,Conductor*
%ADD28C,0.250000*%
G04 #@! TD*
G04 #@! TA.AperFunction,Conductor*
%ADD29C,0.800000*%
G04 #@! TD*
G04 #@! TA.AperFunction,Conductor*
%ADD30C,0.500000*%
G04 #@! TD*
G04 #@! TA.AperFunction,Conductor*
%ADD31C,0.600000*%
G04 #@! TD*
G04 #@! TA.AperFunction,Conductor*
%ADD32C,0.254000*%
G04 #@! TD*
G04 #@! TA.AperFunction,Conductor*
%ADD33C,0.700000*%
G04 #@! TD*
G04 #@! TA.AperFunction,Conductor*
%ADD34C,0.450000*%
G04 #@! TD*
G04 APERTURE END LIST*
D10*
X105450000Y-104700000D03*
X107550000Y-104700000D03*
D11*
X133000000Y-115570000D03*
X133000000Y-113030000D03*
X133000000Y-110490000D03*
X133000000Y-107950000D03*
X133000000Y-105410000D03*
X133000000Y-102870000D03*
X133000000Y-100330000D03*
X133000000Y-97790000D03*
D12*
X133000000Y-95250000D03*
D13*
X123700000Y-100310000D03*
X121800000Y-100310000D03*
X121800000Y-97690000D03*
X122750000Y-97690000D03*
X123700000Y-97690000D03*
D14*
X108100000Y-92700000D03*
X108100000Y-97300000D03*
X108100000Y-95000000D03*
D15*
X114400000Y-95000000D03*
D16*
X77745000Y-93500000D03*
X79015000Y-93500000D03*
X80285000Y-93500000D03*
X81555000Y-93500000D03*
X82825000Y-93500000D03*
X84095000Y-93500000D03*
X85365000Y-93500000D03*
X86635000Y-93500000D03*
X87905000Y-93500000D03*
X89175000Y-93500000D03*
X90445000Y-93500000D03*
X91715000Y-93500000D03*
X92985000Y-93500000D03*
X94255000Y-93500000D03*
D17*
X95255000Y-96285000D03*
X95255000Y-97555000D03*
X95255000Y-98825000D03*
X95255000Y-100095000D03*
X95255000Y-101365000D03*
X95255000Y-102635000D03*
X95255000Y-103905000D03*
X95255000Y-105175000D03*
X95255000Y-106445000D03*
X95255000Y-107715000D03*
D16*
X94255000Y-110500000D03*
X92985000Y-110500000D03*
X91715000Y-110500000D03*
X90445000Y-110500000D03*
X89175000Y-110500000D03*
X87905000Y-110500000D03*
X86635000Y-110500000D03*
X85365000Y-110500000D03*
X84095000Y-110500000D03*
X82825000Y-110500000D03*
X81555000Y-110500000D03*
X80285000Y-110500000D03*
X79015000Y-110500000D03*
X77745000Y-110500000D03*
D18*
X85245000Y-103000000D03*
D19*
X118600000Y-104250000D03*
X124400000Y-104250000D03*
X118600000Y-108250000D03*
X124400000Y-108250000D03*
G04 #@! TA.AperFunction,SMDPad,CuDef*
G36*
G01*
X124827500Y-100440000D02*
X125172500Y-100440000D01*
G75*
G02*
X125320000Y-100587500I0J-147500D01*
G01*
X125320000Y-100882500D01*
G75*
G02*
X125172500Y-101030000I-147500J0D01*
G01*
X124827500Y-101030000D01*
G75*
G02*
X124680000Y-100882500I0J147500D01*
G01*
X124680000Y-100587500D01*
G75*
G02*
X124827500Y-100440000I147500J0D01*
G01*
G37*
G04 #@! TD.AperFunction*
G04 #@! TA.AperFunction,SMDPad,CuDef*
G36*
G01*
X124827500Y-99470000D02*
X125172500Y-99470000D01*
G75*
G02*
X125320000Y-99617500I0J-147500D01*
G01*
X125320000Y-99912500D01*
G75*
G02*
X125172500Y-100060000I-147500J0D01*
G01*
X124827500Y-100060000D01*
G75*
G02*
X124680000Y-99912500I0J147500D01*
G01*
X124680000Y-99617500D01*
G75*
G02*
X124827500Y-99470000I147500J0D01*
G01*
G37*
G04 #@! TD.AperFunction*
G04 #@! TA.AperFunction,SMDPad,CuDef*
G36*
G01*
X125827500Y-98190000D02*
X126172500Y-98190000D01*
G75*
G02*
X126320000Y-98337500I0J-147500D01*
G01*
X126320000Y-98632500D01*
G75*
G02*
X126172500Y-98780000I-147500J0D01*
G01*
X125827500Y-98780000D01*
G75*
G02*
X125680000Y-98632500I0J147500D01*
G01*
X125680000Y-98337500D01*
G75*
G02*
X125827500Y-98190000I147500J0D01*
G01*
G37*
G04 #@! TD.AperFunction*
G04 #@! TA.AperFunction,SMDPad,CuDef*
G36*
G01*
X125827500Y-97220000D02*
X126172500Y-97220000D01*
G75*
G02*
X126320000Y-97367500I0J-147500D01*
G01*
X126320000Y-97662500D01*
G75*
G02*
X126172500Y-97810000I-147500J0D01*
G01*
X125827500Y-97810000D01*
G75*
G02*
X125680000Y-97662500I0J147500D01*
G01*
X125680000Y-97367500D01*
G75*
G02*
X125827500Y-97220000I147500J0D01*
G01*
G37*
G04 #@! TD.AperFunction*
G04 #@! TA.AperFunction,SMDPad,CuDef*
G36*
G01*
X124827500Y-98190000D02*
X125172500Y-98190000D01*
G75*
G02*
X125320000Y-98337500I0J-147500D01*
G01*
X125320000Y-98632500D01*
G75*
G02*
X125172500Y-98780000I-147500J0D01*
G01*
X124827500Y-98780000D01*
G75*
G02*
X124680000Y-98632500I0J147500D01*
G01*
X124680000Y-98337500D01*
G75*
G02*
X124827500Y-98190000I147500J0D01*
G01*
G37*
G04 #@! TD.AperFunction*
G04 #@! TA.AperFunction,SMDPad,CuDef*
G36*
G01*
X124827500Y-97220000D02*
X125172500Y-97220000D01*
G75*
G02*
X125320000Y-97367500I0J-147500D01*
G01*
X125320000Y-97662500D01*
G75*
G02*
X125172500Y-97810000I-147500J0D01*
G01*
X124827500Y-97810000D01*
G75*
G02*
X124680000Y-97662500I0J147500D01*
G01*
X124680000Y-97367500D01*
G75*
G02*
X124827500Y-97220000I147500J0D01*
G01*
G37*
G04 #@! TD.AperFunction*
G04 #@! TA.AperFunction,SMDPad,CuDef*
G36*
G01*
X110327500Y-104690000D02*
X110672500Y-104690000D01*
G75*
G02*
X110820000Y-104837500I0J-147500D01*
G01*
X110820000Y-105132500D01*
G75*
G02*
X110672500Y-105280000I-147500J0D01*
G01*
X110327500Y-105280000D01*
G75*
G02*
X110180000Y-105132500I0J147500D01*
G01*
X110180000Y-104837500D01*
G75*
G02*
X110327500Y-104690000I147500J0D01*
G01*
G37*
G04 #@! TD.AperFunction*
G04 #@! TA.AperFunction,SMDPad,CuDef*
G36*
G01*
X110327500Y-103720000D02*
X110672500Y-103720000D01*
G75*
G02*
X110820000Y-103867500I0J-147500D01*
G01*
X110820000Y-104162500D01*
G75*
G02*
X110672500Y-104310000I-147500J0D01*
G01*
X110327500Y-104310000D01*
G75*
G02*
X110180000Y-104162500I0J147500D01*
G01*
X110180000Y-103867500D01*
G75*
G02*
X110327500Y-103720000I147500J0D01*
G01*
G37*
G04 #@! TD.AperFunction*
G04 #@! TA.AperFunction,SMDPad,CuDef*
G36*
G01*
X112922500Y-104310000D02*
X112577500Y-104310000D01*
G75*
G02*
X112430000Y-104162500I0J147500D01*
G01*
X112430000Y-103867500D01*
G75*
G02*
X112577500Y-103720000I147500J0D01*
G01*
X112922500Y-103720000D01*
G75*
G02*
X113070000Y-103867500I0J-147500D01*
G01*
X113070000Y-104162500D01*
G75*
G02*
X112922500Y-104310000I-147500J0D01*
G01*
G37*
G04 #@! TD.AperFunction*
G04 #@! TA.AperFunction,SMDPad,CuDef*
G36*
G01*
X112922500Y-105280000D02*
X112577500Y-105280000D01*
G75*
G02*
X112430000Y-105132500I0J147500D01*
G01*
X112430000Y-104837500D01*
G75*
G02*
X112577500Y-104690000I147500J0D01*
G01*
X112922500Y-104690000D01*
G75*
G02*
X113070000Y-104837500I0J-147500D01*
G01*
X113070000Y-105132500D01*
G75*
G02*
X112922500Y-105280000I-147500J0D01*
G01*
G37*
G04 #@! TD.AperFunction*
G04 #@! TA.AperFunction,SMDPad,CuDef*
G36*
G01*
X112060000Y-102827500D02*
X112060000Y-103172500D01*
G75*
G02*
X111912500Y-103320000I-147500J0D01*
G01*
X111617500Y-103320000D01*
G75*
G02*
X111470000Y-103172500I0J147500D01*
G01*
X111470000Y-102827500D01*
G75*
G02*
X111617500Y-102680000I147500J0D01*
G01*
X111912500Y-102680000D01*
G75*
G02*
X112060000Y-102827500I0J-147500D01*
G01*
G37*
G04 #@! TD.AperFunction*
G04 #@! TA.AperFunction,SMDPad,CuDef*
G36*
G01*
X113030000Y-102827500D02*
X113030000Y-103172500D01*
G75*
G02*
X112882500Y-103320000I-147500J0D01*
G01*
X112587500Y-103320000D01*
G75*
G02*
X112440000Y-103172500I0J147500D01*
G01*
X112440000Y-102827500D01*
G75*
G02*
X112587500Y-102680000I147500J0D01*
G01*
X112882500Y-102680000D01*
G75*
G02*
X113030000Y-102827500I0J-147500D01*
G01*
G37*
G04 #@! TD.AperFunction*
G04 #@! TA.AperFunction,SMDPad,CuDef*
G36*
G01*
X112440000Y-106922500D02*
X112440000Y-106577500D01*
G75*
G02*
X112587500Y-106430000I147500J0D01*
G01*
X112882500Y-106430000D01*
G75*
G02*
X113030000Y-106577500I0J-147500D01*
G01*
X113030000Y-106922500D01*
G75*
G02*
X112882500Y-107070000I-147500J0D01*
G01*
X112587500Y-107070000D01*
G75*
G02*
X112440000Y-106922500I0J147500D01*
G01*
G37*
G04 #@! TD.AperFunction*
G04 #@! TA.AperFunction,SMDPad,CuDef*
G36*
G01*
X111470000Y-106922500D02*
X111470000Y-106577500D01*
G75*
G02*
X111617500Y-106430000I147500J0D01*
G01*
X111912500Y-106430000D01*
G75*
G02*
X112060000Y-106577500I0J-147500D01*
G01*
X112060000Y-106922500D01*
G75*
G02*
X111912500Y-107070000I-147500J0D01*
G01*
X111617500Y-107070000D01*
G75*
G02*
X111470000Y-106922500I0J147500D01*
G01*
G37*
G04 #@! TD.AperFunction*
G04 #@! TA.AperFunction,SMDPad,CuDef*
G36*
G01*
X109810000Y-102827500D02*
X109810000Y-103172500D01*
G75*
G02*
X109662500Y-103320000I-147500J0D01*
G01*
X109367500Y-103320000D01*
G75*
G02*
X109220000Y-103172500I0J147500D01*
G01*
X109220000Y-102827500D01*
G75*
G02*
X109367500Y-102680000I147500J0D01*
G01*
X109662500Y-102680000D01*
G75*
G02*
X109810000Y-102827500I0J-147500D01*
G01*
G37*
G04 #@! TD.AperFunction*
G04 #@! TA.AperFunction,SMDPad,CuDef*
G36*
G01*
X110780000Y-102827500D02*
X110780000Y-103172500D01*
G75*
G02*
X110632500Y-103320000I-147500J0D01*
G01*
X110337500Y-103320000D01*
G75*
G02*
X110190000Y-103172500I0J147500D01*
G01*
X110190000Y-102827500D01*
G75*
G02*
X110337500Y-102680000I147500J0D01*
G01*
X110632500Y-102680000D01*
G75*
G02*
X110780000Y-102827500I0J-147500D01*
G01*
G37*
G04 #@! TD.AperFunction*
G04 #@! TA.AperFunction,SMDPad,CuDef*
G36*
G01*
X105810000Y-101327500D02*
X105810000Y-101672500D01*
G75*
G02*
X105662500Y-101820000I-147500J0D01*
G01*
X105367500Y-101820000D01*
G75*
G02*
X105220000Y-101672500I0J147500D01*
G01*
X105220000Y-101327500D01*
G75*
G02*
X105367500Y-101180000I147500J0D01*
G01*
X105662500Y-101180000D01*
G75*
G02*
X105810000Y-101327500I0J-147500D01*
G01*
G37*
G04 #@! TD.AperFunction*
G04 #@! TA.AperFunction,SMDPad,CuDef*
G36*
G01*
X106780000Y-101327500D02*
X106780000Y-101672500D01*
G75*
G02*
X106632500Y-101820000I-147500J0D01*
G01*
X106337500Y-101820000D01*
G75*
G02*
X106190000Y-101672500I0J147500D01*
G01*
X106190000Y-101327500D01*
G75*
G02*
X106337500Y-101180000I147500J0D01*
G01*
X106632500Y-101180000D01*
G75*
G02*
X106780000Y-101327500I0J-147500D01*
G01*
G37*
G04 #@! TD.AperFunction*
G04 #@! TA.AperFunction,SMDPad,CuDef*
G36*
G01*
X96125000Y-91227500D02*
X96125000Y-91572500D01*
G75*
G02*
X95977500Y-91720000I-147500J0D01*
G01*
X95682500Y-91720000D01*
G75*
G02*
X95535000Y-91572500I0J147500D01*
G01*
X95535000Y-91227500D01*
G75*
G02*
X95682500Y-91080000I147500J0D01*
G01*
X95977500Y-91080000D01*
G75*
G02*
X96125000Y-91227500I0J-147500D01*
G01*
G37*
G04 #@! TD.AperFunction*
G04 #@! TA.AperFunction,SMDPad,CuDef*
G36*
G01*
X97095000Y-91227500D02*
X97095000Y-91572500D01*
G75*
G02*
X96947500Y-91720000I-147500J0D01*
G01*
X96652500Y-91720000D01*
G75*
G02*
X96505000Y-91572500I0J147500D01*
G01*
X96505000Y-91227500D01*
G75*
G02*
X96652500Y-91080000I147500J0D01*
G01*
X96947500Y-91080000D01*
G75*
G02*
X97095000Y-91227500I0J-147500D01*
G01*
G37*
G04 #@! TD.AperFunction*
G04 #@! TA.AperFunction,SMDPad,CuDef*
G36*
G01*
X81672500Y-114310000D02*
X81327500Y-114310000D01*
G75*
G02*
X81180000Y-114162500I0J147500D01*
G01*
X81180000Y-113867500D01*
G75*
G02*
X81327500Y-113720000I147500J0D01*
G01*
X81672500Y-113720000D01*
G75*
G02*
X81820000Y-113867500I0J-147500D01*
G01*
X81820000Y-114162500D01*
G75*
G02*
X81672500Y-114310000I-147500J0D01*
G01*
G37*
G04 #@! TD.AperFunction*
G04 #@! TA.AperFunction,SMDPad,CuDef*
G36*
G01*
X81672500Y-115280000D02*
X81327500Y-115280000D01*
G75*
G02*
X81180000Y-115132500I0J147500D01*
G01*
X81180000Y-114837500D01*
G75*
G02*
X81327500Y-114690000I147500J0D01*
G01*
X81672500Y-114690000D01*
G75*
G02*
X81820000Y-114837500I0J-147500D01*
G01*
X81820000Y-115132500D01*
G75*
G02*
X81672500Y-115280000I-147500J0D01*
G01*
G37*
G04 #@! TD.AperFunction*
D20*
X113000000Y-99500000D03*
X113950000Y-101500000D03*
X112050000Y-101500000D03*
X109250000Y-99500000D03*
X110200000Y-101500000D03*
X108300000Y-101500000D03*
D11*
X97090000Y-118000000D03*
X99630000Y-118000000D03*
X102170000Y-118000000D03*
X104710000Y-118000000D03*
D12*
X107250000Y-118000000D03*
D11*
X99710000Y-93500000D03*
D12*
X102250000Y-93500000D03*
D11*
X124040000Y-92250000D03*
D12*
X121500000Y-92250000D03*
D21*
X125820000Y-118050000D03*
X117180000Y-118050000D03*
D22*
X117180000Y-113870000D03*
X125820000Y-113870000D03*
D23*
X121250000Y-112955000D03*
X123250000Y-112955000D03*
X122750000Y-112955000D03*
X122250000Y-112955000D03*
X121750000Y-112955000D03*
X120750000Y-112955000D03*
X120250000Y-112955000D03*
X119750000Y-112955000D03*
D24*
X124750000Y-112955000D03*
X123950000Y-112955000D03*
X119050000Y-112955000D03*
X118250000Y-112955000D03*
X118250000Y-112955000D03*
X119050000Y-112955000D03*
X123950000Y-112955000D03*
X124750000Y-112955000D03*
D11*
X93450000Y-118000000D03*
X90910000Y-118000000D03*
X88370000Y-118000000D03*
X85830000Y-118000000D03*
X83290000Y-118000000D03*
D12*
X80750000Y-118000000D03*
G04 #@! TA.AperFunction,SMDPad,CuDef*
G36*
G01*
X128350000Y-91756250D02*
X128350000Y-91243750D01*
G75*
G02*
X128568750Y-91025000I218750J0D01*
G01*
X129006250Y-91025000D01*
G75*
G02*
X129225000Y-91243750I0J-218750D01*
G01*
X129225000Y-91756250D01*
G75*
G02*
X129006250Y-91975000I-218750J0D01*
G01*
X128568750Y-91975000D01*
G75*
G02*
X128350000Y-91756250I0J218750D01*
G01*
G37*
G04 #@! TD.AperFunction*
G04 #@! TA.AperFunction,SMDPad,CuDef*
G36*
G01*
X126775000Y-91756250D02*
X126775000Y-91243750D01*
G75*
G02*
X126993750Y-91025000I218750J0D01*
G01*
X127431250Y-91025000D01*
G75*
G02*
X127650000Y-91243750I0J-218750D01*
G01*
X127650000Y-91756250D01*
G75*
G02*
X127431250Y-91975000I-218750J0D01*
G01*
X126993750Y-91975000D01*
G75*
G02*
X126775000Y-91756250I0J218750D01*
G01*
G37*
G04 #@! TD.AperFunction*
D10*
X105450000Y-103000000D03*
X107550000Y-103000000D03*
G04 #@! TA.AperFunction,SMDPad,CuDef*
G36*
G01*
X98604999Y-91198749D02*
X98604999Y-91711249D01*
G75*
G02*
X98386249Y-91929999I-218750J0D01*
G01*
X97948749Y-91929999D01*
G75*
G02*
X97729999Y-91711249I0J218750D01*
G01*
X97729999Y-91198749D01*
G75*
G02*
X97948749Y-90979999I218750J0D01*
G01*
X98386249Y-90979999D01*
G75*
G02*
X98604999Y-91198749I0J-218750D01*
G01*
G37*
G04 #@! TD.AperFunction*
G04 #@! TA.AperFunction,SMDPad,CuDef*
G36*
G01*
X100179999Y-91198749D02*
X100179999Y-91711249D01*
G75*
G02*
X99961249Y-91929999I-218750J0D01*
G01*
X99523749Y-91929999D01*
G75*
G02*
X99304999Y-91711249I0J218750D01*
G01*
X99304999Y-91198749D01*
G75*
G02*
X99523749Y-90979999I218750J0D01*
G01*
X99961249Y-90979999D01*
G75*
G02*
X100179999Y-91198749I0J-218750D01*
G01*
G37*
G04 #@! TD.AperFunction*
G04 #@! TA.AperFunction,SMDPad,CuDef*
G36*
G01*
X122850000Y-95506250D02*
X122850000Y-94993750D01*
G75*
G02*
X123068750Y-94775000I218750J0D01*
G01*
X123506250Y-94775000D01*
G75*
G02*
X123725000Y-94993750I0J-218750D01*
G01*
X123725000Y-95506250D01*
G75*
G02*
X123506250Y-95725000I-218750J0D01*
G01*
X123068750Y-95725000D01*
G75*
G02*
X122850000Y-95506250I0J218750D01*
G01*
G37*
G04 #@! TD.AperFunction*
G04 #@! TA.AperFunction,SMDPad,CuDef*
G36*
G01*
X121275000Y-95506250D02*
X121275000Y-94993750D01*
G75*
G02*
X121493750Y-94775000I218750J0D01*
G01*
X121931250Y-94775000D01*
G75*
G02*
X122150000Y-94993750I0J-218750D01*
G01*
X122150000Y-95506250D01*
G75*
G02*
X121931250Y-95725000I-218750J0D01*
G01*
X121493750Y-95725000D01*
G75*
G02*
X121275000Y-95506250I0J218750D01*
G01*
G37*
G04 #@! TD.AperFunction*
G04 #@! TA.AperFunction,SMDPad,CuDef*
G36*
G01*
X106206250Y-92800000D02*
X105293750Y-92800000D01*
G75*
G02*
X105050000Y-92556250I0J243750D01*
G01*
X105050000Y-92068750D01*
G75*
G02*
X105293750Y-91825000I243750J0D01*
G01*
X106206250Y-91825000D01*
G75*
G02*
X106450000Y-92068750I0J-243750D01*
G01*
X106450000Y-92556250D01*
G75*
G02*
X106206250Y-92800000I-243750J0D01*
G01*
G37*
G04 #@! TD.AperFunction*
G04 #@! TA.AperFunction,SMDPad,CuDef*
G36*
G01*
X106206250Y-94675000D02*
X105293750Y-94675000D01*
G75*
G02*
X105050000Y-94431250I0J243750D01*
G01*
X105050000Y-93943750D01*
G75*
G02*
X105293750Y-93700000I243750J0D01*
G01*
X106206250Y-93700000D01*
G75*
G02*
X106450000Y-93943750I0J-243750D01*
G01*
X106450000Y-94431250D01*
G75*
G02*
X106206250Y-94675000I-243750J0D01*
G01*
G37*
G04 #@! TD.AperFunction*
G04 #@! TA.AperFunction,SMDPad,CuDef*
G36*
G01*
X118043750Y-99700000D02*
X118956250Y-99700000D01*
G75*
G02*
X119200000Y-99943750I0J-243750D01*
G01*
X119200000Y-100431250D01*
G75*
G02*
X118956250Y-100675000I-243750J0D01*
G01*
X118043750Y-100675000D01*
G75*
G02*
X117800000Y-100431250I0J243750D01*
G01*
X117800000Y-99943750D01*
G75*
G02*
X118043750Y-99700000I243750J0D01*
G01*
G37*
G04 #@! TD.AperFunction*
G04 #@! TA.AperFunction,SMDPad,CuDef*
G36*
G01*
X118043750Y-97825000D02*
X118956250Y-97825000D01*
G75*
G02*
X119200000Y-98068750I0J-243750D01*
G01*
X119200000Y-98556250D01*
G75*
G02*
X118956250Y-98800000I-243750J0D01*
G01*
X118043750Y-98800000D01*
G75*
G02*
X117800000Y-98556250I0J243750D01*
G01*
X117800000Y-98068750D01*
G75*
G02*
X118043750Y-97825000I243750J0D01*
G01*
G37*
G04 #@! TD.AperFunction*
G04 #@! TA.AperFunction,SMDPad,CuDef*
G36*
G01*
X119993750Y-99850000D02*
X120506250Y-99850000D01*
G75*
G02*
X120725000Y-100068750I0J-218750D01*
G01*
X120725000Y-100506250D01*
G75*
G02*
X120506250Y-100725000I-218750J0D01*
G01*
X119993750Y-100725000D01*
G75*
G02*
X119775000Y-100506250I0J218750D01*
G01*
X119775000Y-100068750D01*
G75*
G02*
X119993750Y-99850000I218750J0D01*
G01*
G37*
G04 #@! TD.AperFunction*
G04 #@! TA.AperFunction,SMDPad,CuDef*
G36*
G01*
X119993750Y-98275000D02*
X120506250Y-98275000D01*
G75*
G02*
X120725000Y-98493750I0J-218750D01*
G01*
X120725000Y-98931250D01*
G75*
G02*
X120506250Y-99150000I-218750J0D01*
G01*
X119993750Y-99150000D01*
G75*
G02*
X119775000Y-98931250I0J218750D01*
G01*
X119775000Y-98493750D01*
G75*
G02*
X119993750Y-98275000I218750J0D01*
G01*
G37*
G04 #@! TD.AperFunction*
G04 #@! TA.AperFunction,SMDPad,CuDef*
G36*
G01*
X105293750Y-97700000D02*
X106206250Y-97700000D01*
G75*
G02*
X106450000Y-97943750I0J-243750D01*
G01*
X106450000Y-98431250D01*
G75*
G02*
X106206250Y-98675000I-243750J0D01*
G01*
X105293750Y-98675000D01*
G75*
G02*
X105050000Y-98431250I0J243750D01*
G01*
X105050000Y-97943750D01*
G75*
G02*
X105293750Y-97700000I243750J0D01*
G01*
G37*
G04 #@! TD.AperFunction*
G04 #@! TA.AperFunction,SMDPad,CuDef*
G36*
G01*
X105293750Y-95825000D02*
X106206250Y-95825000D01*
G75*
G02*
X106450000Y-96068750I0J-243750D01*
G01*
X106450000Y-96556250D01*
G75*
G02*
X106206250Y-96800000I-243750J0D01*
G01*
X105293750Y-96800000D01*
G75*
G02*
X105050000Y-96556250I0J243750D01*
G01*
X105050000Y-96068750D01*
G75*
G02*
X105293750Y-95825000I243750J0D01*
G01*
G37*
G04 #@! TD.AperFunction*
G04 #@! TA.AperFunction,SMDPad,CuDef*
G36*
G01*
X111672500Y-104310000D02*
X111327500Y-104310000D01*
G75*
G02*
X111180000Y-104162500I0J147500D01*
G01*
X111180000Y-103867500D01*
G75*
G02*
X111327500Y-103720000I147500J0D01*
G01*
X111672500Y-103720000D01*
G75*
G02*
X111820000Y-103867500I0J-147500D01*
G01*
X111820000Y-104162500D01*
G75*
G02*
X111672500Y-104310000I-147500J0D01*
G01*
G37*
G04 #@! TD.AperFunction*
G04 #@! TA.AperFunction,SMDPad,CuDef*
G36*
G01*
X111672500Y-105280000D02*
X111327500Y-105280000D01*
G75*
G02*
X111180000Y-105132500I0J147500D01*
G01*
X111180000Y-104837500D01*
G75*
G02*
X111327500Y-104690000I147500J0D01*
G01*
X111672500Y-104690000D01*
G75*
G02*
X111820000Y-104837500I0J-147500D01*
G01*
X111820000Y-105132500D01*
G75*
G02*
X111672500Y-105280000I-147500J0D01*
G01*
G37*
G04 #@! TD.AperFunction*
G04 #@! TA.AperFunction,SMDPad,CuDef*
G36*
G01*
X77800000Y-114793750D02*
X77800000Y-115706250D01*
G75*
G02*
X77556250Y-115950000I-243750J0D01*
G01*
X77068750Y-115950000D01*
G75*
G02*
X76825000Y-115706250I0J243750D01*
G01*
X76825000Y-114793750D01*
G75*
G02*
X77068750Y-114550000I243750J0D01*
G01*
X77556250Y-114550000D01*
G75*
G02*
X77800000Y-114793750I0J-243750D01*
G01*
G37*
G04 #@! TD.AperFunction*
G04 #@! TA.AperFunction,SMDPad,CuDef*
G36*
G01*
X79675000Y-114793750D02*
X79675000Y-115706250D01*
G75*
G02*
X79431250Y-115950000I-243750J0D01*
G01*
X78943750Y-115950000D01*
G75*
G02*
X78700000Y-115706250I0J243750D01*
G01*
X78700000Y-114793750D01*
G75*
G02*
X78943750Y-114550000I243750J0D01*
G01*
X79431250Y-114550000D01*
G75*
G02*
X79675000Y-114793750I0J-243750D01*
G01*
G37*
G04 #@! TD.AperFunction*
G04 #@! TA.AperFunction,SMDPad,CuDef*
G36*
G01*
X77862500Y-112993750D02*
X77862500Y-113506250D01*
G75*
G02*
X77643750Y-113725000I-218750J0D01*
G01*
X77206250Y-113725000D01*
G75*
G02*
X76987500Y-113506250I0J218750D01*
G01*
X76987500Y-112993750D01*
G75*
G02*
X77206250Y-112775000I218750J0D01*
G01*
X77643750Y-112775000D01*
G75*
G02*
X77862500Y-112993750I0J-218750D01*
G01*
G37*
G04 #@! TD.AperFunction*
G04 #@! TA.AperFunction,SMDPad,CuDef*
G36*
G01*
X79437500Y-112993750D02*
X79437500Y-113506250D01*
G75*
G02*
X79218750Y-113725000I-218750J0D01*
G01*
X78781250Y-113725000D01*
G75*
G02*
X78562500Y-113506250I0J218750D01*
G01*
X78562500Y-112993750D01*
G75*
G02*
X78781250Y-112775000I218750J0D01*
G01*
X79218750Y-112775000D01*
G75*
G02*
X79437500Y-112993750I0J-218750D01*
G01*
G37*
G04 #@! TD.AperFunction*
G04 #@! TA.AperFunction,SMDPad,CuDef*
G36*
G01*
X82577500Y-114690000D02*
X82922500Y-114690000D01*
G75*
G02*
X83070000Y-114837500I0J-147500D01*
G01*
X83070000Y-115132500D01*
G75*
G02*
X82922500Y-115280000I-147500J0D01*
G01*
X82577500Y-115280000D01*
G75*
G02*
X82430000Y-115132500I0J147500D01*
G01*
X82430000Y-114837500D01*
G75*
G02*
X82577500Y-114690000I147500J0D01*
G01*
G37*
G04 #@! TD.AperFunction*
G04 #@! TA.AperFunction,SMDPad,CuDef*
G36*
G01*
X82577500Y-113720000D02*
X82922500Y-113720000D01*
G75*
G02*
X83070000Y-113867500I0J-147500D01*
G01*
X83070000Y-114162500D01*
G75*
G02*
X82922500Y-114310000I-147500J0D01*
G01*
X82577500Y-114310000D01*
G75*
G02*
X82430000Y-114162500I0J147500D01*
G01*
X82430000Y-113867500D01*
G75*
G02*
X82577500Y-113720000I147500J0D01*
G01*
G37*
G04 #@! TD.AperFunction*
D25*
X84500000Y-103250000D03*
X85750000Y-103250000D03*
X85750000Y-102000000D03*
X84500000Y-102000000D03*
X106000000Y-97750000D03*
X105250000Y-97750000D03*
X115000000Y-117500000D03*
X114250000Y-117500000D03*
X115500000Y-114500000D03*
X102250000Y-97000000D03*
X111000000Y-119000000D03*
X110000000Y-119000000D03*
X112000000Y-119000000D03*
D26*
X109000000Y-113400000D03*
X110300000Y-113400000D03*
X110300000Y-112200000D03*
X109000000Y-112200000D03*
D25*
X93000000Y-96750000D03*
X83485000Y-114985000D03*
X122000000Y-99000000D03*
X122750000Y-99000000D03*
X123500000Y-99000000D03*
X122750000Y-96500000D03*
X119187500Y-98312500D03*
X120000000Y-98312500D03*
X96300000Y-108500000D03*
X76500000Y-91250000D03*
X76500000Y-93250000D03*
X76500000Y-95250000D03*
X76500000Y-97250000D03*
X76500000Y-99250000D03*
X76500000Y-101250000D03*
X76500000Y-103250000D03*
X76500000Y-105250000D03*
X76500000Y-107250000D03*
X76500000Y-109250000D03*
X76500000Y-111250000D03*
X76500000Y-113250000D03*
X76500000Y-115250000D03*
X76500000Y-117250000D03*
X76500000Y-119250000D03*
X106000000Y-91250000D03*
X108540000Y-91250000D03*
X111080000Y-91250000D03*
X113620000Y-91250000D03*
X116160000Y-91250000D03*
X119000000Y-96500000D03*
X120000000Y-96500000D03*
X128750000Y-96500000D03*
X129750000Y-96500000D03*
X128750000Y-97500000D03*
X129750000Y-97500000D03*
X97750000Y-93750000D03*
X97750000Y-94750000D03*
X101000000Y-97000000D03*
D27*
X79015000Y-107500000D03*
D25*
X114750000Y-95250000D03*
D26*
X104712500Y-94187500D03*
D25*
X113985000Y-104985000D03*
X83575000Y-107175000D03*
X119500000Y-115500000D03*
X86650000Y-112350000D03*
X98150000Y-110050000D03*
X125000000Y-96750000D03*
X117000000Y-99500000D03*
X115000000Y-103750000D03*
X88000000Y-109000000D03*
X98449989Y-115550011D03*
X84095000Y-96905000D03*
X85250000Y-97000000D03*
X86750000Y-97250000D03*
X88500000Y-97500000D03*
X89750000Y-97750000D03*
X89000000Y-96000000D03*
X91250000Y-97250000D03*
X120500000Y-111500000D03*
X121475000Y-111525000D03*
X98233051Y-109183051D03*
X84095000Y-109095000D03*
X92500000Y-113000000D03*
X98850000Y-111350002D03*
X92750000Y-98250000D03*
X92500000Y-99250000D03*
X80100000Y-103100000D03*
X80800000Y-102300000D03*
X103515000Y-114235000D03*
X111100000Y-109400000D03*
X112200000Y-115900000D03*
X110624999Y-117075001D03*
D28*
X82750000Y-114985000D02*
X83485000Y-114985000D01*
X83485000Y-114985000D02*
X83485000Y-114985000D01*
D29*
X77312500Y-113362500D02*
X77425000Y-113250000D01*
X77312500Y-115250000D02*
X77312500Y-113362500D01*
X77745000Y-112930000D02*
X77425000Y-113250000D01*
X77745000Y-110500000D02*
X77745000Y-112930000D01*
D28*
X110485000Y-101785000D02*
X110200000Y-101500000D01*
X110485000Y-103000000D02*
X110485000Y-101785000D01*
X108062500Y-100500000D02*
X106281250Y-98718750D01*
X110200000Y-101500000D02*
X109200000Y-100500000D01*
X109200000Y-100500000D02*
X108062500Y-100500000D01*
X111500000Y-104015000D02*
X110500000Y-104015000D01*
X110485000Y-104000000D02*
X110500000Y-104015000D01*
X110485000Y-103000000D02*
X110485000Y-104000000D01*
X125000000Y-99765000D02*
X124765000Y-99765000D01*
X124765000Y-99765000D02*
X124000000Y-99000000D01*
X124000000Y-99000000D02*
X123500000Y-99000000D01*
X122750000Y-98750000D02*
X122750000Y-97690000D01*
X123000000Y-99000000D02*
X122750000Y-98750000D01*
D30*
X122750000Y-97690000D02*
X122750000Y-96500000D01*
X123287500Y-95712500D02*
X123287500Y-95250000D01*
X122750000Y-96250000D02*
X123287500Y-95712500D01*
X123287500Y-93002500D02*
X124040000Y-92250000D01*
X123287500Y-95250000D02*
X123287500Y-93002500D01*
D28*
X119850000Y-98312500D02*
X120250000Y-98712500D01*
X118500000Y-98312500D02*
X119187500Y-98312500D01*
X120250000Y-98712500D02*
X120712500Y-98712500D01*
X121000000Y-99000000D02*
X122000000Y-99000000D01*
X120712500Y-98712500D02*
X121000000Y-99000000D01*
X122000000Y-99000000D02*
X122750000Y-99000000D01*
X122750000Y-99000000D02*
X123000000Y-99000000D01*
X123500000Y-99000000D02*
X123000000Y-99000000D01*
D30*
X122750000Y-96500000D02*
X122750000Y-96250000D01*
D28*
X119187500Y-98312500D02*
X119687500Y-98312500D01*
X119687500Y-98312500D02*
X119850000Y-98312500D01*
X106281250Y-98718750D02*
X105750000Y-98187500D01*
X95255000Y-107715000D02*
X95515000Y-107715000D01*
X95515000Y-107715000D02*
X96300000Y-108500000D01*
X96300000Y-108500000D02*
X96300000Y-108500000D01*
X80285000Y-112800000D02*
X81500000Y-114015000D01*
X80285000Y-110500000D02*
X80285000Y-112800000D01*
X81500000Y-114015000D02*
X82750000Y-114015000D01*
X84385000Y-114015000D02*
X88370000Y-118000000D01*
X82750000Y-114015000D02*
X84385000Y-114015000D01*
X79687500Y-115750000D02*
X79187500Y-115250000D01*
X81500000Y-114985000D02*
X81500000Y-115750000D01*
X81500000Y-115750000D02*
X79687500Y-115750000D01*
D29*
X79187500Y-113437500D02*
X79000000Y-113250000D01*
X79187500Y-115250000D02*
X79187500Y-113437500D01*
X79000000Y-110515000D02*
X79015000Y-110500000D01*
X79000000Y-113250000D02*
X79000000Y-110515000D01*
X79015000Y-110500000D02*
X79015000Y-107500000D01*
X79015000Y-107500000D02*
X79015000Y-107500000D01*
D31*
X105750000Y-94187500D02*
X106562500Y-95000000D01*
X106562500Y-95000000D02*
X114400000Y-95000000D01*
D32*
X105750000Y-94187500D02*
X103937500Y-96000000D01*
X102000000Y-96000000D02*
X101000000Y-97000000D01*
X103937500Y-96000000D02*
X102000000Y-96000000D01*
D33*
X105750000Y-94187500D02*
X104712500Y-94187500D01*
X104712500Y-94187500D02*
X104712500Y-94187500D01*
D28*
X85319002Y-115750000D02*
X81500000Y-115750000D01*
X92150000Y-119300000D02*
X87800000Y-119300000D01*
X93450000Y-118000000D02*
X92150000Y-119300000D01*
X87800000Y-119300000D02*
X87100000Y-118600000D01*
X87100000Y-118600000D02*
X87100000Y-117530998D01*
X87100000Y-117530998D02*
X85319002Y-115750000D01*
X110500000Y-104985000D02*
X112750000Y-104985000D01*
X112750000Y-104985000D02*
X113985000Y-104985000D01*
X113985000Y-104985000D02*
X113985000Y-104985000D01*
X82825000Y-107925000D02*
X83575000Y-107175000D01*
X82825000Y-110500000D02*
X82825000Y-107925000D01*
X83575000Y-107175000D02*
X83600000Y-107150000D01*
D31*
X113000000Y-99500000D02*
X113000000Y-98750000D01*
X111550000Y-97300000D02*
X108100000Y-97300000D01*
X113000000Y-98750000D02*
X111550000Y-97300000D01*
X106062500Y-96312500D02*
X105750000Y-96312500D01*
X108100000Y-97300000D02*
X107050000Y-97300000D01*
X107050000Y-97300000D02*
X106062500Y-96312500D01*
D28*
X119500000Y-114327998D02*
X119500000Y-115500000D01*
X119050000Y-112955000D02*
X119050000Y-113877998D01*
X119050000Y-113877998D02*
X119500000Y-114327998D01*
D30*
X121800000Y-101050000D02*
X121800000Y-100310000D01*
X123000000Y-102250000D02*
X121800000Y-101050000D01*
X121677500Y-100187500D02*
X121800000Y-100310000D01*
X118500000Y-100187500D02*
X121677500Y-100187500D01*
X123950000Y-110450000D02*
X123750000Y-110250000D01*
X123950000Y-112955000D02*
X123950000Y-110450000D01*
X119050000Y-112955000D02*
X119050000Y-110950000D01*
X119750000Y-110250000D02*
X123750000Y-110250000D01*
X119050000Y-110950000D02*
X119750000Y-110250000D01*
D28*
X125000000Y-98485000D02*
X126000000Y-98485000D01*
X126000000Y-102000000D02*
X125750000Y-102250000D01*
X126000000Y-98485000D02*
X126000000Y-102000000D01*
D30*
X125750000Y-102250000D02*
X123000000Y-102250000D01*
X126500000Y-102250000D02*
X125750000Y-102250000D01*
X127250000Y-109250000D02*
X127250000Y-103000000D01*
X123750000Y-110250000D02*
X126250000Y-110250000D01*
X127250000Y-103000000D02*
X126500000Y-102250000D01*
X126250000Y-110250000D02*
X127250000Y-109250000D01*
D28*
X112735000Y-106750000D02*
X114250000Y-106750000D01*
X118450000Y-110950000D02*
X119050000Y-110950000D01*
X114250000Y-106750000D02*
X118450000Y-110950000D01*
X112735000Y-102715000D02*
X113950000Y-101500000D01*
X112735000Y-103000000D02*
X112735000Y-102715000D01*
X112750000Y-103015000D02*
X112735000Y-103000000D01*
X112750000Y-104015000D02*
X112750000Y-103015000D01*
D30*
X121500000Y-95037500D02*
X121712500Y-95250000D01*
X121500000Y-92250000D02*
X121500000Y-95037500D01*
X121712500Y-97602500D02*
X121800000Y-97690000D01*
X121712500Y-95250000D02*
X121712500Y-97602500D01*
D34*
X116000000Y-97000000D02*
X117750000Y-95250000D01*
X116000000Y-99500000D02*
X116000000Y-97000000D01*
X117750000Y-95250000D02*
X121712500Y-95250000D01*
X113950000Y-101500000D02*
X114000000Y-101500000D01*
X114000000Y-101500000D02*
X116000000Y-99500000D01*
D28*
X112750000Y-104015000D02*
X114265000Y-104015000D01*
X124150000Y-104500000D02*
X124400000Y-104250000D01*
X118600000Y-104250000D02*
X118600000Y-104400000D01*
X114750000Y-104500000D02*
X118500000Y-104500000D01*
X118600000Y-104400000D02*
X118500000Y-104500000D01*
X118500000Y-104500000D02*
X124150000Y-104500000D01*
X114265000Y-104015000D02*
X114750000Y-104500000D01*
X98112500Y-91400000D02*
X98167499Y-91454999D01*
X96800000Y-91400000D02*
X98112500Y-91400000D01*
X86635000Y-110500000D02*
X86650000Y-112350000D01*
X86650000Y-112350000D02*
X86635000Y-112385000D01*
X98250000Y-110050000D02*
X98150000Y-110050000D01*
X105450000Y-103000000D02*
X105300000Y-103000000D01*
X105300000Y-103000000D02*
X98250000Y-110050000D01*
X109515000Y-102715000D02*
X108300000Y-101500000D01*
X109515000Y-103000000D02*
X109515000Y-102715000D01*
X107550000Y-103000000D02*
X109515000Y-103000000D01*
X107550000Y-104700000D02*
X107550000Y-103000000D01*
X128787500Y-93712500D02*
X128787500Y-91500000D01*
X126000000Y-97515000D02*
X126000000Y-96500000D01*
X126000000Y-96500000D02*
X128787500Y-93712500D01*
X124825000Y-97690000D02*
X125000000Y-97515000D01*
X123700000Y-97690000D02*
X124825000Y-97690000D01*
X125000000Y-96750000D02*
X125000000Y-97515000D01*
X127212500Y-91500000D02*
X127212500Y-94537500D01*
X127212500Y-94537500D02*
X125000000Y-96750000D01*
X125000000Y-96750000D02*
X125000000Y-96750000D01*
X117000000Y-101750000D02*
X115000000Y-103750000D01*
X117000000Y-99500000D02*
X117000000Y-101750000D01*
X115000000Y-103750000D02*
X115000000Y-103750000D01*
X87905000Y-109095000D02*
X88000000Y-109000000D01*
X87905000Y-110500000D02*
X87905000Y-109095000D01*
X96250000Y-113350022D02*
X98449989Y-115550011D01*
X95500000Y-108750000D02*
X96250000Y-109500000D01*
X94255000Y-94750000D02*
X93750000Y-95255000D01*
X94255000Y-93500000D02*
X94255000Y-94750000D01*
X93750000Y-95255000D02*
X93750000Y-108245002D01*
X96250000Y-109500000D02*
X96250000Y-113350022D01*
X93750000Y-108245002D02*
X94254998Y-108750000D01*
X94254998Y-108750000D02*
X95500000Y-108750000D01*
X84095000Y-93500000D02*
X84095000Y-96905000D01*
X84095000Y-96905000D02*
X84095000Y-96905000D01*
X86635000Y-93500000D02*
X86635000Y-95615000D01*
X86635000Y-95615000D02*
X85375000Y-96875000D01*
X85375000Y-96875000D02*
X85250000Y-97000000D01*
X85250000Y-97000000D02*
X85250000Y-97000000D01*
X87905000Y-93500000D02*
X87905000Y-96095000D01*
X87905000Y-96095000D02*
X86750000Y-97250000D01*
X86750000Y-97250000D02*
X86750000Y-97250000D01*
X90445000Y-93500000D02*
X90445000Y-95555000D01*
X90445000Y-95555000D02*
X88500000Y-97500000D01*
X88500000Y-97500000D02*
X88500000Y-97500000D01*
X91715000Y-93500000D02*
X91715000Y-95785000D01*
X91715000Y-95785000D02*
X89750000Y-97750000D01*
X89750000Y-97750000D02*
X89750000Y-97750000D01*
X89175000Y-95825000D02*
X89000000Y-96000000D01*
X89175000Y-93500000D02*
X89175000Y-95825000D01*
X92985000Y-93500000D02*
X92985000Y-95515000D01*
X92985000Y-95515000D02*
X91250000Y-97250000D01*
X121750000Y-113965000D02*
X121750000Y-112955000D01*
X121465000Y-114250000D02*
X121750000Y-113965000D01*
X121084998Y-114250000D02*
X121465000Y-114250000D01*
X120750000Y-113915002D02*
X121084998Y-114250000D01*
X120750000Y-112955000D02*
X120750000Y-113915002D01*
X120750000Y-111750000D02*
X120500000Y-111500000D01*
X120750000Y-112955000D02*
X120750000Y-111750000D01*
X121250000Y-112955000D02*
X121250000Y-111750000D01*
X121250000Y-111750000D02*
X121475000Y-111525000D01*
X121500000Y-111500000D02*
X122000000Y-111500000D01*
X122250000Y-111750000D02*
X122250000Y-112955000D01*
X122000000Y-111500000D02*
X122250000Y-111750000D01*
X121475000Y-111525000D02*
X121500000Y-111500000D01*
X97090000Y-115390000D02*
X97090000Y-118000000D01*
X94255000Y-110500000D02*
X94255000Y-112555000D01*
X94255000Y-112555000D02*
X97090000Y-115390000D01*
X96195000Y-106445000D02*
X95255000Y-106445000D01*
X97000000Y-111250000D02*
X97000000Y-107250000D01*
X97000000Y-107250000D02*
X96195000Y-106445000D01*
X99630000Y-118000000D02*
X99630000Y-113880000D01*
X99630000Y-113880000D02*
X97000000Y-111250000D01*
X92985000Y-110500000D02*
X92985000Y-111750000D01*
X92985000Y-112385000D02*
X92985000Y-110500000D01*
X96600000Y-119400000D02*
X95800000Y-118600000D01*
X100770000Y-119400000D02*
X96600000Y-119400000D01*
X102170000Y-118000000D02*
X100770000Y-119400000D01*
X95800000Y-118600000D02*
X95800000Y-115200000D01*
X95800000Y-115200000D02*
X92985000Y-112385000D01*
X97500000Y-111075004D02*
X103574997Y-117150001D01*
X96250000Y-97650000D02*
X97000000Y-98400000D01*
X97500000Y-107000000D02*
X97500000Y-111075004D01*
X103574997Y-117150001D02*
X103860001Y-117150001D01*
X97000000Y-106500000D02*
X97500000Y-107000000D01*
X97000000Y-98400000D02*
X97000000Y-106500000D01*
X103860001Y-117150001D02*
X104710000Y-118000000D01*
X110050000Y-99500000D02*
X112050000Y-101500000D01*
X109250000Y-99500000D02*
X110050000Y-99500000D01*
X111765000Y-101785000D02*
X112050000Y-101500000D01*
X111765000Y-103000000D02*
X111765000Y-101785000D01*
X95255000Y-96285000D02*
X95255000Y-95445000D01*
X95830000Y-94870000D02*
X95830000Y-91400000D01*
X95255000Y-95445000D02*
X95830000Y-94870000D01*
X105515000Y-101500000D02*
X105515000Y-101901102D01*
X105515000Y-101901102D02*
X98233051Y-109183051D01*
X84095000Y-110500000D02*
X84095000Y-109095000D01*
X85365000Y-110500000D02*
X85365000Y-112615000D01*
X85365000Y-112615000D02*
X86500000Y-113750000D01*
X86500000Y-113750000D02*
X91750000Y-113750000D01*
X91750000Y-113750000D02*
X92500000Y-113000000D01*
X92500000Y-113000000D02*
X92500000Y-113000000D01*
X103450002Y-106750000D02*
X98850000Y-111350002D01*
X111765000Y-106750000D02*
X103450002Y-106750000D01*
X124125000Y-100735000D02*
X125000000Y-100735000D01*
X123700000Y-100310000D02*
X124125000Y-100735000D01*
X90445000Y-110500000D02*
X90445000Y-102305000D01*
X93250000Y-98750000D02*
X92750000Y-98250000D01*
X93250000Y-99500000D02*
X93250000Y-98750000D01*
X90445000Y-102305000D02*
X93250000Y-99500000D01*
X89750000Y-102000000D02*
X92500000Y-99250000D01*
X89750000Y-108500000D02*
X89750000Y-102000000D01*
X89175000Y-109075000D02*
X89175000Y-110500000D01*
X89750000Y-108500000D02*
X89175000Y-109075000D01*
X81555000Y-93500000D02*
X81555000Y-97345000D01*
X80100000Y-98800000D02*
X80100000Y-103100000D01*
X81555000Y-97345000D02*
X80100000Y-98800000D01*
X80100000Y-103100000D02*
X80100000Y-103100000D01*
X80700000Y-99200000D02*
X80700000Y-102200000D01*
X82825000Y-93500000D02*
X82825000Y-97075000D01*
X80700000Y-102200000D02*
X80800000Y-102300000D01*
X82825000Y-97075000D02*
X80700000Y-99200000D01*
X80800000Y-102300000D02*
X80800000Y-102300000D01*
X103515000Y-113485000D02*
X106600000Y-110400000D01*
X106600000Y-110400000D02*
X110100000Y-110400000D01*
X110100000Y-110400000D02*
X111100000Y-109400000D01*
X111100000Y-109400000D02*
X111100000Y-109400000D01*
X103515000Y-114235000D02*
X103515000Y-113485000D01*
X111024999Y-117075001D02*
X112200000Y-115900000D01*
X110624999Y-117075001D02*
X111024999Y-117075001D01*
X124400000Y-108250000D02*
X118600000Y-108250000D01*
X118600000Y-108250000D02*
X117050000Y-108250000D01*
X117050000Y-108250000D02*
X114600000Y-105800000D01*
X114600000Y-105800000D02*
X107000000Y-105800000D01*
X107000000Y-105800000D02*
X106500000Y-105300000D01*
X106400000Y-104700000D02*
X106500000Y-104600000D01*
X106500000Y-105300000D02*
X106500000Y-104600000D01*
X105450000Y-104700000D02*
X106400000Y-104700000D01*
X106485000Y-104585000D02*
X106500000Y-104600000D01*
X106485000Y-101500000D02*
X106485000Y-104585000D01*
D32*
G36*
X134594001Y-119594000D02*
G01*
X101291591Y-119594000D01*
X101733833Y-119151758D01*
X101810931Y-119183693D01*
X102048757Y-119231000D01*
X102291243Y-119231000D01*
X102529069Y-119183693D01*
X102753097Y-119090898D01*
X102954717Y-118956180D01*
X103126180Y-118784717D01*
X103260898Y-118583097D01*
X103353693Y-118359069D01*
X103401000Y-118121243D01*
X103401000Y-117878757D01*
X103353693Y-117640931D01*
X103334822Y-117595372D01*
X103350904Y-117603968D01*
X103380422Y-117619746D01*
X103475803Y-117648679D01*
X103485691Y-117649653D01*
X103523825Y-117653409D01*
X103479000Y-117878757D01*
X103479000Y-118121243D01*
X103526307Y-118359069D01*
X103619102Y-118583097D01*
X103753820Y-118784717D01*
X103925283Y-118956180D01*
X104126903Y-119090898D01*
X104350931Y-119183693D01*
X104588757Y-119231000D01*
X104831243Y-119231000D01*
X105069069Y-119183693D01*
X105293097Y-119090898D01*
X105494717Y-118956180D01*
X105666180Y-118784717D01*
X105800898Y-118583097D01*
X105893693Y-118359069D01*
X105941000Y-118121243D01*
X105941000Y-117878757D01*
X105893693Y-117640931D01*
X105800898Y-117416903D01*
X105666180Y-117215283D01*
X105494717Y-117043820D01*
X105441001Y-117007928D01*
X109943999Y-117007928D01*
X109943999Y-117142074D01*
X109970170Y-117273641D01*
X110021505Y-117397575D01*
X110096032Y-117509113D01*
X110190887Y-117603968D01*
X110302425Y-117678495D01*
X110426359Y-117729830D01*
X110557926Y-117756001D01*
X110692072Y-117756001D01*
X110823639Y-117729830D01*
X110947573Y-117678495D01*
X111059111Y-117603968D01*
X111085599Y-117577480D01*
X111124192Y-117573679D01*
X111219574Y-117544746D01*
X111307478Y-117497760D01*
X111384526Y-117434528D01*
X111400375Y-117415216D01*
X112234592Y-116581000D01*
X112267073Y-116581000D01*
X112398640Y-116554829D01*
X112522574Y-116503494D01*
X112634112Y-116428967D01*
X112728967Y-116334112D01*
X112803494Y-116222574D01*
X112854829Y-116098640D01*
X112881000Y-115967073D01*
X112881000Y-115832927D01*
X112854829Y-115701360D01*
X112803494Y-115577426D01*
X112728967Y-115465888D01*
X112634112Y-115371033D01*
X112522574Y-115296506D01*
X112398640Y-115245171D01*
X112267073Y-115219000D01*
X112132927Y-115219000D01*
X112001360Y-115245171D01*
X111877426Y-115296506D01*
X111765888Y-115371033D01*
X111671033Y-115465888D01*
X111596506Y-115577426D01*
X111545171Y-115701360D01*
X111519000Y-115832927D01*
X111519000Y-115865408D01*
X110923057Y-116461352D01*
X110823639Y-116420172D01*
X110692072Y-116394001D01*
X110557926Y-116394001D01*
X110426359Y-116420172D01*
X110302425Y-116471507D01*
X110190887Y-116546034D01*
X110096032Y-116640889D01*
X110021505Y-116752427D01*
X109970170Y-116876361D01*
X109943999Y-117007928D01*
X105441001Y-117007928D01*
X105293097Y-116909102D01*
X105069069Y-116816307D01*
X104831243Y-116769000D01*
X104588757Y-116769000D01*
X104350931Y-116816307D01*
X104273833Y-116848242D01*
X104235377Y-116809786D01*
X104219528Y-116790474D01*
X104142480Y-116727242D01*
X104054576Y-116680256D01*
X103959194Y-116651323D01*
X103884855Y-116644001D01*
X103884847Y-116644001D01*
X103860001Y-116641554D01*
X103835155Y-116644001D01*
X103784589Y-116644001D01*
X101308515Y-114167927D01*
X102834000Y-114167927D01*
X102834000Y-114302073D01*
X102860171Y-114433640D01*
X102911506Y-114557574D01*
X102986033Y-114669112D01*
X103080888Y-114763967D01*
X103192426Y-114838494D01*
X103316360Y-114889829D01*
X103447927Y-114916000D01*
X103582073Y-114916000D01*
X103713640Y-114889829D01*
X103837574Y-114838494D01*
X103949112Y-114763967D01*
X104043967Y-114669112D01*
X104118494Y-114557574D01*
X104169829Y-114433640D01*
X104196000Y-114302073D01*
X104196000Y-114167927D01*
X104169829Y-114036360D01*
X104118494Y-113912426D01*
X104043967Y-113800888D01*
X104021000Y-113777921D01*
X104021000Y-113694591D01*
X106809592Y-110906000D01*
X110075154Y-110906000D01*
X110100000Y-110908447D01*
X110124846Y-110906000D01*
X110124854Y-110906000D01*
X110199193Y-110898678D01*
X110294575Y-110869745D01*
X110382479Y-110822759D01*
X110459527Y-110759527D01*
X110475376Y-110740215D01*
X111134592Y-110081000D01*
X111167073Y-110081000D01*
X111298640Y-110054829D01*
X111422574Y-110003494D01*
X111534112Y-109928967D01*
X111628967Y-109834112D01*
X111703494Y-109722574D01*
X111754829Y-109598640D01*
X111781000Y-109467073D01*
X111781000Y-109332927D01*
X111754829Y-109201360D01*
X111703494Y-109077426D01*
X111628967Y-108965888D01*
X111534112Y-108871033D01*
X111422574Y-108796506D01*
X111298640Y-108745171D01*
X111167073Y-108719000D01*
X111032927Y-108719000D01*
X110901360Y-108745171D01*
X110777426Y-108796506D01*
X110665888Y-108871033D01*
X110571033Y-108965888D01*
X110496506Y-109077426D01*
X110445171Y-109201360D01*
X110419000Y-109332927D01*
X110419000Y-109365408D01*
X109890409Y-109894000D01*
X106624854Y-109894000D01*
X106600000Y-109891552D01*
X106575146Y-109894000D01*
X106500807Y-109901322D01*
X106405425Y-109930255D01*
X106317521Y-109977241D01*
X106240473Y-110040473D01*
X106224629Y-110059779D01*
X103174781Y-113109628D01*
X103155474Y-113125473D01*
X103092242Y-113202521D01*
X103070071Y-113244000D01*
X103045255Y-113290426D01*
X103016322Y-113385808D01*
X103006553Y-113485000D01*
X103009001Y-113509856D01*
X103009001Y-113777920D01*
X102986033Y-113800888D01*
X102911506Y-113912426D01*
X102860171Y-114036360D01*
X102834000Y-114167927D01*
X101308515Y-114167927D01*
X99117073Y-111976485D01*
X99172574Y-111953496D01*
X99284112Y-111878969D01*
X99378967Y-111784114D01*
X99453494Y-111672576D01*
X99504829Y-111548642D01*
X99531000Y-111417075D01*
X99531000Y-111384593D01*
X103659594Y-107256000D01*
X111208425Y-107256000D01*
X111242491Y-107297509D01*
X111322857Y-107363464D01*
X111414547Y-107412473D01*
X111514035Y-107442653D01*
X111617500Y-107452843D01*
X111912500Y-107452843D01*
X112015965Y-107442653D01*
X112115453Y-107412473D01*
X112207143Y-107363464D01*
X112250000Y-107328292D01*
X112292857Y-107363464D01*
X112384547Y-107412473D01*
X112484035Y-107442653D01*
X112587500Y-107452843D01*
X112882500Y-107452843D01*
X112985965Y-107442653D01*
X113085453Y-107412473D01*
X113177143Y-107363464D01*
X113257509Y-107297509D01*
X113291575Y-107256000D01*
X114040409Y-107256000D01*
X118074628Y-111290220D01*
X118090473Y-111309527D01*
X118167521Y-111372759D01*
X118255425Y-111419745D01*
X118350807Y-111448678D01*
X118419001Y-111455395D01*
X118419000Y-112041021D01*
X118396299Y-112083492D01*
X118374513Y-112155311D01*
X118367157Y-112230000D01*
X118367157Y-113680000D01*
X118372496Y-113734208D01*
X118275584Y-113774351D01*
X118159951Y-113851614D01*
X118061614Y-113949951D01*
X117984351Y-114065584D01*
X117931131Y-114194067D01*
X117904000Y-114330465D01*
X117904000Y-114469535D01*
X117931131Y-114605933D01*
X117984351Y-114734416D01*
X118061614Y-114850049D01*
X118159951Y-114948386D01*
X118275584Y-115025649D01*
X118404067Y-115078869D01*
X118540465Y-115106000D01*
X118679535Y-115106000D01*
X118815933Y-115078869D01*
X118944416Y-115025649D01*
X118994001Y-114992518D01*
X118994001Y-115042920D01*
X118971033Y-115065888D01*
X118896506Y-115177426D01*
X118845171Y-115301360D01*
X118819000Y-115432927D01*
X118819000Y-115567073D01*
X118845171Y-115698640D01*
X118896506Y-115822574D01*
X118971033Y-115934112D01*
X119065888Y-116028967D01*
X119177426Y-116103494D01*
X119301360Y-116154829D01*
X119432927Y-116181000D01*
X119567073Y-116181000D01*
X119698640Y-116154829D01*
X119822574Y-116103494D01*
X119934112Y-116028967D01*
X120028967Y-115934112D01*
X120103494Y-115822574D01*
X120154829Y-115698640D01*
X120181000Y-115567073D01*
X120181000Y-115448757D01*
X131769000Y-115448757D01*
X131769000Y-115691243D01*
X131816307Y-115929069D01*
X131909102Y-116153097D01*
X132043820Y-116354717D01*
X132215283Y-116526180D01*
X132416903Y-116660898D01*
X132640931Y-116753693D01*
X132878757Y-116801000D01*
X133121243Y-116801000D01*
X133359069Y-116753693D01*
X133583097Y-116660898D01*
X133784717Y-116526180D01*
X133956180Y-116354717D01*
X134090898Y-116153097D01*
X134183693Y-115929069D01*
X134231000Y-115691243D01*
X134231000Y-115448757D01*
X134183693Y-115210931D01*
X134090898Y-114986903D01*
X133956180Y-114785283D01*
X133784717Y-114613820D01*
X133583097Y-114479102D01*
X133359069Y-114386307D01*
X133121243Y-114339000D01*
X132878757Y-114339000D01*
X132640931Y-114386307D01*
X132416903Y-114479102D01*
X132215283Y-114613820D01*
X132043820Y-114785283D01*
X131909102Y-114986903D01*
X131816307Y-115210931D01*
X131769000Y-115448757D01*
X120181000Y-115448757D01*
X120181000Y-115432927D01*
X120154829Y-115301360D01*
X120103494Y-115177426D01*
X120028967Y-115065888D01*
X120006000Y-115042921D01*
X120006000Y-114352843D01*
X120008447Y-114327997D01*
X120006000Y-114303151D01*
X120006000Y-114303144D01*
X119998678Y-114228805D01*
X119995930Y-114219744D01*
X119969745Y-114133423D01*
X119930418Y-114059847D01*
X119974689Y-114055487D01*
X120000000Y-114047809D01*
X120025311Y-114055487D01*
X120100000Y-114062843D01*
X120266079Y-114062843D01*
X120280255Y-114109576D01*
X120302127Y-114150494D01*
X120327242Y-114197481D01*
X120390474Y-114274529D01*
X120409781Y-114290374D01*
X120709622Y-114590215D01*
X120725471Y-114609527D01*
X120802519Y-114672759D01*
X120890423Y-114719745D01*
X120985805Y-114748678D01*
X121084998Y-114758448D01*
X121109852Y-114756000D01*
X121440154Y-114756000D01*
X121465000Y-114758447D01*
X121489846Y-114756000D01*
X121489854Y-114756000D01*
X121564193Y-114748678D01*
X121659575Y-114719745D01*
X121747479Y-114672759D01*
X121824527Y-114609527D01*
X121840376Y-114590215D01*
X122090215Y-114340376D01*
X122109527Y-114324527D01*
X122172759Y-114247479D01*
X122219745Y-114159575D01*
X122248678Y-114064193D01*
X122248811Y-114062843D01*
X122400000Y-114062843D01*
X122474689Y-114055487D01*
X122500000Y-114047809D01*
X122525311Y-114055487D01*
X122600000Y-114062843D01*
X122900000Y-114062843D01*
X122974689Y-114055487D01*
X123000000Y-114047809D01*
X123025311Y-114055487D01*
X123100000Y-114062843D01*
X123400000Y-114062843D01*
X123474689Y-114055487D01*
X123525000Y-114040225D01*
X123575311Y-114055487D01*
X123650000Y-114062843D01*
X123766182Y-114062843D01*
X123764351Y-114065584D01*
X123711131Y-114194067D01*
X123684000Y-114330465D01*
X123684000Y-114469535D01*
X123711131Y-114605933D01*
X123764351Y-114734416D01*
X123841614Y-114850049D01*
X123939951Y-114948386D01*
X124055584Y-115025649D01*
X124184067Y-115078869D01*
X124320465Y-115106000D01*
X124459535Y-115106000D01*
X124595933Y-115078869D01*
X124724416Y-115025649D01*
X124840049Y-114948386D01*
X124938386Y-114850049D01*
X125015649Y-114734416D01*
X125068869Y-114605933D01*
X125096000Y-114469535D01*
X125096000Y-114330465D01*
X125068869Y-114194067D01*
X125015649Y-114065584D01*
X124938386Y-113949951D01*
X124840049Y-113851614D01*
X124724416Y-113774351D01*
X124627504Y-113734208D01*
X124632843Y-113680000D01*
X124632843Y-112908757D01*
X131769000Y-112908757D01*
X131769000Y-113151243D01*
X131816307Y-113389069D01*
X131909102Y-113613097D01*
X132043820Y-113814717D01*
X132215283Y-113986180D01*
X132416903Y-114120898D01*
X132640931Y-114213693D01*
X132878757Y-114261000D01*
X133121243Y-114261000D01*
X133359069Y-114213693D01*
X133583097Y-114120898D01*
X133784717Y-113986180D01*
X133956180Y-113814717D01*
X134090898Y-113613097D01*
X134183693Y-113389069D01*
X134231000Y-113151243D01*
X134231000Y-112908757D01*
X134183693Y-112670931D01*
X134090898Y-112446903D01*
X133956180Y-112245283D01*
X133784717Y-112073820D01*
X133583097Y-111939102D01*
X133359069Y-111846307D01*
X133121243Y-111799000D01*
X132878757Y-111799000D01*
X132640931Y-111846307D01*
X132416903Y-111939102D01*
X132215283Y-112073820D01*
X132043820Y-112245283D01*
X131909102Y-112446903D01*
X131816307Y-112670931D01*
X131769000Y-112908757D01*
X124632843Y-112908757D01*
X124632843Y-112230000D01*
X124625487Y-112155311D01*
X124603701Y-112083492D01*
X124581000Y-112041022D01*
X124581000Y-110881000D01*
X126219010Y-110881000D01*
X126250000Y-110884052D01*
X126280990Y-110881000D01*
X126280998Y-110881000D01*
X126373698Y-110871870D01*
X126492642Y-110835789D01*
X126602261Y-110777196D01*
X126698343Y-110698343D01*
X126718105Y-110674263D01*
X127023611Y-110368757D01*
X131769000Y-110368757D01*
X131769000Y-110611243D01*
X131816307Y-110849069D01*
X131909102Y-111073097D01*
X132043820Y-111274717D01*
X132215283Y-111446180D01*
X132416903Y-111580898D01*
X132640931Y-111673693D01*
X132878757Y-111721000D01*
X133121243Y-111721000D01*
X133359069Y-111673693D01*
X133583097Y-111580898D01*
X133784717Y-111446180D01*
X133956180Y-111274717D01*
X134090898Y-111073097D01*
X134183693Y-110849069D01*
X134231000Y-110611243D01*
X134231000Y-110368757D01*
X134183693Y-110130931D01*
X134090898Y-109906903D01*
X133956180Y-109705283D01*
X133784717Y-109533820D01*
X133583097Y-109399102D01*
X133359069Y-109306307D01*
X133121243Y-109259000D01*
X132878757Y-109259000D01*
X132640931Y-109306307D01*
X132416903Y-109399102D01*
X132215283Y-109533820D01*
X132043820Y-109705283D01*
X131909102Y-109906903D01*
X131816307Y-110130931D01*
X131769000Y-110368757D01*
X127023611Y-110368757D01*
X127674269Y-109718100D01*
X127698343Y-109698343D01*
X127734055Y-109654829D01*
X127777196Y-109602261D01*
X127835789Y-109492642D01*
X127871870Y-109373698D01*
X127884053Y-109250000D01*
X127881000Y-109219002D01*
X127881000Y-107828757D01*
X131769000Y-107828757D01*
X131769000Y-108071243D01*
X131816307Y-108309069D01*
X131909102Y-108533097D01*
X132043820Y-108734717D01*
X132215283Y-108906180D01*
X132416903Y-109040898D01*
X132640931Y-109133693D01*
X132878757Y-109181000D01*
X133121243Y-109181000D01*
X133359069Y-109133693D01*
X133583097Y-109040898D01*
X133784717Y-108906180D01*
X133956180Y-108734717D01*
X134090898Y-108533097D01*
X134183693Y-108309069D01*
X134231000Y-108071243D01*
X134231000Y-107828757D01*
X134183693Y-107590931D01*
X134090898Y-107366903D01*
X133956180Y-107165283D01*
X133784717Y-106993820D01*
X133583097Y-106859102D01*
X133359069Y-106766307D01*
X133121243Y-106719000D01*
X132878757Y-106719000D01*
X132640931Y-106766307D01*
X132416903Y-106859102D01*
X132215283Y-106993820D01*
X132043820Y-107165283D01*
X131909102Y-107366903D01*
X131816307Y-107590931D01*
X131769000Y-107828757D01*
X127881000Y-107828757D01*
X127881000Y-105288757D01*
X131769000Y-105288757D01*
X131769000Y-105531243D01*
X131816307Y-105769069D01*
X131909102Y-105993097D01*
X132043820Y-106194717D01*
X132215283Y-106366180D01*
X132416903Y-106500898D01*
X132640931Y-106593693D01*
X132878757Y-106641000D01*
X133121243Y-106641000D01*
X133359069Y-106593693D01*
X133583097Y-106500898D01*
X133784717Y-106366180D01*
X133956180Y-106194717D01*
X134090898Y-105993097D01*
X134183693Y-105769069D01*
X134231000Y-105531243D01*
X134231000Y-105288757D01*
X134183693Y-105050931D01*
X134090898Y-104826903D01*
X133956180Y-104625283D01*
X133784717Y-104453820D01*
X133583097Y-104319102D01*
X133359069Y-104226307D01*
X133121243Y-104179000D01*
X132878757Y-104179000D01*
X132640931Y-104226307D01*
X132416903Y-104319102D01*
X132215283Y-104453820D01*
X132043820Y-104625283D01*
X131909102Y-104826903D01*
X131816307Y-105050931D01*
X131769000Y-105288757D01*
X127881000Y-105288757D01*
X127881000Y-103030987D01*
X127884052Y-102999999D01*
X127881000Y-102969011D01*
X127881000Y-102969002D01*
X127871870Y-102876302D01*
X127835789Y-102757358D01*
X127831192Y-102748757D01*
X131769000Y-102748757D01*
X131769000Y-102991243D01*
X131816307Y-103229069D01*
X131909102Y-103453097D01*
X132043820Y-103654717D01*
X132215283Y-103826180D01*
X132416903Y-103960898D01*
X132640931Y-104053693D01*
X132878757Y-104101000D01*
X133121243Y-104101000D01*
X133359069Y-104053693D01*
X133583097Y-103960898D01*
X133784717Y-103826180D01*
X133956180Y-103654717D01*
X134090898Y-103453097D01*
X134183693Y-103229069D01*
X134231000Y-102991243D01*
X134231000Y-102748757D01*
X134183693Y-102510931D01*
X134090898Y-102286903D01*
X133956180Y-102085283D01*
X133784717Y-101913820D01*
X133583097Y-101779102D01*
X133359069Y-101686307D01*
X133121243Y-101639000D01*
X132878757Y-101639000D01*
X132640931Y-101686307D01*
X132416903Y-101779102D01*
X132215283Y-101913820D01*
X132043820Y-102085283D01*
X131909102Y-102286903D01*
X131816307Y-102510931D01*
X131769000Y-102748757D01*
X127831192Y-102748757D01*
X127777196Y-102647739D01*
X127756695Y-102622759D01*
X127718103Y-102575734D01*
X127718101Y-102575732D01*
X127698343Y-102551657D01*
X127674268Y-102531899D01*
X126968105Y-101825737D01*
X126948343Y-101801657D01*
X126852261Y-101722804D01*
X126742642Y-101664211D01*
X126623698Y-101628130D01*
X126530998Y-101619000D01*
X126530990Y-101619000D01*
X126506000Y-101616539D01*
X126506000Y-100208757D01*
X131769000Y-100208757D01*
X131769000Y-100451243D01*
X131816307Y-100689069D01*
X131909102Y-100913097D01*
X132043820Y-101114717D01*
X132215283Y-101286180D01*
X132416903Y-101420898D01*
X132640931Y-101513693D01*
X132878757Y-101561000D01*
X133121243Y-101561000D01*
X133359069Y-101513693D01*
X133583097Y-101420898D01*
X133784717Y-101286180D01*
X133956180Y-101114717D01*
X134090898Y-100913097D01*
X134183693Y-100689069D01*
X134231000Y-100451243D01*
X134231000Y-100208757D01*
X134183693Y-99970931D01*
X134090898Y-99746903D01*
X133956180Y-99545283D01*
X133784717Y-99373820D01*
X133583097Y-99239102D01*
X133359069Y-99146307D01*
X133121243Y-99099000D01*
X132878757Y-99099000D01*
X132640931Y-99146307D01*
X132416903Y-99239102D01*
X132215283Y-99373820D01*
X132043820Y-99545283D01*
X131909102Y-99746903D01*
X131816307Y-99970931D01*
X131769000Y-100208757D01*
X126506000Y-100208757D01*
X126506000Y-99041575D01*
X126547509Y-99007509D01*
X126613464Y-98927143D01*
X126662473Y-98835453D01*
X126692653Y-98735965D01*
X126702843Y-98632500D01*
X126702843Y-98337500D01*
X126692653Y-98234035D01*
X126662473Y-98134547D01*
X126613464Y-98042857D01*
X126578292Y-98000000D01*
X126613464Y-97957143D01*
X126662473Y-97865453D01*
X126692653Y-97765965D01*
X126702843Y-97662500D01*
X126702843Y-97367500D01*
X126692653Y-97264035D01*
X126662473Y-97164547D01*
X126613464Y-97072857D01*
X126547509Y-96992491D01*
X126506000Y-96958425D01*
X126506000Y-96709591D01*
X128815591Y-94400000D01*
X131767157Y-94400000D01*
X131767157Y-96100000D01*
X131774513Y-96174689D01*
X131796299Y-96246508D01*
X131831678Y-96312696D01*
X131879289Y-96370711D01*
X131937304Y-96418322D01*
X132003492Y-96453701D01*
X132075311Y-96475487D01*
X132150000Y-96482843D01*
X133850000Y-96482843D01*
X133924689Y-96475487D01*
X133996508Y-96453701D01*
X134062696Y-96418322D01*
X134120711Y-96370711D01*
X134168322Y-96312696D01*
X134203701Y-96246508D01*
X134225487Y-96174689D01*
X134232843Y-96100000D01*
X134232843Y-94400000D01*
X134225487Y-94325311D01*
X134203701Y-94253492D01*
X134168322Y-94187304D01*
X134120711Y-94129289D01*
X134062696Y-94081678D01*
X133996508Y-94046299D01*
X133924689Y-94024513D01*
X133850000Y-94017157D01*
X132150000Y-94017157D01*
X132075311Y-94024513D01*
X132003492Y-94046299D01*
X131937304Y-94081678D01*
X131879289Y-94129289D01*
X131831678Y-94187304D01*
X131796299Y-94253492D01*
X131774513Y-94325311D01*
X131767157Y-94400000D01*
X128815591Y-94400000D01*
X129127720Y-94087872D01*
X129147027Y-94072027D01*
X129210259Y-93994979D01*
X129257245Y-93907075D01*
X129286178Y-93811693D01*
X129293500Y-93737354D01*
X129293500Y-93737347D01*
X129295947Y-93712501D01*
X129293500Y-93687655D01*
X129293500Y-92281566D01*
X129340477Y-92256456D01*
X129431640Y-92181640D01*
X129506456Y-92090477D01*
X129562049Y-91986470D01*
X129596284Y-91873615D01*
X129607843Y-91756250D01*
X129607843Y-91243750D01*
X129596284Y-91126385D01*
X129562049Y-91013530D01*
X129506456Y-90909523D01*
X129431640Y-90818360D01*
X129340477Y-90743544D01*
X129236470Y-90687951D01*
X129123615Y-90653716D01*
X129006250Y-90642157D01*
X128568750Y-90642157D01*
X128451385Y-90653716D01*
X128338530Y-90687951D01*
X128234523Y-90743544D01*
X128143360Y-90818360D01*
X128068544Y-90909523D01*
X128012951Y-91013530D01*
X128000000Y-91056223D01*
X127987049Y-91013530D01*
X127931456Y-90909523D01*
X127856640Y-90818360D01*
X127765477Y-90743544D01*
X127661470Y-90687951D01*
X127548615Y-90653716D01*
X127431250Y-90642157D01*
X126993750Y-90642157D01*
X126876385Y-90653716D01*
X126763530Y-90687951D01*
X126659523Y-90743544D01*
X126568360Y-90818360D01*
X126493544Y-90909523D01*
X126437951Y-91013530D01*
X126403716Y-91126385D01*
X126392157Y-91243750D01*
X126392157Y-91756250D01*
X126403716Y-91873615D01*
X126437951Y-91986470D01*
X126493544Y-92090477D01*
X126568360Y-92181640D01*
X126659523Y-92256456D01*
X126706500Y-92281566D01*
X126706501Y-94327907D01*
X124965409Y-96069000D01*
X124932927Y-96069000D01*
X124801360Y-96095171D01*
X124677426Y-96146506D01*
X124565888Y-96221033D01*
X124471033Y-96315888D01*
X124396506Y-96427426D01*
X124345171Y-96551360D01*
X124319000Y-96682927D01*
X124319000Y-96817073D01*
X124324407Y-96844256D01*
X124295711Y-96809289D01*
X124237696Y-96761678D01*
X124171508Y-96726299D01*
X124099689Y-96704513D01*
X124025000Y-96697157D01*
X123375000Y-96697157D01*
X123300311Y-96704513D01*
X123228492Y-96726299D01*
X123162304Y-96761678D01*
X123104289Y-96809289D01*
X123056678Y-96867304D01*
X123021299Y-96933492D01*
X122999513Y-97005311D01*
X122992157Y-97080000D01*
X122992157Y-98300000D01*
X122999513Y-98374689D01*
X123021299Y-98446508D01*
X123056678Y-98512696D01*
X123104289Y-98570711D01*
X123162304Y-98618322D01*
X123228492Y-98653701D01*
X123300311Y-98675487D01*
X123375000Y-98682843D01*
X124025000Y-98682843D01*
X124099689Y-98675487D01*
X124171508Y-98653701D01*
X124237696Y-98618322D01*
X124295711Y-98570711D01*
X124297157Y-98568949D01*
X124297157Y-98632500D01*
X124307347Y-98735965D01*
X124337527Y-98835453D01*
X124386536Y-98927143D01*
X124452491Y-99007509D01*
X124532857Y-99073464D01*
X124624547Y-99122473D01*
X124724035Y-99152653D01*
X124827500Y-99162843D01*
X125172500Y-99162843D01*
X125275965Y-99152653D01*
X125375453Y-99122473D01*
X125467143Y-99073464D01*
X125494000Y-99051423D01*
X125494000Y-100168577D01*
X125467143Y-100146536D01*
X125375453Y-100097527D01*
X125275965Y-100067347D01*
X125172500Y-100057157D01*
X124827500Y-100057157D01*
X124724035Y-100067347D01*
X124624547Y-100097527D01*
X124532857Y-100146536D01*
X124452491Y-100212491D01*
X124438942Y-100229000D01*
X124407843Y-100229000D01*
X124407843Y-99700000D01*
X124400487Y-99625311D01*
X124378701Y-99553492D01*
X124343322Y-99487304D01*
X124295711Y-99429289D01*
X124237696Y-99381678D01*
X124171508Y-99346299D01*
X124099689Y-99324513D01*
X124025000Y-99317157D01*
X123375000Y-99317157D01*
X123300311Y-99324513D01*
X123228492Y-99346299D01*
X123162304Y-99381678D01*
X123104289Y-99429289D01*
X123056678Y-99487304D01*
X123021299Y-99553492D01*
X122999513Y-99625311D01*
X122992157Y-99700000D01*
X122992157Y-100920000D01*
X122999513Y-100994689D01*
X123021299Y-101066508D01*
X123056678Y-101132696D01*
X123104289Y-101190711D01*
X123162304Y-101238322D01*
X123228492Y-101273701D01*
X123300311Y-101295487D01*
X123375000Y-101302843D01*
X124025000Y-101302843D01*
X124099689Y-101295487D01*
X124171508Y-101273701D01*
X124232686Y-101241000D01*
X124438942Y-101241000D01*
X124452491Y-101257509D01*
X124532857Y-101323464D01*
X124624547Y-101372473D01*
X124724035Y-101402653D01*
X124827500Y-101412843D01*
X125172500Y-101412843D01*
X125275965Y-101402653D01*
X125375453Y-101372473D01*
X125467143Y-101323464D01*
X125494001Y-101301422D01*
X125494001Y-101619000D01*
X123261369Y-101619000D01*
X122507843Y-100865475D01*
X122507843Y-99700000D01*
X122500487Y-99625311D01*
X122478701Y-99553492D01*
X122443322Y-99487304D01*
X122395711Y-99429289D01*
X122337696Y-99381678D01*
X122271508Y-99346299D01*
X122199689Y-99324513D01*
X122125000Y-99317157D01*
X121475000Y-99317157D01*
X121400311Y-99324513D01*
X121328492Y-99346299D01*
X121262304Y-99381678D01*
X121204289Y-99429289D01*
X121156678Y-99487304D01*
X121121299Y-99553492D01*
X121120387Y-99556500D01*
X120817944Y-99556500D01*
X120736470Y-99512951D01*
X120623615Y-99478716D01*
X120506250Y-99467157D01*
X119993750Y-99467157D01*
X119876385Y-99478716D01*
X119763530Y-99512951D01*
X119682056Y-99556500D01*
X119445127Y-99556500D01*
X119399318Y-99500682D01*
X119304366Y-99422757D01*
X119196037Y-99364854D01*
X119078492Y-99329197D01*
X118956250Y-99317157D01*
X118043750Y-99317157D01*
X117921508Y-99329197D01*
X117803963Y-99364854D01*
X117695634Y-99422757D01*
X117681000Y-99434767D01*
X117681000Y-99432927D01*
X117654829Y-99301360D01*
X117603494Y-99177426D01*
X117528967Y-99065888D01*
X117434112Y-98971033D01*
X117322574Y-98896506D01*
X117198640Y-98845171D01*
X117067073Y-98819000D01*
X116932927Y-98819000D01*
X116801360Y-98845171D01*
X116677426Y-98896506D01*
X116606000Y-98944231D01*
X116606000Y-97251013D01*
X118001013Y-95856000D01*
X121006283Y-95856000D01*
X121068360Y-95931640D01*
X121081500Y-95942424D01*
X121081501Y-97571500D01*
X121078448Y-97602500D01*
X121090630Y-97726197D01*
X121092157Y-97731231D01*
X121092157Y-98300000D01*
X121099513Y-98374689D01*
X121121299Y-98446508D01*
X121156678Y-98512696D01*
X121204289Y-98570711D01*
X121262304Y-98618322D01*
X121328492Y-98653701D01*
X121400311Y-98675487D01*
X121475000Y-98682843D01*
X122125000Y-98682843D01*
X122199689Y-98675487D01*
X122271508Y-98653701D01*
X122337696Y-98618322D01*
X122395711Y-98570711D01*
X122443322Y-98512696D01*
X122478701Y-98446508D01*
X122500487Y-98374689D01*
X122507843Y-98300000D01*
X122507843Y-97080000D01*
X122500487Y-97005311D01*
X122478701Y-96933492D01*
X122443322Y-96867304D01*
X122395711Y-96809289D01*
X122343500Y-96766441D01*
X122343500Y-95942424D01*
X122356640Y-95931640D01*
X122431456Y-95840477D01*
X122487049Y-95736470D01*
X122521284Y-95623615D01*
X122532843Y-95506250D01*
X122532843Y-94993750D01*
X122521284Y-94876385D01*
X122487049Y-94763530D01*
X122431456Y-94659523D01*
X122356640Y-94568360D01*
X122265477Y-94493544D01*
X122161470Y-94437951D01*
X122131000Y-94428708D01*
X122131000Y-93482843D01*
X122350000Y-93482843D01*
X122424689Y-93475487D01*
X122496508Y-93453701D01*
X122562696Y-93418322D01*
X122620711Y-93370711D01*
X122668322Y-93312696D01*
X122703701Y-93246508D01*
X122725487Y-93174689D01*
X122732843Y-93100000D01*
X122732843Y-91400000D01*
X122725487Y-91325311D01*
X122703701Y-91253492D01*
X122668322Y-91187304D01*
X122620711Y-91129289D01*
X122562696Y-91081678D01*
X122496508Y-91046299D01*
X122424689Y-91024513D01*
X122350000Y-91017157D01*
X120650000Y-91017157D01*
X120575311Y-91024513D01*
X120503492Y-91046299D01*
X120437304Y-91081678D01*
X120379289Y-91129289D01*
X120331678Y-91187304D01*
X120296299Y-91253492D01*
X120274513Y-91325311D01*
X120267157Y-91400000D01*
X120267157Y-93100000D01*
X120274513Y-93174689D01*
X120296299Y-93246508D01*
X120331678Y-93312696D01*
X120379289Y-93370711D01*
X120437304Y-93418322D01*
X120503492Y-93453701D01*
X120575311Y-93475487D01*
X120650000Y-93482843D01*
X120869000Y-93482843D01*
X120869001Y-94644000D01*
X117779768Y-94644000D01*
X117750000Y-94641068D01*
X117720232Y-94644000D01*
X117720230Y-94644000D01*
X117631203Y-94652768D01*
X117516972Y-94687420D01*
X117492469Y-94700517D01*
X117411695Y-94743691D01*
X117350222Y-94794142D01*
X117319420Y-94819420D01*
X117300442Y-94842545D01*
X115782843Y-96360144D01*
X115782843Y-93100000D01*
X115775487Y-93025311D01*
X115753701Y-92953492D01*
X115718322Y-92887304D01*
X115670711Y-92829289D01*
X115612696Y-92781678D01*
X115546508Y-92746299D01*
X115474689Y-92724513D01*
X115400000Y-92717157D01*
X113400000Y-92717157D01*
X113325311Y-92724513D01*
X113253492Y-92746299D01*
X113187304Y-92781678D01*
X113129289Y-92829289D01*
X113081678Y-92887304D01*
X113046299Y-92953492D01*
X113024513Y-93025311D01*
X113017157Y-93100000D01*
X113017157Y-94319000D01*
X109482843Y-94319000D01*
X109482843Y-94250000D01*
X109475487Y-94175311D01*
X109453701Y-94103492D01*
X109418322Y-94037304D01*
X109370711Y-93979289D01*
X109312696Y-93931678D01*
X109246508Y-93896299D01*
X109174689Y-93874513D01*
X109100000Y-93867157D01*
X107100000Y-93867157D01*
X107025311Y-93874513D01*
X106953492Y-93896299D01*
X106887304Y-93931678D01*
X106832843Y-93976372D01*
X106832843Y-93943750D01*
X106820803Y-93821508D01*
X106785146Y-93703963D01*
X106727243Y-93595634D01*
X106649318Y-93500682D01*
X106554366Y-93422757D01*
X106446037Y-93364854D01*
X106328492Y-93329197D01*
X106206250Y-93317157D01*
X105293750Y-93317157D01*
X105171508Y-93329197D01*
X105053963Y-93364854D01*
X104945634Y-93422757D01*
X104931103Y-93434682D01*
X104789422Y-93406500D01*
X104635578Y-93406500D01*
X104484691Y-93436513D01*
X104342558Y-93495387D01*
X104214641Y-93580858D01*
X104105858Y-93689641D01*
X104020387Y-93817558D01*
X103961513Y-93959691D01*
X103931500Y-94110578D01*
X103931500Y-94264422D01*
X103961513Y-94415309D01*
X104020387Y-94557442D01*
X104105858Y-94685359D01*
X104214641Y-94794142D01*
X104340705Y-94878375D01*
X103727080Y-95492000D01*
X102024944Y-95492000D01*
X102000000Y-95489543D01*
X101975056Y-95492000D01*
X101975053Y-95492000D01*
X101900415Y-95499351D01*
X101804657Y-95528399D01*
X101716405Y-95575571D01*
X101639052Y-95639052D01*
X101623145Y-95658435D01*
X100962580Y-96319000D01*
X100932927Y-96319000D01*
X100801360Y-96345171D01*
X100677426Y-96396506D01*
X100565888Y-96471033D01*
X100471033Y-96565888D01*
X100396506Y-96677426D01*
X100345171Y-96801360D01*
X100319000Y-96932927D01*
X100319000Y-97067073D01*
X100345171Y-97198640D01*
X100396506Y-97322574D01*
X100471033Y-97434112D01*
X100565888Y-97528967D01*
X100677426Y-97603494D01*
X100801360Y-97654829D01*
X100932927Y-97681000D01*
X101067073Y-97681000D01*
X101198640Y-97654829D01*
X101322574Y-97603494D01*
X101434112Y-97528967D01*
X101528967Y-97434112D01*
X101603494Y-97322574D01*
X101654829Y-97198640D01*
X101681000Y-97067073D01*
X101681000Y-97037420D01*
X102210420Y-96508000D01*
X103912556Y-96508000D01*
X103937500Y-96510457D01*
X103962444Y-96508000D01*
X103962447Y-96508000D01*
X104037085Y-96500649D01*
X104132843Y-96471601D01*
X104221095Y-96424429D01*
X104298448Y-96360948D01*
X104314355Y-96341565D01*
X104675896Y-95980024D01*
X104667157Y-96068750D01*
X104667157Y-96556250D01*
X104679197Y-96678492D01*
X104714854Y-96796037D01*
X104772757Y-96904366D01*
X104850682Y-96999318D01*
X104945634Y-97077243D01*
X105053963Y-97135146D01*
X105171508Y-97170803D01*
X105293750Y-97182843D01*
X105969765Y-97182843D01*
X106544800Y-97757879D01*
X106566130Y-97783870D01*
X106669826Y-97868970D01*
X106717157Y-97894269D01*
X106717157Y-98050000D01*
X106724513Y-98124689D01*
X106746299Y-98196508D01*
X106781678Y-98262696D01*
X106829289Y-98320711D01*
X106887304Y-98368322D01*
X106953492Y-98403701D01*
X107025311Y-98425487D01*
X107100000Y-98432843D01*
X109100000Y-98432843D01*
X109174689Y-98425487D01*
X109246508Y-98403701D01*
X109312696Y-98368322D01*
X109370711Y-98320711D01*
X109418322Y-98262696D01*
X109453701Y-98196508D01*
X109475487Y-98124689D01*
X109482843Y-98050000D01*
X109482843Y-97981000D01*
X111267922Y-97981000D01*
X112233292Y-98946371D01*
X112224513Y-98975311D01*
X112217157Y-99050000D01*
X112217157Y-99950000D01*
X112224513Y-100024689D01*
X112246299Y-100096508D01*
X112281678Y-100162696D01*
X112329289Y-100220711D01*
X112387304Y-100268322D01*
X112453492Y-100303701D01*
X112525311Y-100325487D01*
X112600000Y-100332843D01*
X113400000Y-100332843D01*
X113474689Y-100325487D01*
X113546508Y-100303701D01*
X113612696Y-100268322D01*
X113670711Y-100220711D01*
X113718322Y-100162696D01*
X113753701Y-100096508D01*
X113775487Y-100024689D01*
X113782843Y-99950000D01*
X113782843Y-99050000D01*
X113775487Y-98975311D01*
X113753701Y-98903492D01*
X113718322Y-98837304D01*
X113681000Y-98791826D01*
X113681000Y-98783453D01*
X113684295Y-98750000D01*
X113671146Y-98616501D01*
X113632206Y-98488131D01*
X113568970Y-98369826D01*
X113536495Y-98330255D01*
X113483870Y-98266130D01*
X113457879Y-98244800D01*
X112055204Y-96842126D01*
X112033870Y-96816130D01*
X111930174Y-96731030D01*
X111811868Y-96667794D01*
X111683499Y-96628854D01*
X111583453Y-96619000D01*
X111550000Y-96615705D01*
X111516547Y-96619000D01*
X109482843Y-96619000D01*
X109482843Y-96550000D01*
X109475487Y-96475311D01*
X109453701Y-96403492D01*
X109418322Y-96337304D01*
X109370711Y-96279289D01*
X109312696Y-96231678D01*
X109246508Y-96196299D01*
X109174689Y-96174513D01*
X109100000Y-96167157D01*
X107100000Y-96167157D01*
X107025311Y-96174513D01*
X106953492Y-96196299D01*
X106924744Y-96211666D01*
X106832843Y-96119765D01*
X106832843Y-96068750D01*
X106827951Y-96019080D01*
X106829289Y-96020711D01*
X106887304Y-96068322D01*
X106953492Y-96103701D01*
X107025311Y-96125487D01*
X107100000Y-96132843D01*
X109100000Y-96132843D01*
X109174689Y-96125487D01*
X109246508Y-96103701D01*
X109312696Y-96068322D01*
X109370711Y-96020711D01*
X109418322Y-95962696D01*
X109453701Y-95896508D01*
X109475487Y-95824689D01*
X109482843Y-95750000D01*
X109482843Y-95681000D01*
X113017157Y-95681000D01*
X113017157Y-96900000D01*
X113024513Y-96974689D01*
X113046299Y-97046508D01*
X113081678Y-97112696D01*
X113129289Y-97170711D01*
X113187304Y-97218322D01*
X113253492Y-97253701D01*
X113325311Y-97275487D01*
X113400000Y-97282843D01*
X115394001Y-97282843D01*
X115394000Y-99248986D01*
X113975830Y-100667157D01*
X113550000Y-100667157D01*
X113475311Y-100674513D01*
X113403492Y-100696299D01*
X113337304Y-100731678D01*
X113279289Y-100779289D01*
X113231678Y-100837304D01*
X113196299Y-100903492D01*
X113174513Y-100975311D01*
X113167157Y-101050000D01*
X113167157Y-101567251D01*
X112832843Y-101901566D01*
X112832843Y-101050000D01*
X112825487Y-100975311D01*
X112803701Y-100903492D01*
X112768322Y-100837304D01*
X112720711Y-100779289D01*
X112662696Y-100731678D01*
X112596508Y-100696299D01*
X112524689Y-100674513D01*
X112450000Y-100667157D01*
X111932749Y-100667157D01*
X110425376Y-99159785D01*
X110409527Y-99140473D01*
X110332479Y-99077241D01*
X110244575Y-99030255D01*
X110149193Y-99001322D01*
X110074854Y-98994000D01*
X110074846Y-98994000D01*
X110050000Y-98991553D01*
X110027307Y-98993788D01*
X110025487Y-98975311D01*
X110003701Y-98903492D01*
X109968322Y-98837304D01*
X109920711Y-98779289D01*
X109862696Y-98731678D01*
X109796508Y-98696299D01*
X109724689Y-98674513D01*
X109650000Y-98667157D01*
X108850000Y-98667157D01*
X108775311Y-98674513D01*
X108703492Y-98696299D01*
X108637304Y-98731678D01*
X108579289Y-98779289D01*
X108531678Y-98837304D01*
X108496299Y-98903492D01*
X108474513Y-98975311D01*
X108467157Y-99050000D01*
X108467157Y-99950000D01*
X108474513Y-100024689D01*
X108496299Y-100096508D01*
X108531678Y-100162696D01*
X108579289Y-100220711D01*
X108637304Y-100268322D01*
X108703492Y-100303701D01*
X108775311Y-100325487D01*
X108850000Y-100332843D01*
X109650000Y-100332843D01*
X109724689Y-100325487D01*
X109796508Y-100303701D01*
X109862696Y-100268322D01*
X109920711Y-100220711D01*
X109968322Y-100162696D01*
X109978348Y-100143939D01*
X111267157Y-101432749D01*
X111267157Y-101683055D01*
X111266322Y-101685808D01*
X111256553Y-101785000D01*
X111259001Y-101809856D01*
X111259000Y-102438942D01*
X111242491Y-102452491D01*
X111176536Y-102532857D01*
X111127527Y-102624547D01*
X111097347Y-102724035D01*
X111087157Y-102827500D01*
X111087157Y-103172500D01*
X111097347Y-103275965D01*
X111127527Y-103375453D01*
X111176536Y-103467143D01*
X111242491Y-103547509D01*
X111322857Y-103613464D01*
X111414547Y-103662473D01*
X111514035Y-103692653D01*
X111617500Y-103702843D01*
X111912500Y-103702843D01*
X112015965Y-103692653D01*
X112085390Y-103671593D01*
X112057347Y-103764035D01*
X112047157Y-103867500D01*
X112047157Y-104162500D01*
X112057347Y-104265965D01*
X112087527Y-104365453D01*
X112136536Y-104457143D01*
X112154474Y-104479000D01*
X112061058Y-104479000D01*
X112047509Y-104462491D01*
X111967143Y-104396536D01*
X111875453Y-104347527D01*
X111775965Y-104317347D01*
X111672500Y-104307157D01*
X111327500Y-104307157D01*
X111224035Y-104317347D01*
X111124547Y-104347527D01*
X111032857Y-104396536D01*
X111000000Y-104423501D01*
X110967143Y-104396536D01*
X110875453Y-104347527D01*
X110775965Y-104317347D01*
X110672500Y-104307157D01*
X110327500Y-104307157D01*
X110224035Y-104317347D01*
X110124547Y-104347527D01*
X110032857Y-104396536D01*
X109952491Y-104462491D01*
X109886536Y-104542857D01*
X109837527Y-104634547D01*
X109807347Y-104734035D01*
X109797157Y-104837500D01*
X109797157Y-105132500D01*
X109807347Y-105235965D01*
X109824952Y-105294000D01*
X107946074Y-105294000D01*
X107996508Y-105278701D01*
X108062696Y-105243322D01*
X108120711Y-105195711D01*
X108168322Y-105137696D01*
X108203701Y-105071508D01*
X108225487Y-104999689D01*
X108232843Y-104925000D01*
X108232843Y-104475000D01*
X108225487Y-104400311D01*
X108203701Y-104328492D01*
X108168322Y-104262304D01*
X108120711Y-104204289D01*
X108062696Y-104156678D01*
X108056000Y-104153099D01*
X108056000Y-103546901D01*
X108062696Y-103543322D01*
X108108174Y-103506000D01*
X108958425Y-103506000D01*
X108992491Y-103547509D01*
X109072857Y-103613464D01*
X109164547Y-103662473D01*
X109264035Y-103692653D01*
X109367500Y-103702843D01*
X109662500Y-103702843D01*
X109765965Y-103692653D01*
X109865453Y-103662473D01*
X109957143Y-103613464D01*
X110037509Y-103547509D01*
X110103464Y-103467143D01*
X110152473Y-103375453D01*
X110182653Y-103275965D01*
X110192843Y-103172500D01*
X110192843Y-102827500D01*
X110182653Y-102724035D01*
X110152473Y-102624547D01*
X110103464Y-102532857D01*
X110037509Y-102452491D01*
X109957143Y-102386536D01*
X109865453Y-102337527D01*
X109847748Y-102332156D01*
X109082843Y-101567252D01*
X109082843Y-101050000D01*
X109075487Y-100975311D01*
X109053701Y-100903492D01*
X109018322Y-100837304D01*
X108970711Y-100779289D01*
X108912696Y-100731678D01*
X108846508Y-100696299D01*
X108774689Y-100674513D01*
X108700000Y-100667157D01*
X107900000Y-100667157D01*
X107825311Y-100674513D01*
X107753492Y-100696299D01*
X107687304Y-100731678D01*
X107629289Y-100779289D01*
X107581678Y-100837304D01*
X107546299Y-100903492D01*
X107524513Y-100975311D01*
X107517157Y-101050000D01*
X107517157Y-101950000D01*
X107524513Y-102024689D01*
X107546299Y-102096508D01*
X107581678Y-102162696D01*
X107629289Y-102220711D01*
X107687304Y-102268322D01*
X107753492Y-102303701D01*
X107825311Y-102325487D01*
X107900000Y-102332843D01*
X108417252Y-102332843D01*
X108578408Y-102494000D01*
X108108174Y-102494000D01*
X108062696Y-102456678D01*
X107996508Y-102421299D01*
X107924689Y-102399513D01*
X107850000Y-102392157D01*
X107250000Y-102392157D01*
X107175311Y-102399513D01*
X107103492Y-102421299D01*
X107037304Y-102456678D01*
X106991000Y-102494678D01*
X106991000Y-102061058D01*
X107007509Y-102047509D01*
X107073464Y-101967143D01*
X107122473Y-101875453D01*
X107152653Y-101775965D01*
X107162843Y-101672500D01*
X107162843Y-101327500D01*
X107152653Y-101224035D01*
X107122473Y-101124547D01*
X107073464Y-101032857D01*
X107007509Y-100952491D01*
X106927143Y-100886536D01*
X106835453Y-100837527D01*
X106735965Y-100807347D01*
X106632500Y-100797157D01*
X106337500Y-100797157D01*
X106234035Y-100807347D01*
X106134547Y-100837527D01*
X106042857Y-100886536D01*
X106000000Y-100921708D01*
X105957143Y-100886536D01*
X105865453Y-100837527D01*
X105765965Y-100807347D01*
X105662500Y-100797157D01*
X105367500Y-100797157D01*
X105264035Y-100807347D01*
X105164547Y-100837527D01*
X105072857Y-100886536D01*
X104992491Y-100952491D01*
X104926536Y-101032857D01*
X104877527Y-101124547D01*
X104847347Y-101224035D01*
X104837157Y-101327500D01*
X104837157Y-101672500D01*
X104847347Y-101775965D01*
X104865315Y-101835195D01*
X98198460Y-108502051D01*
X98165978Y-108502051D01*
X98034411Y-108528222D01*
X98006000Y-108539990D01*
X98006000Y-107024854D01*
X98008448Y-107000000D01*
X97998678Y-106900807D01*
X97969745Y-106805425D01*
X97961753Y-106790474D01*
X97922759Y-106717521D01*
X97859527Y-106640473D01*
X97840220Y-106624628D01*
X97506000Y-106290409D01*
X97506000Y-98424845D01*
X97508447Y-98399999D01*
X97506000Y-98375153D01*
X97506000Y-98375146D01*
X97498678Y-98300807D01*
X97498434Y-98300000D01*
X97469745Y-98205425D01*
X97460793Y-98188678D01*
X97422759Y-98117521D01*
X97359527Y-98040473D01*
X97340220Y-98024628D01*
X96637843Y-97322252D01*
X96637843Y-97105000D01*
X96630487Y-97030311D01*
X96608701Y-96958492D01*
X96588126Y-96920000D01*
X96608701Y-96881508D01*
X96630487Y-96809689D01*
X96637843Y-96735000D01*
X96637843Y-95835000D01*
X96630487Y-95760311D01*
X96608701Y-95688492D01*
X96573322Y-95622304D01*
X96525711Y-95564289D01*
X96467696Y-95516678D01*
X96401508Y-95481299D01*
X96329689Y-95459513D01*
X96255000Y-95452157D01*
X95963435Y-95452157D01*
X96170220Y-95245372D01*
X96189527Y-95229527D01*
X96252759Y-95152479D01*
X96299745Y-95064575D01*
X96328678Y-94969193D01*
X96336000Y-94894854D01*
X96336000Y-94894853D01*
X96338448Y-94870000D01*
X96336000Y-94845146D01*
X96336000Y-93378757D01*
X98479000Y-93378757D01*
X98479000Y-93621243D01*
X98526307Y-93859069D01*
X98619102Y-94083097D01*
X98753820Y-94284717D01*
X98925283Y-94456180D01*
X99126903Y-94590898D01*
X99350931Y-94683693D01*
X99588757Y-94731000D01*
X99831243Y-94731000D01*
X100069069Y-94683693D01*
X100293097Y-94590898D01*
X100494717Y-94456180D01*
X100666180Y-94284717D01*
X100800898Y-94083097D01*
X100893693Y-93859069D01*
X100941000Y-93621243D01*
X100941000Y-93378757D01*
X100893693Y-93140931D01*
X100800898Y-92916903D01*
X100666180Y-92715283D01*
X100600897Y-92650000D01*
X101017157Y-92650000D01*
X101017157Y-94350000D01*
X101024513Y-94424689D01*
X101046299Y-94496508D01*
X101081678Y-94562696D01*
X101129289Y-94620711D01*
X101187304Y-94668322D01*
X101253492Y-94703701D01*
X101325311Y-94725487D01*
X101400000Y-94732843D01*
X103100000Y-94732843D01*
X103174689Y-94725487D01*
X103246508Y-94703701D01*
X103312696Y-94668322D01*
X103370711Y-94620711D01*
X103418322Y-94562696D01*
X103453701Y-94496508D01*
X103475487Y-94424689D01*
X103482843Y-94350000D01*
X103482843Y-92650000D01*
X103475487Y-92575311D01*
X103453701Y-92503492D01*
X103418322Y-92437304D01*
X103370711Y-92379289D01*
X103312696Y-92331678D01*
X103246508Y-92296299D01*
X103174689Y-92274513D01*
X103100000Y-92267157D01*
X101400000Y-92267157D01*
X101325311Y-92274513D01*
X101253492Y-92296299D01*
X101187304Y-92331678D01*
X101129289Y-92379289D01*
X101081678Y-92437304D01*
X101046299Y-92503492D01*
X101024513Y-92575311D01*
X101017157Y-92650000D01*
X100600897Y-92650000D01*
X100494717Y-92543820D01*
X100293097Y-92409102D01*
X100069069Y-92316307D01*
X99831243Y-92269000D01*
X99588757Y-92269000D01*
X99350931Y-92316307D01*
X99126903Y-92409102D01*
X98925283Y-92543820D01*
X98753820Y-92715283D01*
X98619102Y-92916903D01*
X98526307Y-93140931D01*
X98479000Y-93378757D01*
X96336000Y-93378757D01*
X96336000Y-91995526D01*
X96357857Y-92013464D01*
X96449547Y-92062473D01*
X96549035Y-92092653D01*
X96652500Y-92102843D01*
X96947500Y-92102843D01*
X97050965Y-92092653D01*
X97150453Y-92062473D01*
X97242143Y-92013464D01*
X97322509Y-91947509D01*
X97356575Y-91906000D01*
X97382190Y-91906000D01*
X97392950Y-91941469D01*
X97448543Y-92045476D01*
X97523359Y-92136639D01*
X97614522Y-92211455D01*
X97718529Y-92267048D01*
X97831384Y-92301283D01*
X97948749Y-92312842D01*
X98386249Y-92312842D01*
X98503614Y-92301283D01*
X98616469Y-92267048D01*
X98720476Y-92211455D01*
X98811639Y-92136639D01*
X98886455Y-92045476D01*
X98942048Y-91941469D01*
X98976283Y-91828614D01*
X98987842Y-91711249D01*
X98987842Y-91198749D01*
X98976283Y-91081384D01*
X98942048Y-90968529D01*
X98886455Y-90864522D01*
X98811639Y-90773359D01*
X98720476Y-90698543D01*
X98616469Y-90642950D01*
X98503614Y-90608715D01*
X98386249Y-90597156D01*
X97948749Y-90597156D01*
X97831384Y-90608715D01*
X97718529Y-90642950D01*
X97614522Y-90698543D01*
X97523359Y-90773359D01*
X97448543Y-90864522D01*
X97432787Y-90894000D01*
X97356575Y-90894000D01*
X97322509Y-90852491D01*
X97242143Y-90786536D01*
X97150453Y-90737527D01*
X97050965Y-90707347D01*
X96947500Y-90697157D01*
X96652500Y-90697157D01*
X96549035Y-90707347D01*
X96449547Y-90737527D01*
X96357857Y-90786536D01*
X96315000Y-90821708D01*
X96272143Y-90786536D01*
X96180453Y-90737527D01*
X96080965Y-90707347D01*
X95977500Y-90697157D01*
X95682500Y-90697157D01*
X95579035Y-90707347D01*
X95479547Y-90737527D01*
X95387857Y-90786536D01*
X95307491Y-90852491D01*
X95241536Y-90932857D01*
X95192527Y-91024547D01*
X95162347Y-91124035D01*
X95152157Y-91227500D01*
X95152157Y-91572500D01*
X95162347Y-91675965D01*
X95192527Y-91775453D01*
X95241536Y-91867143D01*
X95307491Y-91947509D01*
X95324001Y-91961058D01*
X95324000Y-94660408D01*
X94914780Y-95069629D01*
X94895474Y-95085473D01*
X94832242Y-95162521D01*
X94826770Y-95172759D01*
X94785255Y-95250426D01*
X94756322Y-95345808D01*
X94746553Y-95445000D01*
X94747258Y-95452157D01*
X94268434Y-95452157D01*
X94595220Y-95125372D01*
X94614527Y-95109527D01*
X94677759Y-95032479D01*
X94724745Y-94944575D01*
X94744655Y-94878937D01*
X94779689Y-94875487D01*
X94851508Y-94853701D01*
X94917696Y-94818322D01*
X94975711Y-94770711D01*
X95023322Y-94712696D01*
X95058701Y-94646508D01*
X95080487Y-94574689D01*
X95087843Y-94500000D01*
X95087843Y-92500000D01*
X95080487Y-92425311D01*
X95058701Y-92353492D01*
X95023322Y-92287304D01*
X94975711Y-92229289D01*
X94917696Y-92181678D01*
X94851508Y-92146299D01*
X94779689Y-92124513D01*
X94705000Y-92117157D01*
X93805000Y-92117157D01*
X93730311Y-92124513D01*
X93658492Y-92146299D01*
X93620000Y-92166874D01*
X93581508Y-92146299D01*
X93509689Y-92124513D01*
X93435000Y-92117157D01*
X92535000Y-92117157D01*
X92460311Y-92124513D01*
X92388492Y-92146299D01*
X92350000Y-92166874D01*
X92311508Y-92146299D01*
X92239689Y-92124513D01*
X92165000Y-92117157D01*
X91265000Y-92117157D01*
X91190311Y-92124513D01*
X91118492Y-92146299D01*
X91080000Y-92166874D01*
X91041508Y-92146299D01*
X90969689Y-92124513D01*
X90895000Y-92117157D01*
X89995000Y-92117157D01*
X89920311Y-92124513D01*
X89848492Y-92146299D01*
X89810000Y-92166874D01*
X89771508Y-92146299D01*
X89699689Y-92124513D01*
X89625000Y-92117157D01*
X88725000Y-92117157D01*
X88650311Y-92124513D01*
X88578492Y-92146299D01*
X88540000Y-92166874D01*
X88501508Y-92146299D01*
X88429689Y-92124513D01*
X88355000Y-92117157D01*
X87455000Y-92117157D01*
X87380311Y-92124513D01*
X87308492Y-92146299D01*
X87270000Y-92166874D01*
X87231508Y-92146299D01*
X87159689Y-92124513D01*
X87085000Y-92117157D01*
X86185000Y-92117157D01*
X86110311Y-92124513D01*
X86038492Y-92146299D01*
X86000000Y-92166874D01*
X85961508Y-92146299D01*
X85889689Y-92124513D01*
X85815000Y-92117157D01*
X84915000Y-92117157D01*
X84840311Y-92124513D01*
X84768492Y-92146299D01*
X84730000Y-92166874D01*
X84691508Y-92146299D01*
X84619689Y-92124513D01*
X84545000Y-92117157D01*
X83645000Y-92117157D01*
X83570311Y-92124513D01*
X83498492Y-92146299D01*
X83460000Y-92166874D01*
X83421508Y-92146299D01*
X83349689Y-92124513D01*
X83275000Y-92117157D01*
X82375000Y-92117157D01*
X82300311Y-92124513D01*
X82228492Y-92146299D01*
X82190000Y-92166874D01*
X82151508Y-92146299D01*
X82079689Y-92124513D01*
X82005000Y-92117157D01*
X81105000Y-92117157D01*
X81030311Y-92124513D01*
X80958492Y-92146299D01*
X80920000Y-92166874D01*
X80881508Y-92146299D01*
X80809689Y-92124513D01*
X80735000Y-92117157D01*
X79835000Y-92117157D01*
X79760311Y-92124513D01*
X79688492Y-92146299D01*
X79650000Y-92166874D01*
X79611508Y-92146299D01*
X79539689Y-92124513D01*
X79465000Y-92117157D01*
X78565000Y-92117157D01*
X78490311Y-92124513D01*
X78418492Y-92146299D01*
X78352304Y-92181678D01*
X78294289Y-92229289D01*
X78246678Y-92287304D01*
X78211299Y-92353492D01*
X78189513Y-92425311D01*
X78182157Y-92500000D01*
X78182157Y-94500000D01*
X78189513Y-94574689D01*
X78211299Y-94646508D01*
X78246678Y-94712696D01*
X78294289Y-94770711D01*
X78352304Y-94818322D01*
X78418492Y-94853701D01*
X78490311Y-94875487D01*
X78565000Y-94882843D01*
X79465000Y-94882843D01*
X79539689Y-94875487D01*
X79611508Y-94853701D01*
X79650000Y-94833126D01*
X79688492Y-94853701D01*
X79760311Y-94875487D01*
X79835000Y-94882843D01*
X80735000Y-94882843D01*
X80809689Y-94875487D01*
X80881508Y-94853701D01*
X80920000Y-94833126D01*
X80958492Y-94853701D01*
X81030311Y-94875487D01*
X81049000Y-94877328D01*
X81049001Y-97135407D01*
X79759785Y-98424624D01*
X79740473Y-98440473D01*
X79677241Y-98517521D01*
X79630255Y-98605426D01*
X79601322Y-98700808D01*
X79594000Y-98775147D01*
X79594000Y-98775154D01*
X79591553Y-98800000D01*
X79594000Y-98824846D01*
X79594001Y-102642920D01*
X79571033Y-102665888D01*
X79496506Y-102777426D01*
X79445171Y-102901360D01*
X79419000Y-103032927D01*
X79419000Y-103167073D01*
X79445171Y-103298640D01*
X79496506Y-103422574D01*
X79571033Y-103534112D01*
X79665888Y-103628967D01*
X79777426Y-103703494D01*
X79901360Y-103754829D01*
X80032927Y-103781000D01*
X80167073Y-103781000D01*
X80298640Y-103754829D01*
X80422574Y-103703494D01*
X80534112Y-103628967D01*
X80628967Y-103534112D01*
X80703494Y-103422574D01*
X80754829Y-103298640D01*
X80781000Y-103167073D01*
X80781000Y-103032927D01*
X80770671Y-102981000D01*
X80867073Y-102981000D01*
X80998640Y-102954829D01*
X81122574Y-102903494D01*
X81234112Y-102828967D01*
X81328967Y-102734112D01*
X81403494Y-102622574D01*
X81454829Y-102498640D01*
X81481000Y-102367073D01*
X81481000Y-102232927D01*
X81454829Y-102101360D01*
X81403494Y-101977426D01*
X81328967Y-101865888D01*
X81234112Y-101771033D01*
X81206000Y-101752249D01*
X81206000Y-99409591D01*
X83165220Y-97450372D01*
X83184527Y-97434527D01*
X83247759Y-97357479D01*
X83294745Y-97269575D01*
X83323678Y-97174193D01*
X83331000Y-97099854D01*
X83333448Y-97075000D01*
X83331000Y-97050146D01*
X83331000Y-94877328D01*
X83349689Y-94875487D01*
X83421508Y-94853701D01*
X83460000Y-94833126D01*
X83498492Y-94853701D01*
X83570311Y-94875487D01*
X83589000Y-94877328D01*
X83589001Y-96447920D01*
X83566033Y-96470888D01*
X83491506Y-96582426D01*
X83440171Y-96706360D01*
X83414000Y-96837927D01*
X83414000Y-96972073D01*
X83440171Y-97103640D01*
X83491506Y-97227574D01*
X83566033Y-97339112D01*
X83660888Y-97433967D01*
X83772426Y-97508494D01*
X83896360Y-97559829D01*
X84027927Y-97586000D01*
X84162073Y-97586000D01*
X84293640Y-97559829D01*
X84417574Y-97508494D01*
X84529112Y-97433967D01*
X84623967Y-97339112D01*
X84642109Y-97311960D01*
X84646506Y-97322574D01*
X84721033Y-97434112D01*
X84815888Y-97528967D01*
X84927426Y-97603494D01*
X85051360Y-97654829D01*
X85182927Y-97681000D01*
X85317073Y-97681000D01*
X85448640Y-97654829D01*
X85572574Y-97603494D01*
X85684112Y-97528967D01*
X85778967Y-97434112D01*
X85853494Y-97322574D01*
X85904829Y-97198640D01*
X85931000Y-97067073D01*
X85931000Y-97034591D01*
X86975220Y-95990372D01*
X86994527Y-95974527D01*
X87057759Y-95897479D01*
X87104745Y-95809575D01*
X87114567Y-95777195D01*
X87133678Y-95714194D01*
X87136947Y-95681000D01*
X87141000Y-95639854D01*
X87141000Y-95639847D01*
X87143447Y-95615001D01*
X87141000Y-95590155D01*
X87141000Y-94877328D01*
X87159689Y-94875487D01*
X87231508Y-94853701D01*
X87270000Y-94833126D01*
X87308492Y-94853701D01*
X87380311Y-94875487D01*
X87399001Y-94877328D01*
X87399001Y-95885407D01*
X86715409Y-96569000D01*
X86682927Y-96569000D01*
X86551360Y-96595171D01*
X86427426Y-96646506D01*
X86315888Y-96721033D01*
X86221033Y-96815888D01*
X86146506Y-96927426D01*
X86095171Y-97051360D01*
X86069000Y-97182927D01*
X86069000Y-97317073D01*
X86095171Y-97448640D01*
X86146506Y-97572574D01*
X86221033Y-97684112D01*
X86315888Y-97778967D01*
X86427426Y-97853494D01*
X86551360Y-97904829D01*
X86682927Y-97931000D01*
X86817073Y-97931000D01*
X86948640Y-97904829D01*
X87072574Y-97853494D01*
X87184112Y-97778967D01*
X87278967Y-97684112D01*
X87353494Y-97572574D01*
X87404829Y-97448640D01*
X87431000Y-97317073D01*
X87431000Y-97284591D01*
X88245220Y-96470372D01*
X88264527Y-96454527D01*
X88327759Y-96377479D01*
X88374745Y-96289575D01*
X88378166Y-96278297D01*
X88396506Y-96322574D01*
X88471033Y-96434112D01*
X88565888Y-96528967D01*
X88677426Y-96603494D01*
X88679893Y-96604516D01*
X88465409Y-96819000D01*
X88432927Y-96819000D01*
X88301360Y-96845171D01*
X88177426Y-96896506D01*
X88065888Y-96971033D01*
X87971033Y-97065888D01*
X87896506Y-97177426D01*
X87845171Y-97301360D01*
X87819000Y-97432927D01*
X87819000Y-97567073D01*
X87845171Y-97698640D01*
X87896506Y-97822574D01*
X87971033Y-97934112D01*
X88065888Y-98028967D01*
X88177426Y-98103494D01*
X88301360Y-98154829D01*
X88432927Y-98181000D01*
X88567073Y-98181000D01*
X88698640Y-98154829D01*
X88822574Y-98103494D01*
X88934112Y-98028967D01*
X89028967Y-97934112D01*
X89077756Y-97861093D01*
X89095171Y-97948640D01*
X89146506Y-98072574D01*
X89221033Y-98184112D01*
X89315888Y-98278967D01*
X89427426Y-98353494D01*
X89551360Y-98404829D01*
X89682927Y-98431000D01*
X89817073Y-98431000D01*
X89948640Y-98404829D01*
X90072574Y-98353494D01*
X90184112Y-98278967D01*
X90278967Y-98184112D01*
X90353494Y-98072574D01*
X90404829Y-97948640D01*
X90431000Y-97817073D01*
X90431000Y-97784591D01*
X90645484Y-97570107D01*
X90646506Y-97572574D01*
X90721033Y-97684112D01*
X90815888Y-97778967D01*
X90927426Y-97853494D01*
X91051360Y-97904829D01*
X91182927Y-97931000D01*
X91317073Y-97931000D01*
X91448640Y-97904829D01*
X91572574Y-97853494D01*
X91684112Y-97778967D01*
X91778967Y-97684112D01*
X91853494Y-97572574D01*
X91904829Y-97448640D01*
X91931000Y-97317073D01*
X91931000Y-97284591D01*
X93244000Y-95971592D01*
X93244000Y-97780921D01*
X93184112Y-97721033D01*
X93072574Y-97646506D01*
X92948640Y-97595171D01*
X92817073Y-97569000D01*
X92682927Y-97569000D01*
X92551360Y-97595171D01*
X92427426Y-97646506D01*
X92315888Y-97721033D01*
X92221033Y-97815888D01*
X92146506Y-97927426D01*
X92095171Y-98051360D01*
X92069000Y-98182927D01*
X92069000Y-98317073D01*
X92095171Y-98448640D01*
X92146506Y-98572574D01*
X92191900Y-98640511D01*
X92177426Y-98646506D01*
X92065888Y-98721033D01*
X91971033Y-98815888D01*
X91896506Y-98927426D01*
X91845171Y-99051360D01*
X91819000Y-99182927D01*
X91819000Y-99215408D01*
X89409781Y-101624628D01*
X89390474Y-101640473D01*
X89327242Y-101717521D01*
X89309881Y-101750001D01*
X89280255Y-101805426D01*
X89251322Y-101900808D01*
X89241553Y-102000000D01*
X89244001Y-102024854D01*
X89244000Y-108290408D01*
X88834785Y-108699624D01*
X88815473Y-108715473D01*
X88752241Y-108792521D01*
X88705255Y-108880426D01*
X88681000Y-108960386D01*
X88681000Y-108932927D01*
X88654829Y-108801360D01*
X88603494Y-108677426D01*
X88528967Y-108565888D01*
X88434112Y-108471033D01*
X88322574Y-108396506D01*
X88198640Y-108345171D01*
X88067073Y-108319000D01*
X87932927Y-108319000D01*
X87801360Y-108345171D01*
X87677426Y-108396506D01*
X87565888Y-108471033D01*
X87471033Y-108565888D01*
X87396506Y-108677426D01*
X87345171Y-108801360D01*
X87319000Y-108932927D01*
X87319000Y-109067073D01*
X87333265Y-109138784D01*
X87308492Y-109146299D01*
X87270000Y-109166874D01*
X87231508Y-109146299D01*
X87159689Y-109124513D01*
X87085000Y-109117157D01*
X86185000Y-109117157D01*
X86110311Y-109124513D01*
X86038492Y-109146299D01*
X86000000Y-109166874D01*
X85961508Y-109146299D01*
X85889689Y-109124513D01*
X85815000Y-109117157D01*
X84915000Y-109117157D01*
X84840311Y-109124513D01*
X84776000Y-109144021D01*
X84776000Y-109027927D01*
X84749829Y-108896360D01*
X84698494Y-108772426D01*
X84623967Y-108660888D01*
X84529112Y-108566033D01*
X84417574Y-108491506D01*
X84293640Y-108440171D01*
X84162073Y-108414000D01*
X84027927Y-108414000D01*
X83896360Y-108440171D01*
X83772426Y-108491506D01*
X83660888Y-108566033D01*
X83566033Y-108660888D01*
X83491506Y-108772426D01*
X83440171Y-108896360D01*
X83414000Y-109027927D01*
X83414000Y-109144021D01*
X83349689Y-109124513D01*
X83331000Y-109122672D01*
X83331000Y-108134591D01*
X83609592Y-107856000D01*
X83642073Y-107856000D01*
X83773640Y-107829829D01*
X83897574Y-107778494D01*
X84009112Y-107703967D01*
X84103967Y-107609112D01*
X84178494Y-107497574D01*
X84229829Y-107373640D01*
X84256000Y-107242073D01*
X84256000Y-107107927D01*
X84229829Y-106976360D01*
X84178494Y-106852426D01*
X84103967Y-106740888D01*
X84009112Y-106646033D01*
X83897574Y-106571506D01*
X83773640Y-106520171D01*
X83642073Y-106494000D01*
X83507927Y-106494000D01*
X83376360Y-106520171D01*
X83252426Y-106571506D01*
X83140888Y-106646033D01*
X83046033Y-106740888D01*
X82971506Y-106852426D01*
X82920171Y-106976360D01*
X82894000Y-107107927D01*
X82894000Y-107140408D01*
X82484780Y-107549629D01*
X82465474Y-107565473D01*
X82402242Y-107642521D01*
X82377127Y-107689508D01*
X82355255Y-107730426D01*
X82326322Y-107825808D01*
X82316553Y-107925000D01*
X82319001Y-107949856D01*
X82319001Y-109122672D01*
X82300311Y-109124513D01*
X82228492Y-109146299D01*
X82190000Y-109166874D01*
X82151508Y-109146299D01*
X82079689Y-109124513D01*
X82005000Y-109117157D01*
X81105000Y-109117157D01*
X81030311Y-109124513D01*
X80958492Y-109146299D01*
X80920000Y-109166874D01*
X80881508Y-109146299D01*
X80809689Y-109124513D01*
X80735000Y-109117157D01*
X79835000Y-109117157D01*
X79796000Y-109120998D01*
X79796000Y-107916663D01*
X79862144Y-107756978D01*
X79896000Y-107586771D01*
X79896000Y-107413229D01*
X79862144Y-107243022D01*
X79795732Y-107082690D01*
X79699318Y-106938395D01*
X79576605Y-106815682D01*
X79432310Y-106719268D01*
X79271978Y-106652856D01*
X79101771Y-106619000D01*
X78928229Y-106619000D01*
X78758022Y-106652856D01*
X78597690Y-106719268D01*
X78453395Y-106815682D01*
X78330682Y-106938395D01*
X78234268Y-107082690D01*
X78167856Y-107243022D01*
X78134000Y-107413229D01*
X78134000Y-107586771D01*
X78167856Y-107756978D01*
X78234001Y-107916665D01*
X78234000Y-109311022D01*
X78211299Y-109353492D01*
X78189513Y-109425311D01*
X78182157Y-109500000D01*
X78182157Y-111500000D01*
X78189513Y-111574689D01*
X78211299Y-111646508D01*
X78219001Y-111660916D01*
X78219000Y-112784795D01*
X78191216Y-112876385D01*
X78179657Y-112993750D01*
X78179657Y-113506250D01*
X78191216Y-113623615D01*
X78225451Y-113736470D01*
X78281044Y-113840477D01*
X78355860Y-113931640D01*
X78406501Y-113973200D01*
X78406500Y-114476048D01*
X78364854Y-114553963D01*
X78329197Y-114671508D01*
X78317157Y-114793750D01*
X78317157Y-115706250D01*
X78329197Y-115828492D01*
X78364854Y-115946037D01*
X78422757Y-116054366D01*
X78500682Y-116149318D01*
X78595634Y-116227243D01*
X78703963Y-116285146D01*
X78821508Y-116320803D01*
X78943750Y-116332843D01*
X79431250Y-116332843D01*
X79553492Y-116320803D01*
X79671037Y-116285146D01*
X79725565Y-116256000D01*
X81475146Y-116256000D01*
X81500000Y-116258448D01*
X81524854Y-116256000D01*
X85109411Y-116256000D01*
X85636737Y-116783326D01*
X85470931Y-116816307D01*
X85246903Y-116909102D01*
X85045283Y-117043820D01*
X84873820Y-117215283D01*
X84739102Y-117416903D01*
X84646307Y-117640931D01*
X84599000Y-117878757D01*
X84599000Y-118121243D01*
X84646307Y-118359069D01*
X84739102Y-118583097D01*
X84873820Y-118784717D01*
X85045283Y-118956180D01*
X85246903Y-119090898D01*
X85470931Y-119183693D01*
X85708757Y-119231000D01*
X85951243Y-119231000D01*
X86189069Y-119183693D01*
X86413097Y-119090898D01*
X86614717Y-118956180D01*
X86682279Y-118888618D01*
X86740473Y-118959527D01*
X86759785Y-118975376D01*
X87378408Y-119594000D01*
X76127000Y-119594000D01*
X76127000Y-117878757D01*
X82059000Y-117878757D01*
X82059000Y-118121243D01*
X82106307Y-118359069D01*
X82199102Y-118583097D01*
X82333820Y-118784717D01*
X82505283Y-118956180D01*
X82706903Y-119090898D01*
X82930931Y-119183693D01*
X83168757Y-119231000D01*
X83411243Y-119231000D01*
X83649069Y-119183693D01*
X83873097Y-119090898D01*
X84074717Y-118956180D01*
X84246180Y-118784717D01*
X84380898Y-118583097D01*
X84473693Y-118359069D01*
X84521000Y-118121243D01*
X84521000Y-117878757D01*
X84473693Y-117640931D01*
X84380898Y-117416903D01*
X84246180Y-117215283D01*
X84074717Y-117043820D01*
X83873097Y-116909102D01*
X83649069Y-116816307D01*
X83411243Y-116769000D01*
X83168757Y-116769000D01*
X82930931Y-116816307D01*
X82706903Y-116909102D01*
X82505283Y-117043820D01*
X82333820Y-117215283D01*
X82199102Y-117416903D01*
X82106307Y-117640931D01*
X82059000Y-117878757D01*
X76127000Y-117878757D01*
X76127000Y-90406000D01*
X134594000Y-90406000D01*
X134594001Y-119594000D01*
G37*
X134594001Y-119594000D02*
X101291591Y-119594000D01*
X101733833Y-119151758D01*
X101810931Y-119183693D01*
X102048757Y-119231000D01*
X102291243Y-119231000D01*
X102529069Y-119183693D01*
X102753097Y-119090898D01*
X102954717Y-118956180D01*
X103126180Y-118784717D01*
X103260898Y-118583097D01*
X103353693Y-118359069D01*
X103401000Y-118121243D01*
X103401000Y-117878757D01*
X103353693Y-117640931D01*
X103334822Y-117595372D01*
X103350904Y-117603968D01*
X103380422Y-117619746D01*
X103475803Y-117648679D01*
X103485691Y-117649653D01*
X103523825Y-117653409D01*
X103479000Y-117878757D01*
X103479000Y-118121243D01*
X103526307Y-118359069D01*
X103619102Y-118583097D01*
X103753820Y-118784717D01*
X103925283Y-118956180D01*
X104126903Y-119090898D01*
X104350931Y-119183693D01*
X104588757Y-119231000D01*
X104831243Y-119231000D01*
X105069069Y-119183693D01*
X105293097Y-119090898D01*
X105494717Y-118956180D01*
X105666180Y-118784717D01*
X105800898Y-118583097D01*
X105893693Y-118359069D01*
X105941000Y-118121243D01*
X105941000Y-117878757D01*
X105893693Y-117640931D01*
X105800898Y-117416903D01*
X105666180Y-117215283D01*
X105494717Y-117043820D01*
X105441001Y-117007928D01*
X109943999Y-117007928D01*
X109943999Y-117142074D01*
X109970170Y-117273641D01*
X110021505Y-117397575D01*
X110096032Y-117509113D01*
X110190887Y-117603968D01*
X110302425Y-117678495D01*
X110426359Y-117729830D01*
X110557926Y-117756001D01*
X110692072Y-117756001D01*
X110823639Y-117729830D01*
X110947573Y-117678495D01*
X111059111Y-117603968D01*
X111085599Y-117577480D01*
X111124192Y-117573679D01*
X111219574Y-117544746D01*
X111307478Y-117497760D01*
X111384526Y-117434528D01*
X111400375Y-117415216D01*
X112234592Y-116581000D01*
X112267073Y-116581000D01*
X112398640Y-116554829D01*
X112522574Y-116503494D01*
X112634112Y-116428967D01*
X112728967Y-116334112D01*
X112803494Y-116222574D01*
X112854829Y-116098640D01*
X112881000Y-115967073D01*
X112881000Y-115832927D01*
X112854829Y-115701360D01*
X112803494Y-115577426D01*
X112728967Y-115465888D01*
X112634112Y-115371033D01*
X112522574Y-115296506D01*
X112398640Y-115245171D01*
X112267073Y-115219000D01*
X112132927Y-115219000D01*
X112001360Y-115245171D01*
X111877426Y-115296506D01*
X111765888Y-115371033D01*
X111671033Y-115465888D01*
X111596506Y-115577426D01*
X111545171Y-115701360D01*
X111519000Y-115832927D01*
X111519000Y-115865408D01*
X110923057Y-116461352D01*
X110823639Y-116420172D01*
X110692072Y-116394001D01*
X110557926Y-116394001D01*
X110426359Y-116420172D01*
X110302425Y-116471507D01*
X110190887Y-116546034D01*
X110096032Y-116640889D01*
X110021505Y-116752427D01*
X109970170Y-116876361D01*
X109943999Y-117007928D01*
X105441001Y-117007928D01*
X105293097Y-116909102D01*
X105069069Y-116816307D01*
X104831243Y-116769000D01*
X104588757Y-116769000D01*
X104350931Y-116816307D01*
X104273833Y-116848242D01*
X104235377Y-116809786D01*
X104219528Y-116790474D01*
X104142480Y-116727242D01*
X104054576Y-116680256D01*
X103959194Y-116651323D01*
X103884855Y-116644001D01*
X103884847Y-116644001D01*
X103860001Y-116641554D01*
X103835155Y-116644001D01*
X103784589Y-116644001D01*
X101308515Y-114167927D01*
X102834000Y-114167927D01*
X102834000Y-114302073D01*
X102860171Y-114433640D01*
X102911506Y-114557574D01*
X102986033Y-114669112D01*
X103080888Y-114763967D01*
X103192426Y-114838494D01*
X103316360Y-114889829D01*
X103447927Y-114916000D01*
X103582073Y-114916000D01*
X103713640Y-114889829D01*
X103837574Y-114838494D01*
X103949112Y-114763967D01*
X104043967Y-114669112D01*
X104118494Y-114557574D01*
X104169829Y-114433640D01*
X104196000Y-114302073D01*
X104196000Y-114167927D01*
X104169829Y-114036360D01*
X104118494Y-113912426D01*
X104043967Y-113800888D01*
X104021000Y-113777921D01*
X104021000Y-113694591D01*
X106809592Y-110906000D01*
X110075154Y-110906000D01*
X110100000Y-110908447D01*
X110124846Y-110906000D01*
X110124854Y-110906000D01*
X110199193Y-110898678D01*
X110294575Y-110869745D01*
X110382479Y-110822759D01*
X110459527Y-110759527D01*
X110475376Y-110740215D01*
X111134592Y-110081000D01*
X111167073Y-110081000D01*
X111298640Y-110054829D01*
X111422574Y-110003494D01*
X111534112Y-109928967D01*
X111628967Y-109834112D01*
X111703494Y-109722574D01*
X111754829Y-109598640D01*
X111781000Y-109467073D01*
X111781000Y-109332927D01*
X111754829Y-109201360D01*
X111703494Y-109077426D01*
X111628967Y-108965888D01*
X111534112Y-108871033D01*
X111422574Y-108796506D01*
X111298640Y-108745171D01*
X111167073Y-108719000D01*
X111032927Y-108719000D01*
X110901360Y-108745171D01*
X110777426Y-108796506D01*
X110665888Y-108871033D01*
X110571033Y-108965888D01*
X110496506Y-109077426D01*
X110445171Y-109201360D01*
X110419000Y-109332927D01*
X110419000Y-109365408D01*
X109890409Y-109894000D01*
X106624854Y-109894000D01*
X106600000Y-109891552D01*
X106575146Y-109894000D01*
X106500807Y-109901322D01*
X106405425Y-109930255D01*
X106317521Y-109977241D01*
X106240473Y-110040473D01*
X106224629Y-110059779D01*
X103174781Y-113109628D01*
X103155474Y-113125473D01*
X103092242Y-113202521D01*
X103070071Y-113244000D01*
X103045255Y-113290426D01*
X103016322Y-113385808D01*
X103006553Y-113485000D01*
X103009001Y-113509856D01*
X103009001Y-113777920D01*
X102986033Y-113800888D01*
X102911506Y-113912426D01*
X102860171Y-114036360D01*
X102834000Y-114167927D01*
X101308515Y-114167927D01*
X99117073Y-111976485D01*
X99172574Y-111953496D01*
X99284112Y-111878969D01*
X99378967Y-111784114D01*
X99453494Y-111672576D01*
X99504829Y-111548642D01*
X99531000Y-111417075D01*
X99531000Y-111384593D01*
X103659594Y-107256000D01*
X111208425Y-107256000D01*
X111242491Y-107297509D01*
X111322857Y-107363464D01*
X111414547Y-107412473D01*
X111514035Y-107442653D01*
X111617500Y-107452843D01*
X111912500Y-107452843D01*
X112015965Y-107442653D01*
X112115453Y-107412473D01*
X112207143Y-107363464D01*
X112250000Y-107328292D01*
X112292857Y-107363464D01*
X112384547Y-107412473D01*
X112484035Y-107442653D01*
X112587500Y-107452843D01*
X112882500Y-107452843D01*
X112985965Y-107442653D01*
X113085453Y-107412473D01*
X113177143Y-107363464D01*
X113257509Y-107297509D01*
X113291575Y-107256000D01*
X114040409Y-107256000D01*
X118074628Y-111290220D01*
X118090473Y-111309527D01*
X118167521Y-111372759D01*
X118255425Y-111419745D01*
X118350807Y-111448678D01*
X118419001Y-111455395D01*
X118419000Y-112041021D01*
X118396299Y-112083492D01*
X118374513Y-112155311D01*
X118367157Y-112230000D01*
X118367157Y-113680000D01*
X118372496Y-113734208D01*
X118275584Y-113774351D01*
X118159951Y-113851614D01*
X118061614Y-113949951D01*
X117984351Y-114065584D01*
X117931131Y-114194067D01*
X117904000Y-114330465D01*
X117904000Y-114469535D01*
X117931131Y-114605933D01*
X117984351Y-114734416D01*
X118061614Y-114850049D01*
X118159951Y-114948386D01*
X118275584Y-115025649D01*
X118404067Y-115078869D01*
X118540465Y-115106000D01*
X118679535Y-115106000D01*
X118815933Y-115078869D01*
X118944416Y-115025649D01*
X118994001Y-114992518D01*
X118994001Y-115042920D01*
X118971033Y-115065888D01*
X118896506Y-115177426D01*
X118845171Y-115301360D01*
X118819000Y-115432927D01*
X118819000Y-115567073D01*
X118845171Y-115698640D01*
X118896506Y-115822574D01*
X118971033Y-115934112D01*
X119065888Y-116028967D01*
X119177426Y-116103494D01*
X119301360Y-116154829D01*
X119432927Y-116181000D01*
X119567073Y-116181000D01*
X119698640Y-116154829D01*
X119822574Y-116103494D01*
X119934112Y-116028967D01*
X120028967Y-115934112D01*
X120103494Y-115822574D01*
X120154829Y-115698640D01*
X120181000Y-115567073D01*
X120181000Y-115448757D01*
X131769000Y-115448757D01*
X131769000Y-115691243D01*
X131816307Y-115929069D01*
X131909102Y-116153097D01*
X132043820Y-116354717D01*
X132215283Y-116526180D01*
X132416903Y-116660898D01*
X132640931Y-116753693D01*
X132878757Y-116801000D01*
X133121243Y-116801000D01*
X133359069Y-116753693D01*
X133583097Y-116660898D01*
X133784717Y-116526180D01*
X133956180Y-116354717D01*
X134090898Y-116153097D01*
X134183693Y-115929069D01*
X134231000Y-115691243D01*
X134231000Y-115448757D01*
X134183693Y-115210931D01*
X134090898Y-114986903D01*
X133956180Y-114785283D01*
X133784717Y-114613820D01*
X133583097Y-114479102D01*
X133359069Y-114386307D01*
X133121243Y-114339000D01*
X132878757Y-114339000D01*
X132640931Y-114386307D01*
X132416903Y-114479102D01*
X132215283Y-114613820D01*
X132043820Y-114785283D01*
X131909102Y-114986903D01*
X131816307Y-115210931D01*
X131769000Y-115448757D01*
X120181000Y-115448757D01*
X120181000Y-115432927D01*
X120154829Y-115301360D01*
X120103494Y-115177426D01*
X120028967Y-115065888D01*
X120006000Y-115042921D01*
X120006000Y-114352843D01*
X120008447Y-114327997D01*
X120006000Y-114303151D01*
X120006000Y-114303144D01*
X119998678Y-114228805D01*
X119995930Y-114219744D01*
X119969745Y-114133423D01*
X119930418Y-114059847D01*
X119974689Y-114055487D01*
X120000000Y-114047809D01*
X120025311Y-114055487D01*
X120100000Y-114062843D01*
X120266079Y-114062843D01*
X120280255Y-114109576D01*
X120302127Y-114150494D01*
X120327242Y-114197481D01*
X120390474Y-114274529D01*
X120409781Y-114290374D01*
X120709622Y-114590215D01*
X120725471Y-114609527D01*
X120802519Y-114672759D01*
X120890423Y-114719745D01*
X120985805Y-114748678D01*
X121084998Y-114758448D01*
X121109852Y-114756000D01*
X121440154Y-114756000D01*
X121465000Y-114758447D01*
X121489846Y-114756000D01*
X121489854Y-114756000D01*
X121564193Y-114748678D01*
X121659575Y-114719745D01*
X121747479Y-114672759D01*
X121824527Y-114609527D01*
X121840376Y-114590215D01*
X122090215Y-114340376D01*
X122109527Y-114324527D01*
X122172759Y-114247479D01*
X122219745Y-114159575D01*
X122248678Y-114064193D01*
X122248811Y-114062843D01*
X122400000Y-114062843D01*
X122474689Y-114055487D01*
X122500000Y-114047809D01*
X122525311Y-114055487D01*
X122600000Y-114062843D01*
X122900000Y-114062843D01*
X122974689Y-114055487D01*
X123000000Y-114047809D01*
X123025311Y-114055487D01*
X123100000Y-114062843D01*
X123400000Y-114062843D01*
X123474689Y-114055487D01*
X123525000Y-114040225D01*
X123575311Y-114055487D01*
X123650000Y-114062843D01*
X123766182Y-114062843D01*
X123764351Y-114065584D01*
X123711131Y-114194067D01*
X123684000Y-114330465D01*
X123684000Y-114469535D01*
X123711131Y-114605933D01*
X123764351Y-114734416D01*
X123841614Y-114850049D01*
X123939951Y-114948386D01*
X124055584Y-115025649D01*
X124184067Y-115078869D01*
X124320465Y-115106000D01*
X124459535Y-115106000D01*
X124595933Y-115078869D01*
X124724416Y-115025649D01*
X124840049Y-114948386D01*
X124938386Y-114850049D01*
X125015649Y-114734416D01*
X125068869Y-114605933D01*
X125096000Y-114469535D01*
X125096000Y-114330465D01*
X125068869Y-114194067D01*
X125015649Y-114065584D01*
X124938386Y-113949951D01*
X124840049Y-113851614D01*
X124724416Y-113774351D01*
X124627504Y-113734208D01*
X124632843Y-113680000D01*
X124632843Y-112908757D01*
X131769000Y-112908757D01*
X131769000Y-113151243D01*
X131816307Y-113389069D01*
X131909102Y-113613097D01*
X132043820Y-113814717D01*
X132215283Y-113986180D01*
X132416903Y-114120898D01*
X132640931Y-114213693D01*
X132878757Y-114261000D01*
X133121243Y-114261000D01*
X133359069Y-114213693D01*
X133583097Y-114120898D01*
X133784717Y-113986180D01*
X133956180Y-113814717D01*
X134090898Y-113613097D01*
X134183693Y-113389069D01*
X134231000Y-113151243D01*
X134231000Y-112908757D01*
X134183693Y-112670931D01*
X134090898Y-112446903D01*
X133956180Y-112245283D01*
X133784717Y-112073820D01*
X133583097Y-111939102D01*
X133359069Y-111846307D01*
X133121243Y-111799000D01*
X132878757Y-111799000D01*
X132640931Y-111846307D01*
X132416903Y-111939102D01*
X132215283Y-112073820D01*
X132043820Y-112245283D01*
X131909102Y-112446903D01*
X131816307Y-112670931D01*
X131769000Y-112908757D01*
X124632843Y-112908757D01*
X124632843Y-112230000D01*
X124625487Y-112155311D01*
X124603701Y-112083492D01*
X124581000Y-112041022D01*
X124581000Y-110881000D01*
X126219010Y-110881000D01*
X126250000Y-110884052D01*
X126280990Y-110881000D01*
X126280998Y-110881000D01*
X126373698Y-110871870D01*
X126492642Y-110835789D01*
X126602261Y-110777196D01*
X126698343Y-110698343D01*
X126718105Y-110674263D01*
X127023611Y-110368757D01*
X131769000Y-110368757D01*
X131769000Y-110611243D01*
X131816307Y-110849069D01*
X131909102Y-111073097D01*
X132043820Y-111274717D01*
X132215283Y-111446180D01*
X132416903Y-111580898D01*
X132640931Y-111673693D01*
X132878757Y-111721000D01*
X133121243Y-111721000D01*
X133359069Y-111673693D01*
X133583097Y-111580898D01*
X133784717Y-111446180D01*
X133956180Y-111274717D01*
X134090898Y-111073097D01*
X134183693Y-110849069D01*
X134231000Y-110611243D01*
X134231000Y-110368757D01*
X134183693Y-110130931D01*
X134090898Y-109906903D01*
X133956180Y-109705283D01*
X133784717Y-109533820D01*
X133583097Y-109399102D01*
X133359069Y-109306307D01*
X133121243Y-109259000D01*
X132878757Y-109259000D01*
X132640931Y-109306307D01*
X132416903Y-109399102D01*
X132215283Y-109533820D01*
X132043820Y-109705283D01*
X131909102Y-109906903D01*
X131816307Y-110130931D01*
X131769000Y-110368757D01*
X127023611Y-110368757D01*
X127674269Y-109718100D01*
X127698343Y-109698343D01*
X127734055Y-109654829D01*
X127777196Y-109602261D01*
X127835789Y-109492642D01*
X127871870Y-109373698D01*
X127884053Y-109250000D01*
X127881000Y-109219002D01*
X127881000Y-107828757D01*
X131769000Y-107828757D01*
X131769000Y-108071243D01*
X131816307Y-108309069D01*
X131909102Y-108533097D01*
X132043820Y-108734717D01*
X132215283Y-108906180D01*
X132416903Y-109040898D01*
X132640931Y-109133693D01*
X132878757Y-109181000D01*
X133121243Y-109181000D01*
X133359069Y-109133693D01*
X133583097Y-109040898D01*
X133784717Y-108906180D01*
X133956180Y-108734717D01*
X134090898Y-108533097D01*
X134183693Y-108309069D01*
X134231000Y-108071243D01*
X134231000Y-107828757D01*
X134183693Y-107590931D01*
X134090898Y-107366903D01*
X133956180Y-107165283D01*
X133784717Y-106993820D01*
X133583097Y-106859102D01*
X133359069Y-106766307D01*
X133121243Y-106719000D01*
X132878757Y-106719000D01*
X132640931Y-106766307D01*
X132416903Y-106859102D01*
X132215283Y-106993820D01*
X132043820Y-107165283D01*
X131909102Y-107366903D01*
X131816307Y-107590931D01*
X131769000Y-107828757D01*
X127881000Y-107828757D01*
X127881000Y-105288757D01*
X131769000Y-105288757D01*
X131769000Y-105531243D01*
X131816307Y-105769069D01*
X131909102Y-105993097D01*
X132043820Y-106194717D01*
X132215283Y-106366180D01*
X132416903Y-106500898D01*
X132640931Y-106593693D01*
X132878757Y-106641000D01*
X133121243Y-106641000D01*
X133359069Y-106593693D01*
X133583097Y-106500898D01*
X133784717Y-106366180D01*
X133956180Y-106194717D01*
X134090898Y-105993097D01*
X134183693Y-105769069D01*
X134231000Y-105531243D01*
X134231000Y-105288757D01*
X134183693Y-105050931D01*
X134090898Y-104826903D01*
X133956180Y-104625283D01*
X133784717Y-104453820D01*
X133583097Y-104319102D01*
X133359069Y-104226307D01*
X133121243Y-104179000D01*
X132878757Y-104179000D01*
X132640931Y-104226307D01*
X132416903Y-104319102D01*
X132215283Y-104453820D01*
X132043820Y-104625283D01*
X131909102Y-104826903D01*
X131816307Y-105050931D01*
X131769000Y-105288757D01*
X127881000Y-105288757D01*
X127881000Y-103030987D01*
X127884052Y-102999999D01*
X127881000Y-102969011D01*
X127881000Y-102969002D01*
X127871870Y-102876302D01*
X127835789Y-102757358D01*
X127831192Y-102748757D01*
X131769000Y-102748757D01*
X131769000Y-102991243D01*
X131816307Y-103229069D01*
X131909102Y-103453097D01*
X132043820Y-103654717D01*
X132215283Y-103826180D01*
X132416903Y-103960898D01*
X132640931Y-104053693D01*
X132878757Y-104101000D01*
X133121243Y-104101000D01*
X133359069Y-104053693D01*
X133583097Y-103960898D01*
X133784717Y-103826180D01*
X133956180Y-103654717D01*
X134090898Y-103453097D01*
X134183693Y-103229069D01*
X134231000Y-102991243D01*
X134231000Y-102748757D01*
X134183693Y-102510931D01*
X134090898Y-102286903D01*
X133956180Y-102085283D01*
X133784717Y-101913820D01*
X133583097Y-101779102D01*
X133359069Y-101686307D01*
X133121243Y-101639000D01*
X132878757Y-101639000D01*
X132640931Y-101686307D01*
X132416903Y-101779102D01*
X132215283Y-101913820D01*
X132043820Y-102085283D01*
X131909102Y-102286903D01*
X131816307Y-102510931D01*
X131769000Y-102748757D01*
X127831192Y-102748757D01*
X127777196Y-102647739D01*
X127756695Y-102622759D01*
X127718103Y-102575734D01*
X127718101Y-102575732D01*
X127698343Y-102551657D01*
X127674268Y-102531899D01*
X126968105Y-101825737D01*
X126948343Y-101801657D01*
X126852261Y-101722804D01*
X126742642Y-101664211D01*
X126623698Y-101628130D01*
X126530998Y-101619000D01*
X126530990Y-101619000D01*
X126506000Y-101616539D01*
X126506000Y-100208757D01*
X131769000Y-100208757D01*
X131769000Y-100451243D01*
X131816307Y-100689069D01*
X131909102Y-100913097D01*
X132043820Y-101114717D01*
X132215283Y-101286180D01*
X132416903Y-101420898D01*
X132640931Y-101513693D01*
X132878757Y-101561000D01*
X133121243Y-101561000D01*
X133359069Y-101513693D01*
X133583097Y-101420898D01*
X133784717Y-101286180D01*
X133956180Y-101114717D01*
X134090898Y-100913097D01*
X134183693Y-100689069D01*
X134231000Y-100451243D01*
X134231000Y-100208757D01*
X134183693Y-99970931D01*
X134090898Y-99746903D01*
X133956180Y-99545283D01*
X133784717Y-99373820D01*
X133583097Y-99239102D01*
X133359069Y-99146307D01*
X133121243Y-99099000D01*
X132878757Y-99099000D01*
X132640931Y-99146307D01*
X132416903Y-99239102D01*
X132215283Y-99373820D01*
X132043820Y-99545283D01*
X131909102Y-99746903D01*
X131816307Y-99970931D01*
X131769000Y-100208757D01*
X126506000Y-100208757D01*
X126506000Y-99041575D01*
X126547509Y-99007509D01*
X126613464Y-98927143D01*
X126662473Y-98835453D01*
X126692653Y-98735965D01*
X126702843Y-98632500D01*
X126702843Y-98337500D01*
X126692653Y-98234035D01*
X126662473Y-98134547D01*
X126613464Y-98042857D01*
X126578292Y-98000000D01*
X126613464Y-97957143D01*
X126662473Y-97865453D01*
X126692653Y-97765965D01*
X126702843Y-97662500D01*
X126702843Y-97367500D01*
X126692653Y-97264035D01*
X126662473Y-97164547D01*
X126613464Y-97072857D01*
X126547509Y-96992491D01*
X126506000Y-96958425D01*
X126506000Y-96709591D01*
X128815591Y-94400000D01*
X131767157Y-94400000D01*
X131767157Y-96100000D01*
X131774513Y-96174689D01*
X131796299Y-96246508D01*
X131831678Y-96312696D01*
X131879289Y-96370711D01*
X131937304Y-96418322D01*
X132003492Y-96453701D01*
X132075311Y-96475487D01*
X132150000Y-96482843D01*
X133850000Y-96482843D01*
X133924689Y-96475487D01*
X133996508Y-96453701D01*
X134062696Y-96418322D01*
X134120711Y-96370711D01*
X134168322Y-96312696D01*
X134203701Y-96246508D01*
X134225487Y-96174689D01*
X134232843Y-96100000D01*
X134232843Y-94400000D01*
X134225487Y-94325311D01*
X134203701Y-94253492D01*
X134168322Y-94187304D01*
X134120711Y-94129289D01*
X134062696Y-94081678D01*
X133996508Y-94046299D01*
X133924689Y-94024513D01*
X133850000Y-94017157D01*
X132150000Y-94017157D01*
X132075311Y-94024513D01*
X132003492Y-94046299D01*
X131937304Y-94081678D01*
X131879289Y-94129289D01*
X131831678Y-94187304D01*
X131796299Y-94253492D01*
X131774513Y-94325311D01*
X131767157Y-94400000D01*
X128815591Y-94400000D01*
X129127720Y-94087872D01*
X129147027Y-94072027D01*
X129210259Y-93994979D01*
X129257245Y-93907075D01*
X129286178Y-93811693D01*
X129293500Y-93737354D01*
X129293500Y-93737347D01*
X129295947Y-93712501D01*
X129293500Y-93687655D01*
X129293500Y-92281566D01*
X129340477Y-92256456D01*
X129431640Y-92181640D01*
X129506456Y-92090477D01*
X129562049Y-91986470D01*
X129596284Y-91873615D01*
X129607843Y-91756250D01*
X129607843Y-91243750D01*
X129596284Y-91126385D01*
X129562049Y-91013530D01*
X129506456Y-90909523D01*
X129431640Y-90818360D01*
X129340477Y-90743544D01*
X129236470Y-90687951D01*
X129123615Y-90653716D01*
X129006250Y-90642157D01*
X128568750Y-90642157D01*
X128451385Y-90653716D01*
X128338530Y-90687951D01*
X128234523Y-90743544D01*
X128143360Y-90818360D01*
X128068544Y-90909523D01*
X128012951Y-91013530D01*
X128000000Y-91056223D01*
X127987049Y-91013530D01*
X127931456Y-90909523D01*
X127856640Y-90818360D01*
X127765477Y-90743544D01*
X127661470Y-90687951D01*
X127548615Y-90653716D01*
X127431250Y-90642157D01*
X126993750Y-90642157D01*
X126876385Y-90653716D01*
X126763530Y-90687951D01*
X126659523Y-90743544D01*
X126568360Y-90818360D01*
X126493544Y-90909523D01*
X126437951Y-91013530D01*
X126403716Y-91126385D01*
X126392157Y-91243750D01*
X126392157Y-91756250D01*
X126403716Y-91873615D01*
X126437951Y-91986470D01*
X126493544Y-92090477D01*
X126568360Y-92181640D01*
X126659523Y-92256456D01*
X126706500Y-92281566D01*
X126706501Y-94327907D01*
X124965409Y-96069000D01*
X124932927Y-96069000D01*
X124801360Y-96095171D01*
X124677426Y-96146506D01*
X124565888Y-96221033D01*
X124471033Y-96315888D01*
X124396506Y-96427426D01*
X124345171Y-96551360D01*
X124319000Y-96682927D01*
X124319000Y-96817073D01*
X124324407Y-96844256D01*
X124295711Y-96809289D01*
X124237696Y-96761678D01*
X124171508Y-96726299D01*
X124099689Y-96704513D01*
X124025000Y-96697157D01*
X123375000Y-96697157D01*
X123300311Y-96704513D01*
X123228492Y-96726299D01*
X123162304Y-96761678D01*
X123104289Y-96809289D01*
X123056678Y-96867304D01*
X123021299Y-96933492D01*
X122999513Y-97005311D01*
X122992157Y-97080000D01*
X122992157Y-98300000D01*
X122999513Y-98374689D01*
X123021299Y-98446508D01*
X123056678Y-98512696D01*
X123104289Y-98570711D01*
X123162304Y-98618322D01*
X123228492Y-98653701D01*
X123300311Y-98675487D01*
X123375000Y-98682843D01*
X124025000Y-98682843D01*
X124099689Y-98675487D01*
X124171508Y-98653701D01*
X124237696Y-98618322D01*
X124295711Y-98570711D01*
X124297157Y-98568949D01*
X124297157Y-98632500D01*
X124307347Y-98735965D01*
X124337527Y-98835453D01*
X124386536Y-98927143D01*
X124452491Y-99007509D01*
X124532857Y-99073464D01*
X124624547Y-99122473D01*
X124724035Y-99152653D01*
X124827500Y-99162843D01*
X125172500Y-99162843D01*
X125275965Y-99152653D01*
X125375453Y-99122473D01*
X125467143Y-99073464D01*
X125494000Y-99051423D01*
X125494000Y-100168577D01*
X125467143Y-100146536D01*
X125375453Y-100097527D01*
X125275965Y-100067347D01*
X125172500Y-100057157D01*
X124827500Y-100057157D01*
X124724035Y-100067347D01*
X124624547Y-100097527D01*
X124532857Y-100146536D01*
X124452491Y-100212491D01*
X124438942Y-100229000D01*
X124407843Y-100229000D01*
X124407843Y-99700000D01*
X124400487Y-99625311D01*
X124378701Y-99553492D01*
X124343322Y-99487304D01*
X124295711Y-99429289D01*
X124237696Y-99381678D01*
X124171508Y-99346299D01*
X124099689Y-99324513D01*
X124025000Y-99317157D01*
X123375000Y-99317157D01*
X123300311Y-99324513D01*
X123228492Y-99346299D01*
X123162304Y-99381678D01*
X123104289Y-99429289D01*
X123056678Y-99487304D01*
X123021299Y-99553492D01*
X122999513Y-99625311D01*
X122992157Y-99700000D01*
X122992157Y-100920000D01*
X122999513Y-100994689D01*
X123021299Y-101066508D01*
X123056678Y-101132696D01*
X123104289Y-101190711D01*
X123162304Y-101238322D01*
X123228492Y-101273701D01*
X123300311Y-101295487D01*
X123375000Y-101302843D01*
X124025000Y-101302843D01*
X124099689Y-101295487D01*
X124171508Y-101273701D01*
X124232686Y-101241000D01*
X124438942Y-101241000D01*
X124452491Y-101257509D01*
X124532857Y-101323464D01*
X124624547Y-101372473D01*
X124724035Y-101402653D01*
X124827500Y-101412843D01*
X125172500Y-101412843D01*
X125275965Y-101402653D01*
X125375453Y-101372473D01*
X125467143Y-101323464D01*
X125494001Y-101301422D01*
X125494001Y-101619000D01*
X123261369Y-101619000D01*
X122507843Y-100865475D01*
X122507843Y-99700000D01*
X122500487Y-99625311D01*
X122478701Y-99553492D01*
X122443322Y-99487304D01*
X122395711Y-99429289D01*
X122337696Y-99381678D01*
X122271508Y-99346299D01*
X122199689Y-99324513D01*
X122125000Y-99317157D01*
X121475000Y-99317157D01*
X121400311Y-99324513D01*
X121328492Y-99346299D01*
X121262304Y-99381678D01*
X121204289Y-99429289D01*
X121156678Y-99487304D01*
X121121299Y-99553492D01*
X121120387Y-99556500D01*
X120817944Y-99556500D01*
X120736470Y-99512951D01*
X120623615Y-99478716D01*
X120506250Y-99467157D01*
X119993750Y-99467157D01*
X119876385Y-99478716D01*
X119763530Y-99512951D01*
X119682056Y-99556500D01*
X119445127Y-99556500D01*
X119399318Y-99500682D01*
X119304366Y-99422757D01*
X119196037Y-99364854D01*
X119078492Y-99329197D01*
X118956250Y-99317157D01*
X118043750Y-99317157D01*
X117921508Y-99329197D01*
X117803963Y-99364854D01*
X117695634Y-99422757D01*
X117681000Y-99434767D01*
X117681000Y-99432927D01*
X117654829Y-99301360D01*
X117603494Y-99177426D01*
X117528967Y-99065888D01*
X117434112Y-98971033D01*
X117322574Y-98896506D01*
X117198640Y-98845171D01*
X117067073Y-98819000D01*
X116932927Y-98819000D01*
X116801360Y-98845171D01*
X116677426Y-98896506D01*
X116606000Y-98944231D01*
X116606000Y-97251013D01*
X118001013Y-95856000D01*
X121006283Y-95856000D01*
X121068360Y-95931640D01*
X121081500Y-95942424D01*
X121081501Y-97571500D01*
X121078448Y-97602500D01*
X121090630Y-97726197D01*
X121092157Y-97731231D01*
X121092157Y-98300000D01*
X121099513Y-98374689D01*
X121121299Y-98446508D01*
X121156678Y-98512696D01*
X121204289Y-98570711D01*
X121262304Y-98618322D01*
X121328492Y-98653701D01*
X121400311Y-98675487D01*
X121475000Y-98682843D01*
X122125000Y-98682843D01*
X122199689Y-98675487D01*
X122271508Y-98653701D01*
X122337696Y-98618322D01*
X122395711Y-98570711D01*
X122443322Y-98512696D01*
X122478701Y-98446508D01*
X122500487Y-98374689D01*
X122507843Y-98300000D01*
X122507843Y-97080000D01*
X122500487Y-97005311D01*
X122478701Y-96933492D01*
X122443322Y-96867304D01*
X122395711Y-96809289D01*
X122343500Y-96766441D01*
X122343500Y-95942424D01*
X122356640Y-95931640D01*
X122431456Y-95840477D01*
X122487049Y-95736470D01*
X122521284Y-95623615D01*
X122532843Y-95506250D01*
X122532843Y-94993750D01*
X122521284Y-94876385D01*
X122487049Y-94763530D01*
X122431456Y-94659523D01*
X122356640Y-94568360D01*
X122265477Y-94493544D01*
X122161470Y-94437951D01*
X122131000Y-94428708D01*
X122131000Y-93482843D01*
X122350000Y-93482843D01*
X122424689Y-93475487D01*
X122496508Y-93453701D01*
X122562696Y-93418322D01*
X122620711Y-93370711D01*
X122668322Y-93312696D01*
X122703701Y-93246508D01*
X122725487Y-93174689D01*
X122732843Y-93100000D01*
X122732843Y-91400000D01*
X122725487Y-91325311D01*
X122703701Y-91253492D01*
X122668322Y-91187304D01*
X122620711Y-91129289D01*
X122562696Y-91081678D01*
X122496508Y-91046299D01*
X122424689Y-91024513D01*
X122350000Y-91017157D01*
X120650000Y-91017157D01*
X120575311Y-91024513D01*
X120503492Y-91046299D01*
X120437304Y-91081678D01*
X120379289Y-91129289D01*
X120331678Y-91187304D01*
X120296299Y-91253492D01*
X120274513Y-91325311D01*
X120267157Y-91400000D01*
X120267157Y-93100000D01*
X120274513Y-93174689D01*
X120296299Y-93246508D01*
X120331678Y-93312696D01*
X120379289Y-93370711D01*
X120437304Y-93418322D01*
X120503492Y-93453701D01*
X120575311Y-93475487D01*
X120650000Y-93482843D01*
X120869000Y-93482843D01*
X120869001Y-94644000D01*
X117779768Y-94644000D01*
X117750000Y-94641068D01*
X117720232Y-94644000D01*
X117720230Y-94644000D01*
X117631203Y-94652768D01*
X117516972Y-94687420D01*
X117492469Y-94700517D01*
X117411695Y-94743691D01*
X117350222Y-94794142D01*
X117319420Y-94819420D01*
X117300442Y-94842545D01*
X115782843Y-96360144D01*
X115782843Y-93100000D01*
X115775487Y-93025311D01*
X115753701Y-92953492D01*
X115718322Y-92887304D01*
X115670711Y-92829289D01*
X115612696Y-92781678D01*
X115546508Y-92746299D01*
X115474689Y-92724513D01*
X115400000Y-92717157D01*
X113400000Y-92717157D01*
X113325311Y-92724513D01*
X113253492Y-92746299D01*
X113187304Y-92781678D01*
X113129289Y-92829289D01*
X113081678Y-92887304D01*
X113046299Y-92953492D01*
X113024513Y-93025311D01*
X113017157Y-93100000D01*
X113017157Y-94319000D01*
X109482843Y-94319000D01*
X109482843Y-94250000D01*
X109475487Y-94175311D01*
X109453701Y-94103492D01*
X109418322Y-94037304D01*
X109370711Y-93979289D01*
X109312696Y-93931678D01*
X109246508Y-93896299D01*
X109174689Y-93874513D01*
X109100000Y-93867157D01*
X107100000Y-93867157D01*
X107025311Y-93874513D01*
X106953492Y-93896299D01*
X106887304Y-93931678D01*
X106832843Y-93976372D01*
X106832843Y-93943750D01*
X106820803Y-93821508D01*
X106785146Y-93703963D01*
X106727243Y-93595634D01*
X106649318Y-93500682D01*
X106554366Y-93422757D01*
X106446037Y-93364854D01*
X106328492Y-93329197D01*
X106206250Y-93317157D01*
X105293750Y-93317157D01*
X105171508Y-93329197D01*
X105053963Y-93364854D01*
X104945634Y-93422757D01*
X104931103Y-93434682D01*
X104789422Y-93406500D01*
X104635578Y-93406500D01*
X104484691Y-93436513D01*
X104342558Y-93495387D01*
X104214641Y-93580858D01*
X104105858Y-93689641D01*
X104020387Y-93817558D01*
X103961513Y-93959691D01*
X103931500Y-94110578D01*
X103931500Y-94264422D01*
X103961513Y-94415309D01*
X104020387Y-94557442D01*
X104105858Y-94685359D01*
X104214641Y-94794142D01*
X104340705Y-94878375D01*
X103727080Y-95492000D01*
X102024944Y-95492000D01*
X102000000Y-95489543D01*
X101975056Y-95492000D01*
X101975053Y-95492000D01*
X101900415Y-95499351D01*
X101804657Y-95528399D01*
X101716405Y-95575571D01*
X101639052Y-95639052D01*
X101623145Y-95658435D01*
X100962580Y-96319000D01*
X100932927Y-96319000D01*
X100801360Y-96345171D01*
X100677426Y-96396506D01*
X100565888Y-96471033D01*
X100471033Y-96565888D01*
X100396506Y-96677426D01*
X100345171Y-96801360D01*
X100319000Y-96932927D01*
X100319000Y-97067073D01*
X100345171Y-97198640D01*
X100396506Y-97322574D01*
X100471033Y-97434112D01*
X100565888Y-97528967D01*
X100677426Y-97603494D01*
X100801360Y-97654829D01*
X100932927Y-97681000D01*
X101067073Y-97681000D01*
X101198640Y-97654829D01*
X101322574Y-97603494D01*
X101434112Y-97528967D01*
X101528967Y-97434112D01*
X101603494Y-97322574D01*
X101654829Y-97198640D01*
X101681000Y-97067073D01*
X101681000Y-97037420D01*
X102210420Y-96508000D01*
X103912556Y-96508000D01*
X103937500Y-96510457D01*
X103962444Y-96508000D01*
X103962447Y-96508000D01*
X104037085Y-96500649D01*
X104132843Y-96471601D01*
X104221095Y-96424429D01*
X104298448Y-96360948D01*
X104314355Y-96341565D01*
X104675896Y-95980024D01*
X104667157Y-96068750D01*
X104667157Y-96556250D01*
X104679197Y-96678492D01*
X104714854Y-96796037D01*
X104772757Y-96904366D01*
X104850682Y-96999318D01*
X104945634Y-97077243D01*
X105053963Y-97135146D01*
X105171508Y-97170803D01*
X105293750Y-97182843D01*
X105969765Y-97182843D01*
X106544800Y-97757879D01*
X106566130Y-97783870D01*
X106669826Y-97868970D01*
X106717157Y-97894269D01*
X106717157Y-98050000D01*
X106724513Y-98124689D01*
X106746299Y-98196508D01*
X106781678Y-98262696D01*
X106829289Y-98320711D01*
X106887304Y-98368322D01*
X106953492Y-98403701D01*
X107025311Y-98425487D01*
X107100000Y-98432843D01*
X109100000Y-98432843D01*
X109174689Y-98425487D01*
X109246508Y-98403701D01*
X109312696Y-98368322D01*
X109370711Y-98320711D01*
X109418322Y-98262696D01*
X109453701Y-98196508D01*
X109475487Y-98124689D01*
X109482843Y-98050000D01*
X109482843Y-97981000D01*
X111267922Y-97981000D01*
X112233292Y-98946371D01*
X112224513Y-98975311D01*
X112217157Y-99050000D01*
X112217157Y-99950000D01*
X112224513Y-100024689D01*
X112246299Y-100096508D01*
X112281678Y-100162696D01*
X112329289Y-100220711D01*
X112387304Y-100268322D01*
X112453492Y-100303701D01*
X112525311Y-100325487D01*
X112600000Y-100332843D01*
X113400000Y-100332843D01*
X113474689Y-100325487D01*
X113546508Y-100303701D01*
X113612696Y-100268322D01*
X113670711Y-100220711D01*
X113718322Y-100162696D01*
X113753701Y-100096508D01*
X113775487Y-100024689D01*
X113782843Y-99950000D01*
X113782843Y-99050000D01*
X113775487Y-98975311D01*
X113753701Y-98903492D01*
X113718322Y-98837304D01*
X113681000Y-98791826D01*
X113681000Y-98783453D01*
X113684295Y-98750000D01*
X113671146Y-98616501D01*
X113632206Y-98488131D01*
X113568970Y-98369826D01*
X113536495Y-98330255D01*
X113483870Y-98266130D01*
X113457879Y-98244800D01*
X112055204Y-96842126D01*
X112033870Y-96816130D01*
X111930174Y-96731030D01*
X111811868Y-96667794D01*
X111683499Y-96628854D01*
X111583453Y-96619000D01*
X111550000Y-96615705D01*
X111516547Y-96619000D01*
X109482843Y-96619000D01*
X109482843Y-96550000D01*
X109475487Y-96475311D01*
X109453701Y-96403492D01*
X109418322Y-96337304D01*
X109370711Y-96279289D01*
X109312696Y-96231678D01*
X109246508Y-96196299D01*
X109174689Y-96174513D01*
X109100000Y-96167157D01*
X107100000Y-96167157D01*
X107025311Y-96174513D01*
X106953492Y-96196299D01*
X106924744Y-96211666D01*
X106832843Y-96119765D01*
X106832843Y-96068750D01*
X106827951Y-96019080D01*
X106829289Y-96020711D01*
X106887304Y-96068322D01*
X106953492Y-96103701D01*
X107025311Y-96125487D01*
X107100000Y-96132843D01*
X109100000Y-96132843D01*
X109174689Y-96125487D01*
X109246508Y-96103701D01*
X109312696Y-96068322D01*
X109370711Y-96020711D01*
X109418322Y-95962696D01*
X109453701Y-95896508D01*
X109475487Y-95824689D01*
X109482843Y-95750000D01*
X109482843Y-95681000D01*
X113017157Y-95681000D01*
X113017157Y-96900000D01*
X113024513Y-96974689D01*
X113046299Y-97046508D01*
X113081678Y-97112696D01*
X113129289Y-97170711D01*
X113187304Y-97218322D01*
X113253492Y-97253701D01*
X113325311Y-97275487D01*
X113400000Y-97282843D01*
X115394001Y-97282843D01*
X115394000Y-99248986D01*
X113975830Y-100667157D01*
X113550000Y-100667157D01*
X113475311Y-100674513D01*
X113403492Y-100696299D01*
X113337304Y-100731678D01*
X113279289Y-100779289D01*
X113231678Y-100837304D01*
X113196299Y-100903492D01*
X113174513Y-100975311D01*
X113167157Y-101050000D01*
X113167157Y-101567251D01*
X112832843Y-101901566D01*
X112832843Y-101050000D01*
X112825487Y-100975311D01*
X112803701Y-100903492D01*
X112768322Y-100837304D01*
X112720711Y-100779289D01*
X112662696Y-100731678D01*
X112596508Y-100696299D01*
X112524689Y-100674513D01*
X112450000Y-100667157D01*
X111932749Y-100667157D01*
X110425376Y-99159785D01*
X110409527Y-99140473D01*
X110332479Y-99077241D01*
X110244575Y-99030255D01*
X110149193Y-99001322D01*
X110074854Y-98994000D01*
X110074846Y-98994000D01*
X110050000Y-98991553D01*
X110027307Y-98993788D01*
X110025487Y-98975311D01*
X110003701Y-98903492D01*
X109968322Y-98837304D01*
X109920711Y-98779289D01*
X109862696Y-98731678D01*
X109796508Y-98696299D01*
X109724689Y-98674513D01*
X109650000Y-98667157D01*
X108850000Y-98667157D01*
X108775311Y-98674513D01*
X108703492Y-98696299D01*
X108637304Y-98731678D01*
X108579289Y-98779289D01*
X108531678Y-98837304D01*
X108496299Y-98903492D01*
X108474513Y-98975311D01*
X108467157Y-99050000D01*
X108467157Y-99950000D01*
X108474513Y-100024689D01*
X108496299Y-100096508D01*
X108531678Y-100162696D01*
X108579289Y-100220711D01*
X108637304Y-100268322D01*
X108703492Y-100303701D01*
X108775311Y-100325487D01*
X108850000Y-100332843D01*
X109650000Y-100332843D01*
X109724689Y-100325487D01*
X109796508Y-100303701D01*
X109862696Y-100268322D01*
X109920711Y-100220711D01*
X109968322Y-100162696D01*
X109978348Y-100143939D01*
X111267157Y-101432749D01*
X111267157Y-101683055D01*
X111266322Y-101685808D01*
X111256553Y-101785000D01*
X111259001Y-101809856D01*
X111259000Y-102438942D01*
X111242491Y-102452491D01*
X111176536Y-102532857D01*
X111127527Y-102624547D01*
X111097347Y-102724035D01*
X111087157Y-102827500D01*
X111087157Y-103172500D01*
X111097347Y-103275965D01*
X111127527Y-103375453D01*
X111176536Y-103467143D01*
X111242491Y-103547509D01*
X111322857Y-103613464D01*
X111414547Y-103662473D01*
X111514035Y-103692653D01*
X111617500Y-103702843D01*
X111912500Y-103702843D01*
X112015965Y-103692653D01*
X112085390Y-103671593D01*
X112057347Y-103764035D01*
X112047157Y-103867500D01*
X112047157Y-104162500D01*
X112057347Y-104265965D01*
X112087527Y-104365453D01*
X112136536Y-104457143D01*
X112154474Y-104479000D01*
X112061058Y-104479000D01*
X112047509Y-104462491D01*
X111967143Y-104396536D01*
X111875453Y-104347527D01*
X111775965Y-104317347D01*
X111672500Y-104307157D01*
X111327500Y-104307157D01*
X111224035Y-104317347D01*
X111124547Y-104347527D01*
X111032857Y-104396536D01*
X111000000Y-104423501D01*
X110967143Y-104396536D01*
X110875453Y-104347527D01*
X110775965Y-104317347D01*
X110672500Y-104307157D01*
X110327500Y-104307157D01*
X110224035Y-104317347D01*
X110124547Y-104347527D01*
X110032857Y-104396536D01*
X109952491Y-104462491D01*
X109886536Y-104542857D01*
X109837527Y-104634547D01*
X109807347Y-104734035D01*
X109797157Y-104837500D01*
X109797157Y-105132500D01*
X109807347Y-105235965D01*
X109824952Y-105294000D01*
X107946074Y-105294000D01*
X107996508Y-105278701D01*
X108062696Y-105243322D01*
X108120711Y-105195711D01*
X108168322Y-105137696D01*
X108203701Y-105071508D01*
X108225487Y-104999689D01*
X108232843Y-104925000D01*
X108232843Y-104475000D01*
X108225487Y-104400311D01*
X108203701Y-104328492D01*
X108168322Y-104262304D01*
X108120711Y-104204289D01*
X108062696Y-104156678D01*
X108056000Y-104153099D01*
X108056000Y-103546901D01*
X108062696Y-103543322D01*
X108108174Y-103506000D01*
X108958425Y-103506000D01*
X108992491Y-103547509D01*
X109072857Y-103613464D01*
X109164547Y-103662473D01*
X109264035Y-103692653D01*
X109367500Y-103702843D01*
X109662500Y-103702843D01*
X109765965Y-103692653D01*
X109865453Y-103662473D01*
X109957143Y-103613464D01*
X110037509Y-103547509D01*
X110103464Y-103467143D01*
X110152473Y-103375453D01*
X110182653Y-103275965D01*
X110192843Y-103172500D01*
X110192843Y-102827500D01*
X110182653Y-102724035D01*
X110152473Y-102624547D01*
X110103464Y-102532857D01*
X110037509Y-102452491D01*
X109957143Y-102386536D01*
X109865453Y-102337527D01*
X109847748Y-102332156D01*
X109082843Y-101567252D01*
X109082843Y-101050000D01*
X109075487Y-100975311D01*
X109053701Y-100903492D01*
X109018322Y-100837304D01*
X108970711Y-100779289D01*
X108912696Y-100731678D01*
X108846508Y-100696299D01*
X108774689Y-100674513D01*
X108700000Y-100667157D01*
X107900000Y-100667157D01*
X107825311Y-100674513D01*
X107753492Y-100696299D01*
X107687304Y-100731678D01*
X107629289Y-100779289D01*
X107581678Y-100837304D01*
X107546299Y-100903492D01*
X107524513Y-100975311D01*
X107517157Y-101050000D01*
X107517157Y-101950000D01*
X107524513Y-102024689D01*
X107546299Y-102096508D01*
X107581678Y-102162696D01*
X107629289Y-102220711D01*
X107687304Y-102268322D01*
X107753492Y-102303701D01*
X107825311Y-102325487D01*
X107900000Y-102332843D01*
X108417252Y-102332843D01*
X108578408Y-102494000D01*
X108108174Y-102494000D01*
X108062696Y-102456678D01*
X107996508Y-102421299D01*
X107924689Y-102399513D01*
X107850000Y-102392157D01*
X107250000Y-102392157D01*
X107175311Y-102399513D01*
X107103492Y-102421299D01*
X107037304Y-102456678D01*
X106991000Y-102494678D01*
X106991000Y-102061058D01*
X107007509Y-102047509D01*
X107073464Y-101967143D01*
X107122473Y-101875453D01*
X107152653Y-101775965D01*
X107162843Y-101672500D01*
X107162843Y-101327500D01*
X107152653Y-101224035D01*
X107122473Y-101124547D01*
X107073464Y-101032857D01*
X107007509Y-100952491D01*
X106927143Y-100886536D01*
X106835453Y-100837527D01*
X106735965Y-100807347D01*
X106632500Y-100797157D01*
X106337500Y-100797157D01*
X106234035Y-100807347D01*
X106134547Y-100837527D01*
X106042857Y-100886536D01*
X106000000Y-100921708D01*
X105957143Y-100886536D01*
X105865453Y-100837527D01*
X105765965Y-100807347D01*
X105662500Y-100797157D01*
X105367500Y-100797157D01*
X105264035Y-100807347D01*
X105164547Y-100837527D01*
X105072857Y-100886536D01*
X104992491Y-100952491D01*
X104926536Y-101032857D01*
X104877527Y-101124547D01*
X104847347Y-101224035D01*
X104837157Y-101327500D01*
X104837157Y-101672500D01*
X104847347Y-101775965D01*
X104865315Y-101835195D01*
X98198460Y-108502051D01*
X98165978Y-108502051D01*
X98034411Y-108528222D01*
X98006000Y-108539990D01*
X98006000Y-107024854D01*
X98008448Y-107000000D01*
X97998678Y-106900807D01*
X97969745Y-106805425D01*
X97961753Y-106790474D01*
X97922759Y-106717521D01*
X97859527Y-106640473D01*
X97840220Y-106624628D01*
X97506000Y-106290409D01*
X97506000Y-98424845D01*
X97508447Y-98399999D01*
X97506000Y-98375153D01*
X97506000Y-98375146D01*
X97498678Y-98300807D01*
X97498434Y-98300000D01*
X97469745Y-98205425D01*
X97460793Y-98188678D01*
X97422759Y-98117521D01*
X97359527Y-98040473D01*
X97340220Y-98024628D01*
X96637843Y-97322252D01*
X96637843Y-97105000D01*
X96630487Y-97030311D01*
X96608701Y-96958492D01*
X96588126Y-96920000D01*
X96608701Y-96881508D01*
X96630487Y-96809689D01*
X96637843Y-96735000D01*
X96637843Y-95835000D01*
X96630487Y-95760311D01*
X96608701Y-95688492D01*
X96573322Y-95622304D01*
X96525711Y-95564289D01*
X96467696Y-95516678D01*
X96401508Y-95481299D01*
X96329689Y-95459513D01*
X96255000Y-95452157D01*
X95963435Y-95452157D01*
X96170220Y-95245372D01*
X96189527Y-95229527D01*
X96252759Y-95152479D01*
X96299745Y-95064575D01*
X96328678Y-94969193D01*
X96336000Y-94894854D01*
X96336000Y-94894853D01*
X96338448Y-94870000D01*
X96336000Y-94845146D01*
X96336000Y-93378757D01*
X98479000Y-93378757D01*
X98479000Y-93621243D01*
X98526307Y-93859069D01*
X98619102Y-94083097D01*
X98753820Y-94284717D01*
X98925283Y-94456180D01*
X99126903Y-94590898D01*
X99350931Y-94683693D01*
X99588757Y-94731000D01*
X99831243Y-94731000D01*
X100069069Y-94683693D01*
X100293097Y-94590898D01*
X100494717Y-94456180D01*
X100666180Y-94284717D01*
X100800898Y-94083097D01*
X100893693Y-93859069D01*
X100941000Y-93621243D01*
X100941000Y-93378757D01*
X100893693Y-93140931D01*
X100800898Y-92916903D01*
X100666180Y-92715283D01*
X100600897Y-92650000D01*
X101017157Y-92650000D01*
X101017157Y-94350000D01*
X101024513Y-94424689D01*
X101046299Y-94496508D01*
X101081678Y-94562696D01*
X101129289Y-94620711D01*
X101187304Y-94668322D01*
X101253492Y-94703701D01*
X101325311Y-94725487D01*
X101400000Y-94732843D01*
X103100000Y-94732843D01*
X103174689Y-94725487D01*
X103246508Y-94703701D01*
X103312696Y-94668322D01*
X103370711Y-94620711D01*
X103418322Y-94562696D01*
X103453701Y-94496508D01*
X103475487Y-94424689D01*
X103482843Y-94350000D01*
X103482843Y-92650000D01*
X103475487Y-92575311D01*
X103453701Y-92503492D01*
X103418322Y-92437304D01*
X103370711Y-92379289D01*
X103312696Y-92331678D01*
X103246508Y-92296299D01*
X103174689Y-92274513D01*
X103100000Y-92267157D01*
X101400000Y-92267157D01*
X101325311Y-92274513D01*
X101253492Y-92296299D01*
X101187304Y-92331678D01*
X101129289Y-92379289D01*
X101081678Y-92437304D01*
X101046299Y-92503492D01*
X101024513Y-92575311D01*
X101017157Y-92650000D01*
X100600897Y-92650000D01*
X100494717Y-92543820D01*
X100293097Y-92409102D01*
X100069069Y-92316307D01*
X99831243Y-92269000D01*
X99588757Y-92269000D01*
X99350931Y-92316307D01*
X99126903Y-92409102D01*
X98925283Y-92543820D01*
X98753820Y-92715283D01*
X98619102Y-92916903D01*
X98526307Y-93140931D01*
X98479000Y-93378757D01*
X96336000Y-93378757D01*
X96336000Y-91995526D01*
X96357857Y-92013464D01*
X96449547Y-92062473D01*
X96549035Y-92092653D01*
X96652500Y-92102843D01*
X96947500Y-92102843D01*
X97050965Y-92092653D01*
X97150453Y-92062473D01*
X97242143Y-92013464D01*
X97322509Y-91947509D01*
X97356575Y-91906000D01*
X97382190Y-91906000D01*
X97392950Y-91941469D01*
X97448543Y-92045476D01*
X97523359Y-92136639D01*
X97614522Y-92211455D01*
X97718529Y-92267048D01*
X97831384Y-92301283D01*
X97948749Y-92312842D01*
X98386249Y-92312842D01*
X98503614Y-92301283D01*
X98616469Y-92267048D01*
X98720476Y-92211455D01*
X98811639Y-92136639D01*
X98886455Y-92045476D01*
X98942048Y-91941469D01*
X98976283Y-91828614D01*
X98987842Y-91711249D01*
X98987842Y-91198749D01*
X98976283Y-91081384D01*
X98942048Y-90968529D01*
X98886455Y-90864522D01*
X98811639Y-90773359D01*
X98720476Y-90698543D01*
X98616469Y-90642950D01*
X98503614Y-90608715D01*
X98386249Y-90597156D01*
X97948749Y-90597156D01*
X97831384Y-90608715D01*
X97718529Y-90642950D01*
X97614522Y-90698543D01*
X97523359Y-90773359D01*
X97448543Y-90864522D01*
X97432787Y-90894000D01*
X97356575Y-90894000D01*
X97322509Y-90852491D01*
X97242143Y-90786536D01*
X97150453Y-90737527D01*
X97050965Y-90707347D01*
X96947500Y-90697157D01*
X96652500Y-90697157D01*
X96549035Y-90707347D01*
X96449547Y-90737527D01*
X96357857Y-90786536D01*
X96315000Y-90821708D01*
X96272143Y-90786536D01*
X96180453Y-90737527D01*
X96080965Y-90707347D01*
X95977500Y-90697157D01*
X95682500Y-90697157D01*
X95579035Y-90707347D01*
X95479547Y-90737527D01*
X95387857Y-90786536D01*
X95307491Y-90852491D01*
X95241536Y-90932857D01*
X95192527Y-91024547D01*
X95162347Y-91124035D01*
X95152157Y-91227500D01*
X95152157Y-91572500D01*
X95162347Y-91675965D01*
X95192527Y-91775453D01*
X95241536Y-91867143D01*
X95307491Y-91947509D01*
X95324001Y-91961058D01*
X95324000Y-94660408D01*
X94914780Y-95069629D01*
X94895474Y-95085473D01*
X94832242Y-95162521D01*
X94826770Y-95172759D01*
X94785255Y-95250426D01*
X94756322Y-95345808D01*
X94746553Y-95445000D01*
X94747258Y-95452157D01*
X94268434Y-95452157D01*
X94595220Y-95125372D01*
X94614527Y-95109527D01*
X94677759Y-95032479D01*
X94724745Y-94944575D01*
X94744655Y-94878937D01*
X94779689Y-94875487D01*
X94851508Y-94853701D01*
X94917696Y-94818322D01*
X94975711Y-94770711D01*
X95023322Y-94712696D01*
X95058701Y-94646508D01*
X95080487Y-94574689D01*
X95087843Y-94500000D01*
X95087843Y-92500000D01*
X95080487Y-92425311D01*
X95058701Y-92353492D01*
X95023322Y-92287304D01*
X94975711Y-92229289D01*
X94917696Y-92181678D01*
X94851508Y-92146299D01*
X94779689Y-92124513D01*
X94705000Y-92117157D01*
X93805000Y-92117157D01*
X93730311Y-92124513D01*
X93658492Y-92146299D01*
X93620000Y-92166874D01*
X93581508Y-92146299D01*
X93509689Y-92124513D01*
X93435000Y-92117157D01*
X92535000Y-92117157D01*
X92460311Y-92124513D01*
X92388492Y-92146299D01*
X92350000Y-92166874D01*
X92311508Y-92146299D01*
X92239689Y-92124513D01*
X92165000Y-92117157D01*
X91265000Y-92117157D01*
X91190311Y-92124513D01*
X91118492Y-92146299D01*
X91080000Y-92166874D01*
X91041508Y-92146299D01*
X90969689Y-92124513D01*
X90895000Y-92117157D01*
X89995000Y-92117157D01*
X89920311Y-92124513D01*
X89848492Y-92146299D01*
X89810000Y-92166874D01*
X89771508Y-92146299D01*
X89699689Y-92124513D01*
X89625000Y-92117157D01*
X88725000Y-92117157D01*
X88650311Y-92124513D01*
X88578492Y-92146299D01*
X88540000Y-92166874D01*
X88501508Y-92146299D01*
X88429689Y-92124513D01*
X88355000Y-92117157D01*
X87455000Y-92117157D01*
X87380311Y-92124513D01*
X87308492Y-92146299D01*
X87270000Y-92166874D01*
X87231508Y-92146299D01*
X87159689Y-92124513D01*
X87085000Y-92117157D01*
X86185000Y-92117157D01*
X86110311Y-92124513D01*
X86038492Y-92146299D01*
X86000000Y-92166874D01*
X85961508Y-92146299D01*
X85889689Y-92124513D01*
X85815000Y-92117157D01*
X84915000Y-92117157D01*
X84840311Y-92124513D01*
X84768492Y-92146299D01*
X84730000Y-92166874D01*
X84691508Y-92146299D01*
X84619689Y-92124513D01*
X84545000Y-92117157D01*
X83645000Y-92117157D01*
X83570311Y-92124513D01*
X83498492Y-92146299D01*
X83460000Y-92166874D01*
X83421508Y-92146299D01*
X83349689Y-92124513D01*
X83275000Y-92117157D01*
X82375000Y-92117157D01*
X82300311Y-92124513D01*
X82228492Y-92146299D01*
X82190000Y-92166874D01*
X82151508Y-92146299D01*
X82079689Y-92124513D01*
X82005000Y-92117157D01*
X81105000Y-92117157D01*
X81030311Y-92124513D01*
X80958492Y-92146299D01*
X80920000Y-92166874D01*
X80881508Y-92146299D01*
X80809689Y-92124513D01*
X80735000Y-92117157D01*
X79835000Y-92117157D01*
X79760311Y-92124513D01*
X79688492Y-92146299D01*
X79650000Y-92166874D01*
X79611508Y-92146299D01*
X79539689Y-92124513D01*
X79465000Y-92117157D01*
X78565000Y-92117157D01*
X78490311Y-92124513D01*
X78418492Y-92146299D01*
X78352304Y-92181678D01*
X78294289Y-92229289D01*
X78246678Y-92287304D01*
X78211299Y-92353492D01*
X78189513Y-92425311D01*
X78182157Y-92500000D01*
X78182157Y-94500000D01*
X78189513Y-94574689D01*
X78211299Y-94646508D01*
X78246678Y-94712696D01*
X78294289Y-94770711D01*
X78352304Y-94818322D01*
X78418492Y-94853701D01*
X78490311Y-94875487D01*
X78565000Y-94882843D01*
X79465000Y-94882843D01*
X79539689Y-94875487D01*
X79611508Y-94853701D01*
X79650000Y-94833126D01*
X79688492Y-94853701D01*
X79760311Y-94875487D01*
X79835000Y-94882843D01*
X80735000Y-94882843D01*
X80809689Y-94875487D01*
X80881508Y-94853701D01*
X80920000Y-94833126D01*
X80958492Y-94853701D01*
X81030311Y-94875487D01*
X81049000Y-94877328D01*
X81049001Y-97135407D01*
X79759785Y-98424624D01*
X79740473Y-98440473D01*
X79677241Y-98517521D01*
X79630255Y-98605426D01*
X79601322Y-98700808D01*
X79594000Y-98775147D01*
X79594000Y-98775154D01*
X79591553Y-98800000D01*
X79594000Y-98824846D01*
X79594001Y-102642920D01*
X79571033Y-102665888D01*
X79496506Y-102777426D01*
X79445171Y-102901360D01*
X79419000Y-103032927D01*
X79419000Y-103167073D01*
X79445171Y-103298640D01*
X79496506Y-103422574D01*
X79571033Y-103534112D01*
X79665888Y-103628967D01*
X79777426Y-103703494D01*
X79901360Y-103754829D01*
X80032927Y-103781000D01*
X80167073Y-103781000D01*
X80298640Y-103754829D01*
X80422574Y-103703494D01*
X80534112Y-103628967D01*
X80628967Y-103534112D01*
X80703494Y-103422574D01*
X80754829Y-103298640D01*
X80781000Y-103167073D01*
X80781000Y-103032927D01*
X80770671Y-102981000D01*
X80867073Y-102981000D01*
X80998640Y-102954829D01*
X81122574Y-102903494D01*
X81234112Y-102828967D01*
X81328967Y-102734112D01*
X81403494Y-102622574D01*
X81454829Y-102498640D01*
X81481000Y-102367073D01*
X81481000Y-102232927D01*
X81454829Y-102101360D01*
X81403494Y-101977426D01*
X81328967Y-101865888D01*
X81234112Y-101771033D01*
X81206000Y-101752249D01*
X81206000Y-99409591D01*
X83165220Y-97450372D01*
X83184527Y-97434527D01*
X83247759Y-97357479D01*
X83294745Y-97269575D01*
X83323678Y-97174193D01*
X83331000Y-97099854D01*
X83333448Y-97075000D01*
X83331000Y-97050146D01*
X83331000Y-94877328D01*
X83349689Y-94875487D01*
X83421508Y-94853701D01*
X83460000Y-94833126D01*
X83498492Y-94853701D01*
X83570311Y-94875487D01*
X83589000Y-94877328D01*
X83589001Y-96447920D01*
X83566033Y-96470888D01*
X83491506Y-96582426D01*
X83440171Y-96706360D01*
X83414000Y-96837927D01*
X83414000Y-96972073D01*
X83440171Y-97103640D01*
X83491506Y-97227574D01*
X83566033Y-97339112D01*
X83660888Y-97433967D01*
X83772426Y-97508494D01*
X83896360Y-97559829D01*
X84027927Y-97586000D01*
X84162073Y-97586000D01*
X84293640Y-97559829D01*
X84417574Y-97508494D01*
X84529112Y-97433967D01*
X84623967Y-97339112D01*
X84642109Y-97311960D01*
X84646506Y-97322574D01*
X84721033Y-97434112D01*
X84815888Y-97528967D01*
X84927426Y-97603494D01*
X85051360Y-97654829D01*
X85182927Y-97681000D01*
X85317073Y-97681000D01*
X85448640Y-97654829D01*
X85572574Y-97603494D01*
X85684112Y-97528967D01*
X85778967Y-97434112D01*
X85853494Y-97322574D01*
X85904829Y-97198640D01*
X85931000Y-97067073D01*
X85931000Y-97034591D01*
X86975220Y-95990372D01*
X86994527Y-95974527D01*
X87057759Y-95897479D01*
X87104745Y-95809575D01*
X87114567Y-95777195D01*
X87133678Y-95714194D01*
X87136947Y-95681000D01*
X87141000Y-95639854D01*
X87141000Y-95639847D01*
X87143447Y-95615001D01*
X87141000Y-95590155D01*
X87141000Y-94877328D01*
X87159689Y-94875487D01*
X87231508Y-94853701D01*
X87270000Y-94833126D01*
X87308492Y-94853701D01*
X87380311Y-94875487D01*
X87399001Y-94877328D01*
X87399001Y-95885407D01*
X86715409Y-96569000D01*
X86682927Y-96569000D01*
X86551360Y-96595171D01*
X86427426Y-96646506D01*
X86315888Y-96721033D01*
X86221033Y-96815888D01*
X86146506Y-96927426D01*
X86095171Y-97051360D01*
X86069000Y-97182927D01*
X86069000Y-97317073D01*
X86095171Y-97448640D01*
X86146506Y-97572574D01*
X86221033Y-97684112D01*
X86315888Y-97778967D01*
X86427426Y-97853494D01*
X86551360Y-97904829D01*
X86682927Y-97931000D01*
X86817073Y-97931000D01*
X86948640Y-97904829D01*
X87072574Y-97853494D01*
X87184112Y-97778967D01*
X87278967Y-97684112D01*
X87353494Y-97572574D01*
X87404829Y-97448640D01*
X87431000Y-97317073D01*
X87431000Y-97284591D01*
X88245220Y-96470372D01*
X88264527Y-96454527D01*
X88327759Y-96377479D01*
X88374745Y-96289575D01*
X88378166Y-96278297D01*
X88396506Y-96322574D01*
X88471033Y-96434112D01*
X88565888Y-96528967D01*
X88677426Y-96603494D01*
X88679893Y-96604516D01*
X88465409Y-96819000D01*
X88432927Y-96819000D01*
X88301360Y-96845171D01*
X88177426Y-96896506D01*
X88065888Y-96971033D01*
X87971033Y-97065888D01*
X87896506Y-97177426D01*
X87845171Y-97301360D01*
X87819000Y-97432927D01*
X87819000Y-97567073D01*
X87845171Y-97698640D01*
X87896506Y-97822574D01*
X87971033Y-97934112D01*
X88065888Y-98028967D01*
X88177426Y-98103494D01*
X88301360Y-98154829D01*
X88432927Y-98181000D01*
X88567073Y-98181000D01*
X88698640Y-98154829D01*
X88822574Y-98103494D01*
X88934112Y-98028967D01*
X89028967Y-97934112D01*
X89077756Y-97861093D01*
X89095171Y-97948640D01*
X89146506Y-98072574D01*
X89221033Y-98184112D01*
X89315888Y-98278967D01*
X89427426Y-98353494D01*
X89551360Y-98404829D01*
X89682927Y-98431000D01*
X89817073Y-98431000D01*
X89948640Y-98404829D01*
X90072574Y-98353494D01*
X90184112Y-98278967D01*
X90278967Y-98184112D01*
X90353494Y-98072574D01*
X90404829Y-97948640D01*
X90431000Y-97817073D01*
X90431000Y-97784591D01*
X90645484Y-97570107D01*
X90646506Y-97572574D01*
X90721033Y-97684112D01*
X90815888Y-97778967D01*
X90927426Y-97853494D01*
X91051360Y-97904829D01*
X91182927Y-97931000D01*
X91317073Y-97931000D01*
X91448640Y-97904829D01*
X91572574Y-97853494D01*
X91684112Y-97778967D01*
X91778967Y-97684112D01*
X91853494Y-97572574D01*
X91904829Y-97448640D01*
X91931000Y-97317073D01*
X91931000Y-97284591D01*
X93244000Y-95971592D01*
X93244000Y-97780921D01*
X93184112Y-97721033D01*
X93072574Y-97646506D01*
X92948640Y-97595171D01*
X92817073Y-97569000D01*
X92682927Y-97569000D01*
X92551360Y-97595171D01*
X92427426Y-97646506D01*
X92315888Y-97721033D01*
X92221033Y-97815888D01*
X92146506Y-97927426D01*
X92095171Y-98051360D01*
X92069000Y-98182927D01*
X92069000Y-98317073D01*
X92095171Y-98448640D01*
X92146506Y-98572574D01*
X92191900Y-98640511D01*
X92177426Y-98646506D01*
X92065888Y-98721033D01*
X91971033Y-98815888D01*
X91896506Y-98927426D01*
X91845171Y-99051360D01*
X91819000Y-99182927D01*
X91819000Y-99215408D01*
X89409781Y-101624628D01*
X89390474Y-101640473D01*
X89327242Y-101717521D01*
X89309881Y-101750001D01*
X89280255Y-101805426D01*
X89251322Y-101900808D01*
X89241553Y-102000000D01*
X89244001Y-102024854D01*
X89244000Y-108290408D01*
X88834785Y-108699624D01*
X88815473Y-108715473D01*
X88752241Y-108792521D01*
X88705255Y-108880426D01*
X88681000Y-108960386D01*
X88681000Y-108932927D01*
X88654829Y-108801360D01*
X88603494Y-108677426D01*
X88528967Y-108565888D01*
X88434112Y-108471033D01*
X88322574Y-108396506D01*
X88198640Y-108345171D01*
X88067073Y-108319000D01*
X87932927Y-108319000D01*
X87801360Y-108345171D01*
X87677426Y-108396506D01*
X87565888Y-108471033D01*
X87471033Y-108565888D01*
X87396506Y-108677426D01*
X87345171Y-108801360D01*
X87319000Y-108932927D01*
X87319000Y-109067073D01*
X87333265Y-109138784D01*
X87308492Y-109146299D01*
X87270000Y-109166874D01*
X87231508Y-109146299D01*
X87159689Y-109124513D01*
X87085000Y-109117157D01*
X86185000Y-109117157D01*
X86110311Y-109124513D01*
X86038492Y-109146299D01*
X86000000Y-109166874D01*
X85961508Y-109146299D01*
X85889689Y-109124513D01*
X85815000Y-109117157D01*
X84915000Y-109117157D01*
X84840311Y-109124513D01*
X84776000Y-109144021D01*
X84776000Y-109027927D01*
X84749829Y-108896360D01*
X84698494Y-108772426D01*
X84623967Y-108660888D01*
X84529112Y-108566033D01*
X84417574Y-108491506D01*
X84293640Y-108440171D01*
X84162073Y-108414000D01*
X84027927Y-108414000D01*
X83896360Y-108440171D01*
X83772426Y-108491506D01*
X83660888Y-108566033D01*
X83566033Y-108660888D01*
X83491506Y-108772426D01*
X83440171Y-108896360D01*
X83414000Y-109027927D01*
X83414000Y-109144021D01*
X83349689Y-109124513D01*
X83331000Y-109122672D01*
X83331000Y-108134591D01*
X83609592Y-107856000D01*
X83642073Y-107856000D01*
X83773640Y-107829829D01*
X83897574Y-107778494D01*
X84009112Y-107703967D01*
X84103967Y-107609112D01*
X84178494Y-107497574D01*
X84229829Y-107373640D01*
X84256000Y-107242073D01*
X84256000Y-107107927D01*
X84229829Y-106976360D01*
X84178494Y-106852426D01*
X84103967Y-106740888D01*
X84009112Y-106646033D01*
X83897574Y-106571506D01*
X83773640Y-106520171D01*
X83642073Y-106494000D01*
X83507927Y-106494000D01*
X83376360Y-106520171D01*
X83252426Y-106571506D01*
X83140888Y-106646033D01*
X83046033Y-106740888D01*
X82971506Y-106852426D01*
X82920171Y-106976360D01*
X82894000Y-107107927D01*
X82894000Y-107140408D01*
X82484780Y-107549629D01*
X82465474Y-107565473D01*
X82402242Y-107642521D01*
X82377127Y-107689508D01*
X82355255Y-107730426D01*
X82326322Y-107825808D01*
X82316553Y-107925000D01*
X82319001Y-107949856D01*
X82319001Y-109122672D01*
X82300311Y-109124513D01*
X82228492Y-109146299D01*
X82190000Y-109166874D01*
X82151508Y-109146299D01*
X82079689Y-109124513D01*
X82005000Y-109117157D01*
X81105000Y-109117157D01*
X81030311Y-109124513D01*
X80958492Y-109146299D01*
X80920000Y-109166874D01*
X80881508Y-109146299D01*
X80809689Y-109124513D01*
X80735000Y-109117157D01*
X79835000Y-109117157D01*
X79796000Y-109120998D01*
X79796000Y-107916663D01*
X79862144Y-107756978D01*
X79896000Y-107586771D01*
X79896000Y-107413229D01*
X79862144Y-107243022D01*
X79795732Y-107082690D01*
X79699318Y-106938395D01*
X79576605Y-106815682D01*
X79432310Y-106719268D01*
X79271978Y-106652856D01*
X79101771Y-106619000D01*
X78928229Y-106619000D01*
X78758022Y-106652856D01*
X78597690Y-106719268D01*
X78453395Y-106815682D01*
X78330682Y-106938395D01*
X78234268Y-107082690D01*
X78167856Y-107243022D01*
X78134000Y-107413229D01*
X78134000Y-107586771D01*
X78167856Y-107756978D01*
X78234001Y-107916665D01*
X78234000Y-109311022D01*
X78211299Y-109353492D01*
X78189513Y-109425311D01*
X78182157Y-109500000D01*
X78182157Y-111500000D01*
X78189513Y-111574689D01*
X78211299Y-111646508D01*
X78219001Y-111660916D01*
X78219000Y-112784795D01*
X78191216Y-112876385D01*
X78179657Y-112993750D01*
X78179657Y-113506250D01*
X78191216Y-113623615D01*
X78225451Y-113736470D01*
X78281044Y-113840477D01*
X78355860Y-113931640D01*
X78406501Y-113973200D01*
X78406500Y-114476048D01*
X78364854Y-114553963D01*
X78329197Y-114671508D01*
X78317157Y-114793750D01*
X78317157Y-115706250D01*
X78329197Y-115828492D01*
X78364854Y-115946037D01*
X78422757Y-116054366D01*
X78500682Y-116149318D01*
X78595634Y-116227243D01*
X78703963Y-116285146D01*
X78821508Y-116320803D01*
X78943750Y-116332843D01*
X79431250Y-116332843D01*
X79553492Y-116320803D01*
X79671037Y-116285146D01*
X79725565Y-116256000D01*
X81475146Y-116256000D01*
X81500000Y-116258448D01*
X81524854Y-116256000D01*
X85109411Y-116256000D01*
X85636737Y-116783326D01*
X85470931Y-116816307D01*
X85246903Y-116909102D01*
X85045283Y-117043820D01*
X84873820Y-117215283D01*
X84739102Y-117416903D01*
X84646307Y-117640931D01*
X84599000Y-117878757D01*
X84599000Y-118121243D01*
X84646307Y-118359069D01*
X84739102Y-118583097D01*
X84873820Y-118784717D01*
X85045283Y-118956180D01*
X85246903Y-119090898D01*
X85470931Y-119183693D01*
X85708757Y-119231000D01*
X85951243Y-119231000D01*
X86189069Y-119183693D01*
X86413097Y-119090898D01*
X86614717Y-118956180D01*
X86682279Y-118888618D01*
X86740473Y-118959527D01*
X86759785Y-118975376D01*
X87378408Y-119594000D01*
X76127000Y-119594000D01*
X76127000Y-117878757D01*
X82059000Y-117878757D01*
X82059000Y-118121243D01*
X82106307Y-118359069D01*
X82199102Y-118583097D01*
X82333820Y-118784717D01*
X82505283Y-118956180D01*
X82706903Y-119090898D01*
X82930931Y-119183693D01*
X83168757Y-119231000D01*
X83411243Y-119231000D01*
X83649069Y-119183693D01*
X83873097Y-119090898D01*
X84074717Y-118956180D01*
X84246180Y-118784717D01*
X84380898Y-118583097D01*
X84473693Y-118359069D01*
X84521000Y-118121243D01*
X84521000Y-117878757D01*
X84473693Y-117640931D01*
X84380898Y-117416903D01*
X84246180Y-117215283D01*
X84074717Y-117043820D01*
X83873097Y-116909102D01*
X83649069Y-116816307D01*
X83411243Y-116769000D01*
X83168757Y-116769000D01*
X82930931Y-116816307D01*
X82706903Y-116909102D01*
X82505283Y-117043820D01*
X82333820Y-117215283D01*
X82199102Y-117416903D01*
X82106307Y-117640931D01*
X82059000Y-117878757D01*
X76127000Y-117878757D01*
X76127000Y-90406000D01*
X134594000Y-90406000D01*
X134594001Y-119594000D01*
G36*
X82202491Y-114537509D02*
G01*
X82282857Y-114603464D01*
X82374547Y-114652473D01*
X82474035Y-114682653D01*
X82577500Y-114692843D01*
X82922500Y-114692843D01*
X83025965Y-114682653D01*
X83125453Y-114652473D01*
X83217143Y-114603464D01*
X83297509Y-114537509D01*
X83311058Y-114521000D01*
X84175409Y-114521000D01*
X84898409Y-115244000D01*
X82190216Y-115244000D01*
X82192653Y-115235965D01*
X82202843Y-115132500D01*
X82202843Y-114837500D01*
X82192653Y-114734035D01*
X82162473Y-114634547D01*
X82113464Y-114542857D01*
X82095526Y-114521000D01*
X82188942Y-114521000D01*
X82202491Y-114537509D01*
G37*
X82202491Y-114537509D02*
X82282857Y-114603464D01*
X82374547Y-114652473D01*
X82474035Y-114682653D01*
X82577500Y-114692843D01*
X82922500Y-114692843D01*
X83025965Y-114682653D01*
X83125453Y-114652473D01*
X83217143Y-114603464D01*
X83297509Y-114537509D01*
X83311058Y-114521000D01*
X84175409Y-114521000D01*
X84898409Y-115244000D01*
X82190216Y-115244000D01*
X82192653Y-115235965D01*
X82202843Y-115132500D01*
X82202843Y-114837500D01*
X82192653Y-114734035D01*
X82162473Y-114634547D01*
X82113464Y-114542857D01*
X82095526Y-114521000D01*
X82188942Y-114521000D01*
X82202491Y-114537509D01*
G36*
X96494001Y-107459593D02*
G01*
X96494001Y-109028409D01*
X95875376Y-108409785D01*
X95859527Y-108390473D01*
X95782479Y-108327241D01*
X95694575Y-108280255D01*
X95599193Y-108251322D01*
X95524854Y-108244000D01*
X95524846Y-108244000D01*
X95500000Y-108241553D01*
X95475154Y-108244000D01*
X94464590Y-108244000D01*
X94256000Y-108035411D01*
X94256000Y-107277843D01*
X96255000Y-107277843D01*
X96307118Y-107272710D01*
X96494001Y-107459593D01*
G37*
X96494001Y-107459593D02*
X96494001Y-109028409D01*
X95875376Y-108409785D01*
X95859527Y-108390473D01*
X95782479Y-108327241D01*
X95694575Y-108280255D01*
X95599193Y-108251322D01*
X95524854Y-108244000D01*
X95524846Y-108244000D01*
X95500000Y-108241553D01*
X95475154Y-108244000D01*
X94464590Y-108244000D01*
X94256000Y-108035411D01*
X94256000Y-107277843D01*
X96255000Y-107277843D01*
X96307118Y-107272710D01*
X96494001Y-107459593D01*
M02*
