G04 #@! TF.GenerationSoftware,KiCad,Pcbnew,(5.1.6)-1*
G04 #@! TF.CreationDate,2020-09-05T22:14:19+08:00*
G04 #@! TF.ProjectId,epaper,65706170-6572-42e6-9b69-6361645f7063,rev?*
G04 #@! TF.SameCoordinates,Original*
G04 #@! TF.FileFunction,Copper,L2,Bot*
G04 #@! TF.FilePolarity,Positive*
%FSLAX46Y46*%
G04 Gerber Fmt 4.6, Leading zero omitted, Abs format (unit mm)*
G04 Created by KiCad (PCBNEW (5.1.6)-1) date 2020-09-05 22:14:19*
%MOMM*%
%LPD*%
G01*
G04 APERTURE LIST*
G04 #@! TA.AperFunction,SMDPad,CuDef*
%ADD10R,0.900000X0.800000*%
G04 #@! TD*
G04 #@! TA.AperFunction,SMDPad,CuDef*
%ADD11R,3.350000X3.350000*%
G04 #@! TD*
G04 #@! TA.AperFunction,ComponentPad*
%ADD12O,1.700000X1.700000*%
G04 #@! TD*
G04 #@! TA.AperFunction,ComponentPad*
%ADD13R,1.700000X1.700000*%
G04 #@! TD*
G04 #@! TA.AperFunction,ComponentPad*
%ADD14O,1.000000X1.600000*%
G04 #@! TD*
G04 #@! TA.AperFunction,ComponentPad*
%ADD15O,1.000000X2.100000*%
G04 #@! TD*
G04 #@! TA.AperFunction,ViaPad*
%ADD16C,0.600000*%
G04 #@! TD*
G04 #@! TA.AperFunction,ViaPad*
%ADD17C,0.800000*%
G04 #@! TD*
G04 #@! TA.AperFunction,ViaPad*
%ADD18C,1.000000*%
G04 #@! TD*
G04 #@! TA.AperFunction,Conductor*
%ADD19C,0.250000*%
G04 #@! TD*
G04 #@! TA.AperFunction,Conductor*
%ADD20C,0.800000*%
G04 #@! TD*
G04 #@! TA.AperFunction,Conductor*
%ADD21C,0.254000*%
G04 #@! TD*
G04 APERTURE END LIST*
G04 #@! TA.AperFunction,SMDPad,CuDef*
G36*
G01*
X114440000Y-112422500D02*
X114440000Y-112077500D01*
G75*
G02*
X114587500Y-111930000I147500J0D01*
G01*
X114882500Y-111930000D01*
G75*
G02*
X115030000Y-112077500I0J-147500D01*
G01*
X115030000Y-112422500D01*
G75*
G02*
X114882500Y-112570000I-147500J0D01*
G01*
X114587500Y-112570000D01*
G75*
G02*
X114440000Y-112422500I0J147500D01*
G01*
G37*
G04 #@! TD.AperFunction*
G04 #@! TA.AperFunction,SMDPad,CuDef*
G36*
G01*
X113470000Y-112422500D02*
X113470000Y-112077500D01*
G75*
G02*
X113617500Y-111930000I147500J0D01*
G01*
X113912500Y-111930000D01*
G75*
G02*
X114060000Y-112077500I0J-147500D01*
G01*
X114060000Y-112422500D01*
G75*
G02*
X113912500Y-112570000I-147500J0D01*
G01*
X113617500Y-112570000D01*
G75*
G02*
X113470000Y-112422500I0J147500D01*
G01*
G37*
G04 #@! TD.AperFunction*
G04 #@! TA.AperFunction,SMDPad,CuDef*
G36*
G01*
X114440000Y-113422500D02*
X114440000Y-113077500D01*
G75*
G02*
X114587500Y-112930000I147500J0D01*
G01*
X114882500Y-112930000D01*
G75*
G02*
X115030000Y-113077500I0J-147500D01*
G01*
X115030000Y-113422500D01*
G75*
G02*
X114882500Y-113570000I-147500J0D01*
G01*
X114587500Y-113570000D01*
G75*
G02*
X114440000Y-113422500I0J147500D01*
G01*
G37*
G04 #@! TD.AperFunction*
G04 #@! TA.AperFunction,SMDPad,CuDef*
G36*
G01*
X113470000Y-113422500D02*
X113470000Y-113077500D01*
G75*
G02*
X113617500Y-112930000I147500J0D01*
G01*
X113912500Y-112930000D01*
G75*
G02*
X114060000Y-113077500I0J-147500D01*
G01*
X114060000Y-113422500D01*
G75*
G02*
X113912500Y-113570000I-147500J0D01*
G01*
X113617500Y-113570000D01*
G75*
G02*
X113470000Y-113422500I0J147500D01*
G01*
G37*
G04 #@! TD.AperFunction*
D10*
X101000000Y-114755001D03*
X103000000Y-115705001D03*
X103000000Y-113805001D03*
X101000000Y-111050000D03*
X103000000Y-112000000D03*
X103000000Y-110100000D03*
G04 #@! TA.AperFunction,SMDPad,CuDef*
G36*
G01*
X112474999Y-111312501D02*
X112474999Y-111437501D01*
G75*
G02*
X112412499Y-111500001I-62500J0D01*
G01*
X111737499Y-111500001D01*
G75*
G02*
X111674999Y-111437501I0J62500D01*
G01*
X111674999Y-111312501D01*
G75*
G02*
X111737499Y-111250001I62500J0D01*
G01*
X112412499Y-111250001D01*
G75*
G02*
X112474999Y-111312501I0J-62500D01*
G01*
G37*
G04 #@! TD.AperFunction*
G04 #@! TA.AperFunction,SMDPad,CuDef*
G36*
G01*
X112474999Y-111812501D02*
X112474999Y-111937501D01*
G75*
G02*
X112412499Y-112000001I-62500J0D01*
G01*
X111737499Y-112000001D01*
G75*
G02*
X111674999Y-111937501I0J62500D01*
G01*
X111674999Y-111812501D01*
G75*
G02*
X111737499Y-111750001I62500J0D01*
G01*
X112412499Y-111750001D01*
G75*
G02*
X112474999Y-111812501I0J-62500D01*
G01*
G37*
G04 #@! TD.AperFunction*
G04 #@! TA.AperFunction,SMDPad,CuDef*
G36*
G01*
X112474999Y-112312501D02*
X112474999Y-112437501D01*
G75*
G02*
X112412499Y-112500001I-62500J0D01*
G01*
X111737499Y-112500001D01*
G75*
G02*
X111674999Y-112437501I0J62500D01*
G01*
X111674999Y-112312501D01*
G75*
G02*
X111737499Y-112250001I62500J0D01*
G01*
X112412499Y-112250001D01*
G75*
G02*
X112474999Y-112312501I0J-62500D01*
G01*
G37*
G04 #@! TD.AperFunction*
G04 #@! TA.AperFunction,SMDPad,CuDef*
G36*
G01*
X112474999Y-112812501D02*
X112474999Y-112937501D01*
G75*
G02*
X112412499Y-113000001I-62500J0D01*
G01*
X111737499Y-113000001D01*
G75*
G02*
X111674999Y-112937501I0J62500D01*
G01*
X111674999Y-112812501D01*
G75*
G02*
X111737499Y-112750001I62500J0D01*
G01*
X112412499Y-112750001D01*
G75*
G02*
X112474999Y-112812501I0J-62500D01*
G01*
G37*
G04 #@! TD.AperFunction*
G04 #@! TA.AperFunction,SMDPad,CuDef*
G36*
G01*
X112474999Y-113312501D02*
X112474999Y-113437501D01*
G75*
G02*
X112412499Y-113500001I-62500J0D01*
G01*
X111737499Y-113500001D01*
G75*
G02*
X111674999Y-113437501I0J62500D01*
G01*
X111674999Y-113312501D01*
G75*
G02*
X111737499Y-113250001I62500J0D01*
G01*
X112412499Y-113250001D01*
G75*
G02*
X112474999Y-113312501I0J-62500D01*
G01*
G37*
G04 #@! TD.AperFunction*
G04 #@! TA.AperFunction,SMDPad,CuDef*
G36*
G01*
X112474999Y-113812501D02*
X112474999Y-113937501D01*
G75*
G02*
X112412499Y-114000001I-62500J0D01*
G01*
X111737499Y-114000001D01*
G75*
G02*
X111674999Y-113937501I0J62500D01*
G01*
X111674999Y-113812501D01*
G75*
G02*
X111737499Y-113750001I62500J0D01*
G01*
X112412499Y-113750001D01*
G75*
G02*
X112474999Y-113812501I0J-62500D01*
G01*
G37*
G04 #@! TD.AperFunction*
G04 #@! TA.AperFunction,SMDPad,CuDef*
G36*
G01*
X112474999Y-114312501D02*
X112474999Y-114437501D01*
G75*
G02*
X112412499Y-114500001I-62500J0D01*
G01*
X111737499Y-114500001D01*
G75*
G02*
X111674999Y-114437501I0J62500D01*
G01*
X111674999Y-114312501D01*
G75*
G02*
X111737499Y-114250001I62500J0D01*
G01*
X112412499Y-114250001D01*
G75*
G02*
X112474999Y-114312501I0J-62500D01*
G01*
G37*
G04 #@! TD.AperFunction*
G04 #@! TA.AperFunction,SMDPad,CuDef*
G36*
G01*
X111249999Y-114987501D02*
X111249999Y-115662501D01*
G75*
G02*
X111187499Y-115725001I-62500J0D01*
G01*
X111062499Y-115725001D01*
G75*
G02*
X110999999Y-115662501I0J62500D01*
G01*
X110999999Y-114987501D01*
G75*
G02*
X111062499Y-114925001I62500J0D01*
G01*
X111187499Y-114925001D01*
G75*
G02*
X111249999Y-114987501I0J-62500D01*
G01*
G37*
G04 #@! TD.AperFunction*
G04 #@! TA.AperFunction,SMDPad,CuDef*
G36*
G01*
X110749999Y-114987501D02*
X110749999Y-115662501D01*
G75*
G02*
X110687499Y-115725001I-62500J0D01*
G01*
X110562499Y-115725001D01*
G75*
G02*
X110499999Y-115662501I0J62500D01*
G01*
X110499999Y-114987501D01*
G75*
G02*
X110562499Y-114925001I62500J0D01*
G01*
X110687499Y-114925001D01*
G75*
G02*
X110749999Y-114987501I0J-62500D01*
G01*
G37*
G04 #@! TD.AperFunction*
G04 #@! TA.AperFunction,SMDPad,CuDef*
G36*
G01*
X110249999Y-114987501D02*
X110249999Y-115662501D01*
G75*
G02*
X110187499Y-115725001I-62500J0D01*
G01*
X110062499Y-115725001D01*
G75*
G02*
X109999999Y-115662501I0J62500D01*
G01*
X109999999Y-114987501D01*
G75*
G02*
X110062499Y-114925001I62500J0D01*
G01*
X110187499Y-114925001D01*
G75*
G02*
X110249999Y-114987501I0J-62500D01*
G01*
G37*
G04 #@! TD.AperFunction*
G04 #@! TA.AperFunction,SMDPad,CuDef*
G36*
G01*
X109749999Y-114987501D02*
X109749999Y-115662501D01*
G75*
G02*
X109687499Y-115725001I-62500J0D01*
G01*
X109562499Y-115725001D01*
G75*
G02*
X109499999Y-115662501I0J62500D01*
G01*
X109499999Y-114987501D01*
G75*
G02*
X109562499Y-114925001I62500J0D01*
G01*
X109687499Y-114925001D01*
G75*
G02*
X109749999Y-114987501I0J-62500D01*
G01*
G37*
G04 #@! TD.AperFunction*
G04 #@! TA.AperFunction,SMDPad,CuDef*
G36*
G01*
X109249999Y-114987501D02*
X109249999Y-115662501D01*
G75*
G02*
X109187499Y-115725001I-62500J0D01*
G01*
X109062499Y-115725001D01*
G75*
G02*
X108999999Y-115662501I0J62500D01*
G01*
X108999999Y-114987501D01*
G75*
G02*
X109062499Y-114925001I62500J0D01*
G01*
X109187499Y-114925001D01*
G75*
G02*
X109249999Y-114987501I0J-62500D01*
G01*
G37*
G04 #@! TD.AperFunction*
G04 #@! TA.AperFunction,SMDPad,CuDef*
G36*
G01*
X108749999Y-114987501D02*
X108749999Y-115662501D01*
G75*
G02*
X108687499Y-115725001I-62500J0D01*
G01*
X108562499Y-115725001D01*
G75*
G02*
X108499999Y-115662501I0J62500D01*
G01*
X108499999Y-114987501D01*
G75*
G02*
X108562499Y-114925001I62500J0D01*
G01*
X108687499Y-114925001D01*
G75*
G02*
X108749999Y-114987501I0J-62500D01*
G01*
G37*
G04 #@! TD.AperFunction*
G04 #@! TA.AperFunction,SMDPad,CuDef*
G36*
G01*
X108249999Y-114987501D02*
X108249999Y-115662501D01*
G75*
G02*
X108187499Y-115725001I-62500J0D01*
G01*
X108062499Y-115725001D01*
G75*
G02*
X107999999Y-115662501I0J62500D01*
G01*
X107999999Y-114987501D01*
G75*
G02*
X108062499Y-114925001I62500J0D01*
G01*
X108187499Y-114925001D01*
G75*
G02*
X108249999Y-114987501I0J-62500D01*
G01*
G37*
G04 #@! TD.AperFunction*
G04 #@! TA.AperFunction,SMDPad,CuDef*
G36*
G01*
X107574999Y-114312501D02*
X107574999Y-114437501D01*
G75*
G02*
X107512499Y-114500001I-62500J0D01*
G01*
X106837499Y-114500001D01*
G75*
G02*
X106774999Y-114437501I0J62500D01*
G01*
X106774999Y-114312501D01*
G75*
G02*
X106837499Y-114250001I62500J0D01*
G01*
X107512499Y-114250001D01*
G75*
G02*
X107574999Y-114312501I0J-62500D01*
G01*
G37*
G04 #@! TD.AperFunction*
G04 #@! TA.AperFunction,SMDPad,CuDef*
G36*
G01*
X107574999Y-113812501D02*
X107574999Y-113937501D01*
G75*
G02*
X107512499Y-114000001I-62500J0D01*
G01*
X106837499Y-114000001D01*
G75*
G02*
X106774999Y-113937501I0J62500D01*
G01*
X106774999Y-113812501D01*
G75*
G02*
X106837499Y-113750001I62500J0D01*
G01*
X107512499Y-113750001D01*
G75*
G02*
X107574999Y-113812501I0J-62500D01*
G01*
G37*
G04 #@! TD.AperFunction*
G04 #@! TA.AperFunction,SMDPad,CuDef*
G36*
G01*
X107574999Y-113312501D02*
X107574999Y-113437501D01*
G75*
G02*
X107512499Y-113500001I-62500J0D01*
G01*
X106837499Y-113500001D01*
G75*
G02*
X106774999Y-113437501I0J62500D01*
G01*
X106774999Y-113312501D01*
G75*
G02*
X106837499Y-113250001I62500J0D01*
G01*
X107512499Y-113250001D01*
G75*
G02*
X107574999Y-113312501I0J-62500D01*
G01*
G37*
G04 #@! TD.AperFunction*
G04 #@! TA.AperFunction,SMDPad,CuDef*
G36*
G01*
X107574999Y-112812501D02*
X107574999Y-112937501D01*
G75*
G02*
X107512499Y-113000001I-62500J0D01*
G01*
X106837499Y-113000001D01*
G75*
G02*
X106774999Y-112937501I0J62500D01*
G01*
X106774999Y-112812501D01*
G75*
G02*
X106837499Y-112750001I62500J0D01*
G01*
X107512499Y-112750001D01*
G75*
G02*
X107574999Y-112812501I0J-62500D01*
G01*
G37*
G04 #@! TD.AperFunction*
G04 #@! TA.AperFunction,SMDPad,CuDef*
G36*
G01*
X107574999Y-112312501D02*
X107574999Y-112437501D01*
G75*
G02*
X107512499Y-112500001I-62500J0D01*
G01*
X106837499Y-112500001D01*
G75*
G02*
X106774999Y-112437501I0J62500D01*
G01*
X106774999Y-112312501D01*
G75*
G02*
X106837499Y-112250001I62500J0D01*
G01*
X107512499Y-112250001D01*
G75*
G02*
X107574999Y-112312501I0J-62500D01*
G01*
G37*
G04 #@! TD.AperFunction*
G04 #@! TA.AperFunction,SMDPad,CuDef*
G36*
G01*
X107574999Y-111812501D02*
X107574999Y-111937501D01*
G75*
G02*
X107512499Y-112000001I-62500J0D01*
G01*
X106837499Y-112000001D01*
G75*
G02*
X106774999Y-111937501I0J62500D01*
G01*
X106774999Y-111812501D01*
G75*
G02*
X106837499Y-111750001I62500J0D01*
G01*
X107512499Y-111750001D01*
G75*
G02*
X107574999Y-111812501I0J-62500D01*
G01*
G37*
G04 #@! TD.AperFunction*
G04 #@! TA.AperFunction,SMDPad,CuDef*
G36*
G01*
X107574999Y-111312501D02*
X107574999Y-111437501D01*
G75*
G02*
X107512499Y-111500001I-62500J0D01*
G01*
X106837499Y-111500001D01*
G75*
G02*
X106774999Y-111437501I0J62500D01*
G01*
X106774999Y-111312501D01*
G75*
G02*
X106837499Y-111250001I62500J0D01*
G01*
X107512499Y-111250001D01*
G75*
G02*
X107574999Y-111312501I0J-62500D01*
G01*
G37*
G04 #@! TD.AperFunction*
G04 #@! TA.AperFunction,SMDPad,CuDef*
G36*
G01*
X108249999Y-110087501D02*
X108249999Y-110762501D01*
G75*
G02*
X108187499Y-110825001I-62500J0D01*
G01*
X108062499Y-110825001D01*
G75*
G02*
X107999999Y-110762501I0J62500D01*
G01*
X107999999Y-110087501D01*
G75*
G02*
X108062499Y-110025001I62500J0D01*
G01*
X108187499Y-110025001D01*
G75*
G02*
X108249999Y-110087501I0J-62500D01*
G01*
G37*
G04 #@! TD.AperFunction*
G04 #@! TA.AperFunction,SMDPad,CuDef*
G36*
G01*
X108749999Y-110087501D02*
X108749999Y-110762501D01*
G75*
G02*
X108687499Y-110825001I-62500J0D01*
G01*
X108562499Y-110825001D01*
G75*
G02*
X108499999Y-110762501I0J62500D01*
G01*
X108499999Y-110087501D01*
G75*
G02*
X108562499Y-110025001I62500J0D01*
G01*
X108687499Y-110025001D01*
G75*
G02*
X108749999Y-110087501I0J-62500D01*
G01*
G37*
G04 #@! TD.AperFunction*
G04 #@! TA.AperFunction,SMDPad,CuDef*
G36*
G01*
X109249999Y-110087501D02*
X109249999Y-110762501D01*
G75*
G02*
X109187499Y-110825001I-62500J0D01*
G01*
X109062499Y-110825001D01*
G75*
G02*
X108999999Y-110762501I0J62500D01*
G01*
X108999999Y-110087501D01*
G75*
G02*
X109062499Y-110025001I62500J0D01*
G01*
X109187499Y-110025001D01*
G75*
G02*
X109249999Y-110087501I0J-62500D01*
G01*
G37*
G04 #@! TD.AperFunction*
G04 #@! TA.AperFunction,SMDPad,CuDef*
G36*
G01*
X109749999Y-110087501D02*
X109749999Y-110762501D01*
G75*
G02*
X109687499Y-110825001I-62500J0D01*
G01*
X109562499Y-110825001D01*
G75*
G02*
X109499999Y-110762501I0J62500D01*
G01*
X109499999Y-110087501D01*
G75*
G02*
X109562499Y-110025001I62500J0D01*
G01*
X109687499Y-110025001D01*
G75*
G02*
X109749999Y-110087501I0J-62500D01*
G01*
G37*
G04 #@! TD.AperFunction*
G04 #@! TA.AperFunction,SMDPad,CuDef*
G36*
G01*
X110249999Y-110087501D02*
X110249999Y-110762501D01*
G75*
G02*
X110187499Y-110825001I-62500J0D01*
G01*
X110062499Y-110825001D01*
G75*
G02*
X109999999Y-110762501I0J62500D01*
G01*
X109999999Y-110087501D01*
G75*
G02*
X110062499Y-110025001I62500J0D01*
G01*
X110187499Y-110025001D01*
G75*
G02*
X110249999Y-110087501I0J-62500D01*
G01*
G37*
G04 #@! TD.AperFunction*
G04 #@! TA.AperFunction,SMDPad,CuDef*
G36*
G01*
X110749999Y-110087501D02*
X110749999Y-110762501D01*
G75*
G02*
X110687499Y-110825001I-62500J0D01*
G01*
X110562499Y-110825001D01*
G75*
G02*
X110499999Y-110762501I0J62500D01*
G01*
X110499999Y-110087501D01*
G75*
G02*
X110562499Y-110025001I62500J0D01*
G01*
X110687499Y-110025001D01*
G75*
G02*
X110749999Y-110087501I0J-62500D01*
G01*
G37*
G04 #@! TD.AperFunction*
G04 #@! TA.AperFunction,SMDPad,CuDef*
G36*
G01*
X111249999Y-110087501D02*
X111249999Y-110762501D01*
G75*
G02*
X111187499Y-110825001I-62500J0D01*
G01*
X111062499Y-110825001D01*
G75*
G02*
X110999999Y-110762501I0J62500D01*
G01*
X110999999Y-110087501D01*
G75*
G02*
X111062499Y-110025001I62500J0D01*
G01*
X111187499Y-110025001D01*
G75*
G02*
X111249999Y-110087501I0J-62500D01*
G01*
G37*
G04 #@! TD.AperFunction*
D11*
X109624999Y-112875001D03*
G04 #@! TA.AperFunction,SMDPad,CuDef*
G36*
G01*
X104672500Y-111560000D02*
X104327500Y-111560000D01*
G75*
G02*
X104180000Y-111412500I0J147500D01*
G01*
X104180000Y-111117500D01*
G75*
G02*
X104327500Y-110970000I147500J0D01*
G01*
X104672500Y-110970000D01*
G75*
G02*
X104820000Y-111117500I0J-147500D01*
G01*
X104820000Y-111412500D01*
G75*
G02*
X104672500Y-111560000I-147500J0D01*
G01*
G37*
G04 #@! TD.AperFunction*
G04 #@! TA.AperFunction,SMDPad,CuDef*
G36*
G01*
X104672500Y-112530000D02*
X104327500Y-112530000D01*
G75*
G02*
X104180000Y-112382500I0J147500D01*
G01*
X104180000Y-112087500D01*
G75*
G02*
X104327500Y-111940000I147500J0D01*
G01*
X104672500Y-111940000D01*
G75*
G02*
X104820000Y-112087500I0J-147500D01*
G01*
X104820000Y-112382500D01*
G75*
G02*
X104672500Y-112530000I-147500J0D01*
G01*
G37*
G04 #@! TD.AperFunction*
G04 #@! TA.AperFunction,SMDPad,CuDef*
G36*
G01*
X104327500Y-113940000D02*
X104672500Y-113940000D01*
G75*
G02*
X104820000Y-114087500I0J-147500D01*
G01*
X104820000Y-114382500D01*
G75*
G02*
X104672500Y-114530000I-147500J0D01*
G01*
X104327500Y-114530000D01*
G75*
G02*
X104180000Y-114382500I0J147500D01*
G01*
X104180000Y-114087500D01*
G75*
G02*
X104327500Y-113940000I147500J0D01*
G01*
G37*
G04 #@! TD.AperFunction*
G04 #@! TA.AperFunction,SMDPad,CuDef*
G36*
G01*
X104327500Y-112970000D02*
X104672500Y-112970000D01*
G75*
G02*
X104820000Y-113117500I0J-147500D01*
G01*
X104820000Y-113412500D01*
G75*
G02*
X104672500Y-113560000I-147500J0D01*
G01*
X104327500Y-113560000D01*
G75*
G02*
X104180000Y-113412500I0J147500D01*
G01*
X104180000Y-113117500D01*
G75*
G02*
X104327500Y-112970000I147500J0D01*
G01*
G37*
G04 #@! TD.AperFunction*
G04 #@! TA.AperFunction,SMDPad,CuDef*
G36*
G01*
X114060000Y-115327500D02*
X114060000Y-115672500D01*
G75*
G02*
X113912500Y-115820000I-147500J0D01*
G01*
X113617500Y-115820000D01*
G75*
G02*
X113470000Y-115672500I0J147500D01*
G01*
X113470000Y-115327500D01*
G75*
G02*
X113617500Y-115180000I147500J0D01*
G01*
X113912500Y-115180000D01*
G75*
G02*
X114060000Y-115327500I0J-147500D01*
G01*
G37*
G04 #@! TD.AperFunction*
G04 #@! TA.AperFunction,SMDPad,CuDef*
G36*
G01*
X115030000Y-115327500D02*
X115030000Y-115672500D01*
G75*
G02*
X114882500Y-115820000I-147500J0D01*
G01*
X114587500Y-115820000D01*
G75*
G02*
X114440000Y-115672500I0J147500D01*
G01*
X114440000Y-115327500D01*
G75*
G02*
X114587500Y-115180000I147500J0D01*
G01*
X114882500Y-115180000D01*
G75*
G02*
X115030000Y-115327500I0J-147500D01*
G01*
G37*
G04 #@! TD.AperFunction*
G04 #@! TA.AperFunction,SMDPad,CuDef*
G36*
G01*
X114060000Y-114327500D02*
X114060000Y-114672500D01*
G75*
G02*
X113912500Y-114820000I-147500J0D01*
G01*
X113617500Y-114820000D01*
G75*
G02*
X113470000Y-114672500I0J147500D01*
G01*
X113470000Y-114327500D01*
G75*
G02*
X113617500Y-114180000I147500J0D01*
G01*
X113912500Y-114180000D01*
G75*
G02*
X114060000Y-114327500I0J-147500D01*
G01*
G37*
G04 #@! TD.AperFunction*
G04 #@! TA.AperFunction,SMDPad,CuDef*
G36*
G01*
X115030000Y-114327500D02*
X115030000Y-114672500D01*
G75*
G02*
X114882500Y-114820000I-147500J0D01*
G01*
X114587500Y-114820000D01*
G75*
G02*
X114440000Y-114672500I0J147500D01*
G01*
X114440000Y-114327500D01*
G75*
G02*
X114587500Y-114180000I147500J0D01*
G01*
X114882500Y-114180000D01*
G75*
G02*
X115030000Y-114327500I0J-147500D01*
G01*
G37*
G04 #@! TD.AperFunction*
G04 #@! TA.AperFunction,SMDPad,CuDef*
G36*
G01*
X113950000Y-117356250D02*
X113950000Y-116843750D01*
G75*
G02*
X114168750Y-116625000I218750J0D01*
G01*
X114606250Y-116625000D01*
G75*
G02*
X114825000Y-116843750I0J-218750D01*
G01*
X114825000Y-117356250D01*
G75*
G02*
X114606250Y-117575000I-218750J0D01*
G01*
X114168750Y-117575000D01*
G75*
G02*
X113950000Y-117356250I0J218750D01*
G01*
G37*
G04 #@! TD.AperFunction*
G04 #@! TA.AperFunction,SMDPad,CuDef*
G36*
G01*
X112375000Y-117356250D02*
X112375000Y-116843750D01*
G75*
G02*
X112593750Y-116625000I218750J0D01*
G01*
X113031250Y-116625000D01*
G75*
G02*
X113250000Y-116843750I0J-218750D01*
G01*
X113250000Y-117356250D01*
G75*
G02*
X113031250Y-117575000I-218750J0D01*
G01*
X112593750Y-117575000D01*
G75*
G02*
X112375000Y-117356250I0J218750D01*
G01*
G37*
G04 #@! TD.AperFunction*
D12*
X133000000Y-115570000D03*
X133000000Y-113030000D03*
X133000000Y-110490000D03*
X133000000Y-107950000D03*
X133000000Y-105410000D03*
X133000000Y-102870000D03*
X133000000Y-100330000D03*
X133000000Y-97790000D03*
D13*
X133000000Y-95250000D03*
G04 #@! TA.AperFunction,SMDPad,CuDef*
G36*
G01*
X103509999Y-97174999D02*
X103209999Y-97174999D01*
G75*
G02*
X103059999Y-97024999I0J150000D01*
G01*
X103059999Y-95374999D01*
G75*
G02*
X103209999Y-95224999I150000J0D01*
G01*
X103509999Y-95224999D01*
G75*
G02*
X103659999Y-95374999I0J-150000D01*
G01*
X103659999Y-97024999D01*
G75*
G02*
X103509999Y-97174999I-150000J0D01*
G01*
G37*
G04 #@! TD.AperFunction*
G04 #@! TA.AperFunction,SMDPad,CuDef*
G36*
G01*
X102239999Y-97174999D02*
X101939999Y-97174999D01*
G75*
G02*
X101789999Y-97024999I0J150000D01*
G01*
X101789999Y-95374999D01*
G75*
G02*
X101939999Y-95224999I150000J0D01*
G01*
X102239999Y-95224999D01*
G75*
G02*
X102389999Y-95374999I0J-150000D01*
G01*
X102389999Y-97024999D01*
G75*
G02*
X102239999Y-97174999I-150000J0D01*
G01*
G37*
G04 #@! TD.AperFunction*
G04 #@! TA.AperFunction,SMDPad,CuDef*
G36*
G01*
X100969999Y-97174999D02*
X100669999Y-97174999D01*
G75*
G02*
X100519999Y-97024999I0J150000D01*
G01*
X100519999Y-95374999D01*
G75*
G02*
X100669999Y-95224999I150000J0D01*
G01*
X100969999Y-95224999D01*
G75*
G02*
X101119999Y-95374999I0J-150000D01*
G01*
X101119999Y-97024999D01*
G75*
G02*
X100969999Y-97174999I-150000J0D01*
G01*
G37*
G04 #@! TD.AperFunction*
G04 #@! TA.AperFunction,SMDPad,CuDef*
G36*
G01*
X99699999Y-97174999D02*
X99399999Y-97174999D01*
G75*
G02*
X99249999Y-97024999I0J150000D01*
G01*
X99249999Y-95374999D01*
G75*
G02*
X99399999Y-95224999I150000J0D01*
G01*
X99699999Y-95224999D01*
G75*
G02*
X99849999Y-95374999I0J-150000D01*
G01*
X99849999Y-97024999D01*
G75*
G02*
X99699999Y-97174999I-150000J0D01*
G01*
G37*
G04 #@! TD.AperFunction*
G04 #@! TA.AperFunction,SMDPad,CuDef*
G36*
G01*
X99699999Y-102124999D02*
X99399999Y-102124999D01*
G75*
G02*
X99249999Y-101974999I0J150000D01*
G01*
X99249999Y-100324999D01*
G75*
G02*
X99399999Y-100174999I150000J0D01*
G01*
X99699999Y-100174999D01*
G75*
G02*
X99849999Y-100324999I0J-150000D01*
G01*
X99849999Y-101974999D01*
G75*
G02*
X99699999Y-102124999I-150000J0D01*
G01*
G37*
G04 #@! TD.AperFunction*
G04 #@! TA.AperFunction,SMDPad,CuDef*
G36*
G01*
X100969999Y-102124999D02*
X100669999Y-102124999D01*
G75*
G02*
X100519999Y-101974999I0J150000D01*
G01*
X100519999Y-100324999D01*
G75*
G02*
X100669999Y-100174999I150000J0D01*
G01*
X100969999Y-100174999D01*
G75*
G02*
X101119999Y-100324999I0J-150000D01*
G01*
X101119999Y-101974999D01*
G75*
G02*
X100969999Y-102124999I-150000J0D01*
G01*
G37*
G04 #@! TD.AperFunction*
G04 #@! TA.AperFunction,SMDPad,CuDef*
G36*
G01*
X102239999Y-102124999D02*
X101939999Y-102124999D01*
G75*
G02*
X101789999Y-101974999I0J150000D01*
G01*
X101789999Y-100324999D01*
G75*
G02*
X101939999Y-100174999I150000J0D01*
G01*
X102239999Y-100174999D01*
G75*
G02*
X102389999Y-100324999I0J-150000D01*
G01*
X102389999Y-101974999D01*
G75*
G02*
X102239999Y-102124999I-150000J0D01*
G01*
G37*
G04 #@! TD.AperFunction*
G04 #@! TA.AperFunction,SMDPad,CuDef*
G36*
G01*
X103509999Y-102124999D02*
X103209999Y-102124999D01*
G75*
G02*
X103059999Y-101974999I0J150000D01*
G01*
X103059999Y-100324999D01*
G75*
G02*
X103209999Y-100174999I150000J0D01*
G01*
X103509999Y-100174999D01*
G75*
G02*
X103659999Y-100324999I0J-150000D01*
G01*
X103659999Y-101974999D01*
G75*
G02*
X103509999Y-102124999I-150000J0D01*
G01*
G37*
G04 #@! TD.AperFunction*
G04 #@! TA.AperFunction,SMDPad,CuDef*
G36*
G01*
X97577500Y-98690000D02*
X97922500Y-98690000D01*
G75*
G02*
X98070000Y-98837500I0J-147500D01*
G01*
X98070000Y-99132500D01*
G75*
G02*
X97922500Y-99280000I-147500J0D01*
G01*
X97577500Y-99280000D01*
G75*
G02*
X97430000Y-99132500I0J147500D01*
G01*
X97430000Y-98837500D01*
G75*
G02*
X97577500Y-98690000I147500J0D01*
G01*
G37*
G04 #@! TD.AperFunction*
G04 #@! TA.AperFunction,SMDPad,CuDef*
G36*
G01*
X97577500Y-97720000D02*
X97922500Y-97720000D01*
G75*
G02*
X98070000Y-97867500I0J-147500D01*
G01*
X98070000Y-98162500D01*
G75*
G02*
X97922500Y-98310000I-147500J0D01*
G01*
X97577500Y-98310000D01*
G75*
G02*
X97430000Y-98162500I0J147500D01*
G01*
X97430000Y-97867500D01*
G75*
G02*
X97577500Y-97720000I147500J0D01*
G01*
G37*
G04 #@! TD.AperFunction*
G04 #@! TA.AperFunction,SMDPad,CuDef*
G36*
G01*
X97577500Y-100690000D02*
X97922500Y-100690000D01*
G75*
G02*
X98070000Y-100837500I0J-147500D01*
G01*
X98070000Y-101132500D01*
G75*
G02*
X97922500Y-101280000I-147500J0D01*
G01*
X97577500Y-101280000D01*
G75*
G02*
X97430000Y-101132500I0J147500D01*
G01*
X97430000Y-100837500D01*
G75*
G02*
X97577500Y-100690000I147500J0D01*
G01*
G37*
G04 #@! TD.AperFunction*
G04 #@! TA.AperFunction,SMDPad,CuDef*
G36*
G01*
X97577500Y-99720000D02*
X97922500Y-99720000D01*
G75*
G02*
X98070000Y-99867500I0J-147500D01*
G01*
X98070000Y-100162500D01*
G75*
G02*
X97922500Y-100310000I-147500J0D01*
G01*
X97577500Y-100310000D01*
G75*
G02*
X97430000Y-100162500I0J147500D01*
G01*
X97430000Y-99867500D01*
G75*
G02*
X97577500Y-99720000I147500J0D01*
G01*
G37*
G04 #@! TD.AperFunction*
G04 #@! TA.AperFunction,SMDPad,CuDef*
G36*
G01*
X96922500Y-96060000D02*
X96577500Y-96060000D01*
G75*
G02*
X96430000Y-95912500I0J147500D01*
G01*
X96430000Y-95617500D01*
G75*
G02*
X96577500Y-95470000I147500J0D01*
G01*
X96922500Y-95470000D01*
G75*
G02*
X97070000Y-95617500I0J-147500D01*
G01*
X97070000Y-95912500D01*
G75*
G02*
X96922500Y-96060000I-147500J0D01*
G01*
G37*
G04 #@! TD.AperFunction*
G04 #@! TA.AperFunction,SMDPad,CuDef*
G36*
G01*
X96922500Y-97030000D02*
X96577500Y-97030000D01*
G75*
G02*
X96430000Y-96882500I0J147500D01*
G01*
X96430000Y-96587500D01*
G75*
G02*
X96577500Y-96440000I147500J0D01*
G01*
X96922500Y-96440000D01*
G75*
G02*
X97070000Y-96587500I0J-147500D01*
G01*
X97070000Y-96882500D01*
G75*
G02*
X96922500Y-97030000I-147500J0D01*
G01*
G37*
G04 #@! TD.AperFunction*
G04 #@! TA.AperFunction,SMDPad,CuDef*
G36*
G01*
X95060000Y-95577500D02*
X95060000Y-95922500D01*
G75*
G02*
X94912500Y-96070000I-147500J0D01*
G01*
X94617500Y-96070000D01*
G75*
G02*
X94470000Y-95922500I0J147500D01*
G01*
X94470000Y-95577500D01*
G75*
G02*
X94617500Y-95430000I147500J0D01*
G01*
X94912500Y-95430000D01*
G75*
G02*
X95060000Y-95577500I0J-147500D01*
G01*
G37*
G04 #@! TD.AperFunction*
G04 #@! TA.AperFunction,SMDPad,CuDef*
G36*
G01*
X96030000Y-95577500D02*
X96030000Y-95922500D01*
G75*
G02*
X95882500Y-96070000I-147500J0D01*
G01*
X95587500Y-96070000D01*
G75*
G02*
X95440000Y-95922500I0J147500D01*
G01*
X95440000Y-95577500D01*
G75*
G02*
X95587500Y-95430000I147500J0D01*
G01*
X95882500Y-95430000D01*
G75*
G02*
X96030000Y-95577500I0J-147500D01*
G01*
G37*
G04 #@! TD.AperFunction*
D12*
X97090000Y-118000000D03*
X99630000Y-118000000D03*
X102170000Y-118000000D03*
X104710000Y-118000000D03*
D13*
X107250000Y-118000000D03*
D12*
X99710000Y-93500000D03*
D13*
X102250000Y-93500000D03*
D12*
X124040000Y-92250000D03*
D13*
X121500000Y-92250000D03*
D14*
X125820000Y-118050000D03*
X117180000Y-118050000D03*
D15*
X117180000Y-113870000D03*
X125820000Y-113870000D03*
D12*
X93450000Y-118000000D03*
X90910000Y-118000000D03*
X88370000Y-118000000D03*
X85830000Y-118000000D03*
X83290000Y-118000000D03*
D13*
X80750000Y-118000000D03*
G04 #@! TA.AperFunction,SMDPad,CuDef*
G36*
G01*
X97060000Y-102077500D02*
X97060000Y-102422500D01*
G75*
G02*
X96912500Y-102570000I-147500J0D01*
G01*
X96617500Y-102570000D01*
G75*
G02*
X96470000Y-102422500I0J147500D01*
G01*
X96470000Y-102077500D01*
G75*
G02*
X96617500Y-101930000I147500J0D01*
G01*
X96912500Y-101930000D01*
G75*
G02*
X97060000Y-102077500I0J-147500D01*
G01*
G37*
G04 #@! TD.AperFunction*
G04 #@! TA.AperFunction,SMDPad,CuDef*
G36*
G01*
X98030000Y-102077500D02*
X98030000Y-102422500D01*
G75*
G02*
X97882500Y-102570000I-147500J0D01*
G01*
X97587500Y-102570000D01*
G75*
G02*
X97440000Y-102422500I0J147500D01*
G01*
X97440000Y-102077500D01*
G75*
G02*
X97587500Y-101930000I147500J0D01*
G01*
X97882500Y-101930000D01*
G75*
G02*
X98030000Y-102077500I0J-147500D01*
G01*
G37*
G04 #@! TD.AperFunction*
G04 #@! TA.AperFunction,SMDPad,CuDef*
G36*
G01*
X96922500Y-100310000D02*
X96577500Y-100310000D01*
G75*
G02*
X96430000Y-100162500I0J147500D01*
G01*
X96430000Y-99867500D01*
G75*
G02*
X96577500Y-99720000I147500J0D01*
G01*
X96922500Y-99720000D01*
G75*
G02*
X97070000Y-99867500I0J-147500D01*
G01*
X97070000Y-100162500D01*
G75*
G02*
X96922500Y-100310000I-147500J0D01*
G01*
G37*
G04 #@! TD.AperFunction*
G04 #@! TA.AperFunction,SMDPad,CuDef*
G36*
G01*
X96922500Y-101280000D02*
X96577500Y-101280000D01*
G75*
G02*
X96430000Y-101132500I0J147500D01*
G01*
X96430000Y-100837500D01*
G75*
G02*
X96577500Y-100690000I147500J0D01*
G01*
X96922500Y-100690000D01*
G75*
G02*
X97070000Y-100837500I0J-147500D01*
G01*
X97070000Y-101132500D01*
G75*
G02*
X96922500Y-101280000I-147500J0D01*
G01*
G37*
G04 #@! TD.AperFunction*
G04 #@! TA.AperFunction,SMDPad,CuDef*
G36*
G01*
X97577500Y-96440000D02*
X97922500Y-96440000D01*
G75*
G02*
X98070000Y-96587500I0J-147500D01*
G01*
X98070000Y-96882500D01*
G75*
G02*
X97922500Y-97030000I-147500J0D01*
G01*
X97577500Y-97030000D01*
G75*
G02*
X97430000Y-96882500I0J147500D01*
G01*
X97430000Y-96587500D01*
G75*
G02*
X97577500Y-96440000I147500J0D01*
G01*
G37*
G04 #@! TD.AperFunction*
G04 #@! TA.AperFunction,SMDPad,CuDef*
G36*
G01*
X97577500Y-95470000D02*
X97922500Y-95470000D01*
G75*
G02*
X98070000Y-95617500I0J-147500D01*
G01*
X98070000Y-95912500D01*
G75*
G02*
X97922500Y-96060000I-147500J0D01*
G01*
X97577500Y-96060000D01*
G75*
G02*
X97430000Y-95912500I0J147500D01*
G01*
X97430000Y-95617500D01*
G75*
G02*
X97577500Y-95470000I147500J0D01*
G01*
G37*
G04 #@! TD.AperFunction*
G04 #@! TA.AperFunction,SMDPad,CuDef*
G36*
G01*
X95440000Y-96922500D02*
X95440000Y-96577500D01*
G75*
G02*
X95587500Y-96430000I147500J0D01*
G01*
X95882500Y-96430000D01*
G75*
G02*
X96030000Y-96577500I0J-147500D01*
G01*
X96030000Y-96922500D01*
G75*
G02*
X95882500Y-97070000I-147500J0D01*
G01*
X95587500Y-97070000D01*
G75*
G02*
X95440000Y-96922500I0J147500D01*
G01*
G37*
G04 #@! TD.AperFunction*
G04 #@! TA.AperFunction,SMDPad,CuDef*
G36*
G01*
X94470000Y-96922500D02*
X94470000Y-96577500D01*
G75*
G02*
X94617500Y-96430000I147500J0D01*
G01*
X94912500Y-96430000D01*
G75*
G02*
X95060000Y-96577500I0J-147500D01*
G01*
X95060000Y-96922500D01*
G75*
G02*
X94912500Y-97070000I-147500J0D01*
G01*
X94617500Y-97070000D01*
G75*
G02*
X94470000Y-96922500I0J147500D01*
G01*
G37*
G04 #@! TD.AperFunction*
D16*
X84500000Y-103250000D03*
X85750000Y-103250000D03*
X85750000Y-102000000D03*
X84500000Y-102000000D03*
X106000000Y-97750000D03*
X105250000Y-97750000D03*
X115000000Y-117500000D03*
X114250000Y-117500000D03*
X115500000Y-114500000D03*
X102250000Y-97000000D03*
X111000000Y-119000000D03*
X110000000Y-119000000D03*
X112000000Y-119000000D03*
D17*
X109000000Y-113400000D03*
X110300000Y-113400000D03*
X110300000Y-112200000D03*
X109000000Y-112200000D03*
D16*
X93000000Y-96750000D03*
X83485000Y-114985000D03*
X122000000Y-99000000D03*
X122750000Y-99000000D03*
X123500000Y-99000000D03*
X122750000Y-96500000D03*
X119187500Y-98312500D03*
X120000000Y-98312500D03*
X96300000Y-108500000D03*
X76500000Y-91250000D03*
X76500000Y-93250000D03*
X76500000Y-95250000D03*
X76500000Y-97250000D03*
X76500000Y-99250000D03*
X76500000Y-101250000D03*
X76500000Y-103250000D03*
X76500000Y-105250000D03*
X76500000Y-107250000D03*
X76500000Y-109250000D03*
X76500000Y-111250000D03*
X76500000Y-113250000D03*
X76500000Y-115250000D03*
X76500000Y-117250000D03*
X76500000Y-119250000D03*
X106000000Y-91250000D03*
X108540000Y-91250000D03*
X111080000Y-91250000D03*
X113620000Y-91250000D03*
X116160000Y-91250000D03*
X119000000Y-96500000D03*
X120000000Y-96500000D03*
X128750000Y-96500000D03*
X129750000Y-96500000D03*
X128750000Y-97500000D03*
X129750000Y-97500000D03*
X97750000Y-93750000D03*
X97750000Y-94750000D03*
X101000000Y-97000000D03*
D18*
X79015000Y-107500000D03*
D16*
X114750000Y-95250000D03*
D17*
X104712500Y-94187500D03*
D16*
X113985000Y-104985000D03*
X83575000Y-107175000D03*
X119500000Y-115500000D03*
X86650000Y-112350000D03*
X98150000Y-110050000D03*
X125000000Y-96750000D03*
X117000000Y-99500000D03*
X115000000Y-103750000D03*
X88000000Y-109000000D03*
X98449989Y-115550011D03*
X84095000Y-96905000D03*
X85250000Y-97000000D03*
X86750000Y-97250000D03*
X88500000Y-97500000D03*
X89750000Y-97750000D03*
X89000000Y-96000000D03*
X91250000Y-97250000D03*
X120500000Y-111500000D03*
X121475000Y-111525000D03*
X98233051Y-109183051D03*
X84095000Y-109095000D03*
X92500000Y-113000000D03*
X98850000Y-111350002D03*
X92750000Y-98250000D03*
X92500000Y-99250000D03*
X80100000Y-103100000D03*
X80800000Y-102300000D03*
X103515000Y-114235000D03*
X111100000Y-109400000D03*
X112200000Y-115900000D03*
X110624999Y-117075001D03*
D19*
X110124999Y-112375001D02*
X109624999Y-112875001D01*
X112074999Y-112375001D02*
X110124999Y-112375001D01*
X93750000Y-96750000D02*
X93750000Y-96750000D01*
X94765000Y-96750000D02*
X93000000Y-96750000D01*
X114735000Y-114500000D02*
X115500000Y-114500000D01*
X90900000Y-116600000D02*
X89770000Y-116600000D01*
X92400000Y-115100000D02*
X90900000Y-116600000D01*
X97500000Y-115100000D02*
X92400000Y-115100000D01*
X101000000Y-111600000D02*
X97500000Y-115100000D01*
X89770000Y-116600000D02*
X88370000Y-118000000D01*
X101000000Y-111600000D02*
X101000000Y-111050000D01*
X133000000Y-95250000D02*
X114750000Y-95250000D01*
X114750000Y-95250000D02*
X114750000Y-95250000D01*
D20*
X104750000Y-92800000D02*
X104750000Y-94150000D01*
X103200000Y-91250000D02*
X104750000Y-92800000D01*
X82750000Y-91250000D02*
X103200000Y-91250000D01*
X79015000Y-107500000D02*
X79015000Y-94985000D01*
X79015000Y-94985000D02*
X82750000Y-91250000D01*
D19*
X113985000Y-104985000D02*
X111719870Y-104985000D01*
X109554849Y-107150019D02*
X83599981Y-107150019D01*
X111719870Y-104985000D02*
X109554849Y-107150019D01*
X112074999Y-114375001D02*
X111124999Y-115325001D01*
D21*
X112812500Y-117100000D02*
X111700000Y-117100000D01*
X111124999Y-116524999D02*
X111124999Y-115325001D01*
X111700000Y-117100000D02*
X111124999Y-116524999D01*
D19*
X112812500Y-117100000D02*
X112812500Y-117812500D01*
X112812500Y-117812500D02*
X113500000Y-118500000D01*
X113500000Y-118500000D02*
X115250000Y-118500000D01*
X115250000Y-118500000D02*
X115750000Y-118000000D01*
X115750000Y-118000000D02*
X115750000Y-116750000D01*
X115750000Y-116750000D02*
X116500000Y-116000000D01*
X116500000Y-116000000D02*
X119000000Y-116000000D01*
X119000000Y-116000000D02*
X119500000Y-115500000D01*
X119500000Y-115500000D02*
X119500000Y-115500000D01*
X95735000Y-96750000D02*
X95735000Y-95750000D01*
X96735000Y-95750000D02*
X96750000Y-95765000D01*
X95735000Y-95750000D02*
X96735000Y-95750000D01*
X96750000Y-100015000D02*
X96750000Y-96735000D01*
X97750000Y-96735000D02*
X96750000Y-96735000D01*
X97750000Y-100985000D02*
X96750000Y-100985000D01*
X102089999Y-101149999D02*
X100819999Y-101149999D01*
X97735000Y-102250000D02*
X98500000Y-102250000D01*
X98500000Y-102250000D02*
X99000000Y-102750000D01*
X99000000Y-102750000D02*
X100500000Y-102750000D01*
X100819999Y-102430001D02*
X100819999Y-101149999D01*
X100500000Y-102750000D02*
X100819999Y-102430001D01*
X96700000Y-111500000D02*
X98150000Y-110050000D01*
X86650000Y-112400000D02*
X87550000Y-111500000D01*
X87550000Y-111500000D02*
X96700000Y-111500000D01*
X125000000Y-96750000D02*
X124250000Y-97500000D01*
X124250000Y-97500000D02*
X118250000Y-97500000D01*
X118250000Y-97500000D02*
X117250000Y-98500000D01*
X117250000Y-98500000D02*
X117000000Y-98750000D01*
X117000000Y-98750000D02*
X117000000Y-99500000D01*
X117000000Y-99500000D02*
X117000000Y-99500000D01*
X88000000Y-109000000D02*
X88000000Y-109000000D01*
X88000000Y-108200000D02*
X88000000Y-109000000D01*
X88599971Y-107600029D02*
X88000000Y-108200000D01*
X115000000Y-105000000D02*
X114250000Y-105750000D01*
X114250000Y-105750000D02*
X111591279Y-105750000D01*
X115000000Y-103750000D02*
X115000000Y-105000000D01*
X111591279Y-105750000D02*
X109741249Y-107600029D01*
X109741249Y-107600029D02*
X88599971Y-107600029D01*
X93359989Y-115550011D02*
X90910000Y-118000000D01*
X98449989Y-115550011D02*
X93359989Y-115550011D01*
X100204990Y-115550011D02*
X101000000Y-114755001D01*
X98449989Y-115550011D02*
X100204990Y-115550011D01*
X120480040Y-103050040D02*
X113018420Y-103050040D01*
X84095000Y-99254230D02*
X84095000Y-96905000D01*
X133000000Y-115570000D02*
X120480040Y-103050040D01*
X113018420Y-103050040D02*
X109368450Y-106700010D01*
X109368450Y-106700010D02*
X91540779Y-106700009D01*
X91540779Y-106700009D02*
X84095000Y-99254230D01*
X85250000Y-99772820D02*
X85250000Y-97000000D01*
X133000000Y-113030000D02*
X122570030Y-102600030D01*
X112832020Y-102600030D02*
X109182050Y-106250000D01*
X109182050Y-106250000D02*
X91727180Y-106250000D01*
X122570030Y-102600030D02*
X112832020Y-102600030D01*
X91727180Y-106250000D02*
X85250000Y-99772820D01*
X86750000Y-100636410D02*
X86750000Y-97250000D01*
X133000000Y-110490000D02*
X124660020Y-102150020D01*
X109045640Y-105750000D02*
X91863590Y-105750000D01*
X112645620Y-102150020D02*
X109045640Y-105750000D01*
X124660020Y-102150020D02*
X112645620Y-102150020D01*
X91863590Y-105750000D02*
X86750000Y-100636410D01*
X88500000Y-101750000D02*
X88500000Y-97500000D01*
X133000000Y-107950000D02*
X126750010Y-101700010D01*
X108909230Y-105250000D02*
X92000000Y-105250000D01*
X112459220Y-101700010D02*
X108909230Y-105250000D01*
X126750010Y-101700010D02*
X112459220Y-101700010D01*
X92000000Y-105250000D02*
X88500000Y-101750000D01*
X92252178Y-104750000D02*
X89750000Y-102247822D01*
X128820020Y-101230020D02*
X112292800Y-101230020D01*
X133000000Y-105410000D02*
X128820020Y-101230020D01*
X112292800Y-101230020D02*
X108772820Y-104750000D01*
X108772820Y-104750000D02*
X92252178Y-104750000D01*
X89750000Y-102247822D02*
X89750000Y-97750000D01*
X89000000Y-96000000D02*
X89000000Y-96000000D01*
X90624998Y-97624998D02*
X89000000Y-96000000D01*
X92338598Y-104200011D02*
X90624998Y-102486411D01*
X108686400Y-104200011D02*
X92338598Y-104200011D01*
X112106399Y-100780011D02*
X108686400Y-104200011D01*
X90624998Y-102486411D02*
X90624998Y-97624998D01*
X133000000Y-102870000D02*
X130910011Y-100780011D01*
X130910011Y-100780011D02*
X112106399Y-100780011D01*
X108500000Y-103750000D02*
X92524998Y-103750000D01*
X92524998Y-103750000D02*
X91250000Y-102475002D01*
X91250000Y-102475002D02*
X91250000Y-97250000D01*
X133000000Y-100330000D02*
X111920000Y-100330000D01*
X108500000Y-103750000D02*
X111920000Y-100330000D01*
X120500000Y-111500000D02*
X120500000Y-111500000D01*
X114735000Y-113250000D02*
X115386410Y-113250000D01*
X115386410Y-113250000D02*
X117136410Y-111500000D01*
X117136410Y-111500000D02*
X120500000Y-111500000D01*
X120850000Y-110850000D02*
X121500000Y-111500000D01*
X114735000Y-112250000D02*
X115750000Y-112250000D01*
X117150000Y-110850000D02*
X120850000Y-110850000D01*
X115750000Y-112250000D02*
X117150000Y-110850000D01*
X99549999Y-96199999D02*
X99549999Y-97700001D01*
X99235000Y-98015000D02*
X97750000Y-98015000D01*
X99549999Y-97700001D02*
X99235000Y-98015000D01*
X99710000Y-96039998D02*
X99549999Y-96199999D01*
X99710000Y-93500000D02*
X99710000Y-96039998D01*
X103359999Y-94609999D02*
X103359999Y-96199999D01*
X102250000Y-93500000D02*
X103359999Y-94609999D01*
X86000000Y-111000000D02*
X84095000Y-109095000D01*
X98233051Y-109183051D02*
X97808787Y-109183051D01*
X97808787Y-109183051D02*
X95991838Y-111000000D01*
X95991838Y-111000000D02*
X86000000Y-111000000D01*
X92500000Y-113000000D02*
X97200002Y-113000000D01*
X97200002Y-113000000D02*
X98850000Y-111350002D01*
X92500000Y-98000000D02*
X92500000Y-98000000D01*
X92325001Y-96499995D02*
X92325001Y-97825001D01*
X93074996Y-95750000D02*
X92325001Y-96499995D01*
X94765000Y-95750000D02*
X93074996Y-95750000D01*
X92325001Y-97825001D02*
X92750000Y-98250000D01*
X97750000Y-98985000D02*
X97750000Y-100015000D01*
X99549999Y-101149999D02*
X99549999Y-99549999D01*
X98985000Y-98985000D02*
X97750000Y-98985000D01*
X99549999Y-99549999D02*
X98985000Y-98985000D01*
X102284988Y-103200010D02*
X96450010Y-103200010D01*
X96450010Y-103200010D02*
X92500000Y-99250000D01*
X103359999Y-101149999D02*
X103359999Y-102124999D01*
X103359999Y-102124999D02*
X102284988Y-103200010D01*
X92500000Y-99250000D02*
X92500000Y-99250000D01*
X113040001Y-113875001D02*
X113665000Y-114500000D01*
X112074999Y-113875001D02*
X113040001Y-113875001D01*
X113665000Y-115500000D02*
X113665000Y-114500000D01*
X100224999Y-110486414D02*
X100224999Y-111636414D01*
X109249990Y-108749990D02*
X101961423Y-108749990D01*
X100224999Y-111636414D02*
X97461412Y-114400001D01*
X89429999Y-114400001D02*
X85830000Y-118000000D01*
X109624999Y-109124999D02*
X109249990Y-108749990D01*
X101961423Y-108749990D02*
X100224999Y-110486414D01*
X109624999Y-110425001D02*
X109624999Y-109124999D01*
X97461412Y-114400001D02*
X89429999Y-114400001D01*
X84480000Y-119350000D02*
X85830000Y-118000000D01*
X82800000Y-119350000D02*
X84480000Y-119350000D01*
X82000000Y-118550000D02*
X82800000Y-119350000D01*
X82000000Y-117450000D02*
X82000000Y-118550000D01*
X82800000Y-116650000D02*
X82000000Y-117450000D01*
X80100000Y-107400000D02*
X84250000Y-111550000D01*
X83676795Y-116650000D02*
X82800000Y-116650000D01*
X84250000Y-111550000D02*
X84250000Y-116076795D01*
X80100000Y-103100000D02*
X80100000Y-107400000D01*
X84250000Y-116076795D02*
X83676795Y-116650000D01*
X110124999Y-108988589D02*
X109436390Y-108299980D01*
X110124999Y-110425001D02*
X110124999Y-108988589D01*
X101950020Y-108299980D02*
X101878607Y-108299981D01*
X109436390Y-108299980D02*
X101950020Y-108299980D01*
X80800000Y-107400000D02*
X80800000Y-102300000D01*
X84750000Y-111350000D02*
X80800000Y-107400000D01*
X83290000Y-118000000D02*
X84750000Y-116540000D01*
X84750000Y-116540000D02*
X84750000Y-111350000D01*
X97475002Y-113750000D02*
X84750000Y-113750000D01*
X101950020Y-108299980D02*
X101775022Y-108299980D01*
X101775022Y-108299980D02*
X99774988Y-110300014D01*
X99774988Y-111450014D02*
X97475002Y-113750000D01*
X99774988Y-110300014D02*
X99774988Y-111450014D01*
X109124999Y-109976979D02*
X109124999Y-110425001D01*
X104450000Y-110050000D02*
X103000000Y-110050000D01*
X104500000Y-110100000D02*
X104450000Y-110050000D01*
X104500000Y-111265000D02*
X104500000Y-110100000D01*
X105400000Y-109200000D02*
X104500000Y-110100000D01*
X109000000Y-109200000D02*
X105400000Y-109200000D01*
X109124999Y-110425001D02*
X109124999Y-109324999D01*
X109124999Y-109324999D02*
X109000000Y-109200000D01*
X103185000Y-111950000D02*
X104500000Y-113265000D01*
X103000000Y-111950000D02*
X103185000Y-111950000D01*
X103429999Y-114235000D02*
X103515000Y-114235000D01*
X103000000Y-113805001D02*
X103429999Y-114235000D01*
X103515000Y-114235000D02*
X104500000Y-114235000D01*
X111100000Y-110400002D02*
X111124999Y-110425001D01*
X111100000Y-109400000D02*
X111100000Y-110400002D01*
X104500000Y-112235000D02*
X104985000Y-112235000D01*
X104985000Y-112235000D02*
X105400000Y-112650000D01*
X105400000Y-112650000D02*
X105400000Y-114950000D01*
X104644999Y-115705001D02*
X103000000Y-115705001D01*
X105400000Y-114950000D02*
X104644999Y-115705001D01*
D21*
X114300000Y-116200000D02*
X112500000Y-116200000D01*
X114635000Y-115500000D02*
X114635000Y-115865000D01*
X114635000Y-115865000D02*
X114300000Y-116200000D01*
D19*
X112500000Y-116200000D02*
X112200000Y-115900000D01*
X112200000Y-115900000D02*
X112200000Y-115900000D01*
X110624999Y-115325001D02*
X110624999Y-117075001D01*
X110624999Y-117075001D02*
X110624999Y-117075001D01*
X113639999Y-113375001D02*
X113765000Y-113250000D01*
X112074999Y-113375001D02*
X113639999Y-113375001D01*
X112074999Y-112875001D02*
X112874999Y-112875001D01*
X112874999Y-112875001D02*
X113500000Y-112250000D01*
D21*
G36*
X134594001Y-119594000D02*
G01*
X84951591Y-119594000D01*
X85393833Y-119151758D01*
X85470931Y-119183693D01*
X85708757Y-119231000D01*
X85951243Y-119231000D01*
X86189069Y-119183693D01*
X86413097Y-119090898D01*
X86614717Y-118956180D01*
X86786180Y-118784717D01*
X86920898Y-118583097D01*
X87013693Y-118359069D01*
X87061000Y-118121243D01*
X87061000Y-117878757D01*
X87013693Y-117640931D01*
X86981758Y-117563833D01*
X89639591Y-114906001D01*
X91878407Y-114906001D01*
X90690409Y-116094000D01*
X89794846Y-116094000D01*
X89770000Y-116091553D01*
X89745154Y-116094000D01*
X89745146Y-116094000D01*
X89670807Y-116101322D01*
X89575425Y-116130255D01*
X89487521Y-116177241D01*
X89410473Y-116240473D01*
X89394629Y-116259779D01*
X88806167Y-116848242D01*
X88729069Y-116816307D01*
X88491243Y-116769000D01*
X88248757Y-116769000D01*
X88010931Y-116816307D01*
X87786903Y-116909102D01*
X87585283Y-117043820D01*
X87413820Y-117215283D01*
X87279102Y-117416903D01*
X87186307Y-117640931D01*
X87139000Y-117878757D01*
X87139000Y-118121243D01*
X87186307Y-118359069D01*
X87279102Y-118583097D01*
X87413820Y-118784717D01*
X87585283Y-118956180D01*
X87786903Y-119090898D01*
X88010931Y-119183693D01*
X88248757Y-119231000D01*
X88491243Y-119231000D01*
X88729069Y-119183693D01*
X88953097Y-119090898D01*
X89154717Y-118956180D01*
X89326180Y-118784717D01*
X89460898Y-118583097D01*
X89553693Y-118359069D01*
X89601000Y-118121243D01*
X89601000Y-117878757D01*
X89553693Y-117640931D01*
X89521758Y-117563833D01*
X89979592Y-117106000D01*
X90063103Y-117106000D01*
X89953820Y-117215283D01*
X89819102Y-117416903D01*
X89726307Y-117640931D01*
X89679000Y-117878757D01*
X89679000Y-118121243D01*
X89726307Y-118359069D01*
X89819102Y-118583097D01*
X89953820Y-118784717D01*
X90125283Y-118956180D01*
X90326903Y-119090898D01*
X90550931Y-119183693D01*
X90788757Y-119231000D01*
X91031243Y-119231000D01*
X91269069Y-119183693D01*
X91493097Y-119090898D01*
X91694717Y-118956180D01*
X91866180Y-118784717D01*
X92000898Y-118583097D01*
X92093693Y-118359069D01*
X92141000Y-118121243D01*
X92141000Y-117878757D01*
X92219000Y-117878757D01*
X92219000Y-118121243D01*
X92266307Y-118359069D01*
X92359102Y-118583097D01*
X92493820Y-118784717D01*
X92665283Y-118956180D01*
X92866903Y-119090898D01*
X93090931Y-119183693D01*
X93328757Y-119231000D01*
X93571243Y-119231000D01*
X93809069Y-119183693D01*
X94033097Y-119090898D01*
X94234717Y-118956180D01*
X94406180Y-118784717D01*
X94540898Y-118583097D01*
X94633693Y-118359069D01*
X94681000Y-118121243D01*
X94681000Y-117878757D01*
X95859000Y-117878757D01*
X95859000Y-118121243D01*
X95906307Y-118359069D01*
X95999102Y-118583097D01*
X96133820Y-118784717D01*
X96305283Y-118956180D01*
X96506903Y-119090898D01*
X96730931Y-119183693D01*
X96968757Y-119231000D01*
X97211243Y-119231000D01*
X97449069Y-119183693D01*
X97673097Y-119090898D01*
X97874717Y-118956180D01*
X98046180Y-118784717D01*
X98180898Y-118583097D01*
X98273693Y-118359069D01*
X98321000Y-118121243D01*
X98321000Y-117878757D01*
X98399000Y-117878757D01*
X98399000Y-118121243D01*
X98446307Y-118359069D01*
X98539102Y-118583097D01*
X98673820Y-118784717D01*
X98845283Y-118956180D01*
X99046903Y-119090898D01*
X99270931Y-119183693D01*
X99508757Y-119231000D01*
X99751243Y-119231000D01*
X99989069Y-119183693D01*
X100213097Y-119090898D01*
X100414717Y-118956180D01*
X100586180Y-118784717D01*
X100720898Y-118583097D01*
X100813693Y-118359069D01*
X100861000Y-118121243D01*
X100861000Y-117878757D01*
X100939000Y-117878757D01*
X100939000Y-118121243D01*
X100986307Y-118359069D01*
X101079102Y-118583097D01*
X101213820Y-118784717D01*
X101385283Y-118956180D01*
X101586903Y-119090898D01*
X101810931Y-119183693D01*
X102048757Y-119231000D01*
X102291243Y-119231000D01*
X102529069Y-119183693D01*
X102753097Y-119090898D01*
X102954717Y-118956180D01*
X103126180Y-118784717D01*
X103260898Y-118583097D01*
X103353693Y-118359069D01*
X103401000Y-118121243D01*
X103401000Y-117878757D01*
X103479000Y-117878757D01*
X103479000Y-118121243D01*
X103526307Y-118359069D01*
X103619102Y-118583097D01*
X103753820Y-118784717D01*
X103925283Y-118956180D01*
X104126903Y-119090898D01*
X104350931Y-119183693D01*
X104588757Y-119231000D01*
X104831243Y-119231000D01*
X105069069Y-119183693D01*
X105293097Y-119090898D01*
X105494717Y-118956180D01*
X105666180Y-118784717D01*
X105800898Y-118583097D01*
X105893693Y-118359069D01*
X105941000Y-118121243D01*
X105941000Y-117878757D01*
X105893693Y-117640931D01*
X105800898Y-117416903D01*
X105666180Y-117215283D01*
X105494717Y-117043820D01*
X105293097Y-116909102D01*
X105069069Y-116816307D01*
X104831243Y-116769000D01*
X104588757Y-116769000D01*
X104350931Y-116816307D01*
X104126903Y-116909102D01*
X103925283Y-117043820D01*
X103753820Y-117215283D01*
X103619102Y-117416903D01*
X103526307Y-117640931D01*
X103479000Y-117878757D01*
X103401000Y-117878757D01*
X103353693Y-117640931D01*
X103260898Y-117416903D01*
X103126180Y-117215283D01*
X102954717Y-117043820D01*
X102753097Y-116909102D01*
X102529069Y-116816307D01*
X102291243Y-116769000D01*
X102048757Y-116769000D01*
X101810931Y-116816307D01*
X101586903Y-116909102D01*
X101385283Y-117043820D01*
X101213820Y-117215283D01*
X101079102Y-117416903D01*
X100986307Y-117640931D01*
X100939000Y-117878757D01*
X100861000Y-117878757D01*
X100813693Y-117640931D01*
X100720898Y-117416903D01*
X100586180Y-117215283D01*
X100414717Y-117043820D01*
X100213097Y-116909102D01*
X99989069Y-116816307D01*
X99751243Y-116769000D01*
X99508757Y-116769000D01*
X99270931Y-116816307D01*
X99046903Y-116909102D01*
X98845283Y-117043820D01*
X98673820Y-117215283D01*
X98539102Y-117416903D01*
X98446307Y-117640931D01*
X98399000Y-117878757D01*
X98321000Y-117878757D01*
X98273693Y-117640931D01*
X98180898Y-117416903D01*
X98046180Y-117215283D01*
X97874717Y-117043820D01*
X97673097Y-116909102D01*
X97449069Y-116816307D01*
X97211243Y-116769000D01*
X96968757Y-116769000D01*
X96730931Y-116816307D01*
X96506903Y-116909102D01*
X96305283Y-117043820D01*
X96133820Y-117215283D01*
X95999102Y-117416903D01*
X95906307Y-117640931D01*
X95859000Y-117878757D01*
X94681000Y-117878757D01*
X94633693Y-117640931D01*
X94540898Y-117416903D01*
X94406180Y-117215283D01*
X94234717Y-117043820D01*
X94033097Y-116909102D01*
X93809069Y-116816307D01*
X93571243Y-116769000D01*
X93328757Y-116769000D01*
X93090931Y-116816307D01*
X92866903Y-116909102D01*
X92665283Y-117043820D01*
X92493820Y-117215283D01*
X92359102Y-117416903D01*
X92266307Y-117640931D01*
X92219000Y-117878757D01*
X92141000Y-117878757D01*
X92093693Y-117640931D01*
X92061758Y-117563833D01*
X93569581Y-116056011D01*
X97992910Y-116056011D01*
X98015877Y-116078978D01*
X98127415Y-116153505D01*
X98251349Y-116204840D01*
X98382916Y-116231011D01*
X98517062Y-116231011D01*
X98648629Y-116204840D01*
X98772563Y-116153505D01*
X98884101Y-116078978D01*
X98907068Y-116056011D01*
X100180144Y-116056011D01*
X100204990Y-116058458D01*
X100229836Y-116056011D01*
X100229844Y-116056011D01*
X100304183Y-116048689D01*
X100399565Y-116019756D01*
X100487469Y-115972770D01*
X100564517Y-115909538D01*
X100580366Y-115890226D01*
X100932748Y-115537844D01*
X101450000Y-115537844D01*
X101524689Y-115530488D01*
X101596508Y-115508702D01*
X101662696Y-115473323D01*
X101720711Y-115425712D01*
X101768322Y-115367697D01*
X101803701Y-115301509D01*
X101825487Y-115229690D01*
X101832843Y-115155001D01*
X101832843Y-114355001D01*
X101825487Y-114280312D01*
X101803701Y-114208493D01*
X101768322Y-114142305D01*
X101720711Y-114084290D01*
X101662696Y-114036679D01*
X101596508Y-114001300D01*
X101524689Y-113979514D01*
X101450000Y-113972158D01*
X100550000Y-113972158D01*
X100475311Y-113979514D01*
X100403492Y-114001300D01*
X100337304Y-114036679D01*
X100279289Y-114084290D01*
X100231678Y-114142305D01*
X100196299Y-114208493D01*
X100174513Y-114280312D01*
X100167157Y-114355001D01*
X100167157Y-114872253D01*
X99995399Y-115044011D01*
X98907068Y-115044011D01*
X98884101Y-115021044D01*
X98772563Y-114946517D01*
X98648629Y-114895182D01*
X98517062Y-114869011D01*
X98446580Y-114869011D01*
X101340220Y-111975372D01*
X101359527Y-111959527D01*
X101422759Y-111882479D01*
X101449290Y-111832843D01*
X101450000Y-111832843D01*
X101524689Y-111825487D01*
X101596508Y-111803701D01*
X101662696Y-111768322D01*
X101720711Y-111720711D01*
X101768322Y-111662696D01*
X101803701Y-111596508D01*
X101825487Y-111524689D01*
X101832843Y-111450000D01*
X101832843Y-110650000D01*
X101825487Y-110575311D01*
X101803701Y-110503492D01*
X101768322Y-110437304D01*
X101720711Y-110379289D01*
X101662696Y-110331678D01*
X101596508Y-110296299D01*
X101524689Y-110274513D01*
X101450000Y-110267157D01*
X101159847Y-110267157D01*
X102171015Y-109255990D01*
X104628418Y-109255990D01*
X104340409Y-109544000D01*
X103798627Y-109544000D01*
X103768322Y-109487304D01*
X103720711Y-109429289D01*
X103662696Y-109381678D01*
X103596508Y-109346299D01*
X103524689Y-109324513D01*
X103450000Y-109317157D01*
X102550000Y-109317157D01*
X102475311Y-109324513D01*
X102403492Y-109346299D01*
X102337304Y-109381678D01*
X102279289Y-109429289D01*
X102231678Y-109487304D01*
X102196299Y-109553492D01*
X102174513Y-109625311D01*
X102167157Y-109700000D01*
X102167157Y-110500000D01*
X102174513Y-110574689D01*
X102196299Y-110646508D01*
X102231678Y-110712696D01*
X102279289Y-110770711D01*
X102337304Y-110818322D01*
X102403492Y-110853701D01*
X102475311Y-110875487D01*
X102550000Y-110882843D01*
X103450000Y-110882843D01*
X103524689Y-110875487D01*
X103596508Y-110853701D01*
X103662696Y-110818322D01*
X103720711Y-110770711D01*
X103768322Y-110712696D01*
X103803701Y-110646508D01*
X103825487Y-110574689D01*
X103827328Y-110556000D01*
X103994001Y-110556000D01*
X103994000Y-110708425D01*
X103952491Y-110742491D01*
X103886536Y-110822857D01*
X103837527Y-110914547D01*
X103807347Y-111014035D01*
X103797157Y-111117500D01*
X103797157Y-111412500D01*
X103800628Y-111447743D01*
X103768322Y-111387304D01*
X103720711Y-111329289D01*
X103662696Y-111281678D01*
X103596508Y-111246299D01*
X103524689Y-111224513D01*
X103450000Y-111217157D01*
X102550000Y-111217157D01*
X102475311Y-111224513D01*
X102403492Y-111246299D01*
X102337304Y-111281678D01*
X102279289Y-111329289D01*
X102231678Y-111387304D01*
X102196299Y-111453492D01*
X102174513Y-111525311D01*
X102167157Y-111600000D01*
X102167157Y-112400000D01*
X102174513Y-112474689D01*
X102196299Y-112546508D01*
X102231678Y-112612696D01*
X102279289Y-112670711D01*
X102337304Y-112718322D01*
X102403492Y-112753701D01*
X102475311Y-112775487D01*
X102550000Y-112782843D01*
X103302252Y-112782843D01*
X103559474Y-113040066D01*
X103524689Y-113029514D01*
X103450000Y-113022158D01*
X102550000Y-113022158D01*
X102475311Y-113029514D01*
X102403492Y-113051300D01*
X102337304Y-113086679D01*
X102279289Y-113134290D01*
X102231678Y-113192305D01*
X102196299Y-113258493D01*
X102174513Y-113330312D01*
X102167157Y-113405001D01*
X102167157Y-114205001D01*
X102174513Y-114279690D01*
X102196299Y-114351509D01*
X102231678Y-114417697D01*
X102279289Y-114475712D01*
X102337304Y-114523323D01*
X102403492Y-114558702D01*
X102475311Y-114580488D01*
X102550000Y-114587844D01*
X102931732Y-114587844D01*
X102986033Y-114669112D01*
X103080888Y-114763967D01*
X103192426Y-114838494D01*
X103316360Y-114889829D01*
X103447927Y-114916000D01*
X103582073Y-114916000D01*
X103713640Y-114889829D01*
X103837574Y-114838494D01*
X103949112Y-114763967D01*
X103954182Y-114758897D01*
X104032857Y-114823464D01*
X104124547Y-114872473D01*
X104224035Y-114902653D01*
X104327500Y-114912843D01*
X104672500Y-114912843D01*
X104726926Y-114907483D01*
X104435408Y-115199001D01*
X103815989Y-115199001D01*
X103803701Y-115158493D01*
X103768322Y-115092305D01*
X103720711Y-115034290D01*
X103662696Y-114986679D01*
X103596508Y-114951300D01*
X103524689Y-114929514D01*
X103450000Y-114922158D01*
X102550000Y-114922158D01*
X102475311Y-114929514D01*
X102403492Y-114951300D01*
X102337304Y-114986679D01*
X102279289Y-115034290D01*
X102231678Y-115092305D01*
X102196299Y-115158493D01*
X102174513Y-115230312D01*
X102167157Y-115305001D01*
X102167157Y-116105001D01*
X102174513Y-116179690D01*
X102196299Y-116251509D01*
X102231678Y-116317697D01*
X102279289Y-116375712D01*
X102337304Y-116423323D01*
X102403492Y-116458702D01*
X102475311Y-116480488D01*
X102550000Y-116487844D01*
X103450000Y-116487844D01*
X103524689Y-116480488D01*
X103596508Y-116458702D01*
X103662696Y-116423323D01*
X103720711Y-116375712D01*
X103768322Y-116317697D01*
X103803701Y-116251509D01*
X103815989Y-116211001D01*
X104620153Y-116211001D01*
X104644999Y-116213448D01*
X104669845Y-116211001D01*
X104669853Y-116211001D01*
X104744192Y-116203679D01*
X104839574Y-116174746D01*
X104927478Y-116127760D01*
X105004526Y-116064528D01*
X105020375Y-116045216D01*
X105740220Y-115325372D01*
X105759527Y-115309527D01*
X105822759Y-115232479D01*
X105869745Y-115144575D01*
X105898678Y-115049193D01*
X105906000Y-114974854D01*
X105908448Y-114950000D01*
X105906000Y-114925146D01*
X105906000Y-112674854D01*
X105908448Y-112650000D01*
X105898678Y-112550807D01*
X105869745Y-112455425D01*
X105865190Y-112446903D01*
X105822759Y-112367521D01*
X105759527Y-112290473D01*
X105740220Y-112274628D01*
X105360376Y-111894785D01*
X105344527Y-111875473D01*
X105267479Y-111812241D01*
X105179575Y-111765255D01*
X105088456Y-111737615D01*
X105113464Y-111707143D01*
X105162473Y-111615453D01*
X105192653Y-111515965D01*
X105202843Y-111412500D01*
X105202843Y-111117500D01*
X105192653Y-111014035D01*
X105162473Y-110914547D01*
X105113464Y-110822857D01*
X105047509Y-110742491D01*
X105006000Y-110708425D01*
X105006000Y-110309591D01*
X105609592Y-109706000D01*
X107836056Y-109706000D01*
X107815080Y-109717212D01*
X107747594Y-109772596D01*
X107692210Y-109840082D01*
X107651056Y-109917076D01*
X107625713Y-110000619D01*
X107617156Y-110087501D01*
X107617156Y-110762501D01*
X107625713Y-110849383D01*
X107637179Y-110887181D01*
X107599381Y-110875715D01*
X107512499Y-110867158D01*
X106837499Y-110867158D01*
X106750617Y-110875715D01*
X106667074Y-110901058D01*
X106590080Y-110942212D01*
X106522594Y-110997596D01*
X106467210Y-111065082D01*
X106426056Y-111142076D01*
X106400713Y-111225619D01*
X106392156Y-111312501D01*
X106392156Y-111437501D01*
X106400713Y-111524383D01*
X106426056Y-111607926D01*
X106435183Y-111625001D01*
X106426056Y-111642076D01*
X106400713Y-111725619D01*
X106392156Y-111812501D01*
X106392156Y-111937501D01*
X106400713Y-112024383D01*
X106426056Y-112107926D01*
X106435183Y-112125001D01*
X106426056Y-112142076D01*
X106400713Y-112225619D01*
X106392156Y-112312501D01*
X106392156Y-112437501D01*
X106400713Y-112524383D01*
X106426056Y-112607926D01*
X106435183Y-112625001D01*
X106426056Y-112642076D01*
X106400713Y-112725619D01*
X106392156Y-112812501D01*
X106392156Y-112937501D01*
X106400713Y-113024383D01*
X106426056Y-113107926D01*
X106435183Y-113125001D01*
X106426056Y-113142076D01*
X106400713Y-113225619D01*
X106392156Y-113312501D01*
X106392156Y-113437501D01*
X106400713Y-113524383D01*
X106426056Y-113607926D01*
X106435183Y-113625001D01*
X106426056Y-113642076D01*
X106400713Y-113725619D01*
X106392156Y-113812501D01*
X106392156Y-113937501D01*
X106400713Y-114024383D01*
X106426056Y-114107926D01*
X106435183Y-114125001D01*
X106426056Y-114142076D01*
X106400713Y-114225619D01*
X106392156Y-114312501D01*
X106392156Y-114437501D01*
X106400713Y-114524383D01*
X106426056Y-114607926D01*
X106467210Y-114684920D01*
X106522594Y-114752406D01*
X106590080Y-114807790D01*
X106667074Y-114848944D01*
X106750617Y-114874287D01*
X106837499Y-114882844D01*
X107512499Y-114882844D01*
X107599381Y-114874287D01*
X107637179Y-114862821D01*
X107625713Y-114900619D01*
X107617156Y-114987501D01*
X107617156Y-115662501D01*
X107625713Y-115749383D01*
X107651056Y-115832926D01*
X107692210Y-115909920D01*
X107747594Y-115977406D01*
X107815080Y-116032790D01*
X107892074Y-116073944D01*
X107975617Y-116099287D01*
X108062499Y-116107844D01*
X108187499Y-116107844D01*
X108274381Y-116099287D01*
X108357924Y-116073944D01*
X108374999Y-116064817D01*
X108392074Y-116073944D01*
X108475617Y-116099287D01*
X108562499Y-116107844D01*
X108687499Y-116107844D01*
X108774381Y-116099287D01*
X108857924Y-116073944D01*
X108874999Y-116064817D01*
X108892074Y-116073944D01*
X108975617Y-116099287D01*
X109062499Y-116107844D01*
X109187499Y-116107844D01*
X109274381Y-116099287D01*
X109357924Y-116073944D01*
X109374999Y-116064817D01*
X109392074Y-116073944D01*
X109475617Y-116099287D01*
X109562499Y-116107844D01*
X109687499Y-116107844D01*
X109774381Y-116099287D01*
X109857924Y-116073944D01*
X109874999Y-116064817D01*
X109892074Y-116073944D01*
X109975617Y-116099287D01*
X110062499Y-116107844D01*
X110118999Y-116107844D01*
X110119000Y-116617921D01*
X110096032Y-116640889D01*
X110021505Y-116752427D01*
X109970170Y-116876361D01*
X109943999Y-117007928D01*
X109943999Y-117142074D01*
X109970170Y-117273641D01*
X110021505Y-117397575D01*
X110096032Y-117509113D01*
X110190887Y-117603968D01*
X110302425Y-117678495D01*
X110426359Y-117729830D01*
X110557926Y-117756001D01*
X110692072Y-117756001D01*
X110823639Y-117729830D01*
X110947573Y-117678495D01*
X111059111Y-117603968D01*
X111153966Y-117509113D01*
X111228493Y-117397575D01*
X111243331Y-117361752D01*
X111323149Y-117441570D01*
X111339052Y-117460948D01*
X111358429Y-117476850D01*
X111416404Y-117524429D01*
X111504655Y-117571600D01*
X111504657Y-117571601D01*
X111600415Y-117600649D01*
X111675053Y-117608000D01*
X111675055Y-117608000D01*
X111699999Y-117610457D01*
X111724943Y-117608000D01*
X112049459Y-117608000D01*
X112093544Y-117690477D01*
X112168360Y-117781640D01*
X112259523Y-117856456D01*
X112311097Y-117884023D01*
X112313822Y-117911692D01*
X112342755Y-118007074D01*
X112352259Y-118024854D01*
X112389742Y-118094979D01*
X112452974Y-118172027D01*
X112472280Y-118187871D01*
X113124628Y-118840220D01*
X113140473Y-118859527D01*
X113217521Y-118922759D01*
X113280047Y-118956180D01*
X113305425Y-118969745D01*
X113400807Y-118998678D01*
X113500000Y-119008448D01*
X113524854Y-119006000D01*
X115225154Y-119006000D01*
X115250000Y-119008447D01*
X115274846Y-119006000D01*
X115274854Y-119006000D01*
X115349193Y-118998678D01*
X115444575Y-118969745D01*
X115532479Y-118922759D01*
X115609527Y-118859527D01*
X115625376Y-118840215D01*
X116090222Y-118375370D01*
X116109527Y-118359527D01*
X116172759Y-118282479D01*
X116219745Y-118194575D01*
X116248678Y-118099193D01*
X116256000Y-118024854D01*
X116256000Y-118024853D01*
X116258448Y-118000000D01*
X116256000Y-117975146D01*
X116256000Y-116959591D01*
X116709592Y-116506000D01*
X118975154Y-116506000D01*
X119000000Y-116508447D01*
X119024846Y-116506000D01*
X119024854Y-116506000D01*
X119099193Y-116498678D01*
X119194575Y-116469745D01*
X119282479Y-116422759D01*
X119359527Y-116359527D01*
X119375376Y-116340215D01*
X119534591Y-116181000D01*
X119567073Y-116181000D01*
X119698640Y-116154829D01*
X119822574Y-116103494D01*
X119934112Y-116028967D01*
X120028967Y-115934112D01*
X120103494Y-115822574D01*
X120154829Y-115698640D01*
X120181000Y-115567073D01*
X120181000Y-115432927D01*
X120154829Y-115301360D01*
X120103494Y-115177426D01*
X120028967Y-115065888D01*
X119934112Y-114971033D01*
X119822574Y-114896506D01*
X119698640Y-114845171D01*
X119567073Y-114819000D01*
X119432927Y-114819000D01*
X119301360Y-114845171D01*
X119177426Y-114896506D01*
X119065888Y-114971033D01*
X118971033Y-115065888D01*
X118896506Y-115177426D01*
X118845171Y-115301360D01*
X118819000Y-115432927D01*
X118819000Y-115465409D01*
X118790409Y-115494000D01*
X116524845Y-115494000D01*
X116499999Y-115491553D01*
X116475153Y-115494000D01*
X116475146Y-115494000D01*
X116414229Y-115500000D01*
X116400806Y-115501322D01*
X116323230Y-115524854D01*
X116305425Y-115530255D01*
X116217521Y-115577241D01*
X116140473Y-115640473D01*
X116124629Y-115659779D01*
X115409780Y-116374629D01*
X115390474Y-116390473D01*
X115327242Y-116467521D01*
X115304791Y-116509523D01*
X115280255Y-116555426D01*
X115251322Y-116650808D01*
X115241553Y-116750000D01*
X115244001Y-116774856D01*
X115244000Y-117790408D01*
X115040409Y-117994000D01*
X113709592Y-117994000D01*
X113474937Y-117759345D01*
X113531456Y-117690477D01*
X113587049Y-117586470D01*
X113621284Y-117473615D01*
X113632843Y-117356250D01*
X113632843Y-116843750D01*
X113621284Y-116726385D01*
X113615707Y-116708000D01*
X114275056Y-116708000D01*
X114300000Y-116710457D01*
X114324944Y-116708000D01*
X114324947Y-116708000D01*
X114399585Y-116700649D01*
X114495343Y-116671601D01*
X114583595Y-116624429D01*
X114660948Y-116560948D01*
X114676855Y-116541565D01*
X114976560Y-116241859D01*
X114995948Y-116225948D01*
X115035638Y-116177584D01*
X115085453Y-116162473D01*
X115177143Y-116113464D01*
X115257509Y-116047509D01*
X115323464Y-115967143D01*
X115372473Y-115875453D01*
X115402653Y-115775965D01*
X115412843Y-115672500D01*
X115412843Y-115327500D01*
X115402653Y-115224035D01*
X115372473Y-115124547D01*
X115323464Y-115032857D01*
X115257509Y-114952491D01*
X115177143Y-114886536D01*
X115085453Y-114837527D01*
X114985965Y-114807347D01*
X114882500Y-114797157D01*
X114587500Y-114797157D01*
X114484035Y-114807347D01*
X114416961Y-114827694D01*
X114432653Y-114775965D01*
X114442843Y-114672500D01*
X114442843Y-114330465D01*
X117904000Y-114330465D01*
X117904000Y-114469535D01*
X117931131Y-114605933D01*
X117984351Y-114734416D01*
X118061614Y-114850049D01*
X118159951Y-114948386D01*
X118275584Y-115025649D01*
X118404067Y-115078869D01*
X118540465Y-115106000D01*
X118679535Y-115106000D01*
X118815933Y-115078869D01*
X118944416Y-115025649D01*
X119060049Y-114948386D01*
X119158386Y-114850049D01*
X119235649Y-114734416D01*
X119288869Y-114605933D01*
X119316000Y-114469535D01*
X119316000Y-114330465D01*
X123684000Y-114330465D01*
X123684000Y-114469535D01*
X123711131Y-114605933D01*
X123764351Y-114734416D01*
X123841614Y-114850049D01*
X123939951Y-114948386D01*
X124055584Y-115025649D01*
X124184067Y-115078869D01*
X124320465Y-115106000D01*
X124459535Y-115106000D01*
X124595933Y-115078869D01*
X124724416Y-115025649D01*
X124840049Y-114948386D01*
X124938386Y-114850049D01*
X125015649Y-114734416D01*
X125068869Y-114605933D01*
X125096000Y-114469535D01*
X125096000Y-114330465D01*
X125068869Y-114194067D01*
X125015649Y-114065584D01*
X124938386Y-113949951D01*
X124840049Y-113851614D01*
X124724416Y-113774351D01*
X124595933Y-113721131D01*
X124459535Y-113694000D01*
X124320465Y-113694000D01*
X124184067Y-113721131D01*
X124055584Y-113774351D01*
X123939951Y-113851614D01*
X123841614Y-113949951D01*
X123764351Y-114065584D01*
X123711131Y-114194067D01*
X123684000Y-114330465D01*
X119316000Y-114330465D01*
X119288869Y-114194067D01*
X119235649Y-114065584D01*
X119158386Y-113949951D01*
X119060049Y-113851614D01*
X118944416Y-113774351D01*
X118815933Y-113721131D01*
X118679535Y-113694000D01*
X118540465Y-113694000D01*
X118404067Y-113721131D01*
X118275584Y-113774351D01*
X118159951Y-113851614D01*
X118061614Y-113949951D01*
X117984351Y-114065584D01*
X117931131Y-114194067D01*
X117904000Y-114330465D01*
X114442843Y-114330465D01*
X114442843Y-114327500D01*
X114432653Y-114224035D01*
X114402473Y-114124547D01*
X114353464Y-114032857D01*
X114287509Y-113952491D01*
X114207143Y-113886536D01*
X114185561Y-113875000D01*
X114207143Y-113863464D01*
X114250000Y-113828292D01*
X114292857Y-113863464D01*
X114384547Y-113912473D01*
X114484035Y-113942653D01*
X114587500Y-113952843D01*
X114882500Y-113952843D01*
X114985965Y-113942653D01*
X115085453Y-113912473D01*
X115177143Y-113863464D01*
X115257509Y-113797509D01*
X115291575Y-113756000D01*
X115361564Y-113756000D01*
X115386410Y-113758447D01*
X115411256Y-113756000D01*
X115411264Y-113756000D01*
X115485603Y-113748678D01*
X115580985Y-113719745D01*
X115668889Y-113672759D01*
X115745937Y-113609527D01*
X115761786Y-113590215D01*
X117346002Y-112006000D01*
X120042921Y-112006000D01*
X120065888Y-112028967D01*
X120177426Y-112103494D01*
X120301360Y-112154829D01*
X120432927Y-112181000D01*
X120567073Y-112181000D01*
X120698640Y-112154829D01*
X120822574Y-112103494D01*
X120934112Y-112028967D01*
X120975000Y-111988079D01*
X121040888Y-112053967D01*
X121152426Y-112128494D01*
X121276360Y-112179829D01*
X121407927Y-112206000D01*
X121542073Y-112206000D01*
X121673640Y-112179829D01*
X121797574Y-112128494D01*
X121909112Y-112053967D01*
X122003967Y-111959112D01*
X122078494Y-111847574D01*
X122129829Y-111723640D01*
X122156000Y-111592073D01*
X122156000Y-111457927D01*
X122129829Y-111326360D01*
X122078494Y-111202426D01*
X122003967Y-111090888D01*
X121909112Y-110996033D01*
X121797574Y-110921506D01*
X121673640Y-110870171D01*
X121563942Y-110848350D01*
X121225376Y-110509785D01*
X121209527Y-110490473D01*
X121132479Y-110427241D01*
X121044575Y-110380255D01*
X120949193Y-110351322D01*
X120874854Y-110344000D01*
X120874846Y-110344000D01*
X120850000Y-110341553D01*
X120825154Y-110344000D01*
X117174846Y-110344000D01*
X117150000Y-110341553D01*
X117125154Y-110344000D01*
X117125146Y-110344000D01*
X117050807Y-110351322D01*
X116955425Y-110380255D01*
X116867521Y-110427241D01*
X116790473Y-110490473D01*
X116774628Y-110509780D01*
X115540409Y-111744000D01*
X115291575Y-111744000D01*
X115257509Y-111702491D01*
X115177143Y-111636536D01*
X115085453Y-111587527D01*
X114985965Y-111557347D01*
X114882500Y-111547157D01*
X114587500Y-111547157D01*
X114484035Y-111557347D01*
X114384547Y-111587527D01*
X114292857Y-111636536D01*
X114250000Y-111671708D01*
X114207143Y-111636536D01*
X114115453Y-111587527D01*
X114015965Y-111557347D01*
X113912500Y-111547157D01*
X113617500Y-111547157D01*
X113514035Y-111557347D01*
X113414547Y-111587527D01*
X113322857Y-111636536D01*
X113242491Y-111702491D01*
X113176536Y-111782857D01*
X113127527Y-111874547D01*
X113113447Y-111920961D01*
X112665408Y-112369001D01*
X112516806Y-112369001D01*
X112582924Y-112348944D01*
X112659918Y-112307790D01*
X112727404Y-112252406D01*
X112782788Y-112184920D01*
X112823942Y-112107926D01*
X112849285Y-112024383D01*
X112857842Y-111937501D01*
X112857842Y-111812501D01*
X112849285Y-111725619D01*
X112823942Y-111642076D01*
X112814815Y-111625001D01*
X112823942Y-111607926D01*
X112849285Y-111524383D01*
X112857842Y-111437501D01*
X112857842Y-111312501D01*
X112849285Y-111225619D01*
X112823942Y-111142076D01*
X112782788Y-111065082D01*
X112727404Y-110997596D01*
X112659918Y-110942212D01*
X112582924Y-110901058D01*
X112499381Y-110875715D01*
X112412499Y-110867158D01*
X111737499Y-110867158D01*
X111650617Y-110875715D01*
X111612819Y-110887181D01*
X111624285Y-110849383D01*
X111632842Y-110762501D01*
X111632842Y-110431143D01*
X111633447Y-110425001D01*
X111632842Y-110418859D01*
X111632842Y-110087501D01*
X111624285Y-110000619D01*
X111606000Y-109940343D01*
X111606000Y-109857079D01*
X111628967Y-109834112D01*
X111703494Y-109722574D01*
X111754829Y-109598640D01*
X111781000Y-109467073D01*
X111781000Y-109332927D01*
X111754829Y-109201360D01*
X111703494Y-109077426D01*
X111628967Y-108965888D01*
X111534112Y-108871033D01*
X111422574Y-108796506D01*
X111298640Y-108745171D01*
X111167073Y-108719000D01*
X111032927Y-108719000D01*
X110901360Y-108745171D01*
X110777426Y-108796506D01*
X110665888Y-108871033D01*
X110625815Y-108911106D01*
X110623677Y-108889396D01*
X110613321Y-108855254D01*
X110594744Y-108794014D01*
X110585779Y-108777242D01*
X110547758Y-108706110D01*
X110484526Y-108629062D01*
X110465219Y-108613217D01*
X109925045Y-108073044D01*
X109935824Y-108069774D01*
X110023728Y-108022788D01*
X110100776Y-107959556D01*
X110116625Y-107940244D01*
X111800871Y-106256000D01*
X114225154Y-106256000D01*
X114250000Y-106258447D01*
X114274846Y-106256000D01*
X114274854Y-106256000D01*
X114349193Y-106248678D01*
X114444575Y-106219745D01*
X114532479Y-106172759D01*
X114609527Y-106109527D01*
X114625376Y-106090215D01*
X115340220Y-105375372D01*
X115359527Y-105359527D01*
X115422759Y-105282479D01*
X115469745Y-105194575D01*
X115490738Y-105125370D01*
X115498678Y-105099194D01*
X115501575Y-105069778D01*
X115506000Y-105024854D01*
X115506000Y-105024847D01*
X115508447Y-105000001D01*
X115506000Y-104975155D01*
X115506000Y-104207079D01*
X115528967Y-104184112D01*
X115603494Y-104072574D01*
X115654829Y-103948640D01*
X115681000Y-103817073D01*
X115681000Y-103682927D01*
X115655760Y-103556040D01*
X120270449Y-103556040D01*
X131848242Y-115133834D01*
X131816307Y-115210931D01*
X131769000Y-115448757D01*
X131769000Y-115691243D01*
X131816307Y-115929069D01*
X131909102Y-116153097D01*
X132043820Y-116354717D01*
X132215283Y-116526180D01*
X132416903Y-116660898D01*
X132640931Y-116753693D01*
X132878757Y-116801000D01*
X133121243Y-116801000D01*
X133359069Y-116753693D01*
X133583097Y-116660898D01*
X133784717Y-116526180D01*
X133956180Y-116354717D01*
X134090898Y-116153097D01*
X134183693Y-115929069D01*
X134231000Y-115691243D01*
X134231000Y-115448757D01*
X134183693Y-115210931D01*
X134090898Y-114986903D01*
X133956180Y-114785283D01*
X133784717Y-114613820D01*
X133583097Y-114479102D01*
X133359069Y-114386307D01*
X133121243Y-114339000D01*
X132878757Y-114339000D01*
X132640931Y-114386307D01*
X132563834Y-114418242D01*
X121251621Y-103106030D01*
X122360439Y-103106030D01*
X131848242Y-112593834D01*
X131816307Y-112670931D01*
X131769000Y-112908757D01*
X131769000Y-113151243D01*
X131816307Y-113389069D01*
X131909102Y-113613097D01*
X132043820Y-113814717D01*
X132215283Y-113986180D01*
X132416903Y-114120898D01*
X132640931Y-114213693D01*
X132878757Y-114261000D01*
X133121243Y-114261000D01*
X133359069Y-114213693D01*
X133583097Y-114120898D01*
X133784717Y-113986180D01*
X133956180Y-113814717D01*
X134090898Y-113613097D01*
X134183693Y-113389069D01*
X134231000Y-113151243D01*
X134231000Y-112908757D01*
X134183693Y-112670931D01*
X134090898Y-112446903D01*
X133956180Y-112245283D01*
X133784717Y-112073820D01*
X133583097Y-111939102D01*
X133359069Y-111846307D01*
X133121243Y-111799000D01*
X132878757Y-111799000D01*
X132640931Y-111846307D01*
X132563834Y-111878242D01*
X123341611Y-102656020D01*
X124450429Y-102656020D01*
X131848242Y-110053834D01*
X131816307Y-110130931D01*
X131769000Y-110368757D01*
X131769000Y-110611243D01*
X131816307Y-110849069D01*
X131909102Y-111073097D01*
X132043820Y-111274717D01*
X132215283Y-111446180D01*
X132416903Y-111580898D01*
X132640931Y-111673693D01*
X132878757Y-111721000D01*
X133121243Y-111721000D01*
X133359069Y-111673693D01*
X133583097Y-111580898D01*
X133784717Y-111446180D01*
X133956180Y-111274717D01*
X134090898Y-111073097D01*
X134183693Y-110849069D01*
X134231000Y-110611243D01*
X134231000Y-110368757D01*
X134183693Y-110130931D01*
X134090898Y-109906903D01*
X133956180Y-109705283D01*
X133784717Y-109533820D01*
X133583097Y-109399102D01*
X133359069Y-109306307D01*
X133121243Y-109259000D01*
X132878757Y-109259000D01*
X132640931Y-109306307D01*
X132563834Y-109338242D01*
X125431601Y-102206010D01*
X126540419Y-102206010D01*
X131848242Y-107513834D01*
X131816307Y-107590931D01*
X131769000Y-107828757D01*
X131769000Y-108071243D01*
X131816307Y-108309069D01*
X131909102Y-108533097D01*
X132043820Y-108734717D01*
X132215283Y-108906180D01*
X132416903Y-109040898D01*
X132640931Y-109133693D01*
X132878757Y-109181000D01*
X133121243Y-109181000D01*
X133359069Y-109133693D01*
X133583097Y-109040898D01*
X133784717Y-108906180D01*
X133956180Y-108734717D01*
X134090898Y-108533097D01*
X134183693Y-108309069D01*
X134231000Y-108071243D01*
X134231000Y-107828757D01*
X134183693Y-107590931D01*
X134090898Y-107366903D01*
X133956180Y-107165283D01*
X133784717Y-106993820D01*
X133583097Y-106859102D01*
X133359069Y-106766307D01*
X133121243Y-106719000D01*
X132878757Y-106719000D01*
X132640931Y-106766307D01*
X132563834Y-106798242D01*
X127501611Y-101736020D01*
X128610429Y-101736020D01*
X131848242Y-104973833D01*
X131816307Y-105050931D01*
X131769000Y-105288757D01*
X131769000Y-105531243D01*
X131816307Y-105769069D01*
X131909102Y-105993097D01*
X132043820Y-106194717D01*
X132215283Y-106366180D01*
X132416903Y-106500898D01*
X132640931Y-106593693D01*
X132878757Y-106641000D01*
X133121243Y-106641000D01*
X133359069Y-106593693D01*
X133583097Y-106500898D01*
X133784717Y-106366180D01*
X133956180Y-106194717D01*
X134090898Y-105993097D01*
X134183693Y-105769069D01*
X134231000Y-105531243D01*
X134231000Y-105288757D01*
X134183693Y-105050931D01*
X134090898Y-104826903D01*
X133956180Y-104625283D01*
X133784717Y-104453820D01*
X133583097Y-104319102D01*
X133359069Y-104226307D01*
X133121243Y-104179000D01*
X132878757Y-104179000D01*
X132640931Y-104226307D01*
X132563833Y-104258242D01*
X129591602Y-101286011D01*
X130700420Y-101286011D01*
X131848242Y-102433833D01*
X131816307Y-102510931D01*
X131769000Y-102748757D01*
X131769000Y-102991243D01*
X131816307Y-103229069D01*
X131909102Y-103453097D01*
X132043820Y-103654717D01*
X132215283Y-103826180D01*
X132416903Y-103960898D01*
X132640931Y-104053693D01*
X132878757Y-104101000D01*
X133121243Y-104101000D01*
X133359069Y-104053693D01*
X133583097Y-103960898D01*
X133784717Y-103826180D01*
X133956180Y-103654717D01*
X134090898Y-103453097D01*
X134183693Y-103229069D01*
X134231000Y-102991243D01*
X134231000Y-102748757D01*
X134183693Y-102510931D01*
X134090898Y-102286903D01*
X133956180Y-102085283D01*
X133784717Y-101913820D01*
X133583097Y-101779102D01*
X133359069Y-101686307D01*
X133121243Y-101639000D01*
X132878757Y-101639000D01*
X132640931Y-101686307D01*
X132563833Y-101718242D01*
X131681591Y-100836000D01*
X131877168Y-100836000D01*
X131909102Y-100913097D01*
X132043820Y-101114717D01*
X132215283Y-101286180D01*
X132416903Y-101420898D01*
X132640931Y-101513693D01*
X132878757Y-101561000D01*
X133121243Y-101561000D01*
X133359069Y-101513693D01*
X133583097Y-101420898D01*
X133784717Y-101286180D01*
X133956180Y-101114717D01*
X134090898Y-100913097D01*
X134183693Y-100689069D01*
X134231000Y-100451243D01*
X134231000Y-100208757D01*
X134183693Y-99970931D01*
X134090898Y-99746903D01*
X133956180Y-99545283D01*
X133784717Y-99373820D01*
X133583097Y-99239102D01*
X133359069Y-99146307D01*
X133121243Y-99099000D01*
X132878757Y-99099000D01*
X132640931Y-99146307D01*
X132416903Y-99239102D01*
X132215283Y-99373820D01*
X132043820Y-99545283D01*
X131909102Y-99746903D01*
X131877168Y-99824000D01*
X117602541Y-99824000D01*
X117603494Y-99822574D01*
X117654829Y-99698640D01*
X117681000Y-99567073D01*
X117681000Y-99432927D01*
X117654829Y-99301360D01*
X117603494Y-99177426D01*
X117528967Y-99065888D01*
X117506000Y-99042921D01*
X117506000Y-98959591D01*
X117625370Y-98840221D01*
X118459592Y-98006000D01*
X124225154Y-98006000D01*
X124250000Y-98008447D01*
X124274846Y-98006000D01*
X124274854Y-98006000D01*
X124349193Y-97998678D01*
X124444575Y-97969745D01*
X124532479Y-97922759D01*
X124609527Y-97859527D01*
X124625376Y-97840215D01*
X125034592Y-97431000D01*
X125067073Y-97431000D01*
X125198640Y-97404829D01*
X125322574Y-97353494D01*
X125434112Y-97278967D01*
X125528967Y-97184112D01*
X125603494Y-97072574D01*
X125654829Y-96948640D01*
X125681000Y-96817073D01*
X125681000Y-96682927D01*
X125654829Y-96551360D01*
X125603494Y-96427426D01*
X125528967Y-96315888D01*
X125434112Y-96221033D01*
X125322574Y-96146506D01*
X125198640Y-96095171D01*
X125067073Y-96069000D01*
X124932927Y-96069000D01*
X124801360Y-96095171D01*
X124677426Y-96146506D01*
X124565888Y-96221033D01*
X124471033Y-96315888D01*
X124396506Y-96427426D01*
X124345171Y-96551360D01*
X124319000Y-96682927D01*
X124319000Y-96715408D01*
X124040409Y-96994000D01*
X118274854Y-96994000D01*
X118250000Y-96991552D01*
X118225146Y-96994000D01*
X118150807Y-97001322D01*
X118055425Y-97030255D01*
X117967521Y-97077241D01*
X117890473Y-97140473D01*
X117874629Y-97159779D01*
X116909779Y-98124630D01*
X116659785Y-98374624D01*
X116640473Y-98390473D01*
X116577241Y-98467521D01*
X116530255Y-98555426D01*
X116501322Y-98650808D01*
X116494000Y-98725147D01*
X116494000Y-98725154D01*
X116491553Y-98750000D01*
X116494000Y-98774847D01*
X116494000Y-99042921D01*
X116471033Y-99065888D01*
X116396506Y-99177426D01*
X116345171Y-99301360D01*
X116319000Y-99432927D01*
X116319000Y-99567073D01*
X116345171Y-99698640D01*
X116396506Y-99822574D01*
X116397459Y-99824000D01*
X111944845Y-99824000D01*
X111919999Y-99821553D01*
X111895153Y-99824000D01*
X111895146Y-99824000D01*
X111830694Y-99830348D01*
X111820806Y-99831322D01*
X111816999Y-99832477D01*
X111725425Y-99860255D01*
X111637521Y-99907241D01*
X111560473Y-99970473D01*
X111544628Y-99989780D01*
X108290409Y-103244000D01*
X102956589Y-103244000D01*
X103700219Y-102500371D01*
X103719526Y-102484526D01*
X103749126Y-102448458D01*
X103806031Y-102418042D01*
X103886776Y-102351776D01*
X103953042Y-102271031D01*
X104002282Y-102178909D01*
X104032604Y-102078952D01*
X104042842Y-101974999D01*
X104042842Y-100324999D01*
X104032604Y-100221046D01*
X104002282Y-100121089D01*
X103953042Y-100028967D01*
X103886776Y-99948222D01*
X103806031Y-99881956D01*
X103713909Y-99832716D01*
X103613952Y-99802394D01*
X103509999Y-99792156D01*
X103209999Y-99792156D01*
X103106046Y-99802394D01*
X103006089Y-99832716D01*
X102913967Y-99881956D01*
X102833222Y-99948222D01*
X102766956Y-100028967D01*
X102724999Y-100107463D01*
X102683042Y-100028967D01*
X102616776Y-99948222D01*
X102536031Y-99881956D01*
X102443909Y-99832716D01*
X102343952Y-99802394D01*
X102239999Y-99792156D01*
X101939999Y-99792156D01*
X101836046Y-99802394D01*
X101736089Y-99832716D01*
X101643967Y-99881956D01*
X101563222Y-99948222D01*
X101496956Y-100028967D01*
X101454999Y-100107463D01*
X101413042Y-100028967D01*
X101346776Y-99948222D01*
X101266031Y-99881956D01*
X101173909Y-99832716D01*
X101073952Y-99802394D01*
X100969999Y-99792156D01*
X100669999Y-99792156D01*
X100566046Y-99802394D01*
X100466089Y-99832716D01*
X100373967Y-99881956D01*
X100293222Y-99948222D01*
X100226956Y-100028967D01*
X100184999Y-100107463D01*
X100143042Y-100028967D01*
X100076776Y-99948222D01*
X100055999Y-99931171D01*
X100055999Y-99574844D01*
X100058446Y-99549998D01*
X100055999Y-99525152D01*
X100055999Y-99525145D01*
X100048677Y-99450806D01*
X100033511Y-99400807D01*
X100019744Y-99355424D01*
X100003600Y-99325221D01*
X99972758Y-99267520D01*
X99909526Y-99190472D01*
X99890219Y-99174627D01*
X99360376Y-98644785D01*
X99344527Y-98625473D01*
X99267479Y-98562241D01*
X99190323Y-98521000D01*
X99210154Y-98521000D01*
X99235000Y-98523447D01*
X99259846Y-98521000D01*
X99259854Y-98521000D01*
X99334193Y-98513678D01*
X99429575Y-98484745D01*
X99517479Y-98437759D01*
X99594527Y-98374527D01*
X99610376Y-98355215D01*
X99890214Y-98075377D01*
X99909526Y-98059528D01*
X99972758Y-97982480D01*
X100019744Y-97894576D01*
X100048677Y-97799194D01*
X100055999Y-97724855D01*
X100058447Y-97700001D01*
X100055999Y-97675147D01*
X100055999Y-97418827D01*
X100076776Y-97401776D01*
X100143042Y-97321031D01*
X100184999Y-97242535D01*
X100226956Y-97321031D01*
X100293222Y-97401776D01*
X100373967Y-97468042D01*
X100466089Y-97517282D01*
X100566046Y-97547604D01*
X100598575Y-97550808D01*
X100677426Y-97603494D01*
X100801360Y-97654829D01*
X100932927Y-97681000D01*
X101067073Y-97681000D01*
X101198640Y-97654829D01*
X101322574Y-97603494D01*
X101434112Y-97528967D01*
X101528967Y-97434112D01*
X101603494Y-97322574D01*
X101654829Y-97198640D01*
X101681000Y-97067073D01*
X101681000Y-96932927D01*
X101654829Y-96801360D01*
X101603494Y-96677426D01*
X101528967Y-96565888D01*
X101502842Y-96539763D01*
X101502842Y-95374999D01*
X101492604Y-95271046D01*
X101462282Y-95171089D01*
X101413042Y-95078967D01*
X101346776Y-94998222D01*
X101266031Y-94931956D01*
X101173909Y-94882716D01*
X101073952Y-94852394D01*
X100969999Y-94842156D01*
X100669999Y-94842156D01*
X100566046Y-94852394D01*
X100466089Y-94882716D01*
X100373967Y-94931956D01*
X100293222Y-94998222D01*
X100226956Y-95078967D01*
X100216000Y-95099464D01*
X100216000Y-94622832D01*
X100293097Y-94590898D01*
X100494717Y-94456180D01*
X100666180Y-94284717D01*
X100800898Y-94083097D01*
X100893693Y-93859069D01*
X100941000Y-93621243D01*
X100941000Y-93378757D01*
X100893693Y-93140931D01*
X100800898Y-92916903D01*
X100666180Y-92715283D01*
X100494717Y-92543820D01*
X100293097Y-92409102D01*
X100069069Y-92316307D01*
X99831243Y-92269000D01*
X99588757Y-92269000D01*
X99350931Y-92316307D01*
X99126903Y-92409102D01*
X98925283Y-92543820D01*
X98753820Y-92715283D01*
X98619102Y-92916903D01*
X98526307Y-93140931D01*
X98479000Y-93378757D01*
X98479000Y-93621243D01*
X98526307Y-93859069D01*
X98619102Y-94083097D01*
X98753820Y-94284717D01*
X98925283Y-94456180D01*
X99126903Y-94590898D01*
X99204000Y-94622833D01*
X99204001Y-94880316D01*
X99196089Y-94882716D01*
X99103967Y-94931956D01*
X99023222Y-94998222D01*
X98956956Y-95078967D01*
X98907716Y-95171089D01*
X98877394Y-95271046D01*
X98867156Y-95374999D01*
X98867156Y-97024999D01*
X98877394Y-97128952D01*
X98907716Y-97228909D01*
X98956956Y-97321031D01*
X99023222Y-97401776D01*
X99044000Y-97418828D01*
X99044000Y-97490409D01*
X99025409Y-97509000D01*
X98311058Y-97509000D01*
X98297509Y-97492491D01*
X98217143Y-97426536D01*
X98125453Y-97377527D01*
X98117123Y-97375000D01*
X98125453Y-97372473D01*
X98217143Y-97323464D01*
X98297509Y-97257509D01*
X98363464Y-97177143D01*
X98412473Y-97085453D01*
X98442653Y-96985965D01*
X98452843Y-96882500D01*
X98452843Y-96587500D01*
X98442653Y-96484035D01*
X98412473Y-96384547D01*
X98363464Y-96292857D01*
X98297509Y-96212491D01*
X98217143Y-96146536D01*
X98125453Y-96097527D01*
X98025965Y-96067347D01*
X97922500Y-96057157D01*
X97577500Y-96057157D01*
X97474035Y-96067347D01*
X97422306Y-96083039D01*
X97442653Y-96015965D01*
X97452843Y-95912500D01*
X97452843Y-95617500D01*
X97442653Y-95514035D01*
X97412473Y-95414547D01*
X97363464Y-95322857D01*
X97297509Y-95242491D01*
X97217143Y-95176536D01*
X97125453Y-95127527D01*
X97025965Y-95097347D01*
X96922500Y-95087157D01*
X96577500Y-95087157D01*
X96474035Y-95097347D01*
X96374547Y-95127527D01*
X96282857Y-95176536D01*
X96254370Y-95199915D01*
X96177143Y-95136536D01*
X96085453Y-95087527D01*
X95985965Y-95057347D01*
X95882500Y-95047157D01*
X95587500Y-95047157D01*
X95484035Y-95057347D01*
X95384547Y-95087527D01*
X95292857Y-95136536D01*
X95250000Y-95171708D01*
X95207143Y-95136536D01*
X95115453Y-95087527D01*
X95015965Y-95057347D01*
X94912500Y-95047157D01*
X94617500Y-95047157D01*
X94514035Y-95057347D01*
X94414547Y-95087527D01*
X94322857Y-95136536D01*
X94242491Y-95202491D01*
X94208425Y-95244000D01*
X93099841Y-95244000D01*
X93074995Y-95241553D01*
X93050149Y-95244000D01*
X93050142Y-95244000D01*
X92989225Y-95250000D01*
X92975802Y-95251322D01*
X92910780Y-95271046D01*
X92880421Y-95280255D01*
X92792517Y-95327241D01*
X92715469Y-95390473D01*
X92699624Y-95409780D01*
X91984786Y-96124619D01*
X91965474Y-96140468D01*
X91902242Y-96217516D01*
X91855256Y-96305421D01*
X91826323Y-96400803D01*
X91819001Y-96475142D01*
X91819001Y-96475149D01*
X91816554Y-96499995D01*
X91819001Y-96524842D01*
X91819001Y-96875804D01*
X91778967Y-96815888D01*
X91684112Y-96721033D01*
X91572574Y-96646506D01*
X91448640Y-96595171D01*
X91317073Y-96569000D01*
X91182927Y-96569000D01*
X91051360Y-96595171D01*
X90927426Y-96646506D01*
X90815888Y-96721033D01*
X90721033Y-96815888D01*
X90646506Y-96927426D01*
X90645484Y-96929893D01*
X89681000Y-95965409D01*
X89681000Y-95932927D01*
X89654829Y-95801360D01*
X89603494Y-95677426D01*
X89528967Y-95565888D01*
X89434112Y-95471033D01*
X89322574Y-95396506D01*
X89198640Y-95345171D01*
X89067073Y-95319000D01*
X88932927Y-95319000D01*
X88801360Y-95345171D01*
X88677426Y-95396506D01*
X88565888Y-95471033D01*
X88471033Y-95565888D01*
X88396506Y-95677426D01*
X88345171Y-95801360D01*
X88319000Y-95932927D01*
X88319000Y-96067073D01*
X88345171Y-96198640D01*
X88396506Y-96322574D01*
X88471033Y-96434112D01*
X88565888Y-96528967D01*
X88677426Y-96603494D01*
X88801360Y-96654829D01*
X88932927Y-96681000D01*
X88965409Y-96681000D01*
X89429893Y-97145484D01*
X89427426Y-97146506D01*
X89315888Y-97221033D01*
X89221033Y-97315888D01*
X89172244Y-97388907D01*
X89154829Y-97301360D01*
X89103494Y-97177426D01*
X89028967Y-97065888D01*
X88934112Y-96971033D01*
X88822574Y-96896506D01*
X88698640Y-96845171D01*
X88567073Y-96819000D01*
X88432927Y-96819000D01*
X88301360Y-96845171D01*
X88177426Y-96896506D01*
X88065888Y-96971033D01*
X87971033Y-97065888D01*
X87896506Y-97177426D01*
X87845171Y-97301360D01*
X87819000Y-97432927D01*
X87819000Y-97567073D01*
X87845171Y-97698640D01*
X87896506Y-97822574D01*
X87971033Y-97934112D01*
X87994001Y-97957080D01*
X87994000Y-101164819D01*
X87256000Y-100426819D01*
X87256000Y-97707079D01*
X87278967Y-97684112D01*
X87353494Y-97572574D01*
X87404829Y-97448640D01*
X87431000Y-97317073D01*
X87431000Y-97182927D01*
X87404829Y-97051360D01*
X87353494Y-96927426D01*
X87278967Y-96815888D01*
X87184112Y-96721033D01*
X87072574Y-96646506D01*
X86948640Y-96595171D01*
X86817073Y-96569000D01*
X86682927Y-96569000D01*
X86551360Y-96595171D01*
X86427426Y-96646506D01*
X86315888Y-96721033D01*
X86221033Y-96815888D01*
X86146506Y-96927426D01*
X86095171Y-97051360D01*
X86069000Y-97182927D01*
X86069000Y-97317073D01*
X86095171Y-97448640D01*
X86146506Y-97572574D01*
X86221033Y-97684112D01*
X86244001Y-97707080D01*
X86244000Y-100051229D01*
X85756000Y-99563229D01*
X85756000Y-97457079D01*
X85778967Y-97434112D01*
X85853494Y-97322574D01*
X85904829Y-97198640D01*
X85931000Y-97067073D01*
X85931000Y-96932927D01*
X85904829Y-96801360D01*
X85853494Y-96677426D01*
X85778967Y-96565888D01*
X85684112Y-96471033D01*
X85572574Y-96396506D01*
X85448640Y-96345171D01*
X85317073Y-96319000D01*
X85182927Y-96319000D01*
X85051360Y-96345171D01*
X84927426Y-96396506D01*
X84815888Y-96471033D01*
X84721033Y-96565888D01*
X84702891Y-96593040D01*
X84698494Y-96582426D01*
X84623967Y-96470888D01*
X84529112Y-96376033D01*
X84417574Y-96301506D01*
X84293640Y-96250171D01*
X84162073Y-96224000D01*
X84027927Y-96224000D01*
X83896360Y-96250171D01*
X83772426Y-96301506D01*
X83660888Y-96376033D01*
X83566033Y-96470888D01*
X83491506Y-96582426D01*
X83440171Y-96706360D01*
X83414000Y-96837927D01*
X83414000Y-96972073D01*
X83440171Y-97103640D01*
X83491506Y-97227574D01*
X83566033Y-97339112D01*
X83589001Y-97362080D01*
X83589000Y-99229384D01*
X83586553Y-99254230D01*
X83589000Y-99279076D01*
X83589000Y-99279083D01*
X83596322Y-99353422D01*
X83625255Y-99448804D01*
X83672241Y-99536709D01*
X83735473Y-99613757D01*
X83754785Y-99629606D01*
X90769197Y-106644019D01*
X84006098Y-106644019D01*
X83897574Y-106571506D01*
X83773640Y-106520171D01*
X83642073Y-106494000D01*
X83507927Y-106494000D01*
X83376360Y-106520171D01*
X83252426Y-106571506D01*
X83140888Y-106646033D01*
X83046033Y-106740888D01*
X82971506Y-106852426D01*
X82920171Y-106976360D01*
X82894000Y-107107927D01*
X82894000Y-107242073D01*
X82920171Y-107373640D01*
X82971506Y-107497574D01*
X83046033Y-107609112D01*
X83140888Y-107703967D01*
X83252426Y-107778494D01*
X83376360Y-107829829D01*
X83507927Y-107856000D01*
X83642073Y-107856000D01*
X83773640Y-107829829D01*
X83897574Y-107778494D01*
X84009112Y-107703967D01*
X84057060Y-107656019D01*
X87828390Y-107656019D01*
X87659785Y-107824624D01*
X87640473Y-107840473D01*
X87577241Y-107917521D01*
X87530255Y-108005426D01*
X87501322Y-108100808D01*
X87494000Y-108175147D01*
X87494000Y-108175154D01*
X87491553Y-108200000D01*
X87494000Y-108224847D01*
X87494000Y-108542921D01*
X87471033Y-108565888D01*
X87396506Y-108677426D01*
X87345171Y-108801360D01*
X87319000Y-108932927D01*
X87319000Y-109067073D01*
X87345171Y-109198640D01*
X87396506Y-109322574D01*
X87471033Y-109434112D01*
X87565888Y-109528967D01*
X87677426Y-109603494D01*
X87801360Y-109654829D01*
X87932927Y-109681000D01*
X88067073Y-109681000D01*
X88198640Y-109654829D01*
X88322574Y-109603494D01*
X88434112Y-109528967D01*
X88528967Y-109434112D01*
X88603494Y-109322574D01*
X88654829Y-109198640D01*
X88681000Y-109067073D01*
X88681000Y-108932927D01*
X88654829Y-108801360D01*
X88603494Y-108677426D01*
X88528967Y-108565888D01*
X88506000Y-108542921D01*
X88506000Y-108409591D01*
X88809563Y-108106029D01*
X101253381Y-108106029D01*
X99434773Y-109924638D01*
X99415461Y-109940487D01*
X99352229Y-110017535D01*
X99305243Y-110105440D01*
X99276310Y-110200822D01*
X99268988Y-110275161D01*
X99268988Y-110275168D01*
X99266541Y-110300014D01*
X99268988Y-110324861D01*
X99268988Y-110810930D01*
X99172574Y-110746508D01*
X99048640Y-110695173D01*
X98917073Y-110669002D01*
X98782927Y-110669002D01*
X98651360Y-110695173D01*
X98527426Y-110746508D01*
X98415888Y-110821035D01*
X98321033Y-110915890D01*
X98246506Y-111027428D01*
X98195171Y-111151362D01*
X98169000Y-111282929D01*
X98169000Y-111315410D01*
X96990411Y-112494000D01*
X92957079Y-112494000D01*
X92934112Y-112471033D01*
X92822574Y-112396506D01*
X92698640Y-112345171D01*
X92567073Y-112319000D01*
X92432927Y-112319000D01*
X92301360Y-112345171D01*
X92177426Y-112396506D01*
X92065888Y-112471033D01*
X91971033Y-112565888D01*
X91896506Y-112677426D01*
X91845171Y-112801360D01*
X91819000Y-112932927D01*
X91819000Y-113067073D01*
X91845171Y-113198640D01*
X91863960Y-113244000D01*
X85256000Y-113244000D01*
X85256000Y-111374854D01*
X85258448Y-111350000D01*
X85248678Y-111250807D01*
X85219745Y-111155425D01*
X85204680Y-111127241D01*
X85172759Y-111067521D01*
X85109527Y-110990473D01*
X85090220Y-110974628D01*
X83843543Y-109727952D01*
X83896360Y-109749829D01*
X84027927Y-109776000D01*
X84060409Y-109776000D01*
X85624628Y-111340220D01*
X85640473Y-111359527D01*
X85717521Y-111422759D01*
X85805425Y-111469745D01*
X85900807Y-111498678D01*
X86000000Y-111508448D01*
X86024854Y-111506000D01*
X86828408Y-111506000D01*
X86665409Y-111669000D01*
X86582927Y-111669000D01*
X86451360Y-111695171D01*
X86327426Y-111746506D01*
X86215888Y-111821033D01*
X86121033Y-111915888D01*
X86046506Y-112027426D01*
X85995171Y-112151360D01*
X85969000Y-112282927D01*
X85969000Y-112417073D01*
X85995171Y-112548640D01*
X86046506Y-112672574D01*
X86121033Y-112784112D01*
X86215888Y-112878967D01*
X86327426Y-112953494D01*
X86451360Y-113004829D01*
X86582927Y-113031000D01*
X86717073Y-113031000D01*
X86848640Y-113004829D01*
X86972574Y-112953494D01*
X87084112Y-112878967D01*
X87178967Y-112784112D01*
X87253494Y-112672574D01*
X87304829Y-112548640D01*
X87326650Y-112438941D01*
X87759592Y-112006000D01*
X96675154Y-112006000D01*
X96700000Y-112008447D01*
X96724846Y-112006000D01*
X96724854Y-112006000D01*
X96799193Y-111998678D01*
X96894575Y-111969745D01*
X96982479Y-111922759D01*
X97059527Y-111859527D01*
X97075376Y-111840215D01*
X98184592Y-110731000D01*
X98217073Y-110731000D01*
X98348640Y-110704829D01*
X98472574Y-110653494D01*
X98584112Y-110578967D01*
X98678967Y-110484112D01*
X98753494Y-110372574D01*
X98804829Y-110248640D01*
X98831000Y-110117073D01*
X98831000Y-109982927D01*
X98804829Y-109851360D01*
X98753494Y-109727426D01*
X98712743Y-109666438D01*
X98762018Y-109617163D01*
X98836545Y-109505625D01*
X98887880Y-109381691D01*
X98914051Y-109250124D01*
X98914051Y-109115978D01*
X98887880Y-108984411D01*
X98836545Y-108860477D01*
X98762018Y-108748939D01*
X98667163Y-108654084D01*
X98555625Y-108579557D01*
X98431691Y-108528222D01*
X98300124Y-108502051D01*
X98165978Y-108502051D01*
X98034411Y-108528222D01*
X97910477Y-108579557D01*
X97798939Y-108654084D01*
X97775102Y-108677921D01*
X97709594Y-108684373D01*
X97614212Y-108713306D01*
X97526308Y-108760292D01*
X97449260Y-108823524D01*
X97433415Y-108842831D01*
X95782247Y-110494000D01*
X86209592Y-110494000D01*
X84776000Y-109060409D01*
X84776000Y-109027927D01*
X84749829Y-108896360D01*
X84698494Y-108772426D01*
X84623967Y-108660888D01*
X84529112Y-108566033D01*
X84417574Y-108491506D01*
X84293640Y-108440171D01*
X84162073Y-108414000D01*
X84027927Y-108414000D01*
X83896360Y-108440171D01*
X83772426Y-108491506D01*
X83660888Y-108566033D01*
X83566033Y-108660888D01*
X83491506Y-108772426D01*
X83440171Y-108896360D01*
X83414000Y-109027927D01*
X83414000Y-109162073D01*
X83440171Y-109293640D01*
X83462048Y-109346457D01*
X81306000Y-107190409D01*
X81306000Y-102757079D01*
X81328967Y-102734112D01*
X81403494Y-102622574D01*
X81454829Y-102498640D01*
X81481000Y-102367073D01*
X81481000Y-102232927D01*
X81454829Y-102101360D01*
X81403494Y-101977426D01*
X81328967Y-101865888D01*
X81234112Y-101771033D01*
X81122574Y-101696506D01*
X80998640Y-101645171D01*
X80867073Y-101619000D01*
X80732927Y-101619000D01*
X80601360Y-101645171D01*
X80477426Y-101696506D01*
X80365888Y-101771033D01*
X80271033Y-101865888D01*
X80196506Y-101977426D01*
X80145171Y-102101360D01*
X80119000Y-102232927D01*
X80119000Y-102367073D01*
X80129329Y-102419000D01*
X80032927Y-102419000D01*
X79901360Y-102445171D01*
X79796000Y-102488812D01*
X79796000Y-95308500D01*
X83073501Y-92031000D01*
X102876500Y-92031000D01*
X103114040Y-92268540D01*
X103100000Y-92267157D01*
X101400000Y-92267157D01*
X101325311Y-92274513D01*
X101253492Y-92296299D01*
X101187304Y-92331678D01*
X101129289Y-92379289D01*
X101081678Y-92437304D01*
X101046299Y-92503492D01*
X101024513Y-92575311D01*
X101017157Y-92650000D01*
X101017157Y-94350000D01*
X101024513Y-94424689D01*
X101046299Y-94496508D01*
X101081678Y-94562696D01*
X101129289Y-94620711D01*
X101187304Y-94668322D01*
X101253492Y-94703701D01*
X101325311Y-94725487D01*
X101400000Y-94732843D01*
X102767251Y-94732843D01*
X102853999Y-94819591D01*
X102853999Y-94981170D01*
X102833222Y-94998222D01*
X102766956Y-95078967D01*
X102717716Y-95171089D01*
X102687394Y-95271046D01*
X102677156Y-95374999D01*
X102677156Y-97024999D01*
X102687394Y-97128952D01*
X102717716Y-97228909D01*
X102766956Y-97321031D01*
X102833222Y-97401776D01*
X102913967Y-97468042D01*
X103006089Y-97517282D01*
X103106046Y-97547604D01*
X103209999Y-97557842D01*
X103509999Y-97557842D01*
X103613952Y-97547604D01*
X103713909Y-97517282D01*
X103806031Y-97468042D01*
X103886776Y-97401776D01*
X103953042Y-97321031D01*
X104002282Y-97228909D01*
X104032604Y-97128952D01*
X104042842Y-97024999D01*
X104042842Y-95374999D01*
X104032604Y-95271046D01*
X104005874Y-95182927D01*
X114069000Y-95182927D01*
X114069000Y-95317073D01*
X114095171Y-95448640D01*
X114146506Y-95572574D01*
X114221033Y-95684112D01*
X114315888Y-95778967D01*
X114427426Y-95853494D01*
X114551360Y-95904829D01*
X114682927Y-95931000D01*
X114817073Y-95931000D01*
X114948640Y-95904829D01*
X115072574Y-95853494D01*
X115184112Y-95778967D01*
X115207079Y-95756000D01*
X131767157Y-95756000D01*
X131767157Y-96100000D01*
X131774513Y-96174689D01*
X131796299Y-96246508D01*
X131831678Y-96312696D01*
X131879289Y-96370711D01*
X131937304Y-96418322D01*
X132003492Y-96453701D01*
X132075311Y-96475487D01*
X132150000Y-96482843D01*
X133850000Y-96482843D01*
X133924689Y-96475487D01*
X133996508Y-96453701D01*
X134062696Y-96418322D01*
X134120711Y-96370711D01*
X134168322Y-96312696D01*
X134203701Y-96246508D01*
X134225487Y-96174689D01*
X134232843Y-96100000D01*
X134232843Y-94400000D01*
X134225487Y-94325311D01*
X134203701Y-94253492D01*
X134168322Y-94187304D01*
X134120711Y-94129289D01*
X134062696Y-94081678D01*
X133996508Y-94046299D01*
X133924689Y-94024513D01*
X133850000Y-94017157D01*
X132150000Y-94017157D01*
X132075311Y-94024513D01*
X132003492Y-94046299D01*
X131937304Y-94081678D01*
X131879289Y-94129289D01*
X131831678Y-94187304D01*
X131796299Y-94253492D01*
X131774513Y-94325311D01*
X131767157Y-94400000D01*
X131767157Y-94744000D01*
X115207079Y-94744000D01*
X115184112Y-94721033D01*
X115072574Y-94646506D01*
X114948640Y-94595171D01*
X114817073Y-94569000D01*
X114682927Y-94569000D01*
X114551360Y-94595171D01*
X114427426Y-94646506D01*
X114315888Y-94721033D01*
X114221033Y-94815888D01*
X114146506Y-94927426D01*
X114095171Y-95051360D01*
X114069000Y-95182927D01*
X104005874Y-95182927D01*
X104002282Y-95171089D01*
X103953042Y-95078967D01*
X103886776Y-94998222D01*
X103865999Y-94981171D01*
X103865999Y-94634853D01*
X103868447Y-94609999D01*
X103858677Y-94510806D01*
X103829744Y-94415424D01*
X103829683Y-94415309D01*
X103782758Y-94327520D01*
X103719526Y-94250472D01*
X103700219Y-94234627D01*
X103482843Y-94017251D01*
X103482843Y-92650000D01*
X103481460Y-92635960D01*
X103969000Y-93123500D01*
X103969001Y-93941614D01*
X103961513Y-93959691D01*
X103931500Y-94110578D01*
X103931500Y-94264422D01*
X103961513Y-94415309D01*
X104020387Y-94557442D01*
X104105858Y-94685359D01*
X104214641Y-94794142D01*
X104342558Y-94879613D01*
X104484691Y-94938487D01*
X104635578Y-94968500D01*
X104789422Y-94968500D01*
X104940309Y-94938487D01*
X105082442Y-94879613D01*
X105210359Y-94794142D01*
X105275127Y-94729374D01*
X105304922Y-94704922D01*
X105402519Y-94585999D01*
X105475040Y-94450322D01*
X105519699Y-94303103D01*
X105531000Y-94188360D01*
X105531000Y-92838356D01*
X105534778Y-92799999D01*
X105526434Y-92715283D01*
X105519699Y-92646897D01*
X105475040Y-92499678D01*
X105402520Y-92364002D01*
X105402519Y-92364000D01*
X105363378Y-92316307D01*
X105304922Y-92245078D01*
X105275123Y-92220623D01*
X104454500Y-91400000D01*
X120267157Y-91400000D01*
X120267157Y-93100000D01*
X120274513Y-93174689D01*
X120296299Y-93246508D01*
X120331678Y-93312696D01*
X120379289Y-93370711D01*
X120437304Y-93418322D01*
X120503492Y-93453701D01*
X120575311Y-93475487D01*
X120650000Y-93482843D01*
X122350000Y-93482843D01*
X122424689Y-93475487D01*
X122496508Y-93453701D01*
X122562696Y-93418322D01*
X122620711Y-93370711D01*
X122668322Y-93312696D01*
X122703701Y-93246508D01*
X122725487Y-93174689D01*
X122732843Y-93100000D01*
X122732843Y-91400000D01*
X122725487Y-91325311D01*
X122703701Y-91253492D01*
X122668322Y-91187304D01*
X122620711Y-91129289D01*
X122562696Y-91081678D01*
X122496508Y-91046299D01*
X122424689Y-91024513D01*
X122350000Y-91017157D01*
X120650000Y-91017157D01*
X120575311Y-91024513D01*
X120503492Y-91046299D01*
X120437304Y-91081678D01*
X120379289Y-91129289D01*
X120331678Y-91187304D01*
X120296299Y-91253492D01*
X120274513Y-91325311D01*
X120267157Y-91400000D01*
X104454500Y-91400000D01*
X103779378Y-90724878D01*
X103754922Y-90695078D01*
X103635999Y-90597481D01*
X103500322Y-90524960D01*
X103353103Y-90480301D01*
X103238360Y-90469000D01*
X103238357Y-90469000D01*
X103200000Y-90465222D01*
X103161643Y-90469000D01*
X82788357Y-90469000D01*
X82750000Y-90465222D01*
X82711643Y-90469000D01*
X82711640Y-90469000D01*
X82596897Y-90480301D01*
X82449678Y-90524960D01*
X82314001Y-90597481D01*
X82195078Y-90695078D01*
X82170626Y-90724873D01*
X78489874Y-94405626D01*
X78460079Y-94430078D01*
X78435627Y-94459873D01*
X78435625Y-94459875D01*
X78362481Y-94549001D01*
X78324152Y-94620711D01*
X78290488Y-94683693D01*
X78289960Y-94684680D01*
X78275909Y-94731000D01*
X78246715Y-94827241D01*
X78245302Y-94831898D01*
X78230222Y-94985000D01*
X78234001Y-95023367D01*
X78234000Y-107083337D01*
X78167856Y-107243022D01*
X78134000Y-107413229D01*
X78134000Y-107586771D01*
X78167856Y-107756978D01*
X78234268Y-107917310D01*
X78330682Y-108061605D01*
X78453395Y-108184318D01*
X78597690Y-108280732D01*
X78758022Y-108347144D01*
X78928229Y-108381000D01*
X79101771Y-108381000D01*
X79271978Y-108347144D01*
X79432310Y-108280732D01*
X79576605Y-108184318D01*
X79699318Y-108061605D01*
X79795732Y-107917310D01*
X79826775Y-107842366D01*
X83744000Y-111759592D01*
X83744001Y-115867202D01*
X83467204Y-116144000D01*
X82824854Y-116144000D01*
X82800000Y-116141552D01*
X82775146Y-116144000D01*
X82700807Y-116151322D01*
X82605425Y-116180255D01*
X82517521Y-116227241D01*
X82440473Y-116290473D01*
X82424629Y-116309779D01*
X81659785Y-117074624D01*
X81640473Y-117090473D01*
X81577241Y-117167521D01*
X81530255Y-117255426D01*
X81501322Y-117350808D01*
X81494000Y-117425147D01*
X81494000Y-117425154D01*
X81491553Y-117450000D01*
X81494000Y-117474847D01*
X81494001Y-118525144D01*
X81491553Y-118550000D01*
X81501322Y-118649192D01*
X81530255Y-118744574D01*
X81530256Y-118744575D01*
X81577242Y-118832479D01*
X81640474Y-118909527D01*
X81659780Y-118925371D01*
X82328408Y-119594000D01*
X76127000Y-119594000D01*
X76127000Y-90406000D01*
X134594000Y-90406000D01*
X134594001Y-119594000D01*
G37*
X134594001Y-119594000D02*
X84951591Y-119594000D01*
X85393833Y-119151758D01*
X85470931Y-119183693D01*
X85708757Y-119231000D01*
X85951243Y-119231000D01*
X86189069Y-119183693D01*
X86413097Y-119090898D01*
X86614717Y-118956180D01*
X86786180Y-118784717D01*
X86920898Y-118583097D01*
X87013693Y-118359069D01*
X87061000Y-118121243D01*
X87061000Y-117878757D01*
X87013693Y-117640931D01*
X86981758Y-117563833D01*
X89639591Y-114906001D01*
X91878407Y-114906001D01*
X90690409Y-116094000D01*
X89794846Y-116094000D01*
X89770000Y-116091553D01*
X89745154Y-116094000D01*
X89745146Y-116094000D01*
X89670807Y-116101322D01*
X89575425Y-116130255D01*
X89487521Y-116177241D01*
X89410473Y-116240473D01*
X89394629Y-116259779D01*
X88806167Y-116848242D01*
X88729069Y-116816307D01*
X88491243Y-116769000D01*
X88248757Y-116769000D01*
X88010931Y-116816307D01*
X87786903Y-116909102D01*
X87585283Y-117043820D01*
X87413820Y-117215283D01*
X87279102Y-117416903D01*
X87186307Y-117640931D01*
X87139000Y-117878757D01*
X87139000Y-118121243D01*
X87186307Y-118359069D01*
X87279102Y-118583097D01*
X87413820Y-118784717D01*
X87585283Y-118956180D01*
X87786903Y-119090898D01*
X88010931Y-119183693D01*
X88248757Y-119231000D01*
X88491243Y-119231000D01*
X88729069Y-119183693D01*
X88953097Y-119090898D01*
X89154717Y-118956180D01*
X89326180Y-118784717D01*
X89460898Y-118583097D01*
X89553693Y-118359069D01*
X89601000Y-118121243D01*
X89601000Y-117878757D01*
X89553693Y-117640931D01*
X89521758Y-117563833D01*
X89979592Y-117106000D01*
X90063103Y-117106000D01*
X89953820Y-117215283D01*
X89819102Y-117416903D01*
X89726307Y-117640931D01*
X89679000Y-117878757D01*
X89679000Y-118121243D01*
X89726307Y-118359069D01*
X89819102Y-118583097D01*
X89953820Y-118784717D01*
X90125283Y-118956180D01*
X90326903Y-119090898D01*
X90550931Y-119183693D01*
X90788757Y-119231000D01*
X91031243Y-119231000D01*
X91269069Y-119183693D01*
X91493097Y-119090898D01*
X91694717Y-118956180D01*
X91866180Y-118784717D01*
X92000898Y-118583097D01*
X92093693Y-118359069D01*
X92141000Y-118121243D01*
X92141000Y-117878757D01*
X92219000Y-117878757D01*
X92219000Y-118121243D01*
X92266307Y-118359069D01*
X92359102Y-118583097D01*
X92493820Y-118784717D01*
X92665283Y-118956180D01*
X92866903Y-119090898D01*
X93090931Y-119183693D01*
X93328757Y-119231000D01*
X93571243Y-119231000D01*
X93809069Y-119183693D01*
X94033097Y-119090898D01*
X94234717Y-118956180D01*
X94406180Y-118784717D01*
X94540898Y-118583097D01*
X94633693Y-118359069D01*
X94681000Y-118121243D01*
X94681000Y-117878757D01*
X95859000Y-117878757D01*
X95859000Y-118121243D01*
X95906307Y-118359069D01*
X95999102Y-118583097D01*
X96133820Y-118784717D01*
X96305283Y-118956180D01*
X96506903Y-119090898D01*
X96730931Y-119183693D01*
X96968757Y-119231000D01*
X97211243Y-119231000D01*
X97449069Y-119183693D01*
X97673097Y-119090898D01*
X97874717Y-118956180D01*
X98046180Y-118784717D01*
X98180898Y-118583097D01*
X98273693Y-118359069D01*
X98321000Y-118121243D01*
X98321000Y-117878757D01*
X98399000Y-117878757D01*
X98399000Y-118121243D01*
X98446307Y-118359069D01*
X98539102Y-118583097D01*
X98673820Y-118784717D01*
X98845283Y-118956180D01*
X99046903Y-119090898D01*
X99270931Y-119183693D01*
X99508757Y-119231000D01*
X99751243Y-119231000D01*
X99989069Y-119183693D01*
X100213097Y-119090898D01*
X100414717Y-118956180D01*
X100586180Y-118784717D01*
X100720898Y-118583097D01*
X100813693Y-118359069D01*
X100861000Y-118121243D01*
X100861000Y-117878757D01*
X100939000Y-117878757D01*
X100939000Y-118121243D01*
X100986307Y-118359069D01*
X101079102Y-118583097D01*
X101213820Y-118784717D01*
X101385283Y-118956180D01*
X101586903Y-119090898D01*
X101810931Y-119183693D01*
X102048757Y-119231000D01*
X102291243Y-119231000D01*
X102529069Y-119183693D01*
X102753097Y-119090898D01*
X102954717Y-118956180D01*
X103126180Y-118784717D01*
X103260898Y-118583097D01*
X103353693Y-118359069D01*
X103401000Y-118121243D01*
X103401000Y-117878757D01*
X103479000Y-117878757D01*
X103479000Y-118121243D01*
X103526307Y-118359069D01*
X103619102Y-118583097D01*
X103753820Y-118784717D01*
X103925283Y-118956180D01*
X104126903Y-119090898D01*
X104350931Y-119183693D01*
X104588757Y-119231000D01*
X104831243Y-119231000D01*
X105069069Y-119183693D01*
X105293097Y-119090898D01*
X105494717Y-118956180D01*
X105666180Y-118784717D01*
X105800898Y-118583097D01*
X105893693Y-118359069D01*
X105941000Y-118121243D01*
X105941000Y-117878757D01*
X105893693Y-117640931D01*
X105800898Y-117416903D01*
X105666180Y-117215283D01*
X105494717Y-117043820D01*
X105293097Y-116909102D01*
X105069069Y-116816307D01*
X104831243Y-116769000D01*
X104588757Y-116769000D01*
X104350931Y-116816307D01*
X104126903Y-116909102D01*
X103925283Y-117043820D01*
X103753820Y-117215283D01*
X103619102Y-117416903D01*
X103526307Y-117640931D01*
X103479000Y-117878757D01*
X103401000Y-117878757D01*
X103353693Y-117640931D01*
X103260898Y-117416903D01*
X103126180Y-117215283D01*
X102954717Y-117043820D01*
X102753097Y-116909102D01*
X102529069Y-116816307D01*
X102291243Y-116769000D01*
X102048757Y-116769000D01*
X101810931Y-116816307D01*
X101586903Y-116909102D01*
X101385283Y-117043820D01*
X101213820Y-117215283D01*
X101079102Y-117416903D01*
X100986307Y-117640931D01*
X100939000Y-117878757D01*
X100861000Y-117878757D01*
X100813693Y-117640931D01*
X100720898Y-117416903D01*
X100586180Y-117215283D01*
X100414717Y-117043820D01*
X100213097Y-116909102D01*
X99989069Y-116816307D01*
X99751243Y-116769000D01*
X99508757Y-116769000D01*
X99270931Y-116816307D01*
X99046903Y-116909102D01*
X98845283Y-117043820D01*
X98673820Y-117215283D01*
X98539102Y-117416903D01*
X98446307Y-117640931D01*
X98399000Y-117878757D01*
X98321000Y-117878757D01*
X98273693Y-117640931D01*
X98180898Y-117416903D01*
X98046180Y-117215283D01*
X97874717Y-117043820D01*
X97673097Y-116909102D01*
X97449069Y-116816307D01*
X97211243Y-116769000D01*
X96968757Y-116769000D01*
X96730931Y-116816307D01*
X96506903Y-116909102D01*
X96305283Y-117043820D01*
X96133820Y-117215283D01*
X95999102Y-117416903D01*
X95906307Y-117640931D01*
X95859000Y-117878757D01*
X94681000Y-117878757D01*
X94633693Y-117640931D01*
X94540898Y-117416903D01*
X94406180Y-117215283D01*
X94234717Y-117043820D01*
X94033097Y-116909102D01*
X93809069Y-116816307D01*
X93571243Y-116769000D01*
X93328757Y-116769000D01*
X93090931Y-116816307D01*
X92866903Y-116909102D01*
X92665283Y-117043820D01*
X92493820Y-117215283D01*
X92359102Y-117416903D01*
X92266307Y-117640931D01*
X92219000Y-117878757D01*
X92141000Y-117878757D01*
X92093693Y-117640931D01*
X92061758Y-117563833D01*
X93569581Y-116056011D01*
X97992910Y-116056011D01*
X98015877Y-116078978D01*
X98127415Y-116153505D01*
X98251349Y-116204840D01*
X98382916Y-116231011D01*
X98517062Y-116231011D01*
X98648629Y-116204840D01*
X98772563Y-116153505D01*
X98884101Y-116078978D01*
X98907068Y-116056011D01*
X100180144Y-116056011D01*
X100204990Y-116058458D01*
X100229836Y-116056011D01*
X100229844Y-116056011D01*
X100304183Y-116048689D01*
X100399565Y-116019756D01*
X100487469Y-115972770D01*
X100564517Y-115909538D01*
X100580366Y-115890226D01*
X100932748Y-115537844D01*
X101450000Y-115537844D01*
X101524689Y-115530488D01*
X101596508Y-115508702D01*
X101662696Y-115473323D01*
X101720711Y-115425712D01*
X101768322Y-115367697D01*
X101803701Y-115301509D01*
X101825487Y-115229690D01*
X101832843Y-115155001D01*
X101832843Y-114355001D01*
X101825487Y-114280312D01*
X101803701Y-114208493D01*
X101768322Y-114142305D01*
X101720711Y-114084290D01*
X101662696Y-114036679D01*
X101596508Y-114001300D01*
X101524689Y-113979514D01*
X101450000Y-113972158D01*
X100550000Y-113972158D01*
X100475311Y-113979514D01*
X100403492Y-114001300D01*
X100337304Y-114036679D01*
X100279289Y-114084290D01*
X100231678Y-114142305D01*
X100196299Y-114208493D01*
X100174513Y-114280312D01*
X100167157Y-114355001D01*
X100167157Y-114872253D01*
X99995399Y-115044011D01*
X98907068Y-115044011D01*
X98884101Y-115021044D01*
X98772563Y-114946517D01*
X98648629Y-114895182D01*
X98517062Y-114869011D01*
X98446580Y-114869011D01*
X101340220Y-111975372D01*
X101359527Y-111959527D01*
X101422759Y-111882479D01*
X101449290Y-111832843D01*
X101450000Y-111832843D01*
X101524689Y-111825487D01*
X101596508Y-111803701D01*
X101662696Y-111768322D01*
X101720711Y-111720711D01*
X101768322Y-111662696D01*
X101803701Y-111596508D01*
X101825487Y-111524689D01*
X101832843Y-111450000D01*
X101832843Y-110650000D01*
X101825487Y-110575311D01*
X101803701Y-110503492D01*
X101768322Y-110437304D01*
X101720711Y-110379289D01*
X101662696Y-110331678D01*
X101596508Y-110296299D01*
X101524689Y-110274513D01*
X101450000Y-110267157D01*
X101159847Y-110267157D01*
X102171015Y-109255990D01*
X104628418Y-109255990D01*
X104340409Y-109544000D01*
X103798627Y-109544000D01*
X103768322Y-109487304D01*
X103720711Y-109429289D01*
X103662696Y-109381678D01*
X103596508Y-109346299D01*
X103524689Y-109324513D01*
X103450000Y-109317157D01*
X102550000Y-109317157D01*
X102475311Y-109324513D01*
X102403492Y-109346299D01*
X102337304Y-109381678D01*
X102279289Y-109429289D01*
X102231678Y-109487304D01*
X102196299Y-109553492D01*
X102174513Y-109625311D01*
X102167157Y-109700000D01*
X102167157Y-110500000D01*
X102174513Y-110574689D01*
X102196299Y-110646508D01*
X102231678Y-110712696D01*
X102279289Y-110770711D01*
X102337304Y-110818322D01*
X102403492Y-110853701D01*
X102475311Y-110875487D01*
X102550000Y-110882843D01*
X103450000Y-110882843D01*
X103524689Y-110875487D01*
X103596508Y-110853701D01*
X103662696Y-110818322D01*
X103720711Y-110770711D01*
X103768322Y-110712696D01*
X103803701Y-110646508D01*
X103825487Y-110574689D01*
X103827328Y-110556000D01*
X103994001Y-110556000D01*
X103994000Y-110708425D01*
X103952491Y-110742491D01*
X103886536Y-110822857D01*
X103837527Y-110914547D01*
X103807347Y-111014035D01*
X103797157Y-111117500D01*
X103797157Y-111412500D01*
X103800628Y-111447743D01*
X103768322Y-111387304D01*
X103720711Y-111329289D01*
X103662696Y-111281678D01*
X103596508Y-111246299D01*
X103524689Y-111224513D01*
X103450000Y-111217157D01*
X102550000Y-111217157D01*
X102475311Y-111224513D01*
X102403492Y-111246299D01*
X102337304Y-111281678D01*
X102279289Y-111329289D01*
X102231678Y-111387304D01*
X102196299Y-111453492D01*
X102174513Y-111525311D01*
X102167157Y-111600000D01*
X102167157Y-112400000D01*
X102174513Y-112474689D01*
X102196299Y-112546508D01*
X102231678Y-112612696D01*
X102279289Y-112670711D01*
X102337304Y-112718322D01*
X102403492Y-112753701D01*
X102475311Y-112775487D01*
X102550000Y-112782843D01*
X103302252Y-112782843D01*
X103559474Y-113040066D01*
X103524689Y-113029514D01*
X103450000Y-113022158D01*
X102550000Y-113022158D01*
X102475311Y-113029514D01*
X102403492Y-113051300D01*
X102337304Y-113086679D01*
X102279289Y-113134290D01*
X102231678Y-113192305D01*
X102196299Y-113258493D01*
X102174513Y-113330312D01*
X102167157Y-113405001D01*
X102167157Y-114205001D01*
X102174513Y-114279690D01*
X102196299Y-114351509D01*
X102231678Y-114417697D01*
X102279289Y-114475712D01*
X102337304Y-114523323D01*
X102403492Y-114558702D01*
X102475311Y-114580488D01*
X102550000Y-114587844D01*
X102931732Y-114587844D01*
X102986033Y-114669112D01*
X103080888Y-114763967D01*
X103192426Y-114838494D01*
X103316360Y-114889829D01*
X103447927Y-114916000D01*
X103582073Y-114916000D01*
X103713640Y-114889829D01*
X103837574Y-114838494D01*
X103949112Y-114763967D01*
X103954182Y-114758897D01*
X104032857Y-114823464D01*
X104124547Y-114872473D01*
X104224035Y-114902653D01*
X104327500Y-114912843D01*
X104672500Y-114912843D01*
X104726926Y-114907483D01*
X104435408Y-115199001D01*
X103815989Y-115199001D01*
X103803701Y-115158493D01*
X103768322Y-115092305D01*
X103720711Y-115034290D01*
X103662696Y-114986679D01*
X103596508Y-114951300D01*
X103524689Y-114929514D01*
X103450000Y-114922158D01*
X102550000Y-114922158D01*
X102475311Y-114929514D01*
X102403492Y-114951300D01*
X102337304Y-114986679D01*
X102279289Y-115034290D01*
X102231678Y-115092305D01*
X102196299Y-115158493D01*
X102174513Y-115230312D01*
X102167157Y-115305001D01*
X102167157Y-116105001D01*
X102174513Y-116179690D01*
X102196299Y-116251509D01*
X102231678Y-116317697D01*
X102279289Y-116375712D01*
X102337304Y-116423323D01*
X102403492Y-116458702D01*
X102475311Y-116480488D01*
X102550000Y-116487844D01*
X103450000Y-116487844D01*
X103524689Y-116480488D01*
X103596508Y-116458702D01*
X103662696Y-116423323D01*
X103720711Y-116375712D01*
X103768322Y-116317697D01*
X103803701Y-116251509D01*
X103815989Y-116211001D01*
X104620153Y-116211001D01*
X104644999Y-116213448D01*
X104669845Y-116211001D01*
X104669853Y-116211001D01*
X104744192Y-116203679D01*
X104839574Y-116174746D01*
X104927478Y-116127760D01*
X105004526Y-116064528D01*
X105020375Y-116045216D01*
X105740220Y-115325372D01*
X105759527Y-115309527D01*
X105822759Y-115232479D01*
X105869745Y-115144575D01*
X105898678Y-115049193D01*
X105906000Y-114974854D01*
X105908448Y-114950000D01*
X105906000Y-114925146D01*
X105906000Y-112674854D01*
X105908448Y-112650000D01*
X105898678Y-112550807D01*
X105869745Y-112455425D01*
X105865190Y-112446903D01*
X105822759Y-112367521D01*
X105759527Y-112290473D01*
X105740220Y-112274628D01*
X105360376Y-111894785D01*
X105344527Y-111875473D01*
X105267479Y-111812241D01*
X105179575Y-111765255D01*
X105088456Y-111737615D01*
X105113464Y-111707143D01*
X105162473Y-111615453D01*
X105192653Y-111515965D01*
X105202843Y-111412500D01*
X105202843Y-111117500D01*
X105192653Y-111014035D01*
X105162473Y-110914547D01*
X105113464Y-110822857D01*
X105047509Y-110742491D01*
X105006000Y-110708425D01*
X105006000Y-110309591D01*
X105609592Y-109706000D01*
X107836056Y-109706000D01*
X107815080Y-109717212D01*
X107747594Y-109772596D01*
X107692210Y-109840082D01*
X107651056Y-109917076D01*
X107625713Y-110000619D01*
X107617156Y-110087501D01*
X107617156Y-110762501D01*
X107625713Y-110849383D01*
X107637179Y-110887181D01*
X107599381Y-110875715D01*
X107512499Y-110867158D01*
X106837499Y-110867158D01*
X106750617Y-110875715D01*
X106667074Y-110901058D01*
X106590080Y-110942212D01*
X106522594Y-110997596D01*
X106467210Y-111065082D01*
X106426056Y-111142076D01*
X106400713Y-111225619D01*
X106392156Y-111312501D01*
X106392156Y-111437501D01*
X106400713Y-111524383D01*
X106426056Y-111607926D01*
X106435183Y-111625001D01*
X106426056Y-111642076D01*
X106400713Y-111725619D01*
X106392156Y-111812501D01*
X106392156Y-111937501D01*
X106400713Y-112024383D01*
X106426056Y-112107926D01*
X106435183Y-112125001D01*
X106426056Y-112142076D01*
X106400713Y-112225619D01*
X106392156Y-112312501D01*
X106392156Y-112437501D01*
X106400713Y-112524383D01*
X106426056Y-112607926D01*
X106435183Y-112625001D01*
X106426056Y-112642076D01*
X106400713Y-112725619D01*
X106392156Y-112812501D01*
X106392156Y-112937501D01*
X106400713Y-113024383D01*
X106426056Y-113107926D01*
X106435183Y-113125001D01*
X106426056Y-113142076D01*
X106400713Y-113225619D01*
X106392156Y-113312501D01*
X106392156Y-113437501D01*
X106400713Y-113524383D01*
X106426056Y-113607926D01*
X106435183Y-113625001D01*
X106426056Y-113642076D01*
X106400713Y-113725619D01*
X106392156Y-113812501D01*
X106392156Y-113937501D01*
X106400713Y-114024383D01*
X106426056Y-114107926D01*
X106435183Y-114125001D01*
X106426056Y-114142076D01*
X106400713Y-114225619D01*
X106392156Y-114312501D01*
X106392156Y-114437501D01*
X106400713Y-114524383D01*
X106426056Y-114607926D01*
X106467210Y-114684920D01*
X106522594Y-114752406D01*
X106590080Y-114807790D01*
X106667074Y-114848944D01*
X106750617Y-114874287D01*
X106837499Y-114882844D01*
X107512499Y-114882844D01*
X107599381Y-114874287D01*
X107637179Y-114862821D01*
X107625713Y-114900619D01*
X107617156Y-114987501D01*
X107617156Y-115662501D01*
X107625713Y-115749383D01*
X107651056Y-115832926D01*
X107692210Y-115909920D01*
X107747594Y-115977406D01*
X107815080Y-116032790D01*
X107892074Y-116073944D01*
X107975617Y-116099287D01*
X108062499Y-116107844D01*
X108187499Y-116107844D01*
X108274381Y-116099287D01*
X108357924Y-116073944D01*
X108374999Y-116064817D01*
X108392074Y-116073944D01*
X108475617Y-116099287D01*
X108562499Y-116107844D01*
X108687499Y-116107844D01*
X108774381Y-116099287D01*
X108857924Y-116073944D01*
X108874999Y-116064817D01*
X108892074Y-116073944D01*
X108975617Y-116099287D01*
X109062499Y-116107844D01*
X109187499Y-116107844D01*
X109274381Y-116099287D01*
X109357924Y-116073944D01*
X109374999Y-116064817D01*
X109392074Y-116073944D01*
X109475617Y-116099287D01*
X109562499Y-116107844D01*
X109687499Y-116107844D01*
X109774381Y-116099287D01*
X109857924Y-116073944D01*
X109874999Y-116064817D01*
X109892074Y-116073944D01*
X109975617Y-116099287D01*
X110062499Y-116107844D01*
X110118999Y-116107844D01*
X110119000Y-116617921D01*
X110096032Y-116640889D01*
X110021505Y-116752427D01*
X109970170Y-116876361D01*
X109943999Y-117007928D01*
X109943999Y-117142074D01*
X109970170Y-117273641D01*
X110021505Y-117397575D01*
X110096032Y-117509113D01*
X110190887Y-117603968D01*
X110302425Y-117678495D01*
X110426359Y-117729830D01*
X110557926Y-117756001D01*
X110692072Y-117756001D01*
X110823639Y-117729830D01*
X110947573Y-117678495D01*
X111059111Y-117603968D01*
X111153966Y-117509113D01*
X111228493Y-117397575D01*
X111243331Y-117361752D01*
X111323149Y-117441570D01*
X111339052Y-117460948D01*
X111358429Y-117476850D01*
X111416404Y-117524429D01*
X111504655Y-117571600D01*
X111504657Y-117571601D01*
X111600415Y-117600649D01*
X111675053Y-117608000D01*
X111675055Y-117608000D01*
X111699999Y-117610457D01*
X111724943Y-117608000D01*
X112049459Y-117608000D01*
X112093544Y-117690477D01*
X112168360Y-117781640D01*
X112259523Y-117856456D01*
X112311097Y-117884023D01*
X112313822Y-117911692D01*
X112342755Y-118007074D01*
X112352259Y-118024854D01*
X112389742Y-118094979D01*
X112452974Y-118172027D01*
X112472280Y-118187871D01*
X113124628Y-118840220D01*
X113140473Y-118859527D01*
X113217521Y-118922759D01*
X113280047Y-118956180D01*
X113305425Y-118969745D01*
X113400807Y-118998678D01*
X113500000Y-119008448D01*
X113524854Y-119006000D01*
X115225154Y-119006000D01*
X115250000Y-119008447D01*
X115274846Y-119006000D01*
X115274854Y-119006000D01*
X115349193Y-118998678D01*
X115444575Y-118969745D01*
X115532479Y-118922759D01*
X115609527Y-118859527D01*
X115625376Y-118840215D01*
X116090222Y-118375370D01*
X116109527Y-118359527D01*
X116172759Y-118282479D01*
X116219745Y-118194575D01*
X116248678Y-118099193D01*
X116256000Y-118024854D01*
X116256000Y-118024853D01*
X116258448Y-118000000D01*
X116256000Y-117975146D01*
X116256000Y-116959591D01*
X116709592Y-116506000D01*
X118975154Y-116506000D01*
X119000000Y-116508447D01*
X119024846Y-116506000D01*
X119024854Y-116506000D01*
X119099193Y-116498678D01*
X119194575Y-116469745D01*
X119282479Y-116422759D01*
X119359527Y-116359527D01*
X119375376Y-116340215D01*
X119534591Y-116181000D01*
X119567073Y-116181000D01*
X119698640Y-116154829D01*
X119822574Y-116103494D01*
X119934112Y-116028967D01*
X120028967Y-115934112D01*
X120103494Y-115822574D01*
X120154829Y-115698640D01*
X120181000Y-115567073D01*
X120181000Y-115432927D01*
X120154829Y-115301360D01*
X120103494Y-115177426D01*
X120028967Y-115065888D01*
X119934112Y-114971033D01*
X119822574Y-114896506D01*
X119698640Y-114845171D01*
X119567073Y-114819000D01*
X119432927Y-114819000D01*
X119301360Y-114845171D01*
X119177426Y-114896506D01*
X119065888Y-114971033D01*
X118971033Y-115065888D01*
X118896506Y-115177426D01*
X118845171Y-115301360D01*
X118819000Y-115432927D01*
X118819000Y-115465409D01*
X118790409Y-115494000D01*
X116524845Y-115494000D01*
X116499999Y-115491553D01*
X116475153Y-115494000D01*
X116475146Y-115494000D01*
X116414229Y-115500000D01*
X116400806Y-115501322D01*
X116323230Y-115524854D01*
X116305425Y-115530255D01*
X116217521Y-115577241D01*
X116140473Y-115640473D01*
X116124629Y-115659779D01*
X115409780Y-116374629D01*
X115390474Y-116390473D01*
X115327242Y-116467521D01*
X115304791Y-116509523D01*
X115280255Y-116555426D01*
X115251322Y-116650808D01*
X115241553Y-116750000D01*
X115244001Y-116774856D01*
X115244000Y-117790408D01*
X115040409Y-117994000D01*
X113709592Y-117994000D01*
X113474937Y-117759345D01*
X113531456Y-117690477D01*
X113587049Y-117586470D01*
X113621284Y-117473615D01*
X113632843Y-117356250D01*
X113632843Y-116843750D01*
X113621284Y-116726385D01*
X113615707Y-116708000D01*
X114275056Y-116708000D01*
X114300000Y-116710457D01*
X114324944Y-116708000D01*
X114324947Y-116708000D01*
X114399585Y-116700649D01*
X114495343Y-116671601D01*
X114583595Y-116624429D01*
X114660948Y-116560948D01*
X114676855Y-116541565D01*
X114976560Y-116241859D01*
X114995948Y-116225948D01*
X115035638Y-116177584D01*
X115085453Y-116162473D01*
X115177143Y-116113464D01*
X115257509Y-116047509D01*
X115323464Y-115967143D01*
X115372473Y-115875453D01*
X115402653Y-115775965D01*
X115412843Y-115672500D01*
X115412843Y-115327500D01*
X115402653Y-115224035D01*
X115372473Y-115124547D01*
X115323464Y-115032857D01*
X115257509Y-114952491D01*
X115177143Y-114886536D01*
X115085453Y-114837527D01*
X114985965Y-114807347D01*
X114882500Y-114797157D01*
X114587500Y-114797157D01*
X114484035Y-114807347D01*
X114416961Y-114827694D01*
X114432653Y-114775965D01*
X114442843Y-114672500D01*
X114442843Y-114330465D01*
X117904000Y-114330465D01*
X117904000Y-114469535D01*
X117931131Y-114605933D01*
X117984351Y-114734416D01*
X118061614Y-114850049D01*
X118159951Y-114948386D01*
X118275584Y-115025649D01*
X118404067Y-115078869D01*
X118540465Y-115106000D01*
X118679535Y-115106000D01*
X118815933Y-115078869D01*
X118944416Y-115025649D01*
X119060049Y-114948386D01*
X119158386Y-114850049D01*
X119235649Y-114734416D01*
X119288869Y-114605933D01*
X119316000Y-114469535D01*
X119316000Y-114330465D01*
X123684000Y-114330465D01*
X123684000Y-114469535D01*
X123711131Y-114605933D01*
X123764351Y-114734416D01*
X123841614Y-114850049D01*
X123939951Y-114948386D01*
X124055584Y-115025649D01*
X124184067Y-115078869D01*
X124320465Y-115106000D01*
X124459535Y-115106000D01*
X124595933Y-115078869D01*
X124724416Y-115025649D01*
X124840049Y-114948386D01*
X124938386Y-114850049D01*
X125015649Y-114734416D01*
X125068869Y-114605933D01*
X125096000Y-114469535D01*
X125096000Y-114330465D01*
X125068869Y-114194067D01*
X125015649Y-114065584D01*
X124938386Y-113949951D01*
X124840049Y-113851614D01*
X124724416Y-113774351D01*
X124595933Y-113721131D01*
X124459535Y-113694000D01*
X124320465Y-113694000D01*
X124184067Y-113721131D01*
X124055584Y-113774351D01*
X123939951Y-113851614D01*
X123841614Y-113949951D01*
X123764351Y-114065584D01*
X123711131Y-114194067D01*
X123684000Y-114330465D01*
X119316000Y-114330465D01*
X119288869Y-114194067D01*
X119235649Y-114065584D01*
X119158386Y-113949951D01*
X119060049Y-113851614D01*
X118944416Y-113774351D01*
X118815933Y-113721131D01*
X118679535Y-113694000D01*
X118540465Y-113694000D01*
X118404067Y-113721131D01*
X118275584Y-113774351D01*
X118159951Y-113851614D01*
X118061614Y-113949951D01*
X117984351Y-114065584D01*
X117931131Y-114194067D01*
X117904000Y-114330465D01*
X114442843Y-114330465D01*
X114442843Y-114327500D01*
X114432653Y-114224035D01*
X114402473Y-114124547D01*
X114353464Y-114032857D01*
X114287509Y-113952491D01*
X114207143Y-113886536D01*
X114185561Y-113875000D01*
X114207143Y-113863464D01*
X114250000Y-113828292D01*
X114292857Y-113863464D01*
X114384547Y-113912473D01*
X114484035Y-113942653D01*
X114587500Y-113952843D01*
X114882500Y-113952843D01*
X114985965Y-113942653D01*
X115085453Y-113912473D01*
X115177143Y-113863464D01*
X115257509Y-113797509D01*
X115291575Y-113756000D01*
X115361564Y-113756000D01*
X115386410Y-113758447D01*
X115411256Y-113756000D01*
X115411264Y-113756000D01*
X115485603Y-113748678D01*
X115580985Y-113719745D01*
X115668889Y-113672759D01*
X115745937Y-113609527D01*
X115761786Y-113590215D01*
X117346002Y-112006000D01*
X120042921Y-112006000D01*
X120065888Y-112028967D01*
X120177426Y-112103494D01*
X120301360Y-112154829D01*
X120432927Y-112181000D01*
X120567073Y-112181000D01*
X120698640Y-112154829D01*
X120822574Y-112103494D01*
X120934112Y-112028967D01*
X120975000Y-111988079D01*
X121040888Y-112053967D01*
X121152426Y-112128494D01*
X121276360Y-112179829D01*
X121407927Y-112206000D01*
X121542073Y-112206000D01*
X121673640Y-112179829D01*
X121797574Y-112128494D01*
X121909112Y-112053967D01*
X122003967Y-111959112D01*
X122078494Y-111847574D01*
X122129829Y-111723640D01*
X122156000Y-111592073D01*
X122156000Y-111457927D01*
X122129829Y-111326360D01*
X122078494Y-111202426D01*
X122003967Y-111090888D01*
X121909112Y-110996033D01*
X121797574Y-110921506D01*
X121673640Y-110870171D01*
X121563942Y-110848350D01*
X121225376Y-110509785D01*
X121209527Y-110490473D01*
X121132479Y-110427241D01*
X121044575Y-110380255D01*
X120949193Y-110351322D01*
X120874854Y-110344000D01*
X120874846Y-110344000D01*
X120850000Y-110341553D01*
X120825154Y-110344000D01*
X117174846Y-110344000D01*
X117150000Y-110341553D01*
X117125154Y-110344000D01*
X117125146Y-110344000D01*
X117050807Y-110351322D01*
X116955425Y-110380255D01*
X116867521Y-110427241D01*
X116790473Y-110490473D01*
X116774628Y-110509780D01*
X115540409Y-111744000D01*
X115291575Y-111744000D01*
X115257509Y-111702491D01*
X115177143Y-111636536D01*
X115085453Y-111587527D01*
X114985965Y-111557347D01*
X114882500Y-111547157D01*
X114587500Y-111547157D01*
X114484035Y-111557347D01*
X114384547Y-111587527D01*
X114292857Y-111636536D01*
X114250000Y-111671708D01*
X114207143Y-111636536D01*
X114115453Y-111587527D01*
X114015965Y-111557347D01*
X113912500Y-111547157D01*
X113617500Y-111547157D01*
X113514035Y-111557347D01*
X113414547Y-111587527D01*
X113322857Y-111636536D01*
X113242491Y-111702491D01*
X113176536Y-111782857D01*
X113127527Y-111874547D01*
X113113447Y-111920961D01*
X112665408Y-112369001D01*
X112516806Y-112369001D01*
X112582924Y-112348944D01*
X112659918Y-112307790D01*
X112727404Y-112252406D01*
X112782788Y-112184920D01*
X112823942Y-112107926D01*
X112849285Y-112024383D01*
X112857842Y-111937501D01*
X112857842Y-111812501D01*
X112849285Y-111725619D01*
X112823942Y-111642076D01*
X112814815Y-111625001D01*
X112823942Y-111607926D01*
X112849285Y-111524383D01*
X112857842Y-111437501D01*
X112857842Y-111312501D01*
X112849285Y-111225619D01*
X112823942Y-111142076D01*
X112782788Y-111065082D01*
X112727404Y-110997596D01*
X112659918Y-110942212D01*
X112582924Y-110901058D01*
X112499381Y-110875715D01*
X112412499Y-110867158D01*
X111737499Y-110867158D01*
X111650617Y-110875715D01*
X111612819Y-110887181D01*
X111624285Y-110849383D01*
X111632842Y-110762501D01*
X111632842Y-110431143D01*
X111633447Y-110425001D01*
X111632842Y-110418859D01*
X111632842Y-110087501D01*
X111624285Y-110000619D01*
X111606000Y-109940343D01*
X111606000Y-109857079D01*
X111628967Y-109834112D01*
X111703494Y-109722574D01*
X111754829Y-109598640D01*
X111781000Y-109467073D01*
X111781000Y-109332927D01*
X111754829Y-109201360D01*
X111703494Y-109077426D01*
X111628967Y-108965888D01*
X111534112Y-108871033D01*
X111422574Y-108796506D01*
X111298640Y-108745171D01*
X111167073Y-108719000D01*
X111032927Y-108719000D01*
X110901360Y-108745171D01*
X110777426Y-108796506D01*
X110665888Y-108871033D01*
X110625815Y-108911106D01*
X110623677Y-108889396D01*
X110613321Y-108855254D01*
X110594744Y-108794014D01*
X110585779Y-108777242D01*
X110547758Y-108706110D01*
X110484526Y-108629062D01*
X110465219Y-108613217D01*
X109925045Y-108073044D01*
X109935824Y-108069774D01*
X110023728Y-108022788D01*
X110100776Y-107959556D01*
X110116625Y-107940244D01*
X111800871Y-106256000D01*
X114225154Y-106256000D01*
X114250000Y-106258447D01*
X114274846Y-106256000D01*
X114274854Y-106256000D01*
X114349193Y-106248678D01*
X114444575Y-106219745D01*
X114532479Y-106172759D01*
X114609527Y-106109527D01*
X114625376Y-106090215D01*
X115340220Y-105375372D01*
X115359527Y-105359527D01*
X115422759Y-105282479D01*
X115469745Y-105194575D01*
X115490738Y-105125370D01*
X115498678Y-105099194D01*
X115501575Y-105069778D01*
X115506000Y-105024854D01*
X115506000Y-105024847D01*
X115508447Y-105000001D01*
X115506000Y-104975155D01*
X115506000Y-104207079D01*
X115528967Y-104184112D01*
X115603494Y-104072574D01*
X115654829Y-103948640D01*
X115681000Y-103817073D01*
X115681000Y-103682927D01*
X115655760Y-103556040D01*
X120270449Y-103556040D01*
X131848242Y-115133834D01*
X131816307Y-115210931D01*
X131769000Y-115448757D01*
X131769000Y-115691243D01*
X131816307Y-115929069D01*
X131909102Y-116153097D01*
X132043820Y-116354717D01*
X132215283Y-116526180D01*
X132416903Y-116660898D01*
X132640931Y-116753693D01*
X132878757Y-116801000D01*
X133121243Y-116801000D01*
X133359069Y-116753693D01*
X133583097Y-116660898D01*
X133784717Y-116526180D01*
X133956180Y-116354717D01*
X134090898Y-116153097D01*
X134183693Y-115929069D01*
X134231000Y-115691243D01*
X134231000Y-115448757D01*
X134183693Y-115210931D01*
X134090898Y-114986903D01*
X133956180Y-114785283D01*
X133784717Y-114613820D01*
X133583097Y-114479102D01*
X133359069Y-114386307D01*
X133121243Y-114339000D01*
X132878757Y-114339000D01*
X132640931Y-114386307D01*
X132563834Y-114418242D01*
X121251621Y-103106030D01*
X122360439Y-103106030D01*
X131848242Y-112593834D01*
X131816307Y-112670931D01*
X131769000Y-112908757D01*
X131769000Y-113151243D01*
X131816307Y-113389069D01*
X131909102Y-113613097D01*
X132043820Y-113814717D01*
X132215283Y-113986180D01*
X132416903Y-114120898D01*
X132640931Y-114213693D01*
X132878757Y-114261000D01*
X133121243Y-114261000D01*
X133359069Y-114213693D01*
X133583097Y-114120898D01*
X133784717Y-113986180D01*
X133956180Y-113814717D01*
X134090898Y-113613097D01*
X134183693Y-113389069D01*
X134231000Y-113151243D01*
X134231000Y-112908757D01*
X134183693Y-112670931D01*
X134090898Y-112446903D01*
X133956180Y-112245283D01*
X133784717Y-112073820D01*
X133583097Y-111939102D01*
X133359069Y-111846307D01*
X133121243Y-111799000D01*
X132878757Y-111799000D01*
X132640931Y-111846307D01*
X132563834Y-111878242D01*
X123341611Y-102656020D01*
X124450429Y-102656020D01*
X131848242Y-110053834D01*
X131816307Y-110130931D01*
X131769000Y-110368757D01*
X131769000Y-110611243D01*
X131816307Y-110849069D01*
X131909102Y-111073097D01*
X132043820Y-111274717D01*
X132215283Y-111446180D01*
X132416903Y-111580898D01*
X132640931Y-111673693D01*
X132878757Y-111721000D01*
X133121243Y-111721000D01*
X133359069Y-111673693D01*
X133583097Y-111580898D01*
X133784717Y-111446180D01*
X133956180Y-111274717D01*
X134090898Y-111073097D01*
X134183693Y-110849069D01*
X134231000Y-110611243D01*
X134231000Y-110368757D01*
X134183693Y-110130931D01*
X134090898Y-109906903D01*
X133956180Y-109705283D01*
X133784717Y-109533820D01*
X133583097Y-109399102D01*
X133359069Y-109306307D01*
X133121243Y-109259000D01*
X132878757Y-109259000D01*
X132640931Y-109306307D01*
X132563834Y-109338242D01*
X125431601Y-102206010D01*
X126540419Y-102206010D01*
X131848242Y-107513834D01*
X131816307Y-107590931D01*
X131769000Y-107828757D01*
X131769000Y-108071243D01*
X131816307Y-108309069D01*
X131909102Y-108533097D01*
X132043820Y-108734717D01*
X132215283Y-108906180D01*
X132416903Y-109040898D01*
X132640931Y-109133693D01*
X132878757Y-109181000D01*
X133121243Y-109181000D01*
X133359069Y-109133693D01*
X133583097Y-109040898D01*
X133784717Y-108906180D01*
X133956180Y-108734717D01*
X134090898Y-108533097D01*
X134183693Y-108309069D01*
X134231000Y-108071243D01*
X134231000Y-107828757D01*
X134183693Y-107590931D01*
X134090898Y-107366903D01*
X133956180Y-107165283D01*
X133784717Y-106993820D01*
X133583097Y-106859102D01*
X133359069Y-106766307D01*
X133121243Y-106719000D01*
X132878757Y-106719000D01*
X132640931Y-106766307D01*
X132563834Y-106798242D01*
X127501611Y-101736020D01*
X128610429Y-101736020D01*
X131848242Y-104973833D01*
X131816307Y-105050931D01*
X131769000Y-105288757D01*
X131769000Y-105531243D01*
X131816307Y-105769069D01*
X131909102Y-105993097D01*
X132043820Y-106194717D01*
X132215283Y-106366180D01*
X132416903Y-106500898D01*
X132640931Y-106593693D01*
X132878757Y-106641000D01*
X133121243Y-106641000D01*
X133359069Y-106593693D01*
X133583097Y-106500898D01*
X133784717Y-106366180D01*
X133956180Y-106194717D01*
X134090898Y-105993097D01*
X134183693Y-105769069D01*
X134231000Y-105531243D01*
X134231000Y-105288757D01*
X134183693Y-105050931D01*
X134090898Y-104826903D01*
X133956180Y-104625283D01*
X133784717Y-104453820D01*
X133583097Y-104319102D01*
X133359069Y-104226307D01*
X133121243Y-104179000D01*
X132878757Y-104179000D01*
X132640931Y-104226307D01*
X132563833Y-104258242D01*
X129591602Y-101286011D01*
X130700420Y-101286011D01*
X131848242Y-102433833D01*
X131816307Y-102510931D01*
X131769000Y-102748757D01*
X131769000Y-102991243D01*
X131816307Y-103229069D01*
X131909102Y-103453097D01*
X132043820Y-103654717D01*
X132215283Y-103826180D01*
X132416903Y-103960898D01*
X132640931Y-104053693D01*
X132878757Y-104101000D01*
X133121243Y-104101000D01*
X133359069Y-104053693D01*
X133583097Y-103960898D01*
X133784717Y-103826180D01*
X133956180Y-103654717D01*
X134090898Y-103453097D01*
X134183693Y-103229069D01*
X134231000Y-102991243D01*
X134231000Y-102748757D01*
X134183693Y-102510931D01*
X134090898Y-102286903D01*
X133956180Y-102085283D01*
X133784717Y-101913820D01*
X133583097Y-101779102D01*
X133359069Y-101686307D01*
X133121243Y-101639000D01*
X132878757Y-101639000D01*
X132640931Y-101686307D01*
X132563833Y-101718242D01*
X131681591Y-100836000D01*
X131877168Y-100836000D01*
X131909102Y-100913097D01*
X132043820Y-101114717D01*
X132215283Y-101286180D01*
X132416903Y-101420898D01*
X132640931Y-101513693D01*
X132878757Y-101561000D01*
X133121243Y-101561000D01*
X133359069Y-101513693D01*
X133583097Y-101420898D01*
X133784717Y-101286180D01*
X133956180Y-101114717D01*
X134090898Y-100913097D01*
X134183693Y-100689069D01*
X134231000Y-100451243D01*
X134231000Y-100208757D01*
X134183693Y-99970931D01*
X134090898Y-99746903D01*
X133956180Y-99545283D01*
X133784717Y-99373820D01*
X133583097Y-99239102D01*
X133359069Y-99146307D01*
X133121243Y-99099000D01*
X132878757Y-99099000D01*
X132640931Y-99146307D01*
X132416903Y-99239102D01*
X132215283Y-99373820D01*
X132043820Y-99545283D01*
X131909102Y-99746903D01*
X131877168Y-99824000D01*
X117602541Y-99824000D01*
X117603494Y-99822574D01*
X117654829Y-99698640D01*
X117681000Y-99567073D01*
X117681000Y-99432927D01*
X117654829Y-99301360D01*
X117603494Y-99177426D01*
X117528967Y-99065888D01*
X117506000Y-99042921D01*
X117506000Y-98959591D01*
X117625370Y-98840221D01*
X118459592Y-98006000D01*
X124225154Y-98006000D01*
X124250000Y-98008447D01*
X124274846Y-98006000D01*
X124274854Y-98006000D01*
X124349193Y-97998678D01*
X124444575Y-97969745D01*
X124532479Y-97922759D01*
X124609527Y-97859527D01*
X124625376Y-97840215D01*
X125034592Y-97431000D01*
X125067073Y-97431000D01*
X125198640Y-97404829D01*
X125322574Y-97353494D01*
X125434112Y-97278967D01*
X125528967Y-97184112D01*
X125603494Y-97072574D01*
X125654829Y-96948640D01*
X125681000Y-96817073D01*
X125681000Y-96682927D01*
X125654829Y-96551360D01*
X125603494Y-96427426D01*
X125528967Y-96315888D01*
X125434112Y-96221033D01*
X125322574Y-96146506D01*
X125198640Y-96095171D01*
X125067073Y-96069000D01*
X124932927Y-96069000D01*
X124801360Y-96095171D01*
X124677426Y-96146506D01*
X124565888Y-96221033D01*
X124471033Y-96315888D01*
X124396506Y-96427426D01*
X124345171Y-96551360D01*
X124319000Y-96682927D01*
X124319000Y-96715408D01*
X124040409Y-96994000D01*
X118274854Y-96994000D01*
X118250000Y-96991552D01*
X118225146Y-96994000D01*
X118150807Y-97001322D01*
X118055425Y-97030255D01*
X117967521Y-97077241D01*
X117890473Y-97140473D01*
X117874629Y-97159779D01*
X116909779Y-98124630D01*
X116659785Y-98374624D01*
X116640473Y-98390473D01*
X116577241Y-98467521D01*
X116530255Y-98555426D01*
X116501322Y-98650808D01*
X116494000Y-98725147D01*
X116494000Y-98725154D01*
X116491553Y-98750000D01*
X116494000Y-98774847D01*
X116494000Y-99042921D01*
X116471033Y-99065888D01*
X116396506Y-99177426D01*
X116345171Y-99301360D01*
X116319000Y-99432927D01*
X116319000Y-99567073D01*
X116345171Y-99698640D01*
X116396506Y-99822574D01*
X116397459Y-99824000D01*
X111944845Y-99824000D01*
X111919999Y-99821553D01*
X111895153Y-99824000D01*
X111895146Y-99824000D01*
X111830694Y-99830348D01*
X111820806Y-99831322D01*
X111816999Y-99832477D01*
X111725425Y-99860255D01*
X111637521Y-99907241D01*
X111560473Y-99970473D01*
X111544628Y-99989780D01*
X108290409Y-103244000D01*
X102956589Y-103244000D01*
X103700219Y-102500371D01*
X103719526Y-102484526D01*
X103749126Y-102448458D01*
X103806031Y-102418042D01*
X103886776Y-102351776D01*
X103953042Y-102271031D01*
X104002282Y-102178909D01*
X104032604Y-102078952D01*
X104042842Y-101974999D01*
X104042842Y-100324999D01*
X104032604Y-100221046D01*
X104002282Y-100121089D01*
X103953042Y-100028967D01*
X103886776Y-99948222D01*
X103806031Y-99881956D01*
X103713909Y-99832716D01*
X103613952Y-99802394D01*
X103509999Y-99792156D01*
X103209999Y-99792156D01*
X103106046Y-99802394D01*
X103006089Y-99832716D01*
X102913967Y-99881956D01*
X102833222Y-99948222D01*
X102766956Y-100028967D01*
X102724999Y-100107463D01*
X102683042Y-100028967D01*
X102616776Y-99948222D01*
X102536031Y-99881956D01*
X102443909Y-99832716D01*
X102343952Y-99802394D01*
X102239999Y-99792156D01*
X101939999Y-99792156D01*
X101836046Y-99802394D01*
X101736089Y-99832716D01*
X101643967Y-99881956D01*
X101563222Y-99948222D01*
X101496956Y-100028967D01*
X101454999Y-100107463D01*
X101413042Y-100028967D01*
X101346776Y-99948222D01*
X101266031Y-99881956D01*
X101173909Y-99832716D01*
X101073952Y-99802394D01*
X100969999Y-99792156D01*
X100669999Y-99792156D01*
X100566046Y-99802394D01*
X100466089Y-99832716D01*
X100373967Y-99881956D01*
X100293222Y-99948222D01*
X100226956Y-100028967D01*
X100184999Y-100107463D01*
X100143042Y-100028967D01*
X100076776Y-99948222D01*
X100055999Y-99931171D01*
X100055999Y-99574844D01*
X100058446Y-99549998D01*
X100055999Y-99525152D01*
X100055999Y-99525145D01*
X100048677Y-99450806D01*
X100033511Y-99400807D01*
X100019744Y-99355424D01*
X100003600Y-99325221D01*
X99972758Y-99267520D01*
X99909526Y-99190472D01*
X99890219Y-99174627D01*
X99360376Y-98644785D01*
X99344527Y-98625473D01*
X99267479Y-98562241D01*
X99190323Y-98521000D01*
X99210154Y-98521000D01*
X99235000Y-98523447D01*
X99259846Y-98521000D01*
X99259854Y-98521000D01*
X99334193Y-98513678D01*
X99429575Y-98484745D01*
X99517479Y-98437759D01*
X99594527Y-98374527D01*
X99610376Y-98355215D01*
X99890214Y-98075377D01*
X99909526Y-98059528D01*
X99972758Y-97982480D01*
X100019744Y-97894576D01*
X100048677Y-97799194D01*
X100055999Y-97724855D01*
X100058447Y-97700001D01*
X100055999Y-97675147D01*
X100055999Y-97418827D01*
X100076776Y-97401776D01*
X100143042Y-97321031D01*
X100184999Y-97242535D01*
X100226956Y-97321031D01*
X100293222Y-97401776D01*
X100373967Y-97468042D01*
X100466089Y-97517282D01*
X100566046Y-97547604D01*
X100598575Y-97550808D01*
X100677426Y-97603494D01*
X100801360Y-97654829D01*
X100932927Y-97681000D01*
X101067073Y-97681000D01*
X101198640Y-97654829D01*
X101322574Y-97603494D01*
X101434112Y-97528967D01*
X101528967Y-97434112D01*
X101603494Y-97322574D01*
X101654829Y-97198640D01*
X101681000Y-97067073D01*
X101681000Y-96932927D01*
X101654829Y-96801360D01*
X101603494Y-96677426D01*
X101528967Y-96565888D01*
X101502842Y-96539763D01*
X101502842Y-95374999D01*
X101492604Y-95271046D01*
X101462282Y-95171089D01*
X101413042Y-95078967D01*
X101346776Y-94998222D01*
X101266031Y-94931956D01*
X101173909Y-94882716D01*
X101073952Y-94852394D01*
X100969999Y-94842156D01*
X100669999Y-94842156D01*
X100566046Y-94852394D01*
X100466089Y-94882716D01*
X100373967Y-94931956D01*
X100293222Y-94998222D01*
X100226956Y-95078967D01*
X100216000Y-95099464D01*
X100216000Y-94622832D01*
X100293097Y-94590898D01*
X100494717Y-94456180D01*
X100666180Y-94284717D01*
X100800898Y-94083097D01*
X100893693Y-93859069D01*
X100941000Y-93621243D01*
X100941000Y-93378757D01*
X100893693Y-93140931D01*
X100800898Y-92916903D01*
X100666180Y-92715283D01*
X100494717Y-92543820D01*
X100293097Y-92409102D01*
X100069069Y-92316307D01*
X99831243Y-92269000D01*
X99588757Y-92269000D01*
X99350931Y-92316307D01*
X99126903Y-92409102D01*
X98925283Y-92543820D01*
X98753820Y-92715283D01*
X98619102Y-92916903D01*
X98526307Y-93140931D01*
X98479000Y-93378757D01*
X98479000Y-93621243D01*
X98526307Y-93859069D01*
X98619102Y-94083097D01*
X98753820Y-94284717D01*
X98925283Y-94456180D01*
X99126903Y-94590898D01*
X99204000Y-94622833D01*
X99204001Y-94880316D01*
X99196089Y-94882716D01*
X99103967Y-94931956D01*
X99023222Y-94998222D01*
X98956956Y-95078967D01*
X98907716Y-95171089D01*
X98877394Y-95271046D01*
X98867156Y-95374999D01*
X98867156Y-97024999D01*
X98877394Y-97128952D01*
X98907716Y-97228909D01*
X98956956Y-97321031D01*
X99023222Y-97401776D01*
X99044000Y-97418828D01*
X99044000Y-97490409D01*
X99025409Y-97509000D01*
X98311058Y-97509000D01*
X98297509Y-97492491D01*
X98217143Y-97426536D01*
X98125453Y-97377527D01*
X98117123Y-97375000D01*
X98125453Y-97372473D01*
X98217143Y-97323464D01*
X98297509Y-97257509D01*
X98363464Y-97177143D01*
X98412473Y-97085453D01*
X98442653Y-96985965D01*
X98452843Y-96882500D01*
X98452843Y-96587500D01*
X98442653Y-96484035D01*
X98412473Y-96384547D01*
X98363464Y-96292857D01*
X98297509Y-96212491D01*
X98217143Y-96146536D01*
X98125453Y-96097527D01*
X98025965Y-96067347D01*
X97922500Y-96057157D01*
X97577500Y-96057157D01*
X97474035Y-96067347D01*
X97422306Y-96083039D01*
X97442653Y-96015965D01*
X97452843Y-95912500D01*
X97452843Y-95617500D01*
X97442653Y-95514035D01*
X97412473Y-95414547D01*
X97363464Y-95322857D01*
X97297509Y-95242491D01*
X97217143Y-95176536D01*
X97125453Y-95127527D01*
X97025965Y-95097347D01*
X96922500Y-95087157D01*
X96577500Y-95087157D01*
X96474035Y-95097347D01*
X96374547Y-95127527D01*
X96282857Y-95176536D01*
X96254370Y-95199915D01*
X96177143Y-95136536D01*
X96085453Y-95087527D01*
X95985965Y-95057347D01*
X95882500Y-95047157D01*
X95587500Y-95047157D01*
X95484035Y-95057347D01*
X95384547Y-95087527D01*
X95292857Y-95136536D01*
X95250000Y-95171708D01*
X95207143Y-95136536D01*
X95115453Y-95087527D01*
X95015965Y-95057347D01*
X94912500Y-95047157D01*
X94617500Y-95047157D01*
X94514035Y-95057347D01*
X94414547Y-95087527D01*
X94322857Y-95136536D01*
X94242491Y-95202491D01*
X94208425Y-95244000D01*
X93099841Y-95244000D01*
X93074995Y-95241553D01*
X93050149Y-95244000D01*
X93050142Y-95244000D01*
X92989225Y-95250000D01*
X92975802Y-95251322D01*
X92910780Y-95271046D01*
X92880421Y-95280255D01*
X92792517Y-95327241D01*
X92715469Y-95390473D01*
X92699624Y-95409780D01*
X91984786Y-96124619D01*
X91965474Y-96140468D01*
X91902242Y-96217516D01*
X91855256Y-96305421D01*
X91826323Y-96400803D01*
X91819001Y-96475142D01*
X91819001Y-96475149D01*
X91816554Y-96499995D01*
X91819001Y-96524842D01*
X91819001Y-96875804D01*
X91778967Y-96815888D01*
X91684112Y-96721033D01*
X91572574Y-96646506D01*
X91448640Y-96595171D01*
X91317073Y-96569000D01*
X91182927Y-96569000D01*
X91051360Y-96595171D01*
X90927426Y-96646506D01*
X90815888Y-96721033D01*
X90721033Y-96815888D01*
X90646506Y-96927426D01*
X90645484Y-96929893D01*
X89681000Y-95965409D01*
X89681000Y-95932927D01*
X89654829Y-95801360D01*
X89603494Y-95677426D01*
X89528967Y-95565888D01*
X89434112Y-95471033D01*
X89322574Y-95396506D01*
X89198640Y-95345171D01*
X89067073Y-95319000D01*
X88932927Y-95319000D01*
X88801360Y-95345171D01*
X88677426Y-95396506D01*
X88565888Y-95471033D01*
X88471033Y-95565888D01*
X88396506Y-95677426D01*
X88345171Y-95801360D01*
X88319000Y-95932927D01*
X88319000Y-96067073D01*
X88345171Y-96198640D01*
X88396506Y-96322574D01*
X88471033Y-96434112D01*
X88565888Y-96528967D01*
X88677426Y-96603494D01*
X88801360Y-96654829D01*
X88932927Y-96681000D01*
X88965409Y-96681000D01*
X89429893Y-97145484D01*
X89427426Y-97146506D01*
X89315888Y-97221033D01*
X89221033Y-97315888D01*
X89172244Y-97388907D01*
X89154829Y-97301360D01*
X89103494Y-97177426D01*
X89028967Y-97065888D01*
X88934112Y-96971033D01*
X88822574Y-96896506D01*
X88698640Y-96845171D01*
X88567073Y-96819000D01*
X88432927Y-96819000D01*
X88301360Y-96845171D01*
X88177426Y-96896506D01*
X88065888Y-96971033D01*
X87971033Y-97065888D01*
X87896506Y-97177426D01*
X87845171Y-97301360D01*
X87819000Y-97432927D01*
X87819000Y-97567073D01*
X87845171Y-97698640D01*
X87896506Y-97822574D01*
X87971033Y-97934112D01*
X87994001Y-97957080D01*
X87994000Y-101164819D01*
X87256000Y-100426819D01*
X87256000Y-97707079D01*
X87278967Y-97684112D01*
X87353494Y-97572574D01*
X87404829Y-97448640D01*
X87431000Y-97317073D01*
X87431000Y-97182927D01*
X87404829Y-97051360D01*
X87353494Y-96927426D01*
X87278967Y-96815888D01*
X87184112Y-96721033D01*
X87072574Y-96646506D01*
X86948640Y-96595171D01*
X86817073Y-96569000D01*
X86682927Y-96569000D01*
X86551360Y-96595171D01*
X86427426Y-96646506D01*
X86315888Y-96721033D01*
X86221033Y-96815888D01*
X86146506Y-96927426D01*
X86095171Y-97051360D01*
X86069000Y-97182927D01*
X86069000Y-97317073D01*
X86095171Y-97448640D01*
X86146506Y-97572574D01*
X86221033Y-97684112D01*
X86244001Y-97707080D01*
X86244000Y-100051229D01*
X85756000Y-99563229D01*
X85756000Y-97457079D01*
X85778967Y-97434112D01*
X85853494Y-97322574D01*
X85904829Y-97198640D01*
X85931000Y-97067073D01*
X85931000Y-96932927D01*
X85904829Y-96801360D01*
X85853494Y-96677426D01*
X85778967Y-96565888D01*
X85684112Y-96471033D01*
X85572574Y-96396506D01*
X85448640Y-96345171D01*
X85317073Y-96319000D01*
X85182927Y-96319000D01*
X85051360Y-96345171D01*
X84927426Y-96396506D01*
X84815888Y-96471033D01*
X84721033Y-96565888D01*
X84702891Y-96593040D01*
X84698494Y-96582426D01*
X84623967Y-96470888D01*
X84529112Y-96376033D01*
X84417574Y-96301506D01*
X84293640Y-96250171D01*
X84162073Y-96224000D01*
X84027927Y-96224000D01*
X83896360Y-96250171D01*
X83772426Y-96301506D01*
X83660888Y-96376033D01*
X83566033Y-96470888D01*
X83491506Y-96582426D01*
X83440171Y-96706360D01*
X83414000Y-96837927D01*
X83414000Y-96972073D01*
X83440171Y-97103640D01*
X83491506Y-97227574D01*
X83566033Y-97339112D01*
X83589001Y-97362080D01*
X83589000Y-99229384D01*
X83586553Y-99254230D01*
X83589000Y-99279076D01*
X83589000Y-99279083D01*
X83596322Y-99353422D01*
X83625255Y-99448804D01*
X83672241Y-99536709D01*
X83735473Y-99613757D01*
X83754785Y-99629606D01*
X90769197Y-106644019D01*
X84006098Y-106644019D01*
X83897574Y-106571506D01*
X83773640Y-106520171D01*
X83642073Y-106494000D01*
X83507927Y-106494000D01*
X83376360Y-106520171D01*
X83252426Y-106571506D01*
X83140888Y-106646033D01*
X83046033Y-106740888D01*
X82971506Y-106852426D01*
X82920171Y-106976360D01*
X82894000Y-107107927D01*
X82894000Y-107242073D01*
X82920171Y-107373640D01*
X82971506Y-107497574D01*
X83046033Y-107609112D01*
X83140888Y-107703967D01*
X83252426Y-107778494D01*
X83376360Y-107829829D01*
X83507927Y-107856000D01*
X83642073Y-107856000D01*
X83773640Y-107829829D01*
X83897574Y-107778494D01*
X84009112Y-107703967D01*
X84057060Y-107656019D01*
X87828390Y-107656019D01*
X87659785Y-107824624D01*
X87640473Y-107840473D01*
X87577241Y-107917521D01*
X87530255Y-108005426D01*
X87501322Y-108100808D01*
X87494000Y-108175147D01*
X87494000Y-108175154D01*
X87491553Y-108200000D01*
X87494000Y-108224847D01*
X87494000Y-108542921D01*
X87471033Y-108565888D01*
X87396506Y-108677426D01*
X87345171Y-108801360D01*
X87319000Y-108932927D01*
X87319000Y-109067073D01*
X87345171Y-109198640D01*
X87396506Y-109322574D01*
X87471033Y-109434112D01*
X87565888Y-109528967D01*
X87677426Y-109603494D01*
X87801360Y-109654829D01*
X87932927Y-109681000D01*
X88067073Y-109681000D01*
X88198640Y-109654829D01*
X88322574Y-109603494D01*
X88434112Y-109528967D01*
X88528967Y-109434112D01*
X88603494Y-109322574D01*
X88654829Y-109198640D01*
X88681000Y-109067073D01*
X88681000Y-108932927D01*
X88654829Y-108801360D01*
X88603494Y-108677426D01*
X88528967Y-108565888D01*
X88506000Y-108542921D01*
X88506000Y-108409591D01*
X88809563Y-108106029D01*
X101253381Y-108106029D01*
X99434773Y-109924638D01*
X99415461Y-109940487D01*
X99352229Y-110017535D01*
X99305243Y-110105440D01*
X99276310Y-110200822D01*
X99268988Y-110275161D01*
X99268988Y-110275168D01*
X99266541Y-110300014D01*
X99268988Y-110324861D01*
X99268988Y-110810930D01*
X99172574Y-110746508D01*
X99048640Y-110695173D01*
X98917073Y-110669002D01*
X98782927Y-110669002D01*
X98651360Y-110695173D01*
X98527426Y-110746508D01*
X98415888Y-110821035D01*
X98321033Y-110915890D01*
X98246506Y-111027428D01*
X98195171Y-111151362D01*
X98169000Y-111282929D01*
X98169000Y-111315410D01*
X96990411Y-112494000D01*
X92957079Y-112494000D01*
X92934112Y-112471033D01*
X92822574Y-112396506D01*
X92698640Y-112345171D01*
X92567073Y-112319000D01*
X92432927Y-112319000D01*
X92301360Y-112345171D01*
X92177426Y-112396506D01*
X92065888Y-112471033D01*
X91971033Y-112565888D01*
X91896506Y-112677426D01*
X91845171Y-112801360D01*
X91819000Y-112932927D01*
X91819000Y-113067073D01*
X91845171Y-113198640D01*
X91863960Y-113244000D01*
X85256000Y-113244000D01*
X85256000Y-111374854D01*
X85258448Y-111350000D01*
X85248678Y-111250807D01*
X85219745Y-111155425D01*
X85204680Y-111127241D01*
X85172759Y-111067521D01*
X85109527Y-110990473D01*
X85090220Y-110974628D01*
X83843543Y-109727952D01*
X83896360Y-109749829D01*
X84027927Y-109776000D01*
X84060409Y-109776000D01*
X85624628Y-111340220D01*
X85640473Y-111359527D01*
X85717521Y-111422759D01*
X85805425Y-111469745D01*
X85900807Y-111498678D01*
X86000000Y-111508448D01*
X86024854Y-111506000D01*
X86828408Y-111506000D01*
X86665409Y-111669000D01*
X86582927Y-111669000D01*
X86451360Y-111695171D01*
X86327426Y-111746506D01*
X86215888Y-111821033D01*
X86121033Y-111915888D01*
X86046506Y-112027426D01*
X85995171Y-112151360D01*
X85969000Y-112282927D01*
X85969000Y-112417073D01*
X85995171Y-112548640D01*
X86046506Y-112672574D01*
X86121033Y-112784112D01*
X86215888Y-112878967D01*
X86327426Y-112953494D01*
X86451360Y-113004829D01*
X86582927Y-113031000D01*
X86717073Y-113031000D01*
X86848640Y-113004829D01*
X86972574Y-112953494D01*
X87084112Y-112878967D01*
X87178967Y-112784112D01*
X87253494Y-112672574D01*
X87304829Y-112548640D01*
X87326650Y-112438941D01*
X87759592Y-112006000D01*
X96675154Y-112006000D01*
X96700000Y-112008447D01*
X96724846Y-112006000D01*
X96724854Y-112006000D01*
X96799193Y-111998678D01*
X96894575Y-111969745D01*
X96982479Y-111922759D01*
X97059527Y-111859527D01*
X97075376Y-111840215D01*
X98184592Y-110731000D01*
X98217073Y-110731000D01*
X98348640Y-110704829D01*
X98472574Y-110653494D01*
X98584112Y-110578967D01*
X98678967Y-110484112D01*
X98753494Y-110372574D01*
X98804829Y-110248640D01*
X98831000Y-110117073D01*
X98831000Y-109982927D01*
X98804829Y-109851360D01*
X98753494Y-109727426D01*
X98712743Y-109666438D01*
X98762018Y-109617163D01*
X98836545Y-109505625D01*
X98887880Y-109381691D01*
X98914051Y-109250124D01*
X98914051Y-109115978D01*
X98887880Y-108984411D01*
X98836545Y-108860477D01*
X98762018Y-108748939D01*
X98667163Y-108654084D01*
X98555625Y-108579557D01*
X98431691Y-108528222D01*
X98300124Y-108502051D01*
X98165978Y-108502051D01*
X98034411Y-108528222D01*
X97910477Y-108579557D01*
X97798939Y-108654084D01*
X97775102Y-108677921D01*
X97709594Y-108684373D01*
X97614212Y-108713306D01*
X97526308Y-108760292D01*
X97449260Y-108823524D01*
X97433415Y-108842831D01*
X95782247Y-110494000D01*
X86209592Y-110494000D01*
X84776000Y-109060409D01*
X84776000Y-109027927D01*
X84749829Y-108896360D01*
X84698494Y-108772426D01*
X84623967Y-108660888D01*
X84529112Y-108566033D01*
X84417574Y-108491506D01*
X84293640Y-108440171D01*
X84162073Y-108414000D01*
X84027927Y-108414000D01*
X83896360Y-108440171D01*
X83772426Y-108491506D01*
X83660888Y-108566033D01*
X83566033Y-108660888D01*
X83491506Y-108772426D01*
X83440171Y-108896360D01*
X83414000Y-109027927D01*
X83414000Y-109162073D01*
X83440171Y-109293640D01*
X83462048Y-109346457D01*
X81306000Y-107190409D01*
X81306000Y-102757079D01*
X81328967Y-102734112D01*
X81403494Y-102622574D01*
X81454829Y-102498640D01*
X81481000Y-102367073D01*
X81481000Y-102232927D01*
X81454829Y-102101360D01*
X81403494Y-101977426D01*
X81328967Y-101865888D01*
X81234112Y-101771033D01*
X81122574Y-101696506D01*
X80998640Y-101645171D01*
X80867073Y-101619000D01*
X80732927Y-101619000D01*
X80601360Y-101645171D01*
X80477426Y-101696506D01*
X80365888Y-101771033D01*
X80271033Y-101865888D01*
X80196506Y-101977426D01*
X80145171Y-102101360D01*
X80119000Y-102232927D01*
X80119000Y-102367073D01*
X80129329Y-102419000D01*
X80032927Y-102419000D01*
X79901360Y-102445171D01*
X79796000Y-102488812D01*
X79796000Y-95308500D01*
X83073501Y-92031000D01*
X102876500Y-92031000D01*
X103114040Y-92268540D01*
X103100000Y-92267157D01*
X101400000Y-92267157D01*
X101325311Y-92274513D01*
X101253492Y-92296299D01*
X101187304Y-92331678D01*
X101129289Y-92379289D01*
X101081678Y-92437304D01*
X101046299Y-92503492D01*
X101024513Y-92575311D01*
X101017157Y-92650000D01*
X101017157Y-94350000D01*
X101024513Y-94424689D01*
X101046299Y-94496508D01*
X101081678Y-94562696D01*
X101129289Y-94620711D01*
X101187304Y-94668322D01*
X101253492Y-94703701D01*
X101325311Y-94725487D01*
X101400000Y-94732843D01*
X102767251Y-94732843D01*
X102853999Y-94819591D01*
X102853999Y-94981170D01*
X102833222Y-94998222D01*
X102766956Y-95078967D01*
X102717716Y-95171089D01*
X102687394Y-95271046D01*
X102677156Y-95374999D01*
X102677156Y-97024999D01*
X102687394Y-97128952D01*
X102717716Y-97228909D01*
X102766956Y-97321031D01*
X102833222Y-97401776D01*
X102913967Y-97468042D01*
X103006089Y-97517282D01*
X103106046Y-97547604D01*
X103209999Y-97557842D01*
X103509999Y-97557842D01*
X103613952Y-97547604D01*
X103713909Y-97517282D01*
X103806031Y-97468042D01*
X103886776Y-97401776D01*
X103953042Y-97321031D01*
X104002282Y-97228909D01*
X104032604Y-97128952D01*
X104042842Y-97024999D01*
X104042842Y-95374999D01*
X104032604Y-95271046D01*
X104005874Y-95182927D01*
X114069000Y-95182927D01*
X114069000Y-95317073D01*
X114095171Y-95448640D01*
X114146506Y-95572574D01*
X114221033Y-95684112D01*
X114315888Y-95778967D01*
X114427426Y-95853494D01*
X114551360Y-95904829D01*
X114682927Y-95931000D01*
X114817073Y-95931000D01*
X114948640Y-95904829D01*
X115072574Y-95853494D01*
X115184112Y-95778967D01*
X115207079Y-95756000D01*
X131767157Y-95756000D01*
X131767157Y-96100000D01*
X131774513Y-96174689D01*
X131796299Y-96246508D01*
X131831678Y-96312696D01*
X131879289Y-96370711D01*
X131937304Y-96418322D01*
X132003492Y-96453701D01*
X132075311Y-96475487D01*
X132150000Y-96482843D01*
X133850000Y-96482843D01*
X133924689Y-96475487D01*
X133996508Y-96453701D01*
X134062696Y-96418322D01*
X134120711Y-96370711D01*
X134168322Y-96312696D01*
X134203701Y-96246508D01*
X134225487Y-96174689D01*
X134232843Y-96100000D01*
X134232843Y-94400000D01*
X134225487Y-94325311D01*
X134203701Y-94253492D01*
X134168322Y-94187304D01*
X134120711Y-94129289D01*
X134062696Y-94081678D01*
X133996508Y-94046299D01*
X133924689Y-94024513D01*
X133850000Y-94017157D01*
X132150000Y-94017157D01*
X132075311Y-94024513D01*
X132003492Y-94046299D01*
X131937304Y-94081678D01*
X131879289Y-94129289D01*
X131831678Y-94187304D01*
X131796299Y-94253492D01*
X131774513Y-94325311D01*
X131767157Y-94400000D01*
X131767157Y-94744000D01*
X115207079Y-94744000D01*
X115184112Y-94721033D01*
X115072574Y-94646506D01*
X114948640Y-94595171D01*
X114817073Y-94569000D01*
X114682927Y-94569000D01*
X114551360Y-94595171D01*
X114427426Y-94646506D01*
X114315888Y-94721033D01*
X114221033Y-94815888D01*
X114146506Y-94927426D01*
X114095171Y-95051360D01*
X114069000Y-95182927D01*
X104005874Y-95182927D01*
X104002282Y-95171089D01*
X103953042Y-95078967D01*
X103886776Y-94998222D01*
X103865999Y-94981171D01*
X103865999Y-94634853D01*
X103868447Y-94609999D01*
X103858677Y-94510806D01*
X103829744Y-94415424D01*
X103829683Y-94415309D01*
X103782758Y-94327520D01*
X103719526Y-94250472D01*
X103700219Y-94234627D01*
X103482843Y-94017251D01*
X103482843Y-92650000D01*
X103481460Y-92635960D01*
X103969000Y-93123500D01*
X103969001Y-93941614D01*
X103961513Y-93959691D01*
X103931500Y-94110578D01*
X103931500Y-94264422D01*
X103961513Y-94415309D01*
X104020387Y-94557442D01*
X104105858Y-94685359D01*
X104214641Y-94794142D01*
X104342558Y-94879613D01*
X104484691Y-94938487D01*
X104635578Y-94968500D01*
X104789422Y-94968500D01*
X104940309Y-94938487D01*
X105082442Y-94879613D01*
X105210359Y-94794142D01*
X105275127Y-94729374D01*
X105304922Y-94704922D01*
X105402519Y-94585999D01*
X105475040Y-94450322D01*
X105519699Y-94303103D01*
X105531000Y-94188360D01*
X105531000Y-92838356D01*
X105534778Y-92799999D01*
X105526434Y-92715283D01*
X105519699Y-92646897D01*
X105475040Y-92499678D01*
X105402520Y-92364002D01*
X105402519Y-92364000D01*
X105363378Y-92316307D01*
X105304922Y-92245078D01*
X105275123Y-92220623D01*
X104454500Y-91400000D01*
X120267157Y-91400000D01*
X120267157Y-93100000D01*
X120274513Y-93174689D01*
X120296299Y-93246508D01*
X120331678Y-93312696D01*
X120379289Y-93370711D01*
X120437304Y-93418322D01*
X120503492Y-93453701D01*
X120575311Y-93475487D01*
X120650000Y-93482843D01*
X122350000Y-93482843D01*
X122424689Y-93475487D01*
X122496508Y-93453701D01*
X122562696Y-93418322D01*
X122620711Y-93370711D01*
X122668322Y-93312696D01*
X122703701Y-93246508D01*
X122725487Y-93174689D01*
X122732843Y-93100000D01*
X122732843Y-91400000D01*
X122725487Y-91325311D01*
X122703701Y-91253492D01*
X122668322Y-91187304D01*
X122620711Y-91129289D01*
X122562696Y-91081678D01*
X122496508Y-91046299D01*
X122424689Y-91024513D01*
X122350000Y-91017157D01*
X120650000Y-91017157D01*
X120575311Y-91024513D01*
X120503492Y-91046299D01*
X120437304Y-91081678D01*
X120379289Y-91129289D01*
X120331678Y-91187304D01*
X120296299Y-91253492D01*
X120274513Y-91325311D01*
X120267157Y-91400000D01*
X104454500Y-91400000D01*
X103779378Y-90724878D01*
X103754922Y-90695078D01*
X103635999Y-90597481D01*
X103500322Y-90524960D01*
X103353103Y-90480301D01*
X103238360Y-90469000D01*
X103238357Y-90469000D01*
X103200000Y-90465222D01*
X103161643Y-90469000D01*
X82788357Y-90469000D01*
X82750000Y-90465222D01*
X82711643Y-90469000D01*
X82711640Y-90469000D01*
X82596897Y-90480301D01*
X82449678Y-90524960D01*
X82314001Y-90597481D01*
X82195078Y-90695078D01*
X82170626Y-90724873D01*
X78489874Y-94405626D01*
X78460079Y-94430078D01*
X78435627Y-94459873D01*
X78435625Y-94459875D01*
X78362481Y-94549001D01*
X78324152Y-94620711D01*
X78290488Y-94683693D01*
X78289960Y-94684680D01*
X78275909Y-94731000D01*
X78246715Y-94827241D01*
X78245302Y-94831898D01*
X78230222Y-94985000D01*
X78234001Y-95023367D01*
X78234000Y-107083337D01*
X78167856Y-107243022D01*
X78134000Y-107413229D01*
X78134000Y-107586771D01*
X78167856Y-107756978D01*
X78234268Y-107917310D01*
X78330682Y-108061605D01*
X78453395Y-108184318D01*
X78597690Y-108280732D01*
X78758022Y-108347144D01*
X78928229Y-108381000D01*
X79101771Y-108381000D01*
X79271978Y-108347144D01*
X79432310Y-108280732D01*
X79576605Y-108184318D01*
X79699318Y-108061605D01*
X79795732Y-107917310D01*
X79826775Y-107842366D01*
X83744000Y-111759592D01*
X83744001Y-115867202D01*
X83467204Y-116144000D01*
X82824854Y-116144000D01*
X82800000Y-116141552D01*
X82775146Y-116144000D01*
X82700807Y-116151322D01*
X82605425Y-116180255D01*
X82517521Y-116227241D01*
X82440473Y-116290473D01*
X82424629Y-116309779D01*
X81659785Y-117074624D01*
X81640473Y-117090473D01*
X81577241Y-117167521D01*
X81530255Y-117255426D01*
X81501322Y-117350808D01*
X81494000Y-117425147D01*
X81494000Y-117425154D01*
X81491553Y-117450000D01*
X81494000Y-117474847D01*
X81494001Y-118525144D01*
X81491553Y-118550000D01*
X81501322Y-118649192D01*
X81530255Y-118744574D01*
X81530256Y-118744575D01*
X81577242Y-118832479D01*
X81640474Y-118909527D01*
X81659780Y-118925371D01*
X82328408Y-119594000D01*
X76127000Y-119594000D01*
X76127000Y-90406000D01*
X134594000Y-90406000D01*
X134594001Y-119594000D01*
G36*
X110892074Y-111173944D02*
G01*
X110975617Y-111199287D01*
X111062499Y-111207844D01*
X111187499Y-111207844D01*
X111274381Y-111199287D01*
X111312179Y-111187821D01*
X111300713Y-111225619D01*
X111292156Y-111312501D01*
X111292156Y-111437501D01*
X111300713Y-111524383D01*
X111326056Y-111607926D01*
X111335183Y-111625001D01*
X111326056Y-111642076D01*
X111300713Y-111725619D01*
X111292156Y-111812501D01*
X111292156Y-111937501D01*
X111300713Y-112024383D01*
X111326056Y-112107926D01*
X111367210Y-112184920D01*
X111422594Y-112252406D01*
X111490080Y-112307790D01*
X111567074Y-112348944D01*
X111650617Y-112374287D01*
X111657866Y-112375001D01*
X111650617Y-112375715D01*
X111567074Y-112401058D01*
X111490080Y-112442212D01*
X111422594Y-112497596D01*
X111367210Y-112565082D01*
X111326056Y-112642076D01*
X111300713Y-112725619D01*
X111292156Y-112812501D01*
X111292156Y-112937501D01*
X111300713Y-113024383D01*
X111326056Y-113107926D01*
X111335183Y-113125001D01*
X111326056Y-113142076D01*
X111300713Y-113225619D01*
X111292156Y-113312501D01*
X111292156Y-113437501D01*
X111300713Y-113524383D01*
X111326056Y-113607926D01*
X111335183Y-113625001D01*
X111326056Y-113642076D01*
X111300713Y-113725619D01*
X111292156Y-113812501D01*
X111292156Y-113937501D01*
X111300713Y-114024383D01*
X111326056Y-114107926D01*
X111335183Y-114125001D01*
X111326056Y-114142076D01*
X111300713Y-114225619D01*
X111292156Y-114312501D01*
X111292156Y-114437501D01*
X111292582Y-114441826D01*
X111191825Y-114542584D01*
X111187499Y-114542158D01*
X111062499Y-114542158D01*
X110975617Y-114550715D01*
X110892074Y-114576058D01*
X110874999Y-114585185D01*
X110857924Y-114576058D01*
X110774381Y-114550715D01*
X110687499Y-114542158D01*
X110562499Y-114542158D01*
X110475617Y-114550715D01*
X110392074Y-114576058D01*
X110374999Y-114585185D01*
X110357924Y-114576058D01*
X110274381Y-114550715D01*
X110187499Y-114542158D01*
X110062499Y-114542158D01*
X109975617Y-114550715D01*
X109892074Y-114576058D01*
X109874999Y-114585185D01*
X109857924Y-114576058D01*
X109774381Y-114550715D01*
X109687499Y-114542158D01*
X109562499Y-114542158D01*
X109475617Y-114550715D01*
X109392074Y-114576058D01*
X109374999Y-114585185D01*
X109357924Y-114576058D01*
X109274381Y-114550715D01*
X109187499Y-114542158D01*
X109062499Y-114542158D01*
X108975617Y-114550715D01*
X108892074Y-114576058D01*
X108874999Y-114585185D01*
X108857924Y-114576058D01*
X108774381Y-114550715D01*
X108687499Y-114542158D01*
X108562499Y-114542158D01*
X108475617Y-114550715D01*
X108392074Y-114576058D01*
X108374999Y-114585185D01*
X108357924Y-114576058D01*
X108274381Y-114550715D01*
X108187499Y-114542158D01*
X108062499Y-114542158D01*
X107975617Y-114550715D01*
X107937819Y-114562181D01*
X107949285Y-114524383D01*
X107957842Y-114437501D01*
X107957842Y-114312501D01*
X107949285Y-114225619D01*
X107923942Y-114142076D01*
X107914815Y-114125001D01*
X107923942Y-114107926D01*
X107949285Y-114024383D01*
X107957842Y-113937501D01*
X107957842Y-113812501D01*
X107949285Y-113725619D01*
X107923942Y-113642076D01*
X107914815Y-113625001D01*
X107923942Y-113607926D01*
X107949285Y-113524383D01*
X107957842Y-113437501D01*
X107957842Y-113312501D01*
X107949285Y-113225619D01*
X107923942Y-113142076D01*
X107914815Y-113125001D01*
X107923942Y-113107926D01*
X107949285Y-113024383D01*
X107957842Y-112937501D01*
X107957842Y-112812501D01*
X107949285Y-112725619D01*
X107923942Y-112642076D01*
X107914815Y-112625001D01*
X107923942Y-112607926D01*
X107949285Y-112524383D01*
X107957842Y-112437501D01*
X107957842Y-112312501D01*
X107949285Y-112225619D01*
X107923942Y-112142076D01*
X107914815Y-112125001D01*
X107923942Y-112107926D01*
X107949285Y-112024383D01*
X107957842Y-111937501D01*
X107957842Y-111812501D01*
X107949285Y-111725619D01*
X107923942Y-111642076D01*
X107914815Y-111625001D01*
X107923942Y-111607926D01*
X107949285Y-111524383D01*
X107957842Y-111437501D01*
X107957842Y-111312501D01*
X107949285Y-111225619D01*
X107937819Y-111187821D01*
X107975617Y-111199287D01*
X108062499Y-111207844D01*
X108187499Y-111207844D01*
X108274381Y-111199287D01*
X108357924Y-111173944D01*
X108374999Y-111164817D01*
X108392074Y-111173944D01*
X108475617Y-111199287D01*
X108562499Y-111207844D01*
X108687499Y-111207844D01*
X108774381Y-111199287D01*
X108857924Y-111173944D01*
X108874999Y-111164817D01*
X108892074Y-111173944D01*
X108975617Y-111199287D01*
X109062499Y-111207844D01*
X109187499Y-111207844D01*
X109274381Y-111199287D01*
X109357924Y-111173944D01*
X109374999Y-111164817D01*
X109392074Y-111173944D01*
X109475617Y-111199287D01*
X109562499Y-111207844D01*
X109687499Y-111207844D01*
X109774381Y-111199287D01*
X109857924Y-111173944D01*
X109874999Y-111164817D01*
X109892074Y-111173944D01*
X109975617Y-111199287D01*
X110062499Y-111207844D01*
X110187499Y-111207844D01*
X110274381Y-111199287D01*
X110357924Y-111173944D01*
X110374999Y-111164817D01*
X110392074Y-111173944D01*
X110475617Y-111199287D01*
X110562499Y-111207844D01*
X110687499Y-111207844D01*
X110774381Y-111199287D01*
X110857924Y-111173944D01*
X110874999Y-111164817D01*
X110892074Y-111173944D01*
G37*
X110892074Y-111173944D02*
X110975617Y-111199287D01*
X111062499Y-111207844D01*
X111187499Y-111207844D01*
X111274381Y-111199287D01*
X111312179Y-111187821D01*
X111300713Y-111225619D01*
X111292156Y-111312501D01*
X111292156Y-111437501D01*
X111300713Y-111524383D01*
X111326056Y-111607926D01*
X111335183Y-111625001D01*
X111326056Y-111642076D01*
X111300713Y-111725619D01*
X111292156Y-111812501D01*
X111292156Y-111937501D01*
X111300713Y-112024383D01*
X111326056Y-112107926D01*
X111367210Y-112184920D01*
X111422594Y-112252406D01*
X111490080Y-112307790D01*
X111567074Y-112348944D01*
X111650617Y-112374287D01*
X111657866Y-112375001D01*
X111650617Y-112375715D01*
X111567074Y-112401058D01*
X111490080Y-112442212D01*
X111422594Y-112497596D01*
X111367210Y-112565082D01*
X111326056Y-112642076D01*
X111300713Y-112725619D01*
X111292156Y-112812501D01*
X111292156Y-112937501D01*
X111300713Y-113024383D01*
X111326056Y-113107926D01*
X111335183Y-113125001D01*
X111326056Y-113142076D01*
X111300713Y-113225619D01*
X111292156Y-113312501D01*
X111292156Y-113437501D01*
X111300713Y-113524383D01*
X111326056Y-113607926D01*
X111335183Y-113625001D01*
X111326056Y-113642076D01*
X111300713Y-113725619D01*
X111292156Y-113812501D01*
X111292156Y-113937501D01*
X111300713Y-114024383D01*
X111326056Y-114107926D01*
X111335183Y-114125001D01*
X111326056Y-114142076D01*
X111300713Y-114225619D01*
X111292156Y-114312501D01*
X111292156Y-114437501D01*
X111292582Y-114441826D01*
X111191825Y-114542584D01*
X111187499Y-114542158D01*
X111062499Y-114542158D01*
X110975617Y-114550715D01*
X110892074Y-114576058D01*
X110874999Y-114585185D01*
X110857924Y-114576058D01*
X110774381Y-114550715D01*
X110687499Y-114542158D01*
X110562499Y-114542158D01*
X110475617Y-114550715D01*
X110392074Y-114576058D01*
X110374999Y-114585185D01*
X110357924Y-114576058D01*
X110274381Y-114550715D01*
X110187499Y-114542158D01*
X110062499Y-114542158D01*
X109975617Y-114550715D01*
X109892074Y-114576058D01*
X109874999Y-114585185D01*
X109857924Y-114576058D01*
X109774381Y-114550715D01*
X109687499Y-114542158D01*
X109562499Y-114542158D01*
X109475617Y-114550715D01*
X109392074Y-114576058D01*
X109374999Y-114585185D01*
X109357924Y-114576058D01*
X109274381Y-114550715D01*
X109187499Y-114542158D01*
X109062499Y-114542158D01*
X108975617Y-114550715D01*
X108892074Y-114576058D01*
X108874999Y-114585185D01*
X108857924Y-114576058D01*
X108774381Y-114550715D01*
X108687499Y-114542158D01*
X108562499Y-114542158D01*
X108475617Y-114550715D01*
X108392074Y-114576058D01*
X108374999Y-114585185D01*
X108357924Y-114576058D01*
X108274381Y-114550715D01*
X108187499Y-114542158D01*
X108062499Y-114542158D01*
X107975617Y-114550715D01*
X107937819Y-114562181D01*
X107949285Y-114524383D01*
X107957842Y-114437501D01*
X107957842Y-114312501D01*
X107949285Y-114225619D01*
X107923942Y-114142076D01*
X107914815Y-114125001D01*
X107923942Y-114107926D01*
X107949285Y-114024383D01*
X107957842Y-113937501D01*
X107957842Y-113812501D01*
X107949285Y-113725619D01*
X107923942Y-113642076D01*
X107914815Y-113625001D01*
X107923942Y-113607926D01*
X107949285Y-113524383D01*
X107957842Y-113437501D01*
X107957842Y-113312501D01*
X107949285Y-113225619D01*
X107923942Y-113142076D01*
X107914815Y-113125001D01*
X107923942Y-113107926D01*
X107949285Y-113024383D01*
X107957842Y-112937501D01*
X107957842Y-112812501D01*
X107949285Y-112725619D01*
X107923942Y-112642076D01*
X107914815Y-112625001D01*
X107923942Y-112607926D01*
X107949285Y-112524383D01*
X107957842Y-112437501D01*
X107957842Y-112312501D01*
X107949285Y-112225619D01*
X107923942Y-112142076D01*
X107914815Y-112125001D01*
X107923942Y-112107926D01*
X107949285Y-112024383D01*
X107957842Y-111937501D01*
X107957842Y-111812501D01*
X107949285Y-111725619D01*
X107923942Y-111642076D01*
X107914815Y-111625001D01*
X107923942Y-111607926D01*
X107949285Y-111524383D01*
X107957842Y-111437501D01*
X107957842Y-111312501D01*
X107949285Y-111225619D01*
X107937819Y-111187821D01*
X107975617Y-111199287D01*
X108062499Y-111207844D01*
X108187499Y-111207844D01*
X108274381Y-111199287D01*
X108357924Y-111173944D01*
X108374999Y-111164817D01*
X108392074Y-111173944D01*
X108475617Y-111199287D01*
X108562499Y-111207844D01*
X108687499Y-111207844D01*
X108774381Y-111199287D01*
X108857924Y-111173944D01*
X108874999Y-111164817D01*
X108892074Y-111173944D01*
X108975617Y-111199287D01*
X109062499Y-111207844D01*
X109187499Y-111207844D01*
X109274381Y-111199287D01*
X109357924Y-111173944D01*
X109374999Y-111164817D01*
X109392074Y-111173944D01*
X109475617Y-111199287D01*
X109562499Y-111207844D01*
X109687499Y-111207844D01*
X109774381Y-111199287D01*
X109857924Y-111173944D01*
X109874999Y-111164817D01*
X109892074Y-111173944D01*
X109975617Y-111199287D01*
X110062499Y-111207844D01*
X110187499Y-111207844D01*
X110274381Y-111199287D01*
X110357924Y-111173944D01*
X110374999Y-111164817D01*
X110392074Y-111173944D01*
X110475617Y-111199287D01*
X110562499Y-111207844D01*
X110687499Y-111207844D01*
X110774381Y-111199287D01*
X110857924Y-111173944D01*
X110874999Y-111164817D01*
X110892074Y-111173944D01*
G36*
X94242491Y-96297509D02*
G01*
X94322857Y-96363464D01*
X94414547Y-96412473D01*
X94514035Y-96442653D01*
X94617500Y-96452843D01*
X94912500Y-96452843D01*
X95015965Y-96442653D01*
X95083039Y-96422306D01*
X95067347Y-96474035D01*
X95057157Y-96577500D01*
X95057157Y-96922500D01*
X95067347Y-97025965D01*
X95097527Y-97125453D01*
X95146536Y-97217143D01*
X95212491Y-97297509D01*
X95292857Y-97363464D01*
X95384547Y-97412473D01*
X95484035Y-97442653D01*
X95587500Y-97452843D01*
X95882500Y-97452843D01*
X95985965Y-97442653D01*
X96085453Y-97412473D01*
X96177143Y-97363464D01*
X96244001Y-97308595D01*
X96244000Y-99458425D01*
X96202491Y-99492491D01*
X96136536Y-99572857D01*
X96087527Y-99664547D01*
X96057347Y-99764035D01*
X96047157Y-99867500D01*
X96047157Y-100162500D01*
X96057347Y-100265965D01*
X96087527Y-100365453D01*
X96136536Y-100457143D01*
X96171708Y-100500000D01*
X96136536Y-100542857D01*
X96087527Y-100634547D01*
X96057347Y-100734035D01*
X96047157Y-100837500D01*
X96047157Y-101132500D01*
X96057347Y-101235965D01*
X96087527Y-101335453D01*
X96136536Y-101427143D01*
X96202491Y-101507509D01*
X96282857Y-101573464D01*
X96374547Y-101622473D01*
X96474035Y-101652653D01*
X96577500Y-101662843D01*
X96922500Y-101662843D01*
X97025965Y-101652653D01*
X97125453Y-101622473D01*
X97217143Y-101573464D01*
X97250000Y-101546499D01*
X97282857Y-101573464D01*
X97346857Y-101607673D01*
X97292857Y-101636536D01*
X97212491Y-101702491D01*
X97146536Y-101782857D01*
X97097527Y-101874547D01*
X97067347Y-101974035D01*
X97057157Y-102077500D01*
X97057157Y-102422500D01*
X97067347Y-102525965D01*
X97097527Y-102625453D01*
X97134171Y-102694010D01*
X96659602Y-102694010D01*
X93181000Y-99215409D01*
X93181000Y-99182927D01*
X93154829Y-99051360D01*
X93103494Y-98927426D01*
X93058100Y-98859489D01*
X93072574Y-98853494D01*
X93184112Y-98778967D01*
X93278967Y-98684112D01*
X93353494Y-98572574D01*
X93404829Y-98448640D01*
X93431000Y-98317073D01*
X93431000Y-98182927D01*
X93404829Y-98051360D01*
X93353494Y-97927426D01*
X93278967Y-97815888D01*
X93184112Y-97721033D01*
X93072574Y-97646506D01*
X92948640Y-97595171D01*
X92831001Y-97571771D01*
X92831001Y-96709586D01*
X93284588Y-96256000D01*
X94208425Y-96256000D01*
X94242491Y-96297509D01*
G37*
X94242491Y-96297509D02*
X94322857Y-96363464D01*
X94414547Y-96412473D01*
X94514035Y-96442653D01*
X94617500Y-96452843D01*
X94912500Y-96452843D01*
X95015965Y-96442653D01*
X95083039Y-96422306D01*
X95067347Y-96474035D01*
X95057157Y-96577500D01*
X95057157Y-96922500D01*
X95067347Y-97025965D01*
X95097527Y-97125453D01*
X95146536Y-97217143D01*
X95212491Y-97297509D01*
X95292857Y-97363464D01*
X95384547Y-97412473D01*
X95484035Y-97442653D01*
X95587500Y-97452843D01*
X95882500Y-97452843D01*
X95985965Y-97442653D01*
X96085453Y-97412473D01*
X96177143Y-97363464D01*
X96244001Y-97308595D01*
X96244000Y-99458425D01*
X96202491Y-99492491D01*
X96136536Y-99572857D01*
X96087527Y-99664547D01*
X96057347Y-99764035D01*
X96047157Y-99867500D01*
X96047157Y-100162500D01*
X96057347Y-100265965D01*
X96087527Y-100365453D01*
X96136536Y-100457143D01*
X96171708Y-100500000D01*
X96136536Y-100542857D01*
X96087527Y-100634547D01*
X96057347Y-100734035D01*
X96047157Y-100837500D01*
X96047157Y-101132500D01*
X96057347Y-101235965D01*
X96087527Y-101335453D01*
X96136536Y-101427143D01*
X96202491Y-101507509D01*
X96282857Y-101573464D01*
X96374547Y-101622473D01*
X96474035Y-101652653D01*
X96577500Y-101662843D01*
X96922500Y-101662843D01*
X97025965Y-101652653D01*
X97125453Y-101622473D01*
X97217143Y-101573464D01*
X97250000Y-101546499D01*
X97282857Y-101573464D01*
X97346857Y-101607673D01*
X97292857Y-101636536D01*
X97212491Y-101702491D01*
X97146536Y-101782857D01*
X97097527Y-101874547D01*
X97067347Y-101974035D01*
X97057157Y-102077500D01*
X97057157Y-102422500D01*
X97067347Y-102525965D01*
X97097527Y-102625453D01*
X97134171Y-102694010D01*
X96659602Y-102694010D01*
X93181000Y-99215409D01*
X93181000Y-99182927D01*
X93154829Y-99051360D01*
X93103494Y-98927426D01*
X93058100Y-98859489D01*
X93072574Y-98853494D01*
X93184112Y-98778967D01*
X93278967Y-98684112D01*
X93353494Y-98572574D01*
X93404829Y-98448640D01*
X93431000Y-98317073D01*
X93431000Y-98182927D01*
X93404829Y-98051360D01*
X93353494Y-97927426D01*
X93278967Y-97815888D01*
X93184112Y-97721033D01*
X93072574Y-97646506D01*
X92948640Y-97595171D01*
X92831001Y-97571771D01*
X92831001Y-96709586D01*
X93284588Y-96256000D01*
X94208425Y-96256000D01*
X94242491Y-96297509D01*
M02*
