G04 #@! TF.GenerationSoftware,KiCad,Pcbnew,(5.1.6)-1*
G04 #@! TF.CreationDate,2020-09-05T22:14:24+08:00*
G04 #@! TF.ProjectId,epaper,65706170-6572-42e6-9b69-6361645f7063,rev?*
G04 #@! TF.SameCoordinates,Original*
G04 #@! TF.FileFunction,Soldermask,Top*
G04 #@! TF.FilePolarity,Negative*
%FSLAX46Y46*%
G04 Gerber Fmt 4.6, Leading zero omitted, Abs format (unit mm)*
G04 Created by KiCad (PCBNEW (5.1.6)-1) date 2020-09-05 22:14:24*
%MOMM*%
%LPD*%
G01*
G04 APERTURE LIST*
%ADD10R,0.700000X0.550000*%
%ADD11O,1.800000X1.800000*%
%ADD12R,1.800000X1.800000*%
%ADD13R,0.750000X1.320000*%
%ADD14R,2.100000X1.600000*%
%ADD15R,2.100000X3.900000*%
%ADD16R,1.000000X2.100000*%
%ADD17R,2.100000X1.000000*%
%ADD18R,5.100000X5.100000*%
%ADD19R,2.900000X1.100000*%
%ADD20R,0.900000X1.000000*%
%ADD21O,1.100000X1.700000*%
%ADD22C,0.750000*%
%ADD23O,1.100000X2.200000*%
%ADD24R,0.400000X1.550000*%
%ADD25R,0.700000X1.550000*%
G04 APERTURE END LIST*
D10*
X105450000Y-104700000D03*
X107550000Y-104700000D03*
D11*
X133000000Y-115570000D03*
X133000000Y-113030000D03*
X133000000Y-110490000D03*
X133000000Y-107950000D03*
X133000000Y-105410000D03*
X133000000Y-102870000D03*
X133000000Y-100330000D03*
X133000000Y-97790000D03*
D12*
X133000000Y-95250000D03*
D13*
X123700000Y-100310000D03*
X121800000Y-100310000D03*
X121800000Y-97690000D03*
X122750000Y-97690000D03*
X123700000Y-97690000D03*
D14*
X108100000Y-92700000D03*
X108100000Y-97300000D03*
X108100000Y-95000000D03*
D15*
X114400000Y-95000000D03*
D16*
X77745000Y-93500000D03*
X79015000Y-93500000D03*
X80285000Y-93500000D03*
X81555000Y-93500000D03*
X82825000Y-93500000D03*
X84095000Y-93500000D03*
X85365000Y-93500000D03*
X86635000Y-93500000D03*
X87905000Y-93500000D03*
X89175000Y-93500000D03*
X90445000Y-93500000D03*
X91715000Y-93500000D03*
X92985000Y-93500000D03*
X94255000Y-93500000D03*
D17*
X95255000Y-96285000D03*
X95255000Y-97555000D03*
X95255000Y-98825000D03*
X95255000Y-100095000D03*
X95255000Y-101365000D03*
X95255000Y-102635000D03*
X95255000Y-103905000D03*
X95255000Y-105175000D03*
X95255000Y-106445000D03*
X95255000Y-107715000D03*
D16*
X94255000Y-110500000D03*
X92985000Y-110500000D03*
X91715000Y-110500000D03*
X90445000Y-110500000D03*
X89175000Y-110500000D03*
X87905000Y-110500000D03*
X86635000Y-110500000D03*
X85365000Y-110500000D03*
X84095000Y-110500000D03*
X82825000Y-110500000D03*
X81555000Y-110500000D03*
X80285000Y-110500000D03*
X79015000Y-110500000D03*
X77745000Y-110500000D03*
D18*
X85245000Y-103000000D03*
D19*
X118600000Y-104250000D03*
X124400000Y-104250000D03*
X118600000Y-108250000D03*
X124400000Y-108250000D03*
G36*
G01*
X124802500Y-100390000D02*
X125197500Y-100390000D01*
G75*
G02*
X125370000Y-100562500I0J-172500D01*
G01*
X125370000Y-100907500D01*
G75*
G02*
X125197500Y-101080000I-172500J0D01*
G01*
X124802500Y-101080000D01*
G75*
G02*
X124630000Y-100907500I0J172500D01*
G01*
X124630000Y-100562500D01*
G75*
G02*
X124802500Y-100390000I172500J0D01*
G01*
G37*
G36*
G01*
X124802500Y-99420000D02*
X125197500Y-99420000D01*
G75*
G02*
X125370000Y-99592500I0J-172500D01*
G01*
X125370000Y-99937500D01*
G75*
G02*
X125197500Y-100110000I-172500J0D01*
G01*
X124802500Y-100110000D01*
G75*
G02*
X124630000Y-99937500I0J172500D01*
G01*
X124630000Y-99592500D01*
G75*
G02*
X124802500Y-99420000I172500J0D01*
G01*
G37*
G36*
G01*
X125802500Y-98140000D02*
X126197500Y-98140000D01*
G75*
G02*
X126370000Y-98312500I0J-172500D01*
G01*
X126370000Y-98657500D01*
G75*
G02*
X126197500Y-98830000I-172500J0D01*
G01*
X125802500Y-98830000D01*
G75*
G02*
X125630000Y-98657500I0J172500D01*
G01*
X125630000Y-98312500D01*
G75*
G02*
X125802500Y-98140000I172500J0D01*
G01*
G37*
G36*
G01*
X125802500Y-97170000D02*
X126197500Y-97170000D01*
G75*
G02*
X126370000Y-97342500I0J-172500D01*
G01*
X126370000Y-97687500D01*
G75*
G02*
X126197500Y-97860000I-172500J0D01*
G01*
X125802500Y-97860000D01*
G75*
G02*
X125630000Y-97687500I0J172500D01*
G01*
X125630000Y-97342500D01*
G75*
G02*
X125802500Y-97170000I172500J0D01*
G01*
G37*
G36*
G01*
X124802500Y-98140000D02*
X125197500Y-98140000D01*
G75*
G02*
X125370000Y-98312500I0J-172500D01*
G01*
X125370000Y-98657500D01*
G75*
G02*
X125197500Y-98830000I-172500J0D01*
G01*
X124802500Y-98830000D01*
G75*
G02*
X124630000Y-98657500I0J172500D01*
G01*
X124630000Y-98312500D01*
G75*
G02*
X124802500Y-98140000I172500J0D01*
G01*
G37*
G36*
G01*
X124802500Y-97170000D02*
X125197500Y-97170000D01*
G75*
G02*
X125370000Y-97342500I0J-172500D01*
G01*
X125370000Y-97687500D01*
G75*
G02*
X125197500Y-97860000I-172500J0D01*
G01*
X124802500Y-97860000D01*
G75*
G02*
X124630000Y-97687500I0J172500D01*
G01*
X124630000Y-97342500D01*
G75*
G02*
X124802500Y-97170000I172500J0D01*
G01*
G37*
G36*
G01*
X110302500Y-104640000D02*
X110697500Y-104640000D01*
G75*
G02*
X110870000Y-104812500I0J-172500D01*
G01*
X110870000Y-105157500D01*
G75*
G02*
X110697500Y-105330000I-172500J0D01*
G01*
X110302500Y-105330000D01*
G75*
G02*
X110130000Y-105157500I0J172500D01*
G01*
X110130000Y-104812500D01*
G75*
G02*
X110302500Y-104640000I172500J0D01*
G01*
G37*
G36*
G01*
X110302500Y-103670000D02*
X110697500Y-103670000D01*
G75*
G02*
X110870000Y-103842500I0J-172500D01*
G01*
X110870000Y-104187500D01*
G75*
G02*
X110697500Y-104360000I-172500J0D01*
G01*
X110302500Y-104360000D01*
G75*
G02*
X110130000Y-104187500I0J172500D01*
G01*
X110130000Y-103842500D01*
G75*
G02*
X110302500Y-103670000I172500J0D01*
G01*
G37*
G36*
G01*
X112947500Y-104360000D02*
X112552500Y-104360000D01*
G75*
G02*
X112380000Y-104187500I0J172500D01*
G01*
X112380000Y-103842500D01*
G75*
G02*
X112552500Y-103670000I172500J0D01*
G01*
X112947500Y-103670000D01*
G75*
G02*
X113120000Y-103842500I0J-172500D01*
G01*
X113120000Y-104187500D01*
G75*
G02*
X112947500Y-104360000I-172500J0D01*
G01*
G37*
G36*
G01*
X112947500Y-105330000D02*
X112552500Y-105330000D01*
G75*
G02*
X112380000Y-105157500I0J172500D01*
G01*
X112380000Y-104812500D01*
G75*
G02*
X112552500Y-104640000I172500J0D01*
G01*
X112947500Y-104640000D01*
G75*
G02*
X113120000Y-104812500I0J-172500D01*
G01*
X113120000Y-105157500D01*
G75*
G02*
X112947500Y-105330000I-172500J0D01*
G01*
G37*
G36*
G01*
X112110000Y-102802500D02*
X112110000Y-103197500D01*
G75*
G02*
X111937500Y-103370000I-172500J0D01*
G01*
X111592500Y-103370000D01*
G75*
G02*
X111420000Y-103197500I0J172500D01*
G01*
X111420000Y-102802500D01*
G75*
G02*
X111592500Y-102630000I172500J0D01*
G01*
X111937500Y-102630000D01*
G75*
G02*
X112110000Y-102802500I0J-172500D01*
G01*
G37*
G36*
G01*
X113080000Y-102802500D02*
X113080000Y-103197500D01*
G75*
G02*
X112907500Y-103370000I-172500J0D01*
G01*
X112562500Y-103370000D01*
G75*
G02*
X112390000Y-103197500I0J172500D01*
G01*
X112390000Y-102802500D01*
G75*
G02*
X112562500Y-102630000I172500J0D01*
G01*
X112907500Y-102630000D01*
G75*
G02*
X113080000Y-102802500I0J-172500D01*
G01*
G37*
G36*
G01*
X112390000Y-106947500D02*
X112390000Y-106552500D01*
G75*
G02*
X112562500Y-106380000I172500J0D01*
G01*
X112907500Y-106380000D01*
G75*
G02*
X113080000Y-106552500I0J-172500D01*
G01*
X113080000Y-106947500D01*
G75*
G02*
X112907500Y-107120000I-172500J0D01*
G01*
X112562500Y-107120000D01*
G75*
G02*
X112390000Y-106947500I0J172500D01*
G01*
G37*
G36*
G01*
X111420000Y-106947500D02*
X111420000Y-106552500D01*
G75*
G02*
X111592500Y-106380000I172500J0D01*
G01*
X111937500Y-106380000D01*
G75*
G02*
X112110000Y-106552500I0J-172500D01*
G01*
X112110000Y-106947500D01*
G75*
G02*
X111937500Y-107120000I-172500J0D01*
G01*
X111592500Y-107120000D01*
G75*
G02*
X111420000Y-106947500I0J172500D01*
G01*
G37*
G36*
G01*
X109860000Y-102802500D02*
X109860000Y-103197500D01*
G75*
G02*
X109687500Y-103370000I-172500J0D01*
G01*
X109342500Y-103370000D01*
G75*
G02*
X109170000Y-103197500I0J172500D01*
G01*
X109170000Y-102802500D01*
G75*
G02*
X109342500Y-102630000I172500J0D01*
G01*
X109687500Y-102630000D01*
G75*
G02*
X109860000Y-102802500I0J-172500D01*
G01*
G37*
G36*
G01*
X110830000Y-102802500D02*
X110830000Y-103197500D01*
G75*
G02*
X110657500Y-103370000I-172500J0D01*
G01*
X110312500Y-103370000D01*
G75*
G02*
X110140000Y-103197500I0J172500D01*
G01*
X110140000Y-102802500D01*
G75*
G02*
X110312500Y-102630000I172500J0D01*
G01*
X110657500Y-102630000D01*
G75*
G02*
X110830000Y-102802500I0J-172500D01*
G01*
G37*
G36*
G01*
X105860000Y-101302500D02*
X105860000Y-101697500D01*
G75*
G02*
X105687500Y-101870000I-172500J0D01*
G01*
X105342500Y-101870000D01*
G75*
G02*
X105170000Y-101697500I0J172500D01*
G01*
X105170000Y-101302500D01*
G75*
G02*
X105342500Y-101130000I172500J0D01*
G01*
X105687500Y-101130000D01*
G75*
G02*
X105860000Y-101302500I0J-172500D01*
G01*
G37*
G36*
G01*
X106830000Y-101302500D02*
X106830000Y-101697500D01*
G75*
G02*
X106657500Y-101870000I-172500J0D01*
G01*
X106312500Y-101870000D01*
G75*
G02*
X106140000Y-101697500I0J172500D01*
G01*
X106140000Y-101302500D01*
G75*
G02*
X106312500Y-101130000I172500J0D01*
G01*
X106657500Y-101130000D01*
G75*
G02*
X106830000Y-101302500I0J-172500D01*
G01*
G37*
G36*
G01*
X96175000Y-91202500D02*
X96175000Y-91597500D01*
G75*
G02*
X96002500Y-91770000I-172500J0D01*
G01*
X95657500Y-91770000D01*
G75*
G02*
X95485000Y-91597500I0J172500D01*
G01*
X95485000Y-91202500D01*
G75*
G02*
X95657500Y-91030000I172500J0D01*
G01*
X96002500Y-91030000D01*
G75*
G02*
X96175000Y-91202500I0J-172500D01*
G01*
G37*
G36*
G01*
X97145000Y-91202500D02*
X97145000Y-91597500D01*
G75*
G02*
X96972500Y-91770000I-172500J0D01*
G01*
X96627500Y-91770000D01*
G75*
G02*
X96455000Y-91597500I0J172500D01*
G01*
X96455000Y-91202500D01*
G75*
G02*
X96627500Y-91030000I172500J0D01*
G01*
X96972500Y-91030000D01*
G75*
G02*
X97145000Y-91202500I0J-172500D01*
G01*
G37*
G36*
G01*
X81697500Y-114360000D02*
X81302500Y-114360000D01*
G75*
G02*
X81130000Y-114187500I0J172500D01*
G01*
X81130000Y-113842500D01*
G75*
G02*
X81302500Y-113670000I172500J0D01*
G01*
X81697500Y-113670000D01*
G75*
G02*
X81870000Y-113842500I0J-172500D01*
G01*
X81870000Y-114187500D01*
G75*
G02*
X81697500Y-114360000I-172500J0D01*
G01*
G37*
G36*
G01*
X81697500Y-115330000D02*
X81302500Y-115330000D01*
G75*
G02*
X81130000Y-115157500I0J172500D01*
G01*
X81130000Y-114812500D01*
G75*
G02*
X81302500Y-114640000I172500J0D01*
G01*
X81697500Y-114640000D01*
G75*
G02*
X81870000Y-114812500I0J-172500D01*
G01*
X81870000Y-115157500D01*
G75*
G02*
X81697500Y-115330000I-172500J0D01*
G01*
G37*
D20*
X113000000Y-99500000D03*
X113950000Y-101500000D03*
X112050000Y-101500000D03*
X109250000Y-99500000D03*
X110200000Y-101500000D03*
X108300000Y-101500000D03*
D11*
X97090000Y-118000000D03*
X99630000Y-118000000D03*
X102170000Y-118000000D03*
X104710000Y-118000000D03*
D12*
X107250000Y-118000000D03*
D11*
X99710000Y-93500000D03*
D12*
X102250000Y-93500000D03*
D11*
X124040000Y-92250000D03*
D12*
X121500000Y-92250000D03*
D21*
X125820000Y-118050000D03*
D22*
X124390000Y-114400000D03*
D21*
X117180000Y-118050000D03*
D22*
X118610000Y-114400000D03*
D23*
X117180000Y-113870000D03*
X125820000Y-113870000D03*
D24*
X121250000Y-112955000D03*
X123250000Y-112955000D03*
X122750000Y-112955000D03*
X122250000Y-112955000D03*
X121750000Y-112955000D03*
X120750000Y-112955000D03*
X120250000Y-112955000D03*
X119750000Y-112955000D03*
D25*
X124750000Y-112955000D03*
X123950000Y-112955000D03*
X119050000Y-112955000D03*
X118250000Y-112955000D03*
X118250000Y-112955000D03*
X119050000Y-112955000D03*
X123950000Y-112955000D03*
X124750000Y-112955000D03*
D11*
X93450000Y-118000000D03*
X90910000Y-118000000D03*
X88370000Y-118000000D03*
X85830000Y-118000000D03*
X83290000Y-118000000D03*
D12*
X80750000Y-118000000D03*
G36*
G01*
X128300000Y-91781250D02*
X128300000Y-91218750D01*
G75*
G02*
X128543750Y-90975000I243750J0D01*
G01*
X129031250Y-90975000D01*
G75*
G02*
X129275000Y-91218750I0J-243750D01*
G01*
X129275000Y-91781250D01*
G75*
G02*
X129031250Y-92025000I-243750J0D01*
G01*
X128543750Y-92025000D01*
G75*
G02*
X128300000Y-91781250I0J243750D01*
G01*
G37*
G36*
G01*
X126725000Y-91781250D02*
X126725000Y-91218750D01*
G75*
G02*
X126968750Y-90975000I243750J0D01*
G01*
X127456250Y-90975000D01*
G75*
G02*
X127700000Y-91218750I0J-243750D01*
G01*
X127700000Y-91781250D01*
G75*
G02*
X127456250Y-92025000I-243750J0D01*
G01*
X126968750Y-92025000D01*
G75*
G02*
X126725000Y-91781250I0J243750D01*
G01*
G37*
D10*
X105450000Y-103000000D03*
X107550000Y-103000000D03*
G36*
G01*
X98654999Y-91173749D02*
X98654999Y-91736249D01*
G75*
G02*
X98411249Y-91979999I-243750J0D01*
G01*
X97923749Y-91979999D01*
G75*
G02*
X97679999Y-91736249I0J243750D01*
G01*
X97679999Y-91173749D01*
G75*
G02*
X97923749Y-90929999I243750J0D01*
G01*
X98411249Y-90929999D01*
G75*
G02*
X98654999Y-91173749I0J-243750D01*
G01*
G37*
G36*
G01*
X100229999Y-91173749D02*
X100229999Y-91736249D01*
G75*
G02*
X99986249Y-91979999I-243750J0D01*
G01*
X99498749Y-91979999D01*
G75*
G02*
X99254999Y-91736249I0J243750D01*
G01*
X99254999Y-91173749D01*
G75*
G02*
X99498749Y-90929999I243750J0D01*
G01*
X99986249Y-90929999D01*
G75*
G02*
X100229999Y-91173749I0J-243750D01*
G01*
G37*
G36*
G01*
X122800000Y-95531250D02*
X122800000Y-94968750D01*
G75*
G02*
X123043750Y-94725000I243750J0D01*
G01*
X123531250Y-94725000D01*
G75*
G02*
X123775000Y-94968750I0J-243750D01*
G01*
X123775000Y-95531250D01*
G75*
G02*
X123531250Y-95775000I-243750J0D01*
G01*
X123043750Y-95775000D01*
G75*
G02*
X122800000Y-95531250I0J243750D01*
G01*
G37*
G36*
G01*
X121225000Y-95531250D02*
X121225000Y-94968750D01*
G75*
G02*
X121468750Y-94725000I243750J0D01*
G01*
X121956250Y-94725000D01*
G75*
G02*
X122200000Y-94968750I0J-243750D01*
G01*
X122200000Y-95531250D01*
G75*
G02*
X121956250Y-95775000I-243750J0D01*
G01*
X121468750Y-95775000D01*
G75*
G02*
X121225000Y-95531250I0J243750D01*
G01*
G37*
G36*
G01*
X106231250Y-92850000D02*
X105268750Y-92850000D01*
G75*
G02*
X105000000Y-92581250I0J268750D01*
G01*
X105000000Y-92043750D01*
G75*
G02*
X105268750Y-91775000I268750J0D01*
G01*
X106231250Y-91775000D01*
G75*
G02*
X106500000Y-92043750I0J-268750D01*
G01*
X106500000Y-92581250D01*
G75*
G02*
X106231250Y-92850000I-268750J0D01*
G01*
G37*
G36*
G01*
X106231250Y-94725000D02*
X105268750Y-94725000D01*
G75*
G02*
X105000000Y-94456250I0J268750D01*
G01*
X105000000Y-93918750D01*
G75*
G02*
X105268750Y-93650000I268750J0D01*
G01*
X106231250Y-93650000D01*
G75*
G02*
X106500000Y-93918750I0J-268750D01*
G01*
X106500000Y-94456250D01*
G75*
G02*
X106231250Y-94725000I-268750J0D01*
G01*
G37*
G36*
G01*
X118018750Y-99650000D02*
X118981250Y-99650000D01*
G75*
G02*
X119250000Y-99918750I0J-268750D01*
G01*
X119250000Y-100456250D01*
G75*
G02*
X118981250Y-100725000I-268750J0D01*
G01*
X118018750Y-100725000D01*
G75*
G02*
X117750000Y-100456250I0J268750D01*
G01*
X117750000Y-99918750D01*
G75*
G02*
X118018750Y-99650000I268750J0D01*
G01*
G37*
G36*
G01*
X118018750Y-97775000D02*
X118981250Y-97775000D01*
G75*
G02*
X119250000Y-98043750I0J-268750D01*
G01*
X119250000Y-98581250D01*
G75*
G02*
X118981250Y-98850000I-268750J0D01*
G01*
X118018750Y-98850000D01*
G75*
G02*
X117750000Y-98581250I0J268750D01*
G01*
X117750000Y-98043750D01*
G75*
G02*
X118018750Y-97775000I268750J0D01*
G01*
G37*
G36*
G01*
X119968750Y-99800000D02*
X120531250Y-99800000D01*
G75*
G02*
X120775000Y-100043750I0J-243750D01*
G01*
X120775000Y-100531250D01*
G75*
G02*
X120531250Y-100775000I-243750J0D01*
G01*
X119968750Y-100775000D01*
G75*
G02*
X119725000Y-100531250I0J243750D01*
G01*
X119725000Y-100043750D01*
G75*
G02*
X119968750Y-99800000I243750J0D01*
G01*
G37*
G36*
G01*
X119968750Y-98225000D02*
X120531250Y-98225000D01*
G75*
G02*
X120775000Y-98468750I0J-243750D01*
G01*
X120775000Y-98956250D01*
G75*
G02*
X120531250Y-99200000I-243750J0D01*
G01*
X119968750Y-99200000D01*
G75*
G02*
X119725000Y-98956250I0J243750D01*
G01*
X119725000Y-98468750D01*
G75*
G02*
X119968750Y-98225000I243750J0D01*
G01*
G37*
G36*
G01*
X105268750Y-97650000D02*
X106231250Y-97650000D01*
G75*
G02*
X106500000Y-97918750I0J-268750D01*
G01*
X106500000Y-98456250D01*
G75*
G02*
X106231250Y-98725000I-268750J0D01*
G01*
X105268750Y-98725000D01*
G75*
G02*
X105000000Y-98456250I0J268750D01*
G01*
X105000000Y-97918750D01*
G75*
G02*
X105268750Y-97650000I268750J0D01*
G01*
G37*
G36*
G01*
X105268750Y-95775000D02*
X106231250Y-95775000D01*
G75*
G02*
X106500000Y-96043750I0J-268750D01*
G01*
X106500000Y-96581250D01*
G75*
G02*
X106231250Y-96850000I-268750J0D01*
G01*
X105268750Y-96850000D01*
G75*
G02*
X105000000Y-96581250I0J268750D01*
G01*
X105000000Y-96043750D01*
G75*
G02*
X105268750Y-95775000I268750J0D01*
G01*
G37*
G36*
G01*
X111697500Y-104360000D02*
X111302500Y-104360000D01*
G75*
G02*
X111130000Y-104187500I0J172500D01*
G01*
X111130000Y-103842500D01*
G75*
G02*
X111302500Y-103670000I172500J0D01*
G01*
X111697500Y-103670000D01*
G75*
G02*
X111870000Y-103842500I0J-172500D01*
G01*
X111870000Y-104187500D01*
G75*
G02*
X111697500Y-104360000I-172500J0D01*
G01*
G37*
G36*
G01*
X111697500Y-105330000D02*
X111302500Y-105330000D01*
G75*
G02*
X111130000Y-105157500I0J172500D01*
G01*
X111130000Y-104812500D01*
G75*
G02*
X111302500Y-104640000I172500J0D01*
G01*
X111697500Y-104640000D01*
G75*
G02*
X111870000Y-104812500I0J-172500D01*
G01*
X111870000Y-105157500D01*
G75*
G02*
X111697500Y-105330000I-172500J0D01*
G01*
G37*
G36*
G01*
X77850000Y-114768750D02*
X77850000Y-115731250D01*
G75*
G02*
X77581250Y-116000000I-268750J0D01*
G01*
X77043750Y-116000000D01*
G75*
G02*
X76775000Y-115731250I0J268750D01*
G01*
X76775000Y-114768750D01*
G75*
G02*
X77043750Y-114500000I268750J0D01*
G01*
X77581250Y-114500000D01*
G75*
G02*
X77850000Y-114768750I0J-268750D01*
G01*
G37*
G36*
G01*
X79725000Y-114768750D02*
X79725000Y-115731250D01*
G75*
G02*
X79456250Y-116000000I-268750J0D01*
G01*
X78918750Y-116000000D01*
G75*
G02*
X78650000Y-115731250I0J268750D01*
G01*
X78650000Y-114768750D01*
G75*
G02*
X78918750Y-114500000I268750J0D01*
G01*
X79456250Y-114500000D01*
G75*
G02*
X79725000Y-114768750I0J-268750D01*
G01*
G37*
G36*
G01*
X77912500Y-112968750D02*
X77912500Y-113531250D01*
G75*
G02*
X77668750Y-113775000I-243750J0D01*
G01*
X77181250Y-113775000D01*
G75*
G02*
X76937500Y-113531250I0J243750D01*
G01*
X76937500Y-112968750D01*
G75*
G02*
X77181250Y-112725000I243750J0D01*
G01*
X77668750Y-112725000D01*
G75*
G02*
X77912500Y-112968750I0J-243750D01*
G01*
G37*
G36*
G01*
X79487500Y-112968750D02*
X79487500Y-113531250D01*
G75*
G02*
X79243750Y-113775000I-243750J0D01*
G01*
X78756250Y-113775000D01*
G75*
G02*
X78512500Y-113531250I0J243750D01*
G01*
X78512500Y-112968750D01*
G75*
G02*
X78756250Y-112725000I243750J0D01*
G01*
X79243750Y-112725000D01*
G75*
G02*
X79487500Y-112968750I0J-243750D01*
G01*
G37*
G36*
G01*
X82552500Y-114640000D02*
X82947500Y-114640000D01*
G75*
G02*
X83120000Y-114812500I0J-172500D01*
G01*
X83120000Y-115157500D01*
G75*
G02*
X82947500Y-115330000I-172500J0D01*
G01*
X82552500Y-115330000D01*
G75*
G02*
X82380000Y-115157500I0J172500D01*
G01*
X82380000Y-114812500D01*
G75*
G02*
X82552500Y-114640000I172500J0D01*
G01*
G37*
G36*
G01*
X82552500Y-113670000D02*
X82947500Y-113670000D01*
G75*
G02*
X83120000Y-113842500I0J-172500D01*
G01*
X83120000Y-114187500D01*
G75*
G02*
X82947500Y-114360000I-172500J0D01*
G01*
X82552500Y-114360000D01*
G75*
G02*
X82380000Y-114187500I0J172500D01*
G01*
X82380000Y-113842500D01*
G75*
G02*
X82552500Y-113670000I172500J0D01*
G01*
G37*
M02*
