<?xml version="1.0" standalone="no"?>
 <!DOCTYPE svg PUBLIC "-//W3C//DTD SVG 1.1//EN" 
 "http://www.w3.org/Graphics/SVG/1.1/DTD/svg11.dtd"> 
<svg
  xmlns:svg="http://www.w3.org/2000/svg"
  xmlns="http://www.w3.org/2000/svg"
  xmlns:xlink="http://www.w3.org/1999/xlink"
  version="1.1"
  width="7.500620cm" height="3.525520cm" viewBox="0 0 29530 13880">
<title>SVG Picture created as epaper-F_Paste.svg date 2020/09/06 13:08:48 </title>
  <desc>Picture generated by PCBNEW </desc>
<g style="fill:#000000; fill-opacity:1;stroke:#000000; stroke-opacity:1;
stroke-linecap:round; stroke-linejoin:round;"
 transform="translate(0 0) scale(1 1)">
</g>
<g style="fill:#000000; fill-opacity:0.0; 
stroke:#000000; stroke-width:-0.000393701; stroke-opacity:1; 
stroke-linecap:round; stroke-linejoin:round;">
<g >
</g>
<g style="fill:#000000; fill-opacity:0.0; 
stroke:#000000; stroke-width:0; stroke-opacity:1; 
stroke-linecap:round; stroke-linejoin:round;">
</g>
<g style="fill:#000000; fill-opacity:1.0; 
stroke:#000000; stroke-width:0; stroke-opacity:1; 
stroke-linecap:round; stroke-linejoin:round;">
<path style="fill:#000000; fill-opacity:1.0; 
stroke:#000000; stroke-width:0; stroke-opacity:1; 
stroke-linecap:round; stroke-linejoin:round;fill-rule:evenodd;"
d="M 16053.1,6594.49
16053.1,6771.65
15816.9,6771.65
15816.9,6594.49
Z" /> 
<path style="fill:#000000; fill-opacity:1.0; 
stroke:#000000; stroke-width:0; stroke-opacity:1; 
stroke-linecap:round; stroke-linejoin:round;fill-rule:evenodd;"
d="M 16879.9,6594.49
16879.9,6771.65
16643.7,6771.65
16643.7,6594.49
Z" /> 
</g>
<g >
</g>
<g >
</g>
<g >
</g>
<g >
</g>
<g >
</g>
<g >
</g>
<g >
</g>
<g >
</g>
<g >
</g>
<g >
</g>
<g >
</g>
<g >
</g>
<g >
</g>
<g >
</g>
<g style="fill:#000000; fill-opacity:1.0; 
stroke:#000000; stroke-width:0; stroke-opacity:1; 
stroke-linecap:round; stroke-linejoin:round;">
<path style="fill:#000000; fill-opacity:1.0; 
stroke:#000000; stroke-width:0; stroke-opacity:1; 
stroke-linecap:round; stroke-linejoin:round;fill-rule:evenodd;"
d="M 22992.1,4714.57
23248,4714.57
23248,5194.88
22992.1,5194.88
Z" /> 
<path style="fill:#000000; fill-opacity:1.0; 
stroke:#000000; stroke-width:0; stroke-opacity:1; 
stroke-linecap:round; stroke-linejoin:round;fill-rule:evenodd;"
d="M 22244.1,4714.57
22500,4714.57
22500,5194.88
22244.1,5194.88
Z" /> 
<path style="fill:#000000; fill-opacity:1.0; 
stroke:#000000; stroke-width:0; stroke-opacity:1; 
stroke-linecap:round; stroke-linejoin:round;fill-rule:evenodd;"
d="M 22244.1,3683.07
22500,3683.07
22500,4163.39
22244.1,4163.39
Z" /> 
<path style="fill:#000000; fill-opacity:1.0; 
stroke:#000000; stroke-width:0; stroke-opacity:1; 
stroke-linecap:round; stroke-linejoin:round;fill-rule:evenodd;"
d="M 22618.1,3683.07
22874,3683.07
22874,4163.39
22618.1,4163.39
Z" /> 
<path style="fill:#000000; fill-opacity:1.0; 
stroke:#000000; stroke-width:0; stroke-opacity:1; 
stroke-linecap:round; stroke-linejoin:round;fill-rule:evenodd;"
d="M 22992.1,3683.07
23248,3683.07
23248,4163.39
22992.1,4163.39
Z" /> 
</g>
<g >
</g>
<g style="fill:#000000; fill-opacity:1.0; 
stroke:#000000; stroke-width:0; stroke-opacity:1; 
stroke-linecap:round; stroke-linejoin:round;">
<path style="fill:#000000; fill-opacity:1.0; 
stroke:#000000; stroke-width:0; stroke-opacity:1; 
stroke-linecap:round; stroke-linejoin:round;fill-rule:evenodd;"
d="M 16584.6,2253.94
16584.6,1663.39
17372,1663.39
17372,2253.94
Z" /> 
<path style="fill:#000000; fill-opacity:1.0; 
stroke:#000000; stroke-width:0; stroke-opacity:1; 
stroke-linecap:round; stroke-linejoin:round;fill-rule:evenodd;"
d="M 16584.6,4064.96
16584.6,3474.41
17372,3474.41
17372,4064.96
Z" /> 
<path style="fill:#000000; fill-opacity:1.0; 
stroke:#000000; stroke-width:0; stroke-opacity:1; 
stroke-linecap:round; stroke-linejoin:round;fill-rule:evenodd;"
d="M 16584.6,3159.45
16584.6,2568.9
17372,2568.9
17372,3159.45
Z" /> 
<path style="fill:#000000; fill-opacity:1.0; 
stroke:#000000; stroke-width:0; stroke-opacity:1; 
stroke-linecap:round; stroke-linejoin:round;fill-rule:evenodd;"
d="M 19065,3612.21
19065,2116.14
19852.4,2116.14
19852.4,3612.21
Z" /> 
</g>
<g >
</g>
<g style="fill:#000000; fill-opacity:1.0; 
stroke:#000000; stroke-width:0; stroke-opacity:1; 
stroke-linecap:round; stroke-linejoin:round;">
<path style="fill:#000000; fill-opacity:1.0; 
stroke:#000000; stroke-width:0; stroke-opacity:1; 
stroke-linecap:round; stroke-linejoin:round;fill-rule:evenodd;"
d="M 5204.72,2667.32
4850.39,2667.32
4850.39,1879.92
5204.72,1879.92
Z" /> 
<path style="fill:#000000; fill-opacity:1.0; 
stroke:#000000; stroke-width:0; stroke-opacity:1; 
stroke-linecap:round; stroke-linejoin:round;fill-rule:evenodd;"
d="M 5704.72,2667.32
5350.39,2667.32
5350.39,1879.92
5704.72,1879.92
Z" /> 
<path style="fill:#000000; fill-opacity:1.0; 
stroke:#000000; stroke-width:0; stroke-opacity:1; 
stroke-linecap:round; stroke-linejoin:round;fill-rule:evenodd;"
d="M 6204.72,2667.32
5850.39,2667.32
5850.39,1879.92
6204.72,1879.92
Z" /> 
<path style="fill:#000000; fill-opacity:1.0; 
stroke:#000000; stroke-width:0; stroke-opacity:1; 
stroke-linecap:round; stroke-linejoin:round;fill-rule:evenodd;"
d="M 6704.72,2667.32
6350.39,2667.32
6350.39,1879.92
6704.72,1879.92
Z" /> 
<path style="fill:#000000; fill-opacity:1.0; 
stroke:#000000; stroke-width:0; stroke-opacity:1; 
stroke-linecap:round; stroke-linejoin:round;fill-rule:evenodd;"
d="M 7204.72,2667.32
6850.39,2667.32
6850.39,1879.92
7204.72,1879.92
Z" /> 
<path style="fill:#000000; fill-opacity:1.0; 
stroke:#000000; stroke-width:0; stroke-opacity:1; 
stroke-linecap:round; stroke-linejoin:round;fill-rule:evenodd;"
d="M 7704.72,2667.32
7350.39,2667.32
7350.39,1879.92
7704.72,1879.92
Z" /> 
<path style="fill:#000000; fill-opacity:1.0; 
stroke:#000000; stroke-width:0; stroke-opacity:1; 
stroke-linecap:round; stroke-linejoin:round;fill-rule:evenodd;"
d="M 8204.72,2667.32
7850.39,2667.32
7850.39,1879.92
8204.72,1879.92
Z" /> 
<path style="fill:#000000; fill-opacity:1.0; 
stroke:#000000; stroke-width:0; stroke-opacity:1; 
stroke-linecap:round; stroke-linejoin:round;fill-rule:evenodd;"
d="M 8704.72,2667.32
8350.39,2667.32
8350.39,1879.92
8704.72,1879.92
Z" /> 
<path style="fill:#000000; fill-opacity:1.0; 
stroke:#000000; stroke-width:0; stroke-opacity:1; 
stroke-linecap:round; stroke-linejoin:round;fill-rule:evenodd;"
d="M 9204.72,2667.32
8850.39,2667.32
8850.39,1879.92
9204.72,1879.92
Z" /> 
<path style="fill:#000000; fill-opacity:1.0; 
stroke:#000000; stroke-width:0; stroke-opacity:1; 
stroke-linecap:round; stroke-linejoin:round;fill-rule:evenodd;"
d="M 9704.72,2667.32
9350.39,2667.32
9350.39,1879.92
9704.72,1879.92
Z" /> 
<path style="fill:#000000; fill-opacity:1.0; 
stroke:#000000; stroke-width:0; stroke-opacity:1; 
stroke-linecap:round; stroke-linejoin:round;fill-rule:evenodd;"
d="M 10204.7,2667.32
9850.39,2667.32
9850.39,1879.92
10204.7,1879.92
Z" /> 
<path style="fill:#000000; fill-opacity:1.0; 
stroke:#000000; stroke-width:0; stroke-opacity:1; 
stroke-linecap:round; stroke-linejoin:round;fill-rule:evenodd;"
d="M 10704.7,2667.32
10350.4,2667.32
10350.4,1879.92
10704.7,1879.92
Z" /> 
<path style="fill:#000000; fill-opacity:1.0; 
stroke:#000000; stroke-width:0; stroke-opacity:1; 
stroke-linecap:round; stroke-linejoin:round;fill-rule:evenodd;"
d="M 11204.7,2667.32
10850.4,2667.32
10850.4,1879.92
11204.7,1879.92
Z" /> 
<path style="fill:#000000; fill-opacity:1.0; 
stroke:#000000; stroke-width:0; stroke-opacity:1; 
stroke-linecap:round; stroke-linejoin:round;fill-rule:evenodd;"
d="M 11704.7,2667.32
11350.4,2667.32
11350.4,1879.92
11704.7,1879.92
Z" /> 
<path style="fill:#000000; fill-opacity:1.0; 
stroke:#000000; stroke-width:0; stroke-opacity:1; 
stroke-linecap:round; stroke-linejoin:round;fill-rule:evenodd;"
d="M 12315,3192.91
12315,3547.24
11527.6,3547.24
11527.6,3192.91
Z" /> 
<path style="fill:#000000; fill-opacity:1.0; 
stroke:#000000; stroke-width:0; stroke-opacity:1; 
stroke-linecap:round; stroke-linejoin:round;fill-rule:evenodd;"
d="M 12315,3692.91
12315,4047.24
11527.6,4047.24
11527.6,3692.91
Z" /> 
<path style="fill:#000000; fill-opacity:1.0; 
stroke:#000000; stroke-width:0; stroke-opacity:1; 
stroke-linecap:round; stroke-linejoin:round;fill-rule:evenodd;"
d="M 12315,4192.91
12315,4547.24
11527.6,4547.24
11527.6,4192.91
Z" /> 
<path style="fill:#000000; fill-opacity:1.0; 
stroke:#000000; stroke-width:0; stroke-opacity:1; 
stroke-linecap:round; stroke-linejoin:round;fill-rule:evenodd;"
d="M 12315,4692.91
12315,5047.24
11527.6,5047.24
11527.6,4692.91
Z" /> 
<path style="fill:#000000; fill-opacity:1.0; 
stroke:#000000; stroke-width:0; stroke-opacity:1; 
stroke-linecap:round; stroke-linejoin:round;fill-rule:evenodd;"
d="M 12315,5192.91
12315,5547.24
11527.6,5547.24
11527.6,5192.91
Z" /> 
<path style="fill:#000000; fill-opacity:1.0; 
stroke:#000000; stroke-width:0; stroke-opacity:1; 
stroke-linecap:round; stroke-linejoin:round;fill-rule:evenodd;"
d="M 12315,5692.91
12315,6047.24
11527.6,6047.24
11527.6,5692.91
Z" /> 
<path style="fill:#000000; fill-opacity:1.0; 
stroke:#000000; stroke-width:0; stroke-opacity:1; 
stroke-linecap:round; stroke-linejoin:round;fill-rule:evenodd;"
d="M 12315,6192.91
12315,6547.24
11527.6,6547.24
11527.6,6192.91
Z" /> 
<path style="fill:#000000; fill-opacity:1.0; 
stroke:#000000; stroke-width:0; stroke-opacity:1; 
stroke-linecap:round; stroke-linejoin:round;fill-rule:evenodd;"
d="M 12315,6692.91
12315,7047.24
11527.6,7047.24
11527.6,6692.91
Z" /> 
<path style="fill:#000000; fill-opacity:1.0; 
stroke:#000000; stroke-width:0; stroke-opacity:1; 
stroke-linecap:round; stroke-linejoin:round;fill-rule:evenodd;"
d="M 12315,7192.91
12315,7547.24
11527.6,7547.24
11527.6,7192.91
Z" /> 
<path style="fill:#000000; fill-opacity:1.0; 
stroke:#000000; stroke-width:0; stroke-opacity:1; 
stroke-linecap:round; stroke-linejoin:round;fill-rule:evenodd;"
d="M 12315,7692.91
12315,8047.24
11527.6,8047.24
11527.6,7692.91
Z" /> 
<path style="fill:#000000; fill-opacity:1.0; 
stroke:#000000; stroke-width:0; stroke-opacity:1; 
stroke-linecap:round; stroke-linejoin:round;fill-rule:evenodd;"
d="M 11704.7,9360.24
11350.4,9360.24
11350.4,8572.84
11704.7,8572.84
Z" /> 
<path style="fill:#000000; fill-opacity:1.0; 
stroke:#000000; stroke-width:0; stroke-opacity:1; 
stroke-linecap:round; stroke-linejoin:round;fill-rule:evenodd;"
d="M 11204.7,9360.24
10850.4,9360.24
10850.4,8572.84
11204.7,8572.84
Z" /> 
<path style="fill:#000000; fill-opacity:1.0; 
stroke:#000000; stroke-width:0; stroke-opacity:1; 
stroke-linecap:round; stroke-linejoin:round;fill-rule:evenodd;"
d="M 10704.7,9360.24
10350.4,9360.24
10350.4,8572.84
10704.7,8572.84
Z" /> 
<path style="fill:#000000; fill-opacity:1.0; 
stroke:#000000; stroke-width:0; stroke-opacity:1; 
stroke-linecap:round; stroke-linejoin:round;fill-rule:evenodd;"
d="M 10204.7,9360.24
9850.39,9360.24
9850.39,8572.84
10204.7,8572.84
Z" /> 
<path style="fill:#000000; fill-opacity:1.0; 
stroke:#000000; stroke-width:0; stroke-opacity:1; 
stroke-linecap:round; stroke-linejoin:round;fill-rule:evenodd;"
d="M 9704.72,9360.24
9350.39,9360.24
9350.39,8572.84
9704.72,8572.84
Z" /> 
<path style="fill:#000000; fill-opacity:1.0; 
stroke:#000000; stroke-width:0; stroke-opacity:1; 
stroke-linecap:round; stroke-linejoin:round;fill-rule:evenodd;"
d="M 9204.72,9360.24
8850.39,9360.24
8850.39,8572.84
9204.72,8572.84
Z" /> 
<path style="fill:#000000; fill-opacity:1.0; 
stroke:#000000; stroke-width:0; stroke-opacity:1; 
stroke-linecap:round; stroke-linejoin:round;fill-rule:evenodd;"
d="M 8704.72,9360.24
8350.39,9360.24
8350.39,8572.84
8704.72,8572.84
Z" /> 
<path style="fill:#000000; fill-opacity:1.0; 
stroke:#000000; stroke-width:0; stroke-opacity:1; 
stroke-linecap:round; stroke-linejoin:round;fill-rule:evenodd;"
d="M 8204.72,9360.24
7850.39,9360.24
7850.39,8572.84
8204.72,8572.84
Z" /> 
<path style="fill:#000000; fill-opacity:1.0; 
stroke:#000000; stroke-width:0; stroke-opacity:1; 
stroke-linecap:round; stroke-linejoin:round;fill-rule:evenodd;"
d="M 7704.72,9360.24
7350.39,9360.24
7350.39,8572.84
7704.72,8572.84
Z" /> 
<path style="fill:#000000; fill-opacity:1.0; 
stroke:#000000; stroke-width:0; stroke-opacity:1; 
stroke-linecap:round; stroke-linejoin:round;fill-rule:evenodd;"
d="M 7204.72,9360.24
6850.39,9360.24
6850.39,8572.84
7204.72,8572.84
Z" /> 
<path style="fill:#000000; fill-opacity:1.0; 
stroke:#000000; stroke-width:0; stroke-opacity:1; 
stroke-linecap:round; stroke-linejoin:round;fill-rule:evenodd;"
d="M 6704.72,9360.24
6350.39,9360.24
6350.39,8572.84
6704.72,8572.84
Z" /> 
<path style="fill:#000000; fill-opacity:1.0; 
stroke:#000000; stroke-width:0; stroke-opacity:1; 
stroke-linecap:round; stroke-linejoin:round;fill-rule:evenodd;"
d="M 6204.72,9360.24
5850.39,9360.24
5850.39,8572.84
6204.72,8572.84
Z" /> 
<path style="fill:#000000; fill-opacity:1.0; 
stroke:#000000; stroke-width:0; stroke-opacity:1; 
stroke-linecap:round; stroke-linejoin:round;fill-rule:evenodd;"
d="M 5704.72,9360.24
5350.39,9360.24
5350.39,8572.84
5704.72,8572.84
Z" /> 
<path style="fill:#000000; fill-opacity:1.0; 
stroke:#000000; stroke-width:0; stroke-opacity:1; 
stroke-linecap:round; stroke-linejoin:round;fill-rule:evenodd;"
d="M 5204.72,9360.24
4850.39,9360.24
4850.39,8572.84
5204.72,8572.84
Z" /> 
<path style="fill:#000000; fill-opacity:1.0; 
stroke:#000000; stroke-width:0; stroke-opacity:1; 
stroke-linecap:round; stroke-linejoin:round;fill-rule:evenodd;"
d="M 8964.57,6998.03
6996.06,6998.03
6996.06,5029.53
8964.57,5029.53
Z" /> 
</g>
<g >
</g>
<g style="fill:#000000; fill-opacity:1.0; 
stroke:#000000; stroke-width:0; stroke-opacity:1; 
stroke-linecap:round; stroke-linejoin:round;">
<path style="fill:#000000; fill-opacity:1.0; 
stroke:#000000; stroke-width:0; stroke-opacity:1; 
stroke-linecap:round; stroke-linejoin:round;fill-rule:evenodd;"
d="M 21663.4,6309.06
21663.4,6702.76
20561,6702.76
20561,6309.06
Z" /> 
<path style="fill:#000000; fill-opacity:1.0; 
stroke:#000000; stroke-width:0; stroke-opacity:1; 
stroke-linecap:round; stroke-linejoin:round;fill-rule:evenodd;"
d="M 23946.9,6309.06
23946.9,6702.76
22844.5,6702.76
22844.5,6309.06
Z" /> 
<path style="fill:#000000; fill-opacity:1.0; 
stroke:#000000; stroke-width:0; stroke-opacity:1; 
stroke-linecap:round; stroke-linejoin:round;fill-rule:evenodd;"
d="M 21663.4,7883.86
21663.4,8277.56
20561,8277.56
20561,7883.86
Z" /> 
<path style="fill:#000000; fill-opacity:1.0; 
stroke:#000000; stroke-width:0; stroke-opacity:1; 
stroke-linecap:round; stroke-linejoin:round;fill-rule:evenodd;"
d="M 23946.9,7883.86
23946.9,8277.56
22844.5,8277.56
22844.5,7883.86
Z" /> 
</g>
<g >
</g>
<g >
</g>
<g >
</g>
<g >
</g>
<g >
</g>
<g style="fill:#000000; fill-opacity:1.0; 
stroke:#000000; stroke-width:0; stroke-opacity:1; 
stroke-linecap:round; stroke-linejoin:round;">
<path style="fill:#000000; fill-opacity:1.0; 
stroke:#000000; stroke-width:0; stroke-opacity:1; 
stroke-linecap:round; stroke-linejoin:round;fill-rule:evenodd;"
d="M 23705.5,5006.19
23711.1,5007.02
23716.7,5008.41
23722,5010.33
23727.2,5012.76
23732.1,5015.69
23736.6,5019.09
23740.9,5022.91
23744.7,5027.14
23748.1,5031.71
23751,5036.6
23753.5,5041.75
23755.4,5047.12
23756.8,5052.65
23757.6,5058.28
23757.9,5063.98
23757.9,5180.12
23757.6,5185.81
23756.8,5191.45
23755.4,5196.98
23753.5,5202.34
23751,5207.49
23748.1,5212.38
23744.7,5216.96
23740.9,5221.18
23736.6,5225.01
23732.1,5228.4
23727.2,5231.33
23722,5233.77
23716.7,5235.69
23711.1,5237.07
23705.5,5237.91
23699.8,5238.19
23564,5238.19
23558.3,5237.91
23552.6,5237.07
23547.1,5235.69
23541.8,5233.77
23536.6,5231.33
23531.7,5228.4
23527.1,5225.01
23522.9,5221.18
23519.1,5216.96
23515.7,5212.38
23512.8,5207.49
23510.3,5202.34
23508.4,5196.98
23507,5191.45
23506.2,5185.81
23505.9,5180.12
23505.9,5063.98
23506.2,5058.28
23507,5052.65
23508.4,5047.12
23510.3,5041.75
23512.8,5036.6
23515.7,5031.71
23519.1,5027.14
23522.9,5022.91
23527.1,5019.09
23531.7,5015.69
23536.6,5012.76
23541.8,5010.33
23547.1,5008.41
23552.6,5007.02
23558.3,5006.19
23564,5005.91
23699.8,5005.91
Z" /> 
<path style="fill:#000000; fill-opacity:1.0; 
stroke:#000000; stroke-width:0; stroke-opacity:1; 
stroke-linecap:round; stroke-linejoin:round;fill-rule:evenodd;"
d="M 23705.5,4624.3
23711.1,4625.13
23716.7,4626.52
23722,4628.44
23727.2,4630.87
23732.1,4633.8
23736.6,4637.2
23740.9,4641.02
23744.7,4645.25
23748.1,4649.82
23751,4654.71
23753.5,4659.86
23755.4,4665.23
23756.8,4670.76
23757.6,4676.39
23757.9,4682.09
23757.9,4798.23
23757.6,4803.92
23756.8,4809.56
23755.4,4815.09
23753.5,4820.45
23751,4825.6
23748.1,4830.49
23744.7,4835.07
23740.9,4839.29
23736.6,4843.12
23732.1,4846.51
23727.2,4849.44
23722,4851.88
23716.7,4853.8
23711.1,4855.18
23705.5,4856.02
23699.8,4856.3
23564,4856.3
23558.3,4856.02
23552.6,4855.18
23547.1,4853.8
23541.8,4851.88
23536.6,4849.44
23531.7,4846.51
23527.1,4843.12
23522.9,4839.29
23519.1,4835.07
23515.7,4830.49
23512.8,4825.6
23510.3,4820.45
23508.4,4815.09
23507,4809.56
23506.2,4803.92
23505.9,4798.23
23505.9,4682.09
23506.2,4676.39
23507,4670.76
23508.4,4665.23
23510.3,4659.86
23512.8,4654.71
23515.7,4649.82
23519.1,4645.25
23522.9,4641.02
23527.1,4637.2
23531.7,4633.8
23536.6,4630.87
23541.8,4628.44
23547.1,4626.52
23552.6,4625.13
23558.3,4624.3
23564,4624.02
23699.8,4624.02
Z" /> 
</g>
<g >
</g>
<g style="fill:#000000; fill-opacity:1.0; 
stroke:#000000; stroke-width:0; stroke-opacity:1; 
stroke-linecap:round; stroke-linejoin:round;">
<path style="fill:#000000; fill-opacity:1.0; 
stroke:#000000; stroke-width:0; stroke-opacity:1; 
stroke-linecap:round; stroke-linejoin:round;fill-rule:evenodd;"
d="M 24099.2,4120.36
24104.8,4121.19
24110.4,4122.58
24115.7,4124.5
24120.9,4126.94
24125.8,4129.87
24130.3,4133.26
24134.6,4137.09
24138.4,4141.31
24141.8,4145.89
24144.7,4150.78
24147.2,4155.93
24149.1,4161.29
24150.5,4166.82
24151.3,4172.46
24151.6,4178.15
24151.6,4294.29
24151.3,4299.98
24150.5,4305.62
24149.1,4311.15
24147.2,4316.51
24144.7,4321.67
24141.8,4326.55
24138.4,4331.13
24134.6,4335.35
24130.3,4339.18
24125.8,4342.58
24120.9,4345.51
24115.7,4347.94
24110.4,4349.86
24104.8,4351.25
24099.2,4352.08
24093.5,4352.36
23957.7,4352.36
23952,4352.08
23946.3,4351.25
23940.8,4349.86
23935.5,4347.94
23930.3,4345.51
23925.4,4342.58
23920.8,4339.18
23916.6,4335.35
23912.8,4331.13
23909.4,4326.55
23906.5,4321.67
23904,4316.51
23902.1,4311.15
23900.7,4305.62
23899.9,4299.98
23899.6,4294.29
23899.6,4178.15
23899.9,4172.46
23900.7,4166.82
23902.1,4161.29
23904,4155.93
23906.5,4150.78
23909.4,4145.89
23912.8,4141.31
23916.6,4137.09
23920.8,4133.26
23925.4,4129.87
23930.3,4126.94
23935.5,4124.5
23940.8,4122.58
23946.3,4121.19
23952,4120.36
23957.7,4120.08
24093.5,4120.08
Z" /> 
<path style="fill:#000000; fill-opacity:1.0; 
stroke:#000000; stroke-width:0; stroke-opacity:1; 
stroke-linecap:round; stroke-linejoin:round;fill-rule:evenodd;"
d="M 24099.2,3738.47
24104.8,3739.31
24110.4,3740.69
24115.7,3742.61
24120.9,3745.05
24125.8,3747.98
24130.3,3751.37
24134.6,3755.2
24138.4,3759.42
24141.8,3764
24144.7,3768.89
24147.2,3774.04
24149.1,3779.4
24150.5,3784.93
24151.3,3790.57
24151.6,3796.26
24151.6,3912.4
24151.3,3918.09
24150.5,3923.73
24149.1,3929.26
24147.2,3934.62
24144.7,3939.78
24141.8,3944.66
24138.4,3949.24
24134.6,3953.46
24130.3,3957.29
24125.8,3960.69
24120.9,3963.62
24115.7,3966.05
24110.4,3967.97
24104.8,3969.36
24099.2,3970.19
24093.5,3970.47
23957.7,3970.47
23952,3970.19
23946.3,3969.36
23940.8,3967.97
23935.5,3966.05
23930.3,3963.62
23925.4,3960.69
23920.8,3957.29
23916.6,3953.46
23912.8,3949.24
23909.4,3944.66
23906.5,3939.78
23904,3934.62
23902.1,3929.26
23900.7,3923.73
23899.9,3918.09
23899.6,3912.4
23899.6,3796.26
23899.9,3790.57
23900.7,3784.93
23902.1,3779.4
23904,3774.04
23906.5,3768.89
23909.4,3764
23912.8,3759.42
23916.6,3755.2
23920.8,3751.37
23925.4,3747.98
23930.3,3745.05
23935.5,3742.61
23940.8,3740.69
23946.3,3739.31
23952,3738.47
23957.7,3738.19
24093.5,3738.19
Z" /> 
</g>
<g >
</g>
<g style="fill:#000000; fill-opacity:1.0; 
stroke:#000000; stroke-width:0; stroke-opacity:1; 
stroke-linecap:round; stroke-linejoin:round;">
<path style="fill:#000000; fill-opacity:1.0; 
stroke:#000000; stroke-width:0; stroke-opacity:1; 
stroke-linecap:round; stroke-linejoin:round;fill-rule:evenodd;"
d="M 23705.5,4120.36
23711.1,4121.19
23716.7,4122.58
23722,4124.5
23727.2,4126.94
23732.1,4129.87
23736.6,4133.26
23740.9,4137.09
23744.7,4141.31
23748.1,4145.89
23751,4150.78
23753.5,4155.93
23755.4,4161.29
23756.8,4166.82
23757.6,4172.46
23757.9,4178.15
23757.9,4294.29
23757.6,4299.98
23756.8,4305.62
23755.4,4311.15
23753.5,4316.51
23751,4321.67
23748.1,4326.55
23744.7,4331.13
23740.9,4335.35
23736.6,4339.18
23732.1,4342.58
23727.2,4345.51
23722,4347.94
23716.7,4349.86
23711.1,4351.25
23705.5,4352.08
23699.8,4352.36
23564,4352.36
23558.3,4352.08
23552.6,4351.25
23547.1,4349.86
23541.8,4347.94
23536.6,4345.51
23531.7,4342.58
23527.1,4339.18
23522.9,4335.35
23519.1,4331.13
23515.7,4326.55
23512.8,4321.67
23510.3,4316.51
23508.4,4311.15
23507,4305.62
23506.2,4299.98
23505.9,4294.29
23505.9,4178.15
23506.2,4172.46
23507,4166.82
23508.4,4161.29
23510.3,4155.93
23512.8,4150.78
23515.7,4145.89
23519.1,4141.31
23522.9,4137.09
23527.1,4133.26
23531.7,4129.87
23536.6,4126.94
23541.8,4124.5
23547.1,4122.58
23552.6,4121.19
23558.3,4120.36
23564,4120.08
23699.8,4120.08
Z" /> 
<path style="fill:#000000; fill-opacity:1.0; 
stroke:#000000; stroke-width:0; stroke-opacity:1; 
stroke-linecap:round; stroke-linejoin:round;fill-rule:evenodd;"
d="M 23705.5,3738.47
23711.1,3739.31
23716.7,3740.69
23722,3742.61
23727.2,3745.05
23732.1,3747.98
23736.6,3751.37
23740.9,3755.2
23744.7,3759.42
23748.1,3764
23751,3768.89
23753.5,3774.04
23755.4,3779.4
23756.8,3784.93
23757.6,3790.57
23757.9,3796.26
23757.9,3912.4
23757.6,3918.09
23756.8,3923.73
23755.4,3929.26
23753.5,3934.62
23751,3939.78
23748.1,3944.66
23744.7,3949.24
23740.9,3953.46
23736.6,3957.29
23732.1,3960.69
23727.2,3963.62
23722,3966.05
23716.7,3967.97
23711.1,3969.36
23705.5,3970.19
23699.8,3970.47
23564,3970.47
23558.3,3970.19
23552.6,3969.36
23547.1,3967.97
23541.8,3966.05
23536.6,3963.62
23531.7,3960.69
23527.1,3957.29
23522.9,3953.46
23519.1,3949.24
23515.7,3944.66
23512.8,3939.78
23510.3,3934.62
23508.4,3929.26
23507,3923.73
23506.2,3918.09
23505.9,3912.4
23505.9,3796.26
23506.2,3790.57
23507,3784.93
23508.4,3779.4
23510.3,3774.04
23512.8,3768.89
23515.7,3764
23519.1,3759.42
23522.9,3755.2
23527.1,3751.37
23531.7,3747.98
23536.6,3745.05
23541.8,3742.61
23547.1,3740.69
23552.6,3739.31
23558.3,3738.47
23564,3738.19
23699.8,3738.19
Z" /> 
</g>
<g >
</g>
<g style="fill:#000000; fill-opacity:1.0; 
stroke:#000000; stroke-width:0; stroke-opacity:1; 
stroke-linecap:round; stroke-linejoin:round;">
<path style="fill:#000000; fill-opacity:1.0; 
stroke:#000000; stroke-width:0; stroke-opacity:1; 
stroke-linecap:round; stroke-linejoin:round;fill-rule:evenodd;"
d="M 17996.8,6679.41
18002.5,6680.25
18008,6681.63
18013.4,6683.55
18018.5,6685.99
18023.4,6688.92
18028,6692.32
18032.2,6696.14
18036,6700.37
18039.4,6704.94
18042.4,6709.83
18044.8,6714.98
18046.7,6720.35
18048.1,6725.88
18048.9,6731.51
18049.2,6737.21
18049.2,6853.35
18048.9,6859.04
18048.1,6864.68
18046.7,6870.2
18044.8,6875.57
18042.4,6880.72
18039.4,6885.61
18036,6890.19
18032.2,6894.41
18028,6898.24
18023.4,6901.63
18018.5,6904.56
18013.4,6907
18008,6908.92
18002.5,6910.3
17996.8,6911.14
17991.1,6911.42
17855.3,6911.42
17849.6,6911.14
17844,6910.3
17838.5,6908.92
17833.1,6907
17827.9,6904.56
17823.1,6901.63
17818.5,6898.24
17814.3,6894.41
17810.4,6890.19
17807,6885.61
17804.1,6880.72
17801.7,6875.57
17799.7,6870.2
17798.4,6864.68
17797.5,6859.04
17797.2,6853.35
17797.2,6737.21
17797.5,6731.51
17798.4,6725.88
17799.7,6720.35
17801.7,6714.98
17804.1,6709.83
17807,6704.94
17810.4,6700.37
17814.3,6696.14
17818.5,6692.32
17823.1,6688.92
17827.9,6685.99
17833.1,6683.55
17838.5,6681.63
17844,6680.25
17849.6,6679.41
17855.3,6679.13
17991.1,6679.13
Z" /> 
<path style="fill:#000000; fill-opacity:1.0; 
stroke:#000000; stroke-width:0; stroke-opacity:1; 
stroke-linecap:round; stroke-linejoin:round;fill-rule:evenodd;"
d="M 17996.8,6297.52
18002.5,6298.36
18008,6299.74
18013.4,6301.66
18018.5,6304.1
18023.4,6307.03
18028,6310.43
18032.2,6314.25
18036,6318.48
18039.4,6323.05
18042.4,6327.94
18044.8,6333.09
18046.7,6338.46
18048.1,6343.99
18048.9,6349.62
18049.2,6355.32
18049.2,6471.46
18048.9,6477.15
18048.1,6482.79
18046.7,6488.31
18044.8,6493.68
18042.4,6498.83
18039.4,6503.72
18036,6508.3
18032.2,6512.52
18028,6516.35
18023.4,6519.74
18018.5,6522.67
18013.4,6525.11
18008,6527.03
18002.5,6528.41
17996.8,6529.25
17991.1,6529.53
17855.3,6529.53
17849.6,6529.25
17844,6528.41
17838.5,6527.03
17833.1,6525.11
17827.9,6522.67
17823.1,6519.74
17818.5,6516.35
17814.3,6512.52
17810.4,6508.3
17807,6503.72
17804.1,6498.83
17801.7,6493.68
17799.7,6488.31
17798.4,6482.79
17797.5,6477.15
17797.2,6471.46
17797.2,6355.32
17797.5,6349.62
17798.4,6343.99
17799.7,6338.46
17801.7,6333.09
17804.1,6327.94
17807,6323.05
17810.4,6318.48
17814.3,6314.25
17818.5,6310.43
17823.1,6307.03
17827.9,6304.1
17833.1,6301.66
17838.5,6299.74
17844,6298.36
17849.6,6297.52
17855.3,6297.24
17991.1,6297.24
Z" /> 
</g>
<g >
</g>
<g style="fill:#000000; fill-opacity:1.0; 
stroke:#000000; stroke-width:0; stroke-opacity:1; 
stroke-linecap:round; stroke-linejoin:round;">
<path style="fill:#000000; fill-opacity:1.0; 
stroke:#000000; stroke-width:0; stroke-opacity:1; 
stroke-linecap:round; stroke-linejoin:round;fill-rule:evenodd;"
d="M 18882.7,6297.52
18888.3,6298.36
18893.8,6299.74
18899.2,6301.66
18904.3,6304.1
18909.2,6307.03
18913.8,6310.43
18918,6314.25
18921.9,6318.48
18925.3,6323.05
18928.2,6327.94
18930.6,6333.09
18932.5,6338.46
18933.9,6343.99
18934.8,6349.62
18935,6355.32
18935,6471.46
18934.8,6477.15
18933.9,6482.79
18932.5,6488.31
18930.6,6493.68
18928.2,6498.83
18925.3,6503.72
18921.9,6508.3
18918,6512.52
18913.8,6516.35
18909.2,6519.74
18904.3,6522.67
18899.2,6525.11
18893.8,6527.03
18888.3,6528.41
18882.7,6529.25
18877,6529.53
18741.1,6529.53
18735.5,6529.25
18729.8,6528.41
18724.3,6527.03
18718.9,6525.11
18713.8,6522.67
18708.9,6519.74
18704.3,6516.35
18700.1,6512.52
18696.3,6508.3
18692.9,6503.72
18689.9,6498.83
18687.5,6493.68
18685.6,6488.31
18684.2,6482.79
18683.4,6477.15
18683.1,6471.46
18683.1,6355.32
18683.4,6349.62
18684.2,6343.99
18685.6,6338.46
18687.5,6333.09
18689.9,6327.94
18692.9,6323.05
18696.3,6318.48
18700.1,6314.25
18704.3,6310.43
18708.9,6307.03
18713.8,6304.1
18718.9,6301.66
18724.3,6299.74
18729.8,6298.36
18735.5,6297.52
18741.1,6297.24
18877,6297.24
Z" /> 
<path style="fill:#000000; fill-opacity:1.0; 
stroke:#000000; stroke-width:0; stroke-opacity:1; 
stroke-linecap:round; stroke-linejoin:round;fill-rule:evenodd;"
d="M 18882.7,6679.41
18888.3,6680.25
18893.8,6681.63
18899.2,6683.55
18904.3,6685.99
18909.2,6688.92
18913.8,6692.32
18918,6696.14
18921.9,6700.37
18925.3,6704.94
18928.2,6709.83
18930.6,6714.98
18932.5,6720.35
18933.9,6725.88
18934.8,6731.51
18935,6737.21
18935,6853.35
18934.8,6859.04
18933.9,6864.68
18932.5,6870.2
18930.6,6875.57
18928.2,6880.72
18925.3,6885.61
18921.9,6890.19
18918,6894.41
18913.8,6898.24
18909.2,6901.63
18904.3,6904.56
18899.2,6907
18893.8,6908.92
18888.3,6910.3
18882.7,6911.14
18877,6911.42
18741.1,6911.42
18735.5,6911.14
18729.8,6910.3
18724.3,6908.92
18718.9,6907
18713.8,6904.56
18708.9,6901.63
18704.3,6898.24
18700.1,6894.41
18696.3,6890.19
18692.9,6885.61
18689.9,6880.72
18687.5,6875.57
18685.6,6870.2
18684.2,6864.68
18683.4,6859.04
18683.1,6853.35
18683.1,6737.21
18683.4,6731.51
18684.2,6725.88
18685.6,6720.35
18687.5,6714.98
18689.9,6709.83
18692.9,6704.94
18696.3,6700.37
18700.1,6696.14
18704.3,6692.32
18708.9,6688.92
18713.8,6685.99
18718.9,6683.55
18724.3,6681.63
18729.8,6680.25
18735.5,6679.41
18741.1,6679.13
18877,6679.13
Z" /> 
</g>
<g >
</g>
<g style="fill:#000000; fill-opacity:1.0; 
stroke:#000000; stroke-width:0; stroke-opacity:1; 
stroke-linecap:round; stroke-linejoin:round;">
<path style="fill:#000000; fill-opacity:1.0; 
stroke:#000000; stroke-width:0; stroke-opacity:1; 
stroke-linecap:round; stroke-linejoin:round;fill-rule:evenodd;"
d="M 18485,5888.08
18490.7,5888.91
18496.2,5890.3
18501.6,5892.22
18506.7,5894.65
18511.6,5897.58
18516.2,5900.98
18520.4,5904.8
18524.2,5909.03
18527.6,5913.6
18530.5,5918.49
18533,5923.64
18534.9,5929.01
18536.3,5934.54
18537.1,5940.17
18537.4,5945.87
18537.4,6081.69
18537.1,6087.39
18536.3,6093.02
18534.9,6098.55
18533,6103.92
18530.5,6109.07
18527.6,6113.96
18524.2,6118.53
18520.4,6122.76
18516.2,6126.58
18511.6,6129.98
18506.7,6132.91
18501.6,6135.34
18496.2,6137.26
18490.7,6138.65
18485,6139.48
18479.3,6139.76
18363.2,6139.76
18357.5,6139.48
18351.9,6138.65
18346.3,6137.26
18341,6135.34
18335.8,6132.91
18330.9,6129.98
18326.3,6126.58
18322.1,6122.76
18318.3,6118.53
18314.9,6113.96
18312,6109.07
18309.5,6103.92
18307.6,6098.55
18306.2,6093.02
18305.4,6087.39
18305.1,6081.69
18305.1,5945.87
18305.4,5940.17
18306.2,5934.54
18307.6,5929.01
18309.5,5923.64
18312,5918.49
18314.9,5913.6
18318.3,5909.03
18322.1,5904.8
18326.3,5900.98
18330.9,5897.58
18335.8,5894.65
18341,5892.22
18346.3,5890.3
18351.9,5888.91
18357.5,5888.08
18363.2,5887.8
18479.3,5887.8
Z" /> 
<path style="fill:#000000; fill-opacity:1.0; 
stroke:#000000; stroke-width:0; stroke-opacity:1; 
stroke-linecap:round; stroke-linejoin:round;fill-rule:evenodd;"
d="M 18866.9,5888.08
18872.5,5888.91
18878.1,5890.3
18883.4,5892.22
18888.6,5894.65
18893.5,5897.58
18898.1,5900.98
18902.3,5904.8
18906.1,5909.03
18909.5,5913.6
18912.4,5918.49
18914.9,5923.64
18916.8,5929.01
18918.2,5934.54
18919,5940.17
18919.3,5945.87
18919.3,6081.69
18919,6087.39
18918.2,6093.02
18916.8,6098.55
18914.9,6103.92
18912.4,6109.07
18909.5,6113.96
18906.1,6118.53
18902.3,6122.76
18898.1,6126.58
18893.5,6129.98
18888.6,6132.91
18883.4,6135.34
18878.1,6137.26
18872.5,6138.65
18866.9,6139.48
18861.2,6139.76
18745.1,6139.76
18739.4,6139.48
18733.8,6138.65
18728.2,6137.26
18722.9,6135.34
18717.7,6132.91
18712.8,6129.98
18708.2,6126.58
18704,6122.76
18700.2,6118.53
18696.8,6113.96
18693.9,6109.07
18691.4,6103.92
18689.5,6098.55
18688.1,6093.02
18687.3,6087.39
18687,6081.69
18687,5945.87
18687.3,5940.17
18688.1,5934.54
18689.5,5929.01
18691.4,5923.64
18693.9,5918.49
18696.8,5913.6
18700.2,5909.03
18704,5904.8
18708.2,5900.98
18712.8,5897.58
18717.7,5894.65
18722.9,5892.22
18728.2,5890.3
18733.8,5888.91
18739.4,5888.08
18745.1,5887.8
18861.2,5887.8
Z" /> 
</g>
<g >
</g>
<g style="fill:#000000; fill-opacity:1.0; 
stroke:#000000; stroke-width:0; stroke-opacity:1; 
stroke-linecap:round; stroke-linejoin:round;">
<path style="fill:#000000; fill-opacity:1.0; 
stroke:#000000; stroke-width:0; stroke-opacity:1; 
stroke-linecap:round; stroke-linejoin:round;fill-rule:evenodd;"
d="M 18866.9,7364.45
18872.5,7365.29
18878.1,7366.67
18883.4,7368.59
18888.6,7371.03
18893.5,7373.96
18898.1,7377.36
18902.3,7381.18
18906.1,7385.4
18909.5,7389.98
18912.4,7394.87
18914.9,7400.02
18916.8,7405.39
18918.2,7410.92
18919,7416.55
18919.3,7422.24
18919.3,7558.07
18919,7563.76
18918.2,7569.4
18916.8,7574.93
18914.9,7580.29
18912.4,7585.45
18909.5,7590.33
18906.1,7594.91
18902.3,7599.13
18898.1,7602.96
18893.5,7606.36
18888.6,7609.29
18883.4,7611.72
18878.1,7613.64
18872.5,7615.03
18866.9,7615.86
18861.2,7616.14
18745.1,7616.14
18739.4,7615.86
18733.8,7615.03
18728.2,7613.64
18722.9,7611.72
18717.7,7609.29
18712.8,7606.36
18708.2,7602.96
18704,7599.13
18700.2,7594.91
18696.8,7590.33
18693.9,7585.45
18691.4,7580.29
18689.5,7574.93
18688.1,7569.4
18687.3,7563.76
18687,7558.07
18687,7422.24
18687.3,7416.55
18688.1,7410.92
18689.5,7405.39
18691.4,7400.02
18693.9,7394.87
18696.8,7389.98
18700.2,7385.4
18704,7381.18
18708.2,7377.36
18712.8,7373.96
18717.7,7371.03
18722.9,7368.59
18728.2,7366.67
18733.8,7365.29
18739.4,7364.45
18745.1,7364.17
18861.2,7364.17
Z" /> 
<path style="fill:#000000; fill-opacity:1.0; 
stroke:#000000; stroke-width:0; stroke-opacity:1; 
stroke-linecap:round; stroke-linejoin:round;fill-rule:evenodd;"
d="M 18485,7364.45
18490.7,7365.29
18496.2,7366.67
18501.6,7368.59
18506.7,7371.03
18511.6,7373.96
18516.2,7377.36
18520.4,7381.18
18524.2,7385.4
18527.6,7389.98
18530.5,7394.87
18533,7400.02
18534.9,7405.39
18536.3,7410.92
18537.1,7416.55
18537.4,7422.24
18537.4,7558.07
18537.1,7563.76
18536.3,7569.4
18534.9,7574.93
18533,7580.29
18530.5,7585.45
18527.6,7590.33
18524.2,7594.91
18520.4,7599.13
18516.2,7602.96
18511.6,7606.36
18506.7,7609.29
18501.6,7611.72
18496.2,7613.64
18490.7,7615.03
18485,7615.86
18479.3,7616.14
18363.2,7616.14
18357.5,7615.86
18351.9,7615.03
18346.3,7613.64
18341,7611.72
18335.8,7609.29
18330.9,7606.36
18326.3,7602.96
18322.1,7599.13
18318.3,7594.91
18314.9,7590.33
18312,7585.45
18309.5,7580.29
18307.6,7574.93
18306.2,7569.4
18305.4,7563.76
18305.1,7558.07
18305.1,7422.24
18305.4,7416.55
18306.2,7410.92
18307.6,7405.39
18309.5,7400.02
18312,7394.87
18314.9,7389.98
18318.3,7385.4
18322.1,7381.18
18326.3,7377.36
18330.9,7373.96
18335.8,7371.03
18341,7368.59
18346.3,7366.67
18351.9,7365.29
18357.5,7364.45
18363.2,7364.17
18479.3,7364.17
Z" /> 
</g>
<g >
</g>
<g style="fill:#000000; fill-opacity:1.0; 
stroke:#000000; stroke-width:0; stroke-opacity:1; 
stroke-linecap:round; stroke-linejoin:round;">
<path style="fill:#000000; fill-opacity:1.0; 
stroke:#000000; stroke-width:0; stroke-opacity:1; 
stroke-linecap:round; stroke-linejoin:round;fill-rule:evenodd;"
d="M 17599.2,5888.08
17604.8,5888.91
17610.4,5890.3
17615.7,5892.22
17620.9,5894.65
17625.8,5897.58
17630.3,5900.98
17634.6,5904.8
17638.4,5909.03
17641.8,5913.6
17644.7,5918.49
17647.2,5923.64
17649.1,5929.01
17650.5,5934.54
17651.3,5940.17
17651.6,5945.87
17651.6,6081.69
17651.3,6087.39
17650.5,6093.02
17649.1,6098.55
17647.2,6103.92
17644.7,6109.07
17641.8,6113.96
17638.4,6118.53
17634.6,6122.76
17630.3,6126.58
17625.8,6129.98
17620.9,6132.91
17615.7,6135.34
17610.4,6137.26
17604.8,6138.65
17599.2,6139.48
17593.5,6139.76
17477.4,6139.76
17471.7,6139.48
17466,6138.65
17460.5,6137.26
17455.1,6135.34
17450,6132.91
17445.1,6129.98
17440.5,6126.58
17436.3,6122.76
17432.5,6118.53
17429.1,6113.96
17426.1,6109.07
17423.7,6103.92
17421.8,6098.55
17420.4,6093.02
17419.6,6087.39
17419.3,6081.69
17419.3,5945.87
17419.6,5940.17
17420.4,5934.54
17421.8,5929.01
17423.7,5923.64
17426.1,5918.49
17429.1,5913.6
17432.5,5909.03
17436.3,5904.8
17440.5,5900.98
17445.1,5897.58
17450,5894.65
17455.1,5892.22
17460.5,5890.3
17466,5888.91
17471.7,5888.08
17477.4,5887.8
17593.5,5887.8
Z" /> 
<path style="fill:#000000; fill-opacity:1.0; 
stroke:#000000; stroke-width:0; stroke-opacity:1; 
stroke-linecap:round; stroke-linejoin:round;fill-rule:evenodd;"
d="M 17981.1,5888.08
17986.7,5888.91
17992.3,5890.3
17997.6,5892.22
18002.8,5894.65
18007.7,5897.58
18012.2,5900.98
18016.5,5904.8
18020.3,5909.03
18023.7,5913.6
18026.6,5918.49
18029,5923.64
18031,5929.01
18032.3,5934.54
18033.2,5940.17
18033.5,5945.87
18033.5,6081.69
18033.2,6087.39
18032.3,6093.02
18031,6098.55
18029,6103.92
18026.6,6109.07
18023.7,6113.96
18020.3,6118.53
18016.5,6122.76
18012.2,6126.58
18007.7,6129.98
18002.8,6132.91
17997.6,6135.34
17992.3,6137.26
17986.7,6138.65
17981.1,6139.48
17975.4,6139.76
17859.3,6139.76
17853.6,6139.48
17847.9,6138.65
17842.4,6137.26
17837,6135.34
17831.9,6132.91
17827,6129.98
17822.4,6126.58
17818.2,6122.76
17814.4,6118.53
17811,6113.96
17808,6109.07
17805.6,6103.92
17803.7,6098.55
17802.3,6093.02
17801.5,6087.39
17801.2,6081.69
17801.2,5945.87
17801.5,5940.17
17802.3,5934.54
17803.7,5929.01
17805.6,5923.64
17808,5918.49
17811,5913.6
17814.4,5909.03
17818.2,5904.8
17822.4,5900.98
17827,5897.58
17831.9,5894.65
17837,5892.22
17842.4,5890.3
17847.9,5888.91
17853.6,5888.08
17859.3,5887.8
17975.4,5887.8
Z" /> 
</g>
<g >
</g>
<g style="fill:#000000; fill-opacity:1.0; 
stroke:#000000; stroke-width:0; stroke-opacity:1; 
stroke-linecap:round; stroke-linejoin:round;">
<path style="fill:#000000; fill-opacity:1.0; 
stroke:#000000; stroke-width:0; stroke-opacity:1; 
stroke-linecap:round; stroke-linejoin:round;fill-rule:evenodd;"
d="M 16024.4,5297.52
16030,5298.36
16035.6,5299.74
16040.9,5301.66
16046.1,5304.1
16051,5307.03
16055.5,5310.43
16059.8,5314.25
16063.6,5318.48
16067,5323.05
16069.9,5327.94
16072.4,5333.09
16074.3,5338.46
16075.7,5343.99
16076.5,5349.62
16076.8,5355.32
16076.8,5491.14
16076.5,5496.83
16075.7,5502.47
16074.3,5508
16072.4,5513.36
16069.9,5518.52
16067,5523.4
16063.6,5527.98
16059.8,5532.2
16055.5,5536.03
16051,5539.43
16046.1,5542.36
16040.9,5544.79
16035.6,5546.71
16030,5548.1
16024.4,5548.93
16018.7,5549.21
15902.6,5549.21
15896.9,5548.93
15891.2,5548.1
15885.7,5546.71
15880.3,5544.79
15875.2,5542.36
15870.3,5539.43
15865.7,5536.03
15861.5,5532.2
15857.7,5527.98
15854.3,5523.4
15851.3,5518.52
15848.9,5513.36
15847,5508
15845.6,5502.47
15844.8,5496.83
15844.5,5491.14
15844.5,5355.32
15844.8,5349.62
15845.6,5343.99
15847,5338.46
15848.9,5333.09
15851.3,5327.94
15854.3,5323.05
15857.7,5318.48
15861.5,5314.25
15865.7,5310.43
15870.3,5307.03
15875.2,5304.1
15880.3,5301.66
15885.7,5299.74
15891.2,5298.36
15896.9,5297.52
15902.6,5297.24
16018.7,5297.24
Z" /> 
<path style="fill:#000000; fill-opacity:1.0; 
stroke:#000000; stroke-width:0; stroke-opacity:1; 
stroke-linecap:round; stroke-linejoin:round;fill-rule:evenodd;"
d="M 16406.3,5297.52
16411.9,5298.36
16417.4,5299.74
16422.8,5301.66
16428,5304.1
16432.9,5307.03
16437.4,5310.43
16441.7,5314.25
16445.5,5318.48
16448.9,5323.05
16451.8,5327.94
16454.2,5333.09
16456.2,5338.46
16457.5,5343.99
16458.4,5349.62
16458.7,5355.32
16458.7,5491.14
16458.4,5496.83
16457.5,5502.47
16456.2,5508
16454.2,5513.36
16451.8,5518.52
16448.9,5523.4
16445.5,5527.98
16441.7,5532.2
16437.4,5536.03
16432.9,5539.43
16428,5542.36
16422.8,5544.79
16417.4,5546.71
16411.9,5548.1
16406.3,5548.93
16400.6,5549.21
16284.4,5549.21
16278.8,5548.93
16273.1,5548.1
16267.6,5546.71
16262.2,5544.79
16257.1,5542.36
16252.2,5539.43
16247.6,5536.03
16243.4,5532.2
16239.6,5527.98
16236.2,5523.4
16233.2,5518.52
16230.8,5513.36
16228.9,5508
16227.5,5502.47
16226.7,5496.83
16226.4,5491.14
16226.4,5355.32
16226.7,5349.62
16227.5,5343.99
16228.9,5338.46
16230.8,5333.09
16233.2,5327.94
16236.2,5323.05
16239.6,5318.48
16243.4,5314.25
16247.6,5310.43
16252.2,5307.03
16257.1,5304.1
16262.2,5301.66
16267.6,5299.74
16273.1,5298.36
16278.8,5297.52
16284.4,5297.24
16400.6,5297.24
Z" /> 
</g>
<g >
</g>
<g style="fill:#000000; fill-opacity:1.0; 
stroke:#000000; stroke-width:0; stroke-opacity:1; 
stroke-linecap:round; stroke-linejoin:round;">
<path style="fill:#000000; fill-opacity:1.0; 
stroke:#000000; stroke-width:0; stroke-opacity:1; 
stroke-linecap:round; stroke-linejoin:round;fill-rule:evenodd;"
d="M 12211.4,1321.15
12217,1321.98
12222.6,1323.37
12227.9,1325.29
12233.1,1327.72
12238,1330.65
12242.5,1334.05
12246.8,1337.88
12250.6,1342.1
12254,1346.67
12256.9,1351.56
12259.4,1356.71
12261.3,1362.08
12262.7,1367.61
12263.5,1373.25
12263.8,1378.94
12263.8,1514.76
12263.5,1520.46
12262.7,1526.09
12261.3,1531.62
12259.4,1536.99
12256.9,1542.14
12254,1547.03
12250.6,1551.6
12246.8,1555.83
12242.5,1559.65
12238,1563.05
12233.1,1565.98
12227.9,1568.41
12222.6,1570.33
12217,1571.72
12211.4,1572.56
12205.7,1572.84
12089.6,1572.84
12083.9,1572.56
12078.2,1571.72
12072.7,1570.33
12067.3,1568.41
12062.2,1565.98
12057.3,1563.05
12052.7,1559.65
12048.5,1555.83
12044.7,1551.6
12041.3,1547.03
12038.4,1542.14
12035.9,1536.99
12034,1531.62
12032.6,1526.09
12031.8,1520.46
12031.5,1514.76
12031.5,1378.94
12031.8,1373.25
12032.6,1367.61
12034,1362.08
12035.9,1356.71
12038.4,1351.56
12041.3,1346.67
12044.7,1342.1
12048.5,1337.88
12052.7,1334.05
12057.3,1330.65
12062.2,1327.72
12067.3,1325.29
12072.7,1323.37
12078.2,1321.98
12083.9,1321.15
12089.6,1320.87
12205.7,1320.87
Z" /> 
<path style="fill:#000000; fill-opacity:1.0; 
stroke:#000000; stroke-width:0; stroke-opacity:1; 
stroke-linecap:round; stroke-linejoin:round;fill-rule:evenodd;"
d="M 12593.3,1321.15
12598.9,1321.98
12604.5,1323.37
12609.8,1325.29
12615,1327.72
12619.9,1330.65
12624.4,1334.05
12628.7,1337.88
12632.5,1342.1
12635.9,1346.67
12638.8,1351.56
12641.2,1356.71
12643.2,1362.08
12644.6,1367.61
12645.4,1373.25
12645.7,1378.94
12645.7,1514.76
12645.4,1520.46
12644.6,1526.09
12643.2,1531.62
12641.2,1536.99
12638.8,1542.14
12635.9,1547.03
12632.5,1551.6
12628.7,1555.83
12624.4,1559.65
12619.9,1563.05
12615,1565.98
12609.8,1568.41
12604.5,1570.33
12598.9,1571.72
12593.3,1572.56
12587.6,1572.84
12471.5,1572.84
12465.8,1572.56
12460.1,1571.72
12454.6,1570.33
12449.2,1568.41
12444.1,1565.98
12439.2,1563.05
12434.6,1559.65
12430.4,1555.83
12426.6,1551.6
12423.2,1547.03
12420.2,1542.14
12417.8,1536.99
12415.9,1531.62
12414.5,1526.09
12413.7,1520.46
12413.4,1514.76
12413.4,1378.94
12413.7,1373.25
12414.5,1367.61
12415.9,1362.08
12417.8,1356.71
12420.2,1351.56
12423.2,1346.67
12426.6,1342.1
12430.4,1337.88
12434.6,1334.05
12439.2,1330.65
12444.1,1327.72
12449.2,1325.29
12454.6,1323.37
12460.1,1321.98
12465.8,1321.15
12471.5,1320.87
12587.6,1320.87
Z" /> 
</g>
<g >
</g>
<g style="fill:#000000; fill-opacity:1.0; 
stroke:#000000; stroke-width:0; stroke-opacity:1; 
stroke-linecap:round; stroke-linejoin:round;">
<path style="fill:#000000; fill-opacity:1.0; 
stroke:#000000; stroke-width:0; stroke-opacity:1; 
stroke-linecap:round; stroke-linejoin:round;fill-rule:evenodd;"
d="M 6579.51,10234.5
6585.15,10235.4
6590.68,10236.8
6596.04,10238.7
6601.19,10241.1
6606.08,10244
6610.66,10247.4
6614.88,10251.3
6618.71,10255.5
6622.1,10260.1
6625.03,10264.9
6627.47,10270.1
6629.39,10275.5
6630.77,10281
6631.61,10286.6
6631.89,10292.3
6631.89,10408.5
6631.61,10414.2
6630.77,10419.8
6629.39,10425.3
6627.47,10430.7
6625.03,10435.8
6622.1,10440.7
6618.71,10445.3
6614.88,10449.5
6610.66,10453.4
6606.08,10456.7
6601.19,10459.7
6596.04,10462.1
6590.68,10464
6585.15,10465.4
6579.51,10466.3
6573.82,10466.5
6437.99,10466.5
6432.3,10466.3
6426.66,10465.4
6421.14,10464
6415.77,10462.1
6410.62,10459.7
6405.73,10456.7
6401.15,10453.4
6396.93,10449.5
6393.1,10445.3
6389.71,10440.7
6386.78,10435.8
6384.34,10430.7
6382.42,10425.3
6381.04,10419.8
6380.2,10414.2
6379.92,10408.5
6379.92,10292.3
6380.2,10286.6
6381.04,10281
6382.42,10275.5
6384.34,10270.1
6386.78,10264.9
6389.71,10260.1
6393.1,10255.5
6396.93,10251.3
6401.15,10247.4
6405.73,10244
6410.62,10241.1
6415.77,10238.7
6421.14,10236.8
6426.66,10235.4
6432.3,10234.5
6437.99,10234.3
6573.82,10234.3
Z" /> 
<path style="fill:#000000; fill-opacity:1.0; 
stroke:#000000; stroke-width:0; stroke-opacity:1; 
stroke-linecap:round; stroke-linejoin:round;fill-rule:evenodd;"
d="M 6579.51,10616.4
6585.15,10617.3
6590.68,10618.6
6596.04,10620.6
6601.19,10623
6606.08,10625.9
6610.66,10629.3
6614.88,10633.2
6618.71,10637.4
6622.1,10642
6625.03,10646.8
6627.47,10652
6629.39,10657.4
6630.77,10662.9
6631.61,10668.5
6631.89,10674.2
6631.89,10790.4
6631.61,10796
6630.77,10801.7
6629.39,10807.2
6627.47,10812.6
6625.03,10817.7
6622.1,10822.6
6618.71,10827.2
6614.88,10831.4
6610.66,10835.2
6606.08,10838.6
6601.19,10841.6
6596.04,10844
6590.68,10845.9
6585.15,10847.3
6579.51,10848.1
6573.82,10848.4
6437.99,10848.4
6432.3,10848.1
6426.66,10847.3
6421.14,10845.9
6415.77,10844
6410.62,10841.6
6405.73,10838.6
6401.15,10835.2
6396.93,10831.4
6393.1,10827.2
6389.71,10822.6
6386.78,10817.7
6384.34,10812.6
6382.42,10807.2
6381.04,10801.7
6380.2,10796
6379.92,10790.4
6379.92,10674.2
6380.2,10668.5
6381.04,10662.9
6382.42,10657.4
6384.34,10652
6386.78,10646.8
6389.71,10642
6393.1,10637.4
6396.93,10633.2
6401.15,10629.3
6405.73,10625.9
6410.62,10623
6415.77,10620.6
6421.14,10618.6
6426.66,10617.3
6432.3,10616.4
6437.99,10616.1
6573.82,10616.1
Z" /> 
</g>
<g >
</g>
<g style="fill:#000000; fill-opacity:1.0; 
stroke:#000000; stroke-width:0; stroke-opacity:1; 
stroke-linecap:round; stroke-linejoin:round;">
<path style="fill:#000000; fill-opacity:1.0; 
stroke:#000000; stroke-width:0; stroke-opacity:1; 
stroke-linecap:round; stroke-linejoin:round;fill-rule:evenodd;"
d="M 19065,4812.99
18750,4812.99
18750,4458.66
19065,4458.66
Z" /> 
<path style="fill:#000000; fill-opacity:1.0; 
stroke:#000000; stroke-width:0; stroke-opacity:1; 
stroke-linecap:round; stroke-linejoin:round;fill-rule:evenodd;"
d="M 19439,5600.39
19124,5600.39
19124,5246.06
19439,5246.06
Z" /> 
<path style="fill:#000000; fill-opacity:1.0; 
stroke:#000000; stroke-width:0; stroke-opacity:1; 
stroke-linecap:round; stroke-linejoin:round;fill-rule:evenodd;"
d="M 18690.9,5600.39
18376,5600.39
18376,5246.06
18690.9,5246.06
Z" /> 
</g>
<g >
</g>
<g style="fill:#000000; fill-opacity:1.0; 
stroke:#000000; stroke-width:0; stroke-opacity:1; 
stroke-linecap:round; stroke-linejoin:round;">
<path style="fill:#000000; fill-opacity:1.0; 
stroke:#000000; stroke-width:0; stroke-opacity:1; 
stroke-linecap:round; stroke-linejoin:round;fill-rule:evenodd;"
d="M 17588.6,4812.99
17273.6,4812.99
17273.6,4458.66
17588.6,4458.66
Z" /> 
<path style="fill:#000000; fill-opacity:1.0; 
stroke:#000000; stroke-width:0; stroke-opacity:1; 
stroke-linecap:round; stroke-linejoin:round;fill-rule:evenodd;"
d="M 17962.6,5600.39
17647.6,5600.39
17647.6,5246.06
17962.6,5246.06
Z" /> 
<path style="fill:#000000; fill-opacity:1.0; 
stroke:#000000; stroke-width:0; stroke-opacity:1; 
stroke-linecap:round; stroke-linejoin:round;fill-rule:evenodd;"
d="M 17214.6,5600.39
16899.6,5600.39
16899.6,5246.06
17214.6,5246.06
Z" /> 
</g>
<g >
</g>
<g >
</g>
<g >
</g>
<g >
</g>
<g style="fill:#000000; fill-opacity:1.0; 
stroke:#000000; stroke-width:0; stroke-opacity:1; 
stroke-linecap:round; stroke-linejoin:round;">
<path style="fill:#000000; fill-opacity:1.0; 
stroke:#000000; stroke-width:0; stroke-opacity:1; 
stroke-linecap:round; stroke-linejoin:round;fill-rule:evenodd;"
d="M 22096.5,10218.5
22096.5,9647.64
22214.6,9647.64
22214.6,10218.5
Z" /> 
<path style="fill:#000000; fill-opacity:1.0; 
stroke:#000000; stroke-width:0; stroke-opacity:1; 
stroke-linecap:round; stroke-linejoin:round;fill-rule:evenodd;"
d="M 22883.9,10218.5
22883.9,9647.64
23002,9647.64
23002,10218.5
Z" /> 
<path style="fill:#000000; fill-opacity:1.0; 
stroke:#000000; stroke-width:0; stroke-opacity:1; 
stroke-linecap:round; stroke-linejoin:round;fill-rule:evenodd;"
d="M 22687,10218.5
22687,9647.64
22805.1,9647.64
22805.1,10218.5
Z" /> 
<path style="fill:#000000; fill-opacity:1.0; 
stroke:#000000; stroke-width:0; stroke-opacity:1; 
stroke-linecap:round; stroke-linejoin:round;fill-rule:evenodd;"
d="M 22490.2,10218.5
22490.2,9647.64
22608.3,9647.64
22608.3,10218.5
Z" /> 
<path style="fill:#000000; fill-opacity:1.0; 
stroke:#000000; stroke-width:0; stroke-opacity:1; 
stroke-linecap:round; stroke-linejoin:round;fill-rule:evenodd;"
d="M 22293.3,10218.5
22293.3,9647.64
22411.4,9647.64
22411.4,10218.5
Z" /> 
<path style="fill:#000000; fill-opacity:1.0; 
stroke:#000000; stroke-width:0; stroke-opacity:1; 
stroke-linecap:round; stroke-linejoin:round;fill-rule:evenodd;"
d="M 21899.6,10218.5
21899.6,9647.64
22017.7,9647.64
22017.7,10218.5
Z" /> 
<path style="fill:#000000; fill-opacity:1.0; 
stroke:#000000; stroke-width:0; stroke-opacity:1; 
stroke-linecap:round; stroke-linejoin:round;fill-rule:evenodd;"
d="M 21702.8,10218.5
21702.8,9647.64
21820.9,9647.64
21820.9,10218.5
Z" /> 
<path style="fill:#000000; fill-opacity:1.0; 
stroke:#000000; stroke-width:0; stroke-opacity:1; 
stroke-linecap:round; stroke-linejoin:round;fill-rule:evenodd;"
d="M 21505.9,10218.5
21505.9,9647.64
21624,9647.64
21624,10218.5
Z" /> 
<path style="fill:#000000; fill-opacity:1.0; 
stroke:#000000; stroke-width:0; stroke-opacity:1; 
stroke-linecap:round; stroke-linejoin:round;fill-rule:evenodd;"
d="M 23415.4,10218.5
23415.4,9647.64
23651.6,9647.64
23651.6,10218.5
Z" /> 
<path style="fill:#000000; fill-opacity:1.0; 
stroke:#000000; stroke-width:0; stroke-opacity:1; 
stroke-linecap:round; stroke-linejoin:round;fill-rule:evenodd;"
d="M 23100.4,10218.5
23100.4,9647.64
23336.6,9647.64
23336.6,10218.5
Z" /> 
<path style="fill:#000000; fill-opacity:1.0; 
stroke:#000000; stroke-width:0; stroke-opacity:1; 
stroke-linecap:round; stroke-linejoin:round;fill-rule:evenodd;"
d="M 21171.3,10218.5
21171.3,9647.64
21407.5,9647.64
21407.5,10218.5
Z" /> 
<path style="fill:#000000; fill-opacity:1.0; 
stroke:#000000; stroke-width:0; stroke-opacity:1; 
stroke-linecap:round; stroke-linejoin:round;fill-rule:evenodd;"
d="M 20856.3,10218.5
20856.3,9647.64
21092.5,9647.64
21092.5,10218.5
Z" /> 
<path style="fill:#000000; fill-opacity:1.0; 
stroke:#000000; stroke-width:0; stroke-opacity:1; 
stroke-linecap:round; stroke-linejoin:round;fill-rule:evenodd;"
d="M 20856.3,10218.5
20856.3,9647.64
21092.5,9647.64
21092.5,10218.5
Z" /> 
<path style="fill:#000000; fill-opacity:1.0; 
stroke:#000000; stroke-width:0; stroke-opacity:1; 
stroke-linecap:round; stroke-linejoin:round;fill-rule:evenodd;"
d="M 21171.3,10218.5
21171.3,9647.64
21407.5,9647.64
21407.5,10218.5
Z" /> 
<path style="fill:#000000; fill-opacity:1.0; 
stroke:#000000; stroke-width:0; stroke-opacity:1; 
stroke-linecap:round; stroke-linejoin:round;fill-rule:evenodd;"
d="M 23100.4,10218.5
23100.4,9647.64
23336.6,9647.64
23336.6,10218.5
Z" /> 
<path style="fill:#000000; fill-opacity:1.0; 
stroke:#000000; stroke-width:0; stroke-opacity:1; 
stroke-linecap:round; stroke-linejoin:round;fill-rule:evenodd;"
d="M 23415.4,10218.5
23415.4,9647.64
23651.6,9647.64
23651.6,10218.5
Z" /> 
</g>
<g >
</g>
<g >
</g>
<g style="fill:#000000; fill-opacity:1.0; 
stroke:#000000; stroke-width:0; stroke-opacity:1; 
stroke-linecap:round; stroke-linejoin:round;">
<path style="fill:#000000; fill-opacity:1.0; 
stroke:#000000; stroke-width:0; stroke-opacity:1; 
stroke-linecap:round; stroke-linejoin:round;fill-rule:evenodd;"
d="M 25217.6,1299.63
25226,1300.87
25234.2,1302.92
25242.1,1305.77
25249.8,1309.38
25257,1313.73
25263.8,1318.76
25270.1,1324.44
25275.7,1330.7
25280.8,1337.49
25285.1,1344.74
25288.7,1352.38
25291.6,1360.34
25293.6,1368.53
25294.9,1376.89
25295.3,1385.34
25295.3,1587.11
25294.9,1595.55
25293.6,1603.91
25291.6,1612.11
25288.7,1620.06
25285.1,1627.7
25280.8,1634.95
25275.7,1641.74
25270.1,1648
25263.8,1653.68
25257,1658.71
25249.8,1663.06
25242.1,1666.67
25234.2,1669.52
25226,1671.57
25217.6,1672.81
25209.2,1673.23
25036.9,1673.23
25028.5,1672.81
25020.1,1671.57
25011.9,1669.52
25004,1666.67
24996.3,1663.06
24989.1,1658.71
24982.3,1653.68
24976,1648
24970.3,1641.74
24965.3,1634.95
24961,1627.7
24957.3,1620.06
24954.5,1612.11
24952.4,1603.91
24951.2,1595.55
24950.8,1587.11
24950.8,1385.34
24951.2,1376.89
24952.4,1368.53
24954.5,1360.34
24957.3,1352.38
24961,1344.74
24965.3,1337.49
24970.3,1330.7
24976,1324.44
24982.3,1318.76
24989.1,1313.73
24996.3,1309.38
25004,1305.77
25011.9,1302.92
25020.1,1300.87
25028.5,1299.63
25036.9,1299.21
25209.2,1299.21
Z" /> 
<path style="fill:#000000; fill-opacity:1.0; 
stroke:#000000; stroke-width:0; stroke-opacity:1; 
stroke-linecap:round; stroke-linejoin:round;fill-rule:evenodd;"
d="M 24597.5,1299.63
24605.9,1300.87
24614.1,1302.92
24622,1305.77
24629.7,1309.38
24636.9,1313.73
24643.7,1318.76
24650,1324.44
24655.6,1330.7
24660.7,1337.49
24665,1344.74
24668.6,1352.38
24671.5,1360.34
24673.5,1368.53
24674.8,1376.89
24675.2,1385.34
24675.2,1587.11
24674.8,1595.55
24673.5,1603.91
24671.5,1612.11
24668.6,1620.06
24665,1627.7
24660.7,1634.95
24655.6,1641.74
24650,1648
24643.7,1653.68
24636.9,1658.71
24629.7,1663.06
24622,1666.67
24614.1,1669.52
24605.9,1671.57
24597.5,1672.81
24589.1,1673.23
24416.8,1673.23
24408.4,1672.81
24400,1671.57
24391.8,1669.52
24383.9,1666.67
24376.2,1663.06
24369,1658.71
24362.2,1653.68
24355.9,1648
24350.3,1641.74
24345.2,1634.95
24340.9,1627.7
24337.3,1620.06
24334.4,1612.11
24332.4,1603.91
24331.1,1595.55
24330.7,1587.11
24330.7,1385.34
24331.1,1376.89
24332.4,1368.53
24334.4,1360.34
24337.3,1352.38
24340.9,1344.74
24345.2,1337.49
24350.3,1330.7
24355.9,1324.44
24362.2,1318.76
24369,1313.73
24376.2,1309.38
24383.9,1305.77
24391.8,1302.92
24400,1300.87
24408.4,1299.63
24416.8,1299.21
24589.1,1299.21
Z" /> 
</g>
<g >
</g>
<g style="fill:#000000; fill-opacity:1.0; 
stroke:#000000; stroke-width:0; stroke-opacity:1; 
stroke-linecap:round; stroke-linejoin:round;">
<path style="fill:#000000; fill-opacity:1.0; 
stroke:#000000; stroke-width:0; stroke-opacity:1; 
stroke-linecap:round; stroke-linejoin:round;fill-rule:evenodd;"
d="M 16053.1,5925.2
16053.1,6102.36
15816.9,6102.36
15816.9,5925.2
Z" /> 
<path style="fill:#000000; fill-opacity:1.0; 
stroke:#000000; stroke-width:0; stroke-opacity:1; 
stroke-linecap:round; stroke-linejoin:round;fill-rule:evenodd;"
d="M 16879.9,5925.2
16879.9,6102.36
16643.7,6102.36
16643.7,5925.2
Z" /> 
</g>
<g >
</g>
<g style="fill:#000000; fill-opacity:1.0; 
stroke:#000000; stroke-width:0; stroke-opacity:1; 
stroke-linecap:round; stroke-linejoin:round;">
<path style="fill:#000000; fill-opacity:1.0; 
stroke:#000000; stroke-width:0; stroke-opacity:1; 
stroke-linecap:round; stroke-linejoin:round;fill-rule:evenodd;"
d="M 13162.5,1281.91
13170.8,1283.15
13179,1285.2
13187,1288.05
13194.6,1291.67
13201.9,1296.01
13208.7,1301.04
13214.9,1306.72
13220.6,1312.98
13225.6,1319.77
13230,1327.02
13233.6,1334.66
13236.4,1342.62
13238.5,1350.82
13239.7,1359.18
13240.2,1367.62
13240.2,1569.39
13239.7,1577.83
13238.5,1586.19
13236.4,1594.39
13233.6,1602.35
13230,1609.99
13225.6,1617.24
13220.6,1624.03
13214.9,1630.29
13208.7,1635.96
13201.9,1641
13194.6,1645.34
13187,1648.96
13179,1651.8
13170.8,1653.86
13162.5,1655.1
13154,1655.51
12981.8,1655.51
12973.4,1655.1
12965,1653.86
12956.8,1651.8
12948.8,1648.96
12941.2,1645.34
12933.9,1641
12927.2,1635.96
12920.9,1630.29
12915.2,1624.03
12910.2,1617.24
12905.8,1609.99
12902.2,1602.35
12899.4,1594.39
12897.3,1586.19
12896.1,1577.83
12895.7,1569.39
12895.7,1367.62
12896.1,1359.18
12897.3,1350.82
12899.4,1342.62
12902.2,1334.66
12905.8,1327.02
12910.2,1319.77
12915.2,1312.98
12920.9,1306.72
12927.2,1301.04
12933.9,1296.01
12941.2,1291.67
12948.8,1288.05
12956.8,1285.2
12965,1283.15
12973.4,1281.91
12981.8,1281.5
13154,1281.5
Z" /> 
<path style="fill:#000000; fill-opacity:1.0; 
stroke:#000000; stroke-width:0; stroke-opacity:1; 
stroke-linecap:round; stroke-linejoin:round;fill-rule:evenodd;"
d="M 13782.6,1281.91
13790.9,1283.15
13799.1,1285.2
13807.1,1288.05
13814.7,1291.67
13822,1296.01
13828.7,1301.04
13835,1306.72
13840.7,1312.98
13845.7,1319.77
13850.1,1327.02
13853.7,1334.66
13856.5,1342.62
13858.6,1350.82
13859.8,1359.18
13860.2,1367.62
13860.2,1569.39
13859.8,1577.83
13858.6,1586.19
13856.5,1594.39
13853.7,1602.35
13850.1,1609.99
13845.7,1617.24
13840.7,1624.03
13835,1630.29
13828.7,1635.96
13822,1641
13814.7,1645.34
13807.1,1648.96
13799.1,1651.8
13790.9,1653.86
13782.6,1655.1
13774.1,1655.51
13601.9,1655.51
13593.4,1655.1
13585.1,1653.86
13576.9,1651.8
13568.9,1648.96
13561.3,1645.34
13554,1641
13547.2,1635.96
13541,1630.29
13535.3,1624.03
13530.3,1617.24
13525.9,1609.99
13522.3,1602.35
13519.5,1594.39
13517.4,1586.19
13516.2,1577.83
13515.7,1569.39
13515.7,1367.62
13516.2,1359.18
13517.4,1350.82
13519.5,1342.62
13522.3,1334.66
13525.9,1327.02
13530.3,1319.77
13535.3,1312.98
13541,1306.72
13547.2,1301.04
13554,1296.01
13561.3,1291.67
13568.9,1288.05
13576.9,1285.2
13585.1,1283.15
13593.4,1281.91
13601.9,1281.5
13774.1,1281.5
Z" /> 
</g>
<g >
</g>
<g >
</g>
<g >
</g>
<g >
</g>
<g >
</g>
<g style="fill:#000000; fill-opacity:1.0; 
stroke:#000000; stroke-width:0; stroke-opacity:1; 
stroke-linecap:round; stroke-linejoin:round;">
<path style="fill:#000000; fill-opacity:1.0; 
stroke:#000000; stroke-width:0; stroke-opacity:1; 
stroke-linecap:round; stroke-linejoin:round;fill-rule:evenodd;"
d="M 23052.2,2776.01
23060.6,2777.25
23068.8,2779.3
23076.8,2782.15
23084.4,2785.76
23091.6,2790.11
23098.4,2795.14
23104.7,2800.82
23110.4,2807.08
23115.4,2813.87
23119.8,2821.12
23123.4,2828.76
23126.2,2836.71
23128.3,2844.91
23129.5,2853.27
23129.9,2861.71
23129.9,3063.48
23129.5,3071.93
23128.3,3080.29
23126.2,3088.48
23123.4,3096.44
23119.8,3104.08
23115.4,3111.33
23110.4,3118.12
23104.7,3124.38
23098.4,3130.06
23091.6,3135.09
23084.4,3139.44
23076.8,3143.05
23068.8,3145.9
23060.6,3147.95
23052.2,3149.19
23043.8,3149.61
22871.6,3149.61
22863.1,3149.19
22854.8,3147.95
22846.6,3145.9
22838.6,3143.05
22831,3139.44
22823.7,3135.09
22816.9,3130.06
22810.7,3124.38
22805,3118.12
22799.9,3111.33
22795.6,3104.08
22792,3096.44
22789.1,3088.48
22787.1,3080.29
22785.8,3071.93
22785.4,3063.48
22785.4,2861.71
22785.8,2853.27
22787.1,2844.91
22789.1,2836.71
22792,2828.76
22795.6,2821.12
22799.9,2813.87
22805,2807.08
22810.7,2800.82
22816.9,2795.14
22823.7,2790.11
22831,2785.76
22838.6,2782.15
22846.6,2779.3
22854.8,2777.25
22863.1,2776.01
22871.6,2775.59
23043.8,2775.59
Z" /> 
<path style="fill:#000000; fill-opacity:1.0; 
stroke:#000000; stroke-width:0; stroke-opacity:1; 
stroke-linecap:round; stroke-linejoin:round;fill-rule:evenodd;"
d="M 22432.2,2776.01
22440.5,2777.25
22448.7,2779.3
22456.7,2782.15
22464.3,2785.76
22471.6,2790.11
22478.4,2795.14
22484.6,2800.82
22490.3,2807.08
22495.3,2813.87
22499.7,2821.12
22503.3,2828.76
22506.1,2836.71
22508.2,2844.91
22509.4,2853.27
22509.8,2861.71
22509.8,3063.48
22509.4,3071.93
22508.2,3080.29
22506.1,3088.48
22503.3,3096.44
22499.7,3104.08
22495.3,3111.33
22490.3,3118.12
22484.6,3124.38
22478.4,3130.06
22471.6,3135.09
22464.3,3139.44
22456.7,3143.05
22448.7,3145.9
22440.5,3147.95
22432.2,3149.19
22423.7,3149.61
22251.5,3149.61
22243,3149.19
22234.7,3147.95
22226.5,3145.9
22218.5,3143.05
22210.9,3139.44
22203.6,3135.09
22196.8,3130.06
22190.6,3124.38
22184.9,3118.12
22179.9,3111.33
22175.5,3104.08
22171.9,3096.44
22169.1,3088.48
22167,3080.29
22165.8,3071.93
22165.4,3063.48
22165.4,2861.71
22165.8,2853.27
22167,2844.91
22169.1,2836.71
22171.9,2828.76
22175.5,2821.12
22179.9,2813.87
22184.9,2807.08
22190.6,2800.82
22196.8,2795.14
22203.6,2790.11
22210.9,2785.76
22218.5,2782.15
22226.5,2779.3
22234.7,2777.25
22243,2776.01
22251.5,2775.59
22423.7,2775.59
Z" /> 
</g>
<g >
</g>
<g style="fill:#000000; fill-opacity:1.0; 
stroke:#000000; stroke-width:0; stroke-opacity:1; 
stroke-linecap:round; stroke-linejoin:round;">
<path style="fill:#000000; fill-opacity:1.0; 
stroke:#000000; stroke-width:0; stroke-opacity:1; 
stroke-linecap:round; stroke-linejoin:round;fill-rule:evenodd;"
d="M 16242.2,1614.64
16251.5,1616.02
16260.6,1618.31
16269.5,1621.48
16278,1625.51
16286.1,1630.35
16293.7,1635.96
16300.6,1642.28
16307,1649.26
16312.6,1656.82
16317.4,1664.9
16321.4,1673.41
16324.6,1682.28
16326.9,1691.42
16328.3,1700.73
16328.7,1710.14
16328.7,1902.07
16328.3,1911.47
16326.9,1920.79
16324.6,1929.92
16321.4,1938.79
16317.4,1947.3
16312.6,1955.38
16307,1962.95
16300.6,1969.92
16293.7,1976.25
16286.1,1981.86
16278,1986.7
16269.5,1990.73
16260.6,1993.9
16251.5,1996.19
16242.2,1997.57
16232.8,1998.03
15873.5,1998.03
15864.1,1997.57
15854.8,1996.19
15845.7,1993.9
15836.8,1990.73
15828.3,1986.7
15820.2,1981.86
15812.6,1976.25
15805.7,1969.92
15799.3,1962.95
15793.7,1955.38
15788.9,1947.3
15784.9,1938.79
15781.7,1929.92
15779.4,1920.79
15778,1911.47
15777.6,1902.07
15777.6,1710.14
15778,1700.73
15779.4,1691.42
15781.7,1682.28
15784.9,1673.41
15788.9,1664.9
15793.7,1656.82
15799.3,1649.26
15805.7,1642.28
15812.6,1635.96
15820.2,1630.35
15828.3,1625.51
15836.8,1621.48
15845.7,1618.31
15854.8,1616.02
15864.1,1614.64
15873.5,1614.17
16232.8,1614.17
Z" /> 
<path style="fill:#000000; fill-opacity:1.0; 
stroke:#000000; stroke-width:0; stroke-opacity:1; 
stroke-linecap:round; stroke-linejoin:round;fill-rule:evenodd;"
d="M 16242.2,2352.82
16251.5,2354.21
16260.6,2356.49
16269.5,2359.67
16278,2363.69
16286.1,2368.54
16293.7,2374.15
16300.6,2380.47
16307,2387.45
16312.6,2395.01
16317.4,2403.09
16321.4,2411.6
16324.6,2420.47
16326.9,2429.61
16328.3,2438.92
16328.7,2448.33
16328.7,2640.26
16328.3,2649.66
16326.9,2658.98
16324.6,2668.11
16321.4,2676.98
16317.4,2685.49
16312.6,2693.57
16307,2701.14
16300.6,2708.11
16293.7,2714.44
16286.1,2720.05
16278,2724.89
16269.5,2728.92
16260.6,2732.09
16251.5,2734.38
16242.2,2735.76
16232.8,2736.22
15873.5,2736.22
15864.1,2735.76
15854.8,2734.38
15845.7,2732.09
15836.8,2728.92
15828.3,2724.89
15820.2,2720.05
15812.6,2714.44
15805.7,2708.11
15799.3,2701.14
15793.7,2693.57
15788.9,2685.49
15784.9,2676.98
15781.7,2668.11
15779.4,2658.98
15778,2649.66
15777.6,2640.26
15777.6,2448.33
15778,2438.92
15779.4,2429.61
15781.7,2420.47
15784.9,2411.6
15788.9,2403.09
15793.7,2395.01
15799.3,2387.45
15805.7,2380.47
15812.6,2374.15
15820.2,2368.54
15828.3,2363.69
15836.8,2359.67
15845.7,2356.49
15854.8,2354.21
15864.1,2352.82
15873.5,2352.36
16232.8,2352.36
Z" /> 
</g>
<g >
</g>
<g style="fill:#000000; fill-opacity:1.0; 
stroke:#000000; stroke-width:0; stroke-opacity:1; 
stroke-linecap:round; stroke-linejoin:round;">
<path style="fill:#000000; fill-opacity:1.0; 
stroke:#000000; stroke-width:0; stroke-opacity:1; 
stroke-linecap:round; stroke-linejoin:round;fill-rule:evenodd;"
d="M 21261.9,4715.03
21271.2,4716.41
21280.3,4718.7
21289.2,4721.87
21297.7,4725.9
21305.8,4730.74
21313.3,4736.35
21320.3,4742.67
21326.6,4749.65
21332.3,4757.22
21337.1,4765.29
21341.1,4773.81
21344.3,4782.67
21346.6,4791.81
21348,4801.13
21348.4,4810.53
21348.4,5002.46
21348,5011.87
21346.6,5021.18
21344.3,5030.32
21341.1,5039.19
21337.1,5047.7
21332.3,5055.78
21326.6,5063.34
21320.3,5070.32
21313.3,5076.64
21305.8,5082.25
21297.7,5087.09
21289.2,5091.12
21280.3,5094.29
21271.2,5096.58
21261.9,5097.96
21252.5,5098.43
20893.2,5098.43
20883.8,5097.96
20874.5,5096.58
20865.4,5094.29
20856.5,5091.12
20848,5087.09
20839.9,5082.25
20832.3,5076.64
20825.4,5070.32
20819,5063.34
20813.4,5055.78
20808.6,5047.7
20804.5,5039.19
20801.4,5030.32
20799.1,5021.18
20797.7,5011.87
20797.2,5002.46
20797.2,4810.53
20797.7,4801.13
20799.1,4791.81
20801.4,4782.67
20804.5,4773.81
20808.6,4765.29
20813.4,4757.22
20819,4749.65
20825.4,4742.67
20832.3,4736.35
20839.9,4730.74
20848,4725.9
20856.5,4721.87
20865.4,4718.7
20874.5,4716.41
20883.8,4715.03
20893.2,4714.57
21252.5,4714.57
Z" /> 
<path style="fill:#000000; fill-opacity:1.0; 
stroke:#000000; stroke-width:0; stroke-opacity:1; 
stroke-linecap:round; stroke-linejoin:round;fill-rule:evenodd;"
d="M 21261.9,3976.84
21271.2,3978.22
21280.3,3980.51
21289.2,3983.68
21297.7,3987.71
21305.8,3992.55
21313.3,3998.16
21320.3,4004.49
21326.6,4011.46
21332.3,4019.03
21337.1,4027.11
21341.1,4035.62
21344.3,4044.49
21346.6,4053.62
21348,4062.94
21348.4,4072.34
21348.4,4264.27
21348,4273.68
21346.6,4282.99
21344.3,4292.13
21341.1,4301
21337.1,4309.51
21332.3,4317.59
21326.6,4325.15
21320.3,4332.13
21313.3,4338.45
21305.8,4344.06
21297.7,4348.91
21289.2,4352.93
21280.3,4356.1
21271.2,4358.39
21261.9,4359.77
21252.5,4360.24
20893.2,4360.24
20883.8,4359.77
20874.5,4358.39
20865.4,4356.1
20856.5,4352.93
20848,4348.91
20839.9,4344.06
20832.3,4338.45
20825.4,4332.13
20819,4325.15
20813.4,4317.59
20808.6,4309.51
20804.5,4301
20801.4,4292.13
20799.1,4282.99
20797.7,4273.68
20797.2,4264.27
20797.2,4072.34
20797.7,4062.94
20799.1,4053.62
20801.4,4044.49
20804.5,4035.62
20808.6,4027.11
20813.4,4019.03
20819,4011.46
20825.4,4004.49
20832.3,3998.16
20839.9,3992.55
20848,3987.71
20856.5,3983.68
20865.4,3980.51
20874.5,3978.22
20883.8,3976.84
20893.2,3976.38
21252.5,3976.38
Z" /> 
</g>
<g >
</g>
<g style="fill:#000000; fill-opacity:1.0; 
stroke:#000000; stroke-width:0; stroke-opacity:1; 
stroke-linecap:round; stroke-linejoin:round;">
<path style="fill:#000000; fill-opacity:1.0; 
stroke:#000000; stroke-width:0; stroke-opacity:1; 
stroke-linecap:round; stroke-linejoin:round;fill-rule:evenodd;"
d="M 21871.1,4774.04
21879.5,4775.28
21887.7,4777.33
21895.7,4780.18
21903.3,4783.79
21910.5,4788.14
21917.3,4793.17
21923.6,4798.85
21929.3,4805.11
21934.3,4811.9
21938.7,4819.15
21942.3,4826.79
21945.1,4834.74
21947.2,4842.94
21948.4,4851.3
21948.8,4859.74
21948.8,5031.99
21948.4,5040.43
21947.2,5048.79
21945.1,5056.99
21942.3,5064.95
21938.7,5072.59
21934.3,5079.84
21929.3,5086.62
21923.6,5092.89
21917.3,5098.56
21910.5,5103.6
21903.3,5107.94
21895.7,5111.56
21887.7,5114.4
21879.5,5116.46
21871.1,5117.7
21862.7,5118.11
21660.9,5118.11
21652.5,5117.7
21644.1,5116.46
21635.9,5114.4
21628,5111.56
21620.3,5107.94
21613.1,5103.6
21606.3,5098.56
21600,5092.89
21594.4,5086.62
21589.3,5079.84
21585,5072.59
21581.4,5064.95
21578.5,5056.99
21576.5,5048.79
21575.2,5040.43
21574.8,5031.99
21574.8,4859.74
21575.2,4851.3
21576.5,4842.94
21578.5,4834.74
21581.4,4826.79
21585,4819.15
21589.3,4811.9
21594.4,4805.11
21600,4798.85
21606.3,4793.17
21613.1,4788.14
21620.3,4783.79
21628,4780.18
21635.9,4777.33
21644.1,4775.28
21652.5,4774.04
21660.9,4773.62
21862.7,4773.62
Z" /> 
<path style="fill:#000000; fill-opacity:1.0; 
stroke:#000000; stroke-width:0; stroke-opacity:1; 
stroke-linecap:round; stroke-linejoin:round;fill-rule:evenodd;"
d="M 21871.1,4153.96
21879.5,4155.2
21887.7,4157.25
21895.7,4160.1
21903.3,4163.71
21910.5,4168.06
21917.3,4173.09
21923.6,4178.77
21929.3,4185.03
21934.3,4191.82
21938.7,4199.07
21942.3,4206.71
21945.1,4214.67
21947.2,4222.86
21948.4,4231.22
21948.8,4239.67
21948.8,4411.91
21948.4,4420.35
21947.2,4428.71
21945.1,4436.91
21942.3,4444.87
21938.7,4452.51
21934.3,4459.76
21929.3,4466.55
21923.6,4472.81
21917.3,4478.48
21910.5,4483.52
21903.3,4487.86
21895.7,4491.48
21887.7,4494.32
21879.5,4496.38
21871.1,4497.62
21862.7,4498.03
21660.9,4498.03
21652.5,4497.62
21644.1,4496.38
21635.9,4494.32
21628,4491.48
21620.3,4487.86
21613.1,4483.52
21606.3,4478.48
21600,4472.81
21594.4,4466.55
21589.3,4459.76
21585,4452.51
21581.4,4444.87
21578.5,4436.91
21576.5,4428.71
21575.2,4420.35
21574.8,4411.91
21574.8,4239.67
21575.2,4231.22
21576.5,4222.86
21578.5,4214.67
21581.4,4206.71
21585,4199.07
21589.3,4191.82
21594.4,4185.03
21600,4178.77
21606.3,4173.09
21613.1,4168.06
21620.3,4163.71
21628,4160.1
21635.9,4157.25
21644.1,4155.2
21652.5,4153.96
21660.9,4153.54
21862.7,4153.54
Z" /> 
</g>
<g >
</g>
<g style="fill:#000000; fill-opacity:1.0; 
stroke:#000000; stroke-width:0; stroke-opacity:1; 
stroke-linecap:round; stroke-linejoin:round;">
<path style="fill:#000000; fill-opacity:1.0; 
stroke:#000000; stroke-width:0; stroke-opacity:1; 
stroke-linecap:round; stroke-linejoin:round;fill-rule:evenodd;"
d="M 16242.2,3927.63
16251.5,3929.01
16260.6,3931.3
16269.5,3934.47
16278,3938.5
16286.1,3943.34
16293.7,3948.95
16300.6,3955.27
16307,3962.25
16312.6,3969.82
16317.4,3977.89
16321.4,3986.41
16324.6,3995.27
16326.9,4004.41
16328.3,4013.72
16328.7,4023.13
16328.7,4215.06
16328.3,4224.47
16326.9,4233.78
16324.6,4242.92
16321.4,4251.78
16317.4,4260.3
16312.6,4268.37
16307,4275.94
16300.6,4282.92
16293.7,4289.24
16286.1,4294.85
16278,4299.69
16269.5,4303.72
16260.6,4306.89
16251.5,4309.18
16242.2,4310.56
16232.8,4311.02
15873.5,4311.02
15864.1,4310.56
15854.8,4309.18
15845.7,4306.89
15836.8,4303.72
15828.3,4299.69
15820.2,4294.85
15812.6,4289.24
15805.7,4282.92
15799.3,4275.94
15793.7,4268.37
15788.9,4260.3
15784.9,4251.78
15781.7,4242.92
15779.4,4233.78
15778,4224.47
15777.6,4215.06
15777.6,4023.13
15778,4013.72
15779.4,4004.41
15781.7,3995.27
15784.9,3986.41
15788.9,3977.89
15793.7,3969.82
15799.3,3962.25
15805.7,3955.27
15812.6,3948.95
15820.2,3943.34
15828.3,3938.5
15836.8,3934.47
15845.7,3931.3
15854.8,3929.01
15864.1,3927.63
15873.5,3927.17
16232.8,3927.17
Z" /> 
<path style="fill:#000000; fill-opacity:1.0; 
stroke:#000000; stroke-width:0; stroke-opacity:1; 
stroke-linecap:round; stroke-linejoin:round;fill-rule:evenodd;"
d="M 16242.2,3189.44
16251.5,3190.82
16260.6,3193.11
16269.5,3196.28
16278,3200.31
16286.1,3205.15
16293.7,3210.76
16300.6,3217.08
16307,3224.06
16312.6,3231.63
16317.4,3239.7
16321.4,3248.22
16324.6,3257.08
16326.9,3266.22
16328.3,3275.54
16328.7,3284.94
16328.7,3476.87
16328.3,3486.28
16326.9,3495.59
16324.6,3504.73
16321.4,3513.59
16317.4,3522.11
16312.6,3530.19
16307,3537.75
16300.6,3544.73
16293.7,3551.05
16286.1,3556.66
16278,3561.5
16269.5,3565.53
16260.6,3568.7
16251.5,3570.99
16242.2,3572.37
16232.8,3572.84
15873.5,3572.84
15864.1,3572.37
15854.8,3570.99
15845.7,3568.7
15836.8,3565.53
15828.3,3561.5
15820.2,3556.66
15812.6,3551.05
15805.7,3544.73
15799.3,3537.75
15793.7,3530.19
15788.9,3522.11
15784.9,3513.59
15781.7,3504.73
15779.4,3495.59
15778,3486.28
15777.6,3476.87
15777.6,3284.94
15778,3275.54
15779.4,3266.22
15781.7,3257.08
15784.9,3248.22
15788.9,3239.7
15793.7,3231.63
15799.3,3224.06
15805.7,3217.08
15812.6,3210.76
15820.2,3205.15
15828.3,3200.31
15836.8,3196.28
15845.7,3193.11
15854.8,3190.82
15864.1,3189.44
15873.5,3188.98
16232.8,3188.98
Z" /> 
</g>
<g >
</g>
<g style="fill:#000000; fill-opacity:1.0; 
stroke:#000000; stroke-width:0; stroke-opacity:1; 
stroke-linecap:round; stroke-linejoin:round;">
<path style="fill:#000000; fill-opacity:1.0; 
stroke:#000000; stroke-width:0; stroke-opacity:1; 
stroke-linecap:round; stroke-linejoin:round;fill-rule:evenodd;"
d="M 18390.5,6297.52
18396.2,6298.36
18401.7,6299.74
18407.1,6301.66
18412.2,6304.1
18417.1,6307.03
18421.7,6310.43
18425.9,6314.25
18429.7,6318.48
18433.1,6323.05
18436.1,6327.94
18438.5,6333.09
18440.4,6338.46
18441.8,6343.99
18442.6,6349.62
18442.9,6355.32
18442.9,6471.46
18442.6,6477.15
18441.8,6482.79
18440.4,6488.31
18438.5,6493.68
18436.1,6498.83
18433.1,6503.72
18429.7,6508.3
18425.9,6512.52
18421.7,6516.35
18417.1,6519.74
18412.2,6522.67
18407.1,6525.11
18401.7,6527.03
18396.2,6528.41
18390.5,6529.25
18384.8,6529.53
18249,6529.53
18243.3,6529.25
18237.7,6528.41
18232.2,6527.03
18226.8,6525.11
18221.6,6522.67
18216.8,6519.74
18212.2,6516.35
18208,6512.52
18204.1,6508.3
18200.7,6503.72
18197.8,6498.83
18195.4,6493.68
18193.4,6488.31
18192.1,6482.79
18191.2,6477.15
18190.9,6471.46
18190.9,6355.32
18191.2,6349.62
18192.1,6343.99
18193.4,6338.46
18195.4,6333.09
18197.8,6327.94
18200.7,6323.05
18204.1,6318.48
18208,6314.25
18212.2,6310.43
18216.8,6307.03
18221.6,6304.1
18226.8,6301.66
18232.2,6299.74
18237.7,6298.36
18243.3,6297.52
18249,6297.24
18384.8,6297.24
Z" /> 
<path style="fill:#000000; fill-opacity:1.0; 
stroke:#000000; stroke-width:0; stroke-opacity:1; 
stroke-linecap:round; stroke-linejoin:round;fill-rule:evenodd;"
d="M 18390.5,6679.41
18396.2,6680.25
18401.7,6681.63
18407.1,6683.55
18412.2,6685.99
18417.1,6688.92
18421.7,6692.32
18425.9,6696.14
18429.7,6700.37
18433.1,6704.94
18436.1,6709.83
18438.5,6714.98
18440.4,6720.35
18441.8,6725.88
18442.6,6731.51
18442.9,6737.21
18442.9,6853.35
18442.6,6859.04
18441.8,6864.68
18440.4,6870.2
18438.5,6875.57
18436.1,6880.72
18433.1,6885.61
18429.7,6890.19
18425.9,6894.41
18421.7,6898.24
18417.1,6901.63
18412.2,6904.56
18407.1,6907
18401.7,6908.92
18396.2,6910.3
18390.5,6911.14
18384.8,6911.42
18249,6911.42
18243.3,6911.14
18237.7,6910.3
18232.2,6908.92
18226.8,6907
18221.6,6904.56
18216.8,6901.63
18212.2,6898.24
18208,6894.41
18204.1,6890.19
18200.7,6885.61
18197.8,6880.72
18195.4,6875.57
18193.4,6870.2
18192.1,6864.68
18191.2,6859.04
18190.9,6853.35
18190.9,6737.21
18191.2,6731.51
18192.1,6725.88
18193.4,6720.35
18195.4,6714.98
18197.8,6709.83
18200.7,6704.94
18204.1,6700.37
18208,6696.14
18212.2,6692.32
18216.8,6688.92
18221.6,6685.99
18226.8,6683.55
18232.2,6681.63
18237.7,6680.25
18243.3,6679.41
18249,6679.13
18384.8,6679.13
Z" /> 
</g>
<g >
</g>
<g style="fill:#000000; fill-opacity:1.0; 
stroke:#000000; stroke-width:0; stroke-opacity:1; 
stroke-linecap:round; stroke-linejoin:round;">
<path style="fill:#000000; fill-opacity:1.0; 
stroke:#000000; stroke-width:0; stroke-opacity:1; 
stroke-linecap:round; stroke-linejoin:round;fill-rule:evenodd;"
d="M 4962.65,10561.5
4971.97,10562.9
4981.11,10565.2
4989.97,10568.3
4998.49,10572.4
5006.56,10577.2
5014.13,10582.8
5021.11,10589.1
5027.43,10596.1
5033.04,10603.7
5037.88,10611.8
5041.91,10620.3
5045.08,10629.1
5047.37,10638.3
5048.75,10647.6
5049.21,10657
5049.21,11016.2
5048.75,11025.6
5047.37,11035
5045.08,11044.1
5041.91,11053
5037.88,11061.5
5033.04,11069.6
5027.43,11077.1
5021.11,11084.1
5014.13,11090.4
5006.56,11096
4998.49,11100.9
4989.97,11104.9
4981.11,11108.1
4971.97,11110.4
4962.65,11111.7
4953.25,11112.2
4761.32,11112.2
4751.91,11111.7
4742.6,11110.4
4733.46,11108.1
4724.6,11104.9
4716.08,11100.9
4708,11096
4700.44,11090.4
4693.46,11084.1
4687.14,11077.1
4681.53,11069.6
4676.69,11061.5
4672.66,11053
4669.49,11044.1
4667.2,11035
4665.82,11025.6
4665.35,11016.2
4665.35,10657
4665.82,10647.6
4667.2,10638.3
4669.49,10629.1
4672.66,10620.3
4676.69,10611.8
4681.53,10603.7
4687.14,10596.1
4693.46,10589.1
4700.44,10582.8
4708,10577.2
4716.08,10572.4
4724.6,10568.3
4733.46,10565.2
4742.6,10562.9
4751.91,10561.5
4761.32,10561
4953.25,10561
Z" /> 
<path style="fill:#000000; fill-opacity:1.0; 
stroke:#000000; stroke-width:0; stroke-opacity:1; 
stroke-linecap:round; stroke-linejoin:round;fill-rule:evenodd;"
d="M 5700.84,10561.5
5710.16,10562.9
5719.29,10565.2
5728.16,10568.3
5736.67,10572.4
5744.75,10577.2
5752.32,10582.8
5759.29,10589.1
5765.62,10596.1
5771.23,10603.7
5776.07,10611.8
5780.1,10620.3
5783.27,10629.1
5785.56,10638.3
5786.94,10647.6
5787.4,10657
5787.4,11016.2
5786.94,11025.6
5785.56,11035
5783.27,11044.1
5780.1,11053
5776.07,11061.5
5771.23,11069.6
5765.62,11077.1
5759.29,11084.1
5752.32,11090.4
5744.75,11096
5736.67,11100.9
5728.16,11104.9
5719.29,11108.1
5710.16,11110.4
5700.84,11111.7
5691.44,11112.2
5499.51,11112.2
5490.1,11111.7
5480.79,11110.4
5471.65,11108.1
5462.78,11104.9
5454.27,11100.9
5446.19,11096
5438.63,11090.4
5431.65,11084.1
5425.33,11077.1
5419.72,11069.6
5414.88,11061.5
5410.85,11053
5407.68,11044.1
5405.39,11035
5404.01,11025.6
5403.54,11016.2
5403.54,10657
5404.01,10647.6
5405.39,10638.3
5407.68,10629.1
5410.85,10620.3
5414.88,10611.8
5419.72,10603.7
5425.33,10596.1
5431.65,10589.1
5438.63,10582.8
5446.19,10577.2
5454.27,10572.4
5462.78,10568.3
5471.65,10565.2
5480.79,10562.9
5490.1,10561.5
5499.51,10561
5691.44,10561
Z" /> 
</g>
<g >
</g>
<g style="fill:#000000; fill-opacity:1.0; 
stroke:#000000; stroke-width:0; stroke-opacity:1; 
stroke-linecap:round; stroke-linejoin:round;">
<path style="fill:#000000; fill-opacity:1.0; 
stroke:#000000; stroke-width:0; stroke-opacity:1; 
stroke-linecap:round; stroke-linejoin:round;fill-rule:evenodd;"
d="M 4996.14,9862.62
5004.5,9863.86
5012.7,9865.91
5020.65,9868.76
5028.29,9872.37
5035.54,9876.72
5042.33,9881.75
5048.59,9887.43
5054.27,9893.69
5059.31,9900.48
5063.65,9907.73
5067.26,9915.37
5070.11,9923.33
5072.16,9931.53
5073.4,9939.89
5073.82,9948.33
5073.82,10150.1
5073.4,10158.5
5072.16,10166.9
5070.11,10175.1
5067.26,10183.1
5063.65,10190.7
5059.31,10197.9
5054.27,10204.7
5048.59,10211
5042.33,10216.7
5035.54,10221.7
5028.29,10226.1
5020.65,10229.7
5012.7,10232.5
5004.5,10234.6
4996.14,10235.8
4987.7,10236.2
4815.45,10236.2
4807.01,10235.8
4798.65,10234.6
4790.45,10232.5
4782.5,10229.7
4774.86,10226.1
4767.61,10221.7
4760.82,10216.7
4754.56,10211
4748.88,10204.7
4743.85,10197.9
4739.5,10190.7
4735.89,10183.1
4733.04,10175.1
4730.99,10166.9
4729.75,10158.5
4729.33,10150.1
4729.33,9948.33
4729.75,9939.89
4730.99,9931.53
4733.04,9923.33
4735.89,9915.37
4739.5,9907.73
4743.85,9900.48
4748.88,9893.69
4754.56,9887.43
4760.82,9881.75
4767.61,9876.72
4774.86,9872.37
4782.5,9868.76
4790.45,9865.91
4798.65,9863.86
4807.01,9862.62
4815.45,9862.21
4987.7,9862.21
Z" /> 
<path style="fill:#000000; fill-opacity:1.0; 
stroke:#000000; stroke-width:0; stroke-opacity:1; 
stroke-linecap:round; stroke-linejoin:round;fill-rule:evenodd;"
d="M 5616.22,9862.62
5624.58,9863.86
5632.78,9865.91
5640.73,9868.76
5648.37,9872.37
5655.62,9876.72
5662.41,9881.75
5668.67,9887.43
5674.35,9893.69
5679.38,9900.48
5683.73,9907.73
5687.34,9915.37
5690.19,9923.33
5692.24,9931.53
5693.48,9939.89
5693.9,9948.33
5693.9,10150.1
5693.48,10158.5
5692.24,10166.9
5690.19,10175.1
5687.34,10183.1
5683.73,10190.7
5679.38,10197.9
5674.35,10204.7
5668.67,10211
5662.41,10216.7
5655.62,10221.7
5648.37,10226.1
5640.73,10229.7
5632.78,10232.5
5624.58,10234.6
5616.22,10235.8
5607.78,10236.2
5435.53,10236.2
5427.09,10235.8
5418.73,10234.6
5410.53,10232.5
5402.57,10229.7
5394.93,10226.1
5387.69,10221.7
5380.9,10216.7
5374.63,10211
5368.96,10204.7
5363.92,10197.9
5359.58,10190.7
5355.97,10183.1
5353.12,10175.1
5351.06,10166.9
5349.82,10158.5
5349.41,10150.1
5349.41,9948.33
5349.82,9939.89
5351.06,9931.53
5353.12,9923.33
5355.97,9915.37
5359.58,9907.73
5363.92,9900.48
5368.96,9893.69
5374.63,9887.43
5380.9,9881.75
5387.69,9876.72
5394.93,9872.37
5402.57,9868.76
5410.53,9865.91
5418.73,9863.86
5427.09,9862.62
5435.53,9862.21
5607.78,9862.21
Z" /> 
</g>
<g >
</g>
<g style="fill:#000000; fill-opacity:1.0; 
stroke:#000000; stroke-width:0; stroke-opacity:1; 
stroke-linecap:round; stroke-linejoin:round;">
<path style="fill:#000000; fill-opacity:1.0; 
stroke:#000000; stroke-width:0; stroke-opacity:1; 
stroke-linecap:round; stroke-linejoin:round;fill-rule:evenodd;"
d="M 7071.64,10616.4
7077.27,10617.3
7082.8,10618.6
7088.17,10620.6
7093.32,10623
7098.21,10625.9
7102.79,10629.3
7107.01,10633.2
7110.83,10637.4
7114.23,10642
7117.16,10646.8
7119.6,10652
7121.52,10657.4
7122.9,10662.9
7123.74,10668.5
7124.02,10674.2
7124.02,10790.4
7123.74,10796
7122.9,10801.7
7121.52,10807.2
7119.6,10812.6
7117.16,10817.7
7114.23,10822.6
7110.83,10827.2
7107.01,10831.4
7102.79,10835.2
7098.21,10838.6
7093.32,10841.6
7088.17,10844
7082.8,10845.9
7077.27,10847.3
7071.64,10848.1
7065.95,10848.4
6930.12,10848.4
6924.43,10848.1
6918.79,10847.3
6913.26,10845.9
6907.9,10844
6902.74,10841.6
6897.86,10838.6
6893.28,10835.2
6889.06,10831.4
6885.23,10827.2
6881.83,10822.6
6878.9,10817.7
6876.47,10812.6
6874.55,10807.2
6873.16,10801.7
6872.33,10796
6872.05,10790.4
6872.05,10674.2
6872.33,10668.5
6873.16,10662.9
6874.55,10657.4
6876.47,10652
6878.9,10646.8
6881.83,10642
6885.23,10637.4
6889.06,10633.2
6893.28,10629.3
6897.86,10625.9
6902.74,10623
6907.9,10620.6
6913.26,10618.6
6918.79,10617.3
6924.43,10616.4
6930.12,10616.1
7065.95,10616.1
Z" /> 
<path style="fill:#000000; fill-opacity:1.0; 
stroke:#000000; stroke-width:0; stroke-opacity:1; 
stroke-linecap:round; stroke-linejoin:round;fill-rule:evenodd;"
d="M 7071.64,10234.5
7077.27,10235.4
7082.8,10236.8
7088.17,10238.7
7093.32,10241.1
7098.21,10244
7102.79,10247.4
7107.01,10251.3
7110.83,10255.5
7114.23,10260.1
7117.16,10264.9
7119.6,10270.1
7121.52,10275.5
7122.9,10281
7123.74,10286.6
7124.02,10292.3
7124.02,10408.5
7123.74,10414.2
7122.9,10419.8
7121.52,10425.3
7119.6,10430.7
7117.16,10435.8
7114.23,10440.7
7110.83,10445.3
7107.01,10449.5
7102.79,10453.4
7098.21,10456.7
7093.32,10459.7
7088.17,10462.1
7082.8,10464
7077.27,10465.4
7071.64,10466.3
7065.95,10466.5
6930.12,10466.5
6924.43,10466.3
6918.79,10465.4
6913.26,10464
6907.9,10462.1
6902.74,10459.7
6897.86,10456.7
6893.28,10453.4
6889.06,10449.5
6885.23,10445.3
6881.83,10440.7
6878.9,10435.8
6876.47,10430.7
6874.55,10425.3
6873.16,10419.8
6872.33,10414.2
6872.05,10408.5
6872.05,10292.3
6872.33,10286.6
6873.16,10281
6874.55,10275.5
6876.47,10270.1
6878.9,10264.9
6881.83,10260.1
6885.23,10255.5
6889.06,10251.3
6893.28,10247.4
6897.86,10244
6902.74,10241.1
6907.9,10238.7
6913.26,10236.8
6918.79,10235.4
6924.43,10234.5
6930.12,10234.3
7065.95,10234.3
Z" /> 
</g>
<g >
</g>
<g >
</g>
<g >
</g>
</g>
<g style="fill:#000000; fill-opacity:1.0; 
stroke:#000000; stroke-width:0; stroke-opacity:1; 
stroke-linecap:round; stroke-linejoin:round;">
</g>
<g style="fill:#000000; fill-opacity:1.0; 
stroke:#000000; stroke-width:19.685; stroke-opacity:1; 
stroke-linecap:round; stroke-linejoin:round;">
</g>
<g style="fill:#000000; fill-opacity:0.0; 
stroke:#000000; stroke-width:19.685; stroke-opacity:1; 
stroke-linecap:round; stroke-linejoin:round;">
<path d="M27568 895
L27568 12706
" />
<path d="M1978 895
L1978 12706
" />
<path d="M27568 895
L1978 895
" />
<path d="M1978 12706
L27568 12706
" />
<g >
</g>
<g >
</g>
<g >
</g>
<g >
</g>
<g >
</g>
<g >
</g>
<g >
</g>
<g >
</g>
<g >
</g>
<g >
</g>
<g >
</g>
<g >
</g>
<g >
</g>
<g >
</g>
<g >
</g>
<g >
</g>
<g >
</g>
<g >
</g>
<g >
</g>
<g >
</g>
<g >
</g>
<g >
</g>
<g >
</g>
<g >
</g>
<g >
</g>
<g >
</g>
<g >
</g>
<g >
</g>
<g >
</g>
<g >
</g>
<g >
</g>
<g >
</g>
<g >
</g>
<g >
</g>
<g >
</g>
<g >
</g>
<g >
</g>
<g >
</g>
<g >
</g>
<g >
</g>
<g >
</g>
<g >
</g>
<g >
</g>
<g >
</g>
<g >
</g>
<g >
</g>
<g >
</g>
<g >
</g>
<g >
</g>
<g >
</g>
<g >
</g>
<g >
</g>
<g >
</g>
<g >
</g>
<g >
</g>
<g >
</g>
<g >
</g>
</g> 
</svg>
