<?xml version="1.0" standalone="no"?>
 <!DOCTYPE svg PUBLIC "-//W3C//DTD SVG 1.1//EN" 
 "http://www.w3.org/Graphics/SVG/1.1/DTD/svg11.dtd"> 
<svg
  xmlns:svg="http://www.w3.org/2000/svg"
  xmlns="http://www.w3.org/2000/svg"
  xmlns:xlink="http://www.w3.org/1999/xlink"
  version="1.1"
  width="7.500620cm" height="3.525520cm" viewBox="0 0 29530 13880">
<title>SVG Picture created as epaper-F_SilkS.svg date 2020/09/06 12:35:17 </title>
  <desc>Picture generated by PCBNEW </desc>
<g style="fill:#000000; fill-opacity:1;stroke:#000000; stroke-opacity:1;
stroke-linecap:round; stroke-linejoin:round;"
 transform="translate(0 0) scale(1 1)">
</g>
<g style="fill:#000000; fill-opacity:0.0; 
stroke:#000000; stroke-width:-0.000393701; stroke-opacity:1; 
stroke-linecap:round; stroke-linejoin:round;">
</g>
<g style="fill:#000000; fill-opacity:0.0; 
stroke:#000000; stroke-width:39.3701; stroke-opacity:1; 
stroke-linecap:round; stroke-linejoin:round;">
<text x="23316.9" y="1250"
textLength="564.211" font-size="524.934" lengthAdjust="spacingAndGlyphs"
text-anchor="middle" opacity="0">-</text>
<path d="M23166 1081
L23466 1081
" />
<text x="22214.6" y="1328.74"
textLength="538.62" font-size="524.934" lengthAdjust="spacingAndGlyphs"
text-anchor="middle" opacity="0">+</text>
<path d="M22064 1160
L22364 1160
" />
<path d="M22214 1309
L22214 1010
" />
<g transform="rotate(-90 16624 10738.2)">
<text x="16624" y="10876"
textLength="1131.05" font-size="472.441" lengthAdjust="spacingAndGlyphs"
text-anchor="middle" opacity="0">GND</text>
</g>
<path d="M16486 11008
L16473 11041
L16473 11092
L16486 11143
L16512 11176
L16538 11193
L16591 11210
L16630 11210
L16683 11193
L16709 11176
L16735 11143
L16748 11092
L16748 11058
L16735 11008
L16722 10991
L16630 10991
L16630 11058
" />
<path d="M16748 10839
L16473 10839
L16748 10636
L16473 10636
" />
<path d="M16748 10468
L16473 10468
L16473 10383
L16486 10333
L16512 10299
L16538 10282
L16591 10265
L16630 10265
L16683 10282
L16709 10299
L16735 10333
L16748 10383
L16748 10468
" />
<g transform="rotate(-90 15679.1 10771)">
<text x="15679.1" y="10908.8"
textLength="1046.68" font-size="472.441" lengthAdjust="spacingAndGlyphs"
text-anchor="middle" opacity="0">TDO</text>
</g>
<path d="M15528 11235
L15528 11032
" />
<path d="M15803 11133
L15528 11133
" />
<path d="M15803 10914
L15528 10914
L15528 10830
L15541 10779
L15567 10745
L15593 10728
L15646 10711
L15685 10711
L15738 10728
L15764 10745
L15790 10779
L15803 10830
L15803 10914
" />
<path d="M15528 10492
L15528 10425
L15541 10391
L15567 10357
L15620 10340
L15711 10340
L15764 10357
L15790 10391
L15803 10425
L15803 10492
L15790 10526
L15764 10560
L15711 10576
L15620 10576
L15567 10560
L15541 10526
L15528 10492
" />
<g transform="rotate(-90 14655.5 10764.4)">
<text x="14655.5" y="10902.2"
textLength="1063.55" font-size="472.441" lengthAdjust="spacingAndGlyphs"
text-anchor="middle" opacity="0">TMS</text>
</g>
<path d="M14504 11236
L14504 11034
" />
<path d="M14780 11135
L14504 11135
" />
<path d="M14780 10916
L14504 10916
L14701 10798
L14504 10680
L14780 10680
" />
<path d="M14767 10528
L14780 10477
L14780 10393
L14767 10359
L14753 10342
L14727 10325
L14701 10325
L14675 10342
L14662 10359
L14648 10393
L14635 10460
L14622 10494
L14609 10511
L14583 10528
L14557 10528
L14530 10511
L14517 10494
L14504 10460
L14504 10376
L14517 10325
" />
<g transform="rotate(-90 13631.9 10777.6)">
<text x="13631.9" y="10915.4"
textLength="1029.81" font-size="472.441" lengthAdjust="spacingAndGlyphs"
text-anchor="middle" opacity="0">TCK</text>
</g>
<path d="M13480 11233
L13480 11030
" />
<path d="M13756 11131
L13480 11131
" />
<path d="M13730 10710
L13743 10726
L13756 10777
L13756 10811
L13743 10861
L13717 10895
L13690 10912
L13638 10929
L13599 10929
L13546 10912
L13520 10895
L13494 10861
L13480 10811
L13480 10777
L13494 10726
L13507 10710
" />
<path d="M13756 10558
L13480 10558
" />
<path d="M13756 10355
L13599 10507
" />
<path d="M13480 10355
L13638 10558
" />
<g transform="rotate(-90 12608.3 10849.7)">
<text x="12608.3" y="11007.2"
textLength="844.207" font-size="472.441" lengthAdjust="spacingAndGlyphs"
text-anchor="middle" opacity="0">TDI</text>
</g>
<path d="M12435 11212
L12435 11010
" />
<path d="M12750 11111
L12435 11111
" />
<path d="M12750 10891
L12435 10891
L12435 10807
L12450 10756
L12480 10723
L12510 10706
L12570 10689
L12615 10689
L12675 10706
L12705 10723
L12735 10756
L12750 10807
L12750 10891
" />
<path d="M12750 10537
L12435 10537
" />
<g transform="rotate(-90 10954.7 10856.3)">
<text x="10954.7" y="11013.8"
textLength="921.072" font-size="419.947" lengthAdjust="spacingAndGlyphs"
text-anchor="middle" opacity="0">3V3</text>
</g>
<path d="M10782 11246
L10782 11051
L10902 11156
L10902 11111
L10917 11081
L10932 11066
L10962 11051
L11037 11051
L11067 11066
L11082 11081
L11097 11111
L11097 11201
L11082 11231
L11067 11246
" />
<path d="M10782 10961
L11097 10856
L10782 10751
" />
<path d="M10782 10676
L10782 10481
L10902 10586
L10902 10541
L10917 10511
L10932 10496
L10962 10481
L11037 10481
L11067 10496
L11082 10511
L11097 10541
L11097 10631
L11082 10661
L11067 10676
" />
<g transform="rotate(-90 10482.3 10705.4)">
<text x="10482.3" y="10862.9"
textLength="1266.03" font-size="419.947" lengthAdjust="spacingAndGlyphs"
text-anchor="middle" opacity="0">BOOT</text>
</g>
<path d="M10459 11132
L10474 11087
L10489 11072
L10519 11057
L10564 11057
L10594 11072
L10609 11087
L10624 11117
L10624 11237
L10309 11237
L10309 11132
L10324 11102
L10339 11087
L10369 11072
L10399 11072
L10429 11087
L10444 11102
L10459 11132
L10459 11237
" />
<path d="M10309 10862
L10309 10802
L10324 10772
L10354 10742
L10414 10727
L10519 10727
L10579 10742
L10609 10772
L10624 10802
L10624 10862
L10609 10892
L10579 10922
L10519 10937
L10414 10937
L10354 10922
L10324 10892
L10309 10862
" />
<path d="M10309 10532
L10309 10472
L10324 10442
L10354 10412
L10414 10397
L10519 10397
L10579 10412
L10609 10442
L10624 10472
L10624 10532
L10609 10562
L10579 10592
L10519 10607
L10414 10607
L10354 10592
L10324 10562
L10309 10532
" />
<path d="M10309 10307
L10309 10127
" />
<path d="M10624 10217
L10309 10217
" />
<g transform="rotate(-90 9931.1 10967.8)">
<text x="9931.1" y="11125.3"
textLength="666.104" font-size="419.947" lengthAdjust="spacingAndGlyphs"
text-anchor="middle" opacity="0">EN</text>
</g>
<path d="M9908 11200
L9908 11095
" />
<path d="M10073 11050
L10073 11200
L9758 11200
L9758 11050
" />
<path d="M10073 10915
L9758 10915
L10073 10735
L9758 10735
" />
<g transform="rotate(-90 9458.66 11000.7)">
<text x="9458.66" y="11158.1"
textLength="591.114" font-size="419.947" lengthAdjust="spacingAndGlyphs"
text-anchor="middle" opacity="0">TX</text>
</g>
<path d="M9286 11240
L9286 11060
" />
<path d="M9601 11150
L9286 11150
" />
<path d="M9286 10985
L9601 10775
" />
<path d="M9286 10775
L9601 10985
" />
<g transform="rotate(-90 8986.22 10967.8)">
<text x="8986.22" y="11125.3"
textLength="666.104" font-size="419.947" lengthAdjust="spacingAndGlyphs"
text-anchor="middle" opacity="0">RX</text>
</g>
<path d="M9128 11020
L8978 11125
" />
<path d="M9128 11200
L8813 11200
L8813 11080
L8828 11050
L8843 11035
L8873 11020
L8918 11020
L8948 11035
L8963 11050
L8978 11080
L8978 11200
" />
<path d="M8813 10915
L9128 10705
" />
<path d="M8813 10705
L9128 10915
" />
<g transform="rotate(-90 8513.78 10816.9)">
<text x="8513.78" y="10974.4"
textLength="1011.06" font-size="419.947" lengthAdjust="spacingAndGlyphs"
text-anchor="middle" opacity="0">GND</text>
</g>
<path d="M8356 11056
L8341 11086
L8341 11131
L8356 11176
L8386 11206
L8416 11221
L8476 11236
L8521 11236
L8581 11221
L8611 11206
L8641 11176
L8656 11131
L8656 11101
L8641 11056
L8626 11041
L8521 11041
L8521 11101
" />
<path d="M8656 10906
L8341 10906
L8656 10726
L8341 10726
" />
<path d="M8656 10576
L8341 10576
L8341 10501
L8356 10456
L8386 10426
L8416 10411
L8476 10396
L8521 10396
L8581 10411
L8611 10426
L8641 10456
L8656 10501
L8656 10576
" />
</g>
<g style="fill:#000000; fill-opacity:0.0; 
stroke:#000000; stroke-width:59.0551; stroke-opacity:1; 
stroke-linecap:round; stroke-linejoin:round;">
<text x="22608.3" y="2746.06"
textLength="2132.17" font-size="524.934" lengthAdjust="spacingAndGlyphs"
text-anchor="middle" opacity="0">Battery</text>
<path d="M21792 2521
L21848 2539
L21867 2558
L21886 2596
L21886 2652
L21867 2689
L21848 2708
L21811 2727
L21661 2727
L21661 2333
L21792 2333
L21830 2352
L21848 2371
L21867 2408
L21867 2446
L21848 2483
L21830 2502
L21792 2521
L21661 2521
" />
<path d="M22223 2727
L22223 2521
L22205 2483
L22167 2464
L22092 2464
L22055 2483
" />
<path d="M22223 2708
L22186 2727
L22092 2727
L22055 2708
L22036 2671
L22036 2633
L22055 2596
L22092 2577
L22186 2577
L22223 2558
" />
<path d="M22355 2464
L22505 2464
" />
<path d="M22411 2333
L22411 2671
L22430 2708
L22467 2727
L22505 2727
" />
<path d="M22580 2464
L22730 2464
" />
<path d="M22636 2333
L22636 2671
L22655 2708
L22692 2727
L22730 2727
" />
<path d="M23011 2708
L22973 2727
L22898 2727
L22861 2708
L22842 2671
L22842 2521
L22861 2483
L22898 2464
L22973 2464
L23011 2483
L23030 2521
L23030 2558
L22842 2596
" />
<path d="M23198 2727
L23198 2464
" />
<path d="M23198 2539
L23217 2502
L23236 2483
L23273 2464
L23311 2464
" />
<path d="M23405 2464
L23498 2727
" />
<path d="M23592 2464
L23498 2727
L23461 2821
L23442 2839
L23405 2858
" />
<text x="14104.3" y="3297.24"
textLength="2401.48" font-size="524.934" lengthAdjust="spacingAndGlyphs"
text-anchor="middle" opacity="0">Speaker</text>
<path d="M13016 3259
L13073 3278
L13166 3278
L13204 3259
L13223 3241
L13241 3203
L13241 3166
L13223 3128
L13204 3109
L13166 3091
L13091 3072
L13054 3053
L13035 3034
L13016 2997
L13016 2959
L13035 2922
L13054 2903
L13091 2884
L13185 2884
L13241 2903
" />
<path d="M13410 3016
L13410 3409
" />
<path d="M13410 3034
L13448 3016
L13523 3016
L13560 3034
L13579 3053
L13598 3091
L13598 3203
L13579 3241
L13560 3259
L13523 3278
L13448 3278
L13410 3259
" />
<path d="M13916 3259
L13879 3278
L13804 3278
L13766 3259
L13748 3222
L13748 3072
L13766 3034
L13804 3016
L13879 3016
L13916 3034
L13935 3072
L13935 3109
L13748 3147
" />
<path d="M14273 3278
L14273 3072
L14254 3034
L14216 3016
L14141 3016
L14104 3034
" />
<path d="M14273 3259
L14235 3278
L14141 3278
L14104 3259
L14085 3222
L14085 3184
L14104 3147
L14141 3128
L14235 3128
L14273 3109
" />
<path d="M14460 3278
L14460 2884
" />
<path d="M14498 3128
L14610 3278
" />
<path d="M14610 3016
L14460 3166
" />
<path d="M14929 3259
L14891 3278
L14816 3278
L14779 3259
L14760 3222
L14760 3072
L14779 3034
L14816 3016
L14891 3016
L14929 3034
L14947 3072
L14947 3109
L14760 3147
" />
<path d="M15116 3278
L15116 3016
" />
<path d="M15116 3091
L15135 3053
L15154 3034
L15191 3016
L15229 3016
" />
</g>
<g style="fill:#000000; fill-opacity:0.0; 
stroke:#000000; stroke-width:47.2441; stroke-opacity:1; 
stroke-linecap:round; stroke-linejoin:round;">
<path d="M16938 7017
L15935 7017
" />
<path d="M16938 6348
L15935 6348
" />
<path d="M16938 7017
L16938 6348
" />
</g>
<g style="fill:#000000; fill-opacity:1.0; 
stroke:#000000; stroke-width:3.93701; stroke-opacity:1; 
stroke-linecap:round; stroke-linejoin:round;">
<path style="fill:#000000; fill-opacity:1.0; 
stroke:#000000; stroke-width:3.93701; stroke-opacity:1; 
stroke-linecap:round; stroke-linejoin:round;fill-rule:evenodd;"
d="M 14176.5,4042.69
14304.2,4058.88
14433.4,4088.25
14555.6,4129.11
14600.5,4148.28
14744.9,4227.88
14878.2,4328.32
14998,4447.09
15102.3,4581.71
15188.7,4729.67
15254.7,4887.25
15269.7,4939.35
15285.1,5006.97
15299.6,5082.22
15311.8,5157.23
15320.2,5224.13
15323.5,5275.04
15323.6,5276.35
15320.6,5321.85
15308.4,5350.41
15282.2,5369.67
15260.2,5379.03
15241.5,5384.23
15229,5378.95
15217.8,5358.46
15206.1,5326.62
15183,5269.04
15150.4,5197.83
15111.9,5120.45
15071.5,5044.38
15032.8,4977.07
15008.4,4938.55
14872.4,4755.38
14724.4,4593.46
14562.8,4451.31
14386,4327.46
14292.5,4272.54
14235.8,4242.37
14174.8,4211.92
14114.5,4183.42
14059.7,4159.09
14015.4,4141.15
13986.4,4131.83
13980.5,4131
13966.4,4130.16
13962.6,4123.06
13968,4102.83
13974.6,4083.98
13984.1,4062.08
13998.1,4050.04
14023.7,4044.18
14058.9,4041.38
Z" /> 
<path style="fill:#000000; fill-opacity:1.0; 
stroke:#000000; stroke-width:3.93701; stroke-opacity:1; 
stroke-linecap:round; stroke-linejoin:round;fill-rule:evenodd;"
d="M 13586.5,4187.99
13644.7,4197.54
13649.8,4198.47
13805.2,4235.15
13964.2,4288.17
14116,4353.68
14160.3,4376.22
14250,4424.95
14323.5,4468.59
14388.1,4511.84
14450.6,4559.42
14517.9,4616.03
14526.4,4623.39
14686.6,4779.19
14825.1,4947.35
14941.8,5127.63
15036.6,5319.8
15109.3,5523.62
15155.2,5714.22
15176.9,5828.68
15132.5,5901.72
15087.8,5970.61
15048.7,6019.06
15012.1,6050.02
14974.9,6066.42
14948.7,6070.67
14901.7,6072.49
14856.1,6071.66
14847.4,6071.06
14802.4,6067.21
14794.2,5945.98
14779.8,5825.61
14753.5,5696.88
14718.1,5571.72
14691.8,5499.05
14611.8,5330.31
14512.2,5174.23
14395.2,5032.31
14262.7,4906.04
14116.8,4796.89
13959.5,4706.37
13792.9,4635.96
13618.9,4587.15
13439.6,4561.42
13408.1,4559.41
13273.7,4552.46
13273.9,4444.86
13274.1,4337.25
13367.3,4270.7
13424.1,4231
13467.6,4204.61
13504.7,4189.8
13542.1,4184.83
Z" /> 
<path style="fill:#000000; fill-opacity:1.0; 
stroke:#000000; stroke-width:3.93701; stroke-opacity:1; 
stroke-linecap:round; stroke-linejoin:round;fill-rule:evenodd;"
d="M 13361.2,4713.73
13441.2,4715.73
13505.9,4720.81
13564.7,4730.14
13627.4,4744.88
13637.5,4747.59
13811.6,4807.09
13973.4,4887.62
14121.5,4987.68
14254.5,5105.77
14370.9,5240.4
14469.3,5390.09
14548.3,5553.33
14606.4,5728.64
14617.7,5774.75
14629.3,5841.32
14636.8,5917.97
14640.6,6000.4
14640.8,6084.29
14637.6,6165.34
14631.1,6239.23
14621.5,6301.64
14609.1,6348.28
14594,6374.81
14592.2,6376.3
14571.9,6386.64
14534.8,6401.63
14487.9,6418.47
14474.5,6422.99
14375.7,6455.63
14290.3,6423.51
14248.6,6407.63
14217.5,6395.46
14203,6389.36
14202.7,6389.14
14204.8,6377.01
14212.6,6347.07
14224.3,6305.47
14226,6299.57
14241.4,6226.33
14250.6,6137.5
14253.6,6041.65
14250.4,5947.33
14240.8,5863.11
14231.2,5818.5
14200.4,5726.84
14157.8,5629.87
14108.2,5537.73
14057.9,5462.25
13966.6,5361.38
13857.9,5272.86
13736.6,5199.34
13607.4,5143.47
13475.2,5107.9
13395.5,5097.33
13344.2,5094.24
13311,5095.27
13289.5,5101.23
13273.6,5112.33
13254.4,5142.66
13249.6,5178.95
13260,5210.47
13267.2,5218.25
13286.8,5226.71
13324.9,5237.32
13375.4,5248.52
13414,5255.71
13558,5291.81
13687.3,5347.59
13801.2,5422.5
13898.8,5515.93
13979.4,5627.3
14011.9,5687.25
14055.2,5786.76
14082.5,5879.27
14096.1,5974.64
14098.7,6050.1
14087.5,6190.77
14054.1,6322.61
14016.8,6410.29
13998.2,6444.94
13980.9,6467.02
13959.6,6477.79
13929.2,6478.56
13884.5,6470.62
13827.9,6457.15
13765.6,6438.08
13715.8,6412.56
13674.3,6381.49
13640.6,6352.22
13623.7,6333.38
13620.6,6320.14
13628.5,6307.63
13628.9,6307.21
13643.9,6285.13
13663.9,6248.72
13680.9,6213.83
13697.4,6174.77
13706.8,6141.45
13710.4,6104.76
13709.7,6055.6
13708.7,6032.92
13697.3,5940.5
13672,5864.07
13629.7,5797.29
13580.2,5745.01
13519.6,5697.07
13454.8,5663.53
13378.6,5641.24
13310.9,5630.22
13224.1,5615.72
13153.6,5594.67
13090.8,5563.97
13045.3,5533.98
12972.4,5466.11
12914.8,5379.28
12884.5,5308.92
12867.3,5229.44
12865.8,5140
12879.5,5049.64
12904.3,4975.15
12945.8,4905.25
13004.7,4838
13073.7,4780.64
13132.7,4746.13
13164.9,4731.85
13193.6,4722.33
13224.8,4716.68
13264.8,4714.01
13320,4713.45
Z" /> 
<path style="fill:#000000; fill-opacity:1.0; 
stroke:#000000; stroke-width:3.93701; stroke-opacity:1; 
stroke-linecap:round; stroke-linejoin:round;fill-rule:evenodd;"
d="M 13091.1,4267.56
13112.9,4290.75
13123.5,4307.89
13123.7,4309.39
13116,4324.36
13096.2,4351.12
13075.7,4375.42
13006.7,4463.18
12939.7,4565.33
12881.2,4671.68
12859.2,4718.5
12796.6,4888.8
12758.3,5061.9
12744,5239.21
12753.6,5422.11
12774.9,5556
12804.9,5665.71
12851.2,5783.86
12910.4,5903.58
12979,6017.99
13053.5,6120.23
13064.7,6133.66
13097,6169.57
13116.1,6184.91
13121.6,6179.64
13113.2,6153.77
13105.2,6135.94
13089.3,6080.74
13089.3,6028.31
13107.1,5958.81
13144.4,5903.89
13198.8,5865.84
13268.2,5846.9
13272.6,5846.43
13340.8,5847.97
13396.6,5868.8
13446.1,5911.2
13448.3,5913.63
13486.8,5973.72
13503.3,6036.77
13499.5,6098.8
13477.2,6155.8
13438.4,6203.79
13384.9,6238.77
13318.6,6256.75
13287.2,6258.28
13243.5,6252.48
13202.8,6239.27
13199.6,6237.73
13171.5,6225.49
13162.6,6227.22
13172,6241.77
13199.2,6267.94
13239.3,6301.44
13387.3,6405.68
13541.5,6486.78
13704.9,6545.89
13880.2,6584.15
13960.8,6594.56
14139,6600.85
14315.2,6582.7
14487.7,6540.66
14654.6,6475.27
14814.3,6387.1
14957.6,6282.67
15039.1,6215.6
15076,6252.55
15113,6289.5
15040.2,6351.92
14885.8,6468.49
14720.5,6562.78
14545.4,6634.31
14361.5,6682.59
14335.9,6687.33
14240.2,6699.08
14130.2,6704.32
14015.6,6703.15
13905.6,6695.7
13809.9,6682.08
13805,6681.09
13622.1,6631.65
13449.2,6560.21
13288.1,6468.21
13140.5,6357.07
13008.1,6228.24
12892.8,6083.15
12796.4,5923.23
12753.3,5832.33
12692.2,5660.64
12654,5483.49
12638.2,5303.52
12644.5,5123.34
12672.5,4945.57
12721.6,4772.84
12791.5,4607.76
12881.8,4452.96
12992.1,4311.05
12996.6,4306
13058.6,4237.25
Z" /> 
<path style="fill:#000000; fill-opacity:1.0; 
stroke:#000000; stroke-width:3.93701; stroke-opacity:1; 
stroke-linecap:round; stroke-linejoin:round;fill-rule:evenodd;"
d="M 14940.6,7001.35
14947.8,7008.91
14952.6,7026.56
14955.5,7058.43
14957.5,7108.66
14958.6,7149.75
14959.8,7227
14958.9,7282.65
14955.2,7320.03
14948.2,7342.48
14937.3,7353.36
14923.1,7356
14913.3,7354.84
14906.6,7348.81
14902.4,7334.1
14900.4,7306.91
14900.1,7263.4
14901.1,7199.79
14901.5,7177.88
14903.1,7107.89
14904.9,7059.09
14907.8,7027.69
14912.1,7009.87
14918.7,7001.84
14928,6999.78
14930,6999.75
Z" /> 
<path style="fill:#000000; fill-opacity:1.0; 
stroke:#000000; stroke-width:3.93701; stroke-opacity:1; 
stroke-linecap:round; stroke-linejoin:round;fill-rule:evenodd;"
d="M 14778.7,7008.21
14805,7030.51
14811.2,7052.73
14808.3,7074.31
14794.4,7078.91
14776.8,7075.45
14725.2,7063.72
14690.7,7059.04
14667,7061.01
14650.2,7067.74
14627,7087.19
14628.1,7106.38
14652.6,7123.54
14676.8,7131.75
14741.2,7150.29
14785.2,7166.54
14813.1,7182.52
14829.2,7200.23
14831.7,7204.75
14839.2,7245.01
14829,7289.09
14803.7,7326.75
14795.6,7333.81
14760.3,7348.77
14711,7354.88
14657,7351.94
14607.8,7339.79
14601.8,7337.37
14569.5,7315.57
14561.2,7293.72
14569.4,7267.97
14592.8,7261.18
14629.9,7273.77
14630.8,7274.22
14685.7,7291.93
14736.1,7286.56
14749.5,7280.56
14772.4,7261.09
14772,7241.34
14749.8,7222.94
14707.4,7207.53
14671.9,7200.22
14616.8,7182.39
14580.4,7152.94
14562.6,7116.61
14563.2,7078.14
14582,7042.28
14618.8,7013.78
14673.6,6997.38
14679,6996.7
14735.3,6996.39
Z" /> 
<path style="fill:#000000; fill-opacity:1.0; 
stroke:#000000; stroke-width:3.93701; stroke-opacity:1; 
stroke-linecap:round; stroke-linejoin:round;fill-rule:evenodd;"
d="M 14455.3,7000.75
14489.7,7017.13
14509,7042.7
14511.2,7056.71
14508.1,7073.6
14495.5,7079.79
14468.3,7075.91
14434.5,7066.51
14392.8,7058.37
14360.3,7063.96
14354.9,7066.25
14328.6,7084.78
14326.5,7103.87
14348,7121.52
14376.8,7132
14436.4,7148.68
14476.3,7161.28
14501.1,7171.74
14515.4,7182
14523.8,7193.68
14536.6,7241.37
14528.1,7289.21
14503.1,7325.35
14475.3,7345.24
14442,7354.1
14406.3,7355.51
14359.5,7351.63
14316,7342.38
14301.8,7337.37
14270.1,7316.18
14261.2,7294.85
14265.1,7272.23
14279.5,7263.64
14308.8,7268.15
14339.3,7278.18
14389,7289.88
14430.1,7288.03
14457.9,7273.7
14467.5,7249.45
14462.7,7234.32
14445.1,7222.39
14409.5,7210.84
14390.5,7206
14345.1,7192.24
14306.6,7175.77
14287.3,7163.44
14267.1,7130.53
14261.7,7089.38
14271.7,7051.07
14281.9,7037.1
14319,7011.74
14364.1,6997.56
14411.5,6994.06
Z" /> 
<path style="fill:#000000; fill-opacity:1.0; 
stroke:#000000; stroke-width:3.93701; stroke-opacity:1; 
stroke-linecap:round; stroke-linejoin:round;fill-rule:evenodd;"
d="M 12905,7001.2
12936.6,7020.29
12948.7,7048.31
12948.7,7049.43
12945.3,7062.5
12931.1,7066.84
12899.6,7063.95
12892.6,7062.93
12855.1,7059.45
12830.6,7065.28
12807.7,7083.39
12805.1,7085.95
12784.1,7110.2
12773.9,7128.32
12773.7,7129.86
12785.1,7136.63
12815.1,7142.42
12857.2,7146.02
12858.1,7146.06
12903.2,7148.8
12929.2,7153.46
12941.6,7162.11
12946.3,7176.81
12946.5,7177.88
12947,7192.52
12940.2,7200.93
12920.6,7204.84
12883.3,7205.95
12862.1,7206
12809.8,7208.08
12780.8,7215.26
12773.7,7228.96
12787.1,7250.62
12802.7,7266.33
12840.1,7289.99
12878.7,7289.51
12898.6,7281.05
12926.9,7274.33
12951,7281.31
12961.2,7299.15
12949.7,7325.72
12918.7,7345.35
12873.1,7355.31
12855.9,7356
12814.7,7353.09
12785,7340.72
12753.7,7313.5
12728.3,7282.61
12713.1,7253.57
12711.2,7243.58
12700.9,7217.73
12686.2,7209.63
12665.9,7194.6
12663,7171.12
12677.8,7148.81
12684.8,7144.27
12706.3,7122.67
12715.9,7101.48
12736.6,7062.55
12773.5,7027.34
12818.1,7002.33
12858.5,6993.9
Z" /> 
<path style="fill:#000000; fill-opacity:1.0; 
stroke:#000000; stroke-width:3.93701; stroke-opacity:1; 
stroke-linecap:round; stroke-linejoin:round;fill-rule:evenodd;"
d="M 15198.8,6999.72
15242.4,7016.14
15272,7039.38
15278.5,7050.42
15280.5,7077.04
15265.4,7091.23
15238.9,7091.15
15206.5,7074.95
15205.7,7074.36
15168.3,7057.14
15133.9,7059.62
15108.7,7079.44
15098.7,7114.3
15098.7,7114.75
15100.3,7129.73
15108.8,7138.34
15129.4,7142.33
15167.7,7143.46
15187.1,7143.5
15233,7143.98
15259.1,7146.56
15270.5,7152.94
15272.3,7164.86
15271.5,7171.63
15267,7186.74
15255.2,7195.68
15230.2,7200.51
15186.3,7203.31
15183.1,7203.45
15098.7,7207.15
15098.7,7280.12
15097.5,7322.34
15092.4,7345.85
15081.7,7356.88
15074.4,7359.44
15051.4,7361.63
15043.2,7358.81
15039.4,7343.45
15036.9,7311.03
15036.2,7280.26
15034,7234.65
15026.7,7209.45
15017.5,7201.48
15002,7184.53
14998.7,7168.9
15006.4,7148.23
15017.5,7143.5
15031.3,7134.15
15036.2,7104.16
15036.2,7099.19
15047,7050.06
15077.2,7014.5
15123.3,6995.67
15148.8,6993.5
Z" /> 
<path style="fill:#000000; fill-opacity:1.0; 
stroke:#000000; stroke-width:3.93701; stroke-opacity:1; 
stroke-linecap:round; stroke-linejoin:round;fill-rule:evenodd;"
d="M 14156.3,6999.64
14179.4,7008.01
14202.4,7026.38
14211.1,7049.04
14203.4,7067.57
14195.6,7071.8
14173.2,7071.89
14144.5,7064.98
14113.5,7059.55
14085.7,7070.56
14075.7,7077.59
14045.2,7104.48
14037.1,7123.86
14052,7136.73
14090.6,7144.08
14119.8,7146.04
14165.2,7148.77
14191.3,7153.37
14203.9,7161.88
14208.7,7176.35
14209,7177.88
14209.5,7192.52
14202.7,7200.93
14183.1,7204.84
14145.8,7205.95
14124.6,7206
14071.8,7208.37
14042.3,7216.34
14034.8,7231.2
14048,7254.24
14061.2,7268.5
14098.8,7290.62
14142.2,7288.78
14163.5,7279.78
14188.5,7273.09
14209.1,7286.03
14222.3,7303.61
14216.1,7318.64
14210.2,7324.9
14171.8,7348.11
14122.2,7358.11
14077.9,7353.86
14037.8,7333.04
13999.9,7296.9
13972.5,7254.34
13966.1,7236.29
13954.2,7213.29
13941.1,7206
13927.5,7195.15
13923.7,7174.75
13929.8,7150.25
13941.2,7143.5
13957.8,7133.03
13971.9,7109.13
14004.1,7052.69
14048.3,7014.28
14100.4,6995.92
Z" /> 
<path style="fill:#000000; fill-opacity:1.0; 
stroke:#000000; stroke-width:3.93701; stroke-opacity:1; 
stroke-linecap:round; stroke-linejoin:round;fill-rule:evenodd;"
d="M 13793.2,6994.44
13825.7,6998.43
13847.7,7007.26
13866.6,7022.71
13868,7024.19
13893.6,7065.88
13896.6,7113.31
13885.8,7144.38
13880.5,7174.41
13885.4,7218.24
13899,7267.59
13914.1,7303.25
13921.7,7328.97
13910.8,7349.2
13908.7,7351.34
13883.1,7363.99
13858.7,7355.98
13841.3,7331.25
13836.2,7302.1
13827.3,7252.42
13801.9,7219.79
13761.7,7206.26
13754.3,7206
13723.8,7209.25
13710.8,7223.21
13710.1,7254.2
13710.6,7259.5
13708.4,7286.55
13699.9,7321.25
13699.5,7322.47
13682.9,7351.37
13661.2,7365.12
13641,7361.51
13630.6,7345.52
13629.3,7319.47
13635.3,7284.45
13636.3,7280.8
13641.8,7249.12
13646,7200.67
13648.4,7143.65
13648.7,7120.96
13704.4,7120.96
13707.3,7134.13
13724.3,7142.13
13754.8,7143.08
13788.8,7137.77
13816,7126.99
13818.2,7125.49
13835.2,7103.75
13830.3,7083.79
13806.3,7068.9
13766.2,7062.33
13760.9,7062.25
13726.9,7063.83
13710.6,7071.22
13705,7088.38
13704.5,7093.5
13704.4,7120.96
13648.7,7120.96
13648.7,7115.46
13648.7,6993.5
13743,6993.5
Z" /> 
<path style="fill:#000000; fill-opacity:1.0; 
stroke:#000000; stroke-width:3.93701; stroke-opacity:1; 
stroke-linecap:round; stroke-linejoin:round;fill-rule:evenodd;"
d="M 13500.8,6997.99
13546.7,7010.93
13575.8,7034.82
13591.8,7071.79
13594.7,7086.12
13596.4,7117.42
13586.3,7142.25
13562.6,7169.06
13536.5,7192.36
13512.4,7203.18
13479.6,7205.14
13457.9,7204.02
13392.5,7199.75
13388.7,7274.75
13384.7,7324.06
13377.9,7351.79
13366.4,7361.32
13348.3,7356.04
13345,7354.3
13335.7,7346.49
13329.5,7332.66
13325.8,7308.5
13324.3,7269.67
13324.2,7211.84
13324.5,7183.79
13325.7,7122.4
13327.6,7069.45
13328.4,7056
13386.2,7056
13386.2,7099.75
13387.5,7126.79
13395.8,7139.48
13418,7143.26
13441.6,7143.5
13485.7,7138.55
13515.1,7125.23
13516.6,7123.89
13529.3,7101.24
13523.3,7080.14
13508.8,7064.73
13482.5,7057.48
13448.3,7056
13386.2,7056
13328.4,7056
13330,7030.3
13332.5,7010.34
13332.7,7009.72
13346.2,7000.46
13379.7,6995.32
13434.4,6993.92
Z" /> 
<path style="fill:#000000; fill-opacity:1.0; 
stroke:#000000; stroke-width:3.93701; stroke-opacity:1; 
stroke-linecap:round; stroke-linejoin:round;fill-rule:evenodd;"
d="M 13192.6,7002.46
13213.8,7009.92
13243.6,7025.4
13254,7041.31
13252.6,7054.99
13243.3,7074.17
13225.3,7079.89
13192.9,7073.03
13175.2,7067.15
13134.5,7059.7
13098.3,7068.66
13069,7086.12
13064.3,7103.57
13083.8,7120.51
13127,7136.44
13158.8,7144.15
13217.1,7161.12
13253.9,7184.59
13272.6,7218.61
13276.5,7267.2
13275.5,7283.28
13263.2,7306.34
13234.8,7330.94
13198.4,7351.18
13173.7,7359.29
13143.1,7360.24
13101.5,7354.71
13081.7,7350.18
13033.4,7332.93
13006.9,7311.2
12998.9,7283.74
13008.2,7265.15
13033.1,7261.02
13068.4,7272.08
13072,7273.85
13116.9,7289.63
13159.6,7292.08
13191.9,7281.13
13198.6,7274.91
13209.3,7250
13196.1,7229.45
13158.5,7212.96
13131.5,7206.33
13065.3,7186.38
13022.1,7158.49
13001.2,7121.95
12998.7,7101.03
13009.8,7058.13
13039.8,7024.7
13083.6,7002.85
13136.2,6994.73
Z" /> 
</g>
<g style="fill:#000000; fill-opacity:1.0; 
stroke:#000000; stroke-width:47.2441; stroke-opacity:1; 
stroke-linecap:round; stroke-linejoin:round;">
</g>
<g style="fill:#000000; fill-opacity:0.0; 
stroke:#000000; stroke-width:47.2441; stroke-opacity:1; 
stroke-linecap:round; stroke-linejoin:round;">
<path d="M26257 2438
L26781 2438
" />
<path d="M26257 2962
L26257 2438
" />
<path d="M26257 3462
L27305 3462
" />
<path d="M27305 3462
L27305 11486
" />
<path d="M26257 3462
L26257 11486
" />
<path d="M26257 11486
L27305 11486
" />
<path d="M23340 4785
L23340 3828
" />
<path d="M22131 4092
L22131 4785
" />
<path d="M16604 1521
L18970 1521
" />
<path d="M17490 4206
L18970 4206
" />
<path d="M18970 1521
L18970 2017
" />
<path d="M18970 4206
L18970 3710
" />
<path d="M4559 9210
L4559 9360
" />
<path d="M2031 9210
L4559 9210
" />
<path d="M2031 2029
L4559 2029
" />
<path d="M2031 9210
L2031 2029
" />
<path d="M12167 2029
L12167 2423
" />
<path d="M11860 2029
L12167 2029
" />
<path d="M12167 9210
L12167 8816
" />
<path d="M11860 9210
L12167 9210
" />
<path d="M23517 7765
L23517 6820
" />
<path d="M23517 8557
L23517 8395
" />
<path d="M20990 8557
L23517 8557
" />
<path d="M20990 8395
L20990 8557
" />
<path d="M20990 6820
L20990 7765
" />
<path d="M20990 6029
L20990 6139
" />
<path d="M23517 6029
L20990 6029
" />
<path d="M23517 6190
L23517 6029
" />
<path d="M19529 4730
L19529 5305
" />
<path d="M18285 4730
L18285 5580
" />
<path d="M18285 4730
L18651 4730
" />
<path d="M19529 4730
L19163 4730
" />
<path d="M18053 4730
L18053 5305
" />
<path d="M16809 4730
L16809 5580
" />
<path d="M16809 4730
L17175 4730
" />
<path d="M18053 4730
L17687 4730
" />
<path d="M17167 11395
L17167 11919
" />
<path d="M16643 11395
L17167 11395
" />
<path d="M16143 11395
L16143 12442
" />
<path d="M16143 12442
L12120 12442
" />
<path d="M16143 11395
L12120 11395
" />
<path d="M12120 11395
L12120 12442
" />
<path d="M15198 1750
L15198 2273
" />
<path d="M14675 1750
L15198 1750
" />
<path d="M14175 1750
L14175 2797
" />
<path d="M14175 2797
L13151 2797
" />
<path d="M14175 1750
L13151 1750
" />
<path d="M13151 1750
L13151 2797
" />
<path d="M21730 2305
L21730 1781
" />
<path d="M22253 2305
L21730 2305
" />
<path d="M22753 2305
L22753 1257
" />
<path d="M22753 1257
L23777 1257
" />
<path d="M22753 2305
L23777 2305
" />
<path d="M23777 2305
L23777 1257
" />
<path d="M20403 12312
L20403 13061
" />
<path d="M20403 10777
L20403 11564
" />
<path d="M24104 12312
L24104 13061
" />
<path d="M24104 10777
L24104 11564
" />
<path d="M20403 13061
L24104 13061
" />
<path d="M5687 12442
L5687 11919
" />
<path d="M6210 12442
L5687 12442
" />
<path d="M6710 12442
L6710 11395
" />
<path d="M6710 11395
L11734 11395
" />
<path d="M6710 12442
L11734 12442
" />
<path d="M11734 12442
L11734 11395
" />
<path d="M24228 1775
L25127 1775
" />
<path d="M24228 1196
L24228 1775
" />
<path d="M25127 1196
L24228 1196
" />
<path d="M16938 6348
L15935 6348
" />
<path d="M16938 5679
L15935 5679
" />
<path d="M16938 6348
L16938 5679
" />
<path d="M13962 1179
L13062 1179
" />
<path d="M13962 1757
L13962 1179
" />
<path d="M13062 1757
L13962 1757
" />
<path d="M22583 3163
L22711 3163
" />
<path d="M22583 2761
L22711 2761
" />
<path d="M16332 2276
L16332 2073
" />
<path d="M15773 2276
L15773 2073
" />
<path d="M20793 4435
L20793 4639
" />
<path d="M21352 4435
L21352 4639
" />
<path d="M21561 4571
L21561 4699
" />
<path d="M21962 4571
L21962 4699
" />
<path d="M15773 3648
L15773 3851
" />
<path d="M16332 3648
L16332 3851
" />
<path d="M5328 10557
L5124 10557
" />
<path d="M5328 11116
L5124 11116
" />
<path d="M5275 9848
L5147 9848
" />
<path d="M5275 10250
L5147 10250
" />
</g>
<g style="fill:#000000; fill-opacity:0.0; 
stroke:#000000; stroke-width:59.0551; stroke-opacity:1; 
stroke-linecap:round; stroke-linejoin:round;">
<text x="16230.3" y="8454.72"
textLength="845.426" font-size="524.934" lengthAdjust="spacingAndGlyphs"
text-anchor="middle" opacity="0">D4</text>
<path d="M15939 8435
L15939 8042
L16033 8042
L16089 8061
L16127 8098
L16145 8136
L16164 8211
L16164 8267
L16145 8342
L16127 8379
L16089 8417
L16033 8435
L15939 8435
" />
<path d="M16502 8173
L16502 8435
" />
<path d="M16408 8023
L16314 8304
L16558 8304
" />
<text x="26683.1" y="2076.77"
textLength="751.687" font-size="524.934" lengthAdjust="spacingAndGlyphs"
text-anchor="middle" opacity="0">J2</text>
<path d="M26551 1664
L26551 1945
L26533 2001
L26495 2039
L26439 2058
L26401 2058
" />
<path d="M26720 1701
L26739 1683
L26776 1664
L26870 1664
L26908 1683
L26926 1701
L26945 1739
L26945 1776
L26926 1833
L26701 2058
L26945 2058
" />
<text x="22647.6" y="5718.5"
textLength="864.173" font-size="524.934" lengthAdjust="spacingAndGlyphs"
text-anchor="middle" opacity="0">U3</text>
<path d="M22347 5306
L22347 5624
L22366 5662
L22385 5681
L22422 5699
L22497 5699
L22535 5681
L22553 5662
L22572 5624
L22572 5306
" />
<path d="M22722 5306
L22966 5306
L22835 5456
L22891 5456
L22928 5474
L22947 5493
L22966 5531
L22966 5624
L22947 5662
L22928 5681
L22891 5699
L22778 5699
L22741 5681
L22722 5662
" />
<text x="18218.5" y="1486.22"
textLength="864.173" font-size="524.934" lengthAdjust="spacingAndGlyphs"
text-anchor="middle" opacity="0">U2</text>
<path d="M17918 1073
L17918 1392
L17937 1429
L17956 1448
L17993 1467
L18068 1467
L18106 1448
L18124 1429
L18143 1392
L18143 1073
" />
<path d="M18312 1111
L18330 1092
L18368 1073
L18462 1073
L18499 1092
L18518 1111
L18537 1148
L18537 1186
L18518 1242
L18293 1467
L18537 1467
" />
<text x="3159.45" y="1879.92"
textLength="864.173" font-size="524.934" lengthAdjust="spacingAndGlyphs"
text-anchor="middle" opacity="0">U1</text>
<path d="M2859 1467
L2859 1786
L2878 1823
L2896 1842
L2934 1861
L3009 1861
L3046 1842
L3065 1823
L3084 1786
L3084 1467
" />
<path d="M3478 1861
L3253 1861
" />
<path d="M3365 1861
L3365 1467
L3328 1523
L3290 1561
L3253 1579
" />
<text x="21269.7" y="9064.96"
textLength="1276.62" font-size="524.934" lengthAdjust="spacingAndGlyphs"
text-anchor="middle" opacity="0">SW1</text>
<path d="M20744 9027
L20800 9046
L20894 9046
L20932 9027
L20950 9008
L20969 8971
L20969 8933
L20950 8896
L20932 8877
L20894 8858
L20819 8839
L20782 8821
L20763 8802
L20744 8764
L20744 8727
L20763 8690
L20782 8671
L20819 8652
L20913 8652
L20969 8671
" />
<path d="M21100 8652
L21194 9046
L21269 8764
L21344 9046
L21438 8652
" />
<path d="M21794 9046
L21569 9046
" />
<path d="M21682 9046
L21682 8652
L21644 8708
L21607 8746
L21569 8764
" />
<g transform="rotate(-90 24517.7 4931.1)">
<text x="24517.7" y="5127.95"
textLength="1220.38" font-size="524.934" lengthAdjust="spacingAndGlyphs"
text-anchor="middle" opacity="0">R11</text>
</g>
<path d="M24695 5184
L24508 5315
" />
<path d="M24695 5409
L24302 5409
L24302 5259
L24320 5221
L24339 5202
L24377 5184
L24433 5184
L24470 5202
L24489 5221
L24508 5259
L24508 5409
" />
<path d="M24695 4809
L24695 5034
" />
<path d="M24695 4921
L24302 4921
L24358 4959
L24395 4996
L24414 5034
" />
<path d="M24695 4434
L24695 4659
" />
<path d="M24695 4546
L24302 4546
L24358 4584
L24395 4621
L24414 4659
" />
<g transform="rotate(-90 25009.8 3848.43)">
<text x="25009.8" y="4045.28"
textLength="1220.38" font-size="524.934" lengthAdjust="spacingAndGlyphs"
text-anchor="middle" opacity="0">R10</text>
</g>
<path d="M25187 4101
L25000 4232
" />
<path d="M25187 4326
L24794 4326
L24794 4176
L24812 4139
L24831 4120
L24869 4101
L24925 4101
L24962 4120
L24981 4139
L25000 4176
L25000 4326
" />
<path d="M25187 3726
L25187 3951
" />
<path d="M25187 3839
L24794 3839
L24850 3876
L24887 3914
L24906 3951
" />
<path d="M24794 3482
L24794 3445
L24812 3407
L24831 3389
L24869 3370
L24944 3351
L25037 3351
L25112 3370
L25150 3389
L25169 3407
L25187 3445
L25187 3482
L25169 3520
L25150 3539
L25112 3557
L25037 3576
L24944 3576
L24869 3557
L24831 3539
L24812 3520
L24794 3482
" />
<g transform="rotate(-90 24517.7 4045.28)">
<text x="24517.7" y="4242.13"
textLength="845.426" font-size="524.934" lengthAdjust="spacingAndGlyphs"
text-anchor="middle" opacity="0">R9</text>
</g>
<path d="M24695 4110
L24508 4242
" />
<path d="M24695 4335
L24302 4335
L24302 4185
L24320 4148
L24339 4129
L24377 4110
L24433 4110
L24470 4129
L24489 4148
L24508 4185
L24508 4335
" />
<path d="M24695 3923
L24695 3848
L24677 3810
L24658 3792
L24602 3754
L24527 3735
L24377 3735
L24339 3754
L24320 3773
L24302 3810
L24302 3885
L24320 3923
L24339 3942
L24377 3960
L24470 3960
L24508 3942
L24527 3923
L24545 3885
L24545 3810
L24527 3773
L24508 3754
L24470 3735
" />
<g transform="rotate(-90 19222.4 6643.7)">
<text x="19222.4" y="6840.55"
textLength="845.426" font-size="524.934" lengthAdjust="spacingAndGlyphs"
text-anchor="middle" opacity="0">R8</text>
</g>
<path d="M19400 6709
L19213 6840
" />
<path d="M19400 6934
L19006 6934
L19006 6784
L19025 6746
L19044 6728
L19081 6709
L19138 6709
L19175 6728
L19194 6746
L19213 6784
L19213 6934
" />
<path d="M19175 6484
L19156 6521
L19138 6540
L19100 6559
L19081 6559
L19044 6540
L19025 6521
L19006 6484
L19006 6409
L19025 6371
L19044 6353
L19081 6334
L19100 6334
L19138 6353
L19156 6371
L19175 6409
L19175 6484
L19194 6521
L19213 6540
L19250 6559
L19325 6559
L19363 6540
L19381 6521
L19400 6484
L19400 6409
L19381 6371
L19363 6353
L19325 6334
L19250 6334
L19213 6353
L19194 6371
L19175 6409
" />
<g transform="rotate(-90 20246.1 6604.33)">
<text x="20246.1" y="6801.18"
textLength="845.426" font-size="524.934" lengthAdjust="spacingAndGlyphs"
text-anchor="middle" opacity="0">R7</text>
</g>
<path d="M20424 6669
L20236 6801
" />
<path d="M20424 6894
L20030 6894
L20030 6744
L20049 6707
L20067 6688
L20105 6669
L20161 6669
L20199 6688
L20217 6707
L20236 6744
L20236 6894
" />
<path d="M20030 6538
L20030 6276
L20424 6444
" />
<text x="20009.8" y="6210.63"
textLength="845.426" font-size="524.934" lengthAdjust="spacingAndGlyphs"
text-anchor="middle" opacity="0">R6</text>
<path d="M19944 6191
L19812 6004
" />
<path d="M19719 6191
L19719 5798
L19869 5798
L19906 5816
L19925 5835
L19944 5873
L19944 5929
L19925 5966
L19906 5985
L19869 6004
L19719 6004
" />
<path d="M20281 5798
L20206 5798
L20169 5816
L20150 5835
L20112 5891
L20094 5966
L20094 6116
L20112 6154
L20131 6173
L20169 6191
L20244 6191
L20281 6173
L20300 6154
L20319 6116
L20319 6023
L20300 5985
L20281 5966
L20244 5948
L20169 5948
L20131 5966
L20112 5985
L20094 6023
" />
<text x="18612.2" y="8179.13"
textLength="845.426" font-size="524.934" lengthAdjust="spacingAndGlyphs"
text-anchor="middle" opacity="0">R5</text>
<path d="M18546 8160
L18415 7972
" />
<path d="M18321 8160
L18321 7766
L18471 7766
L18509 7785
L18527 7804
L18546 7841
L18546 7897
L18527 7935
L18509 7954
L18471 7972
L18321 7972
" />
<path d="M18902 7766
L18715 7766
L18696 7954
L18715 7935
L18752 7916
L18846 7916
L18884 7935
L18902 7954
L18921 7991
L18921 8085
L18902 8122
L18884 8141
L18846 8160
L18752 8160
L18715 8141
L18696 8122
" />
<text x="19301.2" y="6210.63"
textLength="845.426" font-size="524.934" lengthAdjust="spacingAndGlyphs"
text-anchor="middle" opacity="0">R4</text>
<path d="M19235 6191
L19104 6004
" />
<path d="M19010 6191
L19010 5798
L19160 5798
L19198 5816
L19216 5835
L19235 5873
L19235 5929
L19216 5966
L19198 5985
L19160 6004
L19010 6004
" />
<path d="M19573 5929
L19573 6191
" />
<path d="M19479 5779
L19385 6060
L19629 6060
" />
<text x="16230.3" y="7509.84"
textLength="845.426" font-size="524.934" lengthAdjust="spacingAndGlyphs"
text-anchor="middle" opacity="0">R3</text>
<path d="M16164 7491
L16033 7303
" />
<path d="M15939 7491
L15939 7097
L16089 7097
L16127 7116
L16145 7134
L16164 7172
L16164 7228
L16145 7266
L16127 7284
L16089 7303
L15939 7303
" />
<path d="M16295 7097
L16539 7097
L16408 7247
L16464 7247
L16502 7266
L16520 7284
L16539 7322
L16539 7416
L16520 7453
L16502 7472
L16464 7491
L16352 7491
L16314 7472
L16295 7453
" />
<text x="11624" y="1564.96"
textLength="845.426" font-size="524.934" lengthAdjust="spacingAndGlyphs"
text-anchor="middle" opacity="0">R2</text>
<path d="M11558 1546
L11427 1358
" />
<path d="M11333 1546
L11333 1152
L11483 1152
L11520 1171
L11539 1190
L11558 1227
L11558 1283
L11539 1321
L11520 1339
L11483 1358
L11333 1358
" />
<path d="M11708 1190
L11727 1171
L11764 1152
L11858 1152
L11895 1171
L11914 1190
L11933 1227
L11933 1264
L11914 1321
L11689 1546
L11933 1546
" />
<g transform="rotate(-90 6545.28 9793.31)">
<text x="6545.28" y="9990.16"
textLength="845.426" font-size="524.934" lengthAdjust="spacingAndGlyphs"
text-anchor="middle" opacity="0">R1</text>
</g>
<path d="M6723 9858
L6535 9990
" />
<path d="M6723 10083
L6329 10083
L6329 9933
L6348 9896
L6367 9877
L6404 9858
L6460 9858
L6498 9877
L6517 9896
L6535 9933
L6535 10083
" />
<path d="M6723 9483
L6723 9708
" />
<path d="M6723 9596
L6329 9596
L6385 9633
L6423 9671
L6442 9708
" />
<text x="19498" y="4635.83"
textLength="864.173" font-size="524.934" lengthAdjust="spacingAndGlyphs"
text-anchor="middle" opacity="0">Q2</text>
<path d="M19460 4654
L19423 4635
L19385 4598
L19329 4542
L19291 4523
L19254 4523
" />
<path d="M19273 4617
L19235 4598
L19198 4560
L19179 4485
L19179 4354
L19198 4279
L19235 4242
L19273 4223
L19348 4223
L19385 4242
L19423 4279
L19441 4354
L19441 4485
L19423 4560
L19385 4598
L19348 4617
L19273 4617
" />
<path d="M19591 4260
L19610 4242
L19648 4223
L19741 4223
L19779 4242
L19797 4260
L19816 4298
L19816 4335
L19797 4392
L19573 4617
L19816 4617
" />
<text x="16742.1" y="4635.83"
textLength="864.173" font-size="524.934" lengthAdjust="spacingAndGlyphs"
text-anchor="middle" opacity="0">Q1</text>
<path d="M16704 4654
L16667 4635
L16629 4598
L16573 4542
L16535 4523
L16498 4523
" />
<path d="M16517 4617
L16479 4598
L16442 4560
L16423 4485
L16423 4354
L16442 4279
L16479 4242
L16517 4223
L16592 4223
L16629 4242
L16667 4279
L16685 4354
L16685 4485
L16667 4560
L16629 4598
L16592 4617
L16517 4617
" />
<path d="M17060 4617
L16835 4617
" />
<path d="M16948 4617
L16948 4223
L16910 4279
L16873 4317
L16835 4335
" />
<text x="17561" y="12116.1"
textLength="751.687" font-size="524.934" lengthAdjust="spacingAndGlyphs"
text-anchor="middle" opacity="0">J6</text>
<path d="M17429 11703
L17429 11984
L17411 12041
L17373 12078
L17317 12097
L17279 12097
" />
<path d="M17785 11703
L17711 11703
L17673 11722
L17654 11741
L17617 11797
L17598 11872
L17598 12022
L17617 12059
L17636 12078
L17673 12097
L17748 12097
L17785 12078
L17804 12059
L17823 12022
L17823 11928
L17804 11891
L17785 11872
L17748 11853
L17673 11853
L17636 11872
L17617 11891
L17598 11928
" />
<text x="15049.2" y="1643.7"
textLength="751.687" font-size="524.934" lengthAdjust="spacingAndGlyphs"
text-anchor="middle" opacity="0">J5</text>
<path d="M14917 1231
L14917 1512
L14899 1568
L14861 1606
L14805 1624
L14767 1624
" />
<path d="M15292 1231
L15105 1231
L15086 1418
L15105 1399
L15142 1381
L15236 1381
L15274 1399
L15292 1418
L15311 1456
L15311 1549
L15292 1587
L15274 1606
L15236 1624
L15142 1624
L15105 1606
L15086 1587
" />
<text x="21269.7" y="2076.77"
textLength="751.687" font-size="524.934" lengthAdjust="spacingAndGlyphs"
text-anchor="middle" opacity="0">J4</text>
<path d="M21138 1664
L21138 1945
L21119 2001
L21082 2039
L21025 2058
L20988 2058
" />
<path d="M21494 1795
L21494 2058
" />
<path d="M21400 1645
L21307 1926
L21550 1926
" />
<text x="22253.9" y="9500"
textLength="751.687" font-size="524.934" lengthAdjust="spacingAndGlyphs"
text-anchor="middle" opacity="0">J3</text>
<path d="M22122 9087
L22122 9368
L22103 9425
L22066 9462
L22010 9481
L21972 9481
" />
<path d="M22272 9087
L22516 9087
L22385 9237
L22441 9237
L22478 9256
L22497 9275
L22516 9312
L22516 9406
L22497 9443
L22478 9462
L22441 9481
L22328 9481
L22291 9462
L22272 9443
" />
<g transform="rotate(-90 5293.31 11919.3)">
<text x="5293.31" y="12116.1"
textLength="751.687" font-size="524.934" lengthAdjust="spacingAndGlyphs"
text-anchor="middle" opacity="0">J1</text>
</g>
<path d="M5077 12050
L5358 12050
L5415 12069
L5452 12106
L5471 12163
L5471 12200
" />
<path d="M5471 11656
L5471 11881
" />
<path d="M5471 11769
L5077 11769
L5133 11806
L5171 11844
L5190 11881
" />
<text x="25698.8" y="1683.07"
textLength="845.426" font-size="524.934" lengthAdjust="spacingAndGlyphs"
text-anchor="middle" opacity="0">D3</text>
<path d="M25408 1664
L25408 1270
L25501 1270
L25558 1289
L25595 1326
L25614 1364
L25633 1439
L25633 1495
L25614 1570
L25595 1608
L25558 1645
L25501 1664
L25408 1664
" />
<path d="M25764 1270
L26008 1270
L25876 1420
L25933 1420
L25970 1439
L25989 1458
L26008 1495
L26008 1589
L25989 1626
L25970 1645
L25933 1664
L25820 1664
L25783 1645
L25764 1626
" />
<text x="16230.3" y="7982.28"
textLength="845.426" font-size="524.934" lengthAdjust="spacingAndGlyphs"
text-anchor="middle" opacity="0">D2</text>
<path d="M15939 7963
L15939 7569
L16033 7569
L16089 7588
L16127 7626
L16145 7663
L16164 7738
L16164 7794
L16145 7869
L16127 7907
L16089 7944
L16033 7963
L15939 7963
" />
<path d="M16314 7607
L16333 7588
L16370 7569
L16464 7569
L16502 7588
L16520 7607
L16539 7644
L16539 7682
L16520 7738
L16295 7963
L16539 7963
" />
<text x="14281.5" y="1683.07"
textLength="845.426" font-size="524.934" lengthAdjust="spacingAndGlyphs"
text-anchor="middle" opacity="0">D1</text>
<path d="M13990 1664
L13990 1270
L14084 1270
L14140 1289
L14178 1326
L14197 1364
L14215 1439
L14215 1495
L14197 1570
L14178 1608
L14140 1645
L14084 1664
L13990 1664
" />
<path d="M14590 1664
L14365 1664
" />
<path d="M14478 1664
L14478 1270
L14440 1326
L14403 1364
L14365 1383
" />
<text x="23553.2" y="3375.98"
textLength="845.426" font-size="524.934" lengthAdjust="spacingAndGlyphs"
text-anchor="middle" opacity="0">C9</text>
<path d="M23487 3319
L23468 3338
L23412 3357
L23375 3357
L23318 3338
L23281 3300
L23262 3263
L23243 3188
L23243 3132
L23262 3057
L23281 3019
L23318 2982
L23375 2963
L23412 2963
L23468 2982
L23487 3001
" />
<path d="M23675 3357
L23750 3357
L23787 3338
L23806 3319
L23843 3263
L23862 3188
L23862 3038
L23843 3001
L23824 2982
L23787 2963
L23712 2963
L23675 2982
L23656 3001
L23637 3038
L23637 3132
L23656 3169
L23675 3188
L23712 3207
L23787 3207
L23824 3188
L23843 3169
L23862 3132
" />
<text x="16053.1" y="1486.22"
textLength="845.426" font-size="524.934" lengthAdjust="spacingAndGlyphs"
text-anchor="middle" opacity="0">C8</text>
<path d="M15987 1429
L15968 1448
L15912 1467
L15875 1467
L15818 1448
L15781 1411
L15762 1373
L15743 1298
L15743 1242
L15762 1167
L15781 1130
L15818 1092
L15875 1073
L15912 1073
L15968 1092
L15987 1111
" />
<path d="M16212 1242
L16175 1223
L16156 1205
L16137 1167
L16137 1148
L16156 1111
L16175 1092
L16212 1073
L16287 1073
L16324 1092
L16343 1111
L16362 1148
L16362 1167
L16343 1205
L16324 1223
L16287 1242
L16212 1242
L16175 1261
L16156 1279
L16137 1317
L16137 1392
L16156 1429
L16175 1448
L16212 1467
L16287 1467
L16324 1448
L16343 1429
L16362 1392
L16362 1317
L16343 1279
L16324 1261
L16287 1242
" />
<text x="21072.8" y="3946.85"
textLength="845.426" font-size="524.934" lengthAdjust="spacingAndGlyphs"
text-anchor="middle" opacity="0">C7</text>
<path d="M21007 3890
L20988 3909
L20932 3928
L20894 3928
L20838 3909
L20800 3871
L20782 3834
L20763 3759
L20763 3703
L20782 3628
L20800 3590
L20838 3553
L20894 3534
L20932 3534
L20988 3553
L21007 3571
" />
<path d="M21138 3534
L21400 3534
L21232 3928
" />
<text x="21761.8" y="3946.85"
textLength="845.426" font-size="524.934" lengthAdjust="spacingAndGlyphs"
text-anchor="middle" opacity="0">C6</text>
<path d="M21696 3890
L21677 3909
L21621 3928
L21583 3928
L21527 3909
L21489 3871
L21471 3834
L21452 3759
L21452 3703
L21471 3628
L21489 3590
L21527 3553
L21583 3534
L21621 3534
L21677 3553
L21696 3571
" />
<path d="M22033 3534
L21958 3534
L21921 3553
L21902 3571
L21864 3628
L21846 3703
L21846 3853
L21864 3890
L21883 3909
L21921 3928
L21996 3928
L22033 3909
L22052 3890
L22071 3853
L22071 3759
L22052 3721
L22033 3703
L21996 3684
L21921 3684
L21883 3703
L21864 3721
L21846 3759
" />
<text x="15954.7" y="4832.68"
textLength="845.426" font-size="524.934" lengthAdjust="spacingAndGlyphs"
text-anchor="middle" opacity="0">C5</text>
<path d="M15889 4776
L15870 4795
L15814 4813
L15776 4813
L15720 4795
L15682 4757
L15664 4720
L15645 4645
L15645 4588
L15664 4513
L15682 4476
L15720 4438
L15776 4420
L15814 4420
L15870 4438
L15889 4457
" />
<path d="M16245 4420
L16057 4420
L16039 4607
L16057 4588
L16095 4570
L16189 4570
L16226 4588
L16245 4607
L16264 4645
L16264 4738
L16245 4776
L16226 4795
L16189 4813
L16095 4813
L16057 4795
L16039 4776
" />
<g transform="rotate(-90 19773.6 6643.7)">
<text x="19773.6" y="6840.55"
textLength="845.426" font-size="524.934" lengthAdjust="spacingAndGlyphs"
text-anchor="middle" opacity="0">C4</text>
</g>
<path d="M19914 6709
L19932 6728
L19951 6784
L19951 6821
L19932 6878
L19895 6915
L19857 6934
L19782 6953
L19726 6953
L19651 6934
L19614 6915
L19576 6878
L19558 6821
L19558 6784
L19576 6728
L19595 6709
" />
<path d="M19689 6371
L19951 6371
" />
<path d="M19539 6465
L19820 6559
L19820 6315
" />
<text x="4261.81" y="11013.8"
textLength="845.426" font-size="524.934" lengthAdjust="spacingAndGlyphs"
text-anchor="middle" opacity="0">C3</text>
<path d="M4196 10957
L4177 10976
L4121 10995
L4083 10995
L4027 10976
L3989 10938
L3971 10901
L3952 10826
L3952 10770
L3971 10695
L3989 10657
L4027 10620
L4083 10601
L4121 10601
L4177 10620
L4196 10638
" />
<path d="M4327 10601
L4571 10601
L4439 10751
L4496 10751
L4533 10770
L4552 10788
L4571 10826
L4571 10920
L4552 10957
L4533 10976
L4496 10995
L4383 10995
L4346 10976
L4327 10957
" />
<text x="4261.81" y="10226.4"
textLength="845.426" font-size="524.934" lengthAdjust="spacingAndGlyphs"
text-anchor="middle" opacity="0">C2</text>
<path d="M4196 10170
L4177 10188
L4121 10207
L4083 10207
L4027 10188
L3989 10151
L3971 10113
L3952 10038
L3952 9982
L3971 9907
L3989 9870
L4027 9832
L4083 9813
L4121 9813
L4177 9832
L4196 9851
" />
<path d="M4346 9851
L4364 9832
L4402 9813
L4496 9813
L4533 9832
L4552 9851
L4571 9888
L4571 9926
L4552 9982
L4327 10207
L4571 10207
" />
<g transform="rotate(-90 7017.72 9793.31)">
<text x="7017.72" y="9990.16"
textLength="845.426" font-size="524.934" lengthAdjust="spacingAndGlyphs"
text-anchor="middle" opacity="0">C1</text>
</g>
<path d="M7158 9858
L7177 9877
L7195 9933
L7195 9971
L7177 10027
L7139 10065
L7102 10083
L7027 10102
L6970 10102
L6895 10083
L6858 10065
L6820 10027
L6802 9971
L6802 9933
L6820 9877
L6839 9858
" />
<path d="M7195 9483
L7195 9708
" />
<path d="M7195 9596
L6802 9596
L6858 9633
L6895 9671
L6914 9708
" />
<g >
</g>
</g>
<g style="fill:#000000; fill-opacity:0.0; 
stroke:#000000; stroke-width:59.0551; stroke-opacity:1; 
stroke-linecap:round; stroke-linejoin:round;">
</g>
<g style="fill:#000000; fill-opacity:0.0; 
stroke:#000000; stroke-width:19.685; stroke-opacity:1; 
stroke-linecap:round; stroke-linejoin:round;">
<path d="M27568 895
L27568 12706
" />
<path d="M1978 895
L1978 12706
" />
<path d="M27568 895
L1978 895
" />
<path d="M1978 12706
L27568 12706
" />
<g >
</g>
<g >
</g>
<g >
</g>
<g >
</g>
<g >
</g>
<g >
</g>
<g >
</g>
<g >
</g>
<g >
</g>
<g >
</g>
<g >
</g>
<g >
</g>
<g >
</g>
<g >
</g>
<g >
</g>
<g >
</g>
<g >
</g>
<g >
</g>
<g >
</g>
<g >
</g>
<g >
</g>
<g >
</g>
<g >
</g>
<g >
</g>
<g >
</g>
<g >
</g>
<g >
</g>
<g >
</g>
<g >
</g>
<g >
</g>
<g >
</g>
<g >
</g>
<g >
</g>
<g >
</g>
<g >
</g>
<g >
</g>
<g >
</g>
<g >
</g>
<g >
</g>
<g >
</g>
<g >
</g>
<g >
</g>
<g >
</g>
<g >
</g>
<g >
</g>
<g >
</g>
<g >
</g>
<g >
</g>
<g >
</g>
<g >
</g>
<g >
</g>
<g >
</g>
<g >
</g>
<g >
</g>
<g >
</g>
<g >
</g>
<g >
</g>
</g> 
</svg>
