<?xml version="1.0" standalone="no"?>
 <!DOCTYPE svg PUBLIC "-//W3C//DTD SVG 1.1//EN" 
 "http://www.w3.org/Graphics/SVG/1.1/DTD/svg11.dtd"> 
<svg
  xmlns:svg="http://www.w3.org/2000/svg"
  xmlns="http://www.w3.org/2000/svg"
  xmlns:xlink="http://www.w3.org/1999/xlink"
  version="1.1"
  width="7.500620cm" height="3.525520cm" viewBox="0 0 29530 13880">
<title>SVG Picture created as epaper-F_Mask.svg date 2020/09/06 13:08:15 </title>
  <desc>Picture generated by PCBNEW </desc>
<g style="fill:#000000; fill-opacity:1;stroke:#000000; stroke-opacity:1;
stroke-linecap:round; stroke-linejoin:round;"
 transform="translate(0 0) scale(1 1)">
</g>
<g style="fill:#000000; fill-opacity:0.0; 
stroke:#000000; stroke-width:-0.000393701; stroke-opacity:1; 
stroke-linecap:round; stroke-linejoin:round;">
<g >
</g>
<g style="fill:#000000; fill-opacity:0.0; 
stroke:#000000; stroke-width:0; stroke-opacity:1; 
stroke-linecap:round; stroke-linejoin:round;">
</g>
<g style="fill:#000000; fill-opacity:1.0; 
stroke:#000000; stroke-width:0; stroke-opacity:1; 
stroke-linecap:round; stroke-linejoin:round;">
<path style="fill:#000000; fill-opacity:1.0; 
stroke:#000000; stroke-width:0; stroke-opacity:1; 
stroke-linecap:round; stroke-linejoin:round;fill-rule:evenodd;"
d="M 16072.8,6574.8
16072.8,6791.34
15797.2,6791.34
15797.2,6574.8
Z" /> 
<path style="fill:#000000; fill-opacity:1.0; 
stroke:#000000; stroke-width:0; stroke-opacity:1; 
stroke-linecap:round; stroke-linejoin:round;fill-rule:evenodd;"
d="M 16899.6,6574.8
16899.6,6791.34
16624,6791.34
16624,6574.8
Z" /> 
</g>
<g >
</g>
<g >
</g>
<g >
</g>
<g >
</g>
<g >
</g>
<g >
</g>
<g >
</g>
<g >
</g>
<g >
</g>
<g >
</g>
<g >
</g>
<g >
</g>
<g style="fill:#000000; fill-opacity:1.0; 
stroke:#000000; stroke-width:0; stroke-opacity:1; 
stroke-linecap:round; stroke-linejoin:round;">
</g>
<g style="fill:#000000; fill-opacity:1.0; 
stroke:#000000; stroke-width:708.661; stroke-opacity:1; 
stroke-linecap:round; stroke-linejoin:round;">
</g>
<g style="fill:#000000; fill-opacity:0.0; 
stroke:#000000; stroke-width:708.661; stroke-opacity:1; 
stroke-linecap:round; stroke-linejoin:round;">
<path d="M26781 10962
L26781 10962
" />
<path d="M26781 9962
L26781 9962
" />
<path d="M26781 8962
L26781 8962
" />
<path d="M26781 7962
L26781 7962
" />
<path d="M26781 6962
L26781 6962
" />
<path d="M26781 5962
L26781 5962
" />
<path d="M26781 4962
L26781 4962
" />
<path d="M26781 3962
L26781 3962
" />
</g>
<g style="fill:#000000; fill-opacity:0.0; 
stroke:#000000; stroke-width:0; stroke-opacity:1; 
stroke-linecap:round; stroke-linejoin:round;">
</g>
<g style="fill:#000000; fill-opacity:1.0; 
stroke:#000000; stroke-width:0; stroke-opacity:1; 
stroke-linecap:round; stroke-linejoin:round;">
<path style="fill:#000000; fill-opacity:1.0; 
stroke:#000000; stroke-width:0; stroke-opacity:1; 
stroke-linecap:round; stroke-linejoin:round;fill-rule:evenodd;"
d="M 26427.2,3316.93
26427.2,2608.27
27135.8,2608.27
27135.8,3316.93
Z" /> 
</g>
<g >
</g>
<g >
</g>
<g style="fill:#000000; fill-opacity:1.0; 
stroke:#000000; stroke-width:0; stroke-opacity:1; 
stroke-linecap:round; stroke-linejoin:round;">
<path style="fill:#000000; fill-opacity:1.0; 
stroke:#000000; stroke-width:0; stroke-opacity:1; 
stroke-linecap:round; stroke-linejoin:round;fill-rule:evenodd;"
d="M 22972.4,4694.88
23267.7,4694.88
23267.7,5214.57
22972.4,5214.57
Z" /> 
<path style="fill:#000000; fill-opacity:1.0; 
stroke:#000000; stroke-width:0; stroke-opacity:1; 
stroke-linecap:round; stroke-linejoin:round;fill-rule:evenodd;"
d="M 22224.4,4694.88
22519.7,4694.88
22519.7,5214.57
22224.4,5214.57
Z" /> 
<path style="fill:#000000; fill-opacity:1.0; 
stroke:#000000; stroke-width:0; stroke-opacity:1; 
stroke-linecap:round; stroke-linejoin:round;fill-rule:evenodd;"
d="M 22224.4,3663.39
22519.7,3663.39
22519.7,4183.07
22224.4,4183.07
Z" /> 
<path style="fill:#000000; fill-opacity:1.0; 
stroke:#000000; stroke-width:0; stroke-opacity:1; 
stroke-linecap:round; stroke-linejoin:round;fill-rule:evenodd;"
d="M 22598.4,3663.39
22893.7,3663.39
22893.7,4183.07
22598.4,4183.07
Z" /> 
<path style="fill:#000000; fill-opacity:1.0; 
stroke:#000000; stroke-width:0; stroke-opacity:1; 
stroke-linecap:round; stroke-linejoin:round;fill-rule:evenodd;"
d="M 22972.4,3663.39
23267.7,3663.39
23267.7,4183.07
22972.4,4183.07
Z" /> 
</g>
<g >
</g>
<g style="fill:#000000; fill-opacity:1.0; 
stroke:#000000; stroke-width:0; stroke-opacity:1; 
stroke-linecap:round; stroke-linejoin:round;">
<path style="fill:#000000; fill-opacity:1.0; 
stroke:#000000; stroke-width:0; stroke-opacity:1; 
stroke-linecap:round; stroke-linejoin:round;fill-rule:evenodd;"
d="M 16565,2273.62
16565,1643.7
17391.7,1643.7
17391.7,2273.62
Z" /> 
<path style="fill:#000000; fill-opacity:1.0; 
stroke:#000000; stroke-width:0; stroke-opacity:1; 
stroke-linecap:round; stroke-linejoin:round;fill-rule:evenodd;"
d="M 16565,4084.65
16565,3454.72
17391.7,3454.72
17391.7,4084.65
Z" /> 
<path style="fill:#000000; fill-opacity:1.0; 
stroke:#000000; stroke-width:0; stroke-opacity:1; 
stroke-linecap:round; stroke-linejoin:round;fill-rule:evenodd;"
d="M 16565,3179.13
16565,2549.21
17391.7,2549.21
17391.7,3179.13
Z" /> 
<path style="fill:#000000; fill-opacity:1.0; 
stroke:#000000; stroke-width:0; stroke-opacity:1; 
stroke-linecap:round; stroke-linejoin:round;fill-rule:evenodd;"
d="M 19045.3,3631.89
19045.3,2096.46
19872,2096.46
19872,3631.89
Z" /> 
</g>
<g >
</g>
<g style="fill:#000000; fill-opacity:1.0; 
stroke:#000000; stroke-width:0; stroke-opacity:1; 
stroke-linecap:round; stroke-linejoin:round;">
<path style="fill:#000000; fill-opacity:1.0; 
stroke:#000000; stroke-width:0; stroke-opacity:1; 
stroke-linecap:round; stroke-linejoin:round;fill-rule:evenodd;"
d="M 5224.41,2687.01
4830.71,2687.01
4830.71,1860.24
5224.41,1860.24
Z" /> 
<path style="fill:#000000; fill-opacity:1.0; 
stroke:#000000; stroke-width:0; stroke-opacity:1; 
stroke-linecap:round; stroke-linejoin:round;fill-rule:evenodd;"
d="M 5724.41,2687.01
5330.71,2687.01
5330.71,1860.24
5724.41,1860.24
Z" /> 
<path style="fill:#000000; fill-opacity:1.0; 
stroke:#000000; stroke-width:0; stroke-opacity:1; 
stroke-linecap:round; stroke-linejoin:round;fill-rule:evenodd;"
d="M 6224.41,2687.01
5830.71,2687.01
5830.71,1860.24
6224.41,1860.24
Z" /> 
<path style="fill:#000000; fill-opacity:1.0; 
stroke:#000000; stroke-width:0; stroke-opacity:1; 
stroke-linecap:round; stroke-linejoin:round;fill-rule:evenodd;"
d="M 6724.41,2687.01
6330.71,2687.01
6330.71,1860.24
6724.41,1860.24
Z" /> 
<path style="fill:#000000; fill-opacity:1.0; 
stroke:#000000; stroke-width:0; stroke-opacity:1; 
stroke-linecap:round; stroke-linejoin:round;fill-rule:evenodd;"
d="M 7224.41,2687.01
6830.71,2687.01
6830.71,1860.24
7224.41,1860.24
Z" /> 
<path style="fill:#000000; fill-opacity:1.0; 
stroke:#000000; stroke-width:0; stroke-opacity:1; 
stroke-linecap:round; stroke-linejoin:round;fill-rule:evenodd;"
d="M 7724.41,2687.01
7330.71,2687.01
7330.71,1860.24
7724.41,1860.24
Z" /> 
<path style="fill:#000000; fill-opacity:1.0; 
stroke:#000000; stroke-width:0; stroke-opacity:1; 
stroke-linecap:round; stroke-linejoin:round;fill-rule:evenodd;"
d="M 8224.41,2687.01
7830.71,2687.01
7830.71,1860.24
8224.41,1860.24
Z" /> 
<path style="fill:#000000; fill-opacity:1.0; 
stroke:#000000; stroke-width:0; stroke-opacity:1; 
stroke-linecap:round; stroke-linejoin:round;fill-rule:evenodd;"
d="M 8724.41,2687.01
8330.71,2687.01
8330.71,1860.24
8724.41,1860.24
Z" /> 
<path style="fill:#000000; fill-opacity:1.0; 
stroke:#000000; stroke-width:0; stroke-opacity:1; 
stroke-linecap:round; stroke-linejoin:round;fill-rule:evenodd;"
d="M 9224.41,2687.01
8830.71,2687.01
8830.71,1860.24
9224.41,1860.24
Z" /> 
<path style="fill:#000000; fill-opacity:1.0; 
stroke:#000000; stroke-width:0; stroke-opacity:1; 
stroke-linecap:round; stroke-linejoin:round;fill-rule:evenodd;"
d="M 9724.41,2687.01
9330.71,2687.01
9330.71,1860.24
9724.41,1860.24
Z" /> 
<path style="fill:#000000; fill-opacity:1.0; 
stroke:#000000; stroke-width:0; stroke-opacity:1; 
stroke-linecap:round; stroke-linejoin:round;fill-rule:evenodd;"
d="M 10224.4,2687.01
9830.71,2687.01
9830.71,1860.24
10224.4,1860.24
Z" /> 
<path style="fill:#000000; fill-opacity:1.0; 
stroke:#000000; stroke-width:0; stroke-opacity:1; 
stroke-linecap:round; stroke-linejoin:round;fill-rule:evenodd;"
d="M 10724.4,2687.01
10330.7,2687.01
10330.7,1860.24
10724.4,1860.24
Z" /> 
<path style="fill:#000000; fill-opacity:1.0; 
stroke:#000000; stroke-width:0; stroke-opacity:1; 
stroke-linecap:round; stroke-linejoin:round;fill-rule:evenodd;"
d="M 11224.4,2687.01
10830.7,2687.01
10830.7,1860.24
11224.4,1860.24
Z" /> 
<path style="fill:#000000; fill-opacity:1.0; 
stroke:#000000; stroke-width:0; stroke-opacity:1; 
stroke-linecap:round; stroke-linejoin:round;fill-rule:evenodd;"
d="M 11724.4,2687.01
11330.7,2687.01
11330.7,1860.24
11724.4,1860.24
Z" /> 
<path style="fill:#000000; fill-opacity:1.0; 
stroke:#000000; stroke-width:0; stroke-opacity:1; 
stroke-linecap:round; stroke-linejoin:round;fill-rule:evenodd;"
d="M 12334.6,3173.23
12334.6,3566.93
11507.9,3566.93
11507.9,3173.23
Z" /> 
<path style="fill:#000000; fill-opacity:1.0; 
stroke:#000000; stroke-width:0; stroke-opacity:1; 
stroke-linecap:round; stroke-linejoin:round;fill-rule:evenodd;"
d="M 12334.6,3673.23
12334.6,4066.93
11507.9,4066.93
11507.9,3673.23
Z" /> 
<path style="fill:#000000; fill-opacity:1.0; 
stroke:#000000; stroke-width:0; stroke-opacity:1; 
stroke-linecap:round; stroke-linejoin:round;fill-rule:evenodd;"
d="M 12334.6,4173.23
12334.6,4566.93
11507.9,4566.93
11507.9,4173.23
Z" /> 
<path style="fill:#000000; fill-opacity:1.0; 
stroke:#000000; stroke-width:0; stroke-opacity:1; 
stroke-linecap:round; stroke-linejoin:round;fill-rule:evenodd;"
d="M 12334.6,4673.23
12334.6,5066.93
11507.9,5066.93
11507.9,4673.23
Z" /> 
<path style="fill:#000000; fill-opacity:1.0; 
stroke:#000000; stroke-width:0; stroke-opacity:1; 
stroke-linecap:round; stroke-linejoin:round;fill-rule:evenodd;"
d="M 12334.6,5173.23
12334.6,5566.93
11507.9,5566.93
11507.9,5173.23
Z" /> 
<path style="fill:#000000; fill-opacity:1.0; 
stroke:#000000; stroke-width:0; stroke-opacity:1; 
stroke-linecap:round; stroke-linejoin:round;fill-rule:evenodd;"
d="M 12334.6,5673.23
12334.6,6066.93
11507.9,6066.93
11507.9,5673.23
Z" /> 
<path style="fill:#000000; fill-opacity:1.0; 
stroke:#000000; stroke-width:0; stroke-opacity:1; 
stroke-linecap:round; stroke-linejoin:round;fill-rule:evenodd;"
d="M 12334.6,6173.23
12334.6,6566.93
11507.9,6566.93
11507.9,6173.23
Z" /> 
<path style="fill:#000000; fill-opacity:1.0; 
stroke:#000000; stroke-width:0; stroke-opacity:1; 
stroke-linecap:round; stroke-linejoin:round;fill-rule:evenodd;"
d="M 12334.6,6673.23
12334.6,7066.93
11507.9,7066.93
11507.9,6673.23
Z" /> 
<path style="fill:#000000; fill-opacity:1.0; 
stroke:#000000; stroke-width:0; stroke-opacity:1; 
stroke-linecap:round; stroke-linejoin:round;fill-rule:evenodd;"
d="M 12334.6,7173.23
12334.6,7566.93
11507.9,7566.93
11507.9,7173.23
Z" /> 
<path style="fill:#000000; fill-opacity:1.0; 
stroke:#000000; stroke-width:0; stroke-opacity:1; 
stroke-linecap:round; stroke-linejoin:round;fill-rule:evenodd;"
d="M 12334.6,7673.23
12334.6,8066.93
11507.9,8066.93
11507.9,7673.23
Z" /> 
<path style="fill:#000000; fill-opacity:1.0; 
stroke:#000000; stroke-width:0; stroke-opacity:1; 
stroke-linecap:round; stroke-linejoin:round;fill-rule:evenodd;"
d="M 11724.4,9379.92
11330.7,9379.92
11330.7,8553.15
11724.4,8553.15
Z" /> 
<path style="fill:#000000; fill-opacity:1.0; 
stroke:#000000; stroke-width:0; stroke-opacity:1; 
stroke-linecap:round; stroke-linejoin:round;fill-rule:evenodd;"
d="M 11224.4,9379.92
10830.7,9379.92
10830.7,8553.15
11224.4,8553.15
Z" /> 
<path style="fill:#000000; fill-opacity:1.0; 
stroke:#000000; stroke-width:0; stroke-opacity:1; 
stroke-linecap:round; stroke-linejoin:round;fill-rule:evenodd;"
d="M 10724.4,9379.92
10330.7,9379.92
10330.7,8553.15
10724.4,8553.15
Z" /> 
<path style="fill:#000000; fill-opacity:1.0; 
stroke:#000000; stroke-width:0; stroke-opacity:1; 
stroke-linecap:round; stroke-linejoin:round;fill-rule:evenodd;"
d="M 10224.4,9379.92
9830.71,9379.92
9830.71,8553.15
10224.4,8553.15
Z" /> 
<path style="fill:#000000; fill-opacity:1.0; 
stroke:#000000; stroke-width:0; stroke-opacity:1; 
stroke-linecap:round; stroke-linejoin:round;fill-rule:evenodd;"
d="M 9724.41,9379.92
9330.71,9379.92
9330.71,8553.15
9724.41,8553.15
Z" /> 
<path style="fill:#000000; fill-opacity:1.0; 
stroke:#000000; stroke-width:0; stroke-opacity:1; 
stroke-linecap:round; stroke-linejoin:round;fill-rule:evenodd;"
d="M 9224.41,9379.92
8830.71,9379.92
8830.71,8553.15
9224.41,8553.15
Z" /> 
<path style="fill:#000000; fill-opacity:1.0; 
stroke:#000000; stroke-width:0; stroke-opacity:1; 
stroke-linecap:round; stroke-linejoin:round;fill-rule:evenodd;"
d="M 8724.41,9379.92
8330.71,9379.92
8330.71,8553.15
8724.41,8553.15
Z" /> 
<path style="fill:#000000; fill-opacity:1.0; 
stroke:#000000; stroke-width:0; stroke-opacity:1; 
stroke-linecap:round; stroke-linejoin:round;fill-rule:evenodd;"
d="M 8224.41,9379.92
7830.71,9379.92
7830.71,8553.15
8224.41,8553.15
Z" /> 
<path style="fill:#000000; fill-opacity:1.0; 
stroke:#000000; stroke-width:0; stroke-opacity:1; 
stroke-linecap:round; stroke-linejoin:round;fill-rule:evenodd;"
d="M 7724.41,9379.92
7330.71,9379.92
7330.71,8553.15
7724.41,8553.15
Z" /> 
<path style="fill:#000000; fill-opacity:1.0; 
stroke:#000000; stroke-width:0; stroke-opacity:1; 
stroke-linecap:round; stroke-linejoin:round;fill-rule:evenodd;"
d="M 7224.41,9379.92
6830.71,9379.92
6830.71,8553.15
7224.41,8553.15
Z" /> 
<path style="fill:#000000; fill-opacity:1.0; 
stroke:#000000; stroke-width:0; stroke-opacity:1; 
stroke-linecap:round; stroke-linejoin:round;fill-rule:evenodd;"
d="M 6724.41,9379.92
6330.71,9379.92
6330.71,8553.15
6724.41,8553.15
Z" /> 
<path style="fill:#000000; fill-opacity:1.0; 
stroke:#000000; stroke-width:0; stroke-opacity:1; 
stroke-linecap:round; stroke-linejoin:round;fill-rule:evenodd;"
d="M 6224.41,9379.92
5830.71,9379.92
5830.71,8553.15
6224.41,8553.15
Z" /> 
<path style="fill:#000000; fill-opacity:1.0; 
stroke:#000000; stroke-width:0; stroke-opacity:1; 
stroke-linecap:round; stroke-linejoin:round;fill-rule:evenodd;"
d="M 5724.41,9379.92
5330.71,9379.92
5330.71,8553.15
5724.41,8553.15
Z" /> 
<path style="fill:#000000; fill-opacity:1.0; 
stroke:#000000; stroke-width:0; stroke-opacity:1; 
stroke-linecap:round; stroke-linejoin:round;fill-rule:evenodd;"
d="M 5224.41,9379.92
4830.71,9379.92
4830.71,8553.15
5224.41,8553.15
Z" /> 
<path style="fill:#000000; fill-opacity:1.0; 
stroke:#000000; stroke-width:0; stroke-opacity:1; 
stroke-linecap:round; stroke-linejoin:round;fill-rule:evenodd;"
d="M 8984.25,7017.72
6976.38,7017.72
6976.38,5009.84
8984.25,5009.84
Z" /> 
</g>
<g >
</g>
<g style="fill:#000000; fill-opacity:1.0; 
stroke:#000000; stroke-width:0; stroke-opacity:1; 
stroke-linecap:round; stroke-linejoin:round;">
<path style="fill:#000000; fill-opacity:1.0; 
stroke:#000000; stroke-width:0; stroke-opacity:1; 
stroke-linecap:round; stroke-linejoin:round;fill-rule:evenodd;"
d="M 21683.1,6289.37
21683.1,6722.44
20541.3,6722.44
20541.3,6289.37
Z" /> 
<path style="fill:#000000; fill-opacity:1.0; 
stroke:#000000; stroke-width:0; stroke-opacity:1; 
stroke-linecap:round; stroke-linejoin:round;fill-rule:evenodd;"
d="M 23966.5,6289.37
23966.5,6722.44
22824.8,6722.44
22824.8,6289.37
Z" /> 
<path style="fill:#000000; fill-opacity:1.0; 
stroke:#000000; stroke-width:0; stroke-opacity:1; 
stroke-linecap:round; stroke-linejoin:round;fill-rule:evenodd;"
d="M 21683.1,7864.17
21683.1,8297.24
20541.3,8297.24
20541.3,7864.17
Z" /> 
<path style="fill:#000000; fill-opacity:1.0; 
stroke:#000000; stroke-width:0; stroke-opacity:1; 
stroke-linecap:round; stroke-linejoin:round;fill-rule:evenodd;"
d="M 23966.5,7864.17
23966.5,8297.24
22824.8,8297.24
22824.8,7864.17
Z" /> 
</g>
<g >
</g>
<g >
</g>
<g >
</g>
<g >
</g>
<g >
</g>
<g style="fill:#000000; fill-opacity:1.0; 
stroke:#000000; stroke-width:0; stroke-opacity:1; 
stroke-linecap:round; stroke-linejoin:round;">
<path style="fill:#000000; fill-opacity:1.0; 
stroke:#000000; stroke-width:0; stroke-opacity:1; 
stroke-linecap:round; stroke-linejoin:round;fill-rule:evenodd;"
d="M 23716.3,4986.55
23722.9,4987.53
23729.4,4989.15
23735.6,4991.39
23741.7,4994.24
23747.4,4997.67
23752.7,5001.64
23757.7,5006.11
23762.1,5011.05
23766.1,5016.4
23769.5,5022.12
23772.4,5028.14
23774.6,5034.42
23776.3,5040.89
23777.2,5047.48
23777.6,5054.13
23777.6,5189.96
23777.2,5196.62
23776.3,5203.21
23774.6,5209.68
23772.4,5215.95
23769.5,5221.98
23766.1,5227.69
23762.1,5233.04
23757.7,5237.98
23752.7,5242.46
23747.4,5246.43
23741.7,5249.86
23735.6,5252.7
23729.4,5254.95
23722.9,5256.57
23716.3,5257.55
23709.6,5257.87
23554.1,5257.87
23547.5,5257.55
23540.9,5256.57
23534.4,5254.95
23528.1,5252.7
23522.1,5249.86
23516.4,5246.43
23511.1,5242.46
23506.1,5237.98
23501.6,5233.04
23497.7,5227.69
23494.2,5221.98
23491.4,5215.95
23489.1,5209.68
23487.5,5203.21
23486.5,5196.62
23486.2,5189.96
23486.2,5054.13
23486.5,5047.48
23487.5,5040.89
23489.1,5034.42
23491.4,5028.14
23494.2,5022.12
23497.7,5016.4
23501.6,5011.05
23506.1,5006.11
23511.1,5001.64
23516.4,4997.67
23522.1,4994.24
23528.1,4991.39
23534.4,4989.15
23540.9,4987.53
23547.5,4986.55
23554.1,4986.22
23709.6,4986.22
Z" /> 
<path style="fill:#000000; fill-opacity:1.0; 
stroke:#000000; stroke-width:0; stroke-opacity:1; 
stroke-linecap:round; stroke-linejoin:round;fill-rule:evenodd;"
d="M 23716.3,4604.66
23722.9,4605.64
23729.4,4607.26
23735.6,4609.5
23741.7,4612.35
23747.4,4615.78
23752.7,4619.75
23757.7,4624.22
23762.1,4629.16
23766.1,4634.51
23769.5,4640.23
23772.4,4646.26
23774.6,4652.53
23776.3,4659
23777.2,4665.59
23777.6,4672.24
23777.6,4808.07
23777.2,4814.73
23776.3,4821.32
23774.6,4827.79
23772.4,4834.06
23769.5,4840.09
23766.1,4845.8
23762.1,4851.16
23757.7,4856.09
23752.7,4860.57
23747.4,4864.54
23741.7,4867.97
23735.6,4870.81
23729.4,4873.06
23722.9,4874.68
23716.3,4875.66
23709.6,4875.98
23554.1,4875.98
23547.5,4875.66
23540.9,4874.68
23534.4,4873.06
23528.1,4870.81
23522.1,4867.97
23516.4,4864.54
23511.1,4860.57
23506.1,4856.09
23501.6,4851.16
23497.7,4845.8
23494.2,4840.09
23491.4,4834.06
23489.1,4827.79
23487.5,4821.32
23486.5,4814.73
23486.2,4808.07
23486.2,4672.24
23486.5,4665.59
23487.5,4659
23489.1,4652.53
23491.4,4646.26
23494.2,4640.23
23497.7,4634.51
23501.6,4629.16
23506.1,4624.22
23511.1,4619.75
23516.4,4615.78
23522.1,4612.35
23528.1,4609.5
23534.4,4607.26
23540.9,4605.64
23547.5,4604.66
23554.1,4604.33
23709.6,4604.33
Z" /> 
</g>
<g >
</g>
<g style="fill:#000000; fill-opacity:1.0; 
stroke:#000000; stroke-width:0; stroke-opacity:1; 
stroke-linecap:round; stroke-linejoin:round;">
<path style="fill:#000000; fill-opacity:1.0; 
stroke:#000000; stroke-width:0; stroke-opacity:1; 
stroke-linecap:round; stroke-linejoin:round;fill-rule:evenodd;"
d="M 24110,4100.72
24116.6,4101.7
24123.1,4103.32
24129.3,4105.56
24135.4,4108.41
24141.1,4111.84
24146.4,4115.81
24151.4,4120.29
24155.8,4125.22
24159.8,4130.58
24163.2,4136.29
24166.1,4142.32
24168.3,4148.59
24170,4155.06
24170.9,4161.65
24171.3,4168.31
24171.3,4304.13
24170.9,4310.79
24170,4317.38
24168.3,4323.85
24166.1,4330.12
24163.2,4336.15
24159.8,4341.86
24155.8,4347.22
24151.4,4352.16
24146.4,4356.63
24141.1,4360.6
24135.4,4364.03
24129.3,4366.88
24123.1,4369.12
24116.6,4370.74
24110,4371.72
24103.3,4372.05
23947.8,4372.05
23941.2,4371.72
23934.6,4370.74
23928.1,4369.12
23921.8,4366.88
23915.8,4364.03
23910.1,4360.6
23904.8,4356.63
23899.8,4352.16
23895.3,4347.22
23891.4,4341.86
23887.9,4336.15
23885.1,4330.12
23882.8,4323.85
23881.2,4317.38
23880.2,4310.79
23879.9,4304.13
23879.9,4168.31
23880.2,4161.65
23881.2,4155.06
23882.8,4148.59
23885.1,4142.32
23887.9,4136.29
23891.4,4130.58
23895.3,4125.22
23899.8,4120.29
23904.8,4115.81
23910.1,4111.84
23915.8,4108.41
23921.8,4105.56
23928.1,4103.32
23934.6,4101.7
23941.2,4100.72
23947.8,4100.39
24103.3,4100.39
Z" /> 
<path style="fill:#000000; fill-opacity:1.0; 
stroke:#000000; stroke-width:0; stroke-opacity:1; 
stroke-linecap:round; stroke-linejoin:round;fill-rule:evenodd;"
d="M 24110,3718.83
24116.6,3719.81
24123.1,3721.43
24129.3,3723.67
24135.4,3726.52
24141.1,3729.95
24146.4,3733.92
24151.4,3738.4
24155.8,3743.33
24159.8,3748.69
24163.2,3754.4
24166.1,3760.43
24168.3,3766.7
24170,3773.17
24170.9,3779.76
24171.3,3786.42
24171.3,3922.24
24170.9,3928.9
24170,3935.49
24168.3,3941.96
24166.1,3948.23
24163.2,3954.26
24159.8,3959.98
24155.8,3965.33
24151.4,3970.27
24146.4,3974.74
24141.1,3978.71
24135.4,3982.14
24129.3,3984.99
24123.1,3987.23
24116.6,3988.85
24110,3989.83
24103.3,3990.16
23947.8,3990.16
23941.2,3989.83
23934.6,3988.85
23928.1,3987.23
23921.8,3984.99
23915.8,3982.14
23910.1,3978.71
23904.8,3974.74
23899.8,3970.27
23895.3,3965.33
23891.4,3959.98
23887.9,3954.26
23885.1,3948.23
23882.8,3941.96
23881.2,3935.49
23880.2,3928.9
23879.9,3922.24
23879.9,3786.42
23880.2,3779.76
23881.2,3773.17
23882.8,3766.7
23885.1,3760.43
23887.9,3754.4
23891.4,3748.69
23895.3,3743.33
23899.8,3738.4
23904.8,3733.92
23910.1,3729.95
23915.8,3726.52
23921.8,3723.67
23928.1,3721.43
23934.6,3719.81
23941.2,3718.83
23947.8,3718.5
24103.3,3718.5
Z" /> 
</g>
<g >
</g>
<g style="fill:#000000; fill-opacity:1.0; 
stroke:#000000; stroke-width:0; stroke-opacity:1; 
stroke-linecap:round; stroke-linejoin:round;">
<path style="fill:#000000; fill-opacity:1.0; 
stroke:#000000; stroke-width:0; stroke-opacity:1; 
stroke-linecap:round; stroke-linejoin:round;fill-rule:evenodd;"
d="M 23716.3,4100.72
23722.9,4101.7
23729.4,4103.32
23735.6,4105.56
23741.7,4108.41
23747.4,4111.84
23752.7,4115.81
23757.7,4120.29
23762.1,4125.22
23766.1,4130.58
23769.5,4136.29
23772.4,4142.32
23774.6,4148.59
23776.3,4155.06
23777.2,4161.65
23777.6,4168.31
23777.6,4304.13
23777.2,4310.79
23776.3,4317.38
23774.6,4323.85
23772.4,4330.12
23769.5,4336.15
23766.1,4341.86
23762.1,4347.22
23757.7,4352.16
23752.7,4356.63
23747.4,4360.6
23741.7,4364.03
23735.6,4366.88
23729.4,4369.12
23722.9,4370.74
23716.3,4371.72
23709.6,4372.05
23554.1,4372.05
23547.5,4371.72
23540.9,4370.74
23534.4,4369.12
23528.1,4366.88
23522.1,4364.03
23516.4,4360.6
23511.1,4356.63
23506.1,4352.16
23501.6,4347.22
23497.7,4341.86
23494.2,4336.15
23491.4,4330.12
23489.1,4323.85
23487.5,4317.38
23486.5,4310.79
23486.2,4304.13
23486.2,4168.31
23486.5,4161.65
23487.5,4155.06
23489.1,4148.59
23491.4,4142.32
23494.2,4136.29
23497.7,4130.58
23501.6,4125.22
23506.1,4120.29
23511.1,4115.81
23516.4,4111.84
23522.1,4108.41
23528.1,4105.56
23534.4,4103.32
23540.9,4101.7
23547.5,4100.72
23554.1,4100.39
23709.6,4100.39
Z" /> 
<path style="fill:#000000; fill-opacity:1.0; 
stroke:#000000; stroke-width:0; stroke-opacity:1; 
stroke-linecap:round; stroke-linejoin:round;fill-rule:evenodd;"
d="M 23716.3,3718.83
23722.9,3719.81
23729.4,3721.43
23735.6,3723.67
23741.7,3726.52
23747.4,3729.95
23752.7,3733.92
23757.7,3738.4
23762.1,3743.33
23766.1,3748.69
23769.5,3754.4
23772.4,3760.43
23774.6,3766.7
23776.3,3773.17
23777.2,3779.76
23777.6,3786.42
23777.6,3922.24
23777.2,3928.9
23776.3,3935.49
23774.6,3941.96
23772.4,3948.23
23769.5,3954.26
23766.1,3959.98
23762.1,3965.33
23757.7,3970.27
23752.7,3974.74
23747.4,3978.71
23741.7,3982.14
23735.6,3984.99
23729.4,3987.23
23722.9,3988.85
23716.3,3989.83
23709.6,3990.16
23554.1,3990.16
23547.5,3989.83
23540.9,3988.85
23534.4,3987.23
23528.1,3984.99
23522.1,3982.14
23516.4,3978.71
23511.1,3974.74
23506.1,3970.27
23501.6,3965.33
23497.7,3959.98
23494.2,3954.26
23491.4,3948.23
23489.1,3941.96
23487.5,3935.49
23486.5,3928.9
23486.2,3922.24
23486.2,3786.42
23486.5,3779.76
23487.5,3773.17
23489.1,3766.7
23491.4,3760.43
23494.2,3754.4
23497.7,3748.69
23501.6,3743.33
23506.1,3738.4
23511.1,3733.92
23516.4,3729.95
23522.1,3726.52
23528.1,3723.67
23534.4,3721.43
23540.9,3719.81
23547.5,3718.83
23554.1,3718.5
23709.6,3718.5
Z" /> 
</g>
<g >
</g>
<g style="fill:#000000; fill-opacity:1.0; 
stroke:#000000; stroke-width:0; stroke-opacity:1; 
stroke-linecap:round; stroke-linejoin:round;">
<path style="fill:#000000; fill-opacity:1.0; 
stroke:#000000; stroke-width:0; stroke-opacity:1; 
stroke-linecap:round; stroke-linejoin:round;fill-rule:evenodd;"
d="M 18007.6,6659.78
18014.2,6660.75
18020.7,6662.37
18027,6664.62
18033,6667.47
18038.7,6670.89
18044.1,6674.86
18049,6679.34
18053.5,6684.28
18057.5,6689.63
18060.9,6695.35
18063.7,6701.37
18066,6707.65
18067.6,6714.11
18068.6,6720.71
18068.9,6727.36
18068.9,6863.19
18068.6,6869.85
18067.6,6876.44
18066,6882.9
18063.7,6889.18
18060.9,6895.2
18057.5,6900.92
18053.5,6906.27
18049,6911.21
18044.1,6915.69
18038.7,6919.66
18033,6923.08
18027,6925.93
18020.7,6928.18
18014.2,6929.8
18007.6,6930.78
18001,6931.1
17845.5,6931.1
17838.8,6930.78
17832.2,6929.8
17825.8,6928.18
17819.5,6925.93
17813.5,6923.08
17807.7,6919.66
17802.4,6915.69
17797.5,6911.21
17793,6906.27
17789,6900.92
17785.6,6895.2
17782.7,6889.18
17780.5,6882.9
17778.9,6876.44
17777.9,6869.85
17777.6,6863.19
17777.6,6727.36
17777.9,6720.71
17778.9,6714.11
17780.5,6707.65
17782.7,6701.37
17785.6,6695.35
17789,6689.63
17793,6684.28
17797.5,6679.34
17802.4,6674.86
17807.7,6670.89
17813.5,6667.47
17819.5,6664.62
17825.8,6662.37
17832.2,6660.75
17838.8,6659.78
17845.5,6659.45
18001,6659.45
Z" /> 
<path style="fill:#000000; fill-opacity:1.0; 
stroke:#000000; stroke-width:0; stroke-opacity:1; 
stroke-linecap:round; stroke-linejoin:round;fill-rule:evenodd;"
d="M 18007.6,6277.89
18014.2,6278.86
18020.7,6280.48
18027,6282.73
18033,6285.58
18038.7,6289
18044.1,6292.98
18049,6297.45
18053.5,6302.39
18057.5,6307.74
18060.9,6313.46
18063.7,6319.48
18066,6325.76
18067.6,6332.22
18068.6,6338.82
18068.9,6345.47
18068.9,6481.3
18068.6,6487.96
18067.6,6494.55
18066,6501.01
18063.7,6507.29
18060.9,6513.31
18057.5,6519.03
18053.5,6524.38
18049,6529.32
18044.1,6533.8
18038.7,6537.77
18033,6541.19
18027,6544.04
18020.7,6546.29
18014.2,6547.91
18007.6,6548.89
18001,6549.21
17845.5,6549.21
17838.8,6548.89
17832.2,6547.91
17825.8,6546.29
17819.5,6544.04
17813.5,6541.19
17807.7,6537.77
17802.4,6533.8
17797.5,6529.32
17793,6524.38
17789,6519.03
17785.6,6513.31
17782.7,6507.29
17780.5,6501.01
17778.9,6494.55
17777.9,6487.96
17777.6,6481.3
17777.6,6345.47
17777.9,6338.82
17778.9,6332.22
17780.5,6325.76
17782.7,6319.48
17785.6,6313.46
17789,6307.74
17793,6302.39
17797.5,6297.45
17802.4,6292.98
17807.7,6289
17813.5,6285.58
17819.5,6282.73
17825.8,6280.48
17832.2,6278.86
17838.8,6277.89
17845.5,6277.56
18001,6277.56
Z" /> 
</g>
<g >
</g>
<g style="fill:#000000; fill-opacity:1.0; 
stroke:#000000; stroke-width:0; stroke-opacity:1; 
stroke-linecap:round; stroke-linejoin:round;">
<path style="fill:#000000; fill-opacity:1.0; 
stroke:#000000; stroke-width:0; stroke-opacity:1; 
stroke-linecap:round; stroke-linejoin:round;fill-rule:evenodd;"
d="M 18893.5,6277.89
18900.1,6278.86
18906.5,6280.48
18912.8,6282.73
18918.8,6285.58
18924.5,6289
18929.9,6292.98
18934.8,6297.45
18939.3,6302.39
18943.3,6307.74
18946.7,6313.46
18949.6,6319.48
18951.8,6325.76
18953.4,6332.22
18954.4,6338.82
18954.7,6345.47
18954.7,6481.3
18954.4,6487.96
18953.4,6494.55
18951.8,6501.01
18949.6,6507.29
18946.7,6513.31
18943.3,6519.03
18939.3,6524.38
18934.8,6529.32
18929.9,6533.8
18924.5,6537.77
18918.8,6541.19
18912.8,6544.04
18906.5,6546.29
18900.1,6547.91
18893.5,6548.89
18886.8,6549.21
18731.3,6549.21
18724.6,6548.89
18718.1,6547.91
18711.6,6546.29
18705.3,6544.04
18699.3,6541.19
18693.6,6537.77
18688.2,6533.8
18683.3,6529.32
18678.8,6524.38
18674.8,6519.03
18671.4,6513.31
18668.6,6507.29
18666.3,6501.01
18664.7,6494.55
18663.7,6487.96
18663.4,6481.3
18663.4,6345.47
18663.7,6338.82
18664.7,6332.22
18666.3,6325.76
18668.6,6319.48
18671.4,6313.46
18674.8,6307.74
18678.8,6302.39
18683.3,6297.45
18688.2,6292.98
18693.6,6289
18699.3,6285.58
18705.3,6282.73
18711.6,6280.48
18718.1,6278.86
18724.6,6277.89
18731.3,6277.56
18886.8,6277.56
Z" /> 
<path style="fill:#000000; fill-opacity:1.0; 
stroke:#000000; stroke-width:0; stroke-opacity:1; 
stroke-linecap:round; stroke-linejoin:round;fill-rule:evenodd;"
d="M 18893.5,6659.78
18900.1,6660.75
18906.5,6662.37
18912.8,6664.62
18918.8,6667.47
18924.5,6670.89
18929.9,6674.86
18934.8,6679.34
18939.3,6684.28
18943.3,6689.63
18946.7,6695.35
18949.6,6701.37
18951.8,6707.65
18953.4,6714.11
18954.4,6720.71
18954.7,6727.36
18954.7,6863.19
18954.4,6869.85
18953.4,6876.44
18951.8,6882.9
18949.6,6889.18
18946.7,6895.2
18943.3,6900.92
18939.3,6906.27
18934.8,6911.21
18929.9,6915.69
18924.5,6919.66
18918.8,6923.08
18912.8,6925.93
18906.5,6928.18
18900.1,6929.8
18893.5,6930.78
18886.8,6931.1
18731.3,6931.1
18724.6,6930.78
18718.1,6929.8
18711.6,6928.18
18705.3,6925.93
18699.3,6923.08
18693.6,6919.66
18688.2,6915.69
18683.3,6911.21
18678.8,6906.27
18674.8,6900.92
18671.4,6895.2
18668.6,6889.18
18666.3,6882.9
18664.7,6876.44
18663.7,6869.85
18663.4,6863.19
18663.4,6727.36
18663.7,6720.71
18664.7,6714.11
18666.3,6707.65
18668.6,6701.37
18671.4,6695.35
18674.8,6689.63
18678.8,6684.28
18683.3,6679.34
18688.2,6674.86
18693.6,6670.89
18699.3,6667.47
18705.3,6664.62
18711.6,6662.37
18718.1,6660.75
18724.6,6659.78
18731.3,6659.45
18886.8,6659.45
Z" /> 
</g>
<g >
</g>
<g style="fill:#000000; fill-opacity:1.0; 
stroke:#000000; stroke-width:0; stroke-opacity:1; 
stroke-linecap:round; stroke-linejoin:round;">
<path style="fill:#000000; fill-opacity:1.0; 
stroke:#000000; stroke-width:0; stroke-opacity:1; 
stroke-linecap:round; stroke-linejoin:round;fill-rule:evenodd;"
d="M 18495.8,5868.44
18502.4,5869.42
18508.9,5871.04
18515.2,5873.28
18521.2,5876.13
18526.9,5879.56
18532.3,5883.53
18537.2,5888
18541.7,5892.94
18545.6,5898.29
18549.1,5904.01
18551.9,5910.03
18554.2,5916.31
18555.8,5922.77
18556.8,5929.37
18557.1,5936.02
18557.1,6091.54
18556.8,6098.19
18555.8,6104.79
18554.2,6111.25
18551.9,6117.53
18549.1,6123.55
18545.6,6129.27
18541.7,6134.62
18537.2,6139.56
18532.3,6144.03
18526.9,6148
18521.2,6151.43
18515.2,6154.28
18508.9,6156.52
18502.4,6158.14
18495.8,6159.12
18489.2,6159.45
18353.3,6159.45
18346.7,6159.12
18340.1,6158.14
18333.6,6156.52
18327.4,6154.28
18321.3,6151.43
18315.6,6148
18310.3,6144.03
18305.3,6139.56
18300.8,6134.62
18296.9,6129.27
18293.5,6123.55
18290.6,6117.53
18288.4,6111.25
18286.7,6104.79
18285.8,6098.19
18285.4,6091.54
18285.4,5936.02
18285.8,5929.37
18286.7,5922.77
18288.4,5916.31
18290.6,5910.03
18293.5,5904.01
18296.9,5898.29
18300.8,5892.94
18305.3,5888
18310.3,5883.53
18315.6,5879.56
18321.3,5876.13
18327.4,5873.28
18333.6,5871.04
18340.1,5869.42
18346.7,5868.44
18353.3,5868.11
18489.2,5868.11
Z" /> 
<path style="fill:#000000; fill-opacity:1.0; 
stroke:#000000; stroke-width:0; stroke-opacity:1; 
stroke-linecap:round; stroke-linejoin:round;fill-rule:evenodd;"
d="M 18877.7,5868.44
18884.3,5869.42
18890.8,5871.04
18897.1,5873.28
18903.1,5876.13
18908.8,5879.56
18914.1,5883.53
18919.1,5888
18923.6,5892.94
18927.5,5898.29
18931,5904.01
18933.8,5910.03
18936.1,5916.31
18937.7,5922.77
18938.6,5929.37
18939,5936.02
18939,6091.54
18938.6,6098.19
18937.7,6104.79
18936.1,6111.25
18933.8,6117.53
18931,6123.55
18927.5,6129.27
18923.6,6134.62
18919.1,6139.56
18914.1,6144.03
18908.8,6148
18903.1,6151.43
18897.1,6154.28
18890.8,6156.52
18884.3,6158.14
18877.7,6159.12
18871.1,6159.45
18735.2,6159.45
18728.6,6159.12
18722,6158.14
18715.5,6156.52
18709.2,6154.28
18703.2,6151.43
18697.5,6148
18692.2,6144.03
18687.2,6139.56
18682.7,6134.62
18678.8,6129.27
18675.3,6123.55
18672.5,6117.53
18670.2,6111.25
18668.6,6104.79
18667.7,6098.19
18667.3,6091.54
18667.3,5936.02
18667.7,5929.37
18668.6,5922.77
18670.2,5916.31
18672.5,5910.03
18675.3,5904.01
18678.8,5898.29
18682.7,5892.94
18687.2,5888
18692.2,5883.53
18697.5,5879.56
18703.2,5876.13
18709.2,5873.28
18715.5,5871.04
18722,5869.42
18728.6,5868.44
18735.2,5868.11
18871.1,5868.11
Z" /> 
</g>
<g >
</g>
<g style="fill:#000000; fill-opacity:1.0; 
stroke:#000000; stroke-width:0; stroke-opacity:1; 
stroke-linecap:round; stroke-linejoin:round;">
<path style="fill:#000000; fill-opacity:1.0; 
stroke:#000000; stroke-width:0; stroke-opacity:1; 
stroke-linecap:round; stroke-linejoin:round;fill-rule:evenodd;"
d="M 18877.7,7344.82
18884.3,7345.79
18890.8,7347.41
18897.1,7349.66
18903.1,7352.51
18908.8,7355.93
18914.1,7359.9
18919.1,7364.38
18923.6,7369.32
18927.5,7374.67
18931,7380.39
18933.8,7386.41
18936.1,7392.69
18937.7,7399.15
18938.6,7405.75
18939,7412.4
18939,7567.91
18938.6,7574.57
18937.7,7581.16
18936.1,7587.63
18933.8,7593.9
18931,7599.93
18927.5,7605.64
18923.6,7611
18919.1,7615.94
18914.1,7620.41
18908.8,7624.38
18903.1,7627.81
18897.1,7630.66
18890.8,7632.9
18884.3,7634.52
18877.7,7635.5
18871.1,7635.83
18735.2,7635.83
18728.6,7635.5
18722,7634.52
18715.5,7632.9
18709.2,7630.66
18703.2,7627.81
18697.5,7624.38
18692.2,7620.41
18687.2,7615.94
18682.7,7611
18678.8,7605.64
18675.3,7599.93
18672.5,7593.9
18670.2,7587.63
18668.6,7581.16
18667.7,7574.57
18667.3,7567.91
18667.3,7412.4
18667.7,7405.75
18668.6,7399.15
18670.2,7392.69
18672.5,7386.41
18675.3,7380.39
18678.8,7374.67
18682.7,7369.32
18687.2,7364.38
18692.2,7359.9
18697.5,7355.93
18703.2,7352.51
18709.2,7349.66
18715.5,7347.41
18722,7345.79
18728.6,7344.82
18735.2,7344.49
18871.1,7344.49
Z" /> 
<path style="fill:#000000; fill-opacity:1.0; 
stroke:#000000; stroke-width:0; stroke-opacity:1; 
stroke-linecap:round; stroke-linejoin:round;fill-rule:evenodd;"
d="M 18495.8,7344.82
18502.4,7345.79
18508.9,7347.41
18515.2,7349.66
18521.2,7352.51
18526.9,7355.93
18532.3,7359.9
18537.2,7364.38
18541.7,7369.32
18545.6,7374.67
18549.1,7380.39
18551.9,7386.41
18554.2,7392.69
18555.8,7399.15
18556.8,7405.75
18557.1,7412.4
18557.1,7567.91
18556.8,7574.57
18555.8,7581.16
18554.2,7587.63
18551.9,7593.9
18549.1,7599.93
18545.6,7605.64
18541.7,7611
18537.2,7615.94
18532.3,7620.41
18526.9,7624.38
18521.2,7627.81
18515.2,7630.66
18508.9,7632.9
18502.4,7634.52
18495.8,7635.5
18489.2,7635.83
18353.3,7635.83
18346.7,7635.5
18340.1,7634.52
18333.6,7632.9
18327.4,7630.66
18321.3,7627.81
18315.6,7624.38
18310.3,7620.41
18305.3,7615.94
18300.8,7611
18296.9,7605.64
18293.5,7599.93
18290.6,7593.9
18288.4,7587.63
18286.7,7581.16
18285.8,7574.57
18285.4,7567.91
18285.4,7412.4
18285.8,7405.75
18286.7,7399.15
18288.4,7392.69
18290.6,7386.41
18293.5,7380.39
18296.9,7374.67
18300.8,7369.32
18305.3,7364.38
18310.3,7359.9
18315.6,7355.93
18321.3,7352.51
18327.4,7349.66
18333.6,7347.41
18340.1,7345.79
18346.7,7344.82
18353.3,7344.49
18489.2,7344.49
Z" /> 
</g>
<g >
</g>
<g style="fill:#000000; fill-opacity:1.0; 
stroke:#000000; stroke-width:0; stroke-opacity:1; 
stroke-linecap:round; stroke-linejoin:round;">
<path style="fill:#000000; fill-opacity:1.0; 
stroke:#000000; stroke-width:0; stroke-opacity:1; 
stroke-linecap:round; stroke-linejoin:round;fill-rule:evenodd;"
d="M 17610,5868.44
17616.6,5869.42
17623.1,5871.04
17629.3,5873.28
17635.4,5876.13
17641.1,5879.56
17646.4,5883.53
17651.4,5888
17655.8,5892.94
17659.8,5898.29
17663.2,5904.01
17666.1,5910.03
17668.3,5916.31
17670,5922.77
17670.9,5929.37
17671.3,5936.02
17671.3,6091.54
17670.9,6098.19
17670,6104.79
17668.3,6111.25
17666.1,6117.53
17663.2,6123.55
17659.8,6129.27
17655.8,6134.62
17651.4,6139.56
17646.4,6144.03
17641.1,6148
17635.4,6151.43
17629.3,6154.28
17623.1,6156.52
17616.6,6158.14
17610,6159.12
17603.3,6159.45
17467.5,6159.45
17460.9,6159.12
17454.3,6158.14
17447.8,6156.52
17441.5,6154.28
17435.5,6151.43
17429.8,6148
17424.4,6144.03
17419.5,6139.56
17415,6134.62
17411.1,6129.27
17407.6,6123.55
17404.8,6117.53
17402.5,6111.25
17400.9,6104.79
17399.9,6098.19
17399.6,6091.54
17399.6,5936.02
17399.9,5929.37
17400.9,5922.77
17402.5,5916.31
17404.8,5910.03
17407.6,5904.01
17411.1,5898.29
17415,5892.94
17419.5,5888
17424.4,5883.53
17429.8,5879.56
17435.5,5876.13
17441.5,5873.28
17447.8,5871.04
17454.3,5869.42
17460.9,5868.44
17467.5,5868.11
17603.3,5868.11
Z" /> 
<path style="fill:#000000; fill-opacity:1.0; 
stroke:#000000; stroke-width:0; stroke-opacity:1; 
stroke-linecap:round; stroke-linejoin:round;fill-rule:evenodd;"
d="M 17991.9,5868.44
17998.5,5869.42
18005,5871.04
18011.2,5873.28
18017.3,5876.13
18023,5879.56
18028.3,5883.53
18033.3,5888
18037.7,5892.94
18041.7,5898.29
18045.1,5904.01
18048,5910.03
18050.2,5916.31
18051.8,5922.77
18052.8,5929.37
18053.2,5936.02
18053.2,6091.54
18052.8,6098.19
18051.8,6104.79
18050.2,6111.25
18048,6117.53
18045.1,6123.55
18041.7,6129.27
18037.7,6134.62
18033.3,6139.56
18028.3,6144.03
18023,6148
18017.3,6151.43
18011.2,6154.28
18005,6156.52
17998.5,6158.14
17991.9,6159.12
17985.2,6159.45
17849.4,6159.45
17842.8,6159.12
17836.2,6158.14
17829.7,6156.52
17823.4,6154.28
17817.4,6151.43
17811.7,6148
17806.3,6144.03
17801.4,6139.56
17796.9,6134.62
17792.9,6129.27
17789.5,6123.55
17786.7,6117.53
17784.4,6111.25
17782.8,6104.79
17781.8,6098.19
17781.5,6091.54
17781.5,5936.02
17781.8,5929.37
17782.8,5922.77
17784.4,5916.31
17786.7,5910.03
17789.5,5904.01
17792.9,5898.29
17796.9,5892.94
17801.4,5888
17806.3,5883.53
17811.7,5879.56
17817.4,5876.13
17823.4,5873.28
17829.7,5871.04
17836.2,5869.42
17842.8,5868.44
17849.4,5868.11
17985.2,5868.11
Z" /> 
</g>
<g >
</g>
<g style="fill:#000000; fill-opacity:1.0; 
stroke:#000000; stroke-width:0; stroke-opacity:1; 
stroke-linecap:round; stroke-linejoin:round;">
<path style="fill:#000000; fill-opacity:1.0; 
stroke:#000000; stroke-width:0; stroke-opacity:1; 
stroke-linecap:round; stroke-linejoin:round;fill-rule:evenodd;"
d="M 16035.2,5277.89
16041.8,5278.86
16048.3,5280.48
16054.5,5282.73
16060.6,5285.58
16066.3,5289
16071.6,5292.98
16076.6,5297.45
16081,5302.39
16085,5307.74
16088.4,5313.46
16091.3,5319.48
16093.5,5325.76
16095.2,5332.22
16096.1,5338.82
16096.5,5345.47
16096.5,5500.98
16096.1,5507.64
16095.2,5514.23
16093.5,5520.7
16091.3,5526.97
16088.4,5533
16085,5538.72
16081,5544.07
16076.6,5549.01
16071.6,5553.48
16066.3,5557.45
16060.6,5560.88
16054.5,5563.73
16048.3,5565.97
16041.8,5567.59
16035.2,5568.57
16028.5,5568.9
15892.7,5568.9
15886.1,5568.57
15879.5,5567.59
15873,5565.97
15866.7,5563.73
15860.7,5560.88
15855,5557.45
15849.6,5553.48
15844.7,5549.01
15840.2,5544.07
15836.2,5538.72
15832.8,5533
15830,5526.97
15827.7,5520.7
15826.1,5514.23
15825.1,5507.64
15824.8,5500.98
15824.8,5345.47
15825.1,5338.82
15826.1,5332.22
15827.7,5325.76
15830,5319.48
15832.8,5313.46
15836.2,5307.74
15840.2,5302.39
15844.7,5297.45
15849.6,5292.98
15855,5289
15860.7,5285.58
15866.7,5282.73
15873,5280.48
15879.5,5278.86
15886.1,5277.89
15892.7,5277.56
16028.5,5277.56
Z" /> 
<path style="fill:#000000; fill-opacity:1.0; 
stroke:#000000; stroke-width:0; stroke-opacity:1; 
stroke-linecap:round; stroke-linejoin:round;fill-rule:evenodd;"
d="M 16417.1,5277.89
16423.7,5278.86
16430.1,5280.48
16436.4,5282.73
16442.4,5285.58
16448.2,5289
16453.5,5292.98
16458.5,5297.45
16462.9,5302.39
16466.9,5307.74
16470.3,5313.46
16473.2,5319.48
16475.4,5325.76
16477,5332.22
16478,5338.82
16478.3,5345.47
16478.3,5500.98
16478,5507.64
16477,5514.23
16475.4,5520.7
16473.2,5526.97
16470.3,5533
16466.9,5538.72
16462.9,5544.07
16458.5,5549.01
16453.5,5553.48
16448.2,5557.45
16442.4,5560.88
16436.4,5563.73
16430.1,5565.97
16423.7,5567.59
16417.1,5568.57
16410.4,5568.9
16274.6,5568.9
16267.9,5568.57
16261.4,5567.59
16254.9,5565.97
16248.6,5563.73
16242.6,5560.88
16236.9,5557.45
16231.5,5553.48
16226.6,5549.01
16222.1,5544.07
16218.1,5538.72
16214.7,5533
16211.9,5526.97
16209.6,5520.7
16208,5514.23
16207,5507.64
16206.7,5500.98
16206.7,5345.47
16207,5338.82
16208,5332.22
16209.6,5325.76
16211.9,5319.48
16214.7,5313.46
16218.1,5307.74
16222.1,5302.39
16226.6,5297.45
16231.5,5292.98
16236.9,5289
16242.6,5285.58
16248.6,5282.73
16254.9,5280.48
16261.4,5278.86
16267.9,5277.89
16274.6,5277.56
16410.4,5277.56
Z" /> 
</g>
<g >
</g>
<g style="fill:#000000; fill-opacity:1.0; 
stroke:#000000; stroke-width:0; stroke-opacity:1; 
stroke-linecap:round; stroke-linejoin:round;">
<path style="fill:#000000; fill-opacity:1.0; 
stroke:#000000; stroke-width:0; stroke-opacity:1; 
stroke-linecap:round; stroke-linejoin:round;fill-rule:evenodd;"
d="M 12222.2,1301.51
12228.8,1302.49
12235.3,1304.11
12241.5,1306.35
12247.6,1309.2
12253.3,1312.63
12258.6,1316.6
12263.6,1321.07
12268,1326.01
12272,1331.36
12275.4,1337.08
12278.3,1343.11
12280.5,1349.38
12282.2,1355.85
12283.1,1362.44
12283.5,1369.09
12283.5,1524.61
12283.1,1531.26
12282.2,1537.86
12280.5,1544.32
12278.3,1550.6
12275.4,1556.62
12272,1562.34
12268,1567.69
12263.6,1572.63
12258.6,1577.1
12253.3,1581.07
12247.6,1584.5
12241.5,1587.35
12235.3,1589.6
12228.8,1591.21
12222.2,1592.19
12215.6,1592.52
12079.7,1592.52
12073.1,1592.19
12066.5,1591.21
12060,1589.6
12053.7,1587.35
12047.7,1584.5
12042,1581.07
12036.6,1577.1
12031.7,1572.63
12027.2,1567.69
12023.3,1562.34
12019.8,1556.62
12017,1550.6
12014.7,1544.32
12013.1,1537.86
12012.1,1531.26
12011.8,1524.61
12011.8,1369.09
12012.1,1362.44
12013.1,1355.85
12014.7,1349.38
12017,1343.11
12019.8,1337.08
12023.3,1331.36
12027.2,1326.01
12031.7,1321.07
12036.6,1316.6
12042,1312.63
12047.7,1309.2
12053.7,1306.35
12060,1304.11
12066.5,1302.49
12073.1,1301.51
12079.7,1301.18
12215.6,1301.18
Z" /> 
<path style="fill:#000000; fill-opacity:1.0; 
stroke:#000000; stroke-width:0; stroke-opacity:1; 
stroke-linecap:round; stroke-linejoin:round;fill-rule:evenodd;"
d="M 12604.1,1301.51
12610.7,1302.49
12617.2,1304.11
12623.4,1306.35
12629.5,1309.2
12635.2,1312.63
12640.5,1316.6
12645.5,1321.07
12649.9,1326.01
12653.9,1331.36
12657.3,1337.08
12660.2,1343.11
12662.4,1349.38
12664,1355.85
12665,1362.44
12665.4,1369.09
12665.4,1524.61
12665,1531.26
12664,1537.86
12662.4,1544.32
12660.2,1550.6
12657.3,1556.62
12653.9,1562.34
12649.9,1567.69
12645.5,1572.63
12640.5,1577.1
12635.2,1581.07
12629.5,1584.5
12623.4,1587.35
12617.2,1589.6
12610.7,1591.21
12604.1,1592.19
12597.4,1592.52
12461.6,1592.52
12455,1592.19
12448.4,1591.21
12441.9,1589.6
12435.6,1587.35
12429.6,1584.5
12423.9,1581.07
12418.5,1577.1
12413.6,1572.63
12409.1,1567.69
12405.1,1562.34
12401.7,1556.62
12398.9,1550.6
12396.6,1544.32
12395,1537.86
12394,1531.26
12393.7,1524.61
12393.7,1369.09
12394,1362.44
12395,1355.85
12396.6,1349.38
12398.9,1343.11
12401.7,1337.08
12405.1,1331.36
12409.1,1326.01
12413.6,1321.07
12418.5,1316.6
12423.9,1312.63
12429.6,1309.2
12435.6,1306.35
12441.9,1304.11
12448.4,1302.49
12455,1301.51
12461.6,1301.18
12597.4,1301.18
Z" /> 
</g>
<g >
</g>
<g style="fill:#000000; fill-opacity:1.0; 
stroke:#000000; stroke-width:0; stroke-opacity:1; 
stroke-linecap:round; stroke-linejoin:round;">
<path style="fill:#000000; fill-opacity:1.0; 
stroke:#000000; stroke-width:0; stroke-opacity:1; 
stroke-linecap:round; stroke-linejoin:round;fill-rule:evenodd;"
d="M 6590.32,10214.9
6596.91,10215.9
6603.38,10217.5
6609.65,10219.7
6615.68,10222.6
6621.39,10226
6626.75,10230
6631.68,10234.5
6636.16,10239.4
6640.13,10244.8
6643.56,10250.5
6646.41,10256.5
6648.65,10262.8
6650.27,10269.2
6651.25,10275.8
6651.58,10282.5
6651.58,10418.3
6651.25,10425
6650.27,10431.6
6648.65,10438
6646.41,10444.3
6643.56,10450.3
6640.13,10456
6636.16,10461.4
6631.68,10466.3
6626.75,10470.8
6621.39,10474.8
6615.68,10478.2
6609.65,10481.1
6603.38,10483.3
6596.91,10484.9
6590.32,10485.9
6583.66,10486.2
6428.15,10486.2
6421.49,10485.9
6414.9,10484.9
6408.44,10483.3
6402.16,10481.1
6396.14,10478.2
6390.42,10474.8
6385.07,10470.8
6380.13,10466.3
6375.65,10461.4
6371.68,10456
6368.26,10450.3
6365.41,10444.3
6363.16,10438
6361.54,10431.6
6360.56,10425
6360.24,10418.3
6360.24,10282.5
6360.56,10275.8
6361.54,10269.2
6363.16,10262.8
6365.41,10256.5
6368.26,10250.5
6371.68,10244.8
6375.65,10239.4
6380.13,10234.5
6385.07,10230
6390.42,10226
6396.14,10222.6
6402.16,10219.7
6408.44,10217.5
6414.9,10215.9
6421.49,10214.9
6428.15,10214.6
6583.66,10214.6
Z" /> 
<path style="fill:#000000; fill-opacity:1.0; 
stroke:#000000; stroke-width:0; stroke-opacity:1; 
stroke-linecap:round; stroke-linejoin:round;fill-rule:evenodd;"
d="M 6590.32,10596.8
6596.91,10597.8
6603.38,10599.4
6609.65,10601.6
6615.68,10604.5
6621.39,10607.9
6626.75,10611.9
6631.68,10616.3
6636.16,10621.3
6640.13,10626.6
6643.56,10632.4
6646.41,10638.4
6648.65,10644.7
6650.27,10651.1
6651.25,10657.7
6651.58,10664.4
6651.58,10800.2
6651.25,10806.9
6650.27,10813.4
6648.65,10819.9
6646.41,10826.2
6643.56,10832.2
6640.13,10837.9
6636.16,10843.3
6631.68,10848.2
6626.75,10852.7
6621.39,10856.7
6615.68,10860.1
6609.65,10862.9
6603.38,10865.2
6596.91,10866.8
6590.32,10867.8
6583.66,10868.1
6428.15,10868.1
6421.49,10867.8
6414.9,10866.8
6408.44,10865.2
6402.16,10862.9
6396.14,10860.1
6390.42,10856.7
6385.07,10852.7
6380.13,10848.2
6375.65,10843.3
6371.68,10837.9
6368.26,10832.2
6365.41,10826.2
6363.16,10819.9
6361.54,10813.4
6360.56,10806.9
6360.24,10800.2
6360.24,10664.4
6360.56,10657.7
6361.54,10651.1
6363.16,10644.7
6365.41,10638.4
6368.26,10632.4
6371.68,10626.6
6375.65,10621.3
6380.13,10616.3
6385.07,10611.9
6390.42,10607.9
6396.14,10604.5
6402.16,10601.6
6408.44,10599.4
6414.9,10597.8
6421.49,10596.8
6428.15,10596.5
6583.66,10596.5
Z" /> 
</g>
<g >
</g>
<g style="fill:#000000; fill-opacity:1.0; 
stroke:#000000; stroke-width:0; stroke-opacity:1; 
stroke-linecap:round; stroke-linejoin:round;">
<path style="fill:#000000; fill-opacity:1.0; 
stroke:#000000; stroke-width:0; stroke-opacity:1; 
stroke-linecap:round; stroke-linejoin:round;fill-rule:evenodd;"
d="M 19084.6,4832.68
18730.3,4832.68
18730.3,4438.98
19084.6,4438.98
Z" /> 
<path style="fill:#000000; fill-opacity:1.0; 
stroke:#000000; stroke-width:0; stroke-opacity:1; 
stroke-linecap:round; stroke-linejoin:round;fill-rule:evenodd;"
d="M 19458.7,5620.08
19104.3,5620.08
19104.3,5226.38
19458.7,5226.38
Z" /> 
<path style="fill:#000000; fill-opacity:1.0; 
stroke:#000000; stroke-width:0; stroke-opacity:1; 
stroke-linecap:round; stroke-linejoin:round;fill-rule:evenodd;"
d="M 18710.6,5620.08
18356.3,5620.08
18356.3,5226.38
18710.6,5226.38
Z" /> 
</g>
<g >
</g>
<g style="fill:#000000; fill-opacity:1.0; 
stroke:#000000; stroke-width:0; stroke-opacity:1; 
stroke-linecap:round; stroke-linejoin:round;">
<path style="fill:#000000; fill-opacity:1.0; 
stroke:#000000; stroke-width:0; stroke-opacity:1; 
stroke-linecap:round; stroke-linejoin:round;fill-rule:evenodd;"
d="M 17608.3,4832.68
17253.9,4832.68
17253.9,4438.98
17608.3,4438.98
Z" /> 
<path style="fill:#000000; fill-opacity:1.0; 
stroke:#000000; stroke-width:0; stroke-opacity:1; 
stroke-linecap:round; stroke-linejoin:round;fill-rule:evenodd;"
d="M 17982.3,5620.08
17628,5620.08
17628,5226.38
17982.3,5226.38
Z" /> 
<path style="fill:#000000; fill-opacity:1.0; 
stroke:#000000; stroke-width:0; stroke-opacity:1; 
stroke-linecap:round; stroke-linejoin:round;fill-rule:evenodd;"
d="M 17234.3,5620.08
16879.9,5620.08
16879.9,5226.38
17234.3,5226.38
Z" /> 
</g>
<g >
</g>
<g style="fill:#000000; fill-opacity:1.0; 
stroke:#000000; stroke-width:0; stroke-opacity:1; 
stroke-linecap:round; stroke-linejoin:round;">
</g>
<g style="fill:#000000; fill-opacity:1.0; 
stroke:#000000; stroke-width:708.661; stroke-opacity:1; 
stroke-linecap:round; stroke-linejoin:round;">
</g>
<g style="fill:#000000; fill-opacity:0.0; 
stroke:#000000; stroke-width:708.661; stroke-opacity:1; 
stroke-linecap:round; stroke-linejoin:round;">
<path d="M12643 11919
L12643 11919
" />
<path d="M13643 11919
L13643 11919
" />
<path d="M14643 11919
L14643 11919
" />
<path d="M15643 11919
L15643 11919
" />
</g>
<g style="fill:#000000; fill-opacity:0.0; 
stroke:#000000; stroke-width:0; stroke-opacity:1; 
stroke-linecap:round; stroke-linejoin:round;">
</g>
<g style="fill:#000000; fill-opacity:1.0; 
stroke:#000000; stroke-width:0; stroke-opacity:1; 
stroke-linecap:round; stroke-linejoin:round;">
<path style="fill:#000000; fill-opacity:1.0; 
stroke:#000000; stroke-width:0; stroke-opacity:1; 
stroke-linecap:round; stroke-linejoin:round;fill-rule:evenodd;"
d="M 16289.4,11565
16998,11565
16998,12273.6
16289.4,12273.6
Z" /> 
</g>
<g >
</g>
<g style="fill:#000000; fill-opacity:1.0; 
stroke:#000000; stroke-width:0; stroke-opacity:1; 
stroke-linecap:round; stroke-linejoin:round;">
</g>
<g style="fill:#000000; fill-opacity:1.0; 
stroke:#000000; stroke-width:708.661; stroke-opacity:1; 
stroke-linecap:round; stroke-linejoin:round;">
</g>
<g style="fill:#000000; fill-opacity:0.0; 
stroke:#000000; stroke-width:708.661; stroke-opacity:1; 
stroke-linecap:round; stroke-linejoin:round;">
<path d="M13675 2273
L13675 2273
" />
</g>
<g style="fill:#000000; fill-opacity:0.0; 
stroke:#000000; stroke-width:0; stroke-opacity:1; 
stroke-linecap:round; stroke-linejoin:round;">
</g>
<g style="fill:#000000; fill-opacity:1.0; 
stroke:#000000; stroke-width:0; stroke-opacity:1; 
stroke-linecap:round; stroke-linejoin:round;">
<path style="fill:#000000; fill-opacity:1.0; 
stroke:#000000; stroke-width:0; stroke-opacity:1; 
stroke-linecap:round; stroke-linejoin:round;fill-rule:evenodd;"
d="M 14320.9,1919.29
15029.5,1919.29
15029.5,2627.95
14320.9,2627.95
Z" /> 
</g>
<g >
</g>
<g style="fill:#000000; fill-opacity:1.0; 
stroke:#000000; stroke-width:0; stroke-opacity:1; 
stroke-linecap:round; stroke-linejoin:round;">
</g>
<g style="fill:#000000; fill-opacity:1.0; 
stroke:#000000; stroke-width:708.661; stroke-opacity:1; 
stroke-linecap:round; stroke-linejoin:round;">
</g>
<g style="fill:#000000; fill-opacity:0.0; 
stroke:#000000; stroke-width:708.661; stroke-opacity:1; 
stroke-linecap:round; stroke-linejoin:round;">
<path d="M23253 1781
L23253 1781
" />
</g>
<g style="fill:#000000; fill-opacity:0.0; 
stroke:#000000; stroke-width:0; stroke-opacity:1; 
stroke-linecap:round; stroke-linejoin:round;">
</g>
<g style="fill:#000000; fill-opacity:1.0; 
stroke:#000000; stroke-width:0; stroke-opacity:1; 
stroke-linecap:round; stroke-linejoin:round;">
<path style="fill:#000000; fill-opacity:1.0; 
stroke:#000000; stroke-width:0; stroke-opacity:1; 
stroke-linecap:round; stroke-linejoin:round;fill-rule:evenodd;"
d="M 22608.3,2135.83
21899.6,2135.83
21899.6,1427.17
22608.3,1427.17
Z" /> 
</g>
<g >
</g>
<g style="fill:#000000; fill-opacity:1.0; 
stroke:#000000; stroke-width:0; stroke-opacity:1; 
stroke-linecap:round; stroke-linejoin:round;">
</g>
<g style="fill:#000000; fill-opacity:1.0; 
stroke:#000000; stroke-width:433.071; stroke-opacity:1; 
stroke-linecap:round; stroke-linejoin:round;">
</g>
<g style="fill:#000000; fill-opacity:0.0; 
stroke:#000000; stroke-width:433.071; stroke-opacity:1; 
stroke-linecap:round; stroke-linejoin:round;">
<path d="M23954 11820
L23954 12057
" />
</g>
<g style="fill:#000000; fill-opacity:1.0; 
stroke:#000000; stroke-width:0; stroke-opacity:1; 
stroke-linecap:round; stroke-linejoin:round;">
<circle cx="23391.7" cy="10502" r="147.638" /> 
</g>
<g style="fill:#000000; fill-opacity:1.0; 
stroke:#000000; stroke-width:3.93701; stroke-opacity:1; 
stroke-linecap:round; stroke-linejoin:round;">
</g>
<g style="fill:#000000; fill-opacity:1.0; 
stroke:#000000; stroke-width:433.071; stroke-opacity:1; 
stroke-linecap:round; stroke-linejoin:round;">
</g>
<g style="fill:#000000; fill-opacity:0.0; 
stroke:#000000; stroke-width:433.071; stroke-opacity:1; 
stroke-linecap:round; stroke-linejoin:round;">
<path d="M20553 11820
L20553 12057
" />
</g>
<g style="fill:#000000; fill-opacity:1.0; 
stroke:#000000; stroke-width:0; stroke-opacity:1; 
stroke-linecap:round; stroke-linejoin:round;">
<circle cx="21116.1" cy="10502" r="147.638" /> 
</g>
<g style="fill:#000000; fill-opacity:1.0; 
stroke:#000000; stroke-width:3.93701; stroke-opacity:1; 
stroke-linecap:round; stroke-linejoin:round;">
</g>
<g style="fill:#000000; fill-opacity:1.0; 
stroke:#000000; stroke-width:433.071; stroke-opacity:1; 
stroke-linecap:round; stroke-linejoin:round;">
</g>
<g style="fill:#000000; fill-opacity:0.0; 
stroke:#000000; stroke-width:433.071; stroke-opacity:1; 
stroke-linecap:round; stroke-linejoin:round;">
<path d="M20553 10076
L20553 10509
" />
<path d="M23954 10076
L23954 10509
" />
</g>
<g style="fill:#000000; fill-opacity:0.0; 
stroke:#000000; stroke-width:0; stroke-opacity:1; 
stroke-linecap:round; stroke-linejoin:round;">
</g>
<g style="fill:#000000; fill-opacity:1.0; 
stroke:#000000; stroke-width:0; stroke-opacity:1; 
stroke-linecap:round; stroke-linejoin:round;">
<path style="fill:#000000; fill-opacity:1.0; 
stroke:#000000; stroke-width:0; stroke-opacity:1; 
stroke-linecap:round; stroke-linejoin:round;fill-rule:evenodd;"
d="M 22076.8,10238.2
22076.8,9627.95
22234.3,9627.95
22234.3,10238.2
Z" /> 
<path style="fill:#000000; fill-opacity:1.0; 
stroke:#000000; stroke-width:0; stroke-opacity:1; 
stroke-linecap:round; stroke-linejoin:round;fill-rule:evenodd;"
d="M 22864.2,10238.2
22864.2,9627.95
23021.7,9627.95
23021.7,10238.2
Z" /> 
<path style="fill:#000000; fill-opacity:1.0; 
stroke:#000000; stroke-width:0; stroke-opacity:1; 
stroke-linecap:round; stroke-linejoin:round;fill-rule:evenodd;"
d="M 22667.3,10238.2
22667.3,9627.95
22824.8,9627.95
22824.8,10238.2
Z" /> 
<path style="fill:#000000; fill-opacity:1.0; 
stroke:#000000; stroke-width:0; stroke-opacity:1; 
stroke-linecap:round; stroke-linejoin:round;fill-rule:evenodd;"
d="M 22470.5,10238.2
22470.5,9627.95
22628,9627.95
22628,10238.2
Z" /> 
<path style="fill:#000000; fill-opacity:1.0; 
stroke:#000000; stroke-width:0; stroke-opacity:1; 
stroke-linecap:round; stroke-linejoin:round;fill-rule:evenodd;"
d="M 22273.6,10238.2
22273.6,9627.95
22431.1,9627.95
22431.1,10238.2
Z" /> 
<path style="fill:#000000; fill-opacity:1.0; 
stroke:#000000; stroke-width:0; stroke-opacity:1; 
stroke-linecap:round; stroke-linejoin:round;fill-rule:evenodd;"
d="M 21879.9,10238.2
21879.9,9627.95
22037.4,9627.95
22037.4,10238.2
Z" /> 
<path style="fill:#000000; fill-opacity:1.0; 
stroke:#000000; stroke-width:0; stroke-opacity:1; 
stroke-linecap:round; stroke-linejoin:round;fill-rule:evenodd;"
d="M 21683.1,10238.2
21683.1,9627.95
21840.6,9627.95
21840.6,10238.2
Z" /> 
<path style="fill:#000000; fill-opacity:1.0; 
stroke:#000000; stroke-width:0; stroke-opacity:1; 
stroke-linecap:round; stroke-linejoin:round;fill-rule:evenodd;"
d="M 21486.2,10238.2
21486.2,9627.95
21643.7,9627.95
21643.7,10238.2
Z" /> 
<path style="fill:#000000; fill-opacity:1.0; 
stroke:#000000; stroke-width:0; stroke-opacity:1; 
stroke-linecap:round; stroke-linejoin:round;fill-rule:evenodd;"
d="M 23395.7,10238.2
23395.7,9627.95
23671.3,9627.95
23671.3,10238.2
Z" /> 
<path style="fill:#000000; fill-opacity:1.0; 
stroke:#000000; stroke-width:0; stroke-opacity:1; 
stroke-linecap:round; stroke-linejoin:round;fill-rule:evenodd;"
d="M 23080.7,10238.2
23080.7,9627.95
23356.3,9627.95
23356.3,10238.2
Z" /> 
<path style="fill:#000000; fill-opacity:1.0; 
stroke:#000000; stroke-width:0; stroke-opacity:1; 
stroke-linecap:round; stroke-linejoin:round;fill-rule:evenodd;"
d="M 21151.6,10238.2
21151.6,9627.95
21427.2,9627.95
21427.2,10238.2
Z" /> 
<path style="fill:#000000; fill-opacity:1.0; 
stroke:#000000; stroke-width:0; stroke-opacity:1; 
stroke-linecap:round; stroke-linejoin:round;fill-rule:evenodd;"
d="M 20836.6,10238.2
20836.6,9627.95
21112.2,9627.95
21112.2,10238.2
Z" /> 
<path style="fill:#000000; fill-opacity:1.0; 
stroke:#000000; stroke-width:0; stroke-opacity:1; 
stroke-linecap:round; stroke-linejoin:round;fill-rule:evenodd;"
d="M 20836.6,10238.2
20836.6,9627.95
21112.2,9627.95
21112.2,10238.2
Z" /> 
<path style="fill:#000000; fill-opacity:1.0; 
stroke:#000000; stroke-width:0; stroke-opacity:1; 
stroke-linecap:round; stroke-linejoin:round;fill-rule:evenodd;"
d="M 21151.6,10238.2
21151.6,9627.95
21427.2,9627.95
21427.2,10238.2
Z" /> 
<path style="fill:#000000; fill-opacity:1.0; 
stroke:#000000; stroke-width:0; stroke-opacity:1; 
stroke-linecap:round; stroke-linejoin:round;fill-rule:evenodd;"
d="M 23080.7,10238.2
23080.7,9627.95
23356.3,9627.95
23356.3,10238.2
Z" /> 
<path style="fill:#000000; fill-opacity:1.0; 
stroke:#000000; stroke-width:0; stroke-opacity:1; 
stroke-linecap:round; stroke-linejoin:round;fill-rule:evenodd;"
d="M 23395.7,10238.2
23395.7,9627.95
23671.3,9627.95
23671.3,10238.2
Z" /> 
</g>
<g >
</g>
<g style="fill:#000000; fill-opacity:1.0; 
stroke:#000000; stroke-width:0; stroke-opacity:1; 
stroke-linecap:round; stroke-linejoin:round;">
</g>
<g style="fill:#000000; fill-opacity:1.0; 
stroke:#000000; stroke-width:708.661; stroke-opacity:1; 
stroke-linecap:round; stroke-linejoin:round;">
</g>
<g style="fill:#000000; fill-opacity:0.0; 
stroke:#000000; stroke-width:708.661; stroke-opacity:1; 
stroke-linecap:round; stroke-linejoin:round;">
<path d="M11210 11919
L11210 11919
" />
<path d="M10210 11919
L10210 11919
" />
<path d="M9210 11919
L9210 11919
" />
<path d="M8210 11919
L8210 11919
" />
<path d="M7210 11919
L7210 11919
" />
</g>
<g style="fill:#000000; fill-opacity:0.0; 
stroke:#000000; stroke-width:0; stroke-opacity:1; 
stroke-linecap:round; stroke-linejoin:round;">
</g>
<g style="fill:#000000; fill-opacity:1.0; 
stroke:#000000; stroke-width:0; stroke-opacity:1; 
stroke-linecap:round; stroke-linejoin:round;">
<path style="fill:#000000; fill-opacity:1.0; 
stroke:#000000; stroke-width:0; stroke-opacity:1; 
stroke-linecap:round; stroke-linejoin:round;fill-rule:evenodd;"
d="M 6564.96,12273.6
5856.3,12273.6
5856.3,11565
6564.96,11565
Z" /> 
</g>
<g >
</g>
<g style="fill:#000000; fill-opacity:1.0; 
stroke:#000000; stroke-width:0; stroke-opacity:1; 
stroke-linecap:round; stroke-linejoin:round;">
<path style="fill:#000000; fill-opacity:1.0; 
stroke:#000000; stroke-width:0; stroke-opacity:1; 
stroke-linecap:round; stroke-linejoin:round;fill-rule:evenodd;"
d="M 25228.4,1279.99
25237.7,1281.37
25246.9,1283.66
25255.7,1286.83
25264.2,1290.86
25272.3,1295.7
25279.9,1301.31
25286.9,1307.64
25293.2,1314.61
25298.8,1322.18
25303.6,1330.26
25307.7,1338.77
25310.8,1347.64
25313.1,1356.77
25314.5,1366.09
25315,1375.49
25315,1596.95
25314.5,1606.36
25313.1,1615.67
25310.8,1624.81
25307.7,1633.67
25303.6,1642.19
25298.8,1650.26
25293.2,1657.83
25286.9,1664.81
25279.9,1671.13
25272.3,1676.74
25264.2,1681.58
25255.7,1685.61
25246.9,1688.78
25237.7,1691.07
25228.4,1692.45
25219,1692.91
25027.1,1692.91
25017.7,1692.45
25008.3,1691.07
24999.2,1688.78
24990.3,1685.61
24981.8,1681.58
24973.8,1676.74
24966.2,1671.13
24959.2,1664.81
24952.9,1657.83
24947.3,1650.26
24942.4,1642.19
24938.4,1633.67
24935.2,1624.81
24932.9,1615.67
24931.6,1606.36
24931.1,1596.95
24931.1,1375.49
24931.6,1366.09
24932.9,1356.77
24935.2,1347.64
24938.4,1338.77
24942.4,1330.26
24947.3,1322.18
24952.9,1314.61
24959.2,1307.64
24966.2,1301.31
24973.8,1295.7
24981.8,1290.86
24990.3,1286.83
24999.2,1283.66
25008.3,1281.37
25017.7,1279.99
25027.1,1279.53
25219,1279.53
Z" /> 
<path style="fill:#000000; fill-opacity:1.0; 
stroke:#000000; stroke-width:0; stroke-opacity:1; 
stroke-linecap:round; stroke-linejoin:round;fill-rule:evenodd;"
d="M 24608.3,1279.99
24617.6,1281.37
24626.8,1283.66
24635.6,1286.83
24644.2,1290.86
24652.2,1295.7
24659.8,1301.31
24666.8,1307.64
24673.1,1314.61
24678.7,1322.18
24683.6,1330.26
24687.6,1338.77
24690.8,1347.64
24693,1356.77
24694.4,1366.09
24694.9,1375.49
24694.9,1596.95
24694.4,1606.36
24693,1615.67
24690.8,1624.81
24687.6,1633.67
24683.6,1642.19
24678.7,1650.26
24673.1,1657.83
24666.8,1664.81
24659.8,1671.13
24652.2,1676.74
24644.2,1681.58
24635.6,1685.61
24626.8,1688.78
24617.6,1691.07
24608.3,1692.45
24598.9,1692.91
24407,1692.91
24397.6,1692.45
24388.3,1691.07
24379.1,1688.78
24370.3,1685.61
24361.8,1681.58
24353.7,1676.74
24346.1,1671.13
24339.1,1664.81
24332.8,1657.83
24327.2,1650.26
24322.4,1642.19
24318.3,1633.67
24315.2,1624.81
24312.9,1615.67
24311.5,1606.36
24311,1596.95
24311,1375.49
24311.5,1366.09
24312.9,1356.77
24315.2,1347.64
24318.3,1338.77
24322.4,1330.26
24327.2,1322.18
24332.8,1314.61
24339.1,1307.64
24346.1,1301.31
24353.7,1295.7
24361.8,1290.86
24370.3,1286.83
24379.1,1283.66
24388.3,1281.37
24397.6,1279.99
24407,1279.53
24598.9,1279.53
Z" /> 
</g>
<g >
</g>
<g style="fill:#000000; fill-opacity:1.0; 
stroke:#000000; stroke-width:0; stroke-opacity:1; 
stroke-linecap:round; stroke-linejoin:round;">
<path style="fill:#000000; fill-opacity:1.0; 
stroke:#000000; stroke-width:0; stroke-opacity:1; 
stroke-linecap:round; stroke-linejoin:round;fill-rule:evenodd;"
d="M 16072.8,5905.51
16072.8,6122.05
15797.2,6122.05
15797.2,5905.51
Z" /> 
<path style="fill:#000000; fill-opacity:1.0; 
stroke:#000000; stroke-width:0; stroke-opacity:1; 
stroke-linecap:round; stroke-linejoin:round;fill-rule:evenodd;"
d="M 16899.6,5905.51
16899.6,6122.05
16624,6122.05
16624,5905.51
Z" /> 
</g>
<g >
</g>
<g style="fill:#000000; fill-opacity:1.0; 
stroke:#000000; stroke-width:0; stroke-opacity:1; 
stroke-linecap:round; stroke-linejoin:round;">
<path style="fill:#000000; fill-opacity:1.0; 
stroke:#000000; stroke-width:0; stroke-opacity:1; 
stroke-linecap:round; stroke-linejoin:round;fill-rule:evenodd;"
d="M 13173.3,1262.27
13182.6,1263.66
13191.7,1265.94
13200.6,1269.12
13209.1,1273.14
13217.2,1277.98
13224.8,1283.59
13231.7,1289.92
13238.1,1296.9
13243.7,1304.46
13248.5,1312.54
13252.5,1321.05
13255.7,1329.92
13258,1339.05
13259.4,1348.37
13259.8,1357.78
13259.8,1579.23
13259.4,1588.64
13258,1597.95
13255.7,1607.09
13252.5,1615.96
13248.5,1624.47
13243.7,1632.55
13238.1,1640.11
13231.7,1647.09
13224.8,1653.41
13217.2,1659.02
13209.1,1663.87
13200.6,1667.89
13191.7,1671.06
13182.6,1673.35
13173.3,1674.73
13163.9,1675.2
12971.9,1675.2
12962.5,1674.73
12953.2,1673.35
12944.1,1671.06
12935.2,1667.89
12926.7,1663.87
12918.6,1659.02
12911.1,1653.41
12904.1,1647.09
12897.8,1640.11
12892.2,1632.55
12887.3,1624.47
12883.3,1615.96
12880.1,1607.09
12877.8,1597.95
12876.4,1588.64
12876,1579.23
12876,1357.78
12876.4,1348.37
12877.8,1339.05
12880.1,1329.92
12883.3,1321.05
12887.3,1312.54
12892.2,1304.46
12897.8,1296.9
12904.1,1289.92
12911.1,1283.59
12918.6,1277.98
12926.7,1273.14
12935.2,1269.12
12944.1,1265.94
12953.2,1263.66
12962.5,1262.27
12971.9,1261.81
13163.9,1261.81
Z" /> 
<path style="fill:#000000; fill-opacity:1.0; 
stroke:#000000; stroke-width:0; stroke-opacity:1; 
stroke-linecap:round; stroke-linejoin:round;fill-rule:evenodd;"
d="M 13793.4,1262.27
13802.7,1263.66
13811.8,1265.94
13820.7,1269.12
13829.2,1273.14
13837.3,1277.98
13844.8,1283.59
13851.8,1289.92
13858.1,1296.9
13863.7,1304.46
13868.6,1312.54
13872.6,1321.05
13875.8,1329.92
13878.1,1339.05
13879.5,1348.37
13879.9,1357.78
13879.9,1579.23
13879.5,1588.64
13878.1,1597.95
13875.8,1607.09
13872.6,1615.96
13868.6,1624.47
13863.7,1632.55
13858.1,1640.11
13851.8,1647.09
13844.8,1653.41
13837.3,1659.02
13829.2,1663.87
13820.7,1667.89
13811.8,1671.06
13802.7,1673.35
13793.4,1674.73
13784,1675.2
13592,1675.2
13582.6,1674.73
13573.3,1673.35
13564.2,1671.06
13555.3,1667.89
13546.8,1663.87
13538.7,1659.02
13531.1,1653.41
13524.2,1647.09
13517.8,1640.11
13512.2,1632.55
13507.4,1624.47
13503.4,1615.96
13500.2,1607.09
13497.9,1597.95
13496.5,1588.64
13496.1,1579.23
13496.1,1357.78
13496.5,1348.37
13497.9,1339.05
13500.2,1329.92
13503.4,1321.05
13507.4,1312.54
13512.2,1304.46
13517.8,1296.9
13524.2,1289.92
13531.1,1283.59
13538.7,1277.98
13546.8,1273.14
13555.3,1269.12
13564.2,1265.94
13573.3,1263.66
13582.6,1262.27
13592,1261.81
13784,1261.81
Z" /> 
</g>
<g >
</g>
<g >
</g>
<g >
</g>
<g >
</g>
<g >
</g>
<g style="fill:#000000; fill-opacity:1.0; 
stroke:#000000; stroke-width:0; stroke-opacity:1; 
stroke-linecap:round; stroke-linejoin:round;">
<path style="fill:#000000; fill-opacity:1.0; 
stroke:#000000; stroke-width:0; stroke-opacity:1; 
stroke-linecap:round; stroke-linejoin:round;fill-rule:evenodd;"
d="M 23063,2756.37
23072.4,2757.75
23081.5,2760.04
23090.4,2763.21
23098.9,2767.24
23107,2772.08
23114.5,2777.69
23121.5,2784.01
23127.8,2790.99
23133.4,2798.56
23138.3,2806.63
23142.3,2815.15
23145.5,2824.01
23147.8,2833.15
23149.1,2842.46
23149.6,2851.87
23149.6,3073.33
23149.1,3082.73
23147.8,3092.05
23145.5,3101.18
23142.3,3110.05
23138.3,3118.56
23133.4,3126.64
23127.8,3134.21
23121.5,3141.18
23114.5,3147.51
23107,3153.12
23098.9,3157.96
23090.4,3161.99
23081.5,3165.16
23072.4,3167.45
23063,3168.83
23053.6,3169.29
22861.7,3169.29
22852.3,3168.83
22843,3167.45
22833.9,3165.16
22825,3161.99
22816.5,3157.96
22808.4,3153.12
22800.8,3147.51
22793.9,3141.18
22787.5,3134.21
22781.9,3126.64
22777.1,3118.56
22773.1,3110.05
22769.9,3101.18
22767.6,3092.05
22766.2,3082.73
22765.7,3073.33
22765.7,2851.87
22766.2,2842.46
22767.6,2833.15
22769.9,2824.01
22773.1,2815.15
22777.1,2806.63
22781.9,2798.56
22787.5,2790.99
22793.9,2784.01
22800.8,2777.69
22808.4,2772.08
22816.5,2767.24
22825,2763.21
22833.9,2760.04
22843,2757.75
22852.3,2756.37
22861.7,2755.91
23053.6,2755.91
Z" /> 
<path style="fill:#000000; fill-opacity:1.0; 
stroke:#000000; stroke-width:0; stroke-opacity:1; 
stroke-linecap:round; stroke-linejoin:round;fill-rule:evenodd;"
d="M 22443,2756.37
22452.3,2757.75
22461.4,2760.04
22470.3,2763.21
22478.8,2767.24
22486.9,2772.08
22494.4,2777.69
22501.4,2784.01
22507.7,2790.99
22513.4,2798.56
22518.2,2806.63
22522.2,2815.15
22525.4,2824.01
22527.7,2833.15
22529.1,2842.46
22529.5,2851.87
22529.5,3073.33
22529.1,3082.73
22527.7,3092.05
22525.4,3101.18
22522.2,3110.05
22518.2,3118.56
22513.4,3126.64
22507.7,3134.21
22501.4,3141.18
22494.4,3147.51
22486.9,3153.12
22478.8,3157.96
22470.3,3161.99
22461.4,3165.16
22452.3,3167.45
22443,3168.83
22433.6,3169.29
22241.6,3169.29
22232.2,3168.83
22222.9,3167.45
22213.8,3165.16
22204.9,3161.99
22196.4,3157.96
22188.3,3153.12
22180.8,3147.51
22173.8,3141.18
22167.5,3134.21
22161.8,3126.64
22157,3118.56
22153,3110.05
22149.8,3101.18
22147.5,3092.05
22146.1,3082.73
22145.7,3073.33
22145.7,2851.87
22146.1,2842.46
22147.5,2833.15
22149.8,2824.01
22153,2815.15
22157,2806.63
22161.8,2798.56
22167.5,2790.99
22173.8,2784.01
22180.8,2777.69
22188.3,2772.08
22196.4,2767.24
22204.9,2763.21
22213.8,2760.04
22222.9,2757.75
22232.2,2756.37
22241.6,2755.91
22433.6,2755.91
Z" /> 
</g>
<g >
</g>
<g style="fill:#000000; fill-opacity:1.0; 
stroke:#000000; stroke-width:0; stroke-opacity:1; 
stroke-linecap:round; stroke-linejoin:round;">
<path style="fill:#000000; fill-opacity:1.0; 
stroke:#000000; stroke-width:0; stroke-opacity:1; 
stroke-linecap:round; stroke-linejoin:round;fill-rule:evenodd;"
d="M 16253,1595
16263.3,1596.52
16273.3,1599.04
16283.1,1602.54
16292.5,1606.98
16301.4,1612.32
16309.7,1618.51
16317.4,1625.48
16324.4,1633.17
16330.6,1641.51
16335.9,1650.42
16340.4,1659.81
16343.9,1669.58
16346.4,1679.65
16347.9,1689.92
16348.4,1700.3
16348.4,1911.91
16347.9,1922.28
16346.4,1932.55
16343.9,1942.62
16340.4,1952.4
16335.9,1961.79
16330.6,1970.69
16324.4,1979.03
16317.4,1986.73
16309.7,1993.7
16301.4,1999.89
16292.5,2005.22
16283.1,2009.66
16273.3,2013.16
16263.3,2015.68
16253,2017.21
16242.6,2017.72
15863.7,2017.72
15853.3,2017.21
15843,2015.68
15833,2013.16
15823.2,2009.66
15813.8,2005.22
15804.9,1999.89
15796.6,1993.7
15788.9,1986.73
15781.9,1979.03
15775.7,1970.69
15770.4,1961.79
15765.9,1952.4
15762.4,1942.62
15759.9,1932.55
15758.4,1922.28
15757.9,1911.91
15757.9,1700.3
15758.4,1689.92
15759.9,1679.65
15762.4,1669.58
15765.9,1659.81
15770.4,1650.42
15775.7,1641.51
15781.9,1633.17
15788.9,1625.48
15796.6,1618.51
15804.9,1612.32
15813.8,1606.98
15823.2,1602.54
15833,1599.04
15843,1596.52
15853.3,1595
15863.7,1594.49
16242.6,1594.49
Z" /> 
<path style="fill:#000000; fill-opacity:1.0; 
stroke:#000000; stroke-width:0; stroke-opacity:1; 
stroke-linecap:round; stroke-linejoin:round;fill-rule:evenodd;"
d="M 16253,2333.19
16263.3,2334.71
16273.3,2337.23
16283.1,2340.73
16292.5,2345.17
16301.4,2350.51
16309.7,2356.69
16317.4,2363.67
16324.4,2371.36
16330.6,2379.7
16335.9,2388.61
16340.4,2397.99
16343.9,2407.77
16346.4,2417.84
16347.9,2428.11
16348.4,2438.48
16348.4,2650.1
16347.9,2660.47
16346.4,2670.74
16343.9,2680.81
16340.4,2690.59
16335.9,2699.98
16330.6,2708.88
16324.4,2717.22
16317.4,2724.92
16309.7,2731.89
16301.4,2738.07
16292.5,2743.41
16283.1,2747.85
16273.3,2751.35
16263.3,2753.87
16253,2755.4
16242.6,2755.91
15863.7,2755.91
15853.3,2755.4
15843,2753.87
15833,2751.35
15823.2,2747.85
15813.8,2743.41
15804.9,2738.07
15796.6,2731.89
15788.9,2724.92
15781.9,2717.22
15775.7,2708.88
15770.4,2699.98
15765.9,2690.59
15762.4,2680.81
15759.9,2670.74
15758.4,2660.47
15757.9,2650.1
15757.9,2438.48
15758.4,2428.11
15759.9,2417.84
15762.4,2407.77
15765.9,2397.99
15770.4,2388.61
15775.7,2379.7
15781.9,2371.36
15788.9,2363.67
15796.6,2356.69
15804.9,2350.51
15813.8,2345.17
15823.2,2340.73
15833,2337.23
15843,2334.71
15853.3,2333.19
15863.7,2332.68
16242.6,2332.68
Z" /> 
</g>
<g >
</g>
<g style="fill:#000000; fill-opacity:1.0; 
stroke:#000000; stroke-width:0; stroke-opacity:1; 
stroke-linecap:round; stroke-linejoin:round;">
<path style="fill:#000000; fill-opacity:1.0; 
stroke:#000000; stroke-width:0; stroke-opacity:1; 
stroke-linecap:round; stroke-linejoin:round;fill-rule:evenodd;"
d="M 21272.7,4695.39
21282.9,4696.92
21293,4699.44
21302.8,4702.94
21312.2,4707.38
21321.1,4712.71
21329.4,4718.9
21337.1,4725.87
21344.1,4733.57
21350.3,4741.91
21355.6,4750.81
21360.1,4760.2
21363.6,4769.98
21366.1,4780.05
21367.6,4790.32
21368.1,4800.69
21368.1,5012.3
21367.6,5022.67
21366.1,5032.95
21363.6,5043.02
21360.1,5052.79
21355.6,5062.18
21350.3,5071.09
21344.1,5079.43
21337.1,5087.12
21329.4,5094.09
21321.1,5100.28
21312.2,5105.62
21302.8,5110.06
21293,5113.55
21282.9,5116.08
21272.7,5117.6
21262.3,5118.11
20883.4,5118.11
20873,5117.6
20862.7,5116.08
20852.7,5113.55
20842.9,5110.06
20833.5,5105.62
20824.6,5100.28
20816.2,5094.09
20808.5,5087.12
20801.6,5079.43
20795.4,5071.09
20790.1,5062.18
20785.6,5052.79
20782.1,5043.02
20779.6,5032.95
20778.1,5022.67
20777.6,5012.3
20777.6,4800.69
20778.1,4790.32
20779.6,4780.05
20782.1,4769.98
20785.6,4760.2
20790.1,4750.81
20795.4,4741.91
20801.6,4733.57
20808.5,4725.87
20816.2,4718.9
20824.6,4712.71
20833.5,4707.38
20842.9,4702.94
20852.7,4699.44
20862.7,4696.92
20873,4695.39
20883.4,4694.88
21262.3,4694.88
Z" /> 
<path style="fill:#000000; fill-opacity:1.0; 
stroke:#000000; stroke-width:0; stroke-opacity:1; 
stroke-linecap:round; stroke-linejoin:round;fill-rule:evenodd;"
d="M 21272.7,3957.2
21282.9,3958.73
21293,3961.25
21302.8,3964.75
21312.2,3969.19
21321.1,3974.53
21329.4,3980.71
21337.1,3987.68
21344.1,3995.38
21350.3,4003.72
21355.6,4012.62
21360.1,4022.01
21363.6,4031.79
21366.1,4041.86
21367.6,4052.13
21368.1,4062.5
21368.1,4274.11
21367.6,4284.49
21366.1,4294.76
21363.6,4304.83
21360.1,4314.61
21355.6,4323.99
21350.3,4332.9
21344.1,4341.24
21337.1,4348.93
21329.4,4355.9
21321.1,4362.09
21312.2,4367.43
21302.8,4371.87
21293,4375.37
21282.9,4377.89
21272.7,4379.41
21262.3,4379.92
20883.4,4379.92
20873,4379.41
20862.7,4377.89
20852.7,4375.37
20842.9,4371.87
20833.5,4367.43
20824.6,4362.09
20816.2,4355.9
20808.5,4348.93
20801.6,4341.24
20795.4,4332.9
20790.1,4323.99
20785.6,4314.61
20782.1,4304.83
20779.6,4294.76
20778.1,4284.49
20777.6,4274.11
20777.6,4062.5
20778.1,4052.13
20779.6,4041.86
20782.1,4031.79
20785.6,4022.01
20790.1,4012.62
20795.4,4003.72
20801.6,3995.38
20808.5,3987.68
20816.2,3980.71
20824.6,3974.53
20833.5,3969.19
20842.9,3964.75
20852.7,3961.25
20862.7,3958.73
20873,3957.2
20883.4,3956.69
21262.3,3956.69
Z" /> 
</g>
<g >
</g>
<g style="fill:#000000; fill-opacity:1.0; 
stroke:#000000; stroke-width:0; stroke-opacity:1; 
stroke-linecap:round; stroke-linejoin:round;">
<path style="fill:#000000; fill-opacity:1.0; 
stroke:#000000; stroke-width:0; stroke-opacity:1; 
stroke-linecap:round; stroke-linejoin:round;fill-rule:evenodd;"
d="M 21881.9,4754.4
21891.3,4755.78
21900.4,4758.07
21909.3,4761.24
21917.8,4765.27
21925.9,4770.11
21933.4,4775.72
21940.4,4782.04
21946.7,4789.02
21952.3,4796.59
21957.2,4804.66
21961.2,4813.18
21964.4,4822.04
21966.7,4831.18
21968,4840.5
21968.5,4849.9
21968.5,5041.83
21968,5051.24
21966.7,5060.55
21964.4,5069.69
21961.2,5078.56
21957.2,5087.07
21952.3,5095.15
21946.7,5102.71
21940.4,5109.69
21933.4,5116.01
21925.9,5121.62
21917.8,5126.46
21909.3,5130.49
21900.4,5133.66
21891.3,5135.95
21881.9,5137.33
21872.5,5137.8
21651.1,5137.8
21641.7,5137.33
21632.4,5135.95
21623.2,5133.66
21614.4,5130.49
21605.8,5126.46
21597.8,5121.62
21590.2,5116.01
21583.2,5109.69
21576.9,5102.71
21571.3,5095.15
21566.5,5087.07
21562.4,5078.56
21559.3,5069.69
21557,5060.55
21555.6,5051.24
21555.1,5041.83
21555.1,4849.9
21555.6,4840.5
21557,4831.18
21559.3,4822.04
21562.4,4813.18
21566.5,4804.66
21571.3,4796.59
21576.9,4789.02
21583.2,4782.04
21590.2,4775.72
21597.8,4770.11
21605.8,4765.27
21614.4,4761.24
21623.2,4758.07
21632.4,4755.78
21641.7,4754.4
21651.1,4753.94
21872.5,4753.94
Z" /> 
<path style="fill:#000000; fill-opacity:1.0; 
stroke:#000000; stroke-width:0; stroke-opacity:1; 
stroke-linecap:round; stroke-linejoin:round;fill-rule:evenodd;"
d="M 21881.9,4134.32
21891.3,4135.7
21900.4,4137.99
21909.3,4141.16
21917.8,4145.19
21925.9,4150.03
21933.4,4155.64
21940.4,4161.97
21946.7,4168.94
21952.3,4176.51
21957.2,4184.59
21961.2,4193.1
21964.4,4201.97
21966.7,4211.1
21968,4220.42
21968.5,4229.82
21968.5,4421.75
21968,4431.16
21966.7,4440.47
21964.4,4449.61
21961.2,4458.48
21957.2,4466.99
21952.3,4475.07
21946.7,4482.63
21940.4,4489.61
21933.4,4495.93
21925.9,4501.54
21917.8,4506.39
21909.3,4510.41
21900.4,4513.58
21891.3,4515.87
21881.9,4517.25
21872.5,4517.72
21651.1,4517.72
21641.7,4517.25
21632.4,4515.87
21623.2,4513.58
21614.4,4510.41
21605.8,4506.39
21597.8,4501.54
21590.2,4495.93
21583.2,4489.61
21576.9,4482.63
21571.3,4475.07
21566.5,4466.99
21562.4,4458.48
21559.3,4449.61
21557,4440.47
21555.6,4431.16
21555.1,4421.75
21555.1,4229.82
21555.6,4220.42
21557,4211.1
21559.3,4201.97
21562.4,4193.1
21566.5,4184.59
21571.3,4176.51
21576.9,4168.94
21583.2,4161.97
21590.2,4155.64
21597.8,4150.03
21605.8,4145.19
21614.4,4141.16
21623.2,4137.99
21632.4,4135.7
21641.7,4134.32
21651.1,4133.86
21872.5,4133.86
Z" /> 
</g>
<g >
</g>
<g style="fill:#000000; fill-opacity:1.0; 
stroke:#000000; stroke-width:0; stroke-opacity:1; 
stroke-linecap:round; stroke-linejoin:round;">
<path style="fill:#000000; fill-opacity:1.0; 
stroke:#000000; stroke-width:0; stroke-opacity:1; 
stroke-linecap:round; stroke-linejoin:round;fill-rule:evenodd;"
d="M 16253,3907.99
16263.3,3909.51
16273.3,3912.04
16283.1,3915.53
16292.5,3919.97
16301.4,3925.31
16309.7,3931.5
16317.4,3938.47
16324.4,3946.16
16330.6,3954.5
16335.9,3963.41
16340.4,3972.8
16343.9,3982.57
16346.4,3992.65
16347.9,4002.92
16348.4,4013.29
16348.4,4224.9
16347.9,4235.27
16346.4,4245.54
16343.9,4255.62
16340.4,4265.39
16335.9,4274.78
16330.6,4283.69
16324.4,4292.03
16317.4,4299.72
16309.7,4306.69
16301.4,4312.88
16292.5,4318.22
16283.1,4322.66
16273.3,4326.15
16263.3,4328.68
16253,4330.2
16242.6,4330.71
15863.7,4330.71
15853.3,4330.2
15843,4328.68
15833,4326.15
15823.2,4322.66
15813.8,4318.22
15804.9,4312.88
15796.6,4306.69
15788.9,4299.72
15781.9,4292.03
15775.7,4283.69
15770.4,4274.78
15765.9,4265.39
15762.4,4255.62
15759.9,4245.54
15758.4,4235.27
15757.9,4224.9
15757.9,4013.29
15758.4,4002.92
15759.9,3992.65
15762.4,3982.57
15765.9,3972.8
15770.4,3963.41
15775.7,3954.5
15781.9,3946.16
15788.9,3938.47
15796.6,3931.5
15804.9,3925.31
15813.8,3919.97
15823.2,3915.53
15833,3912.04
15843,3909.51
15853.3,3907.99
15863.7,3907.48
16242.6,3907.48
Z" /> 
<path style="fill:#000000; fill-opacity:1.0; 
stroke:#000000; stroke-width:0; stroke-opacity:1; 
stroke-linecap:round; stroke-linejoin:round;fill-rule:evenodd;"
d="M 16253,3169.8
16263.3,3171.32
16273.3,3173.85
16283.1,3177.35
16292.5,3181.79
16301.4,3187.12
16309.7,3193.31
16317.4,3200.28
16324.4,3207.98
16330.6,3216.32
16335.9,3225.22
16340.4,3234.61
16343.9,3244.38
16346.4,3254.46
16347.9,3264.73
16348.4,3275.1
16348.4,3486.71
16347.9,3497.08
16346.4,3507.36
16343.9,3517.43
16340.4,3527.2
16335.9,3536.59
16330.6,3545.5
16324.4,3553.84
16317.4,3561.53
16309.7,3568.5
16301.4,3574.69
16292.5,3580.03
16283.1,3584.47
16273.3,3587.96
16263.3,3590.49
16253,3592.01
16242.6,3592.52
15863.7,3592.52
15853.3,3592.01
15843,3590.49
15833,3587.96
15823.2,3584.47
15813.8,3580.03
15804.9,3574.69
15796.6,3568.5
15788.9,3561.53
15781.9,3553.84
15775.7,3545.5
15770.4,3536.59
15765.9,3527.2
15762.4,3517.43
15759.9,3507.36
15758.4,3497.08
15757.9,3486.71
15757.9,3275.1
15758.4,3264.73
15759.9,3254.46
15762.4,3244.38
15765.9,3234.61
15770.4,3225.22
15775.7,3216.32
15781.9,3207.98
15788.9,3200.28
15796.6,3193.31
15804.9,3187.12
15813.8,3181.79
15823.2,3177.35
15833,3173.85
15843,3171.32
15853.3,3169.8
15863.7,3169.29
16242.6,3169.29
Z" /> 
</g>
<g >
</g>
<g style="fill:#000000; fill-opacity:1.0; 
stroke:#000000; stroke-width:0; stroke-opacity:1; 
stroke-linecap:round; stroke-linejoin:round;">
<path style="fill:#000000; fill-opacity:1.0; 
stroke:#000000; stroke-width:0; stroke-opacity:1; 
stroke-linecap:round; stroke-linejoin:round;fill-rule:evenodd;"
d="M 18401.3,6277.89
18407.9,6278.86
18414.4,6280.48
18420.7,6282.73
18426.7,6285.58
18432.4,6289
18437.8,6292.98
18442.7,6297.45
18447.2,6302.39
18451.2,6307.74
18454.6,6313.46
18457.4,6319.48
18459.7,6325.76
18461.3,6332.22
18462.3,6338.82
18462.6,6345.47
18462.6,6481.3
18462.3,6487.96
18461.3,6494.55
18459.7,6501.01
18457.4,6507.29
18454.6,6513.31
18451.2,6519.03
18447.2,6524.38
18442.7,6529.32
18437.8,6533.8
18432.4,6537.77
18426.7,6541.19
18420.7,6544.04
18414.4,6546.29
18407.9,6547.91
18401.3,6548.89
18394.7,6549.21
18239.2,6549.21
18232.5,6548.89
18225.9,6547.91
18219.5,6546.29
18213.2,6544.04
18207.2,6541.19
18201.4,6537.77
18196.1,6533.8
18191.2,6529.32
18186.7,6524.38
18182.7,6519.03
18179.3,6513.31
18176.4,6507.29
18174.2,6501.01
18172.6,6494.55
18171.6,6487.96
18171.3,6481.3
18171.3,6345.47
18171.6,6338.82
18172.6,6332.22
18174.2,6325.76
18176.4,6319.48
18179.3,6313.46
18182.7,6307.74
18186.7,6302.39
18191.2,6297.45
18196.1,6292.98
18201.4,6289
18207.2,6285.58
18213.2,6282.73
18219.5,6280.48
18225.9,6278.86
18232.5,6277.89
18239.2,6277.56
18394.7,6277.56
Z" /> 
<path style="fill:#000000; fill-opacity:1.0; 
stroke:#000000; stroke-width:0; stroke-opacity:1; 
stroke-linecap:round; stroke-linejoin:round;fill-rule:evenodd;"
d="M 18401.3,6659.78
18407.9,6660.75
18414.4,6662.37
18420.7,6664.62
18426.7,6667.47
18432.4,6670.89
18437.8,6674.86
18442.7,6679.34
18447.2,6684.28
18451.2,6689.63
18454.6,6695.35
18457.4,6701.37
18459.7,6707.65
18461.3,6714.11
18462.3,6720.71
18462.6,6727.36
18462.6,6863.19
18462.3,6869.85
18461.3,6876.44
18459.7,6882.9
18457.4,6889.18
18454.6,6895.2
18451.2,6900.92
18447.2,6906.27
18442.7,6911.21
18437.8,6915.69
18432.4,6919.66
18426.7,6923.08
18420.7,6925.93
18414.4,6928.18
18407.9,6929.8
18401.3,6930.78
18394.7,6931.1
18239.2,6931.1
18232.5,6930.78
18225.9,6929.8
18219.5,6928.18
18213.2,6925.93
18207.2,6923.08
18201.4,6919.66
18196.1,6915.69
18191.2,6911.21
18186.7,6906.27
18182.7,6900.92
18179.3,6895.2
18176.4,6889.18
18174.2,6882.9
18172.6,6876.44
18171.6,6869.85
18171.3,6863.19
18171.3,6727.36
18171.6,6720.71
18172.6,6714.11
18174.2,6707.65
18176.4,6701.37
18179.3,6695.35
18182.7,6689.63
18186.7,6684.28
18191.2,6679.34
18196.1,6674.86
18201.4,6670.89
18207.2,6667.47
18213.2,6664.62
18219.5,6662.37
18225.9,6660.75
18232.5,6659.78
18239.2,6659.45
18394.7,6659.45
Z" /> 
</g>
<g >
</g>
<g style="fill:#000000; fill-opacity:1.0; 
stroke:#000000; stroke-width:0; stroke-opacity:1; 
stroke-linecap:round; stroke-linejoin:round;">
<path style="fill:#000000; fill-opacity:1.0; 
stroke:#000000; stroke-width:0; stroke-opacity:1; 
stroke-linecap:round; stroke-linejoin:round;fill-rule:evenodd;"
d="M 4973.46,10541.8
4983.73,10543.4
4993.81,10545.9
5003.58,10549.4
5012.97,10553.8
5021.87,10559.2
5030.21,10565.4
5037.91,10572.3
5044.88,10580
5051.07,10588.4
5056.4,10597.3
5060.84,10606.7
5064.34,10616.4
5066.86,10626.5
5068.39,10636.8
5068.9,10647.1
5068.9,11026.1
5068.39,11036.5
5066.86,11046.7
5064.34,11056.8
5060.84,11066.6
5056.4,11076
5051.07,11084.9
5044.88,11093.2
5037.91,11100.9
5030.21,11107.9
5021.87,11114.1
5012.97,11119.4
5003.58,11123.8
4993.81,11127.3
4983.73,11129.9
4973.46,11131.4
4963.09,11131.9
4751.48,11131.9
4741.11,11131.4
4730.83,11129.9
4720.76,11127.3
4710.99,11123.8
4701.6,11119.4
4692.69,11114.1
4684.35,11107.9
4676.66,11100.9
4669.69,11093.2
4663.5,11084.9
4658.16,11076
4653.72,11066.6
4650.23,11056.8
4647.7,11046.7
4646.18,11036.5
4645.67,11026.1
4645.67,10647.1
4646.18,10636.8
4647.7,10626.5
4650.23,10616.4
4653.72,10606.7
4658.16,10597.3
4663.5,10588.4
4669.69,10580
4676.66,10572.3
4684.35,10565.4
4692.69,10559.2
4701.6,10553.8
4710.99,10549.4
4720.76,10545.9
4730.83,10543.4
4741.11,10541.8
4751.48,10541.3
4963.09,10541.3
Z" /> 
<path style="fill:#000000; fill-opacity:1.0; 
stroke:#000000; stroke-width:0; stroke-opacity:1; 
stroke-linecap:round; stroke-linejoin:round;fill-rule:evenodd;"
d="M 5711.65,10541.8
5721.92,10543.4
5731.99,10545.9
5741.77,10549.4
5751.16,10553.8
5760.06,10559.2
5768.4,10565.4
5776.1,10572.3
5783.07,10580
5789.26,10588.4
5794.59,10597.3
5799.03,10606.7
5802.53,10616.4
5805.05,10626.5
5806.58,10636.8
5807.09,10647.1
5807.09,11026.1
5806.58,11036.5
5805.05,11046.7
5802.53,11056.8
5799.03,11066.6
5794.59,11076
5789.26,11084.9
5783.07,11093.2
5776.1,11100.9
5768.4,11107.9
5760.06,11114.1
5751.16,11119.4
5741.77,11123.8
5731.99,11127.3
5721.92,11129.9
5711.65,11131.4
5701.28,11131.9
5489.67,11131.9
5479.29,11131.4
5469.02,11129.9
5458.95,11127.3
5449.18,11123.8
5439.79,11119.4
5430.88,11114.1
5422.54,11107.9
5414.85,11100.9
5407.88,11093.2
5401.69,11084.9
5396.35,11076
5391.91,11066.6
5388.41,11056.8
5385.89,11046.7
5384.37,11036.5
5383.86,11026.1
5383.86,10647.1
5384.37,10636.8
5385.89,10626.5
5388.41,10616.4
5391.91,10606.7
5396.35,10597.3
5401.69,10588.4
5407.88,10580
5414.85,10572.3
5422.54,10565.4
5430.88,10559.2
5439.79,10553.8
5449.18,10549.4
5458.95,10545.9
5469.02,10543.4
5479.29,10541.8
5489.67,10541.3
5701.28,10541.3
Z" /> 
</g>
<g >
</g>
<g style="fill:#000000; fill-opacity:1.0; 
stroke:#000000; stroke-width:0; stroke-opacity:1; 
stroke-linecap:round; stroke-linejoin:round;">
<path style="fill:#000000; fill-opacity:1.0; 
stroke:#000000; stroke-width:0; stroke-opacity:1; 
stroke-linecap:round; stroke-linejoin:round;fill-rule:evenodd;"
d="M 5006.95,9842.98
5016.26,9844.36
5025.4,9846.65
5034.26,9849.82
5042.78,9853.85
5050.85,9858.69
5058.42,9864.3
5065.4,9870.63
5071.72,9877.61
5077.33,9885.17
5082.17,9893.25
5086.2,9901.76
5089.37,9910.63
5091.66,9919.76
5093.04,9929.08
5093.5,9938.48
5093.5,10159.9
5093.04,10169.3
5091.66,10178.7
5089.37,10187.8
5086.2,10196.7
5082.17,10205.2
5077.33,10213.3
5071.72,10220.8
5065.4,10227.8
5058.42,10234.1
5050.85,10239.7
5042.78,10244.6
5034.26,10248.6
5025.4,10251.8
5016.26,10254.1
5006.95,10255.4
4997.54,10255.9
4805.61,10255.9
4796.2,10255.4
4786.89,10254.1
4777.75,10251.8
4768.89,10248.6
4760.37,10244.6
4752.3,10239.7
4744.73,10234.1
4737.75,10227.8
4731.43,10220.8
4725.82,10213.3
4720.98,10205.2
4716.95,10196.7
4713.78,10187.8
4711.49,10178.7
4710.11,10169.3
4709.65,10159.9
4709.65,9938.48
4710.11,9929.08
4711.49,9919.76
4713.78,9910.63
4716.95,9901.76
4720.98,9893.25
4725.82,9885.17
4731.43,9877.61
4737.75,9870.63
4744.73,9864.3
4752.3,9858.69
4760.37,9853.85
4768.89,9849.82
4777.75,9846.65
4786.89,9844.36
4796.2,9842.98
4805.61,9842.52
4997.54,9842.52
Z" /> 
<path style="fill:#000000; fill-opacity:1.0; 
stroke:#000000; stroke-width:0; stroke-opacity:1; 
stroke-linecap:round; stroke-linejoin:round;fill-rule:evenodd;"
d="M 5627.02,9842.98
5636.34,9844.36
5645.48,9846.65
5654.34,9849.82
5662.86,9853.85
5670.93,9858.69
5678.5,9864.3
5685.48,9870.63
5691.8,9877.61
5697.41,9885.17
5702.25,9893.25
5706.28,9901.76
5709.45,9910.63
5711.74,9919.76
5713.12,9929.08
5713.58,9938.48
5713.58,10159.9
5713.12,10169.3
5711.74,10178.7
5709.45,10187.8
5706.28,10196.7
5702.25,10205.2
5697.41,10213.3
5691.8,10220.8
5685.48,10227.8
5678.5,10234.1
5670.93,10239.7
5662.86,10244.6
5654.34,10248.6
5645.48,10251.8
5636.34,10254.1
5627.02,10255.4
5617.62,10255.9
5425.69,10255.9
5416.28,10255.4
5406.97,10254.1
5397.83,10251.8
5388.97,10248.6
5380.45,10244.6
5372.37,10239.7
5364.81,10234.1
5357.83,10227.8
5351.51,10220.8
5345.9,10213.3
5341.06,10205.2
5337.03,10196.7
5333.86,10187.8
5331.57,10178.7
5330.19,10169.3
5329.72,10159.9
5329.72,9938.48
5330.19,9929.08
5331.57,9919.76
5333.86,9910.63
5337.03,9901.76
5341.06,9893.25
5345.9,9885.17
5351.51,9877.61
5357.83,9870.63
5364.81,9864.3
5372.37,9858.69
5380.45,9853.85
5388.97,9849.82
5397.83,9846.65
5406.97,9844.36
5416.28,9842.98
5425.69,9842.52
5617.62,9842.52
Z" /> 
</g>
<g >
</g>
<g style="fill:#000000; fill-opacity:1.0; 
stroke:#000000; stroke-width:0; stroke-opacity:1; 
stroke-linecap:round; stroke-linejoin:round;">
<path style="fill:#000000; fill-opacity:1.0; 
stroke:#000000; stroke-width:0; stroke-opacity:1; 
stroke-linecap:round; stroke-linejoin:round;fill-rule:evenodd;"
d="M 7082.44,10596.8
7089.04,10597.8
7095.5,10599.4
7101.78,10601.6
7107.8,10604.5
7113.52,10607.9
7118.87,10611.9
7123.81,10616.3
7128.29,10621.3
7132.26,10626.6
7135.68,10632.4
7138.53,10638.4
7140.78,10644.7
7142.4,10651.1
7143.37,10657.7
7143.7,10664.4
7143.7,10800.2
7143.37,10806.9
7142.4,10813.4
7140.78,10819.9
7138.53,10826.2
7135.68,10832.2
7132.26,10837.9
7128.29,10843.3
7123.81,10848.2
7118.87,10852.7
7113.52,10856.7
7107.8,10860.1
7101.78,10862.9
7095.5,10865.2
7089.04,10866.8
7082.44,10867.8
7075.79,10868.1
6920.28,10868.1
6913.62,10867.8
6907.03,10866.8
6900.56,10865.2
6894.29,10862.9
6888.26,10860.1
6882.55,10856.7
6877.19,10852.7
6872.25,10848.2
6867.78,10843.3
6863.81,10837.9
6860.38,10832.2
6857.53,10826.2
6855.29,10819.9
6853.67,10813.4
6852.69,10806.9
6852.36,10800.2
6852.36,10664.4
6852.69,10657.7
6853.67,10651.1
6855.29,10644.7
6857.53,10638.4
6860.38,10632.4
6863.81,10626.6
6867.78,10621.3
6872.25,10616.3
6877.19,10611.9
6882.55,10607.9
6888.26,10604.5
6894.29,10601.6
6900.56,10599.4
6907.03,10597.8
6913.62,10596.8
6920.28,10596.5
7075.79,10596.5
Z" /> 
<path style="fill:#000000; fill-opacity:1.0; 
stroke:#000000; stroke-width:0; stroke-opacity:1; 
stroke-linecap:round; stroke-linejoin:round;fill-rule:evenodd;"
d="M 7082.44,10214.9
7089.04,10215.9
7095.5,10217.5
7101.78,10219.7
7107.8,10222.6
7113.52,10226
7118.87,10230
7123.81,10234.5
7128.29,10239.4
7132.26,10244.8
7135.68,10250.5
7138.53,10256.5
7140.78,10262.8
7142.4,10269.2
7143.37,10275.8
7143.7,10282.5
7143.7,10418.3
7143.37,10425
7142.4,10431.6
7140.78,10438
7138.53,10444.3
7135.68,10450.3
7132.26,10456
7128.29,10461.4
7123.81,10466.3
7118.87,10470.8
7113.52,10474.8
7107.8,10478.2
7101.78,10481.1
7095.5,10483.3
7089.04,10484.9
7082.44,10485.9
7075.79,10486.2
6920.28,10486.2
6913.62,10485.9
6907.03,10484.9
6900.56,10483.3
6894.29,10481.1
6888.26,10478.2
6882.55,10474.8
6877.19,10470.8
6872.25,10466.3
6867.78,10461.4
6863.81,10456
6860.38,10450.3
6857.53,10444.3
6855.29,10438
6853.67,10431.6
6852.69,10425
6852.36,10418.3
6852.36,10282.5
6852.69,10275.8
6853.67,10269.2
6855.29,10262.8
6857.53,10256.5
6860.38,10250.5
6863.81,10244.8
6867.78,10239.4
6872.25,10234.5
6877.19,10230
6882.55,10226
6888.26,10222.6
6894.29,10219.7
6900.56,10217.5
6907.03,10215.9
6913.62,10214.9
6920.28,10214.6
7075.79,10214.6
Z" /> 
</g>
<g >
</g>
<g >
</g>
<g >
</g>
</g>
<g style="fill:#000000; fill-opacity:1.0; 
stroke:#000000; stroke-width:0; stroke-opacity:1; 
stroke-linecap:round; stroke-linejoin:round;">
</g>
<g style="fill:#000000; fill-opacity:1.0; 
stroke:#000000; stroke-width:19.685; stroke-opacity:1; 
stroke-linecap:round; stroke-linejoin:round;">
</g>
<g style="fill:#000000; fill-opacity:0.0; 
stroke:#000000; stroke-width:19.685; stroke-opacity:1; 
stroke-linecap:round; stroke-linejoin:round;">
<path d="M27568 895
L27568 12706
" />
<path d="M1978 895
L1978 12706
" />
<path d="M27568 895
L1978 895
" />
<path d="M1978 12706
L27568 12706
" />
<g >
</g>
<g >
</g>
<g >
</g>
<g >
</g>
<g >
</g>
<g >
</g>
<g >
</g>
<g >
</g>
<g >
</g>
<g >
</g>
<g >
</g>
<g >
</g>
<g >
</g>
<g >
</g>
<g >
</g>
<g >
</g>
<g >
</g>
<g >
</g>
<g >
</g>
<g >
</g>
<g >
</g>
<g >
</g>
<g >
</g>
<g >
</g>
<g >
</g>
<g >
</g>
<g >
</g>
<g >
</g>
<g >
</g>
<g >
</g>
<g >
</g>
<g >
</g>
<g >
</g>
<g >
</g>
<g >
</g>
<g >
</g>
<g >
</g>
<g >
</g>
<g >
</g>
<g >
</g>
<g >
</g>
<g >
</g>
<g >
</g>
<g >
</g>
<g >
</g>
<g >
</g>
<g >
</g>
<g >
</g>
<g >
</g>
<g >
</g>
<g >
</g>
<g >
</g>
<g >
</g>
<g >
</g>
<g >
</g>
<g >
</g>
<g >
</g>
</g> 
</svg>
