<?xml version="1.0" standalone="no"?>
 <!DOCTYPE svg PUBLIC "-//W3C//DTD SVG 1.1//EN" 
 "http://www.w3.org/Graphics/SVG/1.1/DTD/svg11.dtd"> 
<svg
  xmlns:svg="http://www.w3.org/2000/svg"
  xmlns="http://www.w3.org/2000/svg"
  xmlns:xlink="http://www.w3.org/1999/xlink"
  version="1.1"
  width="29.700220cm" height="21.000720cm" viewBox="0 0 116930 82680">
<title>SVG Picture created as epaper-F_SilkS.svg date 2020/09/06 00:54:51 </title>
  <desc>Picture generated by PCBNEW </desc>
<g style="fill:#000000; fill-opacity:1;stroke:#000000; stroke-opacity:1;
stroke-linecap:round; stroke-linejoin:round;"
 transform="translate(0 0) scale(1 1)">
</g>
<g style="fill:#000000; fill-opacity:0.0; 
stroke:#000000; stroke-width:-0.000393701; stroke-opacity:1; 
stroke-linecap:round; stroke-linejoin:round;">
</g>
<g style="fill:#008484; fill-opacity:0.0; 
stroke:#008484; stroke-width:-0.000393701; stroke-opacity:1; 
stroke-linecap:round; stroke-linejoin:round;">
</g>
<g style="fill:#008484; fill-opacity:0.0; 
stroke:#008484; stroke-width:39.3701; stroke-opacity:1; 
stroke-linecap:round; stroke-linejoin:round;">
<text x="48897.6" y="35787.4"
textLength="564.211" font-size="524.934" lengthAdjust="spacingAndGlyphs"
text-anchor="middle" opacity="0">-</text>
<path d="M48747 35618
L49047 35618
" />
<text x="47795.3" y="35866.1"
textLength="538.62" font-size="524.934" lengthAdjust="spacingAndGlyphs"
text-anchor="middle" opacity="0">+</text>
<path d="M47645 35697
L47945 35697
" />
<path d="M47795 35847
L47795 35547
" />
<g transform="rotate(-90 42204.7 45275.6)">
<text x="42204.7" y="45413.4"
textLength="1131.05" font-size="472.441" lengthAdjust="spacingAndGlyphs"
text-anchor="middle" opacity="0">GND</text>
</g>
<path d="M42066 45545
L42053 45579
L42053 45629
L42066 45680
L42093 45714
L42119 45731
L42171 45748
L42211 45748
L42263 45731
L42290 45714
L42316 45680
L42329 45629
L42329 45596
L42316 45545
L42303 45528
L42211 45528
L42211 45596
" />
<path d="M42329 45376
L42053 45376
L42329 45174
L42053 45174
" />
<path d="M42329 45005
L42053 45005
L42053 44921
L42066 44870
L42093 44836
L42119 44820
L42171 44803
L42211 44803
L42263 44820
L42290 44836
L42316 44870
L42329 44921
L42329 45005
" />
<g transform="rotate(-90 41259.8 45308.4)">
<text x="41259.8" y="45446.2"
textLength="1046.68" font-size="472.441" lengthAdjust="spacingAndGlyphs"
text-anchor="middle" opacity="0">TDO</text>
</g>
<path d="M41108 45772
L41108 45569
" />
<path d="M41384 45671
L41108 45671
" />
<path d="M41384 45451
L41108 45451
L41108 45367
L41122 45316
L41148 45283
L41174 45266
L41227 45249
L41266 45249
L41318 45266
L41345 45283
L41371 45316
L41384 45367
L41384 45451
" />
<path d="M41108 45029
L41108 44962
L41122 44928
L41148 44895
L41200 44878
L41292 44878
L41345 44895
L41371 44928
L41384 44962
L41384 45029
L41371 45063
L41345 45097
L41292 45114
L41200 45114
L41148 45097
L41122 45063
L41108 45029
" />
<g transform="rotate(-90 40236.2 45301.8)">
<text x="40236.2" y="45439.6"
textLength="1063.55" font-size="472.441" lengthAdjust="spacingAndGlyphs"
text-anchor="middle" opacity="0">TMS</text>
</g>
<path d="M40085 45774
L40085 45571
" />
<path d="M40360 45673
L40085 45673
" />
<path d="M40360 45453
L40085 45453
L40282 45335
L40085 45217
L40360 45217
" />
<path d="M40347 45065
L40360 45014
L40360 44930
L40347 44896
L40334 44880
L40308 44863
L40282 44863
L40255 44880
L40242 44896
L40229 44930
L40216 44998
L40203 45031
L40190 45048
L40164 45065
L40137 45065
L40111 45048
L40098 45031
L40085 44998
L40085 44913
L40098 44863
" />
<g transform="rotate(-90 39212.6 45315)">
<text x="39212.6" y="45452.8"
textLength="1029.81" font-size="472.441" lengthAdjust="spacingAndGlyphs"
text-anchor="middle" opacity="0">TCK</text>
</g>
<path d="M39061 45770
L39061 45568
" />
<path d="M39337 45669
L39061 45669
" />
<path d="M39311 45247
L39324 45264
L39337 45314
L39337 45348
L39324 45399
L39297 45433
L39271 45449
L39219 45466
L39179 45466
L39127 45449
L39101 45433
L39074 45399
L39061 45348
L39061 45314
L39074 45264
L39087 45247
" />
<path d="M39337 45095
L39061 45095
" />
<path d="M39337 44893
L39179 45044
" />
<path d="M39061 44893
L39219 45095
" />
<g transform="rotate(-90 38189 45387.1)">
<text x="38189" y="45544.6"
textLength="844.207" font-size="472.441" lengthAdjust="spacingAndGlyphs"
text-anchor="middle" opacity="0">TDI</text>
</g>
<path d="M38016 45749
L38016 45547
" />
<path d="M38331 45648
L38016 45648
" />
<path d="M38331 45429
L38016 45429
L38016 45344
L38031 45294
L38061 45260
L38091 45243
L38151 45226
L38196 45226
L38256 45243
L38286 45260
L38316 45294
L38331 45344
L38331 45429
" />
<path d="M38331 45074
L38016 45074
" />
<g transform="rotate(-90 36535.4 45393.7)">
<text x="36535.4" y="45551.2"
textLength="921.072" font-size="419.947" lengthAdjust="spacingAndGlyphs"
text-anchor="middle" opacity="0">3V3</text>
</g>
<path d="M36362 45783
L36362 45588
L36482 45693
L36482 45648
L36497 45618
L36512 45603
L36542 45588
L36617 45588
L36647 45603
L36662 45618
L36677 45648
L36677 45738
L36662 45768
L36647 45783
" />
<path d="M36362 45498
L36677 45393
L36362 45288
" />
<path d="M36362 45213
L36362 45018
L36482 45123
L36482 45078
L36497 45048
L36512 45033
L36542 45018
L36617 45018
L36647 45033
L36662 45048
L36677 45078
L36677 45168
L36662 45198
L36647 45213
" />
<g transform="rotate(-90 36063 45242.8)">
<text x="36063" y="45400.3"
textLength="1266.03" font-size="419.947" lengthAdjust="spacingAndGlyphs"
text-anchor="middle" opacity="0">BOOT</text>
</g>
<path d="M36040 45670
L36055 45625
L36070 45610
L36100 45595
L36145 45595
L36175 45610
L36190 45625
L36205 45655
L36205 45775
L35890 45775
L35890 45670
L35905 45640
L35920 45625
L35950 45610
L35980 45610
L36010 45625
L36025 45640
L36040 45670
L36040 45775
" />
<path d="M35890 45400
L35890 45340
L35905 45310
L35935 45280
L35995 45265
L36100 45265
L36160 45280
L36190 45310
L36205 45340
L36205 45400
L36190 45430
L36160 45460
L36100 45475
L35995 45475
L35935 45460
L35905 45430
L35890 45400
" />
<path d="M35890 45070
L35890 45010
L35905 44980
L35935 44950
L35995 44935
L36100 44935
L36160 44950
L36190 44980
L36205 45010
L36205 45070
L36190 45100
L36160 45130
L36100 45145
L35995 45145
L35935 45130
L35905 45100
L35890 45070
" />
<path d="M35890 44845
L35890 44665
" />
<path d="M36205 44755
L35890 44755
" />
<g transform="rotate(-90 35511.8 45505.2)">
<text x="35511.8" y="45662.7"
textLength="666.104" font-size="419.947" lengthAdjust="spacingAndGlyphs"
text-anchor="middle" opacity="0">EN</text>
</g>
<path d="M35489 45737
L35489 45632
" />
<path d="M35654 45587
L35654 45737
L35339 45737
L35339 45587
" />
<path d="M35654 45452
L35339 45452
L35654 45272
L35339 45272
" />
<g transform="rotate(-90 35039.4 45538.1)">
<text x="35039.4" y="45695.5"
textLength="591.114" font-size="419.947" lengthAdjust="spacingAndGlyphs"
text-anchor="middle" opacity="0">TX</text>
</g>
<path d="M34866 45778
L34866 45598
" />
<path d="M35181 45688
L34866 45688
" />
<path d="M34866 45523
L35181 45313
" />
<path d="M34866 45313
L35181 45523
" />
<g transform="rotate(-90 34566.9 45505.2)">
<text x="34566.9" y="45662.7"
textLength="666.104" font-size="419.947" lengthAdjust="spacingAndGlyphs"
text-anchor="middle" opacity="0">RX</text>
</g>
<path d="M34709 45557
L34559 45662
" />
<path d="M34709 45737
L34394 45737
L34394 45617
L34409 45587
L34424 45572
L34454 45557
L34499 45557
L34529 45572
L34544 45587
L34559 45617
L34559 45737
" />
<path d="M34394 45452
L34709 45242
" />
<path d="M34394 45242
L34709 45452
" />
<g transform="rotate(-90 34094.5 45354.3)">
<text x="34094.5" y="45511.8"
textLength="1011.06" font-size="419.947" lengthAdjust="spacingAndGlyphs"
text-anchor="middle" opacity="0">GND</text>
</g>
<path d="M33937 45594
L33922 45624
L33922 45669
L33937 45714
L33967 45744
L33997 45759
L34056 45774
L34101 45774
L34161 45759
L34191 45744
L34221 45714
L34236 45669
L34236 45639
L34221 45594
L34206 45579
L34101 45579
L34101 45639
" />
<path d="M34236 45444
L33922 45444
L34236 45264
L33922 45264
" />
<path d="M34236 45114
L33922 45114
L33922 45039
L33937 44994
L33967 44964
L33997 44949
L34056 44934
L34101 44934
L34161 44949
L34191 44964
L34221 44994
L34236 45039
L34236 45114
" />
</g>
<g style="fill:#008484; fill-opacity:0.0; 
stroke:#008484; stroke-width:59.0551; stroke-opacity:1; 
stroke-linecap:round; stroke-linejoin:round;">
<text x="48189" y="37283.5"
textLength="2132.17" font-size="524.934" lengthAdjust="spacingAndGlyphs"
text-anchor="middle" opacity="0">Battery</text>
<path d="M47373 37058
L47429 37077
L47448 37095
L47467 37133
L47467 37189
L47448 37227
L47429 37245
L47392 37264
L47242 37264
L47242 36871
L47373 36871
L47410 36889
L47429 36908
L47448 36946
L47448 36983
L47429 37020
L47410 37039
L47373 37058
L47242 37058
" />
<path d="M47804 37264
L47804 37058
L47785 37020
L47748 37002
L47673 37002
L47635 37020
" />
<path d="M47804 37245
L47767 37264
L47673 37264
L47635 37245
L47617 37208
L47617 37170
L47635 37133
L47673 37114
L47767 37114
L47804 37095
" />
<path d="M47935 37002
L48085 37002
" />
<path d="M47992 36871
L47992 37208
L48010 37245
L48048 37264
L48085 37264
" />
<path d="M48160 37002
L48310 37002
" />
<path d="M48217 36871
L48217 37208
L48235 37245
L48273 37264
L48310 37264
" />
<path d="M48592 37245
L48554 37264
L48479 37264
L48442 37245
L48423 37208
L48423 37058
L48442 37020
L48479 37002
L48554 37002
L48592 37020
L48610 37058
L48610 37095
L48423 37133
" />
<path d="M48779 37264
L48779 37002
" />
<path d="M48779 37077
L48798 37039
L48817 37020
L48854 37002
L48892 37002
" />
<path d="M48985 37002
L49079 37264
" />
<path d="M49173 37002
L49079 37264
L49041 37358
L49023 37377
L48985 37395
" />
<text x="39685" y="37834.6"
textLength="2401.48" font-size="524.934" lengthAdjust="spacingAndGlyphs"
text-anchor="middle" opacity="0">Speaker</text>
<path d="M38597 37797
L38653 37815
L38747 37815
L38785 37797
L38803 37778
L38822 37740
L38822 37703
L38803 37665
L38785 37647
L38747 37628
L38672 37609
L38635 37590
L38616 37572
L38597 37534
L38597 37497
L38616 37459
L38635 37440
L38672 37422
L38766 37422
L38822 37440
" />
<path d="M38991 37553
L38991 37947
" />
<path d="M38991 37572
L39028 37553
L39103 37553
L39141 37572
L39160 37590
L39178 37628
L39178 37740
L39160 37778
L39141 37797
L39103 37815
L39028 37815
L38991 37797
" />
<path d="M39497 37797
L39460 37815
L39385 37815
L39347 37797
L39328 37759
L39328 37609
L39347 37572
L39385 37553
L39460 37553
L39497 37572
L39516 37609
L39516 37647
L39328 37684
" />
<path d="M39853 37815
L39853 37609
L39835 37572
L39797 37553
L39722 37553
L39685 37572
" />
<path d="M39853 37797
L39816 37815
L39722 37815
L39685 37797
L39666 37759
L39666 37722
L39685 37684
L39722 37665
L39816 37665
L39853 37647
" />
<path d="M40041 37815
L40041 37422
" />
<path d="M40078 37665
L40191 37815
" />
<path d="M40191 37553
L40041 37703
" />
<path d="M40509 37797
L40472 37815
L40397 37815
L40359 37797
L40341 37759
L40341 37609
L40359 37572
L40397 37553
L40472 37553
L40509 37572
L40528 37609
L40528 37647
L40341 37684
" />
<path d="M40697 37815
L40697 37553
" />
<path d="M40697 37628
L40716 37590
L40734 37572
L40772 37553
L40809 37553
" />
</g>
<g style="fill:#008484; fill-opacity:0.0; 
stroke:#008484; stroke-width:47.2441; stroke-opacity:1; 
stroke-linecap:round; stroke-linejoin:round;">
<path d="M42519 41555
L42519 40885
" />
<path d="M42519 40885
L41515 40885
" />
<path d="M42519 41555
L41515 41555
" />
</g>
<g style="fill:#008484; fill-opacity:1.0; 
stroke:#008484; stroke-width:3.93701; stroke-opacity:1; 
stroke-linecap:round; stroke-linejoin:round;">
<path style="fill:#008484; fill-opacity:1.0; 
stroke:#008484; stroke-width:3.93701; stroke-opacity:1; 
stroke-linecap:round; stroke-linejoin:round;fill-rule:evenodd;"
d="M 38773.3,41539.9
38794.5,41547.3
38824.3,41562.8
38834.7,41578.7
38833.3,41592.4
38824,41611.6
38806,41617.3
38773.6,41610.4
38755.9,41604.5
38715.3,41597.1
38679,41606.1
38649.7,41623.5
38645,41641
38664.5,41657.9
38707.8,41673.8
38739.5,41681.6
38797.8,41698.5
38834.6,41722
38853.3,41756
38857.2,41804.6
38856.2,41820.7
38843.9,41843.7
38815.5,41868.3
38779.1,41888.6
38754.4,41896.7
38723.8,41897.6
38682.2,41892.1
38662.4,41887.6
38614.1,41870.3
38587.6,41848.6
38579.6,41821.1
38588.9,41802.5
38613.8,41798.4
38649.1,41809.5
38652.7,41811.3
38697.6,41827
38740.3,41829.5
38772.6,41818.5
38779.3,41812.3
38790,41787.4
38776.8,41766.9
38739.2,41750.4
38712.2,41743.7
38646,41723.8
38602.9,41695.9
38581.9,41659.3
38579.4,41638.4
38590.5,41595.5
38620.5,41562.1
38664.3,41540.3
38717,41532.1
Z" /> 
<path style="fill:#008484; fill-opacity:1.0; 
stroke:#008484; stroke-width:3.93701; stroke-opacity:1; 
stroke-linecap:round; stroke-linejoin:round;fill-rule:evenodd;"
d="M 39081.5,41535.4
39127.4,41548.3
39156.5,41572.2
39172.6,41609.2
39175.4,41623.5
39177.1,41654.8
39167,41679.6
39143.3,41706.5
39117.2,41729.8
39093.1,41740.6
39060.3,41742.5
39038.6,41741.4
38973.2,41737.2
38969.4,41812.2
38965.4,41861.5
38958.6,41889.2
38947.1,41898.7
38929,41893.4
38925.8,41891.7
38916.4,41883.9
38910.2,41870.1
38906.5,41845.9
38905,41807.1
38904.9,41749.2
38905.2,41721.2
38906.4,41659.8
38908.3,41606.8
38909.1,41593.4
38966.9,41593.4
38966.9,41637.2
38968.2,41664.2
38976.5,41676.9
38998.7,41680.7
39022.3,41680.9
39066.4,41675.9
39095.8,41662.6
39097.3,41661.3
39110,41638.6
39104,41617.5
39089.6,41602.1
39063.2,41594.9
39029,41593.4
38966.9,41593.4
38909.1,41593.4
38910.7,41567.7
38913.2,41547.7
38913.4,41547.1
38926.9,41537.9
38960.4,41532.7
39015.1,41531.3
Z" /> 
<path style="fill:#008484; fill-opacity:1.0; 
stroke:#008484; stroke-width:3.93701; stroke-opacity:1; 
stroke-linecap:round; stroke-linejoin:round;fill-rule:evenodd;"
d="M 39373.9,41531.8
39406.4,41535.8
39428.4,41544.7
39447.3,41560.1
39448.7,41561.6
39474.3,41603.3
39477.3,41650.7
39466.5,41681.8
39461.2,41711.8
39466.1,41755.6
39479.7,41805
39494.8,41840.6
39502.4,41866.4
39491.5,41886.6
39489.4,41888.7
39463.8,41901.4
39439.4,41893.4
39422,41868.7
39416.9,41839.5
39408.1,41789.8
39382.6,41757.2
39342.4,41743.7
39335,41743.4
39304.5,41746.7
39291.5,41760.6
39290.8,41791.6
39291.3,41796.9
39289.1,41824
39280.6,41858.7
39280.2,41859.9
39263.6,41888.8
39241.9,41902.5
39221.7,41898.9
39211.3,41882.9
39210,41856.9
39216,41821.9
39217,41818.2
39222.5,41786.5
39226.7,41738.1
39229.1,41681.1
39229.4,41658.4
39285.1,41658.4
39288,41671.5
39305,41679.5
39335.5,41680.5
39369.5,41675.2
39396.7,41664.4
39398.9,41662.9
39415.9,41641.1
39411,41621.2
39387,41606.3
39346.9,41599.7
39341.6,41599.7
39307.6,41601.2
39291.3,41608.6
39285.7,41625.8
39285.2,41630.9
39285.1,41658.4
39229.4,41658.4
39229.4,41652.9
39229.4,41530.9
39323.7,41530.9
Z" /> 
<path style="fill:#008484; fill-opacity:1.0; 
stroke:#008484; stroke-width:3.93701; stroke-opacity:1; 
stroke-linecap:round; stroke-linejoin:round;fill-rule:evenodd;"
d="M 39737,41537
39760.1,41545.4
39783.1,41563.8
39791.8,41586.4
39784.1,41605
39776.3,41609.2
39753.9,41609.3
39725.2,41602.4
39694.2,41596.9
39666.5,41608
39656.4,41615
39625.9,41641.9
39617.8,41661.3
39632.7,41674.1
39671.4,41681.5
39700.5,41683.4
39745.9,41686.2
39772,41690.8
39784.6,41699.3
39789.4,41713.8
39789.7,41715.3
39790.3,41729.9
39783.4,41738.3
39763.8,41742.2
39726.6,41743.4
39705.3,41743.4
39652.5,41745.8
39623,41753.7
39615.5,41768.6
39628.7,41791.6
39641.9,41805.9
39679.5,41828
39722.9,41826.2
39744.2,41817.2
39769.2,41810.5
39789.8,41823.4
39803.1,41841
39796.8,41856
39790.9,41862.3
39752.5,41885.5
39702.9,41895.5
39658.6,41891.3
39618.5,41870.4
39580.6,41834.3
39553.2,41791.7
39546.8,41773.7
39534.9,41750.7
39521.8,41743.4
39508.2,41732.5
39504.4,41712.2
39510.5,41687.6
39522,41680.9
39538.5,41670.4
39552.6,41646.5
39584.8,41590.1
39629,41551.7
39681.1,41533.3
Z" /> 
<path style="fill:#008484; fill-opacity:1.0; 
stroke:#008484; stroke-width:3.93701; stroke-opacity:1; 
stroke-linecap:round; stroke-linejoin:round;fill-rule:evenodd;"
d="M 40779.5,41537.1
40823.1,41553.5
40852.8,41576.8
40859.2,41587.8
40861.2,41614.4
40846.1,41628.6
40819.6,41628.6
40787.2,41612.4
40786.4,41611.8
40749,41594.5
40714.6,41597
40689.4,41616.8
40679.4,41651.7
40679.4,41652.2
40681,41667.1
40689.5,41675.7
40710.1,41679.7
40748.4,41680.9
40767.8,41680.9
40813.7,41681.4
40839.8,41684
40851.2,41690.3
40853,41702.3
40852.2,41709
40847.7,41724.1
40835.9,41733.1
40810.9,41737.9
40767,41740.7
40763.8,41740.9
40679.4,41744.5
40679.4,41817.5
40678.2,41859.7
40673.1,41883.2
40662.4,41894.3
40655.2,41896.8
40632.1,41899
40623.9,41896.2
40620.1,41880.9
40617.6,41848.4
40616.9,41817.7
40614.7,41772.1
40607.4,41746.8
40598.2,41738.9
40582.7,41721.9
40579.4,41706.3
40587.2,41685.6
40598.2,41680.9
40612,41671.5
40616.9,41641.6
40616.9,41636.6
40627.7,41587.5
40657.9,41551.9
40704.1,41533.1
40729.5,41530.9
Z" /> 
<path style="fill:#008484; fill-opacity:1.0; 
stroke:#008484; stroke-width:3.93701; stroke-opacity:1; 
stroke-linecap:round; stroke-linejoin:round;fill-rule:evenodd;"
d="M 38485.7,41538.6
38517.3,41557.7
38529.4,41585.7
38529.4,41586.8
38526.1,41599.9
38511.8,41604.2
38480.3,41601.4
38473.4,41600.3
38435.8,41596.9
38411.3,41602.7
38388.4,41620.8
38385.9,41623.3
38364.8,41647.6
38354.6,41665.7
38354.4,41667.3
38365.9,41674
38395.8,41679.8
38437.9,41683.4
38438.8,41683.5
38484,41686.2
38509.9,41690.9
38522.3,41699.5
38527,41714.2
38527.2,41715.3
38527.8,41729.9
38520.9,41738.3
38501.3,41742.2
38464.1,41743.4
38442.8,41743.4
38390.5,41745.5
38361.5,41752.7
38354.4,41766.4
38367.8,41788
38383.4,41803.7
38420.8,41827.4
38459.4,41826.9
38479.3,41818.4
38507.6,41811.7
38531.7,41818.7
38541.9,41836.6
38530.5,41863.1
38499.4,41882.7
38453.8,41892.7
38436.6,41893.4
38395.5,41890.5
38365.7,41878.1
38334.4,41850.9
38309,41820
38293.8,41791
38291.9,41781
38281.7,41755.1
38266.9,41747
38246.6,41732
38243.7,41708.5
38258.5,41686.2
38265.5,41681.7
38287,41660.1
38296.6,41638.9
38317.3,41599.9
38354.3,41564.7
38398.8,41539.7
38439.2,41531.3
Z" /> 
<path style="fill:#008484; fill-opacity:1.0; 
stroke:#008484; stroke-width:3.93701; stroke-opacity:1; 
stroke-linecap:round; stroke-linejoin:round;fill-rule:evenodd;"
d="M 40036,41538.1
40070.5,41554.5
40089.7,41580.1
40091.9,41594.1
40088.8,41611
40076.2,41617.2
40049,41613.3
40015.2,41603.9
39973.5,41595.8
39941,41601.4
39935.6,41603.6
39909.3,41622.2
39907.3,41641.3
39928.7,41658.9
39957.6,41669.4
40017.1,41686.1
40057,41698.7
40081.8,41709.1
40096.2,41719.4
40104.5,41731.1
40117.3,41778.8
40108.8,41826.6
40083.9,41862.8
40056,41882.6
40022.7,41891.5
39987,41892.9
39940.2,41889
39896.7,41879.8
39882.6,41874.8
39850.8,41853.6
39841.9,41832.2
39845.8,41809.6
39860.2,41801
39889.5,41805.6
39920,41815.6
39969.7,41827.3
40010.8,41825.4
40038.6,41811.1
40048.2,41786.9
40043.4,41771.7
40025.8,41759.8
39990.3,41748.2
39971.2,41743.4
39925.9,41729.6
39887.3,41713.2
39868.1,41700.8
39847.8,41667.9
39842.4,41626.8
39852.4,41588.5
39862.6,41574.5
39899.7,41549.1
39944.8,41535
39992.2,41531.5
Z" /> 
<path style="fill:#008484; fill-opacity:1.0; 
stroke:#008484; stroke-width:3.93701; stroke-opacity:1; 
stroke-linecap:round; stroke-linejoin:round;fill-rule:evenodd;"
d="M 40359.4,41545.6
40385.7,41567.9
40391.9,41590.1
40389,41611.7
40375.1,41616.3
40357.6,41612.9
40305.9,41601.1
40271.4,41596.4
40247.7,41598.4
40230.9,41605.1
40207.7,41624.6
40208.8,41643.8
40233.3,41660.9
40257.6,41669.1
40321.9,41687.7
40365.9,41703.9
40393.8,41719.9
40409.9,41737.6
40412.4,41742.1
40419.9,41782.4
40409.7,41826.5
40384.4,41864.2
40376.3,41871.2
40341,41886.2
40291.7,41892.3
40237.7,41889.3
40188.5,41877.2
40182.6,41874.8
40150.2,41853
40141.9,41831.1
40150.1,41805.4
40173.5,41798.6
40210.6,41811.2
40211.5,41811.6
40266.4,41829.3
40316.8,41824
40330.3,41818
40353.2,41798.5
40352.7,41778.7
40330.5,41760.3
40288.1,41744.9
40252.6,41737.6
40197.5,41719.8
40161.1,41690.3
40143.3,41654
40143.9,41615.5
40162.7,41579.7
40199.5,41551.2
40254.3,41534.8
40259.7,41534.1
40316.1,41533.8
Z" /> 
<path style="fill:#008484; fill-opacity:1.0; 
stroke:#008484; stroke-width:3.93701; stroke-opacity:1; 
stroke-linecap:round; stroke-linejoin:round;fill-rule:evenodd;"
d="M 40521.3,41538.8
40528.5,41546.3
40533.3,41564
40536.2,41595.8
40538.2,41646.1
40539.3,41687.2
40540.6,41764.4
40539.6,41820
40535.9,41857.4
40528.9,41879.9
40518,41890.8
40503.8,41893.4
40494,41892.2
40487.3,41886.2
40483.1,41871.5
40481.1,41844.3
40480.9,41800.8
40481.8,41737.2
40482.2,41715.3
40483.8,41645.3
40485.7,41596.5
40488.5,41565.1
40492.8,41547.3
40499.4,41539.2
40508.7,41537.2
40510.7,41537.2
Z" /> 
<path style="fill:#008484; fill-opacity:1.0; 
stroke:#008484; stroke-width:3.93701; stroke-opacity:1; 
stroke-linecap:round; stroke-linejoin:round;fill-rule:evenodd;"
d="M 38671.9,38805
38693.6,38828.1
38704.2,38845.3
38704.4,38846.8
38696.7,38861.8
38676.9,38888.5
38656.5,38912.8
38587.4,39000.6
38520.4,39102.7
38461.9,39209.1
38439.9,39255.9
38377.3,39426.2
38339,39599.3
38324.7,39776.6
38334.3,39959.5
38355.6,40093.4
38385.6,40203.1
38431.9,40321.3
38491.1,40441
38559.7,40555.4
38634.3,40657.6
38645.4,40671.1
38677.7,40707
38696.8,40722.3
38702.3,40717
38693.9,40691.2
38685.9,40673.3
38670,40618.1
38670,40565.7
38687.8,40496.2
38725.1,40441.3
38779.5,40403.2
38848.9,40384.3
38853.4,40383.8
38921.5,40385.4
38977.3,40406.2
39026.8,40448.6
39029,40451
39067.6,40511.1
39084,40574.2
39080.2,40636.2
39057.9,40693.2
39019.1,40741.2
38965.6,40776.2
38899.3,40794.2
38867.9,40795.7
38824.2,40789.9
38783.5,40776.7
38780.3,40775.1
38752.2,40762.9
38743.3,40764.6
38752.7,40779.2
38779.9,40805.3
38820.1,40838.8
38968,40943.1
39122.2,41024.2
39285.6,41083.3
39461,41121.6
39541.5,41132
39719.7,41138.3
39895.9,41120.1
40068.4,41078.1
40235.3,41012.7
40395,40924.5
40538.3,40820.1
40619.8,40753
40656.7,40789.9
40693.7,40826.9
40620.9,40889.3
40466.5,41005.9
40301.2,41100.2
40126.1,41171.7
39942.2,41220
39916.6,41224.7
39820.9,41236.5
39710.9,41241.7
39596.3,41240.6
39486.3,41233.1
39390.6,41219.5
39385.7,41218.5
39202.8,41169.1
39030,41097.6
38868.8,41005.6
38721.2,40894.5
38588.8,40765.6
38473.6,40620.6
38377.1,40460.6
38334,40369.7
38272.9,40198
38234.7,40020.9
38219,39840.9
38225.2,39660.7
38253.2,39483
38302.3,39310.2
38372.2,39145.2
38462.5,38990.4
38572.8,38848.5
38577.3,38843.4
38639.3,38774.7
Z" /> 
<path style="fill:#008484; fill-opacity:1.0; 
stroke:#008484; stroke-width:3.93701; stroke-opacity:1; 
stroke-linecap:round; stroke-linejoin:round;fill-rule:evenodd;"
d="M 38941.9,39251.1
39021.9,39253.1
39086.6,39258.2
39145.4,39267.5
39208.1,39282.3
39218.2,39285
39392.3,39344.5
39554.1,39425
39702.2,39525.1
39835.2,39643.2
39951.6,39777.8
40050,39927.5
40129,40090.7
40187.1,40266
40198.4,40312.2
40210,40378.7
40217.6,40455.4
40221.4,40537.8
40221.5,40621.7
40218.3,40702.7
40211.8,40776.6
40202.3,40839
40189.8,40885.7
40174.7,40912.2
40172.9,40913.7
40152.6,40924
40115.5,40939
40068.7,40955.9
40055.2,40960.4
39956.4,40993
39871.1,40960.9
39829.3,40945
39798.2,40932.9
39783.8,40926.8
39783.4,40926.5
39785.6,40914.4
39793.3,40884.5
39805,40842.9
39806.7,40837
39822.1,40763.7
39831.3,40674.9
39834.3,40579.1
39831.1,40484.7
39821.5,40400.5
39811.9,40355.9
39781.1,40264.2
39738.5,40167.3
39688.9,40075.1
39638.6,39999.7
39547.3,39898.8
39438.6,39810.3
39317.3,39736.7
39188.1,39680.9
39055.9,39645.3
38976.2,39634.7
38924.9,39631.6
38891.7,39632.7
38870.2,39638.6
38854.3,39649.7
38835.1,39680.1
38830.3,39716.3
38840.7,39747.9
38847.9,39755.7
38867.5,39764.1
38905.6,39774.7
38956.2,39785.9
38994.7,39793.1
39138.7,39829.2
39268,39885
39381.9,39959.9
39479.5,40053.3
39560.1,40164.7
39592.6,40224.7
39636,40324.2
39663.2,40416.7
39676.8,40512
39679.4,40587.5
39668.2,40728.2
39634.8,40860
39597.5,40947.7
39578.9,40982.3
39561.6,41004.4
39540.3,41015.2
39509.9,41016
39465.2,41008
39408.6,40994.6
39346.3,40975.5
39296.5,40950
39255,40918.9
39221.3,40889.6
39204.4,40870.8
39201.4,40857.5
39209.2,40845
39209.6,40844.6
39224.6,40822.5
39244.6,40786.1
39261.6,40751.2
39278.1,40712.2
39287.5,40678.8
39291.1,40642.2
39290.4,40593
39289.4,40570.3
39278.1,40477.9
39252.7,40401.5
39210.4,40334.7
39160.9,40282.4
39100.3,40234.5
39035.5,40200.9
38959.3,40178.6
38891.6,40167.6
38804.9,40153.1
38734.3,40132.1
38671.5,40101.4
38626,40071.4
38553.1,40003.5
38495.5,39916.7
38465.2,39846.3
38448,39766.8
38446.5,39677.4
38460.2,39587
38485,39512.6
38526.5,39442.7
38585.4,39375.4
38654.4,39318
38713.4,39283.5
38745.7,39269.3
38774.3,39259.7
38805.5,39254.1
38845.5,39251.4
38900.7,39250.8
Z" /> 
<path style="fill:#008484; fill-opacity:1.0; 
stroke:#008484; stroke-width:3.93701; stroke-opacity:1; 
stroke-linecap:round; stroke-linejoin:round;fill-rule:evenodd;"
d="M 39167.2,38725.4
39225.4,38734.9
39230.5,38735.9
39385.9,38772.6
39544.9,38825.6
39696.7,38891.1
39741.1,38913.6
39830.7,38962.4
39904.3,39006
39968.8,39049.2
40031.3,39096.8
40098.6,39153.4
40107.1,39160.8
40267.3,39316.6
40405.8,39484.7
40522.5,39665
40617.3,39857.2
40690,40061
40735.9,40251.6
40757.6,40366.1
40713.2,40439.1
40668.5,40508
40629.4,40556.5
40592.8,40587.4
40555.6,40603.8
40529.4,40608.1
40482.4,40609.9
40436.8,40609.1
40428.1,40608.5
40383.1,40604.6
40374.9,40483.4
40360.5,40363
40334.2,40234.3
40298.8,40109.1
40272.6,40036.5
40192.5,39867.7
40093,39711.6
39975.9,39569.7
39843.4,39443.4
39697.5,39334.3
39540.2,39243.8
39373.6,39173.4
39199.6,39124.5
39020.4,39098.8
38988.8,39096.8
38854.4,39089.9
38854.6,38982.3
38854.8,38874.7
38948,38808.1
39004.8,38768.4
39048.3,38742
39085.4,38727.2
39122.8,38722.2
Z" /> 
<path style="fill:#008484; fill-opacity:1.0; 
stroke:#008484; stroke-width:3.93701; stroke-opacity:1; 
stroke-linecap:round; stroke-linejoin:round;fill-rule:evenodd;"
d="M 39757.2,38580.1
39884.9,38596.3
40014.1,38625.7
40136.3,38666.5
40181.2,38685.7
40325.6,38765.3
40458.9,38865.7
40578.7,38984.5
40683,39119.1
40769.4,39267.1
40835.4,39424.7
40850.4,39476.8
40865.8,39544.4
40880.3,39619.6
40892.5,39694.6
40900.9,39761.5
40904.3,39812.4
40904.3,39813.7
40901.3,39859.2
40889.1,39887.8
40862.9,39907.1
40840.9,39916.4
40822.2,39921.6
40809.7,39916.3
40798.5,39895.9
40786.8,39864
40763.8,39806.4
40731.1,39735.2
40692.6,39657.9
40652.2,39581.8
40613.5,39514.5
40589.1,39475.9
40453.1,39292.8
40305.1,39130.9
40143.5,38988.7
39966.7,38864.9
39873.2,38809.9
39816.5,38779.8
39755.5,38749.3
39695.2,38720.8
39640.5,38696.5
39596.1,38678.5
39567.1,38669.2
39561.2,38668.4
39547.1,38667.6
39543.3,38660.5
39548.7,38640.2
39555.3,38621.4
39564.8,38599.5
39578.8,38587.4
39604.4,38581.6
39639.6,38578.8
Z" /> 
</g>
<g style="fill:#008484; fill-opacity:1.0; 
stroke:#008484; stroke-width:47.2441; stroke-opacity:1; 
stroke-linecap:round; stroke-linejoin:round;">
</g>
<g style="fill:#008484; fill-opacity:0.0; 
stroke:#008484; stroke-width:47.2441; stroke-opacity:1; 
stroke-linecap:round; stroke-linejoin:round;">
<path d="M51838 46023
L52885 46023
" />
<path d="M51838 38000
L51838 46023
" />
<path d="M52885 38000
L52885 46023
" />
<path d="M51838 38000
L52885 38000
" />
<path d="M51838 37500
L51838 36976
" />
<path d="M51838 36976
L52362 36976
" />
<path d="M47712 38629
L47712 39322
" />
<path d="M48921 39322
L48921 38366
" />
<path d="M44551 38744
L44551 38248
" />
<path d="M44551 36059
L44551 36555
" />
<path d="M43070 38744
L44551 38744
" />
<path d="M42185 36059
L44551 36059
" />
<path d="M37440 43748
L37748 43748
" />
<path d="M37748 43748
L37748 43354
" />
<path d="M37440 36566
L37748 36566
" />
<path d="M37748 36566
L37748 36960
" />
<path d="M27612 43748
L27612 36566
" />
<path d="M27612 36566
L30139 36566
" />
<path d="M27612 43748
L30139 43748
" />
<path d="M30139 43748
L30139 43897
" />
<path d="M49098 40728
L49098 40566
" />
<path d="M49098 40566
L46570 40566
" />
<path d="M46570 40566
L46570 40677
" />
<path d="M46570 41358
L46570 42303
" />
<path d="M46570 42933
L46570 43094
" />
<path d="M46570 43094
L49098 43094
" />
<path d="M49098 43094
L49098 42933
" />
<path d="M49098 42303
L49098 41358
" />
<path d="M45110 39267
L44744 39267
" />
<path d="M43866 39267
L44232 39267
" />
<path d="M43866 39267
L43866 40118
" />
<path d="M45110 39267
L45110 39842
" />
<path d="M43633 39267
L43267 39267
" />
<path d="M42389 39267
L42755 39267
" />
<path d="M42389 39267
L42389 40118
" />
<path d="M43633 39267
L43633 39842
" />
<path d="M37700 45933
L37700 46980
" />
<path d="M41724 45933
L37700 45933
" />
<path d="M41724 46980
L37700 46980
" />
<path d="M41724 45933
L41724 46980
" />
<path d="M42224 45933
L42748 45933
" />
<path d="M42748 45933
L42748 46456
" />
<path d="M38732 36287
L38732 37334
" />
<path d="M39755 36287
L38732 36287
" />
<path d="M39755 37334
L38732 37334
" />
<path d="M39755 36287
L39755 37334
" />
<path d="M40255 36287
L40779 36287
" />
<path d="M40779 36287
L40779 36811
" />
<path d="M49358 36842
L49358 35795
" />
<path d="M48334 36842
L49358 36842
" />
<path d="M48334 35795
L49358 35795
" />
<path d="M48334 36842
L48334 35795
" />
<path d="M47834 36842
L47311 36842
" />
<path d="M47311 36842
L47311 36318
" />
<path d="M45984 47598
L49685 47598
" />
<path d="M49685 45314
L49685 46102
" />
<path d="M49685 46850
L49685 47598
" />
<path d="M45984 45314
L45984 46102
" />
<path d="M45984 46850
L45984 47598
" />
<path d="M37314 46980
L37314 45933
" />
<path d="M32291 46980
L37314 46980
" />
<path d="M32291 45933
L37314 45933
" />
<path d="M32291 46980
L32291 45933
" />
<path d="M31791 46980
L31267 46980
" />
<path d="M31267 46980
L31267 46456
" />
<path d="M50708 35734
L49809 35734
" />
<path d="M49809 35734
L49809 36312
" />
<path d="M49809 36312
L50708 36312
" />
<path d="M42519 40885
L42519 40216
" />
<path d="M42519 40216
L41515 40216
" />
<path d="M42519 40885
L41515 40885
" />
<path d="M38643 36295
L39543 36295
" />
<path d="M39543 36295
L39543 35716
" />
<path d="M39543 35716
L38643 35716
" />
<path d="M48164 37299
L48292 37299
" />
<path d="M48164 37700
L48292 37700
" />
<path d="M41354 36814
L41354 36610
" />
<path d="M41913 36814
L41913 36610
" />
<path d="M46933 38973
L46933 39176
" />
<path d="M46374 38973
L46374 39176
" />
<path d="M47543 39109
L47543 39237
" />
<path d="M47141 39109
L47141 39237
" />
<path d="M41913 38185
L41913 38389
" />
<path d="M41354 38185
L41354 38389
" />
<path d="M30908 45653
L30705 45653
" />
<path d="M30908 45094
L30705 45094
" />
<path d="M30856 44787
L30728 44787
" />
<path d="M30856 44385
L30728 44385
" />
</g>
<g style="fill:#008484; fill-opacity:0.0; 
stroke:#008484; stroke-width:59.0551; stroke-opacity:1; 
stroke-linecap:round; stroke-linejoin:round;">
<text x="41811" y="42992.1"
textLength="845.426" font-size="524.934" lengthAdjust="spacingAndGlyphs"
text-anchor="middle" opacity="0">D4</text>
<path d="M41520 42973
L41520 42579
L41614 42579
L41670 42598
L41707 42635
L41726 42673
L41745 42748
L41745 42804
L41726 42879
L41707 42917
L41670 42954
L41614 42973
L41520 42973
" />
<path d="M42082 42710
L42082 42973
" />
<path d="M41989 42560
L41895 42842
L42139 42842
" />
<text x="52263.8" y="36614.2"
textLength="751.687" font-size="524.934" lengthAdjust="spacingAndGlyphs"
text-anchor="middle" opacity="0">J2</text>
<path d="M52132 36201
L52132 36482
L52113 36539
L52076 36576
L52020 36595
L51982 36595
" />
<path d="M52301 36239
L52320 36220
L52357 36201
L52451 36201
L52488 36220
L52507 36239
L52526 36276
L52526 36314
L52507 36370
L52282 36595
L52526 36595
" />
<text x="48228.3" y="40255.9"
textLength="864.173" font-size="524.934" lengthAdjust="spacingAndGlyphs"
text-anchor="middle" opacity="0">U3</text>
<path d="M47928 39843
L47928 40162
L47947 40199
L47965 40218
L48003 40237
L48078 40237
L48115 40218
L48134 40199
L48153 40162
L48153 39843
" />
<path d="M48303 39843
L48547 39843
L48415 39993
L48472 39993
L48509 40012
L48528 40030
L48547 40068
L48547 40162
L48528 40199
L48509 40218
L48472 40237
L48359 40237
L48322 40218
L48303 40199
" />
<text x="43799.2" y="36023.6"
textLength="864.173" font-size="524.934" lengthAdjust="spacingAndGlyphs"
text-anchor="middle" opacity="0">U2</text>
<path d="M43499 35611
L43499 35929
L43517 35967
L43536 35986
L43574 36004
L43649 36004
L43686 35986
L43705 35967
L43724 35929
L43724 35611
" />
<path d="M43892 35648
L43911 35629
L43949 35611
L44042 35611
L44080 35629
L44099 35648
L44117 35686
L44117 35723
L44099 35779
L43874 36004
L44117 36004
" />
<text x="28740.2" y="36417.3"
textLength="864.173" font-size="524.934" lengthAdjust="spacingAndGlyphs"
text-anchor="middle" opacity="0">U1</text>
<path d="M28440 36004
L28440 36323
L28458 36361
L28477 36379
L28515 36398
L28590 36398
L28627 36379
L28646 36361
L28665 36323
L28665 36004
" />
<path d="M29058 36398
L28833 36398
" />
<path d="M28946 36398
L28946 36004
L28908 36061
L28871 36098
L28833 36117
" />
<text x="46850.4" y="43602.4"
textLength="1276.62" font-size="524.934" lengthAdjust="spacingAndGlyphs"
text-anchor="middle" opacity="0">SW1</text>
<path d="M46325 43564
L46381 43583
L46475 43583
L46512 43564
L46531 43546
L46550 43508
L46550 43471
L46531 43433
L46512 43414
L46475 43396
L46400 43377
L46362 43358
L46344 43339
L46325 43302
L46325 43264
L46344 43227
L46362 43208
L46400 43189
L46494 43189
L46550 43208
" />
<path d="M46681 43189
L46775 43583
L46850 43302
L46925 43583
L47019 43189
" />
<path d="M47375 43583
L47150 43583
" />
<path d="M47262 43583
L47262 43189
L47225 43246
L47187 43283
L47150 43302
" />
<g transform="rotate(-90 50098.4 39468.5)">
<text x="50098.4" y="39665.4"
textLength="1220.38" font-size="524.934" lengthAdjust="spacingAndGlyphs"
text-anchor="middle" opacity="0">R11</text>
</g>
<path d="M50276 39721
L50089 39852
" />
<path d="M50276 39946
L49882 39946
L49882 39796
L49901 39759
L49920 39740
L49957 39721
L50014 39721
L50051 39740
L50070 39759
L50089 39796
L50089 39946
" />
<path d="M50276 39346
L50276 39571
" />
<path d="M50276 39459
L49882 39459
L49939 39496
L49976 39534
L49995 39571
" />
<path d="M50276 38971
L50276 39196
" />
<path d="M50276 39084
L49882 39084
L49939 39121
L49976 39159
L49995 39196
" />
<g transform="rotate(-90 50590.6 38385.8)">
<text x="50590.6" y="38582.7"
textLength="1220.38" font-size="524.934" lengthAdjust="spacingAndGlyphs"
text-anchor="middle" opacity="0">R10</text>
</g>
<path d="M50768 38638
L50581 38770
" />
<path d="M50768 38863
L50374 38863
L50374 38713
L50393 38676
L50412 38657
L50449 38638
L50506 38638
L50543 38657
L50562 38676
L50581 38713
L50581 38863
" />
<path d="M50768 38263
L50768 38488
" />
<path d="M50768 38376
L50374 38376
L50431 38413
L50468 38451
L50487 38488
" />
<path d="M50374 38020
L50374 37982
L50393 37945
L50412 37926
L50449 37907
L50524 37889
L50618 37889
L50693 37907
L50731 37926
L50749 37945
L50768 37982
L50768 38020
L50749 38057
L50731 38076
L50693 38095
L50618 38113
L50524 38113
L50449 38095
L50412 38076
L50393 38057
L50374 38020
" />
<g transform="rotate(-90 50098.4 38582.7)">
<text x="50098.4" y="38779.5"
textLength="845.426" font-size="524.934" lengthAdjust="spacingAndGlyphs"
text-anchor="middle" opacity="0">R9</text>
</g>
<path d="M50276 38648
L50089 38779
" />
<path d="M50276 38873
L49882 38873
L49882 38723
L49901 38685
L49920 38667
L49957 38648
L50014 38648
L50051 38667
L50070 38685
L50089 38723
L50089 38873
" />
<path d="M50276 38460
L50276 38385
L50257 38348
L50239 38329
L50182 38292
L50107 38273
L49957 38273
L49920 38292
L49901 38310
L49882 38348
L49882 38423
L49901 38460
L49920 38479
L49957 38498
L50051 38498
L50089 38479
L50107 38460
L50126 38423
L50126 38348
L50107 38310
L50089 38292
L50051 38273
" />
<g transform="rotate(-90 44803.1 41181.1)">
<text x="44803.1" y="41378"
textLength="845.426" font-size="524.934" lengthAdjust="spacingAndGlyphs"
text-anchor="middle" opacity="0">R8</text>
</g>
<path d="M44981 41246
L44793 41377
" />
<path d="M44981 41471
L44587 41471
L44587 41321
L44606 41284
L44625 41265
L44662 41246
L44718 41246
L44756 41265
L44775 41284
L44793 41321
L44793 41471
" />
<path d="M44756 41021
L44737 41059
L44718 41077
L44681 41096
L44662 41096
L44625 41077
L44606 41059
L44587 41021
L44587 40946
L44606 40909
L44625 40890
L44662 40871
L44681 40871
L44718 40890
L44737 40909
L44756 40946
L44756 41021
L44775 41059
L44793 41077
L44831 41096
L44906 41096
L44943 41077
L44962 41059
L44981 41021
L44981 40946
L44962 40909
L44943 40890
L44906 40871
L44831 40871
L44793 40890
L44775 40909
L44756 40946
" />
<g transform="rotate(-90 45826.8 41141.7)">
<text x="45826.8" y="41338.6"
textLength="845.426" font-size="524.934" lengthAdjust="spacingAndGlyphs"
text-anchor="middle" opacity="0">R7</text>
</g>
<path d="M46004 41207
L45817 41338
" />
<path d="M46004 41432
L45611 41432
L45611 41282
L45629 41244
L45648 41226
L45686 41207
L45742 41207
L45779 41226
L45798 41244
L45817 41282
L45817 41432
" />
<path d="M45611 41076
L45611 40813
L46004 40982
" />
<text x="45590.6" y="40748"
textLength="845.426" font-size="524.934" lengthAdjust="spacingAndGlyphs"
text-anchor="middle" opacity="0">R6</text>
<path d="M45524 40729
L45393 40541
" />
<path d="M45299 40729
L45299 40335
L45449 40335
L45487 40354
L45506 40373
L45524 40410
L45524 40466
L45506 40504
L45487 40523
L45449 40541
L45299 40541
" />
<path d="M45862 40335
L45787 40335
L45749 40354
L45731 40373
L45693 40429
L45674 40504
L45674 40654
L45693 40691
L45712 40710
L45749 40729
L45824 40729
L45862 40710
L45881 40691
L45899 40654
L45899 40560
L45881 40523
L45862 40504
L45824 40485
L45749 40485
L45712 40504
L45693 40523
L45674 40560
" />
<text x="44192.9" y="42716.5"
textLength="845.426" font-size="524.934" lengthAdjust="spacingAndGlyphs"
text-anchor="middle" opacity="0">R5</text>
<path d="M44127 42697
L43996 42510
" />
<path d="M43902 42697
L43902 42304
L44052 42304
L44089 42322
L44108 42341
L44127 42379
L44127 42435
L44108 42472
L44089 42491
L44052 42510
L43902 42510
" />
<path d="M44483 42304
L44296 42304
L44277 42491
L44296 42472
L44333 42454
L44427 42454
L44464 42472
L44483 42491
L44502 42529
L44502 42622
L44483 42660
L44464 42679
L44427 42697
L44333 42697
L44296 42679
L44277 42660
" />
<text x="44881.9" y="40748"
textLength="845.426" font-size="524.934" lengthAdjust="spacingAndGlyphs"
text-anchor="middle" opacity="0">R4</text>
<path d="M44816 40729
L44685 40541
" />
<path d="M44591 40729
L44591 40335
L44741 40335
L44778 40354
L44797 40373
L44816 40410
L44816 40466
L44797 40504
L44778 40523
L44741 40541
L44591 40541
" />
<path d="M45153 40466
L45153 40729
" />
<path d="M45059 40316
L44966 40598
L45209 40598
" />
<text x="41811" y="42047.2"
textLength="845.426" font-size="524.934" lengthAdjust="spacingAndGlyphs"
text-anchor="middle" opacity="0">R3</text>
<path d="M41745 42028
L41614 41841
" />
<path d="M41520 42028
L41520 41634
L41670 41634
L41707 41653
L41726 41672
L41745 41709
L41745 41766
L41726 41803
L41707 41822
L41670 41841
L41520 41841
" />
<path d="M41876 41634
L42120 41634
L41989 41784
L42045 41784
L42082 41803
L42101 41822
L42120 41859
L42120 41953
L42101 41991
L42082 42009
L42045 42028
L41932 42028
L41895 42009
L41876 41991
" />
<text x="37204.7" y="36102.4"
textLength="845.426" font-size="524.934" lengthAdjust="spacingAndGlyphs"
text-anchor="middle" opacity="0">R2</text>
<path d="M37139 36083
L37007 35896
" />
<path d="M36914 36083
L36914 35689
L37064 35689
L37101 35708
L37120 35727
L37139 35764
L37139 35821
L37120 35858
L37101 35877
L37064 35896
L36914 35896
" />
<path d="M37289 35727
L37307 35708
L37345 35689
L37439 35689
L37476 35708
L37495 35727
L37514 35764
L37514 35802
L37495 35858
L37270 36083
L37514 36083
" />
<g transform="rotate(-90 32126 44330.7)">
<text x="32126" y="44527.6"
textLength="845.426" font-size="524.934" lengthAdjust="spacingAndGlyphs"
text-anchor="middle" opacity="0">R1</text>
</g>
<path d="M32304 44396
L32116 44527
" />
<path d="M32304 44621
L31910 44621
L31910 44471
L31929 44433
L31947 44415
L31985 44396
L32041 44396
L32079 44415
L32097 44433
L32116 44471
L32116 44621
" />
<path d="M32304 44021
L32304 44246
" />
<path d="M32304 44133
L31910 44133
L31966 44171
L32004 44208
L32022 44246
" />
<text x="45078.7" y="39173.2"
textLength="864.173" font-size="524.934" lengthAdjust="spacingAndGlyphs"
text-anchor="middle" opacity="0">Q2</text>
<path d="M45041 39191
L45003 39173
L44966 39135
L44910 39079
L44872 39060
L44835 39060
" />
<path d="M44853 39154
L44816 39135
L44778 39098
L44760 39023
L44760 38892
L44778 38817
L44816 38779
L44853 38760
L44928 38760
L44966 38779
L45003 38817
L45022 38892
L45022 39023
L45003 39098
L44966 39135
L44928 39154
L44853 39154
" />
<path d="M45172 38798
L45191 38779
L45228 38760
L45322 38760
L45359 38779
L45378 38798
L45397 38835
L45397 38873
L45378 38929
L45153 39154
L45397 39154
" />
<text x="42322.8" y="39173.2"
textLength="864.173" font-size="524.934" lengthAdjust="spacingAndGlyphs"
text-anchor="middle" opacity="0">Q1</text>
<path d="M42285 39191
L42247 39173
L42210 39135
L42154 39079
L42116 39060
L42079 39060
" />
<path d="M42097 39154
L42060 39135
L42022 39098
L42004 39023
L42004 38892
L42022 38817
L42060 38779
L42097 38760
L42172 38760
L42210 38779
L42247 38817
L42266 38892
L42266 39023
L42247 39098
L42210 39135
L42172 39154
L42097 39154
" />
<path d="M42641 39154
L42416 39154
" />
<path d="M42529 39154
L42529 38760
L42491 38817
L42454 38854
L42416 38873
" />
<text x="43141.7" y="46653.5"
textLength="751.687" font-size="524.934" lengthAdjust="spacingAndGlyphs"
text-anchor="middle" opacity="0">J6</text>
<path d="M43010 46241
L43010 46522
L42991 46578
L42954 46616
L42898 46634
L42860 46634
" />
<path d="M43366 46241
L43291 46241
L43254 46259
L43235 46278
L43197 46334
L43179 46409
L43179 46559
L43197 46597
L43216 46616
L43254 46634
L43329 46634
L43366 46616
L43385 46597
L43404 46559
L43404 46466
L43385 46428
L43366 46409
L43329 46391
L43254 46391
L43216 46409
L43197 46428
L43179 46466
" />
<text x="40629.9" y="36181.1"
textLength="751.687" font-size="524.934" lengthAdjust="spacingAndGlyphs"
text-anchor="middle" opacity="0">J5</text>
<path d="M40498 35768
L40498 36049
L40479 36106
L40442 36143
L40386 36162
L40348 36162
" />
<path d="M40873 35768
L40686 35768
L40667 35956
L40686 35937
L40723 35918
L40817 35918
L40854 35937
L40873 35956
L40892 35993
L40892 36087
L40873 36124
L40854 36143
L40817 36162
L40723 36162
L40686 36143
L40667 36124
" />
<text x="46850.4" y="36614.2"
textLength="751.687" font-size="524.934" lengthAdjust="spacingAndGlyphs"
text-anchor="middle" opacity="0">J4</text>
<path d="M46719 36201
L46719 36482
L46700 36539
L46662 36576
L46606 36595
L46569 36595
" />
<path d="M47075 36332
L47075 36595
" />
<path d="M46981 36182
L46887 36464
L47131 36464
" />
<text x="47834.6" y="44037.4"
textLength="751.687" font-size="524.934" lengthAdjust="spacingAndGlyphs"
text-anchor="middle" opacity="0">J3</text>
<path d="M47703 43624
L47703 43906
L47684 43962
L47647 43999
L47590 44018
L47553 44018
" />
<path d="M47853 43624
L48097 43624
L47965 43774
L48022 43774
L48059 43793
L48078 43812
L48097 43849
L48097 43943
L48078 43981
L48059 43999
L48022 44018
L47909 44018
L47872 43999
L47853 43981
" />
<g transform="rotate(-90 30874 46456.7)">
<text x="30874" y="46653.5"
textLength="751.687" font-size="524.934" lengthAdjust="spacingAndGlyphs"
text-anchor="middle" opacity="0">J1</text>
</g>
<path d="M30658 46587
L30939 46587
L30995 46606
L31033 46644
L31052 46700
L31052 46737
" />
<path d="M31052 46194
L31052 46419
" />
<path d="M31052 46306
L30658 46306
L30714 46344
L30752 46381
L30770 46419
" />
<text x="51279.5" y="36220.5"
textLength="845.426" font-size="524.934" lengthAdjust="spacingAndGlyphs"
text-anchor="middle" opacity="0">D3</text>
<path d="M50988 36201
L50988 35808
L51082 35808
L51138 35826
L51176 35864
L51195 35901
L51213 35976
L51213 36032
L51195 36107
L51176 36145
L51138 36182
L51082 36201
L50988 36201
" />
<path d="M51345 35808
L51588 35808
L51457 35958
L51513 35958
L51551 35976
L51570 35995
L51588 36032
L51588 36126
L51570 36164
L51551 36182
L51513 36201
L51401 36201
L51363 36182
L51345 36164
" />
<text x="41811" y="42519.7"
textLength="845.426" font-size="524.934" lengthAdjust="spacingAndGlyphs"
text-anchor="middle" opacity="0">D2</text>
<path d="M41520 42500
L41520 42107
L41614 42107
L41670 42125
L41707 42163
L41726 42200
L41745 42275
L41745 42332
L41726 42407
L41707 42444
L41670 42482
L41614 42500
L41520 42500
" />
<path d="M41895 42144
L41914 42125
L41951 42107
L42045 42107
L42082 42125
L42101 42144
L42120 42182
L42120 42219
L42101 42275
L41876 42500
L42120 42500
" />
<text x="39862.2" y="36220.5"
textLength="845.426" font-size="524.934" lengthAdjust="spacingAndGlyphs"
text-anchor="middle" opacity="0">D1</text>
<path d="M39571 36201
L39571 35808
L39665 35808
L39721 35826
L39759 35864
L39777 35901
L39796 35976
L39796 36032
L39777 36107
L39759 36145
L39721 36182
L39665 36201
L39571 36201
" />
<path d="M40171 36201
L39946 36201
" />
<path d="M40059 36201
L40059 35808
L40021 35864
L39984 35901
L39946 35920
" />
<text x="49133.9" y="37913.4"
textLength="845.426" font-size="524.934" lengthAdjust="spacingAndGlyphs"
text-anchor="middle" opacity="0">C9</text>
<path d="M49068 37857
L49049 37875
L48993 37894
L48955 37894
L48899 37875
L48862 37838
L48843 37800
L48824 37725
L48824 37669
L48843 37594
L48862 37557
L48899 37519
L48955 37500
L48993 37500
L49049 37519
L49068 37538
" />
<path d="M49255 37894
L49330 37894
L49368 37875
L49386 37857
L49424 37800
L49443 37725
L49443 37575
L49424 37538
L49405 37519
L49368 37500
L49293 37500
L49255 37519
L49236 37538
L49218 37575
L49218 37669
L49236 37707
L49255 37725
L49293 37744
L49368 37744
L49405 37725
L49424 37707
L49443 37669
" />
<text x="41633.9" y="36023.6"
textLength="845.426" font-size="524.934" lengthAdjust="spacingAndGlyphs"
text-anchor="middle" opacity="0">C8</text>
<path d="M41568 35967
L41549 35986
L41493 36004
L41455 36004
L41399 35986
L41362 35948
L41343 35911
L41324 35836
L41324 35779
L41343 35704
L41362 35667
L41399 35629
L41455 35611
L41493 35611
L41549 35629
L41568 35648
" />
<path d="M41793 35779
L41755 35761
L41736 35742
L41718 35704
L41718 35686
L41736 35648
L41755 35629
L41793 35611
L41868 35611
L41905 35629
L41924 35648
L41943 35686
L41943 35704
L41924 35742
L41905 35761
L41868 35779
L41793 35779
L41755 35798
L41736 35817
L41718 35854
L41718 35929
L41736 35967
L41755 35986
L41793 36004
L41868 36004
L41905 35986
L41924 35967
L41943 35929
L41943 35854
L41924 35817
L41905 35798
L41868 35779
" />
<text x="46653.5" y="38484.3"
textLength="845.426" font-size="524.934" lengthAdjust="spacingAndGlyphs"
text-anchor="middle" opacity="0">C7</text>
<path d="M46587 38428
L46569 38446
L46512 38465
L46475 38465
L46419 38446
L46381 38409
L46362 38371
L46344 38296
L46344 38240
L46362 38165
L46381 38128
L46419 38090
L46475 38071
L46512 38071
L46569 38090
L46587 38109
" />
<path d="M46719 38071
L46981 38071
L46812 38465
" />
<text x="47342.5" y="38484.3"
textLength="845.426" font-size="524.934" lengthAdjust="spacingAndGlyphs"
text-anchor="middle" opacity="0">C6</text>
<path d="M47276 38428
L47258 38446
L47201 38465
L47164 38465
L47108 38446
L47070 38409
L47051 38371
L47033 38296
L47033 38240
L47051 38165
L47070 38128
L47108 38090
L47164 38071
L47201 38071
L47258 38090
L47276 38109
" />
<path d="M47614 38071
L47539 38071
L47501 38090
L47483 38109
L47445 38165
L47426 38240
L47426 38390
L47445 38428
L47464 38446
L47501 38465
L47576 38465
L47614 38446
L47633 38428
L47651 38390
L47651 38296
L47633 38259
L47614 38240
L47576 38221
L47501 38221
L47464 38240
L47445 38259
L47426 38296
" />
<text x="41535.4" y="39370.1"
textLength="845.426" font-size="524.934" lengthAdjust="spacingAndGlyphs"
text-anchor="middle" opacity="0">C5</text>
<path d="M41469 39313
L41451 39332
L41394 39351
L41357 39351
L41301 39332
L41263 39295
L41244 39257
L41226 39182
L41226 39126
L41244 39051
L41263 39013
L41301 38976
L41357 38957
L41394 38957
L41451 38976
L41469 38995
" />
<path d="M41826 38957
L41638 38957
L41619 39145
L41638 39126
L41676 39107
L41769 39107
L41807 39126
L41826 39145
L41844 39182
L41844 39276
L41826 39313
L41807 39332
L41769 39351
L41676 39351
L41638 39332
L41619 39313
" />
<g transform="rotate(-90 45354.3 41181.1)">
<text x="45354.3" y="41378"
textLength="845.426" font-size="524.934" lengthAdjust="spacingAndGlyphs"
text-anchor="middle" opacity="0">C4</text>
</g>
<path d="M45494 41246
L45513 41265
L45532 41321
L45532 41359
L45513 41415
L45476 41452
L45438 41471
L45363 41490
L45307 41490
L45232 41471
L45194 41452
L45157 41415
L45138 41359
L45138 41321
L45157 41265
L45176 41246
" />
<path d="M45269 40909
L45532 40909
" />
<path d="M45119 41002
L45401 41096
L45401 40853
" />
<text x="29842.5" y="45551.2"
textLength="845.426" font-size="524.934" lengthAdjust="spacingAndGlyphs"
text-anchor="middle" opacity="0">C3</text>
<path d="M29776 45494
L29758 45513
L29701 45532
L29664 45532
L29608 45513
L29570 45476
L29551 45438
L29533 45363
L29533 45307
L29551 45232
L29570 45194
L29608 45157
L29664 45138
L29701 45138
L29758 45157
L29776 45176
" />
<path d="M29908 45138
L30151 45138
L30020 45288
L30076 45288
L30114 45307
L30133 45326
L30151 45363
L30151 45457
L30133 45494
L30114 45513
L30076 45532
L29964 45532
L29926 45513
L29908 45494
" />
<text x="29842.5" y="44763.8"
textLength="845.426" font-size="524.934" lengthAdjust="spacingAndGlyphs"
text-anchor="middle" opacity="0">C2</text>
<path d="M29776 44707
L29758 44726
L29701 44745
L29664 44745
L29608 44726
L29570 44688
L29551 44651
L29533 44576
L29533 44520
L29551 44445
L29570 44407
L29608 44370
L29664 44351
L29701 44351
L29758 44370
L29776 44388
" />
<path d="M29926 44388
L29945 44370
L29983 44351
L30076 44351
L30114 44370
L30133 44388
L30151 44426
L30151 44463
L30133 44520
L29908 44745
L30151 44745
" />
<g transform="rotate(-90 32598.4 44330.7)">
<text x="32598.4" y="44527.6"
textLength="845.426" font-size="524.934" lengthAdjust="spacingAndGlyphs"
text-anchor="middle" opacity="0">C1</text>
</g>
<path d="M32739 44396
L32757 44415
L32776 44471
L32776 44508
L32757 44565
L32720 44602
L32682 44621
L32607 44640
L32551 44640
L32476 44621
L32439 44602
L32401 44565
L32382 44508
L32382 44471
L32401 44415
L32420 44396
" />
<path d="M32776 44021
L32776 44246
" />
<path d="M32776 44133
L32382 44133
L32439 44171
L32476 44208
L32495 44246
" />
<g >
</g>
</g> 
</svg>
